<svg width="206" height="48" viewBox="0 0 206 48" fill="none" xmlns="http://www.w3.org/2000/svg">
    <g clip-path="url(#clip0_83_1821)">
        <path
            d="M32.7426 45.9002C29.9951 47.0091 27.0294 47.5893 23.9738 47.5893C17.7518 47.5893 11.9032 45.1835 7.50429 40.8155C3.10437 36.4474 0.681568 30.6388 0.681568 24.4616C0.681568 18.2843 3.10437 12.4757 7.50429 8.10765C9.83713 5.79015 12.5774 4.0261 15.5648 2.87916L15.4128 2.49719C12.3737 3.66364 9.58585 5.45952 7.21165 7.81706C2.73418 12.2631 0.267944 18.1734 0.267944 24.4616C0.267944 30.7497 2.73418 36.66 7.21165 41.106C11.6891 45.5521 17.6412 48 23.9738 48C27.0832 48 30.1006 47.4096 32.8956 46.2832L32.7426 45.9002V45.9002Z"
            fill="white" />
        <path
            d="M18.0207 2.758L18.0134 2.73028C18.0186 2.72925 18.0321 2.72309 18.0527 2.71385C18.0734 2.70461 18.0941 2.69228 18.1148 2.67688C18.1355 2.66148 18.152 2.643 18.1654 2.62143C18.1789 2.59987 18.182 2.57626 18.1748 2.55059C18.1706 2.53416 18.1582 2.50849 18.1375 2.47255C18.1168 2.43764 18.09 2.39554 18.0569 2.34522C18.0238 2.29594 17.9855 2.24049 17.9442 2.18094C17.9018 2.12138 17.8573 2.05875 17.8097 1.99406L17.0673 2.1912C17.058 2.26924 17.0497 2.34317 17.0404 2.41402C17.0311 2.48487 17.0228 2.55572 17.0145 2.6276C17.0021 2.73746 17.0021 2.81345 17.0125 2.85349C17.0187 2.87711 17.0321 2.89559 17.0507 2.90689C17.0693 2.91818 17.0921 2.9264 17.1179 2.9305C17.1438 2.93461 17.1707 2.93564 17.1996 2.93256C17.2276 2.9305 17.2544 2.92742 17.2793 2.92434L17.2865 2.95207L16.6919 3.11019L16.6836 3.07939C16.7302 3.06091 16.7684 3.03729 16.7974 3.00751C16.8263 2.97774 16.8429 2.95925 16.846 2.95001C16.8553 2.93358 16.8687 2.89765 16.8853 2.84117C16.9018 2.78572 16.9194 2.70461 16.937 2.59885C16.9525 2.5013 16.9701 2.39143 16.9877 2.26719C17.0063 2.14397 17.0249 2.01665 17.0445 1.88522C17.0642 1.75481 17.0828 1.62235 17.1004 1.4899C17.1179 1.35744 17.1355 1.2332 17.1521 1.11819L17.1076 1.0648C17.1376 1.04118 17.1624 1.01551 17.1841 0.98779C17.2058 0.960066 17.2234 0.932342 17.2379 0.905645C17.2524 0.877922 17.2637 0.852252 17.272 0.828635C17.2803 0.805019 17.2865 0.785509 17.2906 0.770107L17.3134 0.763947C17.4127 0.901538 17.5068 1.03297 17.5957 1.15619C17.6846 1.28043 17.7704 1.39954 17.8521 1.51351C17.9338 1.62852 18.0134 1.73941 18.09 1.8462C18.1665 1.95299 18.243 2.05977 18.3195 2.16348C18.3557 2.21482 18.3878 2.25795 18.4147 2.2908C18.4426 2.32366 18.4746 2.36165 18.5098 2.40375C18.516 2.40991 18.5274 2.42121 18.5449 2.43558C18.5625 2.45099 18.5853 2.46536 18.6122 2.47871C18.639 2.49206 18.6701 2.50233 18.7052 2.50849C18.7404 2.51465 18.7807 2.51362 18.8231 2.50335L18.8324 2.53621L18.0176 2.75287L18.0207 2.758ZM17.2027 1.17672C17.1976 1.20342 17.1924 1.24552 17.1841 1.30302C17.1769 1.36052 17.1665 1.43034 17.1552 1.51249C17.1438 1.59463 17.1314 1.68807 17.1179 1.79075C17.1055 1.89446 17.0911 2.00638 17.0755 2.12754L17.7704 1.94272C17.7167 1.86776 17.6619 1.79383 17.6071 1.71887C17.5522 1.64392 17.4985 1.57307 17.4478 1.50427C17.3961 1.43548 17.3496 1.37284 17.3072 1.31637C17.2648 1.25989 17.2296 1.21266 17.2027 1.17672V1.17672Z"
            fill="white" />
        <path
            d="M21.1456 1.86775C21.1187 1.94476 21.0753 2.01356 21.0163 2.07311C20.9574 2.13267 20.884 2.18195 20.7961 2.21892C20.7082 2.25588 20.61 2.28155 20.5004 2.29696C20.4073 2.30928 20.3256 2.31544 20.2573 2.31236C20.1891 2.3103 20.1322 2.30414 20.0857 2.29388C20.0392 2.28361 20.005 2.27334 19.9813 2.26307C19.9575 2.2528 19.943 2.24767 19.9368 2.2487C19.9306 2.2487 19.9202 2.26204 19.9047 2.28771C19.8892 2.31339 19.8747 2.337 19.8623 2.35959L19.8365 2.36267L19.7496 1.79896L19.7786 1.79485C19.8024 1.84414 19.8313 1.89034 19.8654 1.93449C19.8996 1.97865 19.9347 2.02075 19.9719 2.05874C20.0092 2.09673 20.0474 2.12959 20.0878 2.15731C20.1271 2.18503 20.1643 2.20454 20.1994 2.21687C20.2346 2.22919 20.2791 2.24048 20.3349 2.25075C20.3907 2.25999 20.4435 2.26204 20.4931 2.25486C20.6337 2.23535 20.7434 2.18195 20.8209 2.09262C20.8985 2.00432 20.9274 1.89445 20.9098 1.76404C20.9026 1.71065 20.8871 1.66547 20.8643 1.62851C20.8416 1.59154 20.8137 1.55971 20.7795 1.53404C20.7454 1.50837 20.7072 1.48886 20.6648 1.47346C20.6213 1.45806 20.5758 1.44471 20.5283 1.43444C20.4797 1.42315 20.4383 1.41493 20.4021 1.40774C20.3659 1.40158 20.3328 1.3944 20.3018 1.38823C20.2708 1.38207 20.2387 1.37591 20.2056 1.36975C20.1726 1.36359 20.1333 1.35538 20.0867 1.34408C20.035 1.33176 19.9833 1.31225 19.9327 1.28555C19.882 1.25886 19.8365 1.22497 19.7962 1.18595C19.7558 1.14591 19.7217 1.10073 19.6928 1.04939C19.6638 0.998049 19.6462 0.942602 19.6379 0.882021C19.6235 0.77934 19.6307 0.688981 19.6576 0.609918C19.6845 0.530854 19.7269 0.462058 19.7837 0.404557C19.8406 0.347056 19.9089 0.299823 19.9885 0.264911C20.0681 0.23 20.1539 0.206384 20.2449 0.194062C20.3308 0.182767 20.4052 0.179687 20.4683 0.184821C20.5314 0.190982 20.5831 0.199196 20.6244 0.211518C20.6658 0.223839 20.6979 0.235134 20.7196 0.246429C20.7413 0.257724 20.7537 0.263885 20.7558 0.262858C20.7609 0.262858 20.7723 0.249509 20.7868 0.223839C20.8013 0.198169 20.8157 0.173526 20.8271 0.148883L20.8581 0.144775L20.9305 0.670499L20.8995 0.674606C20.8685 0.615052 20.8302 0.557551 20.7847 0.501076C20.7403 0.444602 20.6906 0.395316 20.6358 0.353217C20.581 0.311118 20.5221 0.279287 20.4569 0.257724C20.3918 0.236161 20.3215 0.23 20.247 0.240268C20.1881 0.248483 20.1333 0.264911 20.0836 0.288528C20.033 0.313171 19.9916 0.345002 19.9564 0.384021C19.9223 0.423039 19.8975 0.470272 19.882 0.522639C19.8665 0.576033 19.8644 0.634561 19.8727 0.699249C19.8861 0.799876 19.9285 0.87586 19.9978 0.928227C20.0671 0.980594 20.1529 1.01859 20.2553 1.04118C20.2956 1.05144 20.3328 1.05966 20.368 1.06685C20.4032 1.07403 20.4373 1.08019 20.4714 1.08635C20.5055 1.09252 20.5396 1.09868 20.5748 1.10586C20.61 1.11305 20.6462 1.12024 20.6844 1.12845C20.8199 1.15823 20.9305 1.21265 21.0143 1.29377C21.098 1.37386 21.1497 1.48167 21.1684 1.61619C21.1808 1.70757 21.1735 1.79074 21.1466 1.86775H21.1456Z"
            fill="white" />
        <path
            d="M22.4402 2.0916V2.06285C22.4868 2.05361 22.5312 2.04026 22.5726 2.02178C22.6129 2.00329 22.6481 1.97762 22.676 1.94374C22.6853 1.93245 22.6915 1.91602 22.6956 1.89445C22.6998 1.87289 22.7029 1.84825 22.705 1.8195C22.707 1.79075 22.7081 1.76097 22.7081 1.72914C22.7081 1.69731 22.7081 1.6665 22.706 1.6357C22.706 1.609 22.705 1.57306 22.7039 1.52686C22.7039 1.48065 22.7029 1.43034 22.7019 1.37592C22.7019 1.3215 22.6998 1.26502 22.6977 1.20855C22.6956 1.14899 22.6936 1.09355 22.6925 1.04221L22.675 0.483625L22.6719 0.380944C22.6708 0.34706 22.6688 0.314202 22.6646 0.285451C22.6605 0.255674 22.6553 0.228977 22.6491 0.205361C22.6429 0.181744 22.6336 0.163262 22.6212 0.149913C22.5933 0.118082 22.5592 0.0954928 22.5188 0.0831711C22.4785 0.0708495 22.434 0.0616082 22.3834 0.057501V0.0277237L23.2458 0V0.0287505C23.2065 0.0359381 23.163 0.047233 23.1175 0.0646886C23.072 0.0811175 23.0369 0.112948 23.0141 0.160181C22.9976 0.193039 22.9904 0.234111 22.9904 0.284425C22.9904 0.333711 22.9904 0.380944 22.9904 0.425097C22.9914 0.473357 22.9924 0.52059 22.9935 0.566796C22.9935 0.614029 22.9945 0.661262 22.9966 0.708495C22.9986 0.756755 22.9997 0.806041 23.0017 0.857381C23.0038 0.906668 23.0048 0.961088 23.0069 1.02064L23.0276 1.66856C23.0297 1.724 23.0317 1.7774 23.0359 1.82874C23.039 1.88008 23.0493 1.91602 23.0658 1.93655C23.0896 1.96838 23.1269 1.992 23.1775 2.0074C23.2282 2.0228 23.2737 2.03204 23.314 2.03513V2.06388L22.4402 2.0916Z"
            fill="white" />
        <path
            d="M25.6686 2.15527L25.6706 2.12652C25.6768 2.12652 25.6903 2.12652 25.713 2.12446C25.7358 2.12241 25.7585 2.11728 25.7833 2.11009C25.8082 2.1029 25.8299 2.09058 25.8495 2.07518C25.8692 2.05977 25.8795 2.03821 25.8816 2.01152C25.8826 1.99406 25.8795 1.96634 25.8723 1.92629C25.865 1.88625 25.8537 1.83799 25.8392 1.77946C25.8247 1.72093 25.8071 1.65727 25.7875 1.58745C25.7678 1.5166 25.7472 1.44369 25.7234 1.36668L24.9571 1.30713C24.923 1.37695 24.8889 1.44472 24.8568 1.50838C24.8248 1.57204 24.7927 1.6357 24.7607 1.70039C24.7121 1.79999 24.6862 1.87084 24.6831 1.91294C24.681 1.93759 24.6872 1.95915 24.7017 1.9766C24.7162 1.99406 24.7348 2.00843 24.7576 2.02076C24.7803 2.03308 24.8062 2.04232 24.833 2.04951C24.8599 2.05669 24.8868 2.06286 24.9116 2.06902L24.9096 2.09777L24.2964 2.04951L24.2984 2.01768C24.3491 2.01562 24.3925 2.00638 24.4298 1.9879C24.467 1.96942 24.4887 1.95709 24.4949 1.94991C24.5094 1.93759 24.5342 1.90781 24.5683 1.86058C24.6025 1.81334 24.6459 1.74249 24.6976 1.64905C24.7452 1.5628 24.7979 1.46423 24.8568 1.35333C24.9158 1.24244 24.9768 1.12949 25.0388 1.01243C25.1009 0.895379 25.1629 0.777297 25.225 0.659214C25.286 0.540105 25.3449 0.42921 25.3987 0.32653L25.3749 0.261841C25.4111 0.24952 25.4431 0.234118 25.4731 0.214608C25.5031 0.196126 25.529 0.17559 25.5517 0.155054C25.5745 0.134518 25.5941 0.112955 25.6107 0.0934455C25.6272 0.0739362 25.6386 0.0575074 25.6479 0.0441589L25.6706 0.0462125C25.7172 0.209474 25.7627 0.363495 25.8051 0.509301C25.8475 0.655107 25.8878 0.795779 25.9271 0.931317C25.9664 1.06686 26.0026 1.19726 26.0398 1.32356C26.077 1.44985 26.1122 1.57512 26.1494 1.69834C26.166 1.75892 26.1815 1.80923 26.197 1.85031C26.2125 1.89035 26.229 1.93656 26.2487 1.9879C26.2518 1.99611 26.259 2.00946 26.2714 2.03C26.2838 2.05053 26.2993 2.07107 26.32 2.09263C26.3407 2.1142 26.3666 2.1337 26.3976 2.15219C26.4286 2.16964 26.4669 2.18196 26.5103 2.1871L26.5072 2.22098L25.6665 2.15527H25.6686ZM25.4287 0.393272C25.4152 0.416889 25.3956 0.45488 25.3687 0.506221C25.3428 0.557561 25.3098 0.620196 25.2715 0.694126C25.2332 0.768056 25.1898 0.851227 25.1433 0.944666C25.0967 1.03811 25.045 1.13873 24.9902 1.24757L25.7068 1.30302C25.681 1.21472 25.6551 1.12641 25.6282 1.0381C25.6014 0.9498 25.5755 0.864575 25.5497 0.783458C25.5238 0.70234 25.5011 0.627384 25.4804 0.559614C25.4597 0.491845 25.4421 0.436398 25.4287 0.393272V0.393272Z"
            fill="white" />
        <path
            d="M30.083 2.99829L30.0913 2.97056C30.0964 2.97262 30.1109 2.97364 30.1326 2.97672C30.1554 2.97878 30.1791 2.97878 30.205 2.97672C30.2309 2.97364 30.2546 2.96748 30.2774 2.95516C30.3001 2.94387 30.3146 2.92538 30.3219 2.89971C30.327 2.88328 30.3291 2.85453 30.3301 2.81449C30.3301 2.77342 30.3301 2.72413 30.327 2.66458C30.3239 2.60502 30.3198 2.5393 30.3146 2.46538C30.3094 2.39247 30.3032 2.31649 30.296 2.2364L29.5577 2.02693C29.5101 2.08854 29.4636 2.14809 29.4201 2.20354C29.3757 2.26001 29.3312 2.31649 29.2868 2.37296C29.2195 2.46127 29.1802 2.52596 29.1678 2.566C29.1606 2.58962 29.1627 2.61221 29.173 2.63172C29.1833 2.65123 29.1989 2.66971 29.2185 2.68614C29.2392 2.70257 29.2619 2.71694 29.2868 2.72926C29.3126 2.74159 29.3364 2.75288 29.3591 2.76315L29.3509 2.79087L28.7594 2.62248L28.7677 2.59167C28.8173 2.59989 28.8618 2.59886 28.9021 2.58859C28.9424 2.57832 28.9662 2.57011 28.9734 2.56395C28.99 2.55471 29.02 2.53006 29.0634 2.49105C29.1068 2.45203 29.1637 2.39145 29.233 2.3093C29.2971 2.23434 29.3684 2.14809 29.4481 2.05157C29.5277 1.95505 29.6104 1.85545 29.6942 1.75277C29.779 1.65009 29.8627 1.54741 29.9475 1.44268C30.0323 1.33794 30.1109 1.24142 30.1843 1.15107L30.174 1.08227C30.2112 1.07714 30.2464 1.06789 30.2795 1.05557C30.3125 1.04325 30.3415 1.02888 30.3684 1.01245C30.3953 0.996019 30.418 0.97959 30.4377 0.963161C30.4573 0.946732 30.4728 0.933383 30.4842 0.922089L30.5059 0.928249C30.5194 1.09665 30.5318 1.25785 30.5452 1.40879C30.5576 1.56076 30.569 1.70657 30.5793 1.84621C30.5897 1.98688 30.601 2.12242 30.6104 2.25283C30.6207 2.38426 30.631 2.51363 30.6424 2.64199C30.6465 2.70462 30.6517 2.75699 30.6579 2.80011C30.6652 2.84324 30.6724 2.8915 30.6807 2.94489C30.6817 2.95311 30.6869 2.96851 30.6941 2.9911C30.7013 3.01266 30.7138 3.0373 30.7293 3.06195C30.7448 3.08762 30.7665 3.11226 30.7934 3.13588C30.8203 3.15949 30.8554 3.17798 30.8968 3.19235L30.8875 3.22521L30.0768 2.99521L30.083 2.99829ZM30.1998 1.22397C30.1822 1.24451 30.1543 1.27736 30.1181 1.32357C30.0819 1.36875 30.0375 1.4242 29.9847 1.48888C29.932 1.55357 29.8731 1.62648 29.809 1.70862C29.7438 1.79076 29.6745 1.8801 29.598 1.97559L30.2898 2.17171C30.2826 2.08032 30.2743 1.98791 30.265 1.89653C30.2567 1.80411 30.2474 1.71581 30.2391 1.63161C30.2309 1.54639 30.2226 1.46938 30.2164 1.39853C30.2102 1.32768 30.204 1.27018 30.1988 1.225L30.1998 1.22397Z"
            fill="white" />
        <path
            d="M35.0744 2.83705C35.0351 2.84218 35.0113 2.84732 35.003 2.85142C34.9958 2.8545 34.9834 2.85964 34.9679 2.86682C34.9513 2.87401 34.9317 2.88531 34.9079 2.90071C34.8841 2.91611 34.8562 2.93665 34.8252 2.96437C34.7941 2.99107 34.758 3.02598 34.7166 3.06808C34.6494 3.14098 34.5739 3.22005 34.4891 3.30732C34.4043 3.3946 34.3185 3.48393 34.2306 3.57635C34.1427 3.66876 34.0538 3.76117 33.9648 3.85461C33.8759 3.94805 33.7911 4.03635 33.7125 4.12055L33.4871 4.32078L33.4612 4.30846C33.4716 4.16162 33.4819 4.02198 33.4943 3.88849C33.5057 3.75501 33.5171 3.62666 33.5285 3.50344C33.5398 3.38023 33.5502 3.26112 33.5615 3.14509C33.5729 3.02906 33.5822 2.91406 33.5895 2.80008C33.5243 2.86785 33.4561 2.93767 33.3847 3.0116C33.3123 3.08553 33.24 3.16049 33.1676 3.23647C33.0942 3.31246 33.0218 3.38741 32.9504 3.46134C32.878 3.53527 32.8088 3.60612 32.7415 3.67389L32.5089 3.8772L32.4779 3.86282C32.4882 3.69751 32.4985 3.54041 32.5089 3.39152C32.5192 3.24264 32.5285 3.09991 32.5378 2.96232C32.5471 2.82473 32.5564 2.69124 32.5647 2.56186C32.573 2.43249 32.5823 2.30311 32.5906 2.17476C32.5937 2.13574 32.5957 2.10288 32.5978 2.07413C32.5988 2.04538 32.6009 2.01868 32.603 1.99404C32.605 1.9694 32.605 1.94578 32.6061 1.92319C32.6061 1.9006 32.6061 1.87596 32.605 1.85029C32.605 1.83797 32.603 1.82154 32.6009 1.801C32.5988 1.78047 32.5916 1.75993 32.5813 1.73734C32.5709 1.71475 32.5554 1.69216 32.5358 1.66957C32.5161 1.64698 32.4882 1.62645 32.4499 1.60694L32.4634 1.57819L33.2038 1.91395L33.1914 1.93962C33.1831 1.93551 33.1665 1.93038 33.1438 1.92422C33.121 1.91806 33.0962 1.91395 33.0693 1.91292C33.0425 1.91087 33.0166 1.91498 32.9918 1.92525C32.967 1.93551 32.9484 1.95502 32.9349 1.9848C32.9277 2.0002 32.9204 2.04025 32.9132 2.10596C32.906 2.17065 32.8977 2.25074 32.8904 2.34521C32.8832 2.43967 32.8749 2.54235 32.8677 2.65428C32.8594 2.7662 32.8522 2.87709 32.8449 2.98593C32.8377 3.09478 32.8315 3.19746 32.8263 3.29295C32.8212 3.38844 32.815 3.46648 32.8108 3.52706C32.8222 3.51576 32.8522 3.48496 32.8998 3.4367C32.9473 3.38844 33.0073 3.32683 33.0797 3.2529C33.151 3.17897 33.2317 3.0958 33.3216 3.00339C33.4116 2.91098 33.5026 2.8124 33.5957 2.70972C33.6019 2.62861 33.606 2.55673 33.6091 2.4941C33.6122 2.43146 33.6133 2.36985 33.6122 2.30824C33.6122 2.29079 33.6091 2.27231 33.605 2.25177C33.6008 2.23123 33.5915 2.20864 33.5791 2.18503C33.5657 2.16141 33.546 2.13779 33.5212 2.11418C33.4954 2.09159 33.4623 2.069 33.4209 2.04846L33.4344 2.01971L34.2564 2.39244L34.244 2.41811C34.2327 2.41503 34.213 2.40887 34.1841 2.40066C34.1551 2.39141 34.1251 2.38628 34.0931 2.3832C34.061 2.38012 34.031 2.3832 34.001 2.39039C33.971 2.39758 33.9504 2.41503 33.9379 2.4407C33.9328 2.45097 33.9266 2.49101 33.9183 2.55981C33.91 2.62861 33.9007 2.7128 33.8914 2.8124C33.8811 2.912 33.8718 3.02085 33.8625 3.1379C33.8532 3.25496 33.8438 3.36791 33.8335 3.47675C33.8242 3.58456 33.8159 3.68211 33.8087 3.76836C33.8014 3.85461 33.7973 3.91725 33.7942 3.95524C33.8056 3.94497 33.8263 3.92443 33.8573 3.89055C33.8883 3.85666 33.9266 3.81662 33.9731 3.76939C34.0196 3.72215 34.0703 3.66876 34.1261 3.61023C34.182 3.5517 34.2378 3.49112 34.2947 3.42951C34.3516 3.36791 34.4084 3.3063 34.4653 3.24469C34.5222 3.18308 34.5749 3.12558 34.6225 3.07219C34.6835 3.00339 34.7249 2.95102 34.7445 2.91611C34.7652 2.8812 34.7786 2.85553 34.7869 2.83807C34.7993 2.8124 34.8004 2.78673 34.7931 2.76312C34.7848 2.7395 34.7724 2.71691 34.7549 2.69535C34.7373 2.67379 34.7166 2.65428 34.6938 2.63579C34.6701 2.61731 34.6483 2.60294 34.6287 2.59164L34.6411 2.56597L35.2191 2.82781L35.2067 2.85348C35.1602 2.8391 35.1178 2.83397 35.0785 2.8391L35.0744 2.83705Z"
            fill="white" />
        <path
            d="M36.1333 5.82712L36.1488 5.8035C36.1488 5.8035 36.1663 5.81274 36.187 5.82096C36.2077 5.8302 36.2305 5.83636 36.2563 5.84149C36.2822 5.84663 36.307 5.84663 36.3318 5.84149C36.3566 5.83739 36.3763 5.82404 36.3907 5.80145C36.4 5.78707 36.4114 5.76038 36.4238 5.72238C36.4362 5.68337 36.4497 5.63613 36.4652 5.5776C36.4797 5.5201 36.4962 5.45541 36.5128 5.38457C36.5293 5.31372 36.5469 5.23876 36.5634 5.16072L35.9202 4.74384C35.8561 4.78902 35.7951 4.83214 35.7362 4.87219C35.6772 4.91326 35.6183 4.95433 35.5594 4.99541C35.4684 5.0601 35.4115 5.11041 35.3887 5.14532C35.3753 5.16586 35.3701 5.18742 35.3743 5.20898C35.3784 5.23054 35.3877 5.25313 35.4022 5.2747C35.4167 5.29626 35.4342 5.3168 35.4549 5.33631C35.4756 5.35581 35.4952 5.37327 35.5149 5.3897L35.4994 5.41332L34.9844 5.0796L35.002 5.05291C35.0475 5.0755 35.0899 5.08679 35.1313 5.08885C35.1726 5.0909 35.1974 5.08885 35.2067 5.08679C35.2254 5.08268 35.2615 5.06831 35.3143 5.04367C35.367 5.01902 35.4394 4.97692 35.5304 4.91942C35.6131 4.86603 35.7072 4.80442 35.8127 4.73563C35.9182 4.66683 36.0257 4.59598 36.1364 4.52308C36.247 4.45017 36.3587 4.37624 36.4704 4.30129C36.582 4.22633 36.6865 4.15651 36.7837 4.09182L36.794 4.02302C36.8313 4.02918 36.8674 4.03124 36.9026 4.02816C36.9378 4.0261 36.9698 4.02097 37.0008 4.01276C37.0308 4.00454 37.0577 3.99633 37.0815 3.98606C37.1053 3.97579 37.1239 3.96758 37.1373 3.96039L37.157 3.97271C37.1198 4.13803 37.0846 4.29513 37.0515 4.44299C37.0184 4.59187 36.9864 4.7346 36.9543 4.87116C36.9233 5.00875 36.8923 5.14121 36.8633 5.26956C36.8344 5.39791 36.8064 5.52524 36.7785 5.65153C36.764 5.71314 36.7527 5.76448 36.7465 5.80761C36.7403 5.85073 36.733 5.89899 36.7247 5.95341C36.7247 5.96163 36.7237 5.97806 36.7247 6.00065C36.7258 6.02324 36.7299 6.04993 36.7372 6.07868C36.7444 6.10744 36.7578 6.13721 36.7764 6.16802C36.7951 6.19882 36.823 6.22654 36.8592 6.25221L36.8406 6.28096L36.1343 5.82404L36.1333 5.82712ZM36.7713 4.16575C36.7475 4.18012 36.7123 4.20374 36.6637 4.2366C36.6151 4.26946 36.5572 4.3095 36.4879 4.35571C36.4187 4.40191 36.3411 4.45531 36.2542 4.51486C36.1684 4.57442 36.0743 4.63911 35.974 4.7079L36.5769 5.09809C36.5965 5.00773 36.6162 4.9184 36.6358 4.82804C36.6544 4.73768 36.673 4.6504 36.6896 4.56723C36.7061 4.48406 36.7227 4.40705 36.7372 4.33723C36.7516 4.2674 36.763 4.21093 36.7713 4.16575V4.16575Z"
            fill="white" />
        <path
            d="M38.7918 7.8838C38.7898 7.85916 38.7887 7.8417 38.7887 7.83041C38.7887 7.81911 38.7887 7.80576 38.7887 7.79036C38.7887 7.77496 38.7908 7.75545 38.7939 7.72875C38.797 7.70308 38.8022 7.66304 38.8073 7.60964C38.8146 7.54496 38.8218 7.48746 38.8291 7.43714C38.8363 7.38683 38.8425 7.33549 38.8487 7.28517C38.8549 7.23486 38.859 7.18249 38.8611 7.12807C38.8642 7.07365 38.8652 7.01102 38.8652 6.9412C38.8652 6.88267 38.8601 6.82414 38.8508 6.76664C38.8415 6.70811 38.8208 6.65985 38.7898 6.61981C38.767 6.59003 38.7484 6.56949 38.7339 6.55717C38.7205 6.54588 38.705 6.53047 38.6853 6.51199C38.6036 6.60646 38.5323 6.68757 38.4723 6.7574C38.4123 6.82722 38.3617 6.88575 38.3213 6.93503C38.282 6.98227 38.2489 7.02334 38.2221 7.05825C38.1941 7.09316 38.1786 7.12705 38.1745 7.16093C38.1704 7.18968 38.1755 7.2287 38.1921 7.27696C38.2086 7.32522 38.2458 7.37656 38.3027 7.42995L38.2841 7.45152L37.584 6.85289L37.6027 6.83133C37.644 6.857 37.6864 6.87753 37.7298 6.89499C37.7733 6.91245 37.8146 6.91758 37.8539 6.91039C37.8684 6.90834 37.886 6.90012 37.9056 6.88575C37.9253 6.87137 37.9449 6.85494 37.9666 6.83543C37.9873 6.81593 38.0101 6.79436 38.0328 6.77075C38.0556 6.74713 38.0773 6.72454 38.0969 6.70092C38.1145 6.68039 38.1383 6.65369 38.1693 6.61981C38.2003 6.58592 38.2334 6.54793 38.2707 6.50788C38.3069 6.46681 38.3441 6.42471 38.3823 6.38159C38.4216 6.33641 38.4578 6.29431 38.492 6.25529L38.859 5.83122C38.8818 5.80555 38.9045 5.77885 38.9273 5.75113C38.95 5.72341 38.9707 5.69671 38.9893 5.67104C39.0079 5.64537 39.0235 5.62073 39.0348 5.59608C39.0462 5.57247 39.0524 5.55193 39.0503 5.5355C39.0483 5.4934 39.0379 5.45746 39.0173 5.42563C38.9966 5.39483 38.9697 5.35889 38.9356 5.31987L38.9542 5.29831C38.9655 5.30858 38.9955 5.33425 39.0441 5.37532C39.0938 5.41742 39.1506 5.46568 39.2137 5.51805C39.2768 5.57144 39.3399 5.62381 39.403 5.67823C39.466 5.73162 39.5167 5.77577 39.556 5.80966C39.6542 5.89283 39.738 5.97087 39.8093 6.04069C39.8797 6.11154 39.9324 6.1906 39.9665 6.27685C40.0017 6.36516 40.0141 6.45449 40.0037 6.54588C39.9934 6.63726 39.951 6.72557 39.8755 6.81284C39.829 6.86624 39.7773 6.90628 39.7204 6.93195C39.6635 6.95762 39.6046 6.97303 39.5436 6.97713C39.4826 6.98124 39.4195 6.97713 39.3564 6.96276C39.2923 6.94838 39.2292 6.92887 39.1672 6.9032L39.162 6.90936C39.1755 6.94325 39.1837 6.98329 39.1848 7.02745C39.1868 7.0716 39.1848 7.11883 39.1806 7.16812C39.1703 7.2554 39.16 7.34986 39.1496 7.45152C39.1393 7.55317 39.13 7.64353 39.1217 7.72259C39.1103 7.84376 39.1155 7.94438 39.1362 8.02242C39.1569 8.10046 39.1972 8.17439 39.2572 8.24318L39.2385 8.26475L38.7898 7.88072L38.7918 7.8838ZM39.7494 6.34462C39.7618 6.25734 39.7473 6.16699 39.707 6.07355C39.6853 6.02734 39.6594 5.98421 39.6263 5.94417C39.5943 5.90412 39.557 5.86511 39.5146 5.82917C39.4836 5.80247 39.4588 5.78296 39.4381 5.76756C39.4174 5.75318 39.4019 5.74189 39.3905 5.7347C39.3812 5.74189 39.373 5.74805 39.3668 5.75421C39.3595 5.75934 39.3513 5.76653 39.3419 5.7768C39.3326 5.78707 39.3192 5.79939 39.3027 5.81685C39.2861 5.8343 39.2623 5.85894 39.2323 5.89078C39.1868 5.94006 39.1362 5.99654 39.0803 6.05917C39.0245 6.12181 38.9707 6.18341 38.919 6.24297C38.8673 6.30252 38.8218 6.35489 38.7836 6.39904C38.7453 6.44217 38.7215 6.46989 38.7122 6.48119C38.7722 6.53253 38.8301 6.57771 38.8859 6.61673C38.9418 6.65574 39.0007 6.6886 39.0628 6.71324C39.1217 6.73891 39.1786 6.75329 39.2344 6.7574C39.2892 6.7615 39.3409 6.7574 39.3895 6.74405C39.4381 6.7307 39.4826 6.71119 39.5239 6.68347C39.5653 6.65574 39.6036 6.62289 39.6377 6.58387C39.7008 6.51096 39.738 6.43087 39.7504 6.3436L39.7494 6.34462Z"
            fill="white" />
        <path
            d="M41.863 10.1263C41.7575 10.1715 41.6551 10.1982 41.5569 10.2054C41.4576 10.2126 41.3635 10.2033 41.2725 10.1777C41.1815 10.152 41.0957 10.1171 41.014 10.0709C40.9323 10.0247 40.8558 9.97025 40.7845 9.90762C40.7131 9.84498 40.648 9.78029 40.5901 9.71458L39.8972 8.92497L39.9189 8.90648C39.9551 8.93832 39.9955 8.96604 40.0389 8.98657C40.0834 9.00814 40.1227 9.01841 40.1588 9.01841C40.1723 9.01841 40.1899 9.0143 40.2106 9.003C40.2312 8.99171 40.254 8.97733 40.2778 8.96193C40.3016 8.9455 40.3274 8.92805 40.3533 8.90854C40.3791 8.88903 40.4039 8.86849 40.4267 8.84898C40.4474 8.83153 40.4753 8.80791 40.5104 8.77813C40.5456 8.74836 40.5849 8.71653 40.6262 8.68161C40.6686 8.6467 40.711 8.60974 40.7545 8.57277C40.7989 8.53375 40.8413 8.49782 40.8806 8.46393L41.3056 8.09634C41.3315 8.07375 41.3584 8.05116 41.3842 8.02857C41.4101 8.00598 41.4338 7.98339 41.4545 7.96183C41.4752 7.94026 41.4928 7.91973 41.5073 7.89919C41.5217 7.87968 41.53 7.86017 41.5331 7.84272C41.5404 7.79856 41.5352 7.75646 41.5197 7.71745C41.5031 7.67843 41.4804 7.63838 41.4525 7.59731L41.4742 7.57883C41.5269 7.63941 41.6045 7.72669 41.7048 7.83964C41.8051 7.95258 41.9261 8.09018 42.0677 8.25138C42.1081 8.29759 42.1484 8.3438 42.1887 8.39C42.2301 8.43724 42.2704 8.48755 42.3076 8.53786C42.3448 8.5892 42.379 8.6426 42.411 8.69907C42.4431 8.75554 42.4689 8.8151 42.4886 8.87876C42.5155 8.96193 42.532 9.04818 42.5382 9.13649C42.5444 9.22479 42.5372 9.3131 42.5155 9.4014C42.4948 9.48971 42.4576 9.57699 42.4048 9.66427C42.3521 9.75154 42.2787 9.83574 42.1846 9.91789C42.076 10.0124 41.9685 10.0822 41.863 10.1274V10.1263ZM42.1587 9.40243C42.2156 9.30694 42.2559 9.20939 42.2807 9.10671C42.3056 9.00403 42.3118 8.90238 42.3014 8.7997C42.2911 8.69702 42.259 8.60255 42.2063 8.5163C42.1866 8.48241 42.1639 8.44648 42.137 8.40848C42.1101 8.37049 42.075 8.32634 42.0305 8.27603C42.015 8.25857 41.9984 8.24009 41.9798 8.22058C41.9612 8.20107 41.9426 8.18259 41.923 8.16513C41.9033 8.14768 41.8857 8.13125 41.8702 8.11585C41.8537 8.10044 41.8402 8.08915 41.8289 8.08196C41.7513 8.13638 41.65 8.21647 41.5238 8.32326C41.3977 8.43005 41.2477 8.55737 41.0761 8.70728C40.983 8.78738 40.8982 8.8613 40.8217 8.92805C40.7462 8.99376 40.6852 9.04716 40.6387 9.09028C40.618 9.10774 40.5973 9.12827 40.5745 9.15086C40.5528 9.17345 40.5311 9.19604 40.5115 9.21863C40.4918 9.24122 40.4753 9.26279 40.4629 9.28538C40.4505 9.30796 40.4432 9.32645 40.4422 9.34288C40.438 9.3973 40.4515 9.44966 40.4825 9.49998C40.5135 9.55132 40.5456 9.59547 40.5797 9.63449C40.6118 9.67043 40.6459 9.70636 40.6831 9.74128C40.7203 9.77619 40.7586 9.80596 40.7979 9.83061C40.9799 9.94766 41.1691 9.98771 41.3666 9.9528C41.5641 9.91789 41.7585 9.81726 41.9478 9.65297C42.0315 9.58007 42.1029 9.49587 42.1598 9.4014L42.1587 9.40243Z"
            fill="white" />
        <path
            d="M43.0966 12.5322C43.0149 12.5414 42.9343 12.5322 42.8536 12.5055C42.773 12.4788 42.6975 12.4336 42.6261 12.3709C42.5548 12.3083 42.4886 12.2313 42.4276 12.1399C42.3759 12.0619 42.3356 11.991 42.3087 11.9294C42.2807 11.8668 42.2621 11.8134 42.2518 11.7682C42.2415 11.723 42.2352 11.6871 42.2342 11.6614C42.2342 11.6358 42.2311 11.6204 42.228 11.6152C42.2249 11.6101 42.2084 11.606 42.1784 11.6029C42.1484 11.5998 42.1205 11.5978 42.0946 11.5957L42.0801 11.5741L42.5548 11.2528L42.5703 11.2764C42.5362 11.3195 42.5062 11.3647 42.4803 11.414C42.4545 11.4633 42.4317 11.5125 42.4131 11.5629C42.3945 11.6132 42.3811 11.6614 42.3738 11.7087C42.3655 11.7559 42.3645 11.798 42.3676 11.835C42.3707 11.8719 42.381 11.9171 42.3955 11.9715C42.411 12.0259 42.4317 12.0732 42.4596 12.1153C42.5382 12.2334 42.6344 12.3073 42.7481 12.3381C42.8619 12.3689 42.9746 12.3484 43.0852 12.2755C43.1297 12.2457 43.1649 12.2128 43.1887 12.1769C43.2124 12.1409 43.229 12.1019 43.2373 12.0609C43.2455 12.0198 43.2476 11.9767 43.2435 11.9315C43.2393 11.8863 43.231 11.8401 43.2197 11.7918C43.2083 11.7436 43.199 11.7025 43.1887 11.6676C43.1783 11.6327 43.1711 11.5998 43.1628 11.569C43.1556 11.5382 43.1473 11.5074 43.138 11.4745C43.1287 11.4417 43.1204 11.4037 43.1101 11.3575C43.0987 11.3051 43.0946 11.2507 43.0966 11.1942C43.0997 11.1378 43.1101 11.0823 43.1287 11.0289C43.1473 10.9755 43.1742 10.9252 43.2083 10.8769C43.2424 10.8297 43.2848 10.7886 43.3365 10.7548C43.4234 10.6983 43.5082 10.6644 43.5919 10.6552C43.6757 10.6459 43.7553 10.6541 43.8329 10.6798C43.9104 10.7055 43.9818 10.7465 44.048 10.803C44.1141 10.8595 44.1731 10.9252 44.2237 11.0022C44.2713 11.0741 44.3065 11.1398 44.3282 11.1983C44.3499 11.2569 44.3644 11.3082 44.3716 11.3503C44.3789 11.3924 44.382 11.4263 44.3809 11.4509C44.3809 11.4756 44.3809 11.4889 44.3809 11.49C44.384 11.4951 44.4006 11.4982 44.4295 11.5012C44.4585 11.5033 44.4874 11.5054 44.5153 11.5054L44.5329 11.532L44.0872 11.8247L44.0697 11.798C44.11 11.7446 44.1462 11.685 44.1782 11.6204C44.2103 11.5557 44.2341 11.49 44.2475 11.4232C44.262 11.3565 44.2651 11.2887 44.2568 11.2209C44.2486 11.1532 44.2237 11.0885 44.1824 11.0258C44.1493 10.9765 44.111 10.9344 44.0676 10.8995C44.0242 10.8646 43.9766 10.841 43.9259 10.8277C43.8753 10.8143 43.8225 10.8123 43.7677 10.8215C43.7129 10.8307 43.6581 10.8533 43.6033 10.8893C43.5185 10.9447 43.4668 11.0156 43.4492 11.0998C43.4317 11.184 43.4348 11.2774 43.4575 11.378C43.4658 11.4181 43.4741 11.455 43.4834 11.49C43.4927 11.5238 43.5009 11.5577 43.5102 11.5906C43.5195 11.6234 43.5289 11.6573 43.5371 11.6912C43.5464 11.7251 43.5547 11.761 43.564 11.799C43.5961 11.9335 43.593 12.0557 43.5568 12.1656C43.5206 12.2755 43.4451 12.3679 43.3303 12.4418C43.2528 12.4921 43.1742 12.5219 43.0925 12.5311L43.0966 12.5322Z"
            fill="white" />
        <path
            d="M45.4998 16.7882C45.3571 16.7841 45.2216 16.7533 45.0954 16.6979C44.9693 16.6424 44.8576 16.5634 44.7594 16.4607C44.6622 16.358 44.5857 16.2389 44.5298 16.1023C44.475 15.9678 44.4471 15.8302 44.4461 15.6906C44.444 15.5509 44.4688 15.4185 44.5184 15.2942C44.5681 15.17 44.6436 15.056 44.7428 14.9554C44.8421 14.8548 44.9641 14.7757 45.1089 14.7182C45.2619 14.6566 45.4119 14.6289 45.5566 14.635C45.7014 14.6412 45.8348 14.674 45.9579 14.7326C46.0809 14.7921 46.1895 14.8753 46.2856 14.9821C46.3818 15.0889 46.4583 15.2111 46.5142 15.3497C46.5752 15.5006 46.6031 15.6464 46.5979 15.7871C46.5928 15.9278 46.5617 16.0582 46.5059 16.1783C46.449 16.2974 46.3715 16.4032 46.2712 16.4946C46.1709 16.586 46.0571 16.6578 45.9289 16.7092C45.7862 16.7667 45.6435 16.7923 45.4998 16.7882ZM46.1047 16.2081C46.204 16.1362 46.2877 16.0541 46.3549 15.9627C46.4221 15.8713 46.4676 15.7717 46.4904 15.6659C46.5131 15.5602 46.5007 15.4503 46.4552 15.3374C46.4087 15.2224 46.3394 15.1341 46.2495 15.0714C46.1585 15.0098 46.0582 14.9698 45.9465 14.9513C45.8348 14.9328 45.7179 14.9338 45.5939 14.9533C45.4698 14.9728 45.3498 15.0057 45.234 15.0519C45.113 15.1002 45.0013 15.1618 44.9 15.2347C44.7987 15.3076 44.717 15.3897 44.6539 15.4801C44.5908 15.5704 44.5505 15.668 44.5329 15.7727C44.5153 15.8775 44.5288 15.9863 44.5743 16.0982C44.6198 16.2101 44.687 16.2954 44.778 16.3549C44.869 16.4145 44.9703 16.4535 45.083 16.473C45.1958 16.4915 45.3136 16.4925 45.4377 16.4751C45.5618 16.4576 45.6797 16.4268 45.7924 16.3816C45.901 16.3385 46.0054 16.28 46.1057 16.2091L46.1047 16.2081Z"
            fill="white" />
        <path
            d="M45.6652 19.692C45.6776 19.6715 45.688 19.6561 45.6942 19.6469C45.7004 19.6376 45.7086 19.6263 45.7179 19.615C45.7273 19.6027 45.7407 19.5873 45.7583 19.5678C45.7759 19.5483 45.8027 19.5185 45.8389 19.4785C45.8824 19.4302 45.9217 19.3881 45.9578 19.3511C45.993 19.3142 46.0282 19.2762 46.0623 19.2382C46.0964 19.2002 46.1305 19.1602 46.1647 19.117C46.1988 19.0739 46.236 19.0246 46.2774 18.9671C46.3115 18.9199 46.3415 18.8696 46.3684 18.8162C46.3953 18.7638 46.4066 18.7114 46.4046 18.6611C46.4035 18.6242 46.4004 18.5964 46.3963 18.578C46.3922 18.5615 46.388 18.54 46.3828 18.5133C46.2608 18.543 46.1554 18.5687 46.0664 18.5903C45.9765 18.6118 45.901 18.6314 45.84 18.6488C45.781 18.6652 45.7293 18.6796 45.6869 18.6919C45.6445 18.7043 45.6114 18.7227 45.5877 18.7484C45.567 18.7689 45.5494 18.8039 45.5349 18.8531C45.5204 18.9024 45.5204 18.9651 45.5349 19.0421L45.507 19.0493L45.2867 18.158L45.3147 18.1508C45.3333 18.195 45.356 18.2371 45.3819 18.2761C45.4077 18.3151 45.4377 18.3428 45.4739 18.3603C45.4874 18.3664 45.506 18.3705 45.5297 18.3705C45.5535 18.3705 45.5794 18.3685 45.6083 18.3644C45.6373 18.3603 45.6673 18.3551 45.6993 18.349C45.7314 18.3428 45.7624 18.3367 45.7924 18.3295C45.8183 18.3233 45.8544 18.3151 45.8989 18.3048C45.9444 18.2946 45.993 18.2833 46.0468 18.272C46.1005 18.2596 46.1554 18.2473 46.2112 18.233C46.2691 18.2186 46.3229 18.2052 46.3735 18.1929L46.9206 18.0594C46.9547 18.0512 46.9878 18.042 47.0229 18.0327C47.0581 18.0235 47.0891 18.0132 47.1201 18.0029C47.1501 17.9927 47.177 17.9814 47.2008 17.968C47.2246 17.9557 47.2401 17.9424 47.2494 17.928C47.2721 17.8931 47.2845 17.8571 47.2866 17.8202C47.2887 17.7832 47.2866 17.7391 47.2825 17.6867L47.3104 17.6795C47.3145 17.6939 47.3238 17.7329 47.3383 17.7935C47.3538 17.8561 47.3724 17.928 47.3931 18.0071C47.4138 18.0861 47.4345 18.1662 47.4541 18.2463C47.4738 18.3264 47.4903 18.3911 47.5027 18.4414C47.5338 18.5656 47.5565 18.6776 47.573 18.7751C47.5896 18.8737 47.5855 18.9681 47.5627 19.0585C47.54 19.1509 47.4976 19.231 47.4366 19.2988C47.3755 19.3665 47.2887 19.4148 47.176 19.4415C47.1067 19.4579 47.0415 19.461 46.9805 19.4497C46.9195 19.4384 46.8627 19.4169 46.8099 19.385C46.7572 19.3532 46.7096 19.3131 46.6662 19.2649C46.6228 19.2166 46.5824 19.1643 46.5473 19.1078L46.539 19.1098C46.5297 19.1458 46.5131 19.1817 46.4883 19.2197C46.4635 19.2577 46.4356 19.2947 46.4035 19.3316C46.3446 19.3973 46.2805 19.4682 46.2122 19.5452C46.144 19.6222 46.083 19.69 46.0313 19.7506C45.9506 19.843 45.8968 19.9272 45.8679 20.0032C45.8389 20.0791 45.8286 20.1623 45.8379 20.2527L45.81 20.2599L45.6683 19.689L45.6652 19.692ZM47.3445 18.9907C47.4055 18.9271 47.4469 18.8449 47.4686 18.7453C47.4779 18.696 47.481 18.6447 47.4789 18.5934C47.4758 18.542 47.4676 18.4897 47.4552 18.4352C47.4459 18.3962 47.4366 18.3644 47.4293 18.3408C47.421 18.3171 47.4148 18.2987 47.4097 18.2863C47.3983 18.2863 47.388 18.2874 47.3786 18.2884C47.3693 18.2884 47.359 18.2894 47.3456 18.2925C47.3321 18.2946 47.3135 18.2987 47.2897 18.3028C47.2659 18.3079 47.2328 18.3141 47.1894 18.3233C47.1232 18.3377 47.0498 18.3541 46.9671 18.3736C46.8844 18.3931 46.8047 18.4116 46.7282 18.4301C46.6517 18.4486 46.5845 18.465 46.5266 18.4794C46.4707 18.4927 46.4346 18.502 46.4201 18.5051C46.4387 18.581 46.4594 18.6519 46.4821 18.7156C46.5049 18.7802 46.5338 18.8398 46.57 18.8963C46.6031 18.9507 46.6414 18.9959 46.6838 19.0308C46.7262 19.0657 46.7706 19.0914 46.8172 19.1088C46.8637 19.1263 46.9123 19.1355 46.9619 19.1365C47.0116 19.1386 47.0622 19.1324 47.1129 19.1201C47.206 19.0975 47.2835 19.0534 47.3456 18.9897L47.3445 18.9907Z"
            fill="white" />
        <path
            d="M47.0891 23.1216C47.0726 23.0846 47.0509 23.0589 47.0219 23.0446C46.9991 23.0333 46.9661 23.0292 46.9216 23.0312C46.8771 23.0333 46.8337 23.0374 46.7892 23.0415L46.3694 23.0826C46.357 23.0702 46.3342 23.0394 46.3022 22.9901C46.2701 22.9409 46.237 22.8792 46.2009 22.8074C46.1647 22.7355 46.1336 22.6544 46.1057 22.565C46.0778 22.4757 46.0592 22.3854 46.0499 22.294C46.0323 22.1132 46.0395 21.949 46.0716 21.8021C46.1047 21.6553 46.1616 21.528 46.2422 21.4212C46.3229 21.3144 46.4273 21.2281 46.5535 21.1635C46.6796 21.0988 46.8244 21.0577 46.9867 21.0413C47.0343 21.0361 47.0901 21.0361 47.1532 21.0392C47.2163 21.0423 47.2835 21.0526 47.3549 21.07C47.4262 21.0875 47.4996 21.1131 47.5741 21.1491C47.6496 21.185 47.722 21.2323 47.7912 21.2908C47.8905 21.3729 47.9743 21.4787 48.0415 21.606C48.1097 21.7333 48.1521 21.8925 48.1718 22.0835C48.1831 22.1974 48.1831 22.2991 48.1718 22.3884C48.1604 22.4778 48.1459 22.5537 48.1273 22.6164C48.1097 22.679 48.0921 22.7273 48.0746 22.7612C48.058 22.795 48.0497 22.8146 48.0497 22.8187C48.0497 22.8228 48.0622 22.832 48.087 22.8464C48.1118 22.8618 48.1418 22.8792 48.1769 22.9008L48.18 22.9265L47.5534 22.9881L47.5503 22.9542C47.6341 22.9244 47.7126 22.8854 47.785 22.8361C47.8574 22.7868 47.9164 22.7355 47.9619 22.6831C48.0208 22.6154 48.0663 22.5332 48.0963 22.4336C48.1263 22.334 48.1366 22.2262 48.1252 22.1081C48.1128 21.9828 48.0735 21.872 48.0063 21.7765C47.9401 21.681 47.8553 21.6029 47.754 21.5413C47.6527 21.4797 47.5379 21.4366 47.4107 21.4109C47.2835 21.3852 47.1512 21.3791 47.0157 21.3924C46.8658 21.4068 46.7313 21.4386 46.6114 21.4869C46.4914 21.5352 46.3911 21.5978 46.3094 21.6748C46.2277 21.7518 46.1678 21.8422 46.1285 21.9459C46.0892 22.0496 46.0768 22.1656 46.0892 22.2929C46.0985 22.3843 46.1223 22.4675 46.1616 22.5435C46.2009 22.6195 46.2588 22.677 46.3342 22.715C46.3601 22.7273 46.4056 22.7345 46.4697 22.7365C46.5338 22.7375 46.599 22.7355 46.6662 22.7283C46.7334 22.7211 46.7934 22.7129 46.8461 22.7006C46.8988 22.6883 46.9412 22.6646 46.9723 22.6287C47.0178 22.5804 47.0395 22.5004 47.0384 22.3884L47.0674 22.3854L47.1501 23.2212L47.1212 23.2242C47.1139 23.1924 47.1026 23.1575 47.086 23.1216H47.0891Z"
            fill="white" />
        <path
            d="M46.1419 25.5951H46.1709C46.1709 25.6023 46.1719 25.6157 46.175 25.6383C46.1781 25.6598 46.1843 25.6834 46.1926 25.7081C46.2009 25.7327 46.2143 25.7543 46.2308 25.7728C46.2474 25.7913 46.2691 25.8015 46.296 25.8025C46.3136 25.8025 46.3415 25.7995 46.3818 25.7902C46.4211 25.781 46.4707 25.7687 46.5276 25.7512C46.5855 25.7338 46.6486 25.7142 46.7189 25.6927C46.7892 25.6701 46.8627 25.6465 46.9381 25.6208L46.9671 24.8589C46.8947 24.8271 46.8265 24.7973 46.7613 24.7675C46.6962 24.7378 46.63 24.709 46.5638 24.6792C46.4614 24.6351 46.3891 24.6125 46.3467 24.6104C46.3218 24.6104 46.3012 24.6166 46.2836 24.631C46.267 24.6453 46.2526 24.6648 46.2412 24.6885C46.2298 24.7121 46.2205 24.7378 46.2153 24.7655C46.2091 24.7932 46.204 24.8189 46.1988 24.8435H46.1698L46.1936 24.2315H46.2257C46.2298 24.2829 46.2412 24.326 46.2608 24.3619C46.2805 24.3979 46.2939 24.4194 46.3022 24.4256C46.3146 24.439 46.3456 24.4626 46.3953 24.4954C46.4439 24.5283 46.5162 24.5683 46.6135 24.6156C46.7024 24.6587 46.8037 24.708 46.9175 24.7624C47.0312 24.8168 47.1481 24.8723 47.268 24.9287C47.388 24.9862 47.5089 25.0427 47.631 25.0992C47.753 25.1557 47.8667 25.2091 47.9732 25.2583L48.0374 25.2316C48.0518 25.2666 48.0684 25.2984 48.0891 25.3271C48.1087 25.3559 48.1304 25.3805 48.1521 25.4031C48.1749 25.4247 48.1956 25.4432 48.2162 25.4586C48.2369 25.474 48.2535 25.4853 48.2669 25.4935V25.5161C48.1035 25.5695 47.9505 25.6198 47.8047 25.668C47.6589 25.7163 47.5193 25.7615 47.3849 25.8056C47.2504 25.8498 47.1201 25.8919 46.994 25.933C46.8678 25.974 46.7437 26.0151 46.6207 26.0562C46.5607 26.0746 46.51 26.0921 46.4697 26.1096C46.4294 26.127 46.3839 26.1455 46.3332 26.166C46.3249 26.1691 46.3115 26.1773 46.2919 26.1907C46.2722 26.203 46.2515 26.2205 46.2308 26.241C46.2102 26.2626 46.1905 26.2882 46.174 26.3211C46.1574 26.3539 46.1471 26.3909 46.144 26.4351H46.1099L46.1419 25.5972V25.5951ZM47.905 25.2861C47.8802 25.2737 47.8419 25.2553 47.7881 25.2316C47.7344 25.208 47.6703 25.1782 47.5948 25.1423C47.5193 25.1064 47.4335 25.0674 47.3373 25.0253C47.2411 24.9821 47.1377 24.9359 47.026 24.8856L46.9981 25.5992C47.086 25.5705 47.1739 25.5407 47.2618 25.5099C47.3497 25.4801 47.4345 25.4504 47.5152 25.4216C47.5958 25.3929 47.6703 25.3672 47.7375 25.3436C47.8047 25.3199 47.8595 25.3004 47.9029 25.285L47.905 25.2861Z"
            fill="white" />
        <path
            d="M47.5906 29.8205C47.572 29.7732 47.5369 29.7332 47.4862 29.7013C47.4604 29.6829 47.4097 29.6654 47.3332 29.6479C47.2566 29.6305 47.176 29.612 47.0891 29.5925C47.0085 29.574 46.9123 29.5535 46.8027 29.5309C46.692 29.5083 46.5742 29.4857 46.447 29.4621C46.3942 29.4529 46.3332 29.4416 46.265 29.4292C46.1988 29.4169 46.1306 29.4056 46.0613 29.3943C45.992 29.383 45.9227 29.3707 45.8545 29.3584C45.7862 29.3461 45.7252 29.3348 45.6694 29.3255C45.6621 29.3245 45.6559 29.3204 45.6518 29.3153C45.6476 29.3101 45.6466 29.3019 45.6487 29.2927C45.6518 29.2773 45.6642 29.2619 45.6859 29.2475C45.901 29.1212 46.0975 29.0062 46.2774 28.9025C46.4563 28.7988 46.6279 28.7002 46.7903 28.6057C46.9526 28.5113 47.1129 28.4199 47.268 28.3285C47.4231 28.2381 47.5844 28.1416 47.752 28.04L46.5524 27.8243C46.4563 27.8069 46.3684 27.7935 46.2898 27.7843C46.2112 27.7751 46.1512 27.7761 46.1099 27.7884C46.0623 27.8007 46.024 27.8274 45.9941 27.8685C45.9641 27.9085 45.9372 27.9671 45.9134 28.042L45.8855 28.0369L46.0127 27.3428L46.0406 27.3479C46.0385 27.3941 46.0406 27.4413 46.0509 27.4896C46.0602 27.5379 46.084 27.5789 46.1212 27.6128C46.1564 27.6467 46.2122 27.6734 46.2877 27.695C46.3642 27.7165 46.4563 27.7391 46.5628 27.7617C46.6434 27.7802 46.7396 27.8007 46.8492 27.8223C46.9599 27.8439 47.0788 27.8664 47.2049 27.889C47.2597 27.8993 47.3052 27.9075 47.3414 27.9137C47.3776 27.9198 47.4128 27.926 47.4469 27.9322C47.481 27.9383 47.5162 27.9445 47.5524 27.9506C47.5906 27.9578 47.6372 27.965 47.692 27.9732C47.7478 27.9773 47.7954 27.9732 47.8347 27.9578C47.874 27.9435 47.905 27.9239 47.9308 27.8993C47.9557 27.8747 47.9753 27.8469 47.9898 27.8151C48.0043 27.7833 48.0156 27.7535 48.026 27.7237L48.0539 27.7288L47.9495 28.3018L46.1316 29.3563L47.0974 29.5299C47.1729 29.5432 47.2463 29.5555 47.3156 29.5658C47.3849 29.5761 47.4407 29.5781 47.4831 29.5699C47.54 29.5607 47.5886 29.535 47.631 29.4929C47.6734 29.4508 47.7085 29.3861 47.7385 29.2978L47.7664 29.3029L47.6382 30.0022L47.6103 29.9971C47.6134 29.9262 47.6062 29.8667 47.5865 29.8194L47.5906 29.8205Z"
            fill="white" />
        <path
            d="M45.2806 30.722L45.3085 30.7302C45.3012 30.7784 45.3002 30.8247 45.3043 30.8688C45.3085 30.913 45.3219 30.954 45.3447 30.991C45.3529 31.0033 45.3664 31.0156 45.385 31.0259C45.4036 31.0362 45.4264 31.0475 45.4532 31.0588C45.4801 31.0701 45.508 31.0803 45.538 31.0916C45.568 31.1019 45.598 31.1111 45.627 31.1204C45.6528 31.1286 45.688 31.1399 45.7314 31.1543C45.7748 31.1686 45.8234 31.1851 45.8751 31.2015C45.9268 31.2189 45.9806 31.2354 46.0365 31.2528C46.0933 31.2703 46.1471 31.2867 46.1967 31.3021L46.7344 31.4685C46.7675 31.4787 46.8006 31.489 46.8337 31.4993C46.8668 31.5095 46.8978 31.5177 46.9278 31.5239C46.9578 31.5301 46.9837 31.5342 47.0085 31.5352C47.0333 31.5373 47.054 31.5342 47.0695 31.527C47.1088 31.5116 47.1408 31.4869 47.1667 31.4531C47.1925 31.4192 47.2153 31.3802 47.236 31.335L47.2639 31.3432L47.0064 32.1616L46.9785 32.1533C46.9847 32.1133 46.9878 32.0691 46.9868 32.0209C46.9868 31.9726 46.9671 31.9295 46.9309 31.8925C46.9051 31.8669 46.8678 31.8453 46.8203 31.8299C46.7727 31.8145 46.7282 31.7991 46.6869 31.7837C46.6414 31.7693 46.5959 31.7549 46.5504 31.7395C46.5049 31.7241 46.4604 31.7098 46.4139 31.6964C46.3684 31.682 46.3198 31.6677 46.2701 31.6523C46.2226 31.6379 46.1698 31.6215 46.113 31.604L45.4894 31.411C45.4357 31.3945 45.384 31.3791 45.3343 31.3658C45.2837 31.3524 45.2464 31.3494 45.2216 31.3576C45.1834 31.3699 45.1482 31.3966 45.1172 31.4397C45.0862 31.4818 45.0624 31.5219 45.0469 31.5588L45.0189 31.5506L45.2795 30.7209L45.2806 30.722Z"
            fill="white" />
        <path
            d="M43.9507 34.1936L44.6518 32.6103L44.6746 32.6082L45.9237 34.7388C45.9403 34.7019 45.962 34.6536 45.9889 34.592C46.0147 34.5324 46.0426 34.4708 46.0706 34.4082C46.0985 34.3456 46.1243 34.285 46.1492 34.2275C46.1729 34.17 46.1926 34.1248 46.205 34.0909C46.2308 34.0232 46.2443 33.9574 46.2453 33.8938C46.2453 33.8301 46.2381 33.7695 46.2226 33.71C46.2143 33.6812 46.2019 33.6453 46.1843 33.6011C46.1667 33.557 46.1471 33.5108 46.1243 33.4635C46.1016 33.4163 46.0768 33.3691 46.052 33.3239C46.0271 33.2787 46.0023 33.2397 45.9796 33.2058L46.0034 33.1812L46.4811 33.6186C46.4687 33.6422 46.447 33.6864 46.418 33.751C46.388 33.8157 46.3539 33.8917 46.3136 33.9811C46.2732 34.0704 46.2298 34.1659 46.1843 34.2696C46.1378 34.3743 46.0912 34.4791 46.0457 34.5817C46.0002 34.6854 45.9568 34.782 45.9165 34.8733C45.8751 34.9658 45.841 35.0448 45.8121 35.1095H45.7924L44.5453 32.984C44.505 33.0703 44.4688 33.1493 44.4378 33.2192C44.4057 33.291 44.3747 33.3619 44.3437 33.4317C44.3302 33.4615 44.3147 33.4995 44.2961 33.5467C44.2775 33.5939 44.2589 33.6443 44.2423 33.6966C44.1958 33.8455 44.1958 33.9975 44.2455 34.1536C44.2941 34.3096 44.3747 34.4647 44.4874 34.6177L44.4636 34.6423L43.9528 34.1936H43.9507Z"
            fill="white" />
        <path
            d="M42.7792 36.279L42.804 36.2944C42.804 36.2944 42.7957 36.3119 42.7874 36.3335C42.7792 36.354 42.7729 36.3776 42.7688 36.4023C42.7647 36.4279 42.7647 36.4526 42.7709 36.4772C42.7761 36.5019 42.7905 36.5203 42.8133 36.5347C42.8278 36.544 42.8546 36.5542 42.8939 36.5655C42.9332 36.5768 42.9818 36.5891 43.0408 36.6015C43.0997 36.6138 43.1649 36.6282 43.2372 36.6425C43.3096 36.6569 43.3851 36.6713 43.4647 36.6857L43.8628 36.0336C43.8153 35.971 43.7698 35.9114 43.7274 35.855C43.685 35.7975 43.6416 35.741 43.5981 35.6835C43.5299 35.5952 43.4782 35.5408 43.442 35.5192C43.4203 35.5059 43.3986 35.5017 43.3768 35.5069C43.3551 35.511 43.3334 35.5213 43.3117 35.5367C43.29 35.5521 43.2703 35.5695 43.2517 35.5911C43.2331 35.6126 43.2155 35.6322 43.2 35.6517L43.1752 35.6363L43.4937 35.1136L43.5206 35.13C43.4999 35.1752 43.4885 35.2184 43.4885 35.2604C43.4885 35.3015 43.4896 35.3262 43.4937 35.3354C43.4978 35.3539 43.5144 35.3888 43.5413 35.4412C43.5681 35.4935 43.6116 35.5634 43.6736 35.6517C43.7295 35.7328 43.7946 35.8242 43.868 35.9258C43.9404 36.0275 44.0159 36.1322 44.0924 36.241C44.17 36.3489 44.2475 36.4567 44.3271 36.5645C44.4068 36.6723 44.4802 36.774 44.5484 36.8684L44.6177 36.8766C44.6125 36.9136 44.6125 36.9495 44.6156 36.9845C44.6198 37.0194 44.626 37.0512 44.6343 37.081C44.6425 37.1107 44.6529 37.1374 44.6632 37.16C44.6735 37.1837 44.6829 37.2011 44.6901 37.2155L44.6777 37.235C44.5102 37.2032 44.3509 37.1734 44.2 37.1457C44.049 37.1179 43.9042 37.0902 43.7656 37.0635C43.6271 37.0368 43.4916 37.0111 43.3624 36.9865C43.2321 36.9619 43.1028 36.9382 42.9756 36.9146C42.9136 36.9023 42.8608 36.8931 42.8174 36.8879C42.774 36.8828 42.7254 36.8777 42.6706 36.8715C42.6623 36.8715 42.6458 36.8715 42.623 36.8725C42.5992 36.8736 42.5734 36.8787 42.5444 36.8879C42.5155 36.8961 42.4865 36.9105 42.4565 36.93C42.4265 36.9495 42.3986 36.9783 42.3748 37.0142L42.3448 36.9968L42.7823 36.2811L42.7792 36.279ZM44.4719 36.8582C44.4564 36.8356 44.4316 36.8007 44.3964 36.7544C44.3623 36.7082 44.3199 36.6507 44.2713 36.583C44.2227 36.5152 44.1669 36.4402 44.1038 36.356C44.0407 36.2729 43.9735 36.1815 43.9001 36.0839L43.5278 36.6949C43.6188 36.7113 43.7098 36.7278 43.8018 36.7442C43.8939 36.7606 43.9818 36.775 44.0666 36.7894C44.1513 36.8037 44.2289 36.8171 44.2992 36.8284C44.3695 36.8407 44.4274 36.8499 44.4719 36.8571V36.8582Z"
            fill="white" />
        <path
            d="M41.7213 40.2774C41.7575 40.2866 41.7978 40.2948 41.8402 40.302C41.8826 40.3092 41.924 40.3144 41.9633 40.3174C42.0026 40.3205 42.0398 40.3226 42.075 40.3236C42.1101 40.3236 42.138 40.3236 42.1577 40.3195C42.2135 40.3123 42.2601 40.2938 42.2994 40.2651C42.3387 40.2363 42.3821 40.1942 42.4297 40.1388C42.4524 40.11 42.4731 40.0864 42.4907 40.0659C42.5082 40.0453 42.5258 40.0248 42.5424 40.0043C42.5579 39.9847 42.5755 39.9632 42.5951 39.9396C42.6137 39.917 42.6354 39.8893 42.6623 39.8564C42.6251 39.8266 42.5744 39.7855 42.5103 39.7332C42.4462 39.6808 42.379 39.6264 42.3087 39.5699C42.2384 39.5134 42.168 39.458 42.0998 39.4025C42.0326 39.3481 41.9747 39.303 41.9292 39.266L41.4297 38.8666C41.3863 38.8316 41.3439 38.7998 41.3025 38.77C41.2612 38.7403 41.227 38.7249 41.2012 38.7238C41.1505 38.7197 41.1019 38.7331 41.0564 38.7649C41.0109 38.7967 40.9727 38.8255 40.9396 38.8542L40.9168 38.8358L41.5052 38.1098L41.528 38.1273C41.5011 38.1694 41.4783 38.2125 41.4597 38.2566C41.4411 38.3008 41.438 38.3552 41.4494 38.4209C41.4504 38.4343 41.4587 38.4497 41.4731 38.4671C41.4876 38.4846 41.5042 38.5031 41.5249 38.5226C41.5445 38.5421 41.5672 38.5626 41.5921 38.5832C41.6169 38.6047 41.6417 38.6242 41.6655 38.6437C41.6862 38.6602 41.7141 38.6828 41.7482 38.7115C41.7823 38.7403 41.8196 38.7711 41.8609 38.805C41.9023 38.8388 41.9457 38.8748 41.9902 38.9107C42.0346 38.9466 42.0781 38.9805 42.1184 39.0134L42.8629 39.6079C42.8888 39.5771 42.9105 39.5494 42.9301 39.5247C42.9477 39.5021 42.9653 39.4806 42.9829 39.46C42.9984 39.4405 43.0149 39.42 43.0315 39.3974C43.048 39.3748 43.0677 39.3502 43.0915 39.3214C43.1359 39.2639 43.1669 39.2116 43.1845 39.1654C43.2021 39.1192 43.2083 39.0688 43.2042 39.0134C43.2042 38.9929 43.199 38.9672 43.1907 38.9343C43.1824 38.9015 43.1731 38.8676 43.1618 38.8306C43.1514 38.7937 43.138 38.7557 43.1214 38.7177C43.1059 38.6797 43.0873 38.6448 43.0677 38.614L43.0904 38.5996L43.4637 39.0083C43.4286 39.036 43.3965 39.0637 43.3686 39.0883C43.3407 39.113 43.3034 39.153 43.2569 39.2075C43.2093 39.2629 43.1669 39.3122 43.1307 39.3563C43.0946 39.4005 43.0584 39.4436 43.0242 39.4847C42.9901 39.5268 42.956 39.5689 42.9208 39.612C42.8846 39.6572 42.8443 39.7065 42.7998 39.7619C42.7554 39.8174 42.7151 39.8667 42.6799 39.9098C42.6437 39.955 42.6096 39.9981 42.5765 40.0402C42.5434 40.0823 42.5093 40.1264 42.4741 40.1716C42.439 40.2168 42.3976 40.2681 42.3521 40.3246C42.3138 40.3749 42.2849 40.4191 42.2663 40.4561C42.2466 40.493 42.229 40.5331 42.2115 40.5762L41.7151 40.2969L41.7244 40.2712L41.7213 40.2774Z"
            fill="white" />
        <path
            d="M39.7969 40.0679L39.8176 40.0885C39.7887 40.1275 39.7659 40.1675 39.7483 40.2086C39.7307 40.2497 39.7235 40.2918 39.7266 40.3349C39.7276 40.3503 39.7338 40.3667 39.7463 40.3842C39.7576 40.4027 39.7721 40.4232 39.7907 40.4448C39.8093 40.4663 39.829 40.49 39.8507 40.5125C39.8724 40.5351 39.8941 40.5577 39.9158 40.5793C39.9345 40.5988 39.9603 40.6245 39.9924 40.6573C40.0244 40.6902 40.0596 40.7271 40.0968 40.7662C40.1351 40.8052 40.1744 40.8452 40.2147 40.8863C40.2571 40.9284 40.2964 40.9674 40.3326 41.0044L40.7286 41.4018C40.7534 41.4264 40.7772 41.451 40.802 41.4747C40.8268 41.4993 40.8496 41.5209 40.8734 41.5404C40.8961 41.5599 40.9189 41.5753 40.9396 41.5886C40.9602 41.602 40.9799 41.6092 40.9975 41.6102C41.0399 41.6143 41.0802 41.6081 41.1185 41.5907C41.1567 41.5732 41.196 41.5496 41.2353 41.5178L41.256 41.5383L40.6428 42.1411L40.6221 42.1205C40.6469 42.0887 40.6697 42.0507 40.6924 42.0076C40.7141 41.9644 40.7183 41.9182 40.7038 41.8679C40.6935 41.833 40.6707 41.7971 40.6355 41.7611C40.6014 41.7252 40.5683 41.6913 40.5394 41.6585C40.5053 41.6246 40.4722 41.5907 40.4401 41.5568C40.4081 41.5229 40.3739 41.489 40.3408 41.4552C40.3067 41.4213 40.2716 41.3864 40.2354 41.3494C40.2002 41.3145 40.162 41.2755 40.1196 41.2334L39.6604 40.7723C39.6211 40.7333 39.5829 40.6953 39.5446 40.6604C39.5064 40.6255 39.4743 40.605 39.4484 40.6009C39.4092 40.5937 39.3657 40.6009 39.3182 40.6245C39.2706 40.6471 39.2313 40.6717 39.1992 40.6974L39.1786 40.6768L39.8 40.0659L39.7969 40.0679Z"
            fill="white" />
        <path
            d="M37.0805 43.2264C37.0453 43.0888 37.037 42.9522 37.0567 42.8157C37.0753 42.6801 37.1208 42.5508 37.1932 42.4296C37.2656 42.3084 37.3597 42.2027 37.4765 42.1123C37.5923 42.023 37.7164 41.9583 37.8519 41.9182C37.9863 41.8782 38.1207 41.8649 38.2562 41.8782C38.3916 41.8916 38.5209 41.9316 38.646 41.9983C38.7712 42.0651 38.8808 42.1595 38.9769 42.2817C39.0783 42.4111 39.1465 42.5456 39.1806 42.6853C39.2148 42.8249 39.2199 42.9615 39.1972 43.095C39.1734 43.2285 39.1238 43.3558 39.0472 43.4769C38.9707 43.5981 38.8725 43.7049 38.7546 43.7963C38.6253 43.8959 38.492 43.9636 38.3544 43.9975C38.2169 44.0314 38.0814 44.0386 37.9511 44.017C37.8198 43.9965 37.6968 43.9503 37.5799 43.8805C37.4641 43.8107 37.3628 43.7213 37.278 43.6125C37.1828 43.4923 37.1187 43.363 37.0836 43.2254L37.0805 43.2264ZM37.8095 43.6433C37.9067 43.7182 38.009 43.7757 38.1166 43.8148C38.2241 43.8538 38.3327 43.8692 38.4413 43.862C38.5499 43.8538 38.6533 43.8127 38.7494 43.7377C38.8487 43.6618 38.9149 43.5714 38.95 43.4677C38.9852 43.364 38.9955 43.2572 38.9831 43.1463C38.9707 43.0354 38.9376 42.9235 38.8839 42.8105C38.8311 42.6976 38.766 42.5929 38.6884 42.4943C38.6078 42.3916 38.5178 42.3023 38.4196 42.2263C38.3203 42.1503 38.219 42.0949 38.1145 42.0589C38.0101 42.024 37.9046 42.0117 37.7981 42.024C37.6916 42.0363 37.5903 42.0795 37.4951 42.1534C37.4 42.2273 37.3359 42.3156 37.3028 42.4193C37.2697 42.522 37.2604 42.6298 37.2728 42.7428C37.2852 42.8557 37.3173 42.9687 37.369 43.0816C37.4196 43.1946 37.4827 43.2993 37.5572 43.3938C37.6295 43.4862 37.7143 43.5694 37.8105 43.6443L37.8095 43.6433Z"
            fill="white" />
        <path
            d="M34.8148 46.1836C34.8396 46.1394 34.8479 46.0871 34.8407 46.0275C34.8386 45.9957 34.819 45.9454 34.7848 45.8766C34.7497 45.8078 34.7125 45.7339 34.6721 45.6548C34.6349 45.5809 34.5894 45.4956 34.5367 45.396C34.4839 45.2975 34.425 45.1917 34.3619 45.0808C34.335 45.0346 34.305 44.9812 34.2709 44.9206C34.2378 44.8621 34.2037 44.8036 34.1675 44.743C34.1324 44.6824 34.0972 44.6229 34.0631 44.5633C34.0289 44.5037 33.9979 44.4493 33.971 44.4011C33.9669 44.3949 33.9659 44.3877 33.9679 44.3816C33.97 44.3754 33.9752 44.3692 33.9834 44.3651C33.9969 44.3579 34.0165 44.3569 34.0434 44.3651C34.2792 44.4483 34.4943 44.5253 34.6887 44.5951C34.8841 44.666 35.0702 44.7327 35.2471 44.7974C35.4239 44.8611 35.5976 44.9237 35.7672 44.9843C35.9368 45.0449 36.1146 45.1065 36.3008 45.1691L35.701 44.1156C35.6524 44.0304 35.6069 43.9554 35.5635 43.8897C35.5201 43.824 35.4808 43.7788 35.4456 43.7552C35.4053 43.7275 35.3598 43.7152 35.3101 43.7182C35.2595 43.7213 35.1985 43.7377 35.1251 43.7686L35.1106 43.7439L35.7289 43.3969L35.7434 43.4215C35.7062 43.4492 35.6721 43.4821 35.64 43.5201C35.609 43.5581 35.5924 43.6022 35.5893 43.6525C35.5862 43.7008 35.5997 43.7603 35.6328 43.8322C35.6648 43.9041 35.7062 43.9883 35.7569 44.0848C35.7941 44.1577 35.8396 44.244 35.8934 44.3425C35.9471 44.4411 36.0061 44.5458 36.0691 44.6567C36.0971 44.705 36.1198 44.745 36.1374 44.7769C36.155 44.8087 36.1726 44.8395 36.1901 44.8693C36.2077 44.8991 36.2243 44.9299 36.2429 44.9617C36.2615 44.9946 36.2863 45.0356 36.3153 45.0829C36.3473 45.128 36.3825 45.1609 36.4176 45.1814C36.4538 45.202 36.489 45.2133 36.5241 45.2174C36.5593 45.2205 36.5934 45.2174 36.6275 45.2092C36.6617 45.1999 36.6927 45.1896 36.7206 45.1784L36.7351 45.203L36.2253 45.4895L34.2461 44.7769L34.73 45.625C34.7683 45.6918 34.8055 45.7544 34.8417 45.815C34.8779 45.8745 34.9131 45.9187 34.9462 45.9454C34.9896 45.9823 35.0413 46.0039 35.1002 46.009C35.1592 46.0142 35.2326 45.9998 35.3195 45.9659L35.3339 45.9906L34.7104 46.3407L34.6959 46.3161C34.7528 46.2729 34.7942 46.2288 34.819 46.1846L34.8148 46.1836Z"
            fill="white" />
        <path
            d="M38.9873 20.2342C38.5116 19.1458 37.8798 18.2022 37.0898 17.4013C36.2997 16.6014 35.4011 15.973 34.394 15.5171C33.3868 15.0612 32.3517 14.8332 31.2877 14.8332C30.2888 14.8332 29.2899 15.0612 28.2899 15.5171C27.8949 15.6968 27.5164 15.9042 27.1535 16.1383L27.4006 16.7841C27.6964 16.4402 28.0376 16.1424 28.4233 15.8898C29.1565 15.4093 30.1109 15.169 31.2877 15.169C32.4644 15.169 33.4189 15.4093 34.153 15.8898C34.8862 16.3693 35.458 17.0142 35.8685 17.8212C36.2801 18.6303 36.5583 19.5504 36.703 20.5823C36.8478 21.6142 36.9202 22.6831 36.9202 23.787C36.9202 25.2276 36.824 26.4833 36.6306 27.5553C36.4373 28.6283 36.1146 29.5237 35.6638 30.2445C35.2119 30.9643 34.6277 31.5003 33.9111 31.8525C33.7074 31.9521 33.4923 32.0373 33.2637 32.1082L33.3837 32.4234C33.7963 32.3022 34.1975 32.1441 34.5873 31.949C35.6111 31.4366 36.5014 30.7641 37.2594 29.9324C38.0163 29.1007 38.6129 28.1478 39.0483 27.0758C39.4826 26.0038 39.7008 24.9072 39.7008 23.787C39.7008 22.5065 39.4629 21.3226 38.9873 20.2342V20.2342Z"
            fill="white" />
        <path
            d="M30.3736 32.448L23.6346 14.8332H20.9574L27.8308 32.793H31.5813V32.448H30.3736V32.448Z"
            fill="white" />
        <path
            d="M8.47528 32.4491H10.6551L17.3444 14.8332H17.939L24.678 32.4491H25.8868V32.793H19.2522V32.4491H22.0028L19.4011 25.6095H13.6528L11.0511 32.4491H12.3437V32.793H8.47424V32.4491H8.47528ZM16.5275 18.1056L13.8017 25.2645H19.2522L16.5265 18.1056H16.5275Z"
            fill="white" />
    </g>
    <g clip-path="url(#clip1_83_1821)">
        <path
            d="M109.919 8.05171L109.496 6.78803H106.675L106.252 8.05171H104.751L107.219 1.03122H108.946L111.424 8.05171H109.919ZM107.132 5.49425H109.067L108.1 2.62387L107.132 5.49425Z"
            fill="white" />
        <path
            d="M114.11 6.45706L115.299 5.76504C115.571 6.47712 116.105 6.83818 116.911 6.83818C117.717 6.83818 118.039 6.52727 118.039 6.09601C118.043 5.97934 118.014 5.86396 117.955 5.76294C117.896 5.66192 117.81 5.57927 117.707 5.52433C117.332 5.32283 116.932 5.1711 116.518 5.07301C115.996 4.94337 115.501 4.72266 115.057 4.42111C114.836 4.25235 114.66 4.03234 114.544 3.78025C114.428 3.52816 114.376 3.25167 114.392 2.9749C114.38 2.68774 114.434 2.40162 114.551 2.1389C114.668 1.87618 114.845 1.64399 115.067 1.46048C115.527 1.07816 116.11 0.875014 116.709 0.888804C117.238 0.876426 117.759 1.01911 118.206 1.29908C118.654 1.57906 119.009 1.98397 119.228 2.46341L118.059 3.13737C117.777 2.53562 117.324 2.23273 116.709 2.23273C116.135 2.23273 115.782 2.52358 115.782 2.93679C115.781 3.04217 115.805 3.14641 115.852 3.24069C115.899 3.33496 115.969 3.4165 116.054 3.47837C116.389 3.67259 116.748 3.82102 117.122 3.91965L117.606 4.08013C117.76 4.12805 117.912 4.18497 118.059 4.25062C118.215 4.29958 118.363 4.36692 118.503 4.4512C118.768 4.60654 118.995 4.81899 119.167 5.07301C119.346 5.37686 119.437 5.72398 119.429 6.07594C119.44 6.37122 119.381 6.66492 119.257 6.93325C119.133 7.20159 118.947 7.43701 118.714 7.62045C118.185 8.01945 117.533 8.2217 116.87 8.19212C115.48 8.19212 114.503 7.53019 114.11 6.45706Z"
            fill="white" />
        <path d="M122.814 1.02921H124.205V8.0497H122.814V1.02921Z" fill="white" />
        <path
            d="M132.567 8.05171L132.143 6.78803H129.323L128.899 8.05171H127.398L129.867 1.03122H131.589L134.068 8.05171H132.567ZM129.776 5.49425H131.71L130.743 2.62387L129.776 5.49425Z"
            fill="white" />
        <path
            d="M109.919 20.0868L109.496 18.8231H106.675L106.252 20.0868H104.751L107.219 13.0663H108.946L111.424 20.0868H109.919ZM107.132 17.5294H109.067L108.1 14.659L107.132 17.5294Z"
            fill="white" />
        <path
            d="M118.503 20.0869L117.092 17.6498H116.034V20.0869H114.644V13.0664H117.465C117.774 13.0611 118.081 13.1188 118.367 13.2361C118.653 13.3534 118.912 13.5277 119.127 13.7484C119.348 13.962 119.523 14.2182 119.64 14.5014C119.758 14.7846 119.817 15.0887 119.812 15.3952C119.805 15.8298 119.673 16.2532 119.432 16.6157C119.191 16.9782 118.851 17.2646 118.452 17.4411L120.014 20.0889L118.503 20.0869ZM116.024 14.3581V16.4362H117.455C117.72 16.4232 117.97 16.3063 118.149 16.1109C118.328 15.9155 118.423 15.6576 118.412 15.3932C118.421 15.1301 118.325 14.8742 118.146 14.6806C117.967 14.487 117.719 14.3712 117.455 14.3581H116.024Z"
            fill="white" />
        <path
            d="M123.973 19.1742C123.632 18.8338 123.365 18.428 123.186 17.9815C123.008 17.5349 122.922 17.057 122.935 16.5766C122.92 16.0945 123.005 15.6144 123.183 15.1659C123.362 14.7175 123.63 14.3101 123.973 13.969C124.315 13.6225 124.725 13.3501 125.177 13.1689C125.63 12.9877 126.115 12.9015 126.602 12.9159C127.207 12.9088 127.803 13.0575 128.332 13.3475C128.862 13.6374 129.307 14.0588 129.625 14.5707L128.416 15.2628C128.23 14.9457 127.962 14.6849 127.639 14.5082C127.316 14.3315 126.951 14.2457 126.582 14.2598C126.276 14.2464 125.97 14.2965 125.683 14.407C125.397 14.5175 125.137 14.686 124.92 14.9017C124.711 15.125 124.548 15.3872 124.441 15.6732C124.334 15.9592 124.284 16.2635 124.295 16.5686C124.285 16.8718 124.335 17.174 124.442 17.458C124.549 17.742 124.712 18.0021 124.92 18.2234C125.137 18.4391 125.397 18.6076 125.683 18.7181C125.97 18.8286 126.276 18.8787 126.582 18.8653C126.949 18.8798 127.314 18.7952 127.636 18.6204C127.959 18.4456 128.229 18.1871 128.416 17.8724L129.625 18.5644C129.308 19.0773 128.863 19.4994 128.333 19.7895C127.803 20.0796 127.207 20.2277 126.602 20.2192C126.115 20.2346 125.631 20.1498 125.178 19.9699C124.726 19.7901 124.315 19.5192 123.973 19.1742V19.1742Z"
            fill="white" />
        <path
            d="M137.019 13.0644H138.4V20.0849H137.019V17.1764H134.4V20.0849H133.01V13.0644H134.4V15.8605H137.019V13.0644Z"
            fill="white" />
        <path d="M142.228 13.0644H143.618V20.0849H142.228V13.0644Z" fill="white" />
        <path d="M152.111 13.0644V14.3902H150.207V20.0869H148.817V14.3902H146.923V13.0644H152.111Z"
            fill="white" />
        <path
            d="M156.796 18.763H159.768V20.0868H155.405V13.0663H159.721V14.3922H156.8V15.8866H159.469V17.1904H156.8L156.796 18.763Z"
            fill="white" />
        <path
            d="M163.928 19.1742C163.588 18.8338 163.32 18.428 163.142 17.9815C162.963 17.5349 162.878 17.057 162.891 16.5766C162.876 16.0945 162.96 15.6144 163.139 15.1659C163.317 14.7175 163.586 14.3101 163.928 13.969C164.269 13.6238 164.677 13.3521 165.128 13.1709C165.579 12.9897 166.062 12.9029 166.548 12.9159C167.152 12.9088 167.748 13.0575 168.278 13.3474C168.807 13.6374 169.252 14.0588 169.57 14.5707L168.361 15.2628C168.176 14.9457 167.907 14.6849 167.584 14.5082C167.261 14.3315 166.896 14.2457 166.528 14.2598C166.221 14.2464 165.915 14.2965 165.629 14.407C165.343 14.5175 165.083 14.686 164.865 14.9017C164.656 15.125 164.493 15.3872 164.386 15.6732C164.279 15.9592 164.23 16.2635 164.241 16.5686C164.23 16.8718 164.28 17.174 164.387 17.458C164.494 17.742 164.657 18.0021 164.865 18.2234C165.083 18.4391 165.343 18.6076 165.629 18.7181C165.915 18.8286 166.221 18.8787 166.528 18.8653C166.895 18.8798 167.259 18.7952 167.582 18.6204C167.905 18.4456 168.174 18.1871 168.361 17.8724L169.57 18.5644C169.253 19.0773 168.808 19.4994 168.279 19.7895C167.749 20.0796 167.152 20.2277 166.548 20.2192C166.062 20.2333 165.579 20.1477 165.129 19.9679C164.678 19.7881 164.27 19.5179 163.928 19.1742V19.1742Z"
            fill="white" />
        <path d="M177.599 13.0644V14.3902H175.695V20.0869H174.305V14.3902H172.415V13.0644H177.599Z"
            fill="white" />
        <path
            d="M181.589 19.5653C181.339 19.3438 181.141 19.0696 181.01 18.7625C180.879 18.4555 180.819 18.1233 180.833 17.7902V13.0644H182.214V17.6778C182.214 18.41 182.616 18.8713 183.523 18.8713C184.43 18.8713 184.833 18.41 184.833 17.6778V13.0644H186.223V17.7902C186.237 18.1233 186.177 18.4555 186.046 18.7625C185.916 19.0696 185.718 19.3438 185.468 19.5653C184.926 20.0215 184.232 20.2578 183.523 20.2273C182.818 20.2553 182.128 20.0191 181.589 19.5653V19.5653Z"
            fill="white" />
        <path
            d="M193.86 20.0869L192.449 17.6498H191.391V20.0869H190.001V13.0664H192.822C193.131 13.0611 193.438 13.1188 193.724 13.2361C194.01 13.3534 194.269 13.5277 194.484 13.7484C194.705 13.962 194.88 14.2182 194.997 14.5014C195.115 14.7846 195.174 15.0887 195.169 15.3952C195.162 15.8298 195.03 16.2532 194.789 16.6157C194.548 16.9782 194.208 17.2646 193.809 17.4411L195.371 20.0889L193.86 20.0869ZM191.381 14.3581V16.4362H192.812C193.077 16.4232 193.327 16.3063 193.506 16.1109C193.685 15.9155 193.78 15.6576 193.769 15.3932C193.778 15.1301 193.682 14.8742 193.503 14.6806C193.324 14.487 193.076 14.3712 192.812 14.3581H191.381Z"
            fill="white" />
        <path
            d="M200.086 18.763H203.058V20.0868H198.695V13.0663H203.007V14.3922H200.086V15.8866H202.755V17.1904H200.086V18.763Z"
            fill="white" />
        <path
            d="M108.186 25.0995C108.638 25.0893 109.087 25.1743 109.504 25.3488C109.921 25.5234 110.296 25.7836 110.604 26.1124C110.927 26.4429 111.179 26.8343 111.347 27.2636C111.515 27.6928 111.595 28.1513 111.581 28.6117C111.595 29.0719 111.515 29.53 111.347 29.959C111.179 30.3879 110.927 30.779 110.604 31.109C110.296 31.4378 109.921 31.6981 109.504 31.8726C109.087 32.0472 108.638 32.1322 108.186 32.122H105.386V25.1015L108.186 25.0995ZM108.186 30.7981C108.463 30.8086 108.74 30.7604 108.997 30.6567C109.254 30.553 109.486 30.3961 109.677 30.1964C110.07 29.7633 110.276 29.1944 110.252 28.6117C110.278 28.0312 110.071 27.4641 109.677 27.0351C109.487 26.8343 109.255 26.6766 108.998 26.5728C108.74 26.469 108.464 26.4214 108.186 26.4334H106.776V30.8061L108.186 30.7981Z"
            fill="white" />
        <path
            d="M116.478 30.7981H119.45V32.122H115.087V25.1015H119.399V26.4274H116.478V27.9217H119.147V29.2255H116.478V30.7981Z"
            fill="white" />
        <path
            d="M122.583 30.5273L123.771 29.8353C124.043 30.5474 124.588 30.9085 125.393 30.9085C126.169 30.9085 126.522 30.5975 126.522 30.1663C126.525 30.0496 126.496 29.9343 126.438 29.8332C126.379 29.7322 126.293 29.6496 126.189 29.5946C125.815 29.3931 125.415 29.2414 125.001 29.1433C124.478 29.0139 123.984 28.7924 123.54 28.4894C123.319 28.3212 123.142 28.1015 123.027 27.8497C122.911 27.598 122.859 27.3217 122.875 27.0452C122.862 26.758 122.917 26.4718 123.034 26.2091C123.151 25.9463 123.328 25.7142 123.55 25.5308C124.01 25.1484 124.593 24.9453 125.192 24.9591C125.721 24.9467 126.241 25.0894 126.689 25.3694C127.137 25.6493 127.492 26.0542 127.711 26.5337L126.542 27.2056C126.26 26.6039 125.807 26.303 125.192 26.303C124.618 26.303 124.265 26.5939 124.265 27.0051C124.263 27.1105 124.287 27.2149 124.334 27.3092C124.382 27.4035 124.451 27.485 124.537 27.5466C124.871 27.7426 125.23 27.8911 125.605 27.9879L126.089 28.1504C126.243 28.1974 126.395 28.2544 126.542 28.3209C126.698 28.3722 126.847 28.4429 126.985 28.5315C127.251 28.6869 127.478 28.8993 127.65 29.1533C127.829 29.4572 127.919 29.8043 127.912 30.1563C127.923 30.4515 127.864 30.7452 127.74 31.0136C127.615 31.2819 127.429 31.5173 127.197 31.7008C126.668 32.0998 126.016 32.302 125.353 32.2724C123.953 32.2624 122.976 31.6005 122.583 30.5273Z"
            fill="white" />
        <path d="M131.287 25.0995H132.677V32.12H131.287V25.0995Z" fill="white" />
        <path
            d="M143.427 28.351V28.8925C143.445 29.3434 143.368 29.7931 143.202 30.2127C143.035 30.6324 142.782 31.0128 142.46 31.3297C142.126 31.6427 141.734 31.8864 141.305 32.0466C140.876 32.2067 140.419 32.2801 139.961 32.2624C139.461 32.2778 138.964 32.1925 138.498 32.0115C138.032 31.8305 137.608 31.5577 137.251 31.2093C136.905 30.8735 136.632 30.4707 136.448 30.0257C136.264 29.5806 136.174 29.1028 136.183 28.6218C136.172 28.1384 136.261 27.6578 136.442 27.2095C136.624 26.7612 136.896 26.3544 137.241 26.0141C137.585 25.6665 137.996 25.3929 138.45 25.21C138.904 25.0271 139.391 24.939 139.881 24.951C140.491 24.9376 141.094 25.081 141.632 25.3674C142.17 25.6538 142.625 26.0734 142.953 26.5858L141.764 27.2698C141.432 26.6961 140.707 26.295 139.87 26.295C139.562 26.2844 139.255 26.338 138.969 26.4523C138.683 26.5667 138.424 26.7392 138.208 26.9589C137.993 27.1763 137.825 27.4352 137.714 27.7198C137.603 28.0045 137.552 28.3087 137.563 28.6137C137.554 28.9178 137.608 29.2205 137.721 29.5033C137.833 29.7861 138.002 30.0431 138.218 30.2585C138.452 30.4768 138.728 30.6461 139.029 30.7564C139.33 30.8666 139.651 30.9156 139.971 30.9004C141.049 30.9004 141.785 30.3989 142.026 29.5665H139.891V28.3429L143.427 28.351Z"
            fill="white" />
        <path
            d="M151.013 25.0995H152.403V32.12H151.345L148.323 27.8275V32.12H146.933V25.0995H147.991L151.013 29.384V25.0995Z"
            fill="white" />
        <path
            d="M109.919 44.1571L109.496 42.8934H106.675L106.252 44.1571H104.751L107.219 37.1366H108.946L111.424 44.1571H109.919ZM107.132 41.5997H109.067L108.1 38.7293L107.132 41.5997Z"
            fill="white" />
        <path
            d="M115.394 44.1571L113.419 37.1366H114.88L116.23 42.3519L117.701 37.1366H118.889L120.37 42.3519L121.72 37.1366H123.181L121.207 44.1571H119.625L118.295 39.5216L116.975 44.1571H115.394Z"
            fill="white" />
        <path
            d="M130.29 44.1571L129.867 42.8934H127.056L126.633 44.1571H125.132L127.6 37.1366H129.323L131.801 44.1571H130.29ZM127.499 41.5997H129.433L128.466 38.7293L127.499 41.5997Z"
            fill="white" />
        <path
            d="M138.873 44.1571L137.463 41.72H136.405V44.1571H135.015V37.1366H137.835C138.145 37.1313 138.452 37.1891 138.737 37.3064C139.023 37.4237 139.282 37.598 139.498 37.8186C139.719 38.0322 139.893 38.2884 140.011 38.5716C140.129 38.8548 140.187 39.159 140.183 39.4654C140.176 39.9 140.044 40.3235 139.803 40.686C139.562 41.0485 139.222 41.3348 138.823 41.5114L140.384 44.1591L138.873 44.1571ZM136.395 38.4284V40.5065H137.825C138.091 40.4935 138.34 40.3765 138.52 40.1812C138.699 39.9858 138.793 39.7278 138.782 39.4634C138.791 39.2004 138.696 38.9445 138.517 38.7508C138.338 38.5572 138.089 38.4414 137.825 38.4284H136.395Z"
            fill="white" />
        <path
            d="M146.51 37.1346C146.962 37.1244 147.411 37.2094 147.827 37.384C148.244 37.5585 148.619 37.8187 148.927 38.1476C149.25 38.478 149.502 38.8694 149.67 39.2987C149.838 39.728 149.918 40.1864 149.905 40.6469C149.918 41.107 149.838 41.5651 149.67 41.9941C149.502 42.423 149.25 42.8141 148.927 43.1441C148.619 43.473 148.244 43.7332 147.827 43.9078C147.411 44.0823 146.962 44.1673 146.51 44.1571H143.709V37.1366L146.51 37.1346ZM146.51 42.8332C146.787 42.8438 147.063 42.7956 147.32 42.6918C147.577 42.5881 147.809 42.4312 148.001 42.2315C148.393 41.7984 148.599 41.2295 148.575 40.6469C148.601 40.0663 148.394 39.4993 148.001 39.0703C147.81 38.8694 147.578 38.7117 147.321 38.6079C147.064 38.5041 146.787 38.4565 146.51 38.4685H145.099V42.8413L146.51 42.8332Z"
            fill="white" />
        <path
            d="M152.796 42.5625L153.985 41.8704C154.257 42.5825 154.791 42.9436 155.597 42.9436C156.403 42.9436 156.725 42.6327 156.725 42.2014C156.729 42.0847 156.7 41.9694 156.641 41.8684C156.582 41.7673 156.496 41.6847 156.393 41.6297C156.018 41.4282 155.618 41.2765 155.204 41.1784C154.682 41.049 154.187 40.8276 153.743 40.5245C153.522 40.3563 153.346 40.1367 153.23 39.8849C153.114 39.6331 153.062 39.3568 153.078 39.0803C153.066 38.7931 153.12 38.507 153.237 38.2442C153.354 37.9815 153.531 37.7493 153.753 37.5659C154.213 37.1836 154.796 36.9804 155.395 36.9942C155.924 36.9818 156.445 37.1245 156.892 37.4045C157.34 37.6845 157.695 38.0894 157.914 38.5688L156.745 39.2408C156.463 38.639 156.01 38.3381 155.395 38.3381C154.821 38.3381 154.468 38.629 154.468 39.0402C154.466 39.1456 154.49 39.25 154.537 39.3443C154.585 39.4386 154.654 39.5201 154.74 39.5818C155.074 39.7777 155.433 39.9262 155.808 40.0231L156.292 40.1855C156.447 40.2325 156.598 40.2895 156.745 40.356C156.901 40.4073 157.05 40.4781 157.189 40.5666C157.454 40.722 157.681 40.9344 157.853 41.1885C158.032 41.4923 158.123 41.8394 158.115 42.1914C158.126 42.4867 158.067 42.7804 157.943 43.0487C157.819 43.317 157.633 43.5524 157.4 43.7359C156.871 44.1349 156.219 44.3371 155.556 44.3076C154.166 44.2975 153.189 43.6356 152.796 42.5625Z"
            fill="white" />
    </g>
    <path
        d="M81.857 0.918671L79.7733 6.23823L93.7768 40.2672L93.8286 40.4106C94.2486 41.5595 94.997 42.549 95.9741 43.2475C96.9512 43.946 98.1107 44.3204 99.2987 44.3211L81.857 0.918671Z"
        fill="white" />
    <path
        d="M78.947 8.15704L76.938 13.6608L87.4597 40.2672L87.5115 40.4106C87.9313 41.5597 88.6796 42.5493 89.6567 43.2479C90.6339 43.9464 91.7936 44.3207 92.9816 44.3211L78.947 8.15704Z"
        stroke="white" stroke-width="0.24" stroke-miterlimit="10" />
    <path
        d="M76.1073 15.5967L74.0361 20.9034L81.1507 40.2714L81.2025 40.4149C81.6221 41.5641 82.3703 42.5539 83.3475 43.2525C84.3247 43.9511 85.4845 44.3253 86.6726 44.3254L76.1073 15.5967ZM70.2375 33.0288L73.0668 25.2893C73.2728 24.7263 73.2728 24.1048 73.0668 23.5418V23.5418L65.4882 44.3254C65.6644 44.3243 65.8362 44.2683 65.9812 44.1647C66.1266 44.0587 66.2372 43.9093 66.2981 43.7364L70.0262 33.5599H76.7618C76.7036 33.4008 76.5999 33.2639 76.4644 33.1675C76.329 33.0711 76.1682 33.0197 76.0038 33.0202L70.2375 33.0288Z"
        fill="white" />
    <defs>
        <clipPath id="clip0_83_1821">
            <rect width="48" height="48" fill="white" transform="translate(0.267944)" />
        </clipPath>
        <clipPath id="clip1_83_1821">
            <rect width="98.2966" height="43.4067" fill="white"
                transform="translate(104.761 0.888794)" />
        </clipPath>
    </defs>
</svg>
    