<svg width="114" height="694" viewBox="0 0 114 694" fill="none" xmlns="http://www.w3.org/2000/svg">
<path d="M111 693.417L111 661.952L91.47 654.202L91.47 612.197L111 604.447L111 572.207L1.72499 618.397L1.72499 647.382L111 693.417ZM68.065 645.367L37.375 633.122L68.065 621.032L68.065 645.367ZM113.17 513.307C113.17 493.467 105.885 477.657 96.275 466.187L47.605 466.187L47.605 515.942L69.615 515.942L69.615 494.707L82.79 494.707C85.735 499.047 87.285 504.627 87.285 512.067C87.285 529.272 74.73 541.517 57.06 541.517L56.75 541.517C40.165 541.517 27.145 529.427 27.145 513.772C27.145 502.922 30.865 495.327 37.375 487.577L15.985 469.907C6.06498 481.377 0.329984 494.862 0.329985 513.927C0.329986 547.407 25.13 572.207 56.75 572.207L57.06 572.207C89.92 572.207 113.17 547.097 113.17 513.307ZM111 449.516L111 361.476L85.425 361.476L85.425 419.756L68.22 419.756L68.22 367.676L44.505 367.676L44.505 419.756L27.92 419.756L27.92 362.251L2.49998 362.251L2.49998 449.516L111 449.516ZM111 345.981L111 316.221L51.48 316.221L111 269.721L111 243.526L2.49997 243.526L2.49997 273.286L59.85 273.286L2.49998 317.926L2.49998 345.981L111 345.981ZM111 224.282L111 182.897C111 143.992 87.75 121.207 56.44 121.207L56.13 121.207C24.82 121.207 2.49997 143.682 2.49997 182.277L2.49997 224.282L111 224.282ZM29.005 181.967C29.005 163.832 39.235 151.897 56.595 151.897L56.905 151.897C74.42 151.897 84.34 163.832 84.34 181.967L84.34 194.212L29.005 194.212L29.005 181.967ZM111 121.855L111 90.3899L91.47 82.6399L91.47 40.6349L111 32.8849L111 0.644931L1.72497 46.8349L1.72497 75.8199L111 121.855ZM68.065 73.8049L37.375 61.5599L68.065 49.4699L68.065 73.8049Z" fill="url(#paint0_linear_505_4368)"/>
<defs>
<linearGradient id="paint0_linear_505_4368" x1="64.4962" y1="694.615" x2="64.4961" y2="-0.385257" gradientUnits="userSpaceOnUse">
<stop stop-color="#FAC47E"/>
<stop offset="1" stop-color="#A67F56"/>
</linearGradient>
</defs>
</svg>
