<svg width="157" height="26" viewBox="0 0 157 26" fill="none" xmlns="http://www.w3.org/2000/svg">
<path d="M10.6976 0.809862L17.2426 0.809862L27.6726 25.4849H20.3926L18.6426 21.0749L9.15762 21.0749L7.40762 25.4849H0.302617L10.6976 0.809862ZM16.6476 15.7899L13.9176 8.85986L11.1526 15.7899H16.6476ZM40.9726 25.9749C39.0593 25.9749 37.286 25.6715 35.6526 25.0649C34.0426 24.4349 32.6426 23.5599 31.4526 22.4399C30.2626 21.3199 29.3293 19.9899 28.6526 18.4499C27.9993 16.8865 27.6726 15.1715 27.6726 13.3049V13.2349C27.6726 11.4615 27.9993 9.80486 28.6526 8.26486C29.3293 6.70153 30.251 5.3482 31.4176 4.20486C32.5843 3.03819 33.9726 2.12819 35.5826 1.47486C37.1926 0.821528 38.9426 0.494862 40.8326 0.494862C43.0026 0.494862 44.8693 0.809862 46.4326 1.43986C48.0193 2.04653 49.466 2.90986 50.7726 4.02986L46.7826 8.85986C45.896 8.1132 44.9976 7.54153 44.0876 7.14486C43.1776 6.7482 42.1043 6.54986 40.8676 6.54986C39.981 6.54986 39.1526 6.72486 38.3826 7.07486C37.636 7.42486 36.9826 7.9032 36.4226 8.50986C35.8626 9.0932 35.4193 9.7932 35.0926 10.6099C34.766 11.4265 34.6026 12.3015 34.6026 13.2349V13.3049C34.6026 14.3082 34.766 15.2299 35.0926 16.0699C35.4193 16.8865 35.8743 17.5982 36.4576 18.2049C37.0643 18.8115 37.7643 19.2899 38.5576 19.6399C39.3743 19.9665 40.2726 20.1299 41.2526 20.1299C42.0926 20.1299 42.8276 20.0482 43.4576 19.8849C44.111 19.6982 44.6826 19.4415 45.1726 19.1149V16.1399H40.3776V11.1699L51.6126 11.1699L51.6126 22.1599C50.306 23.2565 48.766 24.1665 46.9926 24.8899C45.2426 25.6132 43.236 25.9749 40.9726 25.9749ZM55.377 0.984862L75.082 0.984862V6.72486L62.097 6.72486V10.4699L73.857 10.4699V15.8249H62.097L62.097 19.7099H75.257V25.4849H55.377L55.377 0.984862ZM78.7559 0.984862L85.0909 0.984862L95.1709 13.9349V0.984862L101.891 0.984862V25.4849L95.9759 25.4849L85.4759 12.0449V25.4849H78.7559V0.984862ZM106.236 0.984862L115.721 0.984862C117.891 0.984862 119.828 1.2882 121.531 1.89486C123.258 2.4782 124.705 3.30653 125.871 4.37986C127.061 5.4532 127.96 6.73653 128.566 8.22986C129.196 9.69986 129.511 11.3215 129.511 13.0949V13.1649C129.511 14.9382 129.196 16.5832 128.566 18.0999C127.936 19.5932 127.026 20.8882 125.836 21.9849C124.646 23.0815 123.188 23.9449 121.461 24.5749C119.735 25.1815 117.775 25.4849 115.581 25.4849H106.236V0.984862ZM113.026 6.96986V19.4649H115.791C117.845 19.4649 119.49 18.9282 120.726 17.8549C121.963 16.7815 122.581 15.2532 122.581 13.2699V13.1999C122.581 11.2165 121.963 9.6882 120.726 8.61486C119.49 7.5182 117.845 6.96986 115.791 6.96986H113.026ZM139.76 0.809862L146.305 0.809862L156.735 25.4849H149.455L147.705 21.0749L138.22 21.0749L136.47 25.4849H129.365L139.76 0.809862ZM145.71 15.7899L142.98 8.85986L140.215 15.7899L145.71 15.7899Z" fill="url(#paint0_linear_515_4440)"/>
<defs>
<linearGradient id="paint0_linear_515_4440" x1="0" y1="14.984" x2="157" y2="14.984" gradientUnits="userSpaceOnUse">
<stop stop-color="#FAC47E"/>
<stop offset="1" stop-color="#A67F56"/>
</linearGradient>
</defs>
</svg>
