<svg width="1097" height="190" viewBox="0 0 1097 190" fill="none" xmlns="http://www.w3.org/2000/svg">
<rect x="0.5" y="0.448242" width="1096" height="189" rx="26" fill="#E8A560" fill-opacity="0.1"/>
<g clip-path="url(#clip0_505_4340)">
<path d="M124 49.9482H123V48.9482C123 48.683 122.895 48.4287 122.707 48.2411C122.52 48.0536 122.265 47.9482 122 47.9482C121.735 47.9482 121.48 48.0536 121.293 48.2411C121.105 48.4287 121 48.683 121 48.9482V49.9482H113V48.9482C113 48.683 112.895 48.4287 112.707 48.2411C112.52 48.0536 112.265 47.9482 112 47.9482C111.735 47.9482 111.48 48.0536 111.293 48.2411C111.105 48.4287 111 48.683 111 48.9482V49.9482H110C108.674 49.9498 107.404 50.4771 106.466 51.4145C105.529 52.3518 105.002 53.6226 105 54.9482V66.9482C105.002 68.2738 105.529 69.5447 106.466 70.482C107.404 71.4194 108.674 71.9467 110 71.9482H124C125.326 71.9467 126.596 71.4194 127.534 70.482C128.471 69.5447 128.998 68.2738 129 66.9482V54.9482C128.998 53.6226 128.471 52.3518 127.534 51.4145C126.596 50.4771 125.326 49.9498 124 49.9482ZM107 54.9482C107 54.1526 107.316 53.3895 107.879 52.8269C108.441 52.2643 109.204 51.9482 110 51.9482H124C124.796 51.9482 125.559 52.2643 126.121 52.8269C126.684 53.3895 127 54.1526 127 54.9482V55.9482H107V54.9482ZM124 69.9482H110C109.204 69.9482 108.441 69.6322 107.879 69.0696C107.316 68.507 107 67.7439 107 66.9482V57.9482H127V66.9482C127 67.7439 126.684 68.507 126.121 69.0696C125.559 69.6322 124.796 69.9482 124 69.9482Z" fill="white"/>
<path d="M117 64.4482C117.828 64.4482 118.5 63.7767 118.5 62.9482C118.5 62.1198 117.828 61.4482 117 61.4482C116.172 61.4482 115.5 62.1198 115.5 62.9482C115.5 63.7767 116.172 64.4482 117 64.4482Z" fill="white"/>
<path d="M112 64.4482C112.828 64.4482 113.5 63.7767 113.5 62.9482C113.5 62.1198 112.828 61.4482 112 61.4482C111.171 61.4482 110.5 62.1198 110.5 62.9482C110.5 63.7767 111.171 64.4482 112 64.4482Z" fill="white"/>
<path d="M122 64.4482C122.829 64.4482 123.5 63.7767 123.5 62.9482C123.5 62.1198 122.829 61.4482 122 61.4482C121.172 61.4482 120.5 62.1198 120.5 62.9482C120.5 63.7767 121.172 64.4482 122 64.4482Z" fill="white"/>
</g>
<path d="M68.6301 90.9982H63.3051V87.4482H77.8051V90.9982H72.4801V104.948H68.6301V90.9982ZM84.3209 105.198C82.8709 105.198 81.7459 104.757 80.9459 103.873C80.1626 102.99 79.7709 101.773 79.7709 100.223V91.5482H83.5709V99.0232C83.5709 99.9232 83.7709 100.607 84.1709 101.073C84.5709 101.523 85.1376 101.748 85.8709 101.748C86.6042 101.748 87.1792 101.523 87.5959 101.073C88.0292 100.607 88.2459 99.9232 88.2459 99.0232V91.5482H92.0459V104.948H88.2459V103.048C88.0292 103.332 87.7876 103.607 87.5209 103.873C87.2709 104.123 86.9876 104.348 86.6709 104.548C86.3542 104.748 86.0042 104.907 85.6209 105.023C85.2376 105.14 84.8042 105.198 84.3209 105.198ZM102.547 105.248C101.547 105.248 100.614 105.082 99.7471 104.748C98.8971 104.415 98.1554 103.94 97.5221 103.323C96.9054 102.707 96.4221 101.982 96.0721 101.148C95.7221 100.298 95.5471 99.3566 95.5471 98.3232V98.2732C95.5471 97.3232 95.7054 96.4232 96.0221 95.5732C96.3554 94.7232 96.8137 93.9816 97.3971 93.3482C97.9804 92.7149 98.6721 92.2149 99.4721 91.8482C100.289 91.4816 101.189 91.2982 102.172 91.2982C103.289 91.2982 104.255 91.4982 105.072 91.8982C105.889 92.2982 106.564 92.8399 107.097 93.5232C107.647 94.1899 108.047 94.9649 108.297 95.8482C108.564 96.7149 108.697 97.6232 108.697 98.5732C108.697 98.7232 108.689 98.8816 108.672 99.0482C108.672 99.2149 108.664 99.3899 108.647 99.5732H99.3221C99.5054 100.44 99.8804 101.098 100.447 101.548C101.03 101.982 101.747 102.198 102.597 102.198C103.23 102.198 103.797 102.09 104.297 101.873C104.797 101.657 105.314 101.307 105.847 100.823L108.022 102.748C107.389 103.532 106.622 104.148 105.722 104.598C104.822 105.032 103.764 105.248 102.547 105.248ZM104.997 97.1982C104.88 96.3482 104.58 95.6649 104.097 95.1482C103.614 94.6149 102.972 94.3482 102.172 94.3482C101.372 94.3482 100.722 94.6066 100.222 95.1232C99.7387 95.6399 99.4221 96.3316 99.2721 97.1982H104.997ZM116.979 105.198C116.029 105.198 115.054 105.04 114.054 104.723C113.071 104.39 112.129 103.873 111.229 103.173L112.854 100.673C113.587 101.207 114.312 101.607 115.029 101.873C115.762 102.14 116.446 102.273 117.079 102.273C117.629 102.273 118.029 102.182 118.279 101.998C118.546 101.815 118.679 101.573 118.679 101.273V101.223C118.679 101.023 118.604 100.848 118.454 100.698C118.304 100.548 118.096 100.423 117.829 100.323C117.579 100.207 117.287 100.098 116.954 99.9982C116.621 99.8982 116.271 99.7899 115.904 99.6732C115.437 99.5399 114.962 99.3816 114.479 99.1982C114.012 98.9982 113.587 98.7482 113.204 98.4482C112.821 98.1316 112.504 97.7482 112.254 97.2982C112.021 96.8482 111.904 96.2982 111.904 95.6482V95.5982C111.904 94.9149 112.029 94.3149 112.279 93.7982C112.546 93.2649 112.896 92.8149 113.329 92.4482C113.779 92.0816 114.296 91.8066 114.879 91.6232C115.479 91.4399 116.121 91.3482 116.804 91.3482C117.654 91.3482 118.512 91.4899 119.379 91.7732C120.262 92.0399 121.071 92.4149 121.804 92.8982L120.354 95.5232C119.687 95.1399 119.037 94.8399 118.404 94.6232C117.771 94.3899 117.212 94.2732 116.729 94.2732C116.262 94.2732 115.912 94.3649 115.679 94.5482C115.446 94.7149 115.329 94.9316 115.329 95.1982V95.2482C115.329 95.4316 115.404 95.5982 115.554 95.7482C115.704 95.8816 115.904 96.0149 116.154 96.1482C116.404 96.2649 116.687 96.3816 117.004 96.4982C117.337 96.6149 117.687 96.7316 118.054 96.8482C118.521 96.9982 118.996 97.1816 119.479 97.3982C119.962 97.5982 120.396 97.8482 120.779 98.1482C121.162 98.4482 121.479 98.8149 121.729 99.2482C121.979 99.6816 122.104 100.207 122.104 100.823V100.873C122.104 101.623 121.971 102.273 121.704 102.823C121.454 103.357 121.096 103.798 120.629 104.148C120.162 104.498 119.612 104.765 118.979 104.948C118.362 105.115 117.696 105.198 116.979 105.198ZM131.078 105.198C130.295 105.198 129.536 105.048 128.803 104.748C128.07 104.448 127.42 104.007 126.853 103.423C126.286 102.823 125.828 102.098 125.478 101.248C125.145 100.382 124.978 99.3899 124.978 98.2732V98.2232C124.978 97.1066 125.145 96.1232 125.478 95.2732C125.828 94.4066 126.278 93.6816 126.828 93.0982C127.395 92.4982 128.045 92.0482 128.778 91.7482C129.511 91.4482 130.278 91.2982 131.078 91.2982C132.095 91.2982 132.928 91.4982 133.578 91.8982C134.245 92.2982 134.803 92.7649 135.253 93.2982V86.6982H139.053V104.948H135.253V103.023C134.786 103.657 134.22 104.182 133.553 104.598C132.903 104.998 132.078 105.198 131.078 105.198ZM132.053 101.973C132.503 101.973 132.92 101.89 133.303 101.723C133.703 101.54 134.045 101.29 134.328 100.973C134.628 100.64 134.861 100.248 135.028 99.7982C135.211 99.3316 135.303 98.8232 135.303 98.2732V98.2232C135.303 97.6732 135.211 97.1732 135.028 96.7232C134.861 96.2566 134.628 95.8649 134.328 95.5482C134.045 95.2149 133.703 94.9649 133.303 94.7982C132.92 94.6149 132.503 94.5232 132.053 94.5232C131.603 94.5232 131.178 94.6149 130.778 94.7982C130.395 94.9649 130.053 95.2149 129.753 95.5482C129.453 95.8649 129.211 96.2482 129.028 96.6982C128.861 97.1482 128.778 97.6566 128.778 98.2232V98.2732C128.778 98.8232 128.861 99.3316 129.028 99.7982C129.211 100.248 129.453 100.64 129.753 100.973C130.053 101.29 130.395 101.54 130.778 101.723C131.178 101.89 131.603 101.973 132.053 101.973ZM146.998 105.198C146.365 105.198 145.765 105.115 145.198 104.948C144.648 104.765 144.165 104.498 143.748 104.148C143.331 103.798 142.998 103.373 142.748 102.873C142.515 102.357 142.398 101.765 142.398 101.098V101.048C142.398 100.315 142.531 99.6816 142.798 99.1482C143.065 98.6149 143.431 98.1732 143.898 97.8232C144.381 97.4732 144.948 97.2149 145.598 97.0482C146.265 96.8649 146.998 96.7732 147.798 96.7732C148.481 96.7732 149.073 96.8232 149.573 96.9232C150.09 97.0232 150.59 97.1566 151.073 97.3232V97.0982C151.073 96.2982 150.831 95.6899 150.348 95.2732C149.865 94.8566 149.148 94.6482 148.198 94.6482C147.465 94.6482 146.815 94.7149 146.248 94.8482C145.698 94.9649 145.115 95.1399 144.498 95.3732L143.548 92.4732C144.281 92.1566 145.048 91.8982 145.848 91.6982C146.648 91.4982 147.615 91.3982 148.748 91.3982C149.798 91.3982 150.69 91.5316 151.423 91.7982C152.173 92.0482 152.79 92.4149 153.273 92.8982C153.773 93.3982 154.14 94.0149 154.373 94.7482C154.606 95.4649 154.723 96.2732 154.723 97.1732V104.948H151.048V103.498C150.581 104.015 150.023 104.432 149.373 104.748C148.723 105.048 147.931 105.198 146.998 105.198ZM148.148 102.573C149.048 102.573 149.765 102.357 150.298 101.923C150.848 101.49 151.123 100.923 151.123 100.223V99.5482C150.79 99.3982 150.415 99.2816 149.998 99.1982C149.598 99.0982 149.165 99.0482 148.698 99.0482C147.881 99.0482 147.24 99.2066 146.773 99.5232C146.306 99.8399 146.073 100.298 146.073 100.898V100.948C146.073 101.465 146.265 101.865 146.648 102.148C147.031 102.432 147.531 102.573 148.148 102.573ZM167.055 91.5482H171.005L165.855 105.273C165.605 105.957 165.338 106.532 165.055 106.998C164.771 107.482 164.455 107.873 164.105 108.173C163.771 108.473 163.388 108.69 162.955 108.823C162.521 108.957 162.021 109.023 161.455 109.023C160.755 109.023 160.138 108.94 159.605 108.773C159.071 108.607 158.563 108.382 158.08 108.098L159.355 105.348C159.605 105.498 159.871 105.623 160.155 105.723C160.455 105.823 160.73 105.873 160.98 105.873C161.313 105.873 161.571 105.807 161.755 105.673C161.955 105.557 162.138 105.332 162.305 104.998L157.055 91.5482H161.08L164.13 100.673L167.055 91.5482ZM37.0058 133.898L42.8308 129.123C43.3808 128.673 43.8474 128.273 44.2308 127.923C44.6141 127.557 44.9224 127.215 45.1558 126.898C45.4058 126.565 45.5808 126.248 45.6808 125.948C45.7974 125.632 45.8558 125.29 45.8558 124.923C45.8558 124.173 45.6391 123.607 45.2058 123.223C44.7724 122.84 44.2058 122.648 43.5058 122.648C42.8224 122.648 42.2141 122.84 41.6808 123.223C41.1641 123.607 40.5808 124.198 39.9308 124.998L37.2308 122.823C37.6641 122.24 38.0974 121.723 38.5308 121.273C38.9808 120.823 39.4558 120.448 39.9558 120.148C40.4724 119.832 41.0391 119.598 41.6558 119.448C42.2724 119.282 42.9724 119.198 43.7558 119.198C44.6558 119.198 45.4724 119.332 46.2058 119.598C46.9558 119.848 47.5891 120.207 48.1058 120.673C48.6391 121.14 49.0474 121.707 49.3308 122.373C49.6308 123.04 49.7808 123.782 49.7808 124.598V124.648C49.7808 125.382 49.6808 126.04 49.4808 126.623C49.2974 127.19 49.0141 127.732 48.6308 128.248C48.2641 128.748 47.7891 129.257 47.2058 129.773C46.6224 130.273 45.9474 130.823 45.1808 131.423L42.3308 133.623H49.9558V136.948H37.0058V133.898ZM59.7319 137.248C58.3153 137.248 57.0819 137.015 56.0319 136.548C54.9819 136.082 54.0319 135.44 53.1819 134.623L55.5069 131.848C56.1736 132.448 56.8403 132.915 57.5069 133.248C58.1736 133.582 58.8986 133.748 59.6819 133.748C60.5819 133.748 61.2903 133.54 61.8069 133.123C62.3403 132.707 62.6069 132.107 62.6069 131.323V131.273C62.6069 130.523 62.3153 129.94 61.7319 129.523C61.1653 129.107 60.4236 128.898 59.5069 128.898C58.9569 128.898 58.4319 128.965 57.9319 129.098C57.4486 129.215 56.9986 129.365 56.5819 129.548L54.3569 128.073L54.8569 119.448H65.6069V122.823H58.1569L57.9569 125.848C58.3069 125.765 58.6569 125.698 59.0069 125.648C59.3569 125.582 59.7736 125.548 60.2569 125.548C61.1069 125.548 61.8986 125.657 62.6319 125.873C63.3819 126.09 64.0319 126.423 64.5819 126.873C65.1486 127.323 65.5903 127.907 65.9069 128.623C66.2236 129.323 66.3819 130.165 66.3819 131.148V131.198C66.3819 132.132 66.2236 132.973 65.9069 133.723C65.5903 134.457 65.1403 135.09 64.5569 135.623C63.9903 136.14 63.2903 136.54 62.4569 136.823C61.6403 137.107 60.7319 137.248 59.7319 137.248ZM78.4907 116.998H81.7157L70.6407 140.148H67.4157L78.4907 116.998ZM90.3437 137.248C89.177 137.248 88.1103 137.023 87.1437 136.573C86.1937 136.107 85.377 135.473 84.6937 134.673C84.027 133.857 83.5103 132.898 83.1437 131.798C82.777 130.698 82.5937 129.515 82.5937 128.248V128.198C82.5937 126.932 82.777 125.748 83.1437 124.648C83.527 123.548 84.0603 122.59 84.7437 121.773C85.427 120.957 86.2437 120.315 87.1937 119.848C88.1603 119.382 89.227 119.148 90.3937 119.148C91.5437 119.148 92.5937 119.382 93.5437 119.848C94.5103 120.298 95.327 120.932 95.9937 121.748C96.677 122.548 97.202 123.498 97.5687 124.598C97.952 125.698 98.1437 126.882 98.1437 128.148V128.198C98.1437 129.465 97.952 130.648 97.5687 131.748C97.202 132.848 96.677 133.807 95.9937 134.623C95.3103 135.44 94.4853 136.082 93.5187 136.548C92.5687 137.015 91.5103 137.248 90.3437 137.248ZM90.3937 133.773C90.977 133.773 91.502 133.64 91.9687 133.373C92.4353 133.09 92.8353 132.707 93.1687 132.223C93.502 131.723 93.752 131.14 93.9187 130.473C94.102 129.79 94.1937 129.048 94.1937 128.248V128.198C94.1937 127.398 94.102 126.665 93.9187 125.998C93.7353 125.315 93.4687 124.723 93.1187 124.223C92.7853 123.723 92.377 123.332 91.8937 123.048C91.427 122.765 90.9103 122.623 90.3437 122.623C89.7603 122.623 89.2353 122.765 88.7687 123.048C88.302 123.315 87.902 123.698 87.5687 124.198C87.252 124.682 87.002 125.265 86.8187 125.948C86.6353 126.615 86.5437 127.348 86.5437 128.148V128.198C86.5437 128.998 86.6353 129.74 86.8187 130.423C87.002 131.107 87.2603 131.698 87.5937 132.198C87.927 132.682 88.327 133.065 88.7937 133.348C89.277 133.632 89.8103 133.773 90.3937 133.773ZM110.205 133.173H101.655L101.03 130.448L110.63 119.323H113.88V130.048H116.23V133.173H113.88V136.948H110.205V133.173ZM110.205 130.048V124.598L105.555 130.048H110.205ZM128.128 116.998H131.353L120.278 140.148H117.053L128.128 116.998ZM132.497 133.898L138.322 129.123C138.872 128.673 139.339 128.273 139.722 127.923C140.105 127.557 140.414 127.215 140.647 126.898C140.897 126.565 141.072 126.248 141.172 125.948C141.289 125.632 141.347 125.29 141.347 124.923C141.347 124.173 141.13 123.607 140.697 123.223C140.264 122.84 139.697 122.648 138.997 122.648C138.314 122.648 137.705 122.84 137.172 123.223C136.655 123.607 136.072 124.198 135.422 124.998L132.722 122.823C133.155 122.24 133.589 121.723 134.022 121.273C134.472 120.823 134.947 120.448 135.447 120.148C135.964 119.832 136.53 119.598 137.147 119.448C137.764 119.282 138.464 119.198 139.247 119.198C140.147 119.198 140.964 119.332 141.697 119.598C142.447 119.848 143.08 120.207 143.597 120.673C144.13 121.14 144.539 121.707 144.822 122.373C145.122 123.04 145.272 123.782 145.272 124.598V124.648C145.272 125.382 145.172 126.04 144.972 126.623C144.789 127.19 144.505 127.732 144.122 128.248C143.755 128.748 143.28 129.257 142.697 129.773C142.114 130.273 141.439 130.823 140.672 131.423L137.822 133.623H145.447V136.948H132.497V133.898ZM156.698 137.248C155.531 137.248 154.465 137.023 153.498 136.573C152.548 136.107 151.731 135.473 151.048 134.673C150.381 133.857 149.865 132.898 149.498 131.798C149.131 130.698 148.948 129.515 148.948 128.248V128.198C148.948 126.932 149.131 125.748 149.498 124.648C149.881 123.548 150.415 122.59 151.098 121.773C151.781 120.957 152.598 120.315 153.548 119.848C154.515 119.382 155.581 119.148 156.748 119.148C157.898 119.148 158.948 119.382 159.898 119.848C160.865 120.298 161.681 120.932 162.348 121.748C163.031 122.548 163.556 123.498 163.923 124.598C164.306 125.698 164.498 126.882 164.498 128.148V128.198C164.498 129.465 164.306 130.648 163.923 131.748C163.556 132.848 163.031 133.807 162.348 134.623C161.665 135.44 160.84 136.082 159.873 136.548C158.923 137.015 157.865 137.248 156.698 137.248ZM156.748 133.773C157.331 133.773 157.856 133.64 158.323 133.373C158.79 133.09 159.19 132.707 159.523 132.223C159.856 131.723 160.106 131.14 160.273 130.473C160.456 129.79 160.548 129.048 160.548 128.248V128.198C160.548 127.398 160.456 126.665 160.273 125.998C160.09 125.315 159.823 124.723 159.473 124.223C159.14 123.723 158.731 123.332 158.248 123.048C157.781 122.765 157.265 122.623 156.698 122.623C156.115 122.623 155.59 122.765 155.123 123.048C154.656 123.315 154.256 123.698 153.923 124.198C153.606 124.682 153.356 125.265 153.173 125.948C152.99 126.615 152.898 127.348 152.898 128.148V128.198C152.898 128.998 152.99 129.74 153.173 130.423C153.356 131.107 153.615 131.698 153.948 132.198C154.281 132.682 154.681 133.065 155.148 133.348C155.631 133.632 156.165 133.773 156.748 133.773ZM167.591 133.898L173.416 129.123C173.966 128.673 174.432 128.273 174.816 127.923C175.199 127.557 175.507 127.215 175.741 126.898C175.991 126.565 176.166 126.248 176.266 125.948C176.382 125.632 176.441 125.29 176.441 124.923C176.441 124.173 176.224 123.607 175.791 123.223C175.357 122.84 174.791 122.648 174.091 122.648C173.407 122.648 172.799 122.84 172.266 123.223C171.749 123.607 171.166 124.198 170.516 124.998L167.816 122.823C168.249 122.24 168.682 121.723 169.116 121.273C169.566 120.823 170.041 120.448 170.541 120.148C171.057 119.832 171.624 119.598 172.241 119.448C172.857 119.282 173.557 119.198 174.341 119.198C175.241 119.198 176.057 119.332 176.791 119.598C177.541 119.848 178.174 120.207 178.691 120.673C179.224 121.14 179.632 121.707 179.916 122.373C180.216 123.04 180.366 123.782 180.366 124.598V124.648C180.366 125.382 180.266 126.04 180.066 126.623C179.882 127.19 179.599 127.732 179.216 128.248C178.849 128.748 178.374 129.257 177.791 129.773C177.207 130.273 176.532 130.823 175.766 131.423L172.916 133.623H180.541V136.948H167.591V133.898ZM190.467 137.248C188.884 137.248 187.534 136.973 186.417 136.423C185.317 135.857 184.392 135.123 183.642 134.223L186.292 131.698C186.892 132.382 187.517 132.907 188.167 133.273C188.834 133.623 189.617 133.798 190.517 133.798C191.25 133.798 191.842 133.607 192.292 133.223C192.759 132.84 192.992 132.323 192.992 131.673V131.623C192.992 130.907 192.692 130.357 192.092 129.973C191.492 129.59 190.65 129.398 189.567 129.398H187.967L187.367 126.948L191.542 122.748H184.667V119.448H196.492V122.348L192.067 126.573C192.667 126.673 193.242 126.832 193.792 127.048C194.359 127.265 194.859 127.565 195.292 127.948C195.742 128.332 196.1 128.815 196.367 129.398C196.634 129.965 196.767 130.657 196.767 131.473V131.523C196.767 132.357 196.617 133.123 196.317 133.823C196.034 134.507 195.617 135.107 195.067 135.623C194.534 136.14 193.875 136.54 193.092 136.823C192.309 137.107 191.434 137.248 190.467 137.248Z" fill="white"/>
<path opacity="0.2" d="M243.5 154.448V35.4482" stroke="url(#paint0_linear_505_4340)"/>
<g clip-path="url(#clip1_505_4340)">
<path d="M377 63.9482C374.627 63.9482 372.307 64.652 370.333 65.9706C368.36 67.2892 366.822 69.1633 365.913 71.356C365.005 73.5488 364.768 75.9616 365.231 78.2893C365.694 80.6171 366.836 82.7553 368.515 84.4335C370.193 86.1118 372.331 87.2546 374.659 87.7177C376.987 88.1807 379.399 87.9431 381.592 87.0348C383.785 86.1265 385.659 84.5885 386.978 82.6151C388.296 80.6417 389 78.3216 389 75.9482C388.997 72.7667 387.731 69.7165 385.481 67.4668C383.232 65.2171 380.182 63.9517 377 63.9482V63.9482ZM377 84.9482C375.22 84.9482 373.48 84.4204 372 83.4315C370.52 82.4425 369.366 81.0369 368.685 79.3924C368.004 77.7479 367.826 75.9383 368.173 74.1924C368.52 72.4466 369.377 70.843 370.636 69.5843C371.895 68.3256 373.498 67.4684 375.244 67.1212C376.99 66.7739 378.8 66.9521 380.444 67.6333C382.089 68.3145 383.494 69.4681 384.483 70.9481C385.472 72.4282 386 74.1682 386 75.9482C385.997 78.3344 385.048 80.622 383.361 82.3093C381.674 83.9965 379.386 84.9456 377 84.9482Z" fill="white"/>
<path d="M375.5 75.0032L373.1 76.5032C372.933 76.6078 372.788 76.7442 372.674 76.9047C372.56 77.0653 372.478 77.2467 372.434 77.4388C372.39 77.6308 372.384 77.8297 372.417 78.024C372.45 78.2183 372.52 78.4042 372.625 78.5712C372.73 78.7382 372.866 78.883 373.027 78.9973C373.187 79.1115 373.369 79.193 373.561 79.2371C373.753 79.2813 373.951 79.2871 374.146 79.2543C374.34 79.2216 374.526 79.1508 374.693 79.0462L377.562 77.2462C377.85 77.0658 378.087 76.8151 378.251 76.5177C378.415 76.2202 378.501 75.8859 378.5 75.5462V71.7202C378.5 71.3224 378.342 70.9409 378.061 70.6596C377.779 70.3783 377.398 70.2202 377 70.2202C376.602 70.2202 376.221 70.3783 375.939 70.6596C375.658 70.9409 375.5 71.3224 375.5 71.7202V75.0032Z" fill="white"/>
</g>
<path d="M292.95 107.223L289.9 107.973L289.1 104.823L294.125 103.323H296.75V120.948H292.95V107.223ZM309.747 117.173H301.197L300.572 114.448L310.172 103.323H313.422V114.048H315.772V117.173H313.422V120.948H309.747V117.173ZM309.747 114.048V108.598L305.097 114.048H309.747ZM319.458 107.548H323.508V111.548H319.458V107.548ZM319.458 116.948H323.508V120.948H319.458V116.948ZM335.031 121.248C333.864 121.248 332.797 121.023 331.831 120.573C330.881 120.107 330.064 119.473 329.381 118.673C328.714 117.857 328.197 116.898 327.831 115.798C327.464 114.698 327.281 113.515 327.281 112.248V112.198C327.281 110.932 327.464 109.748 327.831 108.648C328.214 107.548 328.747 106.59 329.431 105.773C330.114 104.957 330.931 104.315 331.881 103.848C332.847 103.382 333.914 103.148 335.081 103.148C336.231 103.148 337.281 103.382 338.231 103.848C339.197 104.298 340.014 104.932 340.681 105.748C341.364 106.548 341.889 107.498 342.256 108.598C342.639 109.698 342.831 110.882 342.831 112.148V112.198C342.831 113.465 342.639 114.648 342.256 115.748C341.889 116.848 341.364 117.807 340.681 118.623C339.997 119.44 339.172 120.082 338.206 120.548C337.256 121.015 336.197 121.248 335.031 121.248ZM335.081 117.773C335.664 117.773 336.189 117.64 336.656 117.373C337.122 117.09 337.522 116.707 337.856 116.223C338.189 115.723 338.439 115.14 338.606 114.473C338.789 113.79 338.881 113.048 338.881 112.248V112.198C338.881 111.398 338.789 110.665 338.606 109.998C338.422 109.315 338.156 108.723 337.806 108.223C337.472 107.723 337.064 107.332 336.581 107.048C336.114 106.765 335.597 106.623 335.031 106.623C334.447 106.623 333.922 106.765 333.456 107.048C332.989 107.315 332.589 107.698 332.256 108.198C331.939 108.682 331.689 109.265 331.506 109.948C331.322 110.615 331.231 111.348 331.231 112.148V112.198C331.231 112.998 331.322 113.74 331.506 114.423C331.689 115.107 331.947 115.698 332.281 116.198C332.614 116.682 333.014 117.065 333.481 117.348C333.964 117.632 334.497 117.773 335.081 117.773ZM354.042 121.248C352.876 121.248 351.809 121.023 350.842 120.573C349.892 120.107 349.076 119.473 348.392 118.673C347.726 117.857 347.209 116.898 346.842 115.798C346.476 114.698 346.292 113.515 346.292 112.248V112.198C346.292 110.932 346.476 109.748 346.842 108.648C347.226 107.548 347.759 106.59 348.442 105.773C349.126 104.957 349.942 104.315 350.892 103.848C351.859 103.382 352.926 103.148 354.092 103.148C355.242 103.148 356.292 103.382 357.242 103.848C358.209 104.298 359.026 104.932 359.692 105.748C360.376 106.548 360.901 107.498 361.267 108.598C361.651 109.698 361.842 110.882 361.842 112.148V112.198C361.842 113.465 361.651 114.648 361.267 115.748C360.901 116.848 360.376 117.807 359.692 118.623C359.009 119.44 358.184 120.082 357.217 120.548C356.267 121.015 355.209 121.248 354.042 121.248ZM354.092 117.773C354.676 117.773 355.201 117.64 355.667 117.373C356.134 117.09 356.534 116.707 356.867 116.223C357.201 115.723 357.451 115.14 357.617 114.473C357.801 113.79 357.892 113.048 357.892 112.248V112.198C357.892 111.398 357.801 110.665 357.617 109.998C357.434 109.315 357.167 108.723 356.817 108.223C356.484 107.723 356.076 107.332 355.592 107.048C355.126 106.765 354.609 106.623 354.042 106.623C353.459 106.623 352.934 106.765 352.467 107.048C352.001 107.315 351.601 107.698 351.267 108.198C350.951 108.682 350.701 109.265 350.517 109.948C350.334 110.615 350.242 111.348 350.242 112.148V112.198C350.242 112.998 350.334 113.74 350.517 114.423C350.701 115.107 350.959 115.698 351.292 116.198C351.626 116.682 352.026 117.065 352.492 117.348C352.976 117.632 353.509 117.773 354.092 117.773ZM373.449 111.373H381.149V115.023H373.449V111.373ZM395.849 107.223L392.799 107.973L391.999 104.823L397.024 103.323H399.649V120.948H395.849V107.223ZM410.571 121.198C409.605 121.198 408.705 121.082 407.871 120.848C407.055 120.598 406.346 120.257 405.746 119.823C405.146 119.373 404.671 118.84 404.321 118.223C403.988 117.607 403.821 116.915 403.821 116.148V116.098C403.821 115.032 404.055 114.173 404.521 113.523C405.005 112.857 405.713 112.307 406.646 111.873C405.963 111.457 405.421 110.957 405.021 110.373C404.621 109.773 404.421 108.998 404.421 108.048V107.998C404.421 107.332 404.563 106.707 404.846 106.123C405.146 105.54 405.563 105.032 406.096 104.598C406.646 104.165 407.296 103.823 408.046 103.573C408.796 103.323 409.638 103.198 410.571 103.198C411.488 103.198 412.321 103.323 413.071 103.573C413.838 103.823 414.488 104.165 415.021 104.598C415.571 105.015 415.988 105.523 416.271 106.123C416.571 106.707 416.721 107.332 416.721 107.998V108.048C416.721 108.998 416.521 109.773 416.121 110.373C415.721 110.957 415.18 111.457 414.496 111.873C415.38 112.34 416.071 112.89 416.571 113.523C417.071 114.14 417.321 114.965 417.321 115.998V116.048C417.321 116.865 417.146 117.59 416.796 118.223C416.463 118.857 415.996 119.398 415.396 119.848C414.796 120.282 414.08 120.615 413.246 120.848C412.43 121.082 411.538 121.198 410.571 121.198ZM410.571 110.598C411.338 110.598 411.946 110.398 412.396 109.998C412.846 109.598 413.071 109.09 413.071 108.473V108.423C413.071 107.89 412.855 107.415 412.421 106.998C411.988 106.582 411.371 106.373 410.571 106.373C409.771 106.373 409.155 106.582 408.721 106.998C408.288 107.398 408.071 107.865 408.071 108.398V108.448C408.071 109.065 408.296 109.582 408.746 109.998C409.196 110.398 409.805 110.598 410.571 110.598ZM410.571 118.023C411.521 118.023 412.263 117.815 412.796 117.398C413.33 116.982 413.596 116.465 413.596 115.848V115.798C413.596 115.115 413.313 114.59 412.746 114.223C412.18 113.84 411.455 113.648 410.571 113.648C409.688 113.648 408.963 113.84 408.396 114.223C407.83 114.59 407.546 115.115 407.546 115.798V115.848C407.546 116.448 407.813 116.965 408.346 117.398C408.88 117.815 409.621 118.023 410.571 118.023ZM420.868 107.548H424.918V111.548H420.868V107.548ZM420.868 116.948H424.918V120.948H420.868V116.948ZM436.441 121.248C435.274 121.248 434.207 121.023 433.241 120.573C432.291 120.107 431.474 119.473 430.791 118.673C430.124 117.857 429.607 116.898 429.241 115.798C428.874 114.698 428.691 113.515 428.691 112.248V112.198C428.691 110.932 428.874 109.748 429.241 108.648C429.624 107.548 430.157 106.59 430.841 105.773C431.524 104.957 432.341 104.315 433.291 103.848C434.257 103.382 435.324 103.148 436.491 103.148C437.641 103.148 438.691 103.382 439.641 103.848C440.607 104.298 441.424 104.932 442.091 105.748C442.774 106.548 443.299 107.498 443.666 108.598C444.049 109.698 444.241 110.882 444.241 112.148V112.198C444.241 113.465 444.049 114.648 443.666 115.748C443.299 116.848 442.774 117.807 442.091 118.623C441.407 119.44 440.582 120.082 439.616 120.548C438.666 121.015 437.607 121.248 436.441 121.248ZM436.491 117.773C437.074 117.773 437.599 117.64 438.066 117.373C438.532 117.09 438.932 116.707 439.266 116.223C439.599 115.723 439.849 115.14 440.016 114.473C440.199 113.79 440.291 113.048 440.291 112.248V112.198C440.291 111.398 440.199 110.665 440.016 109.998C439.832 109.315 439.566 108.723 439.216 108.223C438.882 107.723 438.474 107.332 437.991 107.048C437.524 106.765 437.007 106.623 436.441 106.623C435.857 106.623 435.332 106.765 434.866 107.048C434.399 107.315 433.999 107.698 433.666 108.198C433.349 108.682 433.099 109.265 432.916 109.948C432.732 110.615 432.641 111.348 432.641 112.148V112.198C432.641 112.998 432.732 113.74 432.916 114.423C433.099 115.107 433.357 115.698 433.691 116.198C434.024 116.682 434.424 117.065 434.891 117.348C435.374 117.632 435.907 117.773 436.491 117.773ZM455.453 121.248C454.286 121.248 453.219 121.023 452.253 120.573C451.303 120.107 450.486 119.473 449.803 118.673C449.136 117.857 448.619 116.898 448.253 115.798C447.886 114.698 447.703 113.515 447.703 112.248V112.198C447.703 110.932 447.886 109.748 448.253 108.648C448.636 107.548 449.169 106.59 449.853 105.773C450.536 104.957 451.353 104.315 452.303 103.848C453.269 103.382 454.336 103.148 455.503 103.148C456.653 103.148 457.703 103.382 458.653 103.848C459.619 104.298 460.436 104.932 461.103 105.748C461.786 106.548 462.311 107.498 462.678 108.598C463.061 109.698 463.253 110.882 463.253 112.148V112.198C463.253 113.465 463.061 114.648 462.678 115.748C462.311 116.848 461.786 117.807 461.103 118.623C460.419 119.44 459.594 120.082 458.628 120.548C457.678 121.015 456.619 121.248 455.453 121.248ZM455.503 117.773C456.086 117.773 456.611 117.64 457.078 117.373C457.544 117.09 457.944 116.707 458.278 116.223C458.611 115.723 458.861 115.14 459.028 114.473C459.211 113.79 459.303 113.048 459.303 112.248V112.198C459.303 111.398 459.211 110.665 459.028 109.998C458.844 109.315 458.578 108.723 458.228 108.223C457.894 107.723 457.486 107.332 457.003 107.048C456.536 106.765 456.019 106.623 455.453 106.623C454.869 106.623 454.344 106.765 453.878 107.048C453.411 107.315 453.011 107.698 452.678 108.198C452.361 108.682 452.111 109.265 451.928 109.948C451.744 110.615 451.653 111.348 451.653 112.148V112.198C451.653 112.998 451.744 113.74 451.928 114.423C452.111 115.107 452.369 115.698 452.703 116.198C453.036 116.682 453.436 117.065 453.903 117.348C454.386 117.632 454.919 117.773 455.503 117.773Z" fill="white"/>
<path opacity="0.2" d="M510.5 154.448V35.4482" stroke="url(#paint1_linear_505_4340)"/>
<g clip-path="url(#clip2_505_4340)">
<path d="M680 41.4482C679.209 41.4482 678.436 41.6828 677.778 42.1224C677.12 42.5619 676.607 43.1866 676.305 43.9175C676.002 44.6484 675.923 45.4527 676.077 46.2286C676.231 47.0045 676.612 47.7173 677.172 48.2767C677.731 48.8361 678.444 49.217 679.22 49.3714C679.996 49.5257 680.8 49.4465 681.531 49.1438C682.262 48.841 682.886 48.3283 683.326 47.6705C683.766 47.0127 684 46.2394 684 45.4482C684 44.3874 683.579 43.37 682.829 42.6198C682.078 41.8697 681.061 41.4482 680 41.4482ZM680 47.4482C679.605 47.4482 679.218 47.3309 678.889 47.1112C678.56 46.8914 678.304 46.5791 678.152 46.2136C678.001 45.8482 677.961 45.446 678.039 45.0581C678.116 44.6701 678.306 44.3137 678.586 44.034C678.866 43.7543 679.222 43.5638 679.61 43.4867C679.998 43.4095 680.4 43.4491 680.765 43.6005C681.131 43.7519 681.443 44.0082 681.663 44.3371C681.883 44.666 682 45.0527 682 45.4482C682 45.9787 681.789 46.4874 681.414 46.8625C681.039 47.2375 680.531 47.4482 680 47.4482Z" fill="white"/>
<path d="M680 59.4483C679.158 59.4526 678.327 59.2551 677.577 58.8723C676.827 58.4896 676.18 57.9327 675.689 57.2483C671.878 51.9913 669.945 48.0393 669.945 45.5013C669.945 42.8345 671.004 40.277 672.89 38.3913C674.776 36.5057 677.333 35.4463 680 35.4463C682.667 35.4463 685.224 36.5057 687.11 38.3913C688.996 40.277 690.055 42.8345 690.055 45.5013C690.055 48.0393 688.122 51.9913 684.311 57.2483C683.82 57.9327 683.173 58.4896 682.423 58.8723C681.673 59.2551 680.842 59.4526 680 59.4483ZM680 37.6293C677.912 37.6317 675.911 38.462 674.435 39.9382C672.959 41.4143 672.128 43.4157 672.126 45.5033C672.126 47.5133 674.019 51.2303 677.455 55.9693C677.747 56.3711 678.129 56.6981 678.572 56.9236C679.014 57.149 679.503 57.2666 680 57.2666C680.496 57.2666 680.986 57.149 681.428 56.9236C681.871 56.6981 682.253 56.3711 682.545 55.9693C685.981 51.2303 687.874 47.5133 687.874 45.5033C687.872 43.4157 687.041 41.4143 685.565 39.9382C684.089 38.462 682.088 37.6317 680 37.6293Z" fill="white"/>
</g>
<path d="M601.404 92.7482C600.054 92.7482 598.813 92.5149 597.679 92.0482C596.546 91.5649 595.563 90.9232 594.729 90.1232C593.913 89.3066 593.271 88.3566 592.804 87.2732C592.354 86.1732 592.129 84.9982 592.129 83.7482V83.6982C592.129 82.4482 592.363 81.2816 592.829 80.1982C593.296 79.0982 593.938 78.1399 594.754 77.3232C595.588 76.4899 596.571 75.8399 597.704 75.3732C598.854 74.8899 600.104 74.6482 601.454 74.6482C602.804 74.6482 604.046 74.8899 605.179 75.3732C606.313 75.8399 607.288 76.4816 608.104 77.2982C608.938 78.0982 609.579 79.0482 610.029 80.1482C610.496 81.2316 610.729 82.3982 610.729 83.6482V83.6982C610.729 84.9482 610.496 86.1232 610.029 87.2232C609.563 88.3066 608.913 89.2649 608.079 90.0982C607.263 90.9149 606.279 91.5649 605.129 92.0482C603.996 92.5149 602.754 92.7482 601.404 92.7482ZM601.454 89.1982C602.221 89.1982 602.929 89.0566 603.579 88.7732C604.229 88.4899 604.779 88.0982 605.229 87.5982C605.696 87.0982 606.054 86.5232 606.304 85.8732C606.571 85.2066 606.704 84.4982 606.704 83.7482V83.6982C606.704 82.9482 606.571 82.2399 606.304 81.5732C606.054 80.9066 605.688 80.3232 605.204 79.8232C604.738 79.3232 604.179 78.9316 603.529 78.6482C602.879 78.3482 602.171 78.1982 601.404 78.1982C600.621 78.1982 599.904 78.3399 599.254 78.6232C598.621 78.9066 598.071 79.2982 597.604 79.7982C597.154 80.2982 596.796 80.8816 596.529 81.5482C596.279 82.1982 596.154 82.8982 596.154 83.6482V83.6982C596.154 84.4482 596.279 85.1566 596.529 85.8232C596.796 86.4899 597.163 87.0732 597.629 87.5732C598.113 88.0732 598.671 88.4732 599.304 88.7732C599.954 89.0566 600.671 89.1982 601.454 89.1982ZM614.494 79.0482H618.294V80.9482C618.511 80.6649 618.744 80.3982 618.994 80.1482C619.261 79.8816 619.553 79.6482 619.869 79.4482C620.186 79.2482 620.536 79.0899 620.919 78.9732C621.303 78.8566 621.736 78.7982 622.219 78.7982C623.669 78.7982 624.786 79.2399 625.569 80.1232C626.369 81.0066 626.769 82.2232 626.769 83.7732V92.4482H622.969V84.9732C622.969 84.0732 622.769 83.3982 622.369 82.9482C621.969 82.4816 621.403 82.2482 620.669 82.2482C619.936 82.2482 619.353 82.4816 618.919 82.9482C618.503 83.3982 618.294 84.0732 618.294 84.9732V92.4482H614.494V79.0482ZM630.996 74.1982H634.796V92.4482H630.996V74.1982ZM647.915 79.0482H651.865L646.715 92.7732C646.465 93.4566 646.198 94.0316 645.915 94.4982C645.631 94.9816 645.315 95.3732 644.965 95.6732C644.631 95.9732 644.248 96.1899 643.815 96.3232C643.381 96.4566 642.881 96.5232 642.315 96.5232C641.615 96.5232 640.998 96.4399 640.465 96.2732C639.931 96.1066 639.423 95.8816 638.94 95.5982L640.215 92.8482C640.465 92.9982 640.731 93.1232 641.015 93.2232C641.315 93.3232 641.59 93.3732 641.84 93.3732C642.173 93.3732 642.431 93.3066 642.615 93.1732C642.815 93.0566 642.998 92.8316 643.165 92.4982L637.915 79.0482H641.94L644.99 88.1732L647.915 79.0482ZM670.8 92.7232C668.45 92.7232 666.6 92.0732 665.25 90.7732C663.9 89.4732 663.225 87.5316 663.225 84.9482V74.9482H667.075V84.8482C667.075 86.2816 667.408 87.3649 668.075 88.0982C668.742 88.8149 669.667 89.1732 670.85 89.1732C672.033 89.1732 672.958 88.8232 673.625 88.1232C674.292 87.4232 674.625 86.3732 674.625 84.9732V74.9482H678.475V84.8232C678.475 86.1566 678.292 87.3149 677.925 88.2982C677.575 89.2816 677.067 90.1066 676.4 90.7732C675.733 91.4232 674.925 91.9149 673.975 92.2482C673.025 92.5649 671.967 92.7232 670.8 92.7232ZM697.617 92.6982C696.283 92.6982 694.975 92.4732 693.692 92.0232C692.408 91.5566 691.242 90.8482 690.192 89.8982L692.467 87.1732C693.267 87.8232 694.083 88.3399 694.917 88.7232C695.767 89.1066 696.692 89.2982 697.692 89.2982C698.492 89.2982 699.108 89.1566 699.542 88.8732C699.992 88.5732 700.217 88.1649 700.217 87.6482V87.5982C700.217 87.3482 700.167 87.1316 700.067 86.9482C699.983 86.7482 699.808 86.5649 699.542 86.3982C699.292 86.2316 698.933 86.0649 698.467 85.8982C698.017 85.7316 697.425 85.5566 696.692 85.3732C695.808 85.1566 695.008 84.9149 694.292 84.6482C693.575 84.3816 692.967 84.0566 692.467 83.6732C691.967 83.2732 691.575 82.7816 691.292 82.1982C691.025 81.6149 690.892 80.8899 690.892 80.0232V79.9732C690.892 79.1732 691.042 78.4566 691.342 77.8232C691.642 77.1732 692.058 76.6149 692.592 76.1482C693.142 75.6816 693.792 75.3232 694.542 75.0732C695.292 74.8232 696.117 74.6982 697.017 74.6982C698.3 74.6982 699.475 74.8899 700.542 75.2732C701.625 75.6566 702.617 76.2066 703.517 76.9232L701.517 79.8232C700.733 79.2899 699.967 78.8732 699.217 78.5732C698.467 78.2566 697.717 78.0982 696.967 78.0982C696.217 78.0982 695.65 78.2482 695.267 78.5482C694.9 78.8316 694.717 79.1899 694.717 79.6232V79.6732C694.717 79.9566 694.767 80.2066 694.867 80.4232C694.983 80.6232 695.183 80.8066 695.467 80.9732C695.75 81.1399 696.133 81.2982 696.617 81.4482C697.117 81.5982 697.742 81.7732 698.492 81.9732C699.375 82.2066 700.158 82.4732 700.842 82.7732C701.542 83.0566 702.125 83.4066 702.592 83.8232C703.075 84.2232 703.433 84.6982 703.667 85.2482C703.917 85.7982 704.042 86.4566 704.042 87.2232V87.2732C704.042 88.1399 703.883 88.9149 703.567 89.5982C703.25 90.2649 702.808 90.8316 702.242 91.2982C701.675 91.7482 701 92.0982 700.217 92.3482C699.433 92.5816 698.567 92.6982 697.617 92.6982ZM707.733 79.0482H711.533V80.9732C711.999 80.3399 712.558 79.8232 713.208 79.4232C713.874 79.0066 714.708 78.7982 715.708 78.7982C716.491 78.7982 717.249 78.9482 717.983 79.2482C718.716 79.5482 719.366 79.9982 719.933 80.5982C720.499 81.1816 720.949 81.9066 721.283 82.7732C721.633 83.6232 721.808 84.6066 721.808 85.7232V85.7732C721.808 86.8899 721.633 87.8816 721.283 88.7482C720.949 89.5982 720.499 90.3232 719.933 90.9232C719.383 91.5066 718.741 91.9482 718.008 92.2482C717.274 92.5482 716.508 92.6982 715.708 92.6982C714.691 92.6982 713.849 92.4982 713.183 92.0982C712.533 91.6982 711.983 91.2316 711.533 90.6982V96.4482H707.733V79.0482ZM714.733 89.4732C715.183 89.4732 715.599 89.3899 715.983 89.2232C716.383 89.0399 716.733 88.7899 717.033 88.4732C717.333 88.1399 717.566 87.7482 717.733 87.2982C717.916 86.8482 718.008 86.3399 718.008 85.7732V85.7232C718.008 85.1732 717.916 84.6732 717.733 84.2232C717.566 83.7566 717.333 83.3649 717.033 83.0482C716.733 82.7149 716.383 82.4649 715.983 82.2982C715.599 82.1149 715.183 82.0232 714.733 82.0232C714.283 82.0232 713.858 82.1149 713.458 82.2982C713.074 82.4649 712.733 82.7149 712.433 83.0482C712.149 83.3649 711.916 83.7566 711.733 84.2232C711.566 84.6732 711.483 85.1732 711.483 85.7232V85.7732C711.483 86.3232 711.566 86.8316 711.733 87.2982C711.916 87.7482 712.149 88.1399 712.433 88.4732C712.733 88.7899 713.074 89.0399 713.458 89.2232C713.858 89.3899 714.283 89.4732 714.733 89.4732ZM729.153 92.6982C728.519 92.6982 727.919 92.6149 727.353 92.4482C726.803 92.2649 726.319 91.9982 725.903 91.6482C725.486 91.2982 725.153 90.8732 724.903 90.3732C724.669 89.8566 724.553 89.2649 724.553 88.5982V88.5482C724.553 87.8149 724.686 87.1816 724.953 86.6482C725.219 86.1149 725.586 85.6732 726.053 85.3232C726.536 84.9732 727.103 84.7149 727.753 84.5482C728.419 84.3649 729.153 84.2732 729.953 84.2732C730.636 84.2732 731.228 84.3232 731.728 84.4232C732.244 84.5232 732.744 84.6566 733.228 84.8232V84.5982C733.228 83.7982 732.986 83.1899 732.503 82.7732C732.019 82.3566 731.303 82.1482 730.353 82.1482C729.619 82.1482 728.969 82.2149 728.403 82.3482C727.853 82.4649 727.269 82.6399 726.653 82.8732L725.703 79.9732C726.436 79.6566 727.203 79.3982 728.003 79.1982C728.803 78.9982 729.769 78.8982 730.903 78.8982C731.953 78.8982 732.844 79.0316 733.578 79.2982C734.328 79.5482 734.944 79.9149 735.428 80.3982C735.928 80.8982 736.294 81.5149 736.528 82.2482C736.761 82.9649 736.878 83.7732 736.878 84.6732V92.4482H733.203V90.9982C732.736 91.5149 732.178 91.9316 731.528 92.2482C730.878 92.5482 730.086 92.6982 729.153 92.6982ZM730.303 90.0732C731.203 90.0732 731.919 89.8566 732.453 89.4232C733.003 88.9899 733.278 88.4232 733.278 87.7232V87.0482C732.944 86.8982 732.569 86.7816 732.153 86.6982C731.753 86.5982 731.319 86.5482 730.853 86.5482C730.036 86.5482 729.394 86.7066 728.928 87.0232C728.461 87.3399 728.228 87.7982 728.228 88.3982V88.4482C728.228 88.9649 728.419 89.3649 728.803 89.6482C729.186 89.9316 729.686 90.0732 730.303 90.0732ZM747.223 92.7482C746.223 92.7482 745.289 92.5649 744.423 92.1982C743.573 91.8316 742.839 91.3399 742.223 90.7232C741.606 90.0899 741.123 89.3566 740.773 88.5232C740.423 87.6732 740.248 86.7732 740.248 85.8232V85.7732C740.248 84.8232 740.423 83.9232 740.773 83.0732C741.123 82.2232 741.606 81.4816 742.223 80.8482C742.839 80.2149 743.573 79.7149 744.423 79.3482C745.289 78.9816 746.239 78.7982 747.273 78.7982C748.539 78.7982 749.589 78.9982 750.423 79.3982C751.256 79.7982 751.989 80.3482 752.623 81.0482L750.298 83.5482C749.864 83.0982 749.414 82.7399 748.948 82.4732C748.498 82.2066 747.931 82.0732 747.248 82.0732C746.764 82.0732 746.323 82.1732 745.923 82.3732C745.539 82.5566 745.198 82.8149 744.898 83.1482C744.614 83.4816 744.389 83.8732 744.223 84.3232C744.073 84.7566 743.998 85.2232 743.998 85.7232V85.7732C743.998 86.2899 744.073 86.7732 744.223 87.2232C744.389 87.6732 744.623 88.0649 744.923 88.3982C745.223 88.7316 745.581 88.9982 745.998 89.1982C746.414 89.3816 746.881 89.4732 747.398 89.4732C748.031 89.4732 748.581 89.3482 749.048 89.0982C749.531 88.8316 750.006 88.4816 750.473 88.0482L752.698 90.2982C752.048 91.0149 751.306 91.6066 750.473 92.0732C749.639 92.5232 748.556 92.7482 747.223 92.7482ZM761.914 92.7482C760.914 92.7482 759.98 92.5816 759.114 92.2482C758.264 91.9149 757.522 91.4399 756.889 90.8232C756.272 90.2066 755.789 89.4816 755.439 88.6482C755.089 87.7982 754.914 86.8566 754.914 85.8232V85.7732C754.914 84.8232 755.072 83.9232 755.389 83.0732C755.722 82.2232 756.18 81.4816 756.764 80.8482C757.347 80.2149 758.039 79.7149 758.839 79.3482C759.655 78.9816 760.555 78.7982 761.539 78.7982C762.655 78.7982 763.622 78.9982 764.439 79.3982C765.255 79.7982 765.93 80.3399 766.464 81.0232C767.014 81.6899 767.414 82.4649 767.664 83.3482C767.93 84.2149 768.064 85.1232 768.064 86.0732C768.064 86.2232 768.055 86.3816 768.039 86.5482C768.039 86.7149 768.03 86.8899 768.014 87.0732H758.689C758.872 87.9399 759.247 88.5982 759.814 89.0482C760.397 89.4816 761.114 89.6982 761.964 89.6982C762.597 89.6982 763.164 89.5899 763.664 89.3732C764.164 89.1566 764.68 88.8066 765.214 88.3232L767.389 90.2482C766.755 91.0316 765.989 91.6482 765.089 92.0982C764.189 92.5316 763.13 92.7482 761.914 92.7482ZM764.364 84.6982C764.247 83.8482 763.947 83.1649 763.464 82.6482C762.98 82.1149 762.339 81.8482 761.539 81.8482C760.739 81.8482 760.089 82.1066 759.589 82.6232C759.105 83.1399 758.789 83.8316 758.639 84.6982H764.364ZM583.506 108.873L580.206 109.898L579.731 108.298L584.006 106.823H585.456V124.448H583.506V108.873ZM597.666 124.748C596.533 124.748 595.508 124.515 594.591 124.048C593.691 123.565 592.916 122.915 592.266 122.098C591.633 121.265 591.141 120.307 590.791 119.223C590.458 118.14 590.291 116.982 590.291 115.748V115.698C590.291 114.482 590.466 113.323 590.816 112.223C591.166 111.123 591.666 110.165 592.316 109.348C592.966 108.515 593.741 107.857 594.641 107.373C595.558 106.89 596.583 106.648 597.716 106.648C598.833 106.648 599.841 106.89 600.741 107.373C601.658 107.84 602.433 108.49 603.066 109.323C603.716 110.14 604.208 111.098 604.541 112.198C604.891 113.282 605.066 114.432 605.066 115.648V115.698C605.066 116.932 604.891 118.098 604.541 119.198C604.191 120.282 603.691 121.24 603.041 122.073C602.408 122.89 601.633 123.54 600.716 124.023C599.8 124.507 598.783 124.748 597.666 124.748ZM597.716 122.948C598.533 122.948 599.266 122.757 599.916 122.373C600.583 121.973 601.141 121.448 601.591 120.798C602.058 120.132 602.408 119.365 602.641 118.498C602.891 117.615 603.016 116.698 603.016 115.748V115.698C603.016 114.748 602.891 113.84 602.641 112.973C602.391 112.09 602.033 111.315 601.566 110.648C601.1 109.982 600.533 109.448 599.866 109.048C599.216 108.648 598.483 108.448 597.666 108.448C596.85 108.448 596.108 108.648 595.441 109.048C594.791 109.432 594.233 109.957 593.766 110.623C593.316 111.273 592.966 112.032 592.716 112.898C592.466 113.765 592.341 114.682 592.341 115.648V115.698C592.341 116.648 592.466 117.565 592.716 118.448C592.966 119.315 593.325 120.082 593.791 120.748C594.258 121.415 594.825 121.948 595.491 122.348C596.158 122.748 596.9 122.948 597.716 122.948ZM624.557 106.823H626.407L634.382 124.448H632.257L630.207 119.823H620.682L618.607 124.448H616.582L624.557 106.823ZM629.432 118.023L625.457 109.123L621.457 118.023H629.432ZM638.258 111.523H640.183V113.773C640.617 113.073 641.183 112.482 641.883 111.998C642.583 111.498 643.492 111.248 644.608 111.248C645.392 111.248 646.083 111.373 646.683 111.623C647.3 111.873 647.817 112.232 648.233 112.698C648.667 113.148 648.992 113.69 649.208 114.323C649.442 114.957 649.558 115.657 649.558 116.423V124.448H647.633V116.898C647.633 115.698 647.325 114.748 646.708 114.048C646.092 113.348 645.208 112.998 644.058 112.998C643.508 112.998 642.992 113.098 642.508 113.298C642.042 113.482 641.633 113.757 641.283 114.123C640.933 114.473 640.658 114.898 640.458 115.398C640.275 115.898 640.183 116.448 640.183 117.048V124.448H638.258V111.523ZM658.689 124.698C657.755 124.698 656.814 124.532 655.864 124.198C654.914 123.848 654.072 123.382 653.339 122.798L654.314 121.423C655.014 121.957 655.739 122.365 656.489 122.648C657.255 122.932 658.022 123.073 658.789 123.073C659.572 123.073 660.214 122.89 660.714 122.523C661.214 122.157 661.464 121.657 661.464 121.023V120.973C661.464 120.657 661.372 120.382 661.189 120.148C661.022 119.915 660.789 119.715 660.489 119.548C660.189 119.365 659.839 119.207 659.439 119.073C659.055 118.94 658.655 118.815 658.239 118.698C657.739 118.548 657.23 118.39 656.714 118.223C656.214 118.04 655.755 117.815 655.339 117.548C654.939 117.282 654.605 116.948 654.339 116.548C654.089 116.148 653.964 115.648 653.964 115.048V114.998C653.964 114.448 654.072 113.948 654.289 113.498C654.505 113.032 654.805 112.64 655.189 112.323C655.589 111.99 656.055 111.74 656.589 111.573C657.139 111.39 657.73 111.298 658.364 111.298C659.164 111.298 659.972 111.432 660.789 111.698C661.605 111.948 662.347 112.29 663.014 112.723L662.139 114.173C661.539 113.79 660.905 113.49 660.239 113.273C659.589 113.04 658.947 112.923 658.314 112.923C657.547 112.923 656.939 113.107 656.489 113.473C656.039 113.823 655.814 114.265 655.814 114.798V114.848C655.814 115.148 655.905 115.415 656.089 115.648C656.272 115.865 656.514 116.057 656.814 116.223C657.13 116.39 657.489 116.54 657.889 116.673C658.289 116.807 658.705 116.94 659.139 117.073C659.639 117.223 660.13 117.39 660.614 117.573C661.114 117.757 661.564 117.99 661.964 118.273C662.364 118.557 662.68 118.898 662.914 119.298C663.164 119.698 663.289 120.19 663.289 120.773V120.823C663.289 121.44 663.164 121.99 662.914 122.473C662.68 122.94 662.355 123.34 661.939 123.673C661.539 124.007 661.055 124.265 660.489 124.448C659.939 124.615 659.339 124.698 658.689 124.698ZM673.515 124.748C672.548 124.748 671.657 124.573 670.84 124.223C670.023 123.857 669.315 123.373 668.715 122.773C668.115 122.157 667.648 121.448 667.315 120.648C666.982 119.832 666.815 118.965 666.815 118.048V117.998C666.815 117.082 666.982 116.215 667.315 115.398C667.648 114.582 668.115 113.865 668.715 113.248C669.315 112.632 670.023 112.148 670.84 111.798C671.673 111.432 672.582 111.248 673.565 111.248C674.532 111.248 675.423 111.432 676.24 111.798C677.073 112.148 677.79 112.632 678.39 113.248C678.99 113.848 679.457 114.557 679.79 115.373C680.123 116.173 680.29 117.032 680.29 117.948V117.998C680.29 118.915 680.115 119.782 679.765 120.598C679.432 121.415 678.965 122.132 678.365 122.748C677.765 123.365 677.048 123.857 676.215 124.223C675.382 124.573 674.482 124.748 673.515 124.748ZM673.565 123.023C674.265 123.023 674.907 122.89 675.49 122.623C676.073 122.357 676.573 121.998 676.99 121.548C677.407 121.098 677.732 120.573 677.965 119.973C678.198 119.373 678.315 118.732 678.315 118.048V117.998C678.315 117.298 678.19 116.648 677.94 116.048C677.707 115.432 677.373 114.898 676.94 114.448C676.507 113.982 675.998 113.615 675.415 113.348C674.832 113.082 674.198 112.948 673.515 112.948C672.815 112.948 672.173 113.082 671.59 113.348C671.007 113.615 670.507 113.973 670.09 114.423C669.69 114.873 669.373 115.407 669.14 116.023C668.907 116.623 668.79 117.265 668.79 117.948V117.998C668.79 118.698 668.907 119.357 669.14 119.973C669.39 120.573 669.723 121.098 670.14 121.548C670.573 121.998 671.082 122.357 671.665 122.623C672.248 122.89 672.882 123.023 673.565 123.023ZM684.527 111.523H686.452V113.773C686.885 113.073 687.452 112.482 688.152 111.998C688.852 111.498 689.76 111.248 690.877 111.248C691.66 111.248 692.352 111.373 692.952 111.623C693.569 111.873 694.085 112.232 694.502 112.698C694.935 113.148 695.26 113.69 695.477 114.323C695.71 114.957 695.827 115.657 695.827 116.423V124.448H693.902V116.898C693.902 115.698 693.594 114.748 692.977 114.048C692.36 113.348 691.477 112.998 690.327 112.998C689.777 112.998 689.26 113.098 688.777 113.298C688.31 113.482 687.902 113.757 687.552 114.123C687.202 114.473 686.927 114.898 686.727 115.398C686.544 115.898 686.452 116.448 686.452 117.048V124.448H684.527V111.523ZM709.252 106.948H716.777C717.861 106.948 718.819 107.107 719.652 107.423C720.502 107.723 721.202 108.148 721.752 108.698C722.186 109.132 722.519 109.64 722.752 110.223C722.986 110.807 723.102 111.448 723.102 112.148V112.198C723.102 112.932 722.986 113.59 722.752 114.173C722.519 114.74 722.186 115.24 721.752 115.673C721.336 116.09 720.836 116.44 720.252 116.723C719.669 116.99 719.036 117.182 718.352 117.298L723.727 124.448H721.302L716.227 117.648H711.227V124.448H709.252V106.948ZM716.602 115.873C717.252 115.873 717.852 115.79 718.402 115.623C718.952 115.457 719.427 115.223 719.827 114.923C720.227 114.607 720.536 114.232 720.752 113.798C720.986 113.348 721.102 112.84 721.102 112.273V112.223C721.102 111.14 720.711 110.298 719.927 109.698C719.144 109.082 718.044 108.773 716.627 108.773H711.227V115.873H716.602ZM733.4 124.748C732.433 124.748 731.541 124.573 730.725 124.223C729.908 123.857 729.2 123.373 728.6 122.773C728 122.157 727.533 121.448 727.2 120.648C726.866 119.832 726.7 118.965 726.7 118.048V117.998C726.7 117.082 726.866 116.215 727.2 115.398C727.533 114.582 728 113.865 728.6 113.248C729.2 112.632 729.908 112.148 730.725 111.798C731.558 111.432 732.466 111.248 733.45 111.248C734.416 111.248 735.308 111.432 736.125 111.798C736.958 112.148 737.675 112.632 738.275 113.248C738.875 113.848 739.341 114.557 739.675 115.373C740.008 116.173 740.175 117.032 740.175 117.948V117.998C740.175 118.915 740 119.782 739.65 120.598C739.316 121.415 738.85 122.132 738.25 122.748C737.65 123.365 736.933 123.857 736.1 124.223C735.266 124.573 734.366 124.748 733.4 124.748ZM733.45 123.023C734.15 123.023 734.791 122.89 735.375 122.623C735.958 122.357 736.458 121.998 736.875 121.548C737.291 121.098 737.616 120.573 737.85 119.973C738.083 119.373 738.2 118.732 738.2 118.048V117.998C738.2 117.298 738.075 116.648 737.825 116.048C737.591 115.432 737.258 114.898 736.825 114.448C736.391 113.982 735.883 113.615 735.3 113.348C734.716 113.082 734.083 112.948 733.4 112.948C732.7 112.948 732.058 113.082 731.475 113.348C730.891 113.615 730.391 113.973 729.975 114.423C729.575 114.873 729.258 115.407 729.025 116.023C728.791 116.623 728.675 117.265 728.675 117.948V117.998C728.675 118.698 728.791 119.357 729.025 119.973C729.275 120.573 729.608 121.098 730.025 121.548C730.458 121.998 730.966 122.357 731.55 122.623C732.133 122.89 732.766 123.023 733.45 123.023ZM748.262 124.723C747.662 124.723 747.07 124.64 746.487 124.473C745.92 124.307 745.403 124.057 744.937 123.723C744.487 123.373 744.12 122.948 743.837 122.448C743.57 121.948 743.437 121.365 743.437 120.698V120.648C743.437 119.965 743.57 119.365 743.837 118.848C744.103 118.332 744.478 117.898 744.962 117.548C745.462 117.198 746.045 116.932 746.712 116.748C747.395 116.565 748.145 116.473 748.962 116.473C749.795 116.473 750.52 116.523 751.137 116.623C751.753 116.723 752.353 116.857 752.937 117.023V116.573C752.937 115.407 752.595 114.532 751.912 113.948C751.245 113.348 750.303 113.048 749.087 113.048C748.32 113.048 747.62 113.14 746.987 113.323C746.37 113.49 745.762 113.715 745.162 113.998L744.587 112.423C745.303 112.09 746.028 111.832 746.762 111.648C747.495 111.448 748.337 111.348 749.287 111.348C751.12 111.348 752.512 111.823 753.462 112.773C754.345 113.657 754.787 114.915 754.787 116.548V124.448H752.937V122.498C752.487 123.082 751.878 123.598 751.112 124.048C750.362 124.498 749.412 124.723 748.262 124.723ZM748.637 123.198C749.237 123.198 749.795 123.115 750.312 122.948C750.845 122.765 751.303 122.523 751.687 122.223C752.087 121.907 752.395 121.54 752.612 121.123C752.845 120.69 752.962 120.215 752.962 119.698V118.448C752.478 118.315 751.92 118.19 751.287 118.073C750.67 117.957 749.962 117.898 749.162 117.898C747.945 117.898 747.012 118.14 746.362 118.623C745.712 119.107 745.387 119.757 745.387 120.573V120.623C745.387 121.023 745.47 121.39 745.637 121.723C745.82 122.04 746.062 122.307 746.362 122.523C746.662 122.74 747.003 122.907 747.387 123.023C747.787 123.14 748.203 123.198 748.637 123.198ZM765.064 124.723C764.281 124.723 763.523 124.573 762.789 124.273C762.056 123.973 761.398 123.54 760.814 122.973C760.231 122.39 759.764 121.69 759.414 120.873C759.064 120.04 758.889 119.09 758.889 118.023V117.973C758.889 116.923 759.064 115.982 759.414 115.148C759.764 114.315 760.231 113.615 760.814 113.048C761.398 112.465 762.056 112.023 762.789 111.723C763.523 111.407 764.281 111.248 765.064 111.248C765.664 111.248 766.214 111.323 766.714 111.473C767.214 111.623 767.664 111.823 768.064 112.073C768.464 112.323 768.823 112.615 769.139 112.948C769.473 113.282 769.764 113.632 770.014 113.998V106.198H771.939V124.448H770.014V121.848C769.748 122.232 769.448 122.598 769.114 122.948C768.798 123.298 768.439 123.607 768.039 123.873C767.639 124.14 767.189 124.348 766.689 124.498C766.206 124.648 765.664 124.723 765.064 124.723ZM765.414 122.998C766.014 122.998 766.589 122.882 767.139 122.648C767.706 122.398 768.206 122.057 768.639 121.623C769.089 121.173 769.439 120.648 769.689 120.048C769.956 119.432 770.089 118.748 770.089 117.998V117.948C770.089 117.198 769.956 116.523 769.689 115.923C769.439 115.307 769.089 114.782 768.639 114.348C768.206 113.915 767.706 113.582 767.139 113.348C766.589 113.098 766.014 112.973 765.414 112.973C764.781 112.973 764.189 113.09 763.639 113.323C763.089 113.54 762.606 113.865 762.189 114.298C761.789 114.715 761.464 115.232 761.214 115.848C760.981 116.465 760.864 117.165 760.864 117.948V117.998C760.864 118.765 760.989 119.457 761.239 120.073C761.489 120.69 761.823 121.215 762.239 121.648C762.656 122.082 763.139 122.415 763.689 122.648C764.239 122.882 764.814 122.998 765.414 122.998ZM775.991 126.623C776.624 126.39 777.074 126.098 777.341 125.748C777.607 125.415 777.716 124.982 777.666 124.448H776.766V121.823H779.066V124.073C779.066 125.09 778.841 125.857 778.391 126.373C777.941 126.907 777.241 127.282 776.291 127.498L775.991 126.623ZM564.201 149.698C562.801 149.698 561.518 149.473 560.351 149.023C559.201 148.557 558.101 147.848 557.051 146.898L558.276 145.448C559.193 146.282 560.118 146.907 561.051 147.323C561.984 147.723 563.059 147.923 564.276 147.923C565.459 147.923 566.401 147.648 567.101 147.098C567.818 146.532 568.176 145.815 568.176 144.948V144.898C568.176 144.498 568.109 144.14 567.976 143.823C567.843 143.49 567.609 143.19 567.276 142.923C566.943 142.657 566.476 142.415 565.876 142.198C565.293 141.982 564.543 141.773 563.626 141.573C562.626 141.357 561.751 141.107 561.001 140.823C560.268 140.54 559.659 140.198 559.176 139.798C558.693 139.398 558.334 138.932 558.101 138.398C557.868 137.865 557.751 137.24 557.751 136.523V136.473C557.751 135.79 557.893 135.157 558.176 134.573C558.459 133.99 558.859 133.49 559.376 133.073C559.893 132.64 560.501 132.307 561.201 132.073C561.901 131.823 562.668 131.698 563.501 131.698C564.784 131.698 565.901 131.882 566.851 132.248C567.818 132.598 568.751 133.132 569.651 133.848L568.501 135.373C567.684 134.707 566.859 134.223 566.026 133.923C565.209 133.623 564.351 133.473 563.451 133.473C562.301 133.473 561.393 133.748 560.726 134.298C560.059 134.832 559.726 135.498 559.726 136.298V136.348C559.726 136.765 559.793 137.14 559.926 137.473C560.059 137.79 560.301 138.09 560.651 138.373C561.001 138.64 561.484 138.89 562.101 139.123C562.718 139.34 563.509 139.548 564.476 139.748C566.426 140.182 567.859 140.782 568.776 141.548C569.709 142.315 570.176 143.365 570.176 144.698V144.748C570.176 145.498 570.026 146.182 569.726 146.798C569.426 147.398 569.009 147.915 568.476 148.348C567.959 148.782 567.334 149.115 566.601 149.348C565.868 149.582 565.068 149.698 564.201 149.698ZM574.792 136.523H576.717V149.448H574.792V136.523ZM574.667 131.823H576.867V133.948H574.667V131.823ZM581.935 136.523H583.86V138.773C584.293 138.073 584.86 137.482 585.56 136.998C586.26 136.498 587.168 136.248 588.285 136.248C589.068 136.248 589.76 136.373 590.36 136.623C590.976 136.873 591.493 137.232 591.91 137.698C592.343 138.148 592.668 138.69 592.885 139.323C593.118 139.957 593.235 140.657 593.235 141.423V149.448H591.31V141.898C591.31 140.698 591.001 139.748 590.385 139.048C589.768 138.348 588.885 137.998 587.735 137.998C587.185 137.998 586.668 138.098 586.185 138.298C585.718 138.482 585.31 138.757 584.96 139.123C584.61 139.473 584.335 139.898 584.135 140.398C583.951 140.898 583.86 141.448 583.86 142.048V149.448H581.935V136.523ZM603.815 153.498C602.732 153.498 601.698 153.348 600.715 153.048C599.732 152.748 598.807 152.298 597.94 151.698L598.815 150.198C599.565 150.732 600.348 151.14 601.165 151.423C601.982 151.707 602.857 151.848 603.79 151.848C605.223 151.848 606.365 151.457 607.215 150.673C608.065 149.907 608.49 148.765 608.49 147.248V145.723C607.923 146.473 607.232 147.115 606.415 147.648C605.598 148.182 604.598 148.448 603.415 148.448C602.632 148.448 601.873 148.307 601.14 148.023C600.423 147.74 599.782 147.34 599.215 146.823C598.648 146.29 598.19 145.657 597.84 144.923C597.507 144.173 597.34 143.332 597.34 142.398V142.348C597.34 141.398 597.507 140.548 597.84 139.798C598.19 139.048 598.648 138.415 599.215 137.898C599.782 137.365 600.432 136.957 601.165 136.673C601.898 136.39 602.648 136.248 603.415 136.248C604.015 136.248 604.565 136.323 605.065 136.473C605.582 136.607 606.04 136.79 606.44 137.023C606.857 137.257 607.232 137.532 607.565 137.848C607.898 138.165 608.198 138.498 608.465 138.848V136.523H610.39V147.198C610.39 148.198 610.248 149.073 609.965 149.823C609.682 150.59 609.273 151.24 608.74 151.773C608.157 152.357 607.448 152.79 606.615 153.073C605.782 153.357 604.848 153.498 603.815 153.498ZM603.79 146.748C604.407 146.748 604.998 146.648 605.565 146.448C606.132 146.232 606.632 145.932 607.065 145.548C607.515 145.148 607.873 144.682 608.14 144.148C608.407 143.615 608.54 143.023 608.54 142.373V142.323C608.54 141.657 608.407 141.057 608.14 140.523C607.873 139.99 607.515 139.532 607.065 139.148C606.632 138.765 606.132 138.473 605.565 138.273C604.998 138.057 604.407 137.948 603.79 137.948C603.173 137.948 602.59 138.057 602.04 138.273C601.507 138.473 601.032 138.765 600.615 139.148C600.215 139.515 599.898 139.965 599.665 140.498C599.432 141.032 599.315 141.632 599.315 142.298V142.348C599.315 142.998 599.432 143.598 599.665 144.148C599.915 144.682 600.24 145.14 600.64 145.523C601.057 145.907 601.532 146.207 602.065 146.423C602.615 146.64 603.19 146.748 603.79 146.748ZM619.292 149.723C618.692 149.723 618.1 149.64 617.517 149.473C616.95 149.307 616.433 149.057 615.967 148.723C615.517 148.373 615.15 147.948 614.867 147.448C614.6 146.948 614.467 146.365 614.467 145.698V145.648C614.467 144.965 614.6 144.365 614.867 143.848C615.133 143.332 615.508 142.898 615.992 142.548C616.492 142.198 617.075 141.932 617.742 141.748C618.425 141.565 619.175 141.473 619.992 141.473C620.825 141.473 621.55 141.523 622.167 141.623C622.783 141.723 623.383 141.857 623.967 142.023V141.573C623.967 140.407 623.625 139.532 622.942 138.948C622.275 138.348 621.333 138.048 620.117 138.048C619.35 138.048 618.65 138.14 618.017 138.323C617.4 138.49 616.792 138.715 616.192 138.998L615.617 137.423C616.333 137.09 617.058 136.832 617.792 136.648C618.525 136.448 619.367 136.348 620.317 136.348C622.15 136.348 623.542 136.823 624.492 137.773C625.375 138.657 625.817 139.915 625.817 141.548V149.448H623.967V147.498C623.517 148.082 622.908 148.598 622.142 149.048C621.392 149.498 620.442 149.723 619.292 149.723ZM619.667 148.198C620.267 148.198 620.825 148.115 621.342 147.948C621.875 147.765 622.333 147.523 622.717 147.223C623.117 146.907 623.425 146.54 623.642 146.123C623.875 145.69 623.992 145.215 623.992 144.698V143.448C623.508 143.315 622.95 143.19 622.317 143.073C621.7 142.957 620.992 142.898 620.192 142.898C618.975 142.898 618.042 143.14 617.392 143.623C616.742 144.107 616.417 144.757 616.417 145.573V145.623C616.417 146.023 616.5 146.39 616.667 146.723C616.85 147.04 617.092 147.307 617.392 147.523C617.692 147.74 618.033 147.907 618.417 148.023C618.817 148.14 619.233 148.198 619.667 148.198ZM630.669 136.523H632.594V139.123C632.861 138.74 633.152 138.373 633.469 138.023C633.802 137.673 634.169 137.373 634.569 137.123C634.969 136.857 635.411 136.648 635.894 136.498C636.394 136.332 636.944 136.248 637.544 136.248C638.311 136.248 639.061 136.398 639.794 136.698C640.544 136.998 641.211 137.44 641.794 138.023C642.377 138.59 642.844 139.29 643.194 140.123C643.544 140.94 643.719 141.882 643.719 142.948V142.998C643.719 144.048 643.544 144.99 643.194 145.823C642.844 146.657 642.377 147.365 641.794 147.948C641.227 148.515 640.569 148.957 639.819 149.273C639.086 149.573 638.327 149.723 637.544 149.723C636.944 149.723 636.394 149.648 635.894 149.498C635.394 149.348 634.944 149.148 634.544 148.898C634.144 148.648 633.777 148.357 633.444 148.023C633.127 147.69 632.844 147.34 632.594 146.973V153.448H630.669V136.523ZM637.194 147.998C637.811 147.998 638.394 147.89 638.944 147.673C639.511 147.44 639.994 147.115 640.394 146.698C640.811 146.265 641.136 145.74 641.369 145.123C641.619 144.507 641.744 143.807 641.744 143.023V142.973C641.744 142.207 641.619 141.515 641.369 140.898C641.136 140.282 640.811 139.757 640.394 139.323C639.977 138.89 639.494 138.557 638.944 138.323C638.394 138.09 637.811 137.973 637.194 137.973C636.594 137.973 636.011 138.098 635.444 138.348C634.894 138.582 634.394 138.923 633.944 139.373C633.511 139.807 633.161 140.332 632.894 140.948C632.644 141.548 632.519 142.215 632.519 142.948V142.998C632.519 143.748 632.644 144.432 632.894 145.048C633.161 145.665 633.511 146.19 633.944 146.623C634.394 147.057 634.894 147.398 635.444 147.648C636.011 147.882 636.594 147.998 637.194 147.998ZM653.921 149.748C652.954 149.748 652.062 149.573 651.246 149.223C650.429 148.857 649.721 148.373 649.121 147.773C648.521 147.157 648.054 146.448 647.721 145.648C647.387 144.832 647.221 143.965 647.221 143.048V142.998C647.221 142.082 647.387 141.215 647.721 140.398C648.054 139.582 648.521 138.865 649.121 138.248C649.721 137.632 650.429 137.148 651.246 136.798C652.079 136.432 652.987 136.248 653.971 136.248C654.937 136.248 655.829 136.432 656.646 136.798C657.479 137.148 658.196 137.632 658.796 138.248C659.396 138.848 659.862 139.557 660.196 140.373C660.529 141.173 660.696 142.032 660.696 142.948V142.998C660.696 143.915 660.521 144.782 660.171 145.598C659.837 146.415 659.371 147.132 658.771 147.748C658.171 148.365 657.454 148.857 656.621 149.223C655.787 149.573 654.887 149.748 653.921 149.748ZM653.971 148.023C654.671 148.023 655.312 147.89 655.896 147.623C656.479 147.357 656.979 146.998 657.396 146.548C657.812 146.098 658.137 145.573 658.371 144.973C658.604 144.373 658.721 143.732 658.721 143.048V142.998C658.721 142.298 658.596 141.648 658.346 141.048C658.112 140.432 657.779 139.898 657.346 139.448C656.912 138.982 656.404 138.615 655.821 138.348C655.237 138.082 654.604 137.948 653.921 137.948C653.221 137.948 652.579 138.082 651.996 138.348C651.412 138.615 650.912 138.973 650.496 139.423C650.096 139.873 649.779 140.407 649.546 141.023C649.312 141.623 649.196 142.265 649.196 142.948V142.998C649.196 143.698 649.312 144.357 649.546 144.973C649.796 145.573 650.129 146.098 650.546 146.548C650.979 146.998 651.487 147.357 652.071 147.623C652.654 147.89 653.287 148.023 653.971 148.023ZM664.933 136.523H666.858V139.898C667.091 139.365 667.383 138.873 667.733 138.423C668.083 137.973 668.483 137.59 668.933 137.273C669.383 136.94 669.874 136.69 670.408 136.523C670.941 136.357 671.516 136.282 672.133 136.298V138.373H671.983C671.283 138.373 670.616 138.498 669.983 138.748C669.366 138.998 668.824 139.373 668.358 139.873C667.891 140.373 667.524 140.998 667.258 141.748C666.991 142.482 666.858 143.332 666.858 144.298V149.448H664.933V136.523ZM680.903 149.748C680.02 149.748 679.186 149.59 678.403 149.273C677.62 148.94 676.936 148.482 676.353 147.898C675.77 147.298 675.303 146.59 674.953 145.773C674.62 144.94 674.453 144.023 674.453 143.023V142.973C674.453 142.04 674.603 141.165 674.903 140.348C675.22 139.532 675.653 138.823 676.203 138.223C676.753 137.607 677.403 137.123 678.153 136.773C678.92 136.423 679.753 136.248 680.653 136.248C681.603 136.248 682.453 136.432 683.203 136.798C683.953 137.148 684.586 137.632 685.103 138.248C685.62 138.865 686.011 139.59 686.278 140.423C686.545 141.24 686.678 142.123 686.678 143.073C686.678 143.207 686.678 143.315 686.678 143.398C686.678 143.482 686.67 143.582 686.653 143.698H676.403C676.47 144.398 676.636 145.023 676.903 145.573C677.17 146.107 677.503 146.565 677.903 146.948C678.32 147.315 678.786 147.598 679.303 147.798C679.82 147.982 680.37 148.073 680.953 148.073C681.853 148.073 682.62 147.907 683.253 147.573C683.903 147.24 684.495 146.798 685.028 146.248L686.228 147.323C685.578 148.057 684.836 148.648 684.003 149.098C683.17 149.532 682.136 149.748 680.903 149.748ZM684.728 142.273C684.678 141.69 684.553 141.132 684.353 140.598C684.17 140.065 683.903 139.598 683.553 139.198C683.22 138.798 682.803 138.482 682.303 138.248C681.82 137.998 681.253 137.873 680.603 137.873C680.036 137.873 679.511 137.99 679.028 138.223C678.545 138.44 678.12 138.748 677.753 139.148C677.386 139.532 677.086 139.99 676.853 140.523C676.62 141.057 676.47 141.64 676.403 142.273H684.728ZM689.554 151.623C690.187 151.39 690.637 151.098 690.904 150.748C691.17 150.415 691.279 149.982 691.229 149.448H690.329V146.823H692.629V149.073C692.629 150.09 692.404 150.857 691.954 151.373C691.504 151.907 690.804 152.282 689.854 152.498L689.554 151.623ZM712.452 149.748C711.319 149.748 710.294 149.515 709.377 149.048C708.477 148.565 707.702 147.915 707.052 147.098C706.419 146.265 705.927 145.307 705.577 144.223C705.244 143.14 705.077 141.982 705.077 140.748V140.698C705.077 139.482 705.252 138.323 705.602 137.223C705.952 136.123 706.452 135.165 707.102 134.348C707.752 133.515 708.527 132.857 709.427 132.373C710.344 131.89 711.369 131.648 712.502 131.648C713.619 131.648 714.627 131.89 715.527 132.373C716.444 132.84 717.219 133.49 717.852 134.323C718.502 135.14 718.994 136.098 719.327 137.198C719.677 138.282 719.852 139.432 719.852 140.648V140.698C719.852 141.932 719.677 143.098 719.327 144.198C718.977 145.282 718.477 146.24 717.827 147.073C717.194 147.89 716.419 148.54 715.502 149.023C714.585 149.507 713.569 149.748 712.452 149.748ZM712.502 147.948C713.319 147.948 714.052 147.757 714.702 147.373C715.369 146.973 715.927 146.448 716.377 145.798C716.844 145.132 717.194 144.365 717.427 143.498C717.677 142.615 717.802 141.698 717.802 140.748V140.698C717.802 139.748 717.677 138.84 717.427 137.973C717.177 137.09 716.819 136.315 716.352 135.648C715.885 134.982 715.319 134.448 714.652 134.048C714.002 133.648 713.269 133.448 712.452 133.448C711.635 133.448 710.894 133.648 710.227 134.048C709.577 134.432 709.019 134.957 708.552 135.623C708.102 136.273 707.752 137.032 707.502 137.898C707.252 138.765 707.127 139.682 707.127 140.648V140.698C707.127 141.648 707.252 142.565 707.502 143.448C707.752 144.315 708.11 145.082 708.577 145.748C709.044 146.415 709.61 146.948 710.277 147.348C710.944 147.748 711.685 147.948 712.502 147.948ZM732.741 133.748H723.116V131.948H734.991V133.423L727.041 149.448H724.841L732.741 133.748ZM744.117 147.948C744.967 147.948 745.709 147.748 746.342 147.348C746.992 146.932 747.534 146.39 747.967 145.723C748.417 145.04 748.75 144.265 748.967 143.398C749.2 142.515 749.317 141.598 749.317 140.648V140.298C748.767 141.148 748.084 141.823 747.267 142.323C746.467 142.823 745.5 143.073 744.367 143.073C743.467 143.073 742.642 142.94 741.892 142.673C741.142 142.407 740.5 142.032 739.967 141.548C739.434 141.065 739.017 140.49 738.717 139.823C738.417 139.157 738.267 138.432 738.267 137.648V137.598C738.267 136.765 738.417 135.99 738.717 135.273C739.034 134.54 739.467 133.907 740.017 133.373C740.567 132.84 741.225 132.423 741.992 132.123C742.775 131.807 743.634 131.648 744.567 131.648C745.567 131.648 746.442 131.807 747.192 132.123C747.942 132.44 748.6 132.882 749.167 133.448C749.834 134.115 750.359 134.973 750.742 136.023C751.142 137.073 751.342 138.473 751.342 140.223V140.273C751.342 141.657 751.167 142.932 750.817 144.098C750.467 145.265 749.967 146.265 749.317 147.098C748.684 147.932 747.917 148.582 747.017 149.048C746.134 149.515 745.15 149.748 744.067 149.748C742.917 149.748 741.917 149.548 741.067 149.148C740.217 148.732 739.417 148.215 738.667 147.598L739.817 146.073C740.534 146.707 741.234 147.182 741.917 147.498C742.6 147.798 743.334 147.948 744.117 147.948ZM744.592 141.373C745.259 141.373 745.859 141.265 746.392 141.048C746.942 140.815 747.4 140.515 747.767 140.148C748.15 139.782 748.442 139.365 748.642 138.898C748.842 138.415 748.942 137.923 748.942 137.423V137.373C748.942 136.823 748.834 136.307 748.617 135.823C748.4 135.34 748.092 134.923 747.692 134.573C747.309 134.207 746.842 133.923 746.292 133.723C745.742 133.507 745.142 133.398 744.492 133.398C743.842 133.398 743.25 133.515 742.717 133.748C742.2 133.965 741.759 134.265 741.392 134.648C741.042 135.015 740.767 135.448 740.567 135.948C740.384 136.432 740.292 136.948 740.292 137.498V137.548C740.292 138.098 740.392 138.615 740.592 139.098C740.809 139.565 741.1 139.965 741.467 140.298C741.85 140.632 742.309 140.898 742.842 141.098C743.375 141.282 743.959 141.373 744.592 141.373ZM761.053 147.948C761.903 147.948 762.645 147.748 763.278 147.348C763.928 146.932 764.47 146.39 764.903 145.723C765.353 145.04 765.687 144.265 765.903 143.398C766.137 142.515 766.253 141.598 766.253 140.648V140.298C765.703 141.148 765.02 141.823 764.203 142.323C763.403 142.823 762.437 143.073 761.303 143.073C760.403 143.073 759.578 142.94 758.828 142.673C758.078 142.407 757.437 142.032 756.903 141.548C756.37 141.065 755.953 140.49 755.653 139.823C755.353 139.157 755.203 138.432 755.203 137.648V137.598C755.203 136.765 755.353 135.99 755.653 135.273C755.97 134.54 756.403 133.907 756.953 133.373C757.503 132.84 758.162 132.423 758.928 132.123C759.712 131.807 760.57 131.648 761.503 131.648C762.503 131.648 763.378 131.807 764.128 132.123C764.878 132.44 765.537 132.882 766.103 133.448C766.77 134.115 767.295 134.973 767.678 136.023C768.078 137.073 768.278 138.473 768.278 140.223V140.273C768.278 141.657 768.103 142.932 767.753 144.098C767.403 145.265 766.903 146.265 766.253 147.098C765.62 147.932 764.853 148.582 763.953 149.048C763.07 149.515 762.087 149.748 761.003 149.748C759.853 149.748 758.853 149.548 758.003 149.148C757.153 148.732 756.353 148.215 755.603 147.598L756.753 146.073C757.47 146.707 758.17 147.182 758.853 147.498C759.537 147.798 760.27 147.948 761.053 147.948ZM761.528 141.373C762.195 141.373 762.795 141.265 763.328 141.048C763.878 140.815 764.337 140.515 764.703 140.148C765.087 139.782 765.378 139.365 765.578 138.898C765.778 138.415 765.878 137.923 765.878 137.423V137.373C765.878 136.823 765.77 136.307 765.553 135.823C765.337 135.34 765.028 134.923 764.628 134.573C764.245 134.207 763.778 133.923 763.228 133.723C762.678 133.507 762.078 133.398 761.428 133.398C760.778 133.398 760.187 133.515 759.653 133.748C759.137 133.965 758.695 134.265 758.328 134.648C757.978 135.015 757.703 135.448 757.503 135.948C757.32 136.432 757.228 136.948 757.228 137.498V137.548C757.228 138.098 757.328 138.615 757.528 139.098C757.745 139.565 758.037 139.965 758.403 140.298C758.787 140.632 759.245 140.898 759.778 141.098C760.312 141.282 760.895 141.373 761.528 141.373ZM779.49 149.748C778.357 149.748 777.332 149.515 776.415 149.048C775.515 148.565 774.74 147.915 774.09 147.098C773.457 146.265 772.965 145.307 772.615 144.223C772.282 143.14 772.115 141.982 772.115 140.748V140.698C772.115 139.482 772.29 138.323 772.64 137.223C772.99 136.123 773.49 135.165 774.14 134.348C774.79 133.515 775.565 132.857 776.465 132.373C777.382 131.89 778.407 131.648 779.54 131.648C780.657 131.648 781.665 131.89 782.565 132.373C783.482 132.84 784.257 133.49 784.89 134.323C785.54 135.14 786.032 136.098 786.365 137.198C786.715 138.282 786.89 139.432 786.89 140.648V140.698C786.89 141.932 786.715 143.098 786.365 144.198C786.015 145.282 785.515 146.24 784.865 147.073C784.232 147.89 783.457 148.54 782.54 149.023C781.623 149.507 780.607 149.748 779.49 149.748ZM779.54 147.948C780.357 147.948 781.09 147.757 781.74 147.373C782.407 146.973 782.965 146.448 783.415 145.798C783.882 145.132 784.232 144.365 784.465 143.498C784.715 142.615 784.84 141.698 784.84 140.748V140.698C784.84 139.748 784.715 138.84 784.465 137.973C784.215 137.09 783.857 136.315 783.39 135.648C782.923 134.982 782.357 134.448 781.69 134.048C781.04 133.648 780.307 133.448 779.49 133.448C778.673 133.448 777.932 133.648 777.265 134.048C776.615 134.432 776.057 134.957 775.59 135.623C775.14 136.273 774.79 137.032 774.54 137.898C774.29 138.765 774.165 139.682 774.165 140.648V140.698C774.165 141.648 774.29 142.565 774.54 143.448C774.79 144.315 775.148 145.082 775.615 145.748C776.082 146.415 776.648 146.948 777.315 147.348C777.982 147.748 778.723 147.948 779.54 147.948ZM796.717 149.748C795.25 149.748 793.975 149.465 792.892 148.898C791.809 148.315 790.909 147.557 790.192 146.623L791.642 145.348C792.309 146.182 793.05 146.823 793.867 147.273C794.7 147.723 795.659 147.948 796.742 147.948C797.275 147.948 797.775 147.873 798.242 147.723C798.709 147.557 799.109 147.323 799.442 147.023C799.792 146.723 800.067 146.365 800.267 145.948C800.467 145.532 800.567 145.065 800.567 144.548V144.498C800.567 143.948 800.442 143.465 800.192 143.048C799.959 142.632 799.625 142.282 799.192 141.998C798.759 141.715 798.242 141.498 797.642 141.348C797.042 141.198 796.384 141.123 795.667 141.123H794.542L794.142 139.948L799.667 133.723H791.117V131.948H802.292V133.398L796.792 139.498C797.559 139.565 798.284 139.707 798.967 139.923C799.667 140.14 800.284 140.448 800.817 140.848C801.35 141.248 801.775 141.748 802.092 142.348C802.409 142.932 802.567 143.623 802.567 144.423V144.473C802.567 145.257 802.409 145.973 802.092 146.623C801.792 147.273 801.375 147.832 800.842 148.298C800.325 148.748 799.709 149.107 798.992 149.373C798.292 149.623 797.534 149.748 796.717 149.748Z" fill="white"/>
<path opacity="0.2" d="M849.5 154.448V35.4482" stroke="url(#paint2_linear_505_4340)"/>
<g clip-path="url(#clip3_505_4340)">
<path d="M989.836 58.7427C989.631 58.0916 989.223 57.5236 988.67 57.1227C988.118 56.7218 987.451 56.5094 986.769 56.5167H982.4L981.073 52.3807C980.864 51.7296 980.454 51.1617 979.902 50.7588C979.349 50.3558 978.683 50.1387 978 50.1387C977.316 50.1387 976.65 50.3558 976.098 50.7588C975.546 51.1617 975.135 51.7296 974.927 52.3807L973.6 56.5167H969.231C968.551 56.5177 967.888 56.7336 967.338 57.1336C966.788 57.5336 966.378 58.0973 966.167 58.7441C965.956 59.3909 965.955 60.0877 966.164 60.7351C966.373 61.3824 966.782 61.9472 967.331 62.3487L970.887 64.9487L969.535 69.1357C969.316 69.7851 969.314 70.4877 969.527 71.1388C969.74 71.7899 970.158 72.3546 970.719 72.7487C971.27 73.1555 971.937 73.3734 972.622 73.37C973.307 73.3665 973.972 73.142 974.519 72.7297L978 70.1677L981.482 72.7267C982.032 73.1311 982.696 73.3508 983.378 73.3541C984.061 73.3575 984.727 73.1443 985.281 72.7452C985.834 72.3461 986.247 71.7817 986.46 71.1332C986.673 70.4846 986.675 69.7853 986.465 69.1357L985.113 64.9487L988.673 62.3487C989.228 61.9522 989.641 61.3875 989.851 60.738C990.06 60.0886 990.055 59.3889 989.836 58.7427ZM987.493 60.7337L983.349 63.7627C983.179 63.8869 983.052 64.0616 982.987 64.262C982.922 64.4624 982.922 64.6782 982.987 64.8787L984.562 69.7487C984.641 69.9957 984.641 70.2616 984.56 70.5082C984.479 70.7548 984.322 70.9694 984.111 71.1211C983.901 71.2728 983.647 71.3538 983.388 71.3524C983.128 71.3511 982.876 71.2675 982.667 71.1137L978.592 68.1137C978.42 67.9876 978.213 67.9196 978 67.9196C977.787 67.9196 977.579 67.9876 977.408 68.1137L973.333 71.1137C973.124 71.2696 972.871 71.3549 972.61 71.3573C972.349 71.3597 972.095 71.2789 971.883 71.1268C971.671 70.9747 971.514 70.7592 971.433 70.5114C971.352 70.2636 971.352 69.9964 971.433 69.7487L973.013 64.8787C973.078 64.6782 973.078 64.4624 973.013 64.262C972.948 64.0616 972.821 63.8869 972.651 63.7627L968.507 60.7337C968.298 60.5809 968.143 60.366 968.064 60.1198C967.984 59.8736 967.985 59.6087 968.065 59.3628C968.146 59.1169 968.302 58.9027 968.511 58.7507C968.72 58.5988 968.972 58.5169 969.231 58.5167H974.331C974.543 58.5167 974.749 58.4495 974.92 58.3248C975.091 58.2 975.218 58.0242 975.283 57.8227L976.833 52.9917C976.912 52.7445 977.068 52.5289 977.278 52.3759C977.488 52.223 977.741 52.1406 978.001 52.1406C978.26 52.1406 978.514 52.223 978.723 52.3759C978.933 52.5289 979.089 52.7445 979.169 52.9917L980.719 57.8227C980.784 58.0242 980.911 58.2 981.082 58.3248C981.253 58.4495 981.459 58.5167 981.671 58.5167H986.771C987.029 58.5169 987.281 58.5988 987.491 58.7507C987.7 58.9027 987.856 59.1169 987.936 59.3628C988.017 59.6087 988.017 59.8736 987.938 60.1198C987.859 60.366 987.703 60.5809 987.495 60.7337H987.493Z" fill="white"/>
</g>
<path d="M918.465 101.948H923.082C927.262 101.948 930.15 99.0412 930.15 95.2982V95.2602C930.15 91.5172 927.262 88.6482 923.082 88.6482H918.465V101.948ZM923.082 90.0352C926.445 90.0352 928.592 92.3532 928.592 95.2982V95.3362C928.592 98.2812 926.445 100.561 923.082 100.561H919.966V90.0352H923.082ZM933.327 101.948H934.828V96.7802H938.628L942.485 101.948H944.328L940.243 96.5142C942.333 96.1342 943.853 94.8422 943.853 92.6382V92.6002C943.853 91.5552 943.473 90.6242 942.827 89.9782C941.991 89.1422 940.68 88.6482 939.046 88.6482H933.327V101.948ZM934.828 95.4312V90.0352H938.932C941.079 90.0352 942.333 91.0232 942.333 92.6572V92.6952C942.333 94.4052 940.908 95.4312 938.913 95.4312H934.828ZM947.058 101.948H956.767V100.58H948.559V95.9252H955.817V94.5572H948.559V90.0162H956.672V88.6482H947.058V101.948ZM964.346 102.138C966.987 102.138 968.887 100.656 968.887 98.3762V98.3382C968.887 96.3052 967.519 95.2222 964.555 94.5762C961.629 93.9492 960.945 93.2462 960.945 91.9922V91.9542C960.945 90.7572 962.047 89.8072 963.776 89.8072C965.144 89.8072 966.379 90.2442 967.614 91.2512L968.488 90.0922C967.139 89.0092 965.752 88.4582 963.814 88.4582C961.287 88.4582 959.444 89.9972 959.444 92.0872V92.1252C959.444 94.3102 960.85 95.2982 963.909 95.9632C966.702 96.5522 967.367 97.2552 967.367 98.4902V98.5282C967.367 99.8392 966.189 100.789 964.403 100.789C962.56 100.789 961.23 100.162 959.843 98.9082L958.912 100.01C960.508 101.435 962.237 102.138 964.346 102.138ZM976.314 102.138C978.955 102.138 980.855 100.656 980.855 98.3762V98.3382C980.855 96.3052 979.487 95.2222 976.523 94.5762C973.597 93.9492 972.913 93.2462 972.913 91.9922V91.9542C972.913 90.7572 974.015 89.8072 975.744 89.8072C977.112 89.8072 978.347 90.2442 979.582 91.2512L980.456 90.0922C979.107 89.0092 977.72 88.4582 975.782 88.4582C973.255 88.4582 971.412 89.9972 971.412 92.0872V92.1252C971.412 94.3102 972.818 95.2982 975.877 95.9632C978.67 96.5522 979.335 97.2552 979.335 98.4902V98.5282C979.335 99.8392 978.157 100.789 976.371 100.789C974.528 100.789 973.198 100.162 971.811 98.9082L970.88 100.01C972.476 101.435 974.205 102.138 976.314 102.138ZM989.987 102.176C992.4 102.176 993.92 101.245 995.307 99.8392L994.319 98.8702C993.046 100.086 991.849 100.789 990.025 100.789C987.099 100.789 984.876 98.3762 984.876 95.2982V95.2602C984.876 92.2012 987.08 89.8072 990.025 89.8072C991.83 89.8072 993.084 90.5672 994.205 91.6312L995.231 90.5292C993.901 89.2752 992.457 88.4202 990.044 88.4202C986.13 88.4202 983.318 91.5362 983.318 95.2982V95.3362C983.318 99.1552 986.149 102.176 989.987 102.176ZM1003.74 102.176C1007.79 102.176 1010.54 98.9652 1010.54 95.2982V95.2602C1010.54 91.5932 1007.82 88.4202 1003.78 88.4202C999.73 88.4202 996.975 91.6312 996.975 95.2982V95.3362C996.975 99.0032 999.692 102.176 1003.74 102.176ZM1003.78 100.789C1000.74 100.789 998.533 98.3192 998.533 95.2982V95.2602C998.533 92.2392 1000.7 89.8072 1003.74 89.8072C1006.78 89.8072 1008.98 92.2772 1008.98 95.2982V95.3362C1008.98 98.3572 1006.82 100.789 1003.78 100.789ZM1013.71 101.948H1018.32C1022.5 101.948 1025.39 99.0412 1025.39 95.2982V95.2602C1025.39 91.5172 1022.5 88.6482 1018.32 88.6482H1013.71V101.948ZM1018.32 90.0352C1021.69 90.0352 1023.83 92.3532 1023.83 95.2982V95.3362C1023.83 98.2812 1021.69 100.561 1018.32 100.561H1015.21V90.0352H1018.32ZM1028.57 101.948H1038.28V100.58H1030.07V95.9252H1037.33V94.5572H1030.07V90.0162H1038.18V88.6482H1028.57V101.948ZM903.036 134.198C901.703 134.198 900.395 133.973 899.111 133.523C897.828 133.057 896.661 132.348 895.611 131.398L897.886 128.673C898.686 129.323 899.503 129.84 900.336 130.223C901.186 130.607 902.111 130.798 903.111 130.798C903.911 130.798 904.528 130.657 904.961 130.373C905.411 130.073 905.636 129.665 905.636 129.148V129.098C905.636 128.848 905.586 128.632 905.486 128.448C905.403 128.248 905.228 128.065 904.961 127.898C904.711 127.732 904.353 127.565 903.886 127.398C903.436 127.232 902.845 127.057 902.111 126.873C901.228 126.657 900.428 126.415 899.711 126.148C898.995 125.882 898.386 125.557 897.886 125.173C897.386 124.773 896.995 124.282 896.711 123.698C896.445 123.115 896.311 122.39 896.311 121.523V121.473C896.311 120.673 896.461 119.957 896.761 119.323C897.061 118.673 897.478 118.115 898.011 117.648C898.561 117.182 899.211 116.823 899.961 116.573C900.711 116.323 901.536 116.198 902.436 116.198C903.72 116.198 904.895 116.39 905.961 116.773C907.045 117.157 908.036 117.707 908.936 118.423L906.936 121.323C906.153 120.79 905.386 120.373 904.636 120.073C903.886 119.757 903.136 119.598 902.386 119.598C901.636 119.598 901.07 119.748 900.686 120.048C900.32 120.332 900.136 120.69 900.136 121.123V121.173C900.136 121.457 900.186 121.707 900.286 121.923C900.403 122.123 900.603 122.307 900.886 122.473C901.17 122.64 901.553 122.798 902.036 122.948C902.536 123.098 903.161 123.273 903.911 123.473C904.795 123.707 905.578 123.973 906.261 124.273C906.961 124.557 907.545 124.907 908.011 125.323C908.495 125.723 908.853 126.198 909.086 126.748C909.336 127.298 909.461 127.957 909.461 128.723V128.773C909.461 129.64 909.303 130.415 908.986 131.098C908.67 131.765 908.228 132.332 907.661 132.798C907.095 133.248 906.42 133.598 905.636 133.848C904.853 134.082 903.986 134.198 903.036 134.198ZM912.403 120.548H916.203V122.448C916.419 122.165 916.653 121.898 916.903 121.648C917.169 121.382 917.461 121.148 917.778 120.948C918.094 120.748 918.444 120.59 918.828 120.473C919.228 120.357 919.669 120.298 920.153 120.298C921.036 120.298 921.794 120.482 922.428 120.848C923.078 121.215 923.578 121.74 923.928 122.423C924.511 121.723 925.161 121.198 925.878 120.848C926.594 120.482 927.411 120.298 928.328 120.298C929.744 120.298 930.853 120.715 931.653 121.548C932.453 122.382 932.853 123.607 932.853 125.223V133.948H929.053V126.473C929.053 125.573 928.861 124.898 928.478 124.448C928.094 123.982 927.544 123.748 926.828 123.748C926.111 123.748 925.544 123.982 925.128 124.448C924.728 124.898 924.528 125.573 924.528 126.473V133.948H920.728V126.473C920.728 125.573 920.536 124.898 920.153 124.448C919.769 123.982 919.219 123.748 918.503 123.748C917.786 123.748 917.219 123.982 916.803 124.448C916.403 124.898 916.203 125.573 916.203 126.473V133.948H912.403V120.548ZM939.958 134.198C939.324 134.198 938.724 134.115 938.158 133.948C937.608 133.765 937.124 133.498 936.708 133.148C936.291 132.798 935.958 132.373 935.708 131.873C935.474 131.357 935.358 130.765 935.358 130.098V130.048C935.358 129.315 935.491 128.682 935.758 128.148C936.024 127.615 936.391 127.173 936.858 126.823C937.341 126.473 937.908 126.215 938.558 126.048C939.224 125.865 939.958 125.773 940.758 125.773C941.441 125.773 942.033 125.823 942.533 125.923C943.049 126.023 943.549 126.157 944.033 126.323V126.098C944.033 125.298 943.791 124.69 943.308 124.273C942.824 123.857 942.108 123.648 941.158 123.648C940.424 123.648 939.774 123.715 939.208 123.848C938.658 123.965 938.074 124.14 937.458 124.373L936.508 121.473C937.241 121.157 938.008 120.898 938.808 120.698C939.608 120.498 940.574 120.398 941.708 120.398C942.758 120.398 943.649 120.532 944.383 120.798C945.133 121.048 945.749 121.415 946.233 121.898C946.733 122.398 947.099 123.015 947.333 123.748C947.566 124.465 947.683 125.273 947.683 126.173V133.948H944.008V132.498C943.541 133.015 942.983 133.432 942.333 133.748C941.683 134.048 940.891 134.198 939.958 134.198ZM941.108 131.573C942.008 131.573 942.724 131.357 943.258 130.923C943.808 130.49 944.083 129.923 944.083 129.223V128.548C943.749 128.398 943.374 128.282 942.958 128.198C942.558 128.098 942.124 128.048 941.658 128.048C940.841 128.048 940.199 128.207 939.733 128.523C939.266 128.84 939.033 129.298 939.033 129.898V129.948C939.033 130.465 939.224 130.865 939.608 131.148C939.991 131.432 940.491 131.573 941.108 131.573ZM950.952 120.548H954.752V123.248C955.136 122.332 955.661 121.598 956.327 121.048C956.994 120.498 957.894 120.248 959.027 120.298V124.273H958.827C957.561 124.273 956.561 124.657 955.827 125.423C955.111 126.19 954.752 127.382 954.752 128.998V133.948H950.952V120.548ZM965.927 134.173C965.343 134.173 964.81 134.107 964.327 133.973C963.86 133.857 963.452 133.64 963.102 133.323C962.768 133.007 962.502 132.598 962.302 132.098C962.118 131.582 962.027 130.932 962.027 130.148V123.798H960.427V120.548H962.027V117.123H965.827V120.548H968.977V123.798H965.827V129.523C965.827 130.39 966.235 130.823 967.052 130.823C967.718 130.823 968.343 130.665 968.927 130.348V133.398C968.527 133.632 968.085 133.815 967.602 133.948C967.118 134.098 966.56 134.173 965.927 134.173ZM987.873 134.248C986.589 134.248 985.398 134.015 984.298 133.548C983.198 133.082 982.248 132.448 981.448 131.648C980.648 130.832 980.023 129.873 979.573 128.773C979.123 127.673 978.898 126.498 978.898 125.248V125.198C978.898 123.948 979.123 122.782 979.573 121.698C980.023 120.598 980.648 119.64 981.448 118.823C982.248 117.99 983.206 117.34 984.323 116.873C985.439 116.39 986.673 116.148 988.023 116.148C988.839 116.148 989.581 116.215 990.248 116.348C990.931 116.482 991.548 116.665 992.098 116.898C992.648 117.132 993.156 117.415 993.623 117.748C994.089 118.082 994.523 118.448 994.923 118.848L992.473 121.673C991.789 121.057 991.089 120.573 990.373 120.223C989.673 119.873 988.881 119.698 987.998 119.698C987.264 119.698 986.581 119.84 985.948 120.123C985.331 120.407 984.798 120.798 984.348 121.298C983.898 121.798 983.548 122.382 983.298 123.048C983.048 123.698 982.923 124.398 982.923 125.148V125.198C982.923 125.948 983.048 126.657 983.298 127.323C983.548 127.99 983.889 128.573 984.323 129.073C984.773 129.573 985.306 129.973 985.923 130.273C986.556 130.557 987.248 130.698 987.998 130.698C988.998 130.698 989.839 130.515 990.523 130.148C991.223 129.782 991.914 129.282 992.598 128.648L995.048 131.123C994.598 131.607 994.131 132.04 993.648 132.423C993.164 132.807 992.631 133.14 992.048 133.423C991.481 133.69 990.856 133.89 990.173 134.023C989.489 134.173 988.723 134.248 987.873 134.248ZM1001.53 134.198C1000.9 134.198 1000.3 134.115 999.73 133.948C999.18 133.765 998.696 133.498 998.28 133.148C997.863 132.798 997.53 132.373 997.28 131.873C997.046 131.357 996.93 130.765 996.93 130.098V130.048C996.93 129.315 997.063 128.682 997.33 128.148C997.596 127.615 997.963 127.173 998.43 126.823C998.913 126.473 999.48 126.215 1000.13 126.048C1000.8 125.865 1001.53 125.773 1002.33 125.773C1003.01 125.773 1003.6 125.823 1004.1 125.923C1004.62 126.023 1005.12 126.157 1005.6 126.323V126.098C1005.6 125.298 1005.36 124.69 1004.88 124.273C1004.4 123.857 1003.68 123.648 1002.73 123.648C1002 123.648 1001.35 123.715 1000.78 123.848C1000.23 123.965 999.646 124.14 999.03 124.373L998.08 121.473C998.813 121.157 999.58 120.898 1000.38 120.698C1001.18 120.498 1002.15 120.398 1003.28 120.398C1004.33 120.398 1005.22 120.532 1005.95 120.798C1006.7 121.048 1007.32 121.415 1007.8 121.898C1008.3 122.398 1008.67 123.015 1008.9 123.748C1009.14 124.465 1009.25 125.273 1009.25 126.173V133.948H1005.58V132.498C1005.11 133.015 1004.55 133.432 1003.9 133.748C1003.25 134.048 1002.46 134.198 1001.53 134.198ZM1002.68 131.573C1003.58 131.573 1004.3 131.357 1004.83 130.923C1005.38 130.49 1005.65 129.923 1005.65 129.223V128.548C1005.32 128.398 1004.95 128.282 1004.53 128.198C1004.13 128.098 1003.7 128.048 1003.23 128.048C1002.41 128.048 1001.77 128.207 1001.3 128.523C1000.84 128.84 1000.6 129.298 1000.6 129.898V129.948C1000.6 130.465 1000.8 130.865 1001.18 131.148C1001.56 131.432 1002.06 131.573 1002.68 131.573ZM1017.22 134.198C1016.27 134.198 1015.3 134.04 1014.3 133.723C1013.32 133.39 1012.37 132.873 1011.47 132.173L1013.1 129.673C1013.83 130.207 1014.56 130.607 1015.27 130.873C1016.01 131.14 1016.69 131.273 1017.32 131.273C1017.87 131.273 1018.27 131.182 1018.52 130.998C1018.79 130.815 1018.92 130.573 1018.92 130.273V130.223C1018.92 130.023 1018.85 129.848 1018.7 129.698C1018.55 129.548 1018.34 129.423 1018.07 129.323C1017.82 129.207 1017.53 129.098 1017.2 128.998C1016.87 128.898 1016.52 128.79 1016.15 128.673C1015.68 128.54 1015.21 128.382 1014.72 128.198C1014.26 127.998 1013.83 127.748 1013.45 127.448C1013.07 127.132 1012.75 126.748 1012.5 126.298C1012.27 125.848 1012.15 125.298 1012.15 124.648V124.598C1012.15 123.915 1012.27 123.315 1012.52 122.798C1012.79 122.265 1013.14 121.815 1013.57 121.448C1014.02 121.082 1014.54 120.807 1015.12 120.623C1015.72 120.44 1016.37 120.348 1017.05 120.348C1017.9 120.348 1018.76 120.49 1019.62 120.773C1020.51 121.04 1021.32 121.415 1022.05 121.898L1020.6 124.523C1019.93 124.14 1019.28 123.84 1018.65 123.623C1018.02 123.39 1017.46 123.273 1016.97 123.273C1016.51 123.273 1016.16 123.365 1015.92 123.548C1015.69 123.715 1015.57 123.932 1015.57 124.198V124.248C1015.57 124.432 1015.65 124.598 1015.8 124.748C1015.95 124.882 1016.15 125.015 1016.4 125.148C1016.65 125.265 1016.93 125.382 1017.25 125.498C1017.58 125.615 1017.93 125.732 1018.3 125.848C1018.77 125.998 1019.24 126.182 1019.72 126.398C1020.21 126.598 1020.64 126.848 1021.02 127.148C1021.41 127.448 1021.72 127.815 1021.97 128.248C1022.22 128.682 1022.35 129.207 1022.35 129.823V129.873C1022.35 130.623 1022.22 131.273 1021.95 131.823C1021.7 132.357 1021.34 132.798 1020.87 133.148C1020.41 133.498 1019.86 133.765 1019.22 133.948C1018.61 134.115 1017.94 134.198 1017.22 134.198ZM1029.52 134.198C1028.07 134.198 1026.95 133.757 1026.15 132.873C1025.37 131.99 1024.97 130.773 1024.97 129.223V120.548H1028.77V128.023C1028.77 128.923 1028.97 129.607 1029.37 130.073C1029.77 130.523 1030.34 130.748 1031.07 130.748C1031.81 130.748 1032.38 130.523 1032.8 130.073C1033.23 129.607 1033.45 128.923 1033.45 128.023V120.548H1037.25V133.948H1033.45V132.048C1033.23 132.332 1032.99 132.607 1032.72 132.873C1032.47 133.123 1032.19 133.348 1031.87 133.548C1031.56 133.748 1031.21 133.907 1030.82 134.023C1030.44 134.14 1030.01 134.198 1029.52 134.198ZM1044.45 134.198C1043.82 134.198 1043.22 134.115 1042.65 133.948C1042.1 133.765 1041.62 133.498 1041.2 133.148C1040.78 132.798 1040.45 132.373 1040.2 131.873C1039.97 131.357 1039.85 130.765 1039.85 130.098V130.048C1039.85 129.315 1039.98 128.682 1040.25 128.148C1040.52 127.615 1040.88 127.173 1041.35 126.823C1041.83 126.473 1042.4 126.215 1043.05 126.048C1043.72 125.865 1044.45 125.773 1045.25 125.773C1045.93 125.773 1046.52 125.823 1047.02 125.923C1047.54 126.023 1048.04 126.157 1048.52 126.323V126.098C1048.52 125.298 1048.28 124.69 1047.8 124.273C1047.32 123.857 1046.6 123.648 1045.65 123.648C1044.92 123.648 1044.27 123.715 1043.7 123.848C1043.15 123.965 1042.57 124.14 1041.95 124.373L1041 121.473C1041.73 121.157 1042.5 120.898 1043.3 120.698C1044.1 120.498 1045.07 120.398 1046.2 120.398C1047.25 120.398 1048.14 120.532 1048.87 120.798C1049.62 121.048 1050.24 121.415 1050.72 121.898C1051.22 122.398 1051.59 123.015 1051.82 123.748C1052.06 124.465 1052.17 125.273 1052.17 126.173V133.948H1048.5V132.498C1048.03 133.015 1047.47 133.432 1046.82 133.748C1046.17 134.048 1045.38 134.198 1044.45 134.198ZM1045.6 131.573C1046.5 131.573 1047.22 131.357 1047.75 130.923C1048.3 130.49 1048.57 129.923 1048.57 129.223V128.548C1048.24 128.398 1047.87 128.282 1047.45 128.198C1047.05 128.098 1046.62 128.048 1046.15 128.048C1045.33 128.048 1044.69 128.207 1044.22 128.523C1043.76 128.84 1043.52 129.298 1043.52 129.898V129.948C1043.52 130.465 1043.72 130.865 1044.1 131.148C1044.48 131.432 1044.98 131.573 1045.6 131.573ZM1055.62 115.698H1059.42V133.948H1055.62V115.698Z" fill="white"/>
<defs>
<linearGradient id="paint0_linear_505_4340" x1="243.5" y1="94.9453" x2="244.5" y2="94.9453" gradientUnits="userSpaceOnUse">
<stop stop-color="#FAC47E"/>
<stop offset="1" stop-color="#A67F56"/>
</linearGradient>
<linearGradient id="paint1_linear_505_4340" x1="510.5" y1="94.9453" x2="511.5" y2="94.9453" gradientUnits="userSpaceOnUse">
<stop stop-color="#FAC47E"/>
<stop offset="1" stop-color="#A67F56"/>
</linearGradient>
<linearGradient id="paint2_linear_505_4340" x1="849.5" y1="94.9453" x2="850.5" y2="94.9453" gradientUnits="userSpaceOnUse">
<stop stop-color="#FAC47E"/>
<stop offset="1" stop-color="#A67F56"/>
</linearGradient>
<clipPath id="clip0_505_4340">
<rect width="24" height="24" fill="white" transform="translate(105 47.9482)"/>
</clipPath>
<clipPath id="clip1_505_4340">
<rect width="24" height="24" fill="white" transform="translate(365 63.9482)"/>
</clipPath>
<clipPath id="clip2_505_4340">
<rect width="24" height="24" fill="white" transform="translate(668 35.4482)"/>
</clipPath>
<clipPath id="clip3_505_4340">
<rect width="24" height="24" fill="white" transform="translate(966 49.9482)"/>
</clipPath>
</defs>
</svg>
