<svg width="285" height="539" viewBox="0 0 285 539" fill="none" xmlns="http://www.w3.org/2000/svg">
<rect width="285" height="539" rx="26" fill="#E8A560" fill-opacity="0.1"/>
<g clip-path="url(#clip0_515_4647)">
<path d="M149.5 37H148.5V36C148.5 35.7348 148.395 35.4804 148.207 35.2929C148.02 35.1054 147.765 35 147.5 35C147.235 35 146.98 35.1054 146.793 35.2929C146.605 35.4804 146.5 35.7348 146.5 36V37H138.5V36C138.5 35.7348 138.395 35.4804 138.207 35.2929C138.02 35.1054 137.765 35 137.5 35C137.235 35 136.98 35.1054 136.793 35.2929C136.605 35.4804 136.5 35.7348 136.5 36V37H135.5C134.174 37.0016 132.904 37.5289 131.966 38.4662C131.029 39.4036 130.502 40.6744 130.5 42V54C130.502 55.3256 131.029 56.5964 131.966 57.5338C132.904 58.4711 134.174 58.9984 135.5 59H149.5C150.826 58.9984 152.096 58.4711 153.034 57.5338C153.971 56.5964 154.498 55.3256 154.5 54V42C154.498 40.6744 153.971 39.4036 153.034 38.4662C152.096 37.5289 150.826 37.0016 149.5 37ZM132.5 42C132.5 41.2044 132.816 40.4413 133.379 39.8787C133.941 39.3161 134.704 39 135.5 39H149.5C150.296 39 151.059 39.3161 151.621 39.8787C152.184 40.4413 152.5 41.2044 152.5 42V43H132.5V42ZM149.5 57H135.5C134.704 57 133.941 56.6839 133.379 56.1213C132.816 55.5587 132.5 54.7956 132.5 54V45H152.5V54C152.5 54.7956 152.184 55.5587 151.621 56.1213C151.059 56.6839 150.296 57 149.5 57Z" fill="white"/>
<path d="M142.5 51.5C143.328 51.5 144 50.8284 144 50C144 49.1716 143.328 48.5 142.5 48.5C141.672 48.5 141 49.1716 141 50C141 50.8284 141.672 51.5 142.5 51.5Z" fill="white"/>
<path d="M137.5 51.5C138.328 51.5 139 50.8284 139 50C139 49.1716 138.328 48.5 137.5 48.5C136.671 48.5 136 49.1716 136 50C136 50.8284 136.671 51.5 137.5 51.5Z" fill="white"/>
<path d="M147.5 51.5C148.329 51.5 149 50.8284 149 50C149 49.1716 148.329 48.5 147.5 48.5C146.672 48.5 146 49.1716 146 50C146 50.8284 146.672 51.5 147.5 51.5Z" fill="white"/>
</g>
<path d="M118.465 73.5H126.46V75.6H120.775V77.835H125.785V79.935H120.775V84H118.465V73.5ZM128.519 75.96H130.799V77.58C131.029 77.03 131.344 76.59 131.744 76.26C132.144 75.93 132.684 75.78 133.364 75.81V78.195H133.244C132.484 78.195 131.884 78.425 131.444 78.885C131.014 79.345 130.799 80.06 130.799 81.03V84H128.519V75.96ZM135.283 72.75H137.683V74.775H135.283V72.75ZM135.343 75.96H137.623V84H135.343V75.96ZM143.515 84.15C143.045 84.15 142.59 84.06 142.15 83.88C141.71 83.7 141.32 83.435 140.98 83.085C140.64 82.725 140.365 82.29 140.155 81.78C139.955 81.26 139.855 80.665 139.855 79.995V79.965C139.855 79.295 139.955 78.705 140.155 78.195C140.365 77.675 140.635 77.24 140.965 76.89C141.305 76.53 141.695 76.26 142.135 76.08C142.575 75.9 143.035 75.81 143.515 75.81C144.125 75.81 144.625 75.93 145.015 76.17C145.415 76.41 145.75 76.69 146.02 77.01V73.05H148.3V84H146.02V82.845C145.74 83.225 145.4 83.54 145 83.79C144.61 84.03 144.115 84.15 143.515 84.15ZM144.1 82.215C144.37 82.215 144.62 82.165 144.85 82.065C145.09 81.955 145.295 81.805 145.465 81.615C145.645 81.415 145.785 81.18 145.885 80.91C145.995 80.63 146.05 80.325 146.05 79.995V79.965C146.05 79.635 145.995 79.335 145.885 79.065C145.785 78.785 145.645 78.55 145.465 78.36C145.295 78.16 145.09 78.01 144.85 77.91C144.62 77.8 144.37 77.745 144.1 77.745C143.83 77.745 143.575 77.8 143.335 77.91C143.105 78.01 142.9 78.16 142.72 78.36C142.54 78.55 142.395 78.78 142.285 79.05C142.185 79.32 142.135 79.625 142.135 79.965V79.995C142.135 80.325 142.185 80.63 142.285 80.91C142.395 81.18 142.54 81.415 142.72 81.615C142.9 81.805 143.105 81.955 143.335 82.065C143.575 82.165 143.83 82.215 144.1 82.215ZM153.067 84.15C152.687 84.15 152.327 84.1 151.987 84C151.657 83.89 151.367 83.73 151.117 83.52C150.867 83.31 150.667 83.055 150.517 82.755C150.377 82.445 150.307 82.09 150.307 81.69V81.66C150.307 81.22 150.387 80.84 150.547 80.52C150.707 80.2 150.927 79.935 151.207 79.725C151.497 79.515 151.837 79.36 152.227 79.26C152.627 79.15 153.067 79.095 153.547 79.095C153.957 79.095 154.312 79.125 154.612 79.185C154.922 79.245 155.222 79.325 155.512 79.425V79.29C155.512 78.81 155.367 78.445 155.077 78.195C154.787 77.945 154.357 77.82 153.787 77.82C153.347 77.82 152.957 77.86 152.617 77.94C152.287 78.01 151.937 78.115 151.567 78.255L150.997 76.515C151.437 76.325 151.897 76.17 152.377 76.05C152.857 75.93 153.437 75.87 154.117 75.87C154.747 75.87 155.282 75.95 155.722 76.11C156.172 76.26 156.542 76.48 156.832 76.77C157.132 77.07 157.352 77.44 157.492 77.88C157.632 78.31 157.702 78.795 157.702 79.335V84H155.497V83.13C155.217 83.44 154.882 83.69 154.492 83.88C154.102 84.06 153.627 84.15 153.067 84.15ZM153.757 82.575C154.297 82.575 154.727 82.445 155.047 82.185C155.377 81.925 155.542 81.585 155.542 81.165V80.76C155.342 80.67 155.117 80.6 154.867 80.55C154.627 80.49 154.367 80.46 154.087 80.46C153.597 80.46 153.212 80.555 152.932 80.745C152.652 80.935 152.512 81.21 152.512 81.57V81.6C152.512 81.91 152.627 82.15 152.857 82.32C153.087 82.49 153.387 82.575 153.757 82.575ZM165.101 75.96H167.471L164.381 84.195C164.231 84.605 164.071 84.95 163.901 85.23C163.731 85.52 163.541 85.755 163.331 85.935C163.131 86.115 162.901 86.245 162.641 86.325C162.381 86.405 162.081 86.445 161.741 86.445C161.321 86.445 160.951 86.395 160.631 86.295C160.311 86.195 160.006 86.06 159.716 85.89L160.481 84.24C160.631 84.33 160.791 84.405 160.961 84.465C161.141 84.525 161.306 84.555 161.456 84.555C161.656 84.555 161.811 84.515 161.921 84.435C162.041 84.365 162.151 84.23 162.251 84.03L159.101 75.96H161.516L163.346 81.435L165.101 75.96ZM94.5035 104.17L97.9985 101.305C98.3285 101.035 98.6085 100.795 98.8385 100.585C99.0685 100.365 99.2535 100.16 99.3935 99.97C99.5435 99.77 99.6485 99.58 99.7085 99.4C99.7785 99.21 99.8135 99.005 99.8135 98.785C99.8135 98.335 99.6835 97.995 99.4235 97.765C99.1635 97.535 98.8235 97.42 98.4035 97.42C97.9935 97.42 97.6285 97.535 97.3085 97.765C96.9985 97.995 96.6485 98.35 96.2585 98.83L94.6385 97.525C94.8985 97.175 95.1585 96.865 95.4185 96.595C95.6885 96.325 95.9735 96.1 96.2735 95.92C96.5835 95.73 96.9235 95.59 97.2935 95.5C97.6635 95.4 98.0835 95.35 98.5535 95.35C99.0935 95.35 99.5835 95.43 100.023 95.59C100.473 95.74 100.853 95.955 101.163 96.235C101.483 96.515 101.728 96.855 101.898 97.255C102.078 97.655 102.168 98.1 102.168 98.59V98.62C102.168 99.06 102.108 99.455 101.988 99.805C101.878 100.145 101.708 100.47 101.478 100.78C101.258 101.08 100.973 101.385 100.623 101.695C100.273 101.995 99.8685 102.325 99.4085 102.685L97.6985 104.005H102.273V106H94.5035V104.17ZM108.139 106.18C107.289 106.18 106.549 106.04 105.919 105.76C105.289 105.48 104.719 105.095 104.209 104.605L105.604 102.94C106.004 103.3 106.404 103.58 106.804 103.78C107.204 103.98 107.639 104.08 108.109 104.08C108.649 104.08 109.074 103.955 109.384 103.705C109.704 103.455 109.864 103.095 109.864 102.625V102.595C109.864 102.145 109.689 101.795 109.339 101.545C108.999 101.295 108.554 101.17 108.004 101.17C107.674 101.17 107.359 101.21 107.059 101.29C106.769 101.36 106.499 101.45 106.249 101.56L104.914 100.675L105.214 95.5H111.664V97.525H107.194L107.074 99.34C107.284 99.29 107.494 99.25 107.704 99.22C107.914 99.18 108.164 99.16 108.454 99.16C108.964 99.16 109.439 99.225 109.879 99.355C110.329 99.485 110.719 99.685 111.049 99.955C111.389 100.225 111.654 100.575 111.844 101.005C112.034 101.425 112.129 101.93 112.129 102.52V102.55C112.129 103.11 112.034 103.615 111.844 104.065C111.654 104.505 111.384 104.885 111.034 105.205C110.694 105.515 110.274 105.755 109.774 105.925C109.284 106.095 108.739 106.18 108.139 106.18ZM119.394 94.03H121.329L114.684 107.92H112.749L119.394 94.03ZM126.506 106.18C125.806 106.18 125.166 106.045 124.586 105.775C124.016 105.495 123.526 105.115 123.116 104.635C122.716 104.145 122.406 103.57 122.186 102.91C121.966 102.25 121.856 101.54 121.856 100.78V100.75C121.856 99.99 121.966 99.28 122.186 98.62C122.416 97.96 122.736 97.385 123.146 96.895C123.556 96.405 124.046 96.02 124.616 95.74C125.196 95.46 125.836 95.32 126.536 95.32C127.226 95.32 127.856 95.46 128.426 95.74C129.006 96.01 129.496 96.39 129.896 96.88C130.306 97.36 130.621 97.93 130.841 98.59C131.071 99.25 131.186 99.96 131.186 100.72V100.75C131.186 101.51 131.071 102.22 130.841 102.88C130.621 103.54 130.306 104.115 129.896 104.605C129.486 105.095 128.991 105.48 128.411 105.76C127.841 106.04 127.206 106.18 126.506 106.18ZM126.536 104.095C126.886 104.095 127.201 104.015 127.481 103.855C127.761 103.685 128.001 103.455 128.201 103.165C128.401 102.865 128.551 102.515 128.651 102.115C128.761 101.705 128.816 101.26 128.816 100.78V100.75C128.816 100.27 128.761 99.83 128.651 99.43C128.541 99.02 128.381 98.665 128.171 98.365C127.971 98.065 127.726 97.83 127.436 97.66C127.156 97.49 126.846 97.405 126.506 97.405C126.156 97.405 125.841 97.49 125.561 97.66C125.281 97.82 125.041 98.05 124.841 98.35C124.651 98.64 124.501 98.99 124.391 99.4C124.281 99.8 124.226 100.24 124.226 100.72V100.75C124.226 101.23 124.281 101.675 124.391 102.085C124.501 102.495 124.656 102.85 124.856 103.15C125.056 103.44 125.296 103.67 125.576 103.84C125.866 104.01 126.186 104.095 126.536 104.095ZM138.423 103.735H133.293L132.918 102.1L138.678 95.425H140.628V101.86H142.038V103.735H140.628V106H138.423V103.735ZM138.423 101.86V98.59L135.633 101.86H138.423ZM149.177 94.03H151.112L144.467 107.92H142.532L149.177 94.03ZM151.798 104.17L155.293 101.305C155.623 101.035 155.903 100.795 156.133 100.585C156.363 100.365 156.548 100.16 156.688 99.97C156.838 99.77 156.943 99.58 157.003 99.4C157.073 99.21 157.108 99.005 157.108 98.785C157.108 98.335 156.978 97.995 156.718 97.765C156.458 97.535 156.118 97.42 155.698 97.42C155.288 97.42 154.923 97.535 154.603 97.765C154.293 97.995 153.943 98.35 153.553 98.83L151.933 97.525C152.193 97.175 152.453 96.865 152.713 96.595C152.983 96.325 153.268 96.1 153.568 95.92C153.878 95.73 154.218 95.59 154.588 95.5C154.958 95.4 155.378 95.35 155.848 95.35C156.388 95.35 156.878 95.43 157.318 95.59C157.768 95.74 158.148 95.955 158.458 96.235C158.778 96.515 159.023 96.855 159.193 97.255C159.373 97.655 159.463 98.1 159.463 98.59V98.62C159.463 99.06 159.403 99.455 159.283 99.805C159.173 100.145 159.003 100.47 158.773 100.78C158.553 101.08 158.268 101.385 157.918 101.695C157.568 101.995 157.163 102.325 156.703 102.685L154.993 104.005H159.568V106H151.798V104.17ZM166.319 106.18C165.619 106.18 164.979 106.045 164.399 105.775C163.829 105.495 163.339 105.115 162.929 104.635C162.529 104.145 162.219 103.57 161.999 102.91C161.779 102.25 161.669 101.54 161.669 100.78V100.75C161.669 99.99 161.779 99.28 161.999 98.62C162.229 97.96 162.549 97.385 162.959 96.895C163.369 96.405 163.859 96.02 164.429 95.74C165.009 95.46 165.649 95.32 166.349 95.32C167.039 95.32 167.669 95.46 168.239 95.74C168.819 96.01 169.309 96.39 169.709 96.88C170.119 97.36 170.434 97.93 170.654 98.59C170.884 99.25 170.999 99.96 170.999 100.72V100.75C170.999 101.51 170.884 102.22 170.654 102.88C170.434 103.54 170.119 104.115 169.709 104.605C169.299 105.095 168.804 105.48 168.224 105.76C167.654 106.04 167.019 106.18 166.319 106.18ZM166.349 104.095C166.699 104.095 167.014 104.015 167.294 103.855C167.574 103.685 167.814 103.455 168.014 103.165C168.214 102.865 168.364 102.515 168.464 102.115C168.574 101.705 168.629 101.26 168.629 100.78V100.75C168.629 100.27 168.574 99.83 168.464 99.43C168.354 99.02 168.194 98.665 167.984 98.365C167.784 98.065 167.539 97.83 167.249 97.66C166.969 97.49 166.659 97.405 166.319 97.405C165.969 97.405 165.654 97.49 165.374 97.66C165.094 97.82 164.854 98.05 164.654 98.35C164.464 98.64 164.314 98.99 164.204 99.4C164.094 99.8 164.039 100.24 164.039 100.72V100.75C164.039 101.23 164.094 101.675 164.204 102.085C164.314 102.495 164.469 102.85 164.669 103.15C164.869 103.44 165.109 103.67 165.389 103.84C165.679 104.01 165.999 104.095 166.349 104.095ZM172.854 104.17L176.349 101.305C176.679 101.035 176.959 100.795 177.189 100.585C177.419 100.365 177.604 100.16 177.744 99.97C177.894 99.77 177.999 99.58 178.059 99.4C178.129 99.21 178.164 99.005 178.164 98.785C178.164 98.335 178.034 97.995 177.774 97.765C177.514 97.535 177.174 97.42 176.754 97.42C176.344 97.42 175.979 97.535 175.659 97.765C175.349 97.995 174.999 98.35 174.609 98.83L172.989 97.525C173.249 97.175 173.509 96.865 173.769 96.595C174.039 96.325 174.324 96.1 174.624 95.92C174.934 95.73 175.274 95.59 175.644 95.5C176.014 95.4 176.434 95.35 176.904 95.35C177.444 95.35 177.934 95.43 178.374 95.59C178.824 95.74 179.204 95.955 179.514 96.235C179.834 96.515 180.079 96.855 180.249 97.255C180.429 97.655 180.519 98.1 180.519 98.59V98.62C180.519 99.06 180.459 99.455 180.339 99.805C180.229 100.145 180.059 100.47 179.829 100.78C179.609 101.08 179.324 101.385 178.974 101.695C178.624 101.995 178.219 102.325 177.759 102.685L176.049 104.005H180.624V106H172.854V104.17ZM186.58 106.18C185.63 106.18 184.82 106.015 184.15 105.685C183.49 105.345 182.935 104.905 182.485 104.365L184.075 102.85C184.435 103.26 184.81 103.575 185.2 103.795C185.6 104.005 186.07 104.11 186.61 104.11C187.05 104.11 187.405 103.995 187.675 103.765C187.955 103.535 188.095 103.225 188.095 102.835V102.805C188.095 102.375 187.915 102.045 187.555 101.815C187.195 101.585 186.69 101.47 186.04 101.47H185.08L184.72 100L187.225 97.48H183.1V95.5H190.195V97.24L187.54 99.775C187.9 99.835 188.245 99.93 188.575 100.06C188.915 100.19 189.215 100.37 189.475 100.6C189.745 100.83 189.96 101.12 190.12 101.47C190.28 101.81 190.36 102.225 190.36 102.715V102.745C190.36 103.245 190.27 103.705 190.09 104.125C189.92 104.535 189.67 104.895 189.34 105.205C189.02 105.515 188.625 105.755 188.155 105.925C187.685 106.095 187.16 106.18 186.58 106.18Z" fill="white"/>
<path opacity="0.2" d="M250 139H35" stroke="url(#paint0_linear_515_4647)"/>
<g clip-path="url(#clip1_515_4647)">
<path d="M142.5 169C140.127 169 137.807 169.704 135.833 171.022C133.86 172.341 132.322 174.215 131.413 176.408C130.505 178.601 130.268 181.013 130.731 183.341C131.194 185.669 132.336 187.807 134.015 189.485C135.693 191.164 137.831 192.306 140.159 192.769C142.487 193.232 144.899 192.995 147.092 192.087C149.285 191.178 151.159 189.64 152.478 187.667C153.796 185.693 154.5 183.373 154.5 181C154.497 177.818 153.231 174.768 150.981 172.519C148.732 170.269 145.682 169.003 142.5 169V169ZM142.5 190C140.72 190 138.98 189.472 137.5 188.483C136.02 187.494 134.866 186.089 134.185 184.444C133.504 182.8 133.326 180.99 133.673 179.244C134.02 177.498 134.877 175.895 136.136 174.636C137.395 173.377 138.998 172.52 140.744 172.173C142.49 171.826 144.3 172.004 145.944 172.685C147.589 173.366 148.994 174.52 149.983 176C150.972 177.48 151.5 179.22 151.5 181C151.497 183.386 150.548 185.674 148.861 187.361C147.174 189.048 144.886 189.997 142.5 190Z" fill="white"/>
<path d="M141 180.055L138.6 181.555C138.433 181.66 138.288 181.796 138.174 181.957C138.06 182.117 137.978 182.299 137.934 182.491C137.89 182.683 137.884 182.881 137.917 183.076C137.95 183.27 138.02 183.456 138.125 183.623C138.23 183.79 138.366 183.935 138.527 184.049C138.687 184.163 138.869 184.245 139.061 184.289C139.253 184.333 139.452 184.339 139.646 184.306C139.84 184.273 140.026 184.203 140.193 184.098L143.062 182.298C143.35 182.118 143.587 181.867 143.751 181.569C143.915 181.272 144.001 180.938 144 180.598V176.772C144 176.374 143.842 175.993 143.561 175.711C143.279 175.43 142.898 175.272 142.5 175.272C142.102 175.272 141.721 175.43 141.439 175.711C141.158 175.993 141 176.374 141 176.772V180.055Z" fill="white"/>
</g>
<path d="M92.17 209.765L90.34 210.215L89.86 208.325L92.875 207.425H94.45V218H92.17V209.765ZM102.248 215.735H97.1181L96.7431 214.1L102.503 207.425H104.453V213.86H105.863V215.735H104.453V218H102.248V215.735ZM102.248 213.86V210.59L99.4581 213.86H102.248ZM108.075 209.96H110.505V212.36H108.075V209.96ZM108.075 215.6H110.505V218H108.075V215.6ZM117.418 218.18C116.718 218.18 116.078 218.045 115.498 217.775C114.928 217.495 114.438 217.115 114.028 216.635C113.628 216.145 113.318 215.57 113.098 214.91C112.878 214.25 112.768 213.54 112.768 212.78V212.75C112.768 211.99 112.878 211.28 113.098 210.62C113.328 209.96 113.648 209.385 114.058 208.895C114.468 208.405 114.958 208.02 115.528 207.74C116.108 207.46 116.748 207.32 117.448 207.32C118.138 207.32 118.768 207.46 119.338 207.74C119.918 208.01 120.408 208.39 120.808 208.88C121.218 209.36 121.533 209.93 121.753 210.59C121.983 211.25 122.098 211.96 122.098 212.72V212.75C122.098 213.51 121.983 214.22 121.753 214.88C121.533 215.54 121.218 216.115 120.808 216.605C120.398 217.095 119.903 217.48 119.323 217.76C118.753 218.04 118.118 218.18 117.418 218.18ZM117.448 216.095C117.798 216.095 118.113 216.015 118.393 215.855C118.673 215.685 118.913 215.455 119.113 215.165C119.313 214.865 119.463 214.515 119.563 214.115C119.673 213.705 119.728 213.26 119.728 212.78V212.75C119.728 212.27 119.673 211.83 119.563 211.43C119.453 211.02 119.293 210.665 119.083 210.365C118.883 210.065 118.638 209.83 118.348 209.66C118.068 209.49 117.758 209.405 117.418 209.405C117.068 209.405 116.753 209.49 116.473 209.66C116.193 209.82 115.953 210.05 115.753 210.35C115.563 210.64 115.413 210.99 115.303 211.4C115.193 211.8 115.138 212.24 115.138 212.72V212.75C115.138 213.23 115.193 213.675 115.303 214.085C115.413 214.495 115.568 214.85 115.768 215.15C115.968 215.44 116.208 215.67 116.488 215.84C116.778 216.01 117.098 216.095 117.448 216.095ZM128.825 218.18C128.125 218.18 127.485 218.045 126.905 217.775C126.335 217.495 125.845 217.115 125.435 216.635C125.035 216.145 124.725 215.57 124.505 214.91C124.285 214.25 124.175 213.54 124.175 212.78V212.75C124.175 211.99 124.285 211.28 124.505 210.62C124.735 209.96 125.055 209.385 125.465 208.895C125.875 208.405 126.365 208.02 126.935 207.74C127.515 207.46 128.155 207.32 128.855 207.32C129.545 207.32 130.175 207.46 130.745 207.74C131.325 208.01 131.815 208.39 132.215 208.88C132.625 209.36 132.94 209.93 133.16 210.59C133.39 211.25 133.505 211.96 133.505 212.72V212.75C133.505 213.51 133.39 214.22 133.16 214.88C132.94 215.54 132.625 216.115 132.215 216.605C131.805 217.095 131.31 217.48 130.73 217.76C130.16 218.04 129.525 218.18 128.825 218.18ZM128.855 216.095C129.205 216.095 129.52 216.015 129.8 215.855C130.08 215.685 130.32 215.455 130.52 215.165C130.72 214.865 130.87 214.515 130.97 214.115C131.08 213.705 131.135 213.26 131.135 212.78V212.75C131.135 212.27 131.08 211.83 130.97 211.43C130.86 211.02 130.7 210.665 130.49 210.365C130.29 210.065 130.045 209.83 129.755 209.66C129.475 209.49 129.165 209.405 128.825 209.405C128.475 209.405 128.16 209.49 127.88 209.66C127.6 209.82 127.36 210.05 127.16 210.35C126.97 210.64 126.82 210.99 126.71 211.4C126.6 211.8 126.545 212.24 126.545 212.72V212.75C126.545 213.23 126.6 213.675 126.71 214.085C126.82 214.495 126.975 214.85 127.175 215.15C127.375 215.44 127.615 215.67 127.895 215.84C128.185 216.01 128.505 216.095 128.855 216.095ZM140.47 212.255H145.09V214.445H140.47V212.255ZM153.91 209.765L152.08 210.215L151.6 208.325L154.615 207.425H156.19V218H153.91V209.765ZM162.743 218.15C162.163 218.15 161.623 218.08 161.123 217.94C160.633 217.79 160.208 217.585 159.848 217.325C159.488 217.055 159.203 216.735 158.993 216.365C158.793 215.995 158.693 215.58 158.693 215.12V215.09C158.693 214.45 158.833 213.935 159.113 213.545C159.403 213.145 159.828 212.815 160.388 212.555C159.978 212.305 159.653 212.005 159.413 211.655C159.173 211.295 159.053 210.83 159.053 210.26V210.23C159.053 209.83 159.138 209.455 159.308 209.105C159.488 208.755 159.738 208.45 160.058 208.19C160.388 207.93 160.778 207.725 161.228 207.575C161.678 207.425 162.183 207.35 162.743 207.35C163.293 207.35 163.793 207.425 164.243 207.575C164.703 207.725 165.093 207.93 165.413 208.19C165.743 208.44 165.993 208.745 166.163 209.105C166.343 209.455 166.433 209.83 166.433 210.23V210.26C166.433 210.83 166.313 211.295 166.073 211.655C165.833 212.005 165.508 212.305 165.098 212.555C165.628 212.835 166.043 213.165 166.343 213.545C166.643 213.915 166.793 214.41 166.793 215.03V215.06C166.793 215.55 166.688 215.985 166.478 216.365C166.278 216.745 165.998 217.07 165.638 217.34C165.278 217.6 164.848 217.8 164.348 217.94C163.858 218.08 163.323 218.15 162.743 218.15ZM162.743 211.79C163.203 211.79 163.568 211.67 163.838 211.43C164.108 211.19 164.243 210.885 164.243 210.515V210.485C164.243 210.165 164.113 209.88 163.853 209.63C163.593 209.38 163.223 209.255 162.743 209.255C162.263 209.255 161.893 209.38 161.633 209.63C161.373 209.87 161.243 210.15 161.243 210.47V210.5C161.243 210.87 161.378 211.18 161.648 211.43C161.918 211.67 162.283 211.79 162.743 211.79ZM162.743 216.245C163.313 216.245 163.758 216.12 164.078 215.87C164.398 215.62 164.558 215.31 164.558 214.94V214.91C164.558 214.5 164.388 214.185 164.048 213.965C163.708 213.735 163.273 213.62 162.743 213.62C162.213 213.62 161.778 213.735 161.438 213.965C161.098 214.185 160.928 214.5 160.928 214.91V214.94C160.928 215.3 161.088 215.61 161.408 215.87C161.728 216.12 162.173 216.245 162.743 216.245ZM168.921 209.96H171.351V212.36H168.921V209.96ZM168.921 215.6H171.351V218H168.921V215.6ZM178.264 218.18C177.564 218.18 176.924 218.045 176.344 217.775C175.774 217.495 175.284 217.115 174.874 216.635C174.474 216.145 174.164 215.57 173.944 214.91C173.724 214.25 173.614 213.54 173.614 212.78V212.75C173.614 211.99 173.724 211.28 173.944 210.62C174.174 209.96 174.494 209.385 174.904 208.895C175.314 208.405 175.804 208.02 176.374 207.74C176.954 207.46 177.594 207.32 178.294 207.32C178.984 207.32 179.614 207.46 180.184 207.74C180.764 208.01 181.254 208.39 181.654 208.88C182.064 209.36 182.379 209.93 182.599 210.59C182.829 211.25 182.944 211.96 182.944 212.72V212.75C182.944 213.51 182.829 214.22 182.599 214.88C182.379 215.54 182.064 216.115 181.654 216.605C181.244 217.095 180.749 217.48 180.169 217.76C179.599 218.04 178.964 218.18 178.264 218.18ZM178.294 216.095C178.644 216.095 178.959 216.015 179.239 215.855C179.519 215.685 179.759 215.455 179.959 215.165C180.159 214.865 180.309 214.515 180.409 214.115C180.519 213.705 180.574 213.26 180.574 212.78V212.75C180.574 212.27 180.519 211.83 180.409 211.43C180.299 211.02 180.139 210.665 179.929 210.365C179.729 210.065 179.484 209.83 179.194 209.66C178.914 209.49 178.604 209.405 178.264 209.405C177.914 209.405 177.599 209.49 177.319 209.66C177.039 209.82 176.799 210.05 176.599 210.35C176.409 210.64 176.259 210.99 176.149 211.4C176.039 211.8 175.984 212.24 175.984 212.72V212.75C175.984 213.23 176.039 213.675 176.149 214.085C176.259 214.495 176.414 214.85 176.614 215.15C176.814 215.44 177.054 215.67 177.334 215.84C177.624 216.01 177.944 216.095 178.294 216.095ZM189.672 218.18C188.972 218.18 188.332 218.045 187.752 217.775C187.182 217.495 186.692 217.115 186.282 216.635C185.882 216.145 185.572 215.57 185.352 214.91C185.132 214.25 185.022 213.54 185.022 212.78V212.75C185.022 211.99 185.132 211.28 185.352 210.62C185.582 209.96 185.902 209.385 186.312 208.895C186.722 208.405 187.212 208.02 187.782 207.74C188.362 207.46 189.002 207.32 189.702 207.32C190.392 207.32 191.022 207.46 191.592 207.74C192.172 208.01 192.662 208.39 193.062 208.88C193.472 209.36 193.787 209.93 194.007 210.59C194.237 211.25 194.352 211.96 194.352 212.72V212.75C194.352 213.51 194.237 214.22 194.007 214.88C193.787 215.54 193.472 216.115 193.062 216.605C192.652 217.095 192.157 217.48 191.577 217.76C191.007 218.04 190.372 218.18 189.672 218.18ZM189.702 216.095C190.052 216.095 190.367 216.015 190.647 215.855C190.927 215.685 191.167 215.455 191.367 215.165C191.567 214.865 191.717 214.515 191.817 214.115C191.927 213.705 191.982 213.26 191.982 212.78V212.75C191.982 212.27 191.927 211.83 191.817 211.43C191.707 211.02 191.547 210.665 191.337 210.365C191.137 210.065 190.892 209.83 190.602 209.66C190.322 209.49 190.012 209.405 189.672 209.405C189.322 209.405 189.007 209.49 188.727 209.66C188.447 209.82 188.207 210.05 188.007 210.35C187.817 210.64 187.667 210.99 187.557 211.4C187.447 211.8 187.392 212.24 187.392 212.72V212.75C187.392 213.23 187.447 213.675 187.557 214.085C187.667 214.495 187.822 214.85 188.022 215.15C188.222 215.44 188.462 215.67 188.742 215.84C189.032 216.01 189.352 216.095 189.702 216.095Z" fill="white"/>
<path opacity="0.2" d="M250 251H35" stroke="url(#paint1_linear_515_4647)"/>
<g clip-path="url(#clip2_515_4647)">
<path d="M142.5 287C141.709 287 140.936 287.235 140.278 287.674C139.62 288.114 139.107 288.738 138.805 289.469C138.502 290.2 138.423 291.004 138.577 291.78C138.731 292.556 139.112 293.269 139.672 293.828C140.231 294.388 140.944 294.769 141.72 294.923C142.496 295.077 143.3 294.998 144.031 294.696C144.762 294.393 145.386 293.88 145.826 293.222C146.266 292.564 146.5 291.791 146.5 291C146.5 289.939 146.079 288.922 145.329 288.172C144.578 287.421 143.561 287 142.5 287ZM142.5 293C142.105 293 141.718 292.883 141.389 292.663C141.06 292.443 140.804 292.131 140.652 291.765C140.501 291.4 140.461 290.998 140.539 290.61C140.616 290.222 140.806 289.865 141.086 289.586C141.366 289.306 141.722 289.116 142.11 289.038C142.498 288.961 142.9 289.001 143.265 289.152C143.631 289.304 143.943 289.56 144.163 289.889C144.383 290.218 144.5 290.604 144.5 291C144.5 291.53 144.289 292.039 143.914 292.414C143.539 292.789 143.031 293 142.5 293Z" fill="white"/>
<path d="M142.5 305C141.658 305.004 140.827 304.807 140.077 304.424C139.327 304.041 138.68 303.484 138.189 302.8C134.378 297.543 132.445 293.591 132.445 291.053C132.445 288.386 133.504 285.829 135.39 283.943C137.276 282.057 139.833 280.998 142.5 280.998C145.167 280.998 147.724 282.057 149.61 283.943C151.496 285.829 152.555 288.386 152.555 291.053C152.555 293.591 150.622 297.543 146.811 302.8C146.32 303.484 145.673 304.041 144.923 304.424C144.173 304.807 143.342 305.004 142.5 305ZM142.5 283.181C140.412 283.183 138.411 284.014 136.935 285.49C135.459 286.966 134.628 288.967 134.626 291.055C134.626 293.065 136.519 296.782 139.955 301.521C140.247 301.923 140.629 302.25 141.072 302.475C141.514 302.701 142.003 302.818 142.5 302.818C142.996 302.818 143.486 302.701 143.928 302.475C144.371 302.25 144.753 301.923 145.045 301.521C148.481 296.782 150.374 293.065 150.374 291.055C150.372 288.967 149.541 286.966 148.065 285.49C146.589 284.014 144.588 283.183 142.5 283.181Z" fill="white"/>
</g>
<path d="M95.3425 330.18C94.5325 330.18 93.7875 330.04 93.1075 329.76C92.4275 329.47 91.8375 329.085 91.3375 328.605C90.8475 328.115 90.4625 327.545 90.1825 326.895C89.9125 326.235 89.7775 325.53 89.7775 324.78V324.75C89.7775 324 89.9175 323.3 90.1975 322.65C90.4775 321.99 90.8625 321.415 91.3525 320.925C91.8525 320.425 92.4425 320.035 93.1225 319.755C93.8125 319.465 94.5625 319.32 95.3725 319.32C96.1825 319.32 96.9275 319.465 97.6075 319.755C98.2875 320.035 98.8725 320.42 99.3625 320.91C99.8625 321.39 100.248 321.96 100.518 322.62C100.798 323.27 100.938 323.97 100.938 324.72V324.75C100.938 325.5 100.798 326.205 100.518 326.865C100.238 327.515 99.8475 328.09 99.3475 328.59C98.8575 329.08 98.2675 329.47 97.5775 329.76C96.8975 330.04 96.1525 330.18 95.3425 330.18ZM95.3725 328.05C95.8325 328.05 96.2575 327.965 96.6475 327.795C97.0375 327.625 97.3675 327.39 97.6375 327.09C97.9175 326.79 98.1325 326.445 98.2825 326.055C98.4425 325.655 98.5225 325.23 98.5225 324.78V324.75C98.5225 324.3 98.4425 323.875 98.2825 323.475C98.1325 323.075 97.9125 322.725 97.6225 322.425C97.3425 322.125 97.0075 321.89 96.6175 321.72C96.2275 321.54 95.8025 321.45 95.3425 321.45C94.8725 321.45 94.4425 321.535 94.0525 321.705C93.6725 321.875 93.3425 322.11 93.0625 322.41C92.7925 322.71 92.5775 323.06 92.4175 323.46C92.2675 323.85 92.1925 324.27 92.1925 324.72V324.75C92.1925 325.2 92.2675 325.625 92.4175 326.025C92.5775 326.425 92.7975 326.775 93.0775 327.075C93.3675 327.375 93.7025 327.615 94.0825 327.795C94.4725 327.965 94.9025 328.05 95.3725 328.05ZM103.197 321.96H105.477V323.1C105.607 322.93 105.747 322.77 105.897 322.62C106.057 322.46 106.232 322.32 106.422 322.2C106.612 322.08 106.822 321.985 107.052 321.915C107.282 321.845 107.542 321.81 107.832 321.81C108.702 321.81 109.372 322.075 109.842 322.605C110.322 323.135 110.562 323.865 110.562 324.795V330H108.282V325.515C108.282 324.975 108.162 324.57 107.922 324.3C107.682 324.02 107.342 323.88 106.902 323.88C106.462 323.88 106.112 324.02 105.852 324.3C105.602 324.57 105.477 324.975 105.477 325.515V330H103.197V321.96ZM113.097 319.05H115.377V330H113.097V319.05ZM123.249 321.96H125.619L122.529 330.195C122.379 330.605 122.219 330.95 122.049 331.23C121.879 331.52 121.689 331.755 121.479 331.935C121.279 332.115 121.049 332.245 120.789 332.325C120.529 332.405 120.229 332.445 119.889 332.445C119.469 332.445 119.099 332.395 118.779 332.295C118.459 332.195 118.154 332.06 117.864 331.89L118.629 330.24C118.779 330.33 118.939 330.405 119.109 330.465C119.289 330.525 119.454 330.555 119.604 330.555C119.804 330.555 119.959 330.515 120.069 330.435C120.189 330.365 120.299 330.23 120.399 330.03L117.249 321.96H119.664L121.494 327.435L123.249 321.96ZM136.98 330.165C135.57 330.165 134.46 329.775 133.65 328.995C132.84 328.215 132.435 327.05 132.435 325.5V319.5H134.745V325.44C134.745 326.3 134.945 326.95 135.345 327.39C135.745 327.82 136.3 328.035 137.01 328.035C137.72 328.035 138.275 327.825 138.675 327.405C139.075 326.985 139.275 326.355 139.275 325.515V319.5H141.585V325.425C141.585 326.225 141.475 326.92 141.255 327.51C141.045 328.1 140.74 328.595 140.34 328.995C139.94 329.385 139.455 329.68 138.885 329.88C138.315 330.07 137.68 330.165 136.98 330.165ZM153.07 330.15C152.27 330.15 151.485 330.015 150.715 329.745C149.945 329.465 149.245 329.04 148.615 328.47L149.98 326.835C150.46 327.225 150.95 327.535 151.45 327.765C151.96 327.995 152.515 328.11 153.115 328.11C153.595 328.11 153.965 328.025 154.225 327.855C154.495 327.675 154.63 327.43 154.63 327.12V327.09C154.63 326.94 154.6 326.81 154.54 326.7C154.49 326.58 154.385 326.47 154.225 326.37C154.075 326.27 153.86 326.17 153.58 326.07C153.31 325.97 152.955 325.865 152.515 325.755C151.985 325.625 151.505 325.48 151.075 325.32C150.645 325.16 150.28 324.965 149.98 324.735C149.68 324.495 149.445 324.2 149.275 323.85C149.115 323.5 149.035 323.065 149.035 322.545V322.515C149.035 322.035 149.125 321.605 149.305 321.225C149.485 320.835 149.735 320.5 150.055 320.22C150.385 319.94 150.775 319.725 151.225 319.575C151.675 319.425 152.17 319.35 152.71 319.35C153.48 319.35 154.185 319.465 154.825 319.695C155.475 319.925 156.07 320.255 156.61 320.685L155.41 322.425C154.94 322.105 154.48 321.855 154.03 321.675C153.58 321.485 153.13 321.39 152.68 321.39C152.23 321.39 151.89 321.48 151.66 321.66C151.44 321.83 151.33 322.045 151.33 322.305V322.335C151.33 322.505 151.36 322.655 151.42 322.785C151.49 322.905 151.61 323.015 151.78 323.115C151.95 323.215 152.18 323.31 152.47 323.4C152.77 323.49 153.145 323.595 153.595 323.715C154.125 323.855 154.595 324.015 155.005 324.195C155.425 324.365 155.775 324.575 156.055 324.825C156.345 325.065 156.56 325.35 156.7 325.68C156.85 326.01 156.925 326.405 156.925 326.865V326.895C156.925 327.415 156.83 327.88 156.64 328.29C156.45 328.69 156.185 329.03 155.845 329.31C155.505 329.58 155.1 329.79 154.63 329.94C154.16 330.08 153.64 330.15 153.07 330.15ZM159.14 321.96H161.42V323.115C161.7 322.735 162.035 322.425 162.425 322.185C162.825 321.935 163.325 321.81 163.925 321.81C164.395 321.81 164.85 321.9 165.29 322.08C165.73 322.26 166.12 322.53 166.46 322.89C166.8 323.24 167.07 323.675 167.27 324.195C167.48 324.705 167.585 325.295 167.585 325.965V325.995C167.585 326.665 167.48 327.26 167.27 327.78C167.07 328.29 166.8 328.725 166.46 329.085C166.13 329.435 165.745 329.7 165.305 329.88C164.865 330.06 164.405 330.15 163.925 330.15C163.315 330.15 162.81 330.03 162.41 329.79C162.02 329.55 161.69 329.27 161.42 328.95V332.4H159.14V321.96ZM163.34 328.215C163.61 328.215 163.86 328.165 164.09 328.065C164.33 327.955 164.54 327.805 164.72 327.615C164.9 327.415 165.04 327.18 165.14 326.91C165.25 326.64 165.305 326.335 165.305 325.995V325.965C165.305 325.635 165.25 325.335 165.14 325.065C165.04 324.785 164.9 324.55 164.72 324.36C164.54 324.16 164.33 324.01 164.09 323.91C163.86 323.8 163.61 323.745 163.34 323.745C163.07 323.745 162.815 323.8 162.575 323.91C162.345 324.01 162.14 324.16 161.96 324.36C161.79 324.55 161.65 324.785 161.54 325.065C161.44 325.335 161.39 325.635 161.39 325.965V325.995C161.39 326.325 161.44 326.63 161.54 326.91C161.65 327.18 161.79 327.415 161.96 327.615C162.14 327.805 162.345 327.955 162.575 328.065C162.815 328.165 163.07 328.215 163.34 328.215ZM171.992 330.15C171.612 330.15 171.252 330.1 170.912 330C170.582 329.89 170.292 329.73 170.042 329.52C169.792 329.31 169.592 329.055 169.442 328.755C169.302 328.445 169.232 328.09 169.232 327.69V327.66C169.232 327.22 169.312 326.84 169.472 326.52C169.632 326.2 169.852 325.935 170.132 325.725C170.422 325.515 170.762 325.36 171.152 325.26C171.552 325.15 171.992 325.095 172.472 325.095C172.882 325.095 173.237 325.125 173.537 325.185C173.847 325.245 174.147 325.325 174.437 325.425V325.29C174.437 324.81 174.292 324.445 174.002 324.195C173.712 323.945 173.282 323.82 172.712 323.82C172.272 323.82 171.882 323.86 171.542 323.94C171.212 324.01 170.862 324.115 170.492 324.255L169.922 322.515C170.362 322.325 170.822 322.17 171.302 322.05C171.782 321.93 172.362 321.87 173.042 321.87C173.672 321.87 174.207 321.95 174.647 322.11C175.097 322.26 175.467 322.48 175.757 322.77C176.057 323.07 176.277 323.44 176.417 323.88C176.557 324.31 176.627 324.795 176.627 325.335V330H174.422V329.13C174.142 329.44 173.807 329.69 173.417 329.88C173.027 330.06 172.552 330.15 171.992 330.15ZM172.682 328.575C173.222 328.575 173.652 328.445 173.972 328.185C174.302 327.925 174.467 327.585 174.467 327.165V326.76C174.267 326.67 174.042 326.6 173.792 326.55C173.552 326.49 173.292 326.46 173.012 326.46C172.522 326.46 172.137 326.555 171.857 326.745C171.577 326.935 171.437 327.21 171.437 327.57V327.6C171.437 327.91 171.552 328.15 171.782 328.32C172.012 328.49 172.312 328.575 172.682 328.575ZM182.834 330.18C182.234 330.18 181.674 330.07 181.154 329.85C180.644 329.63 180.204 329.335 179.834 328.965C179.464 328.585 179.174 328.145 178.964 327.645C178.754 327.135 178.649 326.595 178.649 326.025V325.995C178.649 325.425 178.754 324.885 178.964 324.375C179.174 323.865 179.464 323.42 179.834 323.04C180.204 322.66 180.644 322.36 181.154 322.14C181.674 321.92 182.244 321.81 182.864 321.81C183.624 321.81 184.254 321.93 184.754 322.17C185.254 322.41 185.694 322.74 186.074 323.16L184.679 324.66C184.419 324.39 184.149 324.175 183.869 324.015C183.599 323.855 183.259 323.775 182.849 323.775C182.559 323.775 182.294 323.835 182.054 323.955C181.824 324.065 181.619 324.22 181.439 324.42C181.269 324.62 181.134 324.855 181.034 325.125C180.944 325.385 180.899 325.665 180.899 325.965V325.995C180.899 326.305 180.944 326.595 181.034 326.865C181.134 327.135 181.274 327.37 181.454 327.57C181.634 327.77 181.849 327.93 182.099 328.05C182.349 328.16 182.629 328.215 182.939 328.215C183.319 328.215 183.649 328.14 183.929 327.99C184.219 327.83 184.504 327.62 184.784 327.36L186.119 328.71C185.729 329.14 185.284 329.495 184.784 329.775C184.284 330.045 183.634 330.18 182.834 330.18ZM191.648 330.18C191.048 330.18 190.488 330.08 189.968 329.88C189.458 329.68 189.013 329.395 188.633 329.025C188.263 328.655 187.973 328.22 187.763 327.72C187.553 327.21 187.448 326.645 187.448 326.025V325.995C187.448 325.425 187.543 324.885 187.733 324.375C187.933 323.865 188.208 323.42 188.558 323.04C188.908 322.66 189.323 322.36 189.803 322.14C190.293 321.92 190.833 321.81 191.423 321.81C192.093 321.81 192.673 321.93 193.163 322.17C193.653 322.41 194.058 322.735 194.378 323.145C194.708 323.545 194.948 324.01 195.098 324.54C195.258 325.06 195.338 325.605 195.338 326.175C195.338 326.265 195.333 326.36 195.323 326.46C195.323 326.56 195.318 326.665 195.308 326.775H189.713C189.823 327.295 190.048 327.69 190.388 327.96C190.738 328.22 191.168 328.35 191.678 328.35C192.058 328.35 192.398 328.285 192.698 328.155C192.998 328.025 193.308 327.815 193.628 327.525L194.933 328.68C194.553 329.15 194.093 329.52 193.553 329.79C193.013 330.05 192.378 330.18 191.648 330.18ZM193.118 325.35C193.048 324.84 192.868 324.43 192.578 324.12C192.288 323.8 191.903 323.64 191.423 323.64C190.943 323.64 190.553 323.795 190.253 324.105C189.963 324.415 189.773 324.83 189.683 325.35H193.118ZM84.6038 342.655L82.6238 343.27L82.3388 342.31L84.9038 341.425H85.7738V352H84.6038V342.655ZM93.0997 352.18C92.4197 352.18 91.8047 352.04 91.2547 351.76C90.7147 351.47 90.2497 351.08 89.8597 350.59C89.4797 350.09 89.1847 349.515 88.9747 348.865C88.7747 348.215 88.6747 347.52 88.6747 346.78V346.75C88.6747 346.02 88.7797 345.325 88.9897 344.665C89.1997 344.005 89.4997 343.43 89.8897 342.94C90.2797 342.44 90.7447 342.045 91.2847 341.755C91.8347 341.465 92.4497 341.32 93.1297 341.32C93.7997 341.32 94.4047 341.465 94.9447 341.755C95.4947 342.035 95.9597 342.425 96.3397 342.925C96.7297 343.415 97.0247 343.99 97.2247 344.65C97.4347 345.3 97.5397 345.99 97.5397 346.72V346.75C97.5397 347.49 97.4347 348.19 97.2247 348.85C97.0147 349.5 96.7147 350.075 96.3247 350.575C95.9447 351.065 95.4797 351.455 94.9297 351.745C94.3797 352.035 93.7697 352.18 93.0997 352.18ZM93.1297 351.1C93.6197 351.1 94.0597 350.985 94.4497 350.755C94.8497 350.515 95.1847 350.2 95.4547 349.81C95.7347 349.41 95.9447 348.95 96.0847 348.43C96.2347 347.9 96.3097 347.35 96.3097 346.78V346.75C96.3097 346.18 96.2347 345.635 96.0847 345.115C95.9347 344.585 95.7197 344.12 95.4397 343.72C95.1597 343.32 94.8197 343 94.4197 342.76C94.0297 342.52 93.5897 342.4 93.0997 342.4C92.6097 342.4 92.1647 342.52 91.7647 342.76C91.3747 342.99 91.0397 343.305 90.7597 343.705C90.4897 344.095 90.2797 344.55 90.1297 345.07C89.9797 345.59 89.9047 346.14 89.9047 346.72V346.75C89.9047 347.32 89.9797 347.87 90.1297 348.4C90.2797 348.92 90.4947 349.38 90.7747 349.78C91.0547 350.18 91.3947 350.5 91.7947 350.74C92.1947 350.98 92.6397 351.1 93.1297 351.1ZM109.234 341.425H110.344L115.129 352H113.854L112.624 349.225H106.909L105.664 352H104.449L109.234 341.425ZM112.159 348.145L109.774 342.805L107.374 348.145H112.159ZM117.455 344.245H118.61V345.595C118.87 345.175 119.21 344.82 119.63 344.53C120.05 344.23 120.595 344.08 121.265 344.08C121.735 344.08 122.15 344.155 122.51 344.305C122.88 344.455 123.19 344.67 123.44 344.95C123.7 345.22 123.895 345.545 124.025 345.925C124.165 346.305 124.235 346.725 124.235 347.185V352H123.08V347.47C123.08 346.75 122.895 346.18 122.525 345.76C122.155 345.34 121.625 345.13 120.935 345.13C120.605 345.13 120.295 345.19 120.005 345.31C119.725 345.42 119.48 345.585 119.27 345.805C119.06 346.015 118.895 346.27 118.775 346.57C118.665 346.87 118.61 347.2 118.61 347.56V352H117.455V344.245ZM129.713 352.15C129.153 352.15 128.588 352.05 128.018 351.85C127.448 351.64 126.943 351.36 126.503 351.01L127.088 350.185C127.508 350.505 127.943 350.75 128.393 350.92C128.853 351.09 129.313 351.175 129.773 351.175C130.243 351.175 130.628 351.065 130.928 350.845C131.228 350.625 131.378 350.325 131.378 349.945V349.915C131.378 349.725 131.323 349.56 131.213 349.42C131.113 349.28 130.973 349.16 130.793 349.06C130.613 348.95 130.403 348.855 130.163 348.775C129.933 348.695 129.693 348.62 129.443 348.55C129.143 348.46 128.838 348.365 128.528 348.265C128.228 348.155 127.953 348.02 127.703 347.86C127.463 347.7 127.263 347.5 127.103 347.26C126.953 347.02 126.878 346.72 126.878 346.36V346.33C126.878 346 126.943 345.7 127.073 345.43C127.203 345.15 127.383 344.915 127.613 344.725C127.853 344.525 128.133 344.375 128.453 344.275C128.783 344.165 129.138 344.11 129.518 344.11C129.998 344.11 130.483 344.19 130.973 344.35C131.463 344.5 131.908 344.705 132.308 344.965L131.783 345.835C131.423 345.605 131.043 345.425 130.643 345.295C130.253 345.155 129.868 345.085 129.488 345.085C129.028 345.085 128.663 345.195 128.393 345.415C128.123 345.625 127.988 345.89 127.988 346.21V346.24C127.988 346.42 128.043 346.58 128.153 346.72C128.263 346.85 128.408 346.965 128.588 347.065C128.778 347.165 128.993 347.255 129.233 347.335C129.473 347.415 129.723 347.495 129.983 347.575C130.283 347.665 130.578 347.765 130.868 347.875C131.168 347.985 131.438 348.125 131.678 348.295C131.918 348.465 132.108 348.67 132.248 348.91C132.398 349.15 132.473 349.445 132.473 349.795V349.825C132.473 350.195 132.398 350.525 132.248 350.815C132.108 351.095 131.913 351.335 131.663 351.535C131.423 351.735 131.133 351.89 130.793 352C130.463 352.1 130.103 352.15 129.713 352.15ZM138.609 352.18C138.029 352.18 137.494 352.075 137.004 351.865C136.514 351.645 136.089 351.355 135.729 350.995C135.369 350.625 135.089 350.2 134.889 349.72C134.689 349.23 134.589 348.71 134.589 348.16V348.13C134.589 347.58 134.689 347.06 134.889 346.57C135.089 346.08 135.369 345.65 135.729 345.28C136.089 344.91 136.514 344.62 137.004 344.41C137.504 344.19 138.049 344.08 138.639 344.08C139.219 344.08 139.754 344.19 140.244 344.41C140.744 344.62 141.174 344.91 141.534 345.28C141.894 345.64 142.174 346.065 142.374 346.555C142.574 347.035 142.674 347.55 142.674 348.1V348.13C142.674 348.68 142.569 349.2 142.359 349.69C142.159 350.18 141.879 350.61 141.519 350.98C141.159 351.35 140.729 351.645 140.229 351.865C139.729 352.075 139.189 352.18 138.609 352.18ZM138.639 351.145C139.059 351.145 139.444 351.065 139.794 350.905C140.144 350.745 140.444 350.53 140.694 350.26C140.944 349.99 141.139 349.675 141.279 349.315C141.419 348.955 141.489 348.57 141.489 348.16V348.13C141.489 347.71 141.414 347.32 141.264 346.96C141.124 346.59 140.924 346.27 140.664 346C140.404 345.72 140.099 345.5 139.749 345.34C139.399 345.18 139.019 345.1 138.609 345.1C138.189 345.1 137.804 345.18 137.454 345.34C137.104 345.5 136.804 345.715 136.554 345.985C136.314 346.255 136.124 346.575 135.984 346.945C135.844 347.305 135.774 347.69 135.774 348.1V348.13C135.774 348.55 135.844 348.945 135.984 349.315C136.134 349.675 136.334 349.99 136.584 350.26C136.844 350.53 137.149 350.745 137.499 350.905C137.849 351.065 138.229 351.145 138.639 351.145ZM145.216 344.245H146.371V345.595C146.631 345.175 146.971 344.82 147.391 344.53C147.811 344.23 148.356 344.08 149.026 344.08C149.496 344.08 149.911 344.155 150.271 344.305C150.641 344.455 150.951 344.67 151.201 344.95C151.461 345.22 151.656 345.545 151.786 345.925C151.926 346.305 151.996 346.725 151.996 347.185V352H150.841V347.47C150.841 346.75 150.656 346.18 150.286 345.76C149.916 345.34 149.386 345.13 148.696 345.13C148.366 345.13 148.056 345.19 147.766 345.31C147.486 345.42 147.241 345.585 147.031 345.805C146.821 346.015 146.656 346.27 146.536 346.57C146.426 346.87 146.371 347.2 146.371 347.56V352H145.216V344.245ZM160.051 341.5H164.566C165.216 341.5 165.791 341.595 166.291 341.785C166.801 341.965 167.221 342.22 167.551 342.55C167.811 342.81 168.011 343.115 168.151 343.465C168.291 343.815 168.361 344.2 168.361 344.62V344.65C168.361 345.09 168.291 345.485 168.151 345.835C168.011 346.175 167.811 346.475 167.551 346.735C167.301 346.985 167.001 347.195 166.651 347.365C166.301 347.525 165.921 347.64 165.511 347.71L168.736 352H167.281L164.236 347.92H161.236V352H160.051V341.5ZM164.461 346.855C164.851 346.855 165.211 346.805 165.541 346.705C165.871 346.605 166.156 346.465 166.396 346.285C166.636 346.095 166.821 345.87 166.951 345.61C167.091 345.34 167.161 345.035 167.161 344.695V344.665C167.161 344.015 166.926 343.51 166.456 343.15C165.986 342.78 165.326 342.595 164.476 342.595H161.236V346.855H164.461ZM174.54 352.18C173.96 352.18 173.425 352.075 172.935 351.865C172.445 351.645 172.02 351.355 171.66 350.995C171.3 350.625 171.02 350.2 170.82 349.72C170.62 349.23 170.52 348.71 170.52 348.16V348.13C170.52 347.58 170.62 347.06 170.82 346.57C171.02 346.08 171.3 345.65 171.66 345.28C172.02 344.91 172.445 344.62 172.935 344.41C173.435 344.19 173.98 344.08 174.57 344.08C175.15 344.08 175.685 344.19 176.175 344.41C176.675 344.62 177.105 344.91 177.465 345.28C177.825 345.64 178.105 346.065 178.305 346.555C178.505 347.035 178.605 347.55 178.605 348.1V348.13C178.605 348.68 178.5 349.2 178.29 349.69C178.09 350.18 177.81 350.61 177.45 350.98C177.09 351.35 176.66 351.645 176.16 351.865C175.66 352.075 175.12 352.18 174.54 352.18ZM174.57 351.145C174.99 351.145 175.375 351.065 175.725 350.905C176.075 350.745 176.375 350.53 176.625 350.26C176.875 349.99 177.07 349.675 177.21 349.315C177.35 348.955 177.42 348.57 177.42 348.16V348.13C177.42 347.71 177.345 347.32 177.195 346.96C177.055 346.59 176.855 346.27 176.595 346C176.335 345.72 176.03 345.5 175.68 345.34C175.33 345.18 174.95 345.1 174.54 345.1C174.12 345.1 173.735 345.18 173.385 345.34C173.035 345.5 172.735 345.715 172.485 345.985C172.245 346.255 172.055 346.575 171.915 346.945C171.775 347.305 171.705 347.69 171.705 348.1V348.13C171.705 348.55 171.775 348.945 171.915 349.315C172.065 349.675 172.265 349.99 172.515 350.26C172.775 350.53 173.08 350.745 173.43 350.905C173.78 351.065 174.16 351.145 174.57 351.145ZM183.457 352.165C183.097 352.165 182.742 352.115 182.392 352.015C182.052 351.915 181.742 351.765 181.462 351.565C181.192 351.355 180.972 351.1 180.802 350.8C180.642 350.5 180.562 350.15 180.562 349.75V349.72C180.562 349.31 180.642 348.95 180.802 348.64C180.962 348.33 181.187 348.07 181.477 347.86C181.777 347.65 182.127 347.49 182.527 347.38C182.937 347.27 183.387 347.215 183.877 347.215C184.377 347.215 184.812 347.245 185.182 347.305C185.552 347.365 185.912 347.445 186.262 347.545V347.275C186.262 346.575 186.057 346.05 185.647 345.7C185.247 345.34 184.682 345.16 183.952 345.16C183.492 345.16 183.072 345.215 182.692 345.325C182.322 345.425 181.957 345.56 181.597 345.73L181.252 344.785C181.682 344.585 182.117 344.43 182.557 344.32C182.997 344.2 183.502 344.14 184.072 344.14C185.172 344.14 186.007 344.425 186.577 344.995C187.107 345.525 187.372 346.28 187.372 347.26V352H186.262V350.83C185.992 351.18 185.627 351.49 185.167 351.76C184.717 352.03 184.147 352.165 183.457 352.165ZM183.682 351.25C184.042 351.25 184.377 351.2 184.687 351.1C185.007 350.99 185.282 350.845 185.512 350.665C185.752 350.475 185.937 350.255 186.067 350.005C186.207 349.745 186.277 349.46 186.277 349.15V348.4C185.987 348.32 185.652 348.245 185.272 348.175C184.902 348.105 184.477 348.07 183.997 348.07C183.267 348.07 182.707 348.215 182.317 348.505C181.927 348.795 181.732 349.185 181.732 349.675V349.705C181.732 349.945 181.782 350.165 181.882 350.365C181.992 350.555 182.137 350.715 182.317 350.845C182.497 350.975 182.702 351.075 182.932 351.145C183.172 351.215 183.422 351.25 183.682 351.25ZM193.539 352.165C193.069 352.165 192.614 352.075 192.174 351.895C191.734 351.715 191.339 351.455 190.989 351.115C190.639 350.765 190.359 350.345 190.149 349.855C189.939 349.355 189.834 348.785 189.834 348.145V348.115C189.834 347.485 189.939 346.92 190.149 346.42C190.359 345.92 190.639 345.5 190.989 345.16C191.339 344.81 191.734 344.545 192.174 344.365C192.614 344.175 193.069 344.08 193.539 344.08C193.899 344.08 194.229 344.125 194.529 344.215C194.829 344.305 195.099 344.425 195.339 344.575C195.579 344.725 195.794 344.9 195.984 345.1C196.184 345.3 196.359 345.51 196.509 345.73V341.05H197.664V352H196.509V350.44C196.349 350.67 196.169 350.89 195.969 351.1C195.779 351.31 195.564 351.495 195.324 351.655C195.084 351.815 194.814 351.94 194.514 352.03C194.224 352.12 193.899 352.165 193.539 352.165ZM193.749 351.13C194.109 351.13 194.454 351.06 194.784 350.92C195.124 350.77 195.424 350.565 195.684 350.305C195.954 350.035 196.164 349.72 196.314 349.36C196.474 348.99 196.554 348.58 196.554 348.13V348.1C196.554 347.65 196.474 347.245 196.314 346.885C196.164 346.515 195.954 346.2 195.684 345.94C195.424 345.68 195.124 345.48 194.784 345.34C194.454 345.19 194.109 345.115 193.749 345.115C193.369 345.115 193.014 345.185 192.684 345.325C192.354 345.455 192.064 345.65 191.814 345.91C191.574 346.16 191.379 346.47 191.229 346.84C191.089 347.21 191.019 347.63 191.019 348.1V348.13C191.019 348.59 191.094 349.005 191.244 349.375C191.394 349.745 191.594 350.06 191.844 350.32C192.094 350.58 192.384 350.78 192.714 350.92C193.044 351.06 193.389 351.13 193.749 351.13ZM200.094 353.305C200.474 353.165 200.744 352.99 200.904 352.78C201.064 352.58 201.129 352.32 201.099 352H200.559V350.425H201.939V351.775C201.939 352.385 201.804 352.845 201.534 353.155C201.264 353.475 200.844 353.7 200.274 353.83L200.094 353.305ZM73.0206 367.15C72.1806 367.15 71.4106 367.015 70.7106 366.745C70.0206 366.465 69.3606 366.04 68.7306 365.47L69.4656 364.6C70.0156 365.1 70.5706 365.475 71.1306 365.725C71.6906 365.965 72.3356 366.085 73.0656 366.085C73.7756 366.085 74.3406 365.92 74.7606 365.59C75.1906 365.25 75.4056 364.82 75.4056 364.3V364.27C75.4056 364.03 75.3656 363.815 75.2856 363.625C75.2056 363.425 75.0656 363.245 74.8656 363.085C74.6656 362.925 74.3856 362.78 74.0256 362.65C73.6756 362.52 73.2256 362.395 72.6756 362.275C72.0756 362.145 71.5506 361.995 71.1006 361.825C70.6606 361.655 70.2956 361.45 70.0056 361.21C69.7156 360.97 69.5006 360.69 69.3606 360.37C69.2206 360.05 69.1506 359.675 69.1506 359.245V359.215C69.1506 358.805 69.2356 358.425 69.4056 358.075C69.5756 357.725 69.8156 357.425 70.1256 357.175C70.4356 356.915 70.8006 356.715 71.2206 356.575C71.6406 356.425 72.1006 356.35 72.6006 356.35C73.3706 356.35 74.0406 356.46 74.6106 356.68C75.1906 356.89 75.7506 357.21 76.2906 357.64L75.6006 358.555C75.1106 358.155 74.6156 357.865 74.1156 357.685C73.6256 357.505 73.1106 357.415 72.5706 357.415C71.8806 357.415 71.3356 357.58 70.9356 357.91C70.5356 358.23 70.3356 358.63 70.3356 359.11V359.14C70.3356 359.39 70.3756 359.615 70.4556 359.815C70.5356 360.005 70.6806 360.185 70.8906 360.355C71.1006 360.515 71.3906 360.665 71.7606 360.805C72.1306 360.935 72.6056 361.06 73.1856 361.18C74.3556 361.44 75.2156 361.8 75.7656 362.26C76.3256 362.72 76.6056 363.35 76.6056 364.15V364.18C76.6056 364.63 76.5156 365.04 76.3356 365.41C76.1556 365.77 75.9056 366.08 75.5856 366.34C75.2756 366.6 74.9006 366.8 74.4606 366.94C74.0206 367.08 73.5406 367.15 73.0206 367.15ZM79.3754 359.245H80.5304V367H79.3754V359.245ZM79.3004 356.425H80.6204V357.7H79.3004V356.425ZM83.6608 359.245H84.8158V360.595C85.0758 360.175 85.4158 359.82 85.8358 359.53C86.2558 359.23 86.8008 359.08 87.4708 359.08C87.9408 359.08 88.3558 359.155 88.7158 359.305C89.0858 359.455 89.3958 359.67 89.6458 359.95C89.9058 360.22 90.1008 360.545 90.2308 360.925C90.3708 361.305 90.4408 361.725 90.4408 362.185V367H89.2858V362.47C89.2858 361.75 89.1008 361.18 88.7308 360.76C88.3608 360.34 87.8308 360.13 87.1408 360.13C86.8108 360.13 86.5008 360.19 86.2108 360.31C85.9308 360.42 85.6858 360.585 85.4758 360.805C85.2658 361.015 85.1008 361.27 84.9808 361.57C84.8708 361.87 84.8158 362.2 84.8158 362.56V367H83.6608V359.245ZM96.789 369.43C96.139 369.43 95.519 369.34 94.929 369.16C94.339 368.98 93.784 368.71 93.264 368.35L93.789 367.45C94.239 367.77 94.709 368.015 95.199 368.185C95.689 368.355 96.214 368.44 96.774 368.44C97.634 368.44 98.319 368.205 98.829 367.735C99.339 367.275 99.594 366.59 99.594 365.68V364.765C99.254 365.215 98.839 365.6 98.349 365.92C97.859 366.24 97.259 366.4 96.549 366.4C96.079 366.4 95.624 366.315 95.184 366.145C94.754 365.975 94.369 365.735 94.029 365.425C93.689 365.105 93.414 364.725 93.204 364.285C93.004 363.835 92.904 363.33 92.904 362.77V362.74C92.904 362.17 93.004 361.66 93.204 361.21C93.414 360.76 93.689 360.38 94.029 360.07C94.369 359.75 94.759 359.505 95.199 359.335C95.639 359.165 96.089 359.08 96.549 359.08C96.909 359.08 97.239 359.125 97.539 359.215C97.849 359.295 98.124 359.405 98.364 359.545C98.614 359.685 98.839 359.85 99.039 360.04C99.239 360.23 99.419 360.43 99.579 360.64V359.245H100.734V365.65C100.734 366.25 100.649 366.775 100.479 367.225C100.309 367.685 100.064 368.075 99.744 368.395C99.394 368.745 98.969 369.005 98.469 369.175C97.969 369.345 97.409 369.43 96.789 369.43ZM96.774 365.38C97.144 365.38 97.499 365.32 97.839 365.2C98.179 365.07 98.479 364.89 98.739 364.66C99.009 364.42 99.224 364.14 99.384 363.82C99.544 363.5 99.624 363.145 99.624 362.755V362.725C99.624 362.325 99.544 361.965 99.384 361.645C99.224 361.325 99.009 361.05 98.739 360.82C98.479 360.59 98.179 360.415 97.839 360.295C97.499 360.165 97.144 360.1 96.774 360.1C96.404 360.1 96.054 360.165 95.724 360.295C95.404 360.415 95.119 360.59 94.869 360.82C94.629 361.04 94.439 361.31 94.299 361.63C94.159 361.95 94.089 362.31 94.089 362.71V362.74C94.089 363.13 94.159 363.49 94.299 363.82C94.449 364.14 94.644 364.415 94.884 364.645C95.134 364.875 95.419 365.055 95.739 365.185C96.069 365.315 96.414 365.38 96.774 365.38ZM106.075 367.165C105.715 367.165 105.36 367.115 105.01 367.015C104.67 366.915 104.36 366.765 104.08 366.565C103.81 366.355 103.59 366.1 103.42 365.8C103.26 365.5 103.18 365.15 103.18 364.75V364.72C103.18 364.31 103.26 363.95 103.42 363.64C103.58 363.33 103.805 363.07 104.095 362.86C104.395 362.65 104.745 362.49 105.145 362.38C105.555 362.27 106.005 362.215 106.495 362.215C106.995 362.215 107.43 362.245 107.8 362.305C108.17 362.365 108.53 362.445 108.88 362.545V362.275C108.88 361.575 108.675 361.05 108.265 360.7C107.865 360.34 107.3 360.16 106.57 360.16C106.11 360.16 105.69 360.215 105.31 360.325C104.94 360.425 104.575 360.56 104.215 360.73L103.87 359.785C104.3 359.585 104.735 359.43 105.175 359.32C105.615 359.2 106.12 359.14 106.69 359.14C107.79 359.14 108.625 359.425 109.195 359.995C109.725 360.525 109.99 361.28 109.99 362.26V367H108.88V365.83C108.61 366.18 108.245 366.49 107.785 366.76C107.335 367.03 106.765 367.165 106.075 367.165ZM106.3 366.25C106.66 366.25 106.995 366.2 107.305 366.1C107.625 365.99 107.9 365.845 108.13 365.665C108.37 365.475 108.555 365.255 108.685 365.005C108.825 364.745 108.895 364.46 108.895 364.15V363.4C108.605 363.32 108.27 363.245 107.89 363.175C107.52 363.105 107.095 363.07 106.615 363.07C105.885 363.07 105.325 363.215 104.935 363.505C104.545 363.795 104.35 364.185 104.35 364.675V364.705C104.35 364.945 104.4 365.165 104.5 365.365C104.61 365.555 104.755 365.715 104.935 365.845C105.115 365.975 105.32 366.075 105.55 366.145C105.79 366.215 106.04 366.25 106.3 366.25ZM112.901 359.245H114.056V360.805C114.216 360.575 114.391 360.355 114.581 360.145C114.781 359.935 115.001 359.755 115.241 359.605C115.481 359.445 115.746 359.32 116.036 359.23C116.336 359.13 116.666 359.08 117.026 359.08C117.486 359.08 117.936 359.17 118.376 359.35C118.826 359.53 119.226 359.795 119.576 360.145C119.926 360.485 120.206 360.905 120.416 361.405C120.626 361.895 120.731 362.46 120.731 363.1V363.13C120.731 363.76 120.626 364.325 120.416 364.825C120.206 365.325 119.926 365.75 119.576 366.1C119.236 366.44 118.841 366.705 118.391 366.895C117.951 367.075 117.496 367.165 117.026 367.165C116.666 367.165 116.336 367.12 116.036 367.03C115.736 366.94 115.466 366.82 115.226 366.67C114.986 366.52 114.766 366.345 114.566 366.145C114.376 365.945 114.206 365.735 114.056 365.515V369.4H112.901V359.245ZM116.816 366.13C117.186 366.13 117.536 366.065 117.866 365.935C118.206 365.795 118.496 365.6 118.736 365.35C118.986 365.09 119.181 364.775 119.321 364.405C119.471 364.035 119.546 363.615 119.546 363.145V363.115C119.546 362.655 119.471 362.24 119.321 361.87C119.181 361.5 118.986 361.185 118.736 360.925C118.486 360.665 118.196 360.465 117.866 360.325C117.536 360.185 117.186 360.115 116.816 360.115C116.456 360.115 116.106 360.19 115.766 360.34C115.436 360.48 115.136 360.685 114.866 360.955C114.606 361.215 114.396 361.53 114.236 361.9C114.086 362.26 114.011 362.66 114.011 363.1V363.13C114.011 363.58 114.086 363.99 114.236 364.36C114.396 364.73 114.606 365.045 114.866 365.305C115.136 365.565 115.436 365.77 115.766 365.92C116.106 366.06 116.456 366.13 116.816 366.13ZM126.852 367.18C126.272 367.18 125.737 367.075 125.247 366.865C124.757 366.645 124.332 366.355 123.972 365.995C123.612 365.625 123.332 365.2 123.132 364.72C122.932 364.23 122.832 363.71 122.832 363.16V363.13C122.832 362.58 122.932 362.06 123.132 361.57C123.332 361.08 123.612 360.65 123.972 360.28C124.332 359.91 124.757 359.62 125.247 359.41C125.747 359.19 126.292 359.08 126.882 359.08C127.462 359.08 127.997 359.19 128.487 359.41C128.987 359.62 129.417 359.91 129.777 360.28C130.137 360.64 130.417 361.065 130.617 361.555C130.817 362.035 130.917 362.55 130.917 363.1V363.13C130.917 363.68 130.812 364.2 130.602 364.69C130.402 365.18 130.122 365.61 129.762 365.98C129.402 366.35 128.972 366.645 128.472 366.865C127.972 367.075 127.432 367.18 126.852 367.18ZM126.882 366.145C127.302 366.145 127.687 366.065 128.037 365.905C128.387 365.745 128.687 365.53 128.937 365.26C129.187 364.99 129.382 364.675 129.522 364.315C129.662 363.955 129.732 363.57 129.732 363.16V363.13C129.732 362.71 129.657 362.32 129.507 361.96C129.367 361.59 129.167 361.27 128.907 361C128.647 360.72 128.342 360.5 127.992 360.34C127.642 360.18 127.262 360.1 126.852 360.1C126.432 360.1 126.047 360.18 125.697 360.34C125.347 360.5 125.047 360.715 124.797 360.985C124.557 361.255 124.367 361.575 124.227 361.945C124.087 362.305 124.017 362.69 124.017 363.1V363.13C124.017 363.55 124.087 363.945 124.227 364.315C124.377 364.675 124.577 364.99 124.827 365.26C125.087 365.53 125.392 365.745 125.742 365.905C126.092 366.065 126.472 366.145 126.882 366.145ZM133.46 359.245H134.615V361.27C134.755 360.95 134.93 360.655 135.14 360.385C135.35 360.115 135.59 359.885 135.86 359.695C136.13 359.495 136.425 359.345 136.745 359.245C137.065 359.145 137.41 359.1 137.78 359.11V360.355H137.69C137.27 360.355 136.87 360.43 136.49 360.58C136.12 360.73 135.795 360.955 135.515 361.255C135.235 361.555 135.015 361.93 134.855 362.38C134.695 362.82 134.615 363.33 134.615 363.91V367H133.46V359.245ZM143.042 367.18C142.512 367.18 142.012 367.085 141.542 366.895C141.072 366.695 140.662 366.42 140.312 366.07C139.962 365.71 139.682 365.285 139.472 364.795C139.272 364.295 139.172 363.745 139.172 363.145V363.115C139.172 362.555 139.262 362.03 139.442 361.54C139.632 361.05 139.892 360.625 140.222 360.265C140.552 359.895 140.942 359.605 141.392 359.395C141.852 359.185 142.352 359.08 142.892 359.08C143.462 359.08 143.972 359.19 144.422 359.41C144.872 359.62 145.252 359.91 145.562 360.28C145.872 360.65 146.107 361.085 146.267 361.585C146.427 362.075 146.507 362.605 146.507 363.175C146.507 363.255 146.507 363.32 146.507 363.37C146.507 363.42 146.502 363.48 146.492 363.55H140.342C140.382 363.97 140.482 364.345 140.642 364.675C140.802 364.995 141.002 365.27 141.242 365.5C141.492 365.72 141.772 365.89 142.082 366.01C142.392 366.12 142.722 366.175 143.072 366.175C143.612 366.175 144.072 366.075 144.452 365.875C144.842 365.675 145.197 365.41 145.517 365.08L146.237 365.725C145.847 366.165 145.402 366.52 144.902 366.79C144.402 367.05 143.782 367.18 143.042 367.18ZM145.337 362.695C145.307 362.345 145.232 362.01 145.112 361.69C145.002 361.37 144.842 361.09 144.632 360.85C144.432 360.61 144.182 360.42 143.882 360.28C143.592 360.13 143.252 360.055 142.862 360.055C142.522 360.055 142.207 360.125 141.917 360.265C141.627 360.395 141.372 360.58 141.152 360.82C140.932 361.05 140.752 361.325 140.612 361.645C140.472 361.965 140.382 362.315 140.342 362.695H145.337ZM148.232 368.305C148.612 368.165 148.882 367.99 149.042 367.78C149.202 367.58 149.267 367.32 149.237 367H148.697V365.425H150.077V366.775C150.077 367.385 149.942 367.845 149.672 368.155C149.402 368.475 148.982 368.7 148.412 368.83L148.232 368.305ZM161.971 367.18C161.291 367.18 160.676 367.04 160.126 366.76C159.586 366.47 159.121 366.08 158.731 365.59C158.351 365.09 158.056 364.515 157.846 363.865C157.646 363.215 157.546 362.52 157.546 361.78V361.75C157.546 361.02 157.651 360.325 157.861 359.665C158.071 359.005 158.371 358.43 158.761 357.94C159.151 357.44 159.616 357.045 160.156 356.755C160.706 356.465 161.321 356.32 162.001 356.32C162.671 356.32 163.276 356.465 163.816 356.755C164.366 357.035 164.831 357.425 165.211 357.925C165.601 358.415 165.896 358.99 166.096 359.65C166.306 360.3 166.411 360.99 166.411 361.72V361.75C166.411 362.49 166.306 363.19 166.096 363.85C165.886 364.5 165.586 365.075 165.196 365.575C164.816 366.065 164.351 366.455 163.801 366.745C163.251 367.035 162.641 367.18 161.971 367.18ZM162.001 366.1C162.491 366.1 162.931 365.985 163.321 365.755C163.721 365.515 164.056 365.2 164.326 364.81C164.606 364.41 164.816 363.95 164.956 363.43C165.106 362.9 165.181 362.35 165.181 361.78V361.75C165.181 361.18 165.106 360.635 164.956 360.115C164.806 359.585 164.591 359.12 164.311 358.72C164.031 358.32 163.691 358 163.291 357.76C162.901 357.52 162.461 357.4 161.971 357.4C161.481 357.4 161.036 357.52 160.636 357.76C160.246 357.99 159.911 358.305 159.631 358.705C159.361 359.095 159.151 359.55 159.001 360.07C158.851 360.59 158.776 361.14 158.776 361.72V361.75C158.776 362.32 158.851 362.87 159.001 363.4C159.151 363.92 159.366 364.38 159.646 364.78C159.926 365.18 160.266 365.5 160.666 365.74C161.066 365.98 161.511 366.1 162.001 366.1ZM174.144 357.58H168.369V356.5H175.494V357.385L170.724 367H169.404L174.144 357.58ZM180.97 366.1C181.48 366.1 181.925 365.98 182.305 365.74C182.695 365.49 183.02 365.165 183.28 364.765C183.55 364.355 183.75 363.89 183.88 363.37C184.02 362.84 184.09 362.29 184.09 361.72V361.51C183.76 362.02 183.35 362.425 182.86 362.725C182.38 363.025 181.8 363.175 181.12 363.175C180.58 363.175 180.085 363.095 179.635 362.935C179.185 362.775 178.8 362.55 178.48 362.26C178.16 361.97 177.91 361.625 177.73 361.225C177.55 360.825 177.46 360.39 177.46 359.92V359.89C177.46 359.39 177.55 358.925 177.73 358.495C177.92 358.055 178.18 357.675 178.51 357.355C178.84 357.035 179.235 356.785 179.695 356.605C180.165 356.415 180.68 356.32 181.24 356.32C181.84 356.32 182.365 356.415 182.815 356.605C183.265 356.795 183.66 357.06 184 357.4C184.4 357.8 184.715 358.315 184.945 358.945C185.185 359.575 185.305 360.415 185.305 361.465V361.495C185.305 362.325 185.2 363.09 184.99 363.79C184.78 364.49 184.48 365.09 184.09 365.59C183.71 366.09 183.25 366.48 182.71 366.76C182.18 367.04 181.59 367.18 180.94 367.18C180.25 367.18 179.65 367.06 179.14 366.82C178.63 366.57 178.15 366.26 177.7 365.89L178.39 364.975C178.82 365.355 179.24 365.64 179.65 365.83C180.06 366.01 180.5 366.1 180.97 366.1ZM181.255 362.155C181.655 362.155 182.015 362.09 182.335 361.96C182.665 361.82 182.94 361.64 183.16 361.42C183.39 361.2 183.565 360.95 183.685 360.67C183.805 360.38 183.865 360.085 183.865 359.785V359.755C183.865 359.425 183.8 359.115 183.67 358.825C183.54 358.535 183.355 358.285 183.115 358.075C182.885 357.855 182.605 357.685 182.275 357.565C181.945 357.435 181.585 357.37 181.195 357.37C180.805 357.37 180.45 357.44 180.13 357.58C179.82 357.71 179.555 357.89 179.335 358.12C179.125 358.34 178.96 358.6 178.84 358.9C178.73 359.19 178.675 359.5 178.675 359.83V359.86C178.675 360.19 178.735 360.5 178.855 360.79C178.985 361.07 179.16 361.31 179.38 361.51C179.61 361.71 179.885 361.87 180.205 361.99C180.525 362.1 180.875 362.155 181.255 362.155ZM191.132 366.1C191.642 366.1 192.087 365.98 192.467 365.74C192.857 365.49 193.182 365.165 193.442 364.765C193.712 364.355 193.912 363.89 194.042 363.37C194.182 362.84 194.252 362.29 194.252 361.72V361.51C193.922 362.02 193.512 362.425 193.022 362.725C192.542 363.025 191.962 363.175 191.282 363.175C190.742 363.175 190.247 363.095 189.797 362.935C189.347 362.775 188.962 362.55 188.642 362.26C188.322 361.97 188.072 361.625 187.892 361.225C187.712 360.825 187.622 360.39 187.622 359.92V359.89C187.622 359.39 187.712 358.925 187.892 358.495C188.082 358.055 188.342 357.675 188.672 357.355C189.002 357.035 189.397 356.785 189.857 356.605C190.327 356.415 190.842 356.32 191.402 356.32C192.002 356.32 192.527 356.415 192.977 356.605C193.427 356.795 193.822 357.06 194.162 357.4C194.562 357.8 194.877 358.315 195.107 358.945C195.347 359.575 195.467 360.415 195.467 361.465V361.495C195.467 362.325 195.362 363.09 195.152 363.79C194.942 364.49 194.642 365.09 194.252 365.59C193.872 366.09 193.412 366.48 192.872 366.76C192.342 367.04 191.752 367.18 191.102 367.18C190.412 367.18 189.812 367.06 189.302 366.82C188.792 366.57 188.312 366.26 187.862 365.89L188.552 364.975C188.982 365.355 189.402 365.64 189.812 365.83C190.222 366.01 190.662 366.1 191.132 366.1ZM191.417 362.155C191.817 362.155 192.177 362.09 192.497 361.96C192.827 361.82 193.102 361.64 193.322 361.42C193.552 361.2 193.727 360.95 193.847 360.67C193.967 360.38 194.027 360.085 194.027 359.785V359.755C194.027 359.425 193.962 359.115 193.832 358.825C193.702 358.535 193.517 358.285 193.277 358.075C193.047 357.855 192.767 357.685 192.437 357.565C192.107 357.435 191.747 357.37 191.357 357.37C190.967 357.37 190.612 357.44 190.292 357.58C189.982 357.71 189.717 357.89 189.497 358.12C189.287 358.34 189.122 358.6 189.002 358.9C188.892 359.19 188.837 359.5 188.837 359.83V359.86C188.837 360.19 188.897 360.5 189.017 360.79C189.147 361.07 189.322 361.31 189.542 361.51C189.772 361.71 190.047 361.87 190.367 361.99C190.687 362.1 191.037 362.155 191.417 362.155ZM202.194 367.18C201.514 367.18 200.899 367.04 200.349 366.76C199.809 366.47 199.344 366.08 198.954 365.59C198.574 365.09 198.279 364.515 198.069 363.865C197.869 363.215 197.769 362.52 197.769 361.78V361.75C197.769 361.02 197.874 360.325 198.084 359.665C198.294 359.005 198.594 358.43 198.984 357.94C199.374 357.44 199.839 357.045 200.379 356.755C200.929 356.465 201.544 356.32 202.224 356.32C202.894 356.32 203.499 356.465 204.039 356.755C204.589 357.035 205.054 357.425 205.434 357.925C205.824 358.415 206.119 358.99 206.319 359.65C206.529 360.3 206.634 360.99 206.634 361.72V361.75C206.634 362.49 206.529 363.19 206.319 363.85C206.109 364.5 205.809 365.075 205.419 365.575C205.039 366.065 204.574 366.455 204.024 366.745C203.474 367.035 202.864 367.18 202.194 367.18ZM202.224 366.1C202.714 366.1 203.154 365.985 203.544 365.755C203.944 365.515 204.279 365.2 204.549 364.81C204.829 364.41 205.039 363.95 205.179 363.43C205.329 362.9 205.404 362.35 205.404 361.78V361.75C205.404 361.18 205.329 360.635 205.179 360.115C205.029 359.585 204.814 359.12 204.534 358.72C204.254 358.32 203.914 358 203.514 357.76C203.124 357.52 202.684 357.4 202.194 357.4C201.704 357.4 201.259 357.52 200.859 357.76C200.469 357.99 200.134 358.305 199.854 358.705C199.584 359.095 199.374 359.55 199.224 360.07C199.074 360.59 198.999 361.14 198.999 361.72V361.75C198.999 362.32 199.074 362.87 199.224 363.4C199.374 363.92 199.589 364.38 199.869 364.78C200.149 365.18 200.489 365.5 200.889 365.74C201.289 365.98 201.734 366.1 202.224 366.1ZM212.53 367.18C211.65 367.18 210.885 367.01 210.235 366.67C209.585 366.32 209.045 365.865 208.615 365.305L209.485 364.54C209.885 365.04 210.33 365.425 210.82 365.695C211.32 365.965 211.895 366.1 212.545 366.1C212.865 366.1 213.165 366.055 213.445 365.965C213.725 365.865 213.965 365.725 214.165 365.545C214.375 365.365 214.54 365.15 214.66 364.9C214.78 364.65 214.84 364.37 214.84 364.06V364.03C214.84 363.7 214.765 363.41 214.615 363.16C214.475 362.91 214.275 362.7 214.015 362.53C213.755 362.36 213.445 362.23 213.085 362.14C212.725 362.05 212.33 362.005 211.9 362.005H211.225L210.985 361.3L214.3 357.565H209.17V356.5H215.875V357.37L212.575 361.03C213.035 361.07 213.47 361.155 213.88 361.285C214.3 361.415 214.67 361.6 214.99 361.84C215.31 362.08 215.565 362.38 215.755 362.74C215.945 363.09 216.04 363.505 216.04 363.985V364.015C216.04 364.485 215.945 364.915 215.755 365.305C215.575 365.695 215.325 366.03 215.005 366.31C214.695 366.58 214.325 366.795 213.895 366.955C213.475 367.105 213.02 367.18 212.53 367.18Z" fill="white"/>
<path opacity="0.2" d="M250 400H35" stroke="url(#paint2_linear_515_4647)"/>
<g clip-path="url(#clip3_515_4647)">
<path d="M154.336 438.794C154.131 438.143 153.723 437.575 153.17 437.174C152.618 436.774 151.951 436.561 151.269 436.568H146.9L145.573 432.432C145.364 431.781 144.954 431.213 144.402 430.811C143.849 430.408 143.183 430.19 142.5 430.19C141.816 430.19 141.15 430.408 140.598 430.811C140.046 431.213 139.636 431.781 139.427 432.432L138.1 436.568H133.731C133.051 436.569 132.388 436.785 131.838 437.185C131.288 437.585 130.878 438.149 130.667 438.796C130.456 439.443 130.455 440.139 130.664 440.787C130.873 441.434 131.282 441.999 131.831 442.4L135.387 445L134.035 449.187C133.816 449.837 133.814 450.539 134.027 451.191C134.24 451.842 134.658 452.406 135.219 452.8C135.77 453.207 136.437 453.425 137.122 453.422C137.807 453.418 138.472 453.194 139.019 452.781L142.5 450.219L145.982 452.778C146.532 453.183 147.196 453.403 147.878 453.406C148.561 453.409 149.227 453.196 149.781 452.797C150.334 452.398 150.747 451.833 150.96 451.185C151.173 450.536 151.175 449.837 150.965 449.187L149.613 445L153.173 442.4C153.728 442.004 154.141 441.439 154.351 440.79C154.56 440.14 154.555 439.441 154.336 438.794ZM151.993 440.785L147.849 443.814C147.679 443.939 147.552 444.113 147.487 444.314C147.422 444.514 147.422 444.73 147.487 444.93L149.062 449.8C149.142 450.047 149.141 450.313 149.06 450.56C148.979 450.807 148.822 451.021 148.611 451.173C148.401 451.325 148.147 451.406 147.888 451.404C147.628 451.403 147.376 451.319 147.167 451.165L143.092 448.165C142.92 448.039 142.713 447.971 142.5 447.971C142.287 447.971 142.079 448.039 141.908 448.165L137.833 451.165C137.624 451.321 137.371 451.407 137.11 451.409C136.849 451.411 136.595 451.331 136.383 451.179C136.171 451.026 136.014 450.811 135.933 450.563C135.852 450.315 135.852 450.048 135.933 449.8L137.513 444.93C137.578 444.73 137.578 444.514 137.513 444.314C137.448 444.113 137.321 443.939 137.151 443.814L133.007 440.785C132.798 440.633 132.643 440.418 132.564 440.172C132.484 439.925 132.485 439.66 132.565 439.415C132.646 439.169 132.802 438.954 133.011 438.802C133.22 438.651 133.472 438.569 133.731 438.568H138.831C139.043 438.568 139.249 438.501 139.42 438.377C139.591 438.252 139.718 438.076 139.783 437.874L141.333 433.043C141.412 432.796 141.568 432.581 141.778 432.428C141.988 432.275 142.241 432.192 142.501 432.192C142.761 432.192 143.014 432.275 143.223 432.428C143.433 432.581 143.589 432.796 143.669 433.043L145.219 437.874C145.284 438.076 145.411 438.252 145.582 438.377C145.753 438.501 145.959 438.568 146.171 438.568H151.271C151.529 438.569 151.781 438.651 151.991 438.802C152.2 438.954 152.356 439.169 152.436 439.415C152.517 439.66 152.517 439.925 152.438 440.172C152.359 440.418 152.204 440.633 151.995 440.785H151.993Z" fill="white"/>
</g>
<path d="M95.4987 468.5H99.1437C99.9637 468.5 100.714 468.635 101.394 468.905C102.084 469.165 102.674 469.53 103.164 470C103.664 470.47 104.049 471.025 104.319 471.665C104.589 472.295 104.724 472.98 104.724 473.72V473.75C104.724 474.49 104.589 475.18 104.319 475.82C104.049 476.46 103.664 477.015 103.164 477.485C102.674 477.955 102.084 478.325 101.394 478.595C100.714 478.865 99.9637 479 99.1437 479H95.4987V468.5ZM96.6837 469.595V477.905H99.1437C99.8037 477.905 100.404 477.8 100.944 477.59C101.484 477.38 101.939 477.09 102.309 476.72C102.689 476.35 102.979 475.915 103.179 475.415C103.389 474.905 103.494 474.36 103.494 473.78V473.75C103.494 473.17 103.389 472.63 103.179 472.13C102.979 471.62 102.689 471.18 102.309 470.81C101.939 470.43 101.484 470.135 100.944 469.925C100.404 469.705 99.8037 469.595 99.1437 469.595H96.6837ZM107.232 468.5H111.747C112.397 468.5 112.972 468.595 113.472 468.785C113.982 468.965 114.402 469.22 114.732 469.55C114.992 469.81 115.192 470.115 115.332 470.465C115.472 470.815 115.542 471.2 115.542 471.62V471.65C115.542 472.09 115.472 472.485 115.332 472.835C115.192 473.175 114.992 473.475 114.732 473.735C114.482 473.985 114.182 474.195 113.832 474.365C113.482 474.525 113.102 474.64 112.692 474.71L115.917 479H114.462L111.417 474.92H108.417V479H107.232V468.5ZM111.642 473.855C112.032 473.855 112.392 473.805 112.722 473.705C113.052 473.605 113.337 473.465 113.577 473.285C113.817 473.095 114.002 472.87 114.132 472.61C114.272 472.34 114.342 472.035 114.342 471.695V471.665C114.342 471.015 114.107 470.51 113.637 470.15C113.167 469.78 112.507 469.595 111.657 469.595H108.417V473.855H111.642ZM118.072 468.5H125.662V469.58H119.257V473.165H124.987V474.245H119.257V477.92H125.737V479H118.072V468.5ZM131.721 479.15C130.881 479.15 130.111 479.015 129.411 478.745C128.721 478.465 128.061 478.04 127.431 477.47L128.166 476.6C128.716 477.1 129.271 477.475 129.831 477.725C130.391 477.965 131.036 478.085 131.766 478.085C132.476 478.085 133.041 477.92 133.461 477.59C133.891 477.25 134.106 476.82 134.106 476.3V476.27C134.106 476.03 134.066 475.815 133.986 475.625C133.906 475.425 133.766 475.245 133.566 475.085C133.366 474.925 133.086 474.78 132.726 474.65C132.376 474.52 131.926 474.395 131.376 474.275C130.776 474.145 130.251 473.995 129.801 473.825C129.361 473.655 128.996 473.45 128.706 473.21C128.416 472.97 128.201 472.69 128.061 472.37C127.921 472.05 127.851 471.675 127.851 471.245V471.215C127.851 470.805 127.936 470.425 128.106 470.075C128.276 469.725 128.516 469.425 128.826 469.175C129.136 468.915 129.501 468.715 129.921 468.575C130.341 468.425 130.801 468.35 131.301 468.35C132.071 468.35 132.741 468.46 133.311 468.68C133.891 468.89 134.451 469.21 134.991 469.64L134.301 470.555C133.811 470.155 133.316 469.865 132.816 469.685C132.326 469.505 131.811 469.415 131.271 469.415C130.581 469.415 130.036 469.58 129.636 469.91C129.236 470.23 129.036 470.63 129.036 471.11V471.14C129.036 471.39 129.076 471.615 129.156 471.815C129.236 472.005 129.381 472.185 129.591 472.355C129.801 472.515 130.091 472.665 130.461 472.805C130.831 472.935 131.306 473.06 131.886 473.18C133.056 473.44 133.916 473.8 134.466 474.26C135.026 474.72 135.306 475.35 135.306 476.15V476.18C135.306 476.63 135.216 477.04 135.036 477.41C134.856 477.77 134.606 478.08 134.286 478.34C133.976 478.6 133.601 478.8 133.161 478.94C132.721 479.08 132.241 479.15 131.721 479.15ZM141.169 479.15C140.329 479.15 139.559 479.015 138.859 478.745C138.169 478.465 137.509 478.04 136.879 477.47L137.614 476.6C138.164 477.1 138.719 477.475 139.279 477.725C139.839 477.965 140.484 478.085 141.214 478.085C141.924 478.085 142.489 477.92 142.909 477.59C143.339 477.25 143.554 476.82 143.554 476.3V476.27C143.554 476.03 143.514 475.815 143.434 475.625C143.354 475.425 143.214 475.245 143.014 475.085C142.814 474.925 142.534 474.78 142.174 474.65C141.824 474.52 141.374 474.395 140.824 474.275C140.224 474.145 139.699 473.995 139.249 473.825C138.809 473.655 138.444 473.45 138.154 473.21C137.864 472.97 137.649 472.69 137.509 472.37C137.369 472.05 137.299 471.675 137.299 471.245V471.215C137.299 470.805 137.384 470.425 137.554 470.075C137.724 469.725 137.964 469.425 138.274 469.175C138.584 468.915 138.949 468.715 139.369 468.575C139.789 468.425 140.249 468.35 140.749 468.35C141.519 468.35 142.189 468.46 142.759 468.68C143.339 468.89 143.899 469.21 144.439 469.64L143.749 470.555C143.259 470.155 142.764 469.865 142.264 469.685C141.774 469.505 141.259 469.415 140.719 469.415C140.029 469.415 139.484 469.58 139.084 469.91C138.684 470.23 138.484 470.63 138.484 471.11V471.14C138.484 471.39 138.524 471.615 138.604 471.815C138.684 472.005 138.829 472.185 139.039 472.355C139.249 472.515 139.539 472.665 139.909 472.805C140.279 472.935 140.754 473.06 141.334 473.18C142.504 473.44 143.364 473.8 143.914 474.26C144.474 474.72 144.754 475.35 144.754 476.15V476.18C144.754 476.63 144.664 477.04 144.484 477.41C144.304 477.77 144.054 478.08 143.734 478.34C143.424 478.6 143.049 478.8 142.609 478.94C142.169 479.08 141.689 479.15 141.169 479.15ZM151.964 479.18C151.204 479.18 150.504 479.04 149.864 478.76C149.224 478.48 148.669 478.1 148.199 477.62C147.729 477.13 147.359 476.555 147.089 475.895C146.829 475.235 146.699 474.53 146.699 473.78V473.75C146.699 473.01 146.829 472.31 147.089 471.65C147.359 470.99 147.729 470.415 148.199 469.925C148.669 469.425 149.229 469.035 149.879 468.755C150.529 468.465 151.239 468.32 152.009 468.32C152.489 468.32 152.919 468.36 153.299 468.44C153.689 468.52 154.049 468.635 154.379 468.785C154.709 468.925 155.014 469.1 155.294 469.31C155.574 469.51 155.844 469.735 156.104 469.985L155.294 470.855C154.844 470.435 154.359 470.09 153.839 469.82C153.329 469.55 152.714 469.415 151.994 469.415C151.414 469.415 150.874 469.525 150.374 469.745C149.884 469.965 149.454 470.27 149.084 470.66C148.724 471.05 148.439 471.51 148.229 472.04C148.029 472.56 147.929 473.12 147.929 473.72V473.75C147.929 474.36 148.029 474.93 148.229 475.46C148.439 475.98 148.724 476.435 149.084 476.825C149.454 477.215 149.884 477.525 150.374 477.755C150.874 477.975 151.414 478.085 151.994 478.085C152.714 478.085 153.334 477.955 153.854 477.695C154.374 477.425 154.884 477.05 155.384 476.57L156.164 477.335C155.894 477.615 155.609 477.87 155.309 478.1C155.019 478.32 154.704 478.51 154.364 478.67C154.024 478.83 153.659 478.955 153.269 479.045C152.879 479.135 152.444 479.18 151.964 479.18ZM162.82 479.18C162.02 479.18 161.29 479.035 160.63 478.745C159.98 478.455 159.42 478.065 158.95 477.575C158.48 477.075 158.115 476.5 157.855 475.85C157.605 475.19 157.48 474.5 157.48 473.78V473.75C157.48 473.03 157.61 472.34 157.87 471.68C158.13 471.02 158.495 470.445 158.965 469.955C159.435 469.455 160 469.06 160.66 468.77C161.32 468.47 162.05 468.32 162.85 468.32C163.65 468.32 164.375 468.465 165.025 468.755C165.685 469.045 166.25 469.44 166.72 469.94C167.19 470.43 167.55 471.005 167.8 471.665C168.06 472.315 168.19 473 168.19 473.72V473.75C168.19 474.47 168.06 475.16 167.8 475.82C167.54 476.48 167.175 477.06 166.705 477.56C166.235 478.05 165.67 478.445 165.01 478.745C164.35 479.035 163.62 479.18 162.82 479.18ZM162.85 478.085C163.45 478.085 164 477.975 164.5 477.755C165.01 477.525 165.445 477.215 165.805 476.825C166.165 476.435 166.445 475.98 166.645 475.46C166.855 474.94 166.96 474.38 166.96 473.78V473.75C166.96 473.15 166.855 472.59 166.645 472.07C166.445 471.54 166.16 471.08 165.79 470.69C165.42 470.3 164.98 469.99 164.47 469.76C163.97 469.53 163.42 469.415 162.82 469.415C162.22 469.415 161.665 469.53 161.155 469.76C160.655 469.98 160.225 470.285 159.865 470.675C159.505 471.065 159.22 471.52 159.01 472.04C158.81 472.56 158.71 473.12 158.71 473.72V473.75C158.71 474.35 158.81 474.915 159.01 475.445C159.22 475.965 159.51 476.42 159.88 476.81C160.25 477.2 160.685 477.51 161.185 477.74C161.695 477.97 162.25 478.085 162.85 478.085ZM170.689 468.5H174.334C175.154 468.5 175.904 468.635 176.584 468.905C177.274 469.165 177.864 469.53 178.354 470C178.854 470.47 179.239 471.025 179.509 471.665C179.779 472.295 179.914 472.98 179.914 473.72V473.75C179.914 474.49 179.779 475.18 179.509 475.82C179.239 476.46 178.854 477.015 178.354 477.485C177.864 477.955 177.274 478.325 176.584 478.595C175.904 478.865 175.154 479 174.334 479H170.689V468.5ZM171.874 469.595V477.905H174.334C174.994 477.905 175.594 477.8 176.134 477.59C176.674 477.38 177.129 477.09 177.499 476.72C177.879 476.35 178.169 475.915 178.369 475.415C178.579 474.905 178.684 474.36 178.684 473.78V473.75C178.684 473.17 178.579 472.63 178.369 472.13C178.169 471.62 177.879 471.18 177.499 470.81C177.129 470.43 176.674 470.135 176.134 469.925C175.594 469.705 174.994 469.595 174.334 469.595H171.874ZM182.423 468.5H190.013V469.58H183.608V473.165H189.338V474.245H183.608V477.92H190.088V479H182.423V468.5ZM97.5219 501.15C96.7219 501.15 95.9369 501.015 95.1669 500.745C94.3969 500.465 93.6969 500.04 93.0669 499.47L94.4319 497.835C94.9119 498.225 95.4019 498.535 95.9019 498.765C96.4119 498.995 96.9669 499.11 97.5669 499.11C98.0469 499.11 98.4169 499.025 98.6769 498.855C98.9469 498.675 99.0819 498.43 99.0819 498.12V498.09C99.0819 497.94 99.0519 497.81 98.9919 497.7C98.9419 497.58 98.8369 497.47 98.6769 497.37C98.5269 497.27 98.3119 497.17 98.0319 497.07C97.7619 496.97 97.4069 496.865 96.9669 496.755C96.4369 496.625 95.9569 496.48 95.5269 496.32C95.0969 496.16 94.7319 495.965 94.4319 495.735C94.1319 495.495 93.8969 495.2 93.7269 494.85C93.5669 494.5 93.4869 494.065 93.4869 493.545V493.515C93.4869 493.035 93.5769 492.605 93.7569 492.225C93.9369 491.835 94.1869 491.5 94.5069 491.22C94.8369 490.94 95.2269 490.725 95.6769 490.575C96.1269 490.425 96.6219 490.35 97.1619 490.35C97.9319 490.35 98.6369 490.465 99.2769 490.695C99.9269 490.925 100.522 491.255 101.062 491.685L99.8619 493.425C99.3919 493.105 98.9319 492.855 98.4819 492.675C98.0319 492.485 97.5819 492.39 97.1319 492.39C96.6819 492.39 96.3419 492.48 96.1119 492.66C95.8919 492.83 95.7819 493.045 95.7819 493.305V493.335C95.7819 493.505 95.8119 493.655 95.8719 493.785C95.9419 493.905 96.0619 494.015 96.2319 494.115C96.4019 494.215 96.6319 494.31 96.9219 494.4C97.2219 494.49 97.5969 494.595 98.0469 494.715C98.5769 494.855 99.0469 495.015 99.4569 495.195C99.8769 495.365 100.227 495.575 100.507 495.825C100.797 496.065 101.012 496.35 101.152 496.68C101.302 497.01 101.377 497.405 101.377 497.865V497.895C101.377 498.415 101.282 498.88 101.092 499.29C100.902 499.69 100.637 500.03 100.297 500.31C99.9569 500.58 99.5519 500.79 99.0819 500.94C98.6119 501.08 98.0919 501.15 97.5219 501.15ZM103.142 492.96H105.422V494.1C105.552 493.93 105.692 493.77 105.842 493.62C106.002 493.46 106.177 493.32 106.367 493.2C106.557 493.08 106.767 492.985 106.997 492.915C107.237 492.845 107.502 492.81 107.792 492.81C108.322 492.81 108.777 492.92 109.157 493.14C109.547 493.36 109.847 493.675 110.057 494.085C110.407 493.665 110.797 493.35 111.227 493.14C111.657 492.92 112.147 492.81 112.697 492.81C113.547 492.81 114.212 493.06 114.692 493.56C115.172 494.06 115.412 494.795 115.412 495.765V501H113.132V496.515C113.132 495.975 113.017 495.57 112.787 495.3C112.557 495.02 112.227 494.88 111.797 494.88C111.367 494.88 111.027 495.02 110.777 495.3C110.537 495.57 110.417 495.975 110.417 496.515V501H108.137V496.515C108.137 495.975 108.022 495.57 107.792 495.3C107.562 495.02 107.232 494.88 106.802 494.88C106.372 494.88 106.032 495.02 105.782 495.3C105.542 495.57 105.422 495.975 105.422 496.515V501H103.142V492.96ZM119.675 501.15C119.295 501.15 118.935 501.1 118.595 501C118.265 500.89 117.975 500.73 117.725 500.52C117.475 500.31 117.275 500.055 117.125 499.755C116.985 499.445 116.915 499.09 116.915 498.69V498.66C116.915 498.22 116.995 497.84 117.155 497.52C117.315 497.2 117.535 496.935 117.815 496.725C118.105 496.515 118.445 496.36 118.835 496.26C119.235 496.15 119.675 496.095 120.155 496.095C120.565 496.095 120.92 496.125 121.22 496.185C121.53 496.245 121.83 496.325 122.12 496.425V496.29C122.12 495.81 121.975 495.445 121.685 495.195C121.395 494.945 120.965 494.82 120.395 494.82C119.955 494.82 119.565 494.86 119.225 494.94C118.895 495.01 118.545 495.115 118.175 495.255L117.605 493.515C118.045 493.325 118.505 493.17 118.985 493.05C119.465 492.93 120.045 492.87 120.725 492.87C121.355 492.87 121.89 492.95 122.33 493.11C122.78 493.26 123.15 493.48 123.44 493.77C123.74 494.07 123.96 494.44 124.1 494.88C124.24 495.31 124.31 495.795 124.31 496.335V501H122.105V500.13C121.825 500.44 121.49 500.69 121.1 500.88C120.71 501.06 120.235 501.15 119.675 501.15ZM120.365 499.575C120.905 499.575 121.335 499.445 121.655 499.185C121.985 498.925 122.15 498.585 122.15 498.165V497.76C121.95 497.67 121.725 497.6 121.475 497.55C121.235 497.49 120.975 497.46 120.695 497.46C120.205 497.46 119.82 497.555 119.54 497.745C119.26 497.935 119.12 498.21 119.12 498.57V498.6C119.12 498.91 119.235 499.15 119.465 499.32C119.695 499.49 119.995 499.575 120.365 499.575ZM126.271 492.96H128.551V494.58C128.781 494.03 129.096 493.59 129.496 493.26C129.896 492.93 130.436 492.78 131.116 492.81V495.195H130.996C130.236 495.195 129.636 495.425 129.196 495.885C128.766 496.345 128.551 497.06 128.551 498.03V501H126.271V492.96ZM135.256 501.135C134.906 501.135 134.586 501.095 134.296 501.015C134.016 500.945 133.771 500.815 133.561 500.625C133.361 500.435 133.201 500.19 133.081 499.89C132.971 499.58 132.916 499.19 132.916 498.72V494.91H131.956V492.96H132.916V490.905H135.196V492.96H137.086V494.91H135.196V498.345C135.196 498.865 135.441 499.125 135.931 499.125C136.331 499.125 136.706 499.03 137.056 498.84V500.67C136.816 500.81 136.551 500.92 136.261 501C135.971 501.09 135.636 501.135 135.256 501.135ZM148.424 501.18C147.654 501.18 146.939 501.04 146.279 500.76C145.619 500.48 145.049 500.1 144.569 499.62C144.089 499.13 143.714 498.555 143.444 497.895C143.174 497.235 143.039 496.53 143.039 495.78V495.75C143.039 495 143.174 494.3 143.444 493.65C143.714 492.99 144.089 492.415 144.569 491.925C145.049 491.425 145.624 491.035 146.294 490.755C146.964 490.465 147.704 490.32 148.514 490.32C149.004 490.32 149.449 490.36 149.849 490.44C150.259 490.52 150.629 490.63 150.959 490.77C151.289 490.91 151.594 491.08 151.874 491.28C152.154 491.48 152.414 491.7 152.654 491.94L151.184 493.635C150.774 493.265 150.354 492.975 149.924 492.765C149.504 492.555 149.029 492.45 148.499 492.45C148.059 492.45 147.649 492.535 147.269 492.705C146.899 492.875 146.579 493.11 146.309 493.41C146.039 493.71 145.829 494.06 145.679 494.46C145.529 494.85 145.454 495.27 145.454 495.72V495.75C145.454 496.2 145.529 496.625 145.679 497.025C145.829 497.425 146.034 497.775 146.294 498.075C146.564 498.375 146.884 498.615 147.254 498.795C147.634 498.965 148.049 499.05 148.499 499.05C149.099 499.05 149.604 498.94 150.014 498.72C150.434 498.5 150.849 498.2 151.259 497.82L152.729 499.305C152.459 499.595 152.179 499.855 151.889 500.085C151.599 500.315 151.279 500.515 150.929 500.685C150.589 500.845 150.214 500.965 149.804 501.045C149.394 501.135 148.934 501.18 148.424 501.18ZM156.618 501.15C156.238 501.15 155.878 501.1 155.538 501C155.208 500.89 154.918 500.73 154.668 500.52C154.418 500.31 154.218 500.055 154.068 499.755C153.928 499.445 153.858 499.09 153.858 498.69V498.66C153.858 498.22 153.938 497.84 154.098 497.52C154.258 497.2 154.478 496.935 154.758 496.725C155.048 496.515 155.388 496.36 155.778 496.26C156.178 496.15 156.618 496.095 157.098 496.095C157.508 496.095 157.863 496.125 158.163 496.185C158.473 496.245 158.773 496.325 159.063 496.425V496.29C159.063 495.81 158.918 495.445 158.628 495.195C158.338 494.945 157.908 494.82 157.338 494.82C156.898 494.82 156.508 494.86 156.168 494.94C155.838 495.01 155.488 495.115 155.118 495.255L154.548 493.515C154.988 493.325 155.448 493.17 155.928 493.05C156.408 492.93 156.988 492.87 157.668 492.87C158.298 492.87 158.833 492.95 159.273 493.11C159.723 493.26 160.093 493.48 160.383 493.77C160.683 494.07 160.903 494.44 161.043 494.88C161.183 495.31 161.253 495.795 161.253 496.335V501H159.048V500.13C158.768 500.44 158.433 500.69 158.043 500.88C157.653 501.06 157.178 501.15 156.618 501.15ZM157.308 499.575C157.848 499.575 158.278 499.445 158.598 499.185C158.928 498.925 159.093 498.585 159.093 498.165V497.76C158.893 497.67 158.668 497.6 158.418 497.55C158.178 497.49 157.918 497.46 157.638 497.46C157.148 497.46 156.763 497.555 156.483 497.745C156.203 497.935 156.063 498.21 156.063 498.57V498.6C156.063 498.91 156.178 499.15 156.408 499.32C156.638 499.49 156.938 499.575 157.308 499.575ZM166.035 501.15C165.465 501.15 164.88 501.055 164.28 500.865C163.69 500.665 163.125 500.355 162.585 499.935L163.56 498.435C164 498.755 164.435 498.995 164.865 499.155C165.305 499.315 165.715 499.395 166.095 499.395C166.425 499.395 166.665 499.34 166.815 499.23C166.975 499.12 167.055 498.975 167.055 498.795V498.765C167.055 498.645 167.01 498.54 166.92 498.45C166.83 498.36 166.705 498.285 166.545 498.225C166.395 498.155 166.22 498.09 166.02 498.03C165.82 497.97 165.61 497.905 165.39 497.835C165.11 497.755 164.825 497.66 164.535 497.55C164.255 497.43 164 497.28 163.77 497.1C163.54 496.91 163.35 496.68 163.2 496.41C163.06 496.14 162.99 495.81 162.99 495.42V495.39C162.99 494.98 163.065 494.62 163.215 494.31C163.375 493.99 163.585 493.72 163.845 493.5C164.115 493.28 164.425 493.115 164.775 493.005C165.135 492.895 165.52 492.84 165.93 492.84C166.44 492.84 166.955 492.925 167.475 493.095C168.005 493.255 168.49 493.48 168.93 493.77L168.06 495.345C167.66 495.115 167.27 494.935 166.89 494.805C166.51 494.665 166.175 494.595 165.885 494.595C165.605 494.595 165.395 494.65 165.255 494.76C165.115 494.86 165.045 494.99 165.045 495.15V495.18C165.045 495.29 165.09 495.39 165.18 495.48C165.27 495.56 165.39 495.64 165.54 495.72C165.69 495.79 165.86 495.86 166.05 495.93C166.25 496 166.46 496.07 166.68 496.14C166.96 496.23 167.245 496.34 167.535 496.47C167.825 496.59 168.085 496.74 168.315 496.92C168.545 497.1 168.735 497.32 168.885 497.58C169.035 497.84 169.11 498.155 169.11 498.525V498.555C169.11 499.005 169.03 499.395 168.87 499.725C168.72 500.045 168.505 500.31 168.225 500.52C167.945 500.73 167.615 500.89 167.235 501C166.865 501.1 166.465 501.15 166.035 501.15ZM173.414 501.15C172.544 501.15 171.869 500.885 171.389 500.355C170.919 499.825 170.684 499.095 170.684 498.165V492.96H172.964V497.445C172.964 497.985 173.084 498.395 173.324 498.675C173.564 498.945 173.904 499.08 174.344 499.08C174.784 499.08 175.129 498.945 175.379 498.675C175.639 498.395 175.769 497.985 175.769 497.445V492.96H178.049V501H175.769V499.86C175.639 500.03 175.494 500.195 175.334 500.355C175.184 500.505 175.014 500.64 174.824 500.76C174.634 500.88 174.424 500.975 174.194 501.045C173.964 501.115 173.704 501.15 173.414 501.15ZM182.37 501.15C181.99 501.15 181.63 501.1 181.29 501C180.96 500.89 180.67 500.73 180.42 500.52C180.17 500.31 179.97 500.055 179.82 499.755C179.68 499.445 179.61 499.09 179.61 498.69V498.66C179.61 498.22 179.69 497.84 179.85 497.52C180.01 497.2 180.23 496.935 180.51 496.725C180.8 496.515 181.14 496.36 181.53 496.26C181.93 496.15 182.37 496.095 182.85 496.095C183.26 496.095 183.615 496.125 183.915 496.185C184.225 496.245 184.525 496.325 184.815 496.425V496.29C184.815 495.81 184.67 495.445 184.38 495.195C184.09 494.945 183.66 494.82 183.09 494.82C182.65 494.82 182.26 494.86 181.92 494.94C181.59 495.01 181.24 495.115 180.87 495.255L180.3 493.515C180.74 493.325 181.2 493.17 181.68 493.05C182.16 492.93 182.74 492.87 183.42 492.87C184.05 492.87 184.585 492.95 185.025 493.11C185.475 493.26 185.845 493.48 186.135 493.77C186.435 494.07 186.655 494.44 186.795 494.88C186.935 495.31 187.005 495.795 187.005 496.335V501H184.8V500.13C184.52 500.44 184.185 500.69 183.795 500.88C183.405 501.06 182.93 501.15 182.37 501.15ZM183.06 499.575C183.6 499.575 184.03 499.445 184.35 499.185C184.68 498.925 184.845 498.585 184.845 498.165V497.76C184.645 497.67 184.42 497.6 184.17 497.55C183.93 497.49 183.67 497.46 183.39 497.46C182.9 497.46 182.515 497.555 182.235 497.745C181.955 497.935 181.815 498.21 181.815 498.57V498.6C181.815 498.91 181.93 499.15 182.16 499.32C182.39 499.49 182.69 499.575 183.06 499.575ZM189.072 490.05H191.352V501H189.072V490.05Z" fill="white"/>
<defs>
<linearGradient id="paint0_linear_515_4647" x1="142.495" y1="139" x2="142.495" y2="138" gradientUnits="userSpaceOnUse">
<stop stop-color="#FAC47E"/>
<stop offset="1" stop-color="#A67F56"/>
</linearGradient>
<linearGradient id="paint1_linear_515_4647" x1="142.495" y1="251" x2="142.495" y2="250" gradientUnits="userSpaceOnUse">
<stop stop-color="#FAC47E"/>
<stop offset="1" stop-color="#A67F56"/>
</linearGradient>
<linearGradient id="paint2_linear_515_4647" x1="142.495" y1="400" x2="142.495" y2="399" gradientUnits="userSpaceOnUse">
<stop stop-color="#FAC47E"/>
<stop offset="1" stop-color="#A67F56"/>
</linearGradient>
<clipPath id="clip0_515_4647">
<rect width="24" height="24" fill="white" transform="translate(130.5 35)"/>
</clipPath>
<clipPath id="clip1_515_4647">
<rect width="24" height="24" fill="white" transform="translate(130.5 169)"/>
</clipPath>
<clipPath id="clip2_515_4647">
<rect width="24" height="24" fill="white" transform="translate(130.5 281)"/>
</clipPath>
<clipPath id="clip3_515_4647">
<rect width="24" height="24" fill="white" transform="translate(130.5 430)"/>
</clipPath>
</defs>
</svg>
