<svg width="1097" height="190" viewBox="0 0 1097 190" fill="none" xmlns="http://www.w3.org/2000/svg">
<rect x="0.5" y="0.450684" width="1096" height="189" rx="26" fill="#E8A560" fill-opacity="0.1"/>
<g clip-path="url(#clip0_505_4340)">
<path d="M124 49.9507H123V48.9507C123 48.6855 122.895 48.4311 122.707 48.2436C122.52 48.056 122.265 47.9507 122 47.9507C121.735 47.9507 121.48 48.056 121.293 48.2436C121.105 48.4311 121 48.6855 121 48.9507V49.9507H113V48.9507C113 48.6855 112.895 48.4311 112.707 48.2436C112.52 48.056 112.265 47.9507 112 47.9507C111.735 47.9507 111.48 48.056 111.293 48.2436C111.105 48.4311 111 48.6855 111 48.9507V49.9507H110C108.674 49.9523 107.404 50.4796 106.466 51.4169C105.529 52.3542 105.002 53.6251 105 54.9507V66.9507C105.002 68.2763 105.529 69.5471 106.466 70.4845C107.404 71.4218 108.674 71.9491 110 71.9507H124C125.326 71.9491 126.596 71.4218 127.534 70.4845C128.471 69.5471 128.998 68.2763 129 66.9507V54.9507C128.998 53.6251 128.471 52.3542 127.534 51.4169C126.596 50.4796 125.326 49.9523 124 49.9507ZM107 54.9507C107 54.155 107.316 53.392 107.879 52.8294C108.441 52.2668 109.204 51.9507 110 51.9507H124C124.796 51.9507 125.559 52.2668 126.121 52.8294C126.684 53.392 127 54.155 127 54.9507V55.9507H107V54.9507ZM124 69.9507H110C109.204 69.9507 108.441 69.6346 107.879 69.072C107.316 68.5094 107 67.7463 107 66.9507V57.9507H127V66.9507C127 67.7463 126.684 68.5094 126.121 69.072C125.559 69.6346 124.796 69.9507 124 69.9507Z" fill="white"/>
<path d="M117 64.4507C117.828 64.4507 118.5 63.7791 118.5 62.9507C118.5 62.1223 117.828 61.4507 117 61.4507C116.172 61.4507 115.5 62.1223 115.5 62.9507C115.5 63.7791 116.172 64.4507 117 64.4507Z" fill="white"/>
<path d="M112 64.4507C112.828 64.4507 113.5 63.7791 113.5 62.9507C113.5 62.1223 112.828 61.4507 112 61.4507C111.171 61.4507 110.5 62.1223 110.5 62.9507C110.5 63.7791 111.171 64.4507 112 64.4507Z" fill="white"/>
<path d="M122 64.4507C122.829 64.4507 123.5 63.7791 123.5 62.9507C123.5 62.1223 122.829 61.4507 122 61.4507C121.172 61.4507 120.5 62.1223 120.5 62.9507C120.5 63.7791 121.172 64.4507 122 64.4507Z" fill="white"/>
</g>
<path d="M76.9418 87.4507H90.2668V90.9507H80.7918V94.6757H89.1418V98.1757H80.7918V104.951H76.9418V87.4507ZM93.698 91.5507H97.498V94.2507C97.8814 93.334 98.4064 92.6007 99.073 92.0507C99.7397 91.5007 100.64 91.2507 101.773 91.3007V95.2757H101.573C100.306 95.2757 99.3064 95.659 98.573 96.4257C97.8564 97.1923 97.498 98.384 97.498 100.001V104.951H93.698V91.5507ZM104.972 86.2007H108.972V89.5757H104.972V86.2007ZM105.072 91.5507H108.872V104.951H105.072V91.5507ZM118.691 105.201C117.908 105.201 117.15 105.051 116.416 104.751C115.683 104.451 115.033 104.009 114.466 103.426C113.9 102.826 113.441 102.101 113.091 101.251C112.758 100.384 112.591 99.3924 112.591 98.2757V98.2257C112.591 97.109 112.758 96.1257 113.091 95.2757C113.441 94.409 113.891 93.684 114.441 93.1007C115.008 92.5007 115.658 92.0507 116.391 91.7507C117.125 91.4507 117.891 91.3007 118.691 91.3007C119.708 91.3007 120.541 91.5007 121.191 91.9007C121.858 92.3007 122.416 92.7673 122.866 93.3007V86.7007H126.666V104.951H122.866V103.026C122.4 103.659 121.833 104.184 121.166 104.601C120.516 105.001 119.691 105.201 118.691 105.201ZM119.666 101.976C120.116 101.976 120.533 101.892 120.916 101.726C121.316 101.542 121.658 101.292 121.941 100.976C122.241 100.642 122.475 100.251 122.641 99.8007C122.825 99.334 122.916 98.8257 122.916 98.2757V98.2257C122.916 97.6757 122.825 97.1757 122.641 96.7257C122.475 96.259 122.241 95.8673 121.941 95.5507C121.658 95.2173 121.316 94.9673 120.916 94.8007C120.533 94.6173 120.116 94.5257 119.666 94.5257C119.216 94.5257 118.791 94.6173 118.391 94.8007C118.008 94.9673 117.666 95.2173 117.366 95.5507C117.066 95.8673 116.825 96.2507 116.641 96.7007C116.475 97.1507 116.391 97.659 116.391 98.2257V98.2757C116.391 98.8257 116.475 99.334 116.641 99.8007C116.825 100.251 117.066 100.642 117.366 100.976C117.666 101.292 118.008 101.542 118.391 101.726C118.791 101.892 119.216 101.976 119.666 101.976ZM134.611 105.201C133.978 105.201 133.378 105.117 132.811 104.951C132.261 104.767 131.778 104.501 131.361 104.151C130.945 103.801 130.611 103.376 130.361 102.876C130.128 102.359 130.011 101.767 130.011 101.101V101.051C130.011 100.317 130.145 99.684 130.411 99.1507C130.678 98.6174 131.045 98.1757 131.511 97.8257C131.995 97.4757 132.561 97.2173 133.211 97.0507C133.878 96.8673 134.611 96.7757 135.411 96.7757C136.095 96.7757 136.686 96.8257 137.186 96.9257C137.703 97.0257 138.203 97.159 138.686 97.3257V97.1007C138.686 96.3007 138.445 95.6923 137.961 95.2757C137.478 94.859 136.761 94.6507 135.811 94.6507C135.078 94.6507 134.428 94.7173 133.861 94.8507C133.311 94.9673 132.728 95.1423 132.111 95.3757L131.161 92.4757C131.895 92.159 132.661 91.9007 133.461 91.7007C134.261 91.5007 135.228 91.4007 136.361 91.4007C137.411 91.4007 138.303 91.534 139.036 91.8007C139.786 92.0507 140.403 92.4173 140.886 92.9007C141.386 93.4007 141.753 94.0173 141.986 94.7507C142.22 95.4673 142.336 96.2757 142.336 97.1757V104.951H138.661V103.501C138.195 104.017 137.636 104.434 136.986 104.751C136.336 105.051 135.545 105.201 134.611 105.201ZM135.761 102.576C136.661 102.576 137.378 102.359 137.911 101.926C138.461 101.492 138.736 100.926 138.736 100.226V99.5507C138.403 99.4007 138.028 99.284 137.611 99.2007C137.211 99.1007 136.778 99.0507 136.311 99.0507C135.495 99.0507 134.853 99.209 134.386 99.5257C133.92 99.8423 133.686 100.301 133.686 100.901V100.951C133.686 101.467 133.878 101.867 134.261 102.151C134.645 102.434 135.145 102.576 135.761 102.576ZM154.668 91.5507H158.618L153.468 105.276C153.218 105.959 152.951 106.534 152.668 107.001C152.385 107.484 152.068 107.876 151.718 108.176C151.385 108.476 151.001 108.692 150.568 108.826C150.135 108.959 149.635 109.026 149.068 109.026C148.368 109.026 147.751 108.942 147.218 108.776C146.685 108.609 146.176 108.384 145.693 108.101L146.968 105.351C147.218 105.501 147.485 105.626 147.768 105.726C148.068 105.826 148.343 105.876 148.593 105.876C148.926 105.876 149.185 105.809 149.368 105.676C149.568 105.559 149.751 105.334 149.918 105.001L144.668 91.5507H148.693L151.743 100.676L154.668 91.5507ZM37.0058 133.901L42.8308 129.126C43.3808 128.676 43.8474 128.276 44.2308 127.926C44.6141 127.559 44.9224 127.217 45.1558 126.901C45.4058 126.567 45.5808 126.251 45.6808 125.951C45.7974 125.634 45.8558 125.292 45.8558 124.926C45.8558 124.176 45.6391 123.609 45.2058 123.226C44.7724 122.842 44.2058 122.651 43.5058 122.651C42.8224 122.651 42.2141 122.842 41.6808 123.226C41.1641 123.609 40.5808 124.201 39.9308 125.001L37.2308 122.826C37.6641 122.242 38.0974 121.726 38.5308 121.276C38.9808 120.826 39.4558 120.451 39.9558 120.151C40.4724 119.834 41.0391 119.601 41.6558 119.451C42.2724 119.284 42.9724 119.201 43.7558 119.201C44.6558 119.201 45.4724 119.334 46.2058 119.601C46.9558 119.851 47.5891 120.209 48.1058 120.676C48.6391 121.142 49.0474 121.709 49.3308 122.376C49.6308 123.042 49.7808 123.784 49.7808 124.601V124.651C49.7808 125.384 49.6808 126.042 49.4808 126.626C49.2974 127.192 49.0141 127.734 48.6308 128.251C48.2641 128.751 47.7891 129.259 47.2058 129.776C46.6224 130.276 45.9474 130.826 45.1808 131.426L42.3308 133.626H49.9558V136.951H37.0058V133.901ZM59.7319 137.251C58.3153 137.251 57.0819 137.017 56.0319 136.551C54.9819 136.084 54.0319 135.442 53.1819 134.626L55.5069 131.851C56.1736 132.451 56.8403 132.917 57.5069 133.251C58.1736 133.584 58.8986 133.751 59.6819 133.751C60.5819 133.751 61.2903 133.542 61.8069 133.126C62.3403 132.709 62.6069 132.109 62.6069 131.326V131.276C62.6069 130.526 62.3153 129.942 61.7319 129.526C61.1653 129.109 60.4236 128.901 59.5069 128.901C58.9569 128.901 58.4319 128.967 57.9319 129.101C57.4486 129.217 56.9986 129.367 56.5819 129.551L54.3569 128.076L54.8569 119.451H65.6069V122.826H58.1569L57.9569 125.851C58.3069 125.767 58.6569 125.701 59.0069 125.651C59.3569 125.584 59.7736 125.551 60.2569 125.551C61.1069 125.551 61.8986 125.659 62.6319 125.876C63.3819 126.092 64.0319 126.426 64.5819 126.876C65.1486 127.326 65.5903 127.909 65.9069 128.626C66.2236 129.326 66.3819 130.167 66.3819 131.151V131.201C66.3819 132.134 66.2236 132.976 65.9069 133.726C65.5903 134.459 65.1403 135.092 64.5569 135.626C63.9903 136.142 63.2903 136.542 62.4569 136.826C61.6403 137.109 60.7319 137.251 59.7319 137.251ZM78.4907 117.001H81.7157L70.6407 140.151H67.4157L78.4907 117.001ZM90.3437 137.251C89.177 137.251 88.1103 137.026 87.1437 136.576C86.1937 136.109 85.377 135.476 84.6937 134.676C84.027 133.859 83.5103 132.901 83.1437 131.801C82.777 130.701 82.5937 129.517 82.5937 128.251V128.201C82.5937 126.934 82.777 125.751 83.1437 124.651C83.527 123.551 84.0603 122.592 84.7437 121.776C85.427 120.959 86.2437 120.317 87.1937 119.851C88.1603 119.384 89.227 119.151 90.3937 119.151C91.5437 119.151 92.5937 119.384 93.5437 119.851C94.5103 120.301 95.327 120.934 95.9937 121.751C96.677 122.551 97.202 123.501 97.5687 124.601C97.952 125.701 98.1437 126.884 98.1437 128.151V128.201C98.1437 129.467 97.952 130.651 97.5687 131.751C97.202 132.851 96.677 133.809 95.9937 134.626C95.3103 135.442 94.4853 136.084 93.5187 136.551C92.5687 137.017 91.5103 137.251 90.3437 137.251ZM90.3937 133.776C90.977 133.776 91.502 133.642 91.9687 133.376C92.4353 133.092 92.8353 132.709 93.1687 132.226C93.502 131.726 93.752 131.142 93.9187 130.476C94.102 129.792 94.1937 129.051 94.1937 128.251V128.201C94.1937 127.401 94.102 126.667 93.9187 126.001C93.7353 125.317 93.4687 124.726 93.1187 124.226C92.7853 123.726 92.377 123.334 91.8937 123.051C91.427 122.767 90.9103 122.626 90.3437 122.626C89.7603 122.626 89.2353 122.767 88.7687 123.051C88.302 123.317 87.902 123.701 87.5687 124.201C87.252 124.684 87.002 125.267 86.8187 125.951C86.6353 126.617 86.5437 127.351 86.5437 128.151V128.201C86.5437 129.001 86.6353 129.742 86.8187 130.426C87.002 131.109 87.2603 131.701 87.5937 132.201C87.927 132.684 88.327 133.067 88.7937 133.351C89.277 133.634 89.8103 133.776 90.3937 133.776ZM110.205 133.176H101.655L101.03 130.451L110.63 119.326H113.88V130.051H116.23V133.176H113.88V136.951H110.205V133.176ZM110.205 130.051V124.601L105.555 130.051H110.205ZM128.128 117.001H131.353L120.278 140.151H117.053L128.128 117.001ZM132.497 133.901L138.322 129.126C138.872 128.676 139.339 128.276 139.722 127.926C140.105 127.559 140.414 127.217 140.647 126.901C140.897 126.567 141.072 126.251 141.172 125.951C141.289 125.634 141.347 125.292 141.347 124.926C141.347 124.176 141.13 123.609 140.697 123.226C140.264 122.842 139.697 122.651 138.997 122.651C138.314 122.651 137.705 122.842 137.172 123.226C136.655 123.609 136.072 124.201 135.422 125.001L132.722 122.826C133.155 122.242 133.589 121.726 134.022 121.276C134.472 120.826 134.947 120.451 135.447 120.151C135.964 119.834 136.53 119.601 137.147 119.451C137.764 119.284 138.464 119.201 139.247 119.201C140.147 119.201 140.964 119.334 141.697 119.601C142.447 119.851 143.08 120.209 143.597 120.676C144.13 121.142 144.539 121.709 144.822 122.376C145.122 123.042 145.272 123.784 145.272 124.601V124.651C145.272 125.384 145.172 126.042 144.972 126.626C144.789 127.192 144.505 127.734 144.122 128.251C143.755 128.751 143.28 129.259 142.697 129.776C142.114 130.276 141.439 130.826 140.672 131.426L137.822 133.626H145.447V136.951H132.497V133.901ZM156.698 137.251C155.531 137.251 154.465 137.026 153.498 136.576C152.548 136.109 151.731 135.476 151.048 134.676C150.381 133.859 149.865 132.901 149.498 131.801C149.131 130.701 148.948 129.517 148.948 128.251V128.201C148.948 126.934 149.131 125.751 149.498 124.651C149.881 123.551 150.415 122.592 151.098 121.776C151.781 120.959 152.598 120.317 153.548 119.851C154.515 119.384 155.581 119.151 156.748 119.151C157.898 119.151 158.948 119.384 159.898 119.851C160.865 120.301 161.681 120.934 162.348 121.751C163.031 122.551 163.556 123.501 163.923 124.601C164.306 125.701 164.498 126.884 164.498 128.151V128.201C164.498 129.467 164.306 130.651 163.923 131.751C163.556 132.851 163.031 133.809 162.348 134.626C161.665 135.442 160.84 136.084 159.873 136.551C158.923 137.017 157.865 137.251 156.698 137.251ZM156.748 133.776C157.331 133.776 157.856 133.642 158.323 133.376C158.79 133.092 159.19 132.709 159.523 132.226C159.856 131.726 160.106 131.142 160.273 130.476C160.456 129.792 160.548 129.051 160.548 128.251V128.201C160.548 127.401 160.456 126.667 160.273 126.001C160.09 125.317 159.823 124.726 159.473 124.226C159.14 123.726 158.731 123.334 158.248 123.051C157.781 122.767 157.265 122.626 156.698 122.626C156.115 122.626 155.59 122.767 155.123 123.051C154.656 123.317 154.256 123.701 153.923 124.201C153.606 124.684 153.356 125.267 153.173 125.951C152.99 126.617 152.898 127.351 152.898 128.151V128.201C152.898 129.001 152.99 129.742 153.173 130.426C153.356 131.109 153.615 131.701 153.948 132.201C154.281 132.684 154.681 133.067 155.148 133.351C155.631 133.634 156.165 133.776 156.748 133.776ZM167.591 133.901L173.416 129.126C173.966 128.676 174.432 128.276 174.816 127.926C175.199 127.559 175.507 127.217 175.741 126.901C175.991 126.567 176.166 126.251 176.266 125.951C176.382 125.634 176.441 125.292 176.441 124.926C176.441 124.176 176.224 123.609 175.791 123.226C175.357 122.842 174.791 122.651 174.091 122.651C173.407 122.651 172.799 122.842 172.266 123.226C171.749 123.609 171.166 124.201 170.516 125.001L167.816 122.826C168.249 122.242 168.682 121.726 169.116 121.276C169.566 120.826 170.041 120.451 170.541 120.151C171.057 119.834 171.624 119.601 172.241 119.451C172.857 119.284 173.557 119.201 174.341 119.201C175.241 119.201 176.057 119.334 176.791 119.601C177.541 119.851 178.174 120.209 178.691 120.676C179.224 121.142 179.632 121.709 179.916 122.376C180.216 123.042 180.366 123.784 180.366 124.601V124.651C180.366 125.384 180.266 126.042 180.066 126.626C179.882 127.192 179.599 127.734 179.216 128.251C178.849 128.751 178.374 129.259 177.791 129.776C177.207 130.276 176.532 130.826 175.766 131.426L172.916 133.626H180.541V136.951H167.591V133.901ZM190.467 137.251C188.884 137.251 187.534 136.976 186.417 136.426C185.317 135.859 184.392 135.126 183.642 134.226L186.292 131.701C186.892 132.384 187.517 132.909 188.167 133.276C188.834 133.626 189.617 133.801 190.517 133.801C191.25 133.801 191.842 133.609 192.292 133.226C192.759 132.842 192.992 132.326 192.992 131.676V131.626C192.992 130.909 192.692 130.359 192.092 129.976C191.492 129.592 190.65 129.401 189.567 129.401H187.967L187.367 126.951L191.542 122.751H184.667V119.451H196.492V122.351L192.067 126.576C192.667 126.676 193.242 126.834 193.792 127.051C194.359 127.267 194.859 127.567 195.292 127.951C195.742 128.334 196.1 128.817 196.367 129.401C196.634 129.967 196.767 130.659 196.767 131.476V131.526C196.767 132.359 196.617 133.126 196.317 133.826C196.034 134.509 195.617 135.109 195.067 135.626C194.534 136.142 193.875 136.542 193.092 136.826C192.309 137.109 191.434 137.251 190.467 137.251Z" fill="white"/>
<path opacity="0.2" d="M243.5 154.451V35.4507" stroke="url(#paint0_linear_505_4340)"/>
<g clip-path="url(#clip1_505_4340)">
<path d="M377 63.9507C374.627 63.9507 372.307 64.6545 370.333 65.973C368.36 67.2916 366.822 69.1658 365.913 71.3585C365.005 73.5512 364.768 75.964 365.231 78.2918C365.694 80.6195 366.836 82.7577 368.515 84.436C370.193 86.1142 372.331 87.2571 374.659 87.7201C376.987 88.1831 379.399 87.9455 381.592 87.0372C383.785 86.129 385.659 84.5909 386.978 82.6175C388.296 80.6441 389 78.3241 389 75.9507C388.997 72.7691 387.731 69.7189 385.481 67.4692C383.232 65.2195 380.182 63.9541 377 63.9507V63.9507ZM377 84.9507C375.22 84.9507 373.48 84.4228 372 83.4339C370.52 82.445 369.366 81.0394 368.685 79.3948C368.004 77.7503 367.826 75.9407 368.173 74.1949C368.52 72.449 369.377 70.8454 370.636 69.5867C371.895 68.3281 373.498 67.4709 375.244 67.1236C376.99 66.7763 378.8 66.9546 380.444 67.6358C382.089 68.317 383.494 69.4705 384.483 70.9506C385.472 72.4306 386 74.1707 386 75.9507C385.997 78.3368 385.048 80.6245 383.361 82.3117C381.674 83.999 379.386 84.948 377 84.9507Z" fill="white"/>
<path d="M375.5 75.0056L373.1 76.5056C372.933 76.6102 372.788 76.7467 372.674 76.9072C372.56 77.0677 372.478 77.2492 372.434 77.4412C372.39 77.6333 372.384 77.8321 372.417 78.0264C372.45 78.2207 372.52 78.4067 372.625 78.5736C372.73 78.7407 372.866 78.8854 373.027 78.9997C373.187 79.114 373.369 79.1955 373.561 79.2396C373.753 79.2837 373.951 79.2895 374.146 79.2568C374.34 79.224 374.526 79.1533 374.693 79.0486L377.562 77.2486C377.85 77.0683 378.087 76.8175 378.251 76.5201C378.415 76.2227 378.501 75.8883 378.5 75.5486V71.7227C378.5 71.3248 378.342 70.9433 378.061 70.662C377.779 70.3807 377.398 70.2227 377 70.2227C376.602 70.2227 376.221 70.3807 375.939 70.662C375.658 70.9433 375.5 71.3248 375.5 71.7227V75.0056Z" fill="white"/>
</g>
<path d="M292.95 107.226L289.9 107.976L289.1 104.826L294.125 103.326H296.75V120.951H292.95V107.226ZM309.747 117.176H301.197L300.572 114.451L310.172 103.326H313.422V114.051H315.772V117.176H313.422V120.951H309.747V117.176ZM309.747 114.051V108.601L305.097 114.051H309.747ZM319.458 107.551H323.508V111.551H319.458V107.551ZM319.458 116.951H323.508V120.951H319.458V116.951ZM335.031 121.251C333.864 121.251 332.797 121.026 331.831 120.576C330.881 120.109 330.064 119.476 329.381 118.676C328.714 117.859 328.197 116.901 327.831 115.801C327.464 114.701 327.281 113.517 327.281 112.251V112.201C327.281 110.934 327.464 109.751 327.831 108.651C328.214 107.551 328.747 106.592 329.431 105.776C330.114 104.959 330.931 104.317 331.881 103.851C332.847 103.384 333.914 103.151 335.081 103.151C336.231 103.151 337.281 103.384 338.231 103.851C339.197 104.301 340.014 104.934 340.681 105.751C341.364 106.551 341.889 107.501 342.256 108.601C342.639 109.701 342.831 110.884 342.831 112.151V112.201C342.831 113.467 342.639 114.651 342.256 115.751C341.889 116.851 341.364 117.809 340.681 118.626C339.997 119.442 339.172 120.084 338.206 120.551C337.256 121.017 336.197 121.251 335.031 121.251ZM335.081 117.776C335.664 117.776 336.189 117.642 336.656 117.376C337.122 117.092 337.522 116.709 337.856 116.226C338.189 115.726 338.439 115.142 338.606 114.476C338.789 113.792 338.881 113.051 338.881 112.251V112.201C338.881 111.401 338.789 110.667 338.606 110.001C338.422 109.317 338.156 108.726 337.806 108.226C337.472 107.726 337.064 107.334 336.581 107.051C336.114 106.767 335.597 106.626 335.031 106.626C334.447 106.626 333.922 106.767 333.456 107.051C332.989 107.317 332.589 107.701 332.256 108.201C331.939 108.684 331.689 109.267 331.506 109.951C331.322 110.617 331.231 111.351 331.231 112.151V112.201C331.231 113.001 331.322 113.742 331.506 114.426C331.689 115.109 331.947 115.701 332.281 116.201C332.614 116.684 333.014 117.067 333.481 117.351C333.964 117.634 334.497 117.776 335.081 117.776ZM354.042 121.251C352.876 121.251 351.809 121.026 350.842 120.576C349.892 120.109 349.076 119.476 348.392 118.676C347.726 117.859 347.209 116.901 346.842 115.801C346.476 114.701 346.292 113.517 346.292 112.251V112.201C346.292 110.934 346.476 109.751 346.842 108.651C347.226 107.551 347.759 106.592 348.442 105.776C349.126 104.959 349.942 104.317 350.892 103.851C351.859 103.384 352.926 103.151 354.092 103.151C355.242 103.151 356.292 103.384 357.242 103.851C358.209 104.301 359.026 104.934 359.692 105.751C360.376 106.551 360.901 107.501 361.267 108.601C361.651 109.701 361.842 110.884 361.842 112.151V112.201C361.842 113.467 361.651 114.651 361.267 115.751C360.901 116.851 360.376 117.809 359.692 118.626C359.009 119.442 358.184 120.084 357.217 120.551C356.267 121.017 355.209 121.251 354.042 121.251ZM354.092 117.776C354.676 117.776 355.201 117.642 355.667 117.376C356.134 117.092 356.534 116.709 356.867 116.226C357.201 115.726 357.451 115.142 357.617 114.476C357.801 113.792 357.892 113.051 357.892 112.251V112.201C357.892 111.401 357.801 110.667 357.617 110.001C357.434 109.317 357.167 108.726 356.817 108.226C356.484 107.726 356.076 107.334 355.592 107.051C355.126 106.767 354.609 106.626 354.042 106.626C353.459 106.626 352.934 106.767 352.467 107.051C352.001 107.317 351.601 107.701 351.267 108.201C350.951 108.684 350.701 109.267 350.517 109.951C350.334 110.617 350.242 111.351 350.242 112.151V112.201C350.242 113.001 350.334 113.742 350.517 114.426C350.701 115.109 350.959 115.701 351.292 116.201C351.626 116.684 352.026 117.067 352.492 117.351C352.976 117.634 353.509 117.776 354.092 117.776ZM373.449 111.376H381.149V115.026H373.449V111.376ZM395.849 107.226L392.799 107.976L391.999 104.826L397.024 103.326H399.649V120.951H395.849V107.226ZM410.571 121.201C409.605 121.201 408.705 121.084 407.871 120.851C407.055 120.601 406.346 120.259 405.746 119.826C405.146 119.376 404.671 118.842 404.321 118.226C403.988 117.609 403.821 116.917 403.821 116.151V116.101C403.821 115.034 404.055 114.176 404.521 113.526C405.005 112.859 405.713 112.309 406.646 111.876C405.963 111.459 405.421 110.959 405.021 110.376C404.621 109.776 404.421 109.001 404.421 108.051V108.001C404.421 107.334 404.563 106.709 404.846 106.126C405.146 105.542 405.563 105.034 406.096 104.601C406.646 104.167 407.296 103.826 408.046 103.576C408.796 103.326 409.638 103.201 410.571 103.201C411.488 103.201 412.321 103.326 413.071 103.576C413.838 103.826 414.488 104.167 415.021 104.601C415.571 105.017 415.988 105.526 416.271 106.126C416.571 106.709 416.721 107.334 416.721 108.001V108.051C416.721 109.001 416.521 109.776 416.121 110.376C415.721 110.959 415.18 111.459 414.496 111.876C415.38 112.342 416.071 112.892 416.571 113.526C417.071 114.142 417.321 114.967 417.321 116.001V116.051C417.321 116.867 417.146 117.592 416.796 118.226C416.463 118.859 415.996 119.401 415.396 119.851C414.796 120.284 414.08 120.617 413.246 120.851C412.43 121.084 411.538 121.201 410.571 121.201ZM410.571 110.601C411.338 110.601 411.946 110.401 412.396 110.001C412.846 109.601 413.071 109.092 413.071 108.476V108.426C413.071 107.892 412.855 107.417 412.421 107.001C411.988 106.584 411.371 106.376 410.571 106.376C409.771 106.376 409.155 106.584 408.721 107.001C408.288 107.401 408.071 107.867 408.071 108.401V108.451C408.071 109.067 408.296 109.584 408.746 110.001C409.196 110.401 409.805 110.601 410.571 110.601ZM410.571 118.026C411.521 118.026 412.263 117.817 412.796 117.401C413.33 116.984 413.596 116.467 413.596 115.851V115.801C413.596 115.117 413.313 114.592 412.746 114.226C412.18 113.842 411.455 113.651 410.571 113.651C409.688 113.651 408.963 113.842 408.396 114.226C407.83 114.592 407.546 115.117 407.546 115.801V115.851C407.546 116.451 407.813 116.967 408.346 117.401C408.88 117.817 409.621 118.026 410.571 118.026ZM420.868 107.551H424.918V111.551H420.868V107.551ZM420.868 116.951H424.918V120.951H420.868V116.951ZM436.441 121.251C435.274 121.251 434.207 121.026 433.241 120.576C432.291 120.109 431.474 119.476 430.791 118.676C430.124 117.859 429.607 116.901 429.241 115.801C428.874 114.701 428.691 113.517 428.691 112.251V112.201C428.691 110.934 428.874 109.751 429.241 108.651C429.624 107.551 430.157 106.592 430.841 105.776C431.524 104.959 432.341 104.317 433.291 103.851C434.257 103.384 435.324 103.151 436.491 103.151C437.641 103.151 438.691 103.384 439.641 103.851C440.607 104.301 441.424 104.934 442.091 105.751C442.774 106.551 443.299 107.501 443.666 108.601C444.049 109.701 444.241 110.884 444.241 112.151V112.201C444.241 113.467 444.049 114.651 443.666 115.751C443.299 116.851 442.774 117.809 442.091 118.626C441.407 119.442 440.582 120.084 439.616 120.551C438.666 121.017 437.607 121.251 436.441 121.251ZM436.491 117.776C437.074 117.776 437.599 117.642 438.066 117.376C438.532 117.092 438.932 116.709 439.266 116.226C439.599 115.726 439.849 115.142 440.016 114.476C440.199 113.792 440.291 113.051 440.291 112.251V112.201C440.291 111.401 440.199 110.667 440.016 110.001C439.832 109.317 439.566 108.726 439.216 108.226C438.882 107.726 438.474 107.334 437.991 107.051C437.524 106.767 437.007 106.626 436.441 106.626C435.857 106.626 435.332 106.767 434.866 107.051C434.399 107.317 433.999 107.701 433.666 108.201C433.349 108.684 433.099 109.267 432.916 109.951C432.732 110.617 432.641 111.351 432.641 112.151V112.201C432.641 113.001 432.732 113.742 432.916 114.426C433.099 115.109 433.357 115.701 433.691 116.201C434.024 116.684 434.424 117.067 434.891 117.351C435.374 117.634 435.907 117.776 436.491 117.776ZM455.453 121.251C454.286 121.251 453.219 121.026 452.253 120.576C451.303 120.109 450.486 119.476 449.803 118.676C449.136 117.859 448.619 116.901 448.253 115.801C447.886 114.701 447.703 113.517 447.703 112.251V112.201C447.703 110.934 447.886 109.751 448.253 108.651C448.636 107.551 449.169 106.592 449.853 105.776C450.536 104.959 451.353 104.317 452.303 103.851C453.269 103.384 454.336 103.151 455.503 103.151C456.653 103.151 457.703 103.384 458.653 103.851C459.619 104.301 460.436 104.934 461.103 105.751C461.786 106.551 462.311 107.501 462.678 108.601C463.061 109.701 463.253 110.884 463.253 112.151V112.201C463.253 113.467 463.061 114.651 462.678 115.751C462.311 116.851 461.786 117.809 461.103 118.626C460.419 119.442 459.594 120.084 458.628 120.551C457.678 121.017 456.619 121.251 455.453 121.251ZM455.503 117.776C456.086 117.776 456.611 117.642 457.078 117.376C457.544 117.092 457.944 116.709 458.278 116.226C458.611 115.726 458.861 115.142 459.028 114.476C459.211 113.792 459.303 113.051 459.303 112.251V112.201C459.303 111.401 459.211 110.667 459.028 110.001C458.844 109.317 458.578 108.726 458.228 108.226C457.894 107.726 457.486 107.334 457.003 107.051C456.536 106.767 456.019 106.626 455.453 106.626C454.869 106.626 454.344 106.767 453.878 107.051C453.411 107.317 453.011 107.701 452.678 108.201C452.361 108.684 452.111 109.267 451.928 109.951C451.744 110.617 451.653 111.351 451.653 112.151V112.201C451.653 113.001 451.744 113.742 451.928 114.426C452.111 115.109 452.369 115.701 452.703 116.201C453.036 116.684 453.436 117.067 453.903 117.351C454.386 117.634 454.919 117.776 455.503 117.776Z" fill="white"/>
<path opacity="0.2" d="M510.5 154.451V35.4507" stroke="url(#paint1_linear_505_4340)"/>
<g clip-path="url(#clip2_505_4340)">
<path d="M680 41.4507C679.209 41.4507 678.436 41.6853 677.778 42.1248C677.12 42.5643 676.607 43.189 676.305 43.9199C676.002 44.6509 675.923 45.4551 676.077 46.231C676.231 47.007 676.612 47.7197 677.172 48.2791C677.731 48.8385 678.444 49.2195 679.22 49.3738C679.996 49.5282 680.8 49.449 681.531 49.1462C682.262 48.8435 682.886 48.3308 683.326 47.673C683.766 47.0152 684 46.2418 684 45.4507C684 44.3898 683.579 43.3724 682.829 42.6223C682.078 41.8721 681.061 41.4507 680 41.4507ZM680 47.4507C679.605 47.4507 679.218 47.3334 678.889 47.1136C678.56 46.8939 678.304 46.5815 678.152 46.2161C678.001 45.8506 677.961 45.4485 678.039 45.0605C678.116 44.6725 678.306 44.3162 678.586 44.0365C678.866 43.7568 679.222 43.5663 679.61 43.4891C679.998 43.4119 680.4 43.4515 680.765 43.6029C681.131 43.7543 681.443 44.0106 681.663 44.3395C681.883 44.6684 682 45.0551 682 45.4507C682 45.9811 681.789 46.4898 681.414 46.8649C681.039 47.24 680.531 47.4507 680 47.4507Z" fill="white"/>
<path d="M680 59.4507C679.158 59.455 678.327 59.2575 677.577 58.8748C676.827 58.492 676.18 57.9351 675.689 57.2507C671.878 51.9937 669.945 48.0417 669.945 45.5037C669.945 42.837 671.004 40.2795 672.89 38.3938C674.776 36.5081 677.333 35.4487 680 35.4487C682.667 35.4487 685.224 36.5081 687.11 38.3938C688.996 40.2795 690.055 42.837 690.055 45.5037C690.055 48.0417 688.122 51.9937 684.311 57.2507C683.82 57.9351 683.173 58.492 682.423 58.8748C681.673 59.2575 680.842 59.455 680 59.4507ZM680 37.6317C677.912 37.6341 675.911 38.4645 674.435 39.9406C672.959 41.4167 672.128 43.4181 672.126 45.5057C672.126 47.5157 674.019 51.2327 677.455 55.9717C677.747 56.3735 678.129 56.7005 678.572 56.926C679.014 57.1515 679.503 57.269 680 57.269C680.496 57.269 680.986 57.1515 681.428 56.926C681.871 56.7005 682.253 56.3735 682.545 55.9717C685.981 51.2327 687.874 47.5157 687.874 45.5057C687.872 43.4181 687.041 41.4167 685.565 39.9406C684.089 38.4645 682.088 37.6341 680 37.6317Z" fill="white"/>
</g>
<path d="M601.404 92.7507C600.054 92.7507 598.813 92.5174 597.679 92.0507C596.546 91.5674 595.563 90.9257 594.729 90.1257C593.913 89.309 593.271 88.359 592.804 87.2757C592.354 86.1757 592.129 85.0007 592.129 83.7507V83.7007C592.129 82.4507 592.363 81.284 592.829 80.2007C593.296 79.1007 593.938 78.1423 594.754 77.3257C595.588 76.4923 596.571 75.8423 597.704 75.3757C598.854 74.8923 600.104 74.6507 601.454 74.6507C602.804 74.6507 604.046 74.8923 605.179 75.3757C606.313 75.8423 607.288 76.484 608.104 77.3007C608.938 78.1007 609.579 79.0507 610.029 80.1507C610.496 81.234 610.729 82.4007 610.729 83.6507V83.7007C610.729 84.9507 610.496 86.1257 610.029 87.2257C609.563 88.309 608.913 89.2674 608.079 90.1007C607.263 90.9174 606.279 91.5674 605.129 92.0507C603.996 92.5174 602.754 92.7507 601.404 92.7507ZM601.454 89.2007C602.221 89.2007 602.929 89.059 603.579 88.7757C604.229 88.4924 604.779 88.1007 605.229 87.6007C605.696 87.1007 606.054 86.5257 606.304 85.8757C606.571 85.209 606.704 84.5007 606.704 83.7507V83.7007C606.704 82.9507 606.571 82.2423 606.304 81.5757C606.054 80.909 605.688 80.3257 605.204 79.8257C604.738 79.3257 604.179 78.934 603.529 78.6507C602.879 78.3507 602.171 78.2007 601.404 78.2007C600.621 78.2007 599.904 78.3423 599.254 78.6257C598.621 78.909 598.071 79.3007 597.604 79.8007C597.154 80.3007 596.796 80.884 596.529 81.5507C596.279 82.2007 596.154 82.9007 596.154 83.6507V83.7007C596.154 84.4507 596.279 85.159 596.529 85.8257C596.796 86.4923 597.163 87.0757 597.629 87.5757C598.113 88.0757 598.671 88.4757 599.304 88.7757C599.954 89.059 600.671 89.2007 601.454 89.2007ZM614.494 79.0507H618.294V80.9507C618.511 80.6673 618.744 80.4007 618.994 80.1507C619.261 79.884 619.553 79.6507 619.869 79.4507C620.186 79.2507 620.536 79.0923 620.919 78.9757C621.303 78.859 621.736 78.8007 622.219 78.8007C623.669 78.8007 624.786 79.2423 625.569 80.1257C626.369 81.009 626.769 82.2257 626.769 83.7757V92.4507H622.969V84.9757C622.969 84.0757 622.769 83.4007 622.369 82.9507C621.969 82.484 621.403 82.2507 620.669 82.2507C619.936 82.2507 619.353 82.484 618.919 82.9507C618.503 83.4007 618.294 84.0757 618.294 84.9757V92.4507H614.494V79.0507ZM630.996 74.2007H634.796V92.4507H630.996V74.2007ZM647.915 79.0507H651.865L646.715 92.7757C646.465 93.459 646.198 94.034 645.915 94.5007C645.631 94.984 645.315 95.3757 644.965 95.6757C644.631 95.9757 644.248 96.1924 643.815 96.3257C643.381 96.459 642.881 96.5257 642.315 96.5257C641.615 96.5257 640.998 96.4424 640.465 96.2757C639.931 96.109 639.423 95.884 638.94 95.6007L640.215 92.8507C640.465 93.0007 640.731 93.1257 641.015 93.2257C641.315 93.3257 641.59 93.3757 641.84 93.3757C642.173 93.3757 642.431 93.309 642.615 93.1757C642.815 93.059 642.998 92.834 643.165 92.5007L637.915 79.0507H641.94L644.99 88.1757L647.915 79.0507ZM670.8 92.7257C668.45 92.7257 666.6 92.0757 665.25 90.7757C663.9 89.4757 663.225 87.534 663.225 84.9507V74.9507H667.075V84.8507C667.075 86.284 667.408 87.3674 668.075 88.1007C668.742 88.8173 669.667 89.1757 670.85 89.1757C672.033 89.1757 672.958 88.8257 673.625 88.1257C674.292 87.4257 674.625 86.3757 674.625 84.9757V74.9507H678.475V84.8257C678.475 86.159 678.292 87.3174 677.925 88.3007C677.575 89.284 677.067 90.109 676.4 90.7757C675.733 91.4257 674.925 91.9174 673.975 92.2507C673.025 92.5674 671.967 92.7257 670.8 92.7257ZM697.617 92.7007C696.283 92.7007 694.975 92.4757 693.692 92.0257C692.408 91.559 691.242 90.8507 690.192 89.9007L692.467 87.1757C693.267 87.8257 694.083 88.3424 694.917 88.7257C695.767 89.109 696.692 89.3007 697.692 89.3007C698.492 89.3007 699.108 89.159 699.542 88.8757C699.992 88.5757 700.217 88.1674 700.217 87.6507V87.6007C700.217 87.3507 700.167 87.134 700.067 86.9507C699.983 86.7507 699.808 86.5674 699.542 86.4007C699.292 86.234 698.933 86.0673 698.467 85.9007C698.017 85.734 697.425 85.559 696.692 85.3757C695.808 85.159 695.008 84.9174 694.292 84.6507C693.575 84.384 692.967 84.059 692.467 83.6757C691.967 83.2757 691.575 82.784 691.292 82.2007C691.025 81.6173 690.892 80.8923 690.892 80.0257V79.9757C690.892 79.1757 691.042 78.459 691.342 77.8257C691.642 77.1757 692.058 76.6173 692.592 76.1507C693.142 75.684 693.792 75.3257 694.542 75.0757C695.292 74.8257 696.117 74.7007 697.017 74.7007C698.3 74.7007 699.475 74.8923 700.542 75.2757C701.625 75.659 702.617 76.209 703.517 76.9257L701.517 79.8257C700.733 79.2924 699.967 78.8757 699.217 78.5757C698.467 78.259 697.717 78.1007 696.967 78.1007C696.217 78.1007 695.65 78.2507 695.267 78.5507C694.9 78.834 694.717 79.1923 694.717 79.6257V79.6757C694.717 79.959 694.767 80.209 694.867 80.4257C694.983 80.6257 695.183 80.809 695.467 80.9757C695.75 81.1423 696.133 81.3007 696.617 81.4507C697.117 81.6007 697.742 81.7757 698.492 81.9757C699.375 82.209 700.158 82.4757 700.842 82.7757C701.542 83.059 702.125 83.409 702.592 83.8257C703.075 84.2257 703.433 84.7007 703.667 85.2507C703.917 85.8007 704.042 86.459 704.042 87.2257V87.2757C704.042 88.1424 703.883 88.9174 703.567 89.6007C703.25 90.2674 702.808 90.834 702.242 91.3007C701.675 91.7507 701 92.1007 700.217 92.3507C699.433 92.584 698.567 92.7007 697.617 92.7007ZM707.733 79.0507H711.533V80.9757C711.999 80.3423 712.558 79.8257 713.208 79.4257C713.874 79.009 714.708 78.8007 715.708 78.8007C716.491 78.8007 717.249 78.9507 717.983 79.2507C718.716 79.5507 719.366 80.0007 719.933 80.6007C720.499 81.184 720.949 81.909 721.283 82.7757C721.633 83.6257 721.808 84.609 721.808 85.7257V85.7757C721.808 86.8924 721.633 87.884 721.283 88.7507C720.949 89.6007 720.499 90.3257 719.933 90.9257C719.383 91.509 718.741 91.9507 718.008 92.2507C717.274 92.5507 716.508 92.7007 715.708 92.7007C714.691 92.7007 713.849 92.5007 713.183 92.1007C712.533 91.7007 711.983 91.234 711.533 90.7007V96.4507H707.733V79.0507ZM714.733 89.4757C715.183 89.4757 715.599 89.3924 715.983 89.2257C716.383 89.0424 716.733 88.7924 717.033 88.4757C717.333 88.1424 717.566 87.7507 717.733 87.3007C717.916 86.8507 718.008 86.3423 718.008 85.7757V85.7257C718.008 85.1757 717.916 84.6757 717.733 84.2257C717.566 83.759 717.333 83.3673 717.033 83.0507C716.733 82.7173 716.383 82.4673 715.983 82.3007C715.599 82.1173 715.183 82.0257 714.733 82.0257C714.283 82.0257 713.858 82.1173 713.458 82.3007C713.074 82.4673 712.733 82.7173 712.433 83.0507C712.149 83.3673 711.916 83.759 711.733 84.2257C711.566 84.6757 711.483 85.1757 711.483 85.7257V85.7757C711.483 86.3257 711.566 86.834 711.733 87.3007C711.916 87.7507 712.149 88.1424 712.433 88.4757C712.733 88.7924 713.074 89.0424 713.458 89.2257C713.858 89.3924 714.283 89.4757 714.733 89.4757ZM729.153 92.7007C728.519 92.7007 727.919 92.6174 727.353 92.4507C726.803 92.2674 726.319 92.0007 725.903 91.6507C725.486 91.3007 725.153 90.8757 724.903 90.3757C724.669 89.859 724.553 89.2674 724.553 88.6007V88.5507C724.553 87.8174 724.686 87.184 724.953 86.6507C725.219 86.1174 725.586 85.6757 726.053 85.3257C726.536 84.9757 727.103 84.7173 727.753 84.5507C728.419 84.3673 729.153 84.2757 729.953 84.2757C730.636 84.2757 731.228 84.3257 731.728 84.4257C732.244 84.5257 732.744 84.659 733.228 84.8257V84.6007C733.228 83.8007 732.986 83.1923 732.503 82.7757C732.019 82.359 731.303 82.1507 730.353 82.1507C729.619 82.1507 728.969 82.2173 728.403 82.3507C727.853 82.4673 727.269 82.6423 726.653 82.8757L725.703 79.9757C726.436 79.659 727.203 79.4007 728.003 79.2007C728.803 79.0007 729.769 78.9007 730.903 78.9007C731.953 78.9007 732.844 79.034 733.578 79.3007C734.328 79.5507 734.944 79.9173 735.428 80.4007C735.928 80.9007 736.294 81.5173 736.528 82.2507C736.761 82.9673 736.878 83.7757 736.878 84.6757V92.4507H733.203V91.0007C732.736 91.5174 732.178 91.934 731.528 92.2507C730.878 92.5507 730.086 92.7007 729.153 92.7007ZM730.303 90.0757C731.203 90.0757 731.919 89.859 732.453 89.4257C733.003 88.9924 733.278 88.4257 733.278 87.7257V87.0507C732.944 86.9007 732.569 86.784 732.153 86.7007C731.753 86.6007 731.319 86.5507 730.853 86.5507C730.036 86.5507 729.394 86.709 728.928 87.0257C728.461 87.3423 728.228 87.8007 728.228 88.4007V88.4507C728.228 88.9674 728.419 89.3674 728.803 89.6507C729.186 89.934 729.686 90.0757 730.303 90.0757ZM747.223 92.7507C746.223 92.7507 745.289 92.5674 744.423 92.2007C743.573 91.834 742.839 91.3424 742.223 90.7257C741.606 90.0924 741.123 89.359 740.773 88.5257C740.423 87.6757 740.248 86.7757 740.248 85.8257V85.7757C740.248 84.8257 740.423 83.9257 740.773 83.0757C741.123 82.2257 741.606 81.484 742.223 80.8507C742.839 80.2173 743.573 79.7173 744.423 79.3507C745.289 78.984 746.239 78.8007 747.273 78.8007C748.539 78.8007 749.589 79.0007 750.423 79.4007C751.256 79.8007 751.989 80.3507 752.623 81.0507L750.298 83.5507C749.864 83.1007 749.414 82.7423 748.948 82.4757C748.498 82.209 747.931 82.0757 747.248 82.0757C746.764 82.0757 746.323 82.1757 745.923 82.3757C745.539 82.559 745.198 82.8173 744.898 83.1507C744.614 83.484 744.389 83.8757 744.223 84.3257C744.073 84.759 743.998 85.2257 743.998 85.7257V85.7757C743.998 86.2923 744.073 86.7757 744.223 87.2257C744.389 87.6757 744.623 88.0674 744.923 88.4007C745.223 88.734 745.581 89.0007 745.998 89.2007C746.414 89.384 746.881 89.4757 747.398 89.4757C748.031 89.4757 748.581 89.3507 749.048 89.1007C749.531 88.834 750.006 88.484 750.473 88.0507L752.698 90.3007C752.048 91.0174 751.306 91.609 750.473 92.0757C749.639 92.5257 748.556 92.7507 747.223 92.7507ZM761.914 92.7507C760.914 92.7507 759.98 92.584 759.114 92.2507C758.264 91.9174 757.522 91.4424 756.889 90.8257C756.272 90.209 755.789 89.484 755.439 88.6507C755.089 87.8007 754.914 86.859 754.914 85.8257V85.7757C754.914 84.8257 755.072 83.9257 755.389 83.0757C755.722 82.2257 756.18 81.484 756.764 80.8507C757.347 80.2173 758.039 79.7173 758.839 79.3507C759.655 78.984 760.555 78.8007 761.539 78.8007C762.655 78.8007 763.622 79.0007 764.439 79.4007C765.255 79.8007 765.93 80.3423 766.464 81.0257C767.014 81.6923 767.414 82.4673 767.664 83.3507C767.93 84.2173 768.064 85.1257 768.064 86.0757C768.064 86.2257 768.055 86.384 768.039 86.5507C768.039 86.7173 768.03 86.8924 768.014 87.0757H758.689C758.872 87.9424 759.247 88.6007 759.814 89.0507C760.397 89.484 761.114 89.7007 761.964 89.7007C762.597 89.7007 763.164 89.5924 763.664 89.3757C764.164 89.159 764.68 88.809 765.214 88.3257L767.389 90.2507C766.755 91.034 765.989 91.6507 765.089 92.1007C764.189 92.534 763.13 92.7507 761.914 92.7507ZM764.364 84.7007C764.247 83.8507 763.947 83.1673 763.464 82.6507C762.98 82.1173 762.339 81.8507 761.539 81.8507C760.739 81.8507 760.089 82.109 759.589 82.6257C759.105 83.1423 758.789 83.834 758.639 84.7007H764.364ZM583.506 108.876L580.206 109.901L579.731 108.301L584.006 106.826H585.456V124.451H583.506V108.876ZM597.666 124.751C596.533 124.751 595.508 124.517 594.591 124.051C593.691 123.567 592.916 122.917 592.266 122.101C591.633 121.267 591.141 120.309 590.791 119.226C590.458 118.142 590.291 116.984 590.291 115.751V115.701C590.291 114.484 590.466 113.326 590.816 112.226C591.166 111.126 591.666 110.167 592.316 109.351C592.966 108.517 593.741 107.859 594.641 107.376C595.558 106.892 596.583 106.651 597.716 106.651C598.833 106.651 599.841 106.892 600.741 107.376C601.658 107.842 602.433 108.492 603.066 109.326C603.716 110.142 604.208 111.101 604.541 112.201C604.891 113.284 605.066 114.434 605.066 115.651V115.701C605.066 116.934 604.891 118.101 604.541 119.201C604.191 120.284 603.691 121.242 603.041 122.076C602.408 122.892 601.633 123.542 600.716 124.026C599.8 124.509 598.783 124.751 597.666 124.751ZM597.716 122.951C598.533 122.951 599.266 122.759 599.916 122.376C600.583 121.976 601.141 121.451 601.591 120.801C602.058 120.134 602.408 119.367 602.641 118.501C602.891 117.617 603.016 116.701 603.016 115.751V115.701C603.016 114.751 602.891 113.842 602.641 112.976C602.391 112.092 602.033 111.317 601.566 110.651C601.1 109.984 600.533 109.451 599.866 109.051C599.216 108.651 598.483 108.451 597.666 108.451C596.85 108.451 596.108 108.651 595.441 109.051C594.791 109.434 594.233 109.959 593.766 110.626C593.316 111.276 592.966 112.034 592.716 112.901C592.466 113.767 592.341 114.684 592.341 115.651V115.701C592.341 116.651 592.466 117.567 592.716 118.451C592.966 119.317 593.325 120.084 593.791 120.751C594.258 121.417 594.825 121.951 595.491 122.351C596.158 122.751 596.9 122.951 597.716 122.951ZM624.557 106.826H626.407L634.382 124.451H632.257L630.207 119.826H620.682L618.607 124.451H616.582L624.557 106.826ZM629.432 118.026L625.457 109.126L621.457 118.026H629.432ZM638.258 111.526H640.183V113.776C640.617 113.076 641.183 112.484 641.883 112.001C642.583 111.501 643.492 111.251 644.608 111.251C645.392 111.251 646.083 111.376 646.683 111.626C647.3 111.876 647.817 112.234 648.233 112.701C648.667 113.151 648.992 113.692 649.208 114.326C649.442 114.959 649.558 115.659 649.558 116.426V124.451H647.633V116.901C647.633 115.701 647.325 114.751 646.708 114.051C646.092 113.351 645.208 113.001 644.058 113.001C643.508 113.001 642.992 113.101 642.508 113.301C642.042 113.484 641.633 113.759 641.283 114.126C640.933 114.476 640.658 114.901 640.458 115.401C640.275 115.901 640.183 116.451 640.183 117.051V124.451H638.258V111.526ZM658.689 124.701C657.755 124.701 656.814 124.534 655.864 124.201C654.914 123.851 654.072 123.384 653.339 122.801L654.314 121.426C655.014 121.959 655.739 122.367 656.489 122.651C657.255 122.934 658.022 123.076 658.789 123.076C659.572 123.076 660.214 122.892 660.714 122.526C661.214 122.159 661.464 121.659 661.464 121.026V120.976C661.464 120.659 661.372 120.384 661.189 120.151C661.022 119.917 660.789 119.717 660.489 119.551C660.189 119.367 659.839 119.209 659.439 119.076C659.055 118.942 658.655 118.817 658.239 118.701C657.739 118.551 657.23 118.392 656.714 118.226C656.214 118.042 655.755 117.817 655.339 117.551C654.939 117.284 654.605 116.951 654.339 116.551C654.089 116.151 653.964 115.651 653.964 115.051V115.001C653.964 114.451 654.072 113.951 654.289 113.501C654.505 113.034 654.805 112.642 655.189 112.326C655.589 111.992 656.055 111.742 656.589 111.576C657.139 111.392 657.73 111.301 658.364 111.301C659.164 111.301 659.972 111.434 660.789 111.701C661.605 111.951 662.347 112.292 663.014 112.726L662.139 114.176C661.539 113.792 660.905 113.492 660.239 113.276C659.589 113.042 658.947 112.926 658.314 112.926C657.547 112.926 656.939 113.109 656.489 113.476C656.039 113.826 655.814 114.267 655.814 114.801V114.851C655.814 115.151 655.905 115.417 656.089 115.651C656.272 115.867 656.514 116.059 656.814 116.226C657.13 116.392 657.489 116.542 657.889 116.676C658.289 116.809 658.705 116.942 659.139 117.076C659.639 117.226 660.13 117.392 660.614 117.576C661.114 117.759 661.564 117.992 661.964 118.276C662.364 118.559 662.68 118.901 662.914 119.301C663.164 119.701 663.289 120.192 663.289 120.776V120.826C663.289 121.442 663.164 121.992 662.914 122.476C662.68 122.942 662.355 123.342 661.939 123.676C661.539 124.009 661.055 124.267 660.489 124.451C659.939 124.617 659.339 124.701 658.689 124.701ZM673.515 124.751C672.548 124.751 671.657 124.576 670.84 124.226C670.023 123.859 669.315 123.376 668.715 122.776C668.115 122.159 667.648 121.451 667.315 120.651C666.982 119.834 666.815 118.967 666.815 118.051V118.001C666.815 117.084 666.982 116.217 667.315 115.401C667.648 114.584 668.115 113.867 668.715 113.251C669.315 112.634 670.023 112.151 670.84 111.801C671.673 111.434 672.582 111.251 673.565 111.251C674.532 111.251 675.423 111.434 676.24 111.801C677.073 112.151 677.79 112.634 678.39 113.251C678.99 113.851 679.457 114.559 679.79 115.376C680.123 116.176 680.29 117.034 680.29 117.951V118.001C680.29 118.917 680.115 119.784 679.765 120.601C679.432 121.417 678.965 122.134 678.365 122.751C677.765 123.367 677.048 123.859 676.215 124.226C675.382 124.576 674.482 124.751 673.515 124.751ZM673.565 123.026C674.265 123.026 674.907 122.892 675.49 122.626C676.073 122.359 676.573 122.001 676.99 121.551C677.407 121.101 677.732 120.576 677.965 119.976C678.198 119.376 678.315 118.734 678.315 118.051V118.001C678.315 117.301 678.19 116.651 677.94 116.051C677.707 115.434 677.373 114.901 676.94 114.451C676.507 113.984 675.998 113.617 675.415 113.351C674.832 113.084 674.198 112.951 673.515 112.951C672.815 112.951 672.173 113.084 671.59 113.351C671.007 113.617 670.507 113.976 670.09 114.426C669.69 114.876 669.373 115.409 669.14 116.026C668.907 116.626 668.79 117.267 668.79 117.951V118.001C668.79 118.701 668.907 119.359 669.14 119.976C669.39 120.576 669.723 121.101 670.14 121.551C670.573 122.001 671.082 122.359 671.665 122.626C672.248 122.892 672.882 123.026 673.565 123.026ZM684.527 111.526H686.452V113.776C686.885 113.076 687.452 112.484 688.152 112.001C688.852 111.501 689.76 111.251 690.877 111.251C691.66 111.251 692.352 111.376 692.952 111.626C693.569 111.876 694.085 112.234 694.502 112.701C694.935 113.151 695.26 113.692 695.477 114.326C695.71 114.959 695.827 115.659 695.827 116.426V124.451H693.902V116.901C693.902 115.701 693.594 114.751 692.977 114.051C692.36 113.351 691.477 113.001 690.327 113.001C689.777 113.001 689.26 113.101 688.777 113.301C688.31 113.484 687.902 113.759 687.552 114.126C687.202 114.476 686.927 114.901 686.727 115.401C686.544 115.901 686.452 116.451 686.452 117.051V124.451H684.527V111.526ZM709.252 106.951H716.777C717.861 106.951 718.819 107.109 719.652 107.426C720.502 107.726 721.202 108.151 721.752 108.701C722.186 109.134 722.519 109.642 722.752 110.226C722.986 110.809 723.102 111.451 723.102 112.151V112.201C723.102 112.934 722.986 113.592 722.752 114.176C722.519 114.742 722.186 115.242 721.752 115.676C721.336 116.092 720.836 116.442 720.252 116.726C719.669 116.992 719.036 117.184 718.352 117.301L723.727 124.451H721.302L716.227 117.651H711.227V124.451H709.252V106.951ZM716.602 115.876C717.252 115.876 717.852 115.792 718.402 115.626C718.952 115.459 719.427 115.226 719.827 114.926C720.227 114.609 720.536 114.234 720.752 113.801C720.986 113.351 721.102 112.842 721.102 112.276V112.226C721.102 111.142 720.711 110.301 719.927 109.701C719.144 109.084 718.044 108.776 716.627 108.776H711.227V115.876H716.602ZM733.4 124.751C732.433 124.751 731.541 124.576 730.725 124.226C729.908 123.859 729.2 123.376 728.6 122.776C728 122.159 727.533 121.451 727.2 120.651C726.866 119.834 726.7 118.967 726.7 118.051V118.001C726.7 117.084 726.866 116.217 727.2 115.401C727.533 114.584 728 113.867 728.6 113.251C729.2 112.634 729.908 112.151 730.725 111.801C731.558 111.434 732.466 111.251 733.45 111.251C734.416 111.251 735.308 111.434 736.125 111.801C736.958 112.151 737.675 112.634 738.275 113.251C738.875 113.851 739.341 114.559 739.675 115.376C740.008 116.176 740.175 117.034 740.175 117.951V118.001C740.175 118.917 740 119.784 739.65 120.601C739.316 121.417 738.85 122.134 738.25 122.751C737.65 123.367 736.933 123.859 736.1 124.226C735.266 124.576 734.366 124.751 733.4 124.751ZM733.45 123.026C734.15 123.026 734.791 122.892 735.375 122.626C735.958 122.359 736.458 122.001 736.875 121.551C737.291 121.101 737.616 120.576 737.85 119.976C738.083 119.376 738.2 118.734 738.2 118.051V118.001C738.2 117.301 738.075 116.651 737.825 116.051C737.591 115.434 737.258 114.901 736.825 114.451C736.391 113.984 735.883 113.617 735.3 113.351C734.716 113.084 734.083 112.951 733.4 112.951C732.7 112.951 732.058 113.084 731.475 113.351C730.891 113.617 730.391 113.976 729.975 114.426C729.575 114.876 729.258 115.409 729.025 116.026C728.791 116.626 728.675 117.267 728.675 117.951V118.001C728.675 118.701 728.791 119.359 729.025 119.976C729.275 120.576 729.608 121.101 730.025 121.551C730.458 122.001 730.966 122.359 731.55 122.626C732.133 122.892 732.766 123.026 733.45 123.026ZM748.262 124.726C747.662 124.726 747.07 124.642 746.487 124.476C745.92 124.309 745.403 124.059 744.937 123.726C744.487 123.376 744.12 122.951 743.837 122.451C743.57 121.951 743.437 121.367 743.437 120.701V120.651C743.437 119.967 743.57 119.367 743.837 118.851C744.103 118.334 744.478 117.901 744.962 117.551C745.462 117.201 746.045 116.934 746.712 116.751C747.395 116.567 748.145 116.476 748.962 116.476C749.795 116.476 750.52 116.526 751.137 116.626C751.753 116.726 752.353 116.859 752.937 117.026V116.576C752.937 115.409 752.595 114.534 751.912 113.951C751.245 113.351 750.303 113.051 749.087 113.051C748.32 113.051 747.62 113.142 746.987 113.326C746.37 113.492 745.762 113.717 745.162 114.001L744.587 112.426C745.303 112.092 746.028 111.834 746.762 111.651C747.495 111.451 748.337 111.351 749.287 111.351C751.12 111.351 752.512 111.826 753.462 112.776C754.345 113.659 754.787 114.917 754.787 116.551V124.451H752.937V122.501C752.487 123.084 751.878 123.601 751.112 124.051C750.362 124.501 749.412 124.726 748.262 124.726ZM748.637 123.201C749.237 123.201 749.795 123.117 750.312 122.951C750.845 122.767 751.303 122.526 751.687 122.226C752.087 121.909 752.395 121.542 752.612 121.126C752.845 120.692 752.962 120.217 752.962 119.701V118.451C752.478 118.317 751.92 118.192 751.287 118.076C750.67 117.959 749.962 117.901 749.162 117.901C747.945 117.901 747.012 118.142 746.362 118.626C745.712 119.109 745.387 119.759 745.387 120.576V120.626C745.387 121.026 745.47 121.392 745.637 121.726C745.82 122.042 746.062 122.309 746.362 122.526C746.662 122.742 747.003 122.909 747.387 123.026C747.787 123.142 748.203 123.201 748.637 123.201ZM765.064 124.726C764.281 124.726 763.523 124.576 762.789 124.276C762.056 123.976 761.398 123.542 760.814 122.976C760.231 122.392 759.764 121.692 759.414 120.876C759.064 120.042 758.889 119.092 758.889 118.026V117.976C758.889 116.926 759.064 115.984 759.414 115.151C759.764 114.317 760.231 113.617 760.814 113.051C761.398 112.467 762.056 112.026 762.789 111.726C763.523 111.409 764.281 111.251 765.064 111.251C765.664 111.251 766.214 111.326 766.714 111.476C767.214 111.626 767.664 111.826 768.064 112.076C768.464 112.326 768.823 112.617 769.139 112.951C769.473 113.284 769.764 113.634 770.014 114.001V106.201H771.939V124.451H770.014V121.851C769.748 122.234 769.448 122.601 769.114 122.951C768.798 123.301 768.439 123.609 768.039 123.876C767.639 124.142 767.189 124.351 766.689 124.501C766.206 124.651 765.664 124.726 765.064 124.726ZM765.414 123.001C766.014 123.001 766.589 122.884 767.139 122.651C767.706 122.401 768.206 122.059 768.639 121.626C769.089 121.176 769.439 120.651 769.689 120.051C769.956 119.434 770.089 118.751 770.089 118.001V117.951C770.089 117.201 769.956 116.526 769.689 115.926C769.439 115.309 769.089 114.784 768.639 114.351C768.206 113.917 767.706 113.584 767.139 113.351C766.589 113.101 766.014 112.976 765.414 112.976C764.781 112.976 764.189 113.092 763.639 113.326C763.089 113.542 762.606 113.867 762.189 114.301C761.789 114.717 761.464 115.234 761.214 115.851C760.981 116.467 760.864 117.167 760.864 117.951V118.001C760.864 118.767 760.989 119.459 761.239 120.076C761.489 120.692 761.823 121.217 762.239 121.651C762.656 122.084 763.139 122.417 763.689 122.651C764.239 122.884 764.814 123.001 765.414 123.001ZM775.991 126.626C776.624 126.392 777.074 126.101 777.341 125.751C777.607 125.417 777.716 124.984 777.666 124.451H776.766V121.826H779.066V124.076C779.066 125.092 778.841 125.859 778.391 126.376C777.941 126.909 777.241 127.284 776.291 127.501L775.991 126.626ZM564.201 149.701C562.801 149.701 561.518 149.476 560.351 149.026C559.201 148.559 558.101 147.851 557.051 146.901L558.276 145.451C559.193 146.284 560.118 146.909 561.051 147.326C561.984 147.726 563.059 147.926 564.276 147.926C565.459 147.926 566.401 147.651 567.101 147.101C567.818 146.534 568.176 145.817 568.176 144.951V144.901C568.176 144.501 568.109 144.142 567.976 143.826C567.843 143.492 567.609 143.192 567.276 142.926C566.943 142.659 566.476 142.417 565.876 142.201C565.293 141.984 564.543 141.776 563.626 141.576C562.626 141.359 561.751 141.109 561.001 140.826C560.268 140.542 559.659 140.201 559.176 139.801C558.693 139.401 558.334 138.934 558.101 138.401C557.868 137.867 557.751 137.242 557.751 136.526V136.476C557.751 135.792 557.893 135.159 558.176 134.576C558.459 133.992 558.859 133.492 559.376 133.076C559.893 132.642 560.501 132.309 561.201 132.076C561.901 131.826 562.668 131.701 563.501 131.701C564.784 131.701 565.901 131.884 566.851 132.251C567.818 132.601 568.751 133.134 569.651 133.851L568.501 135.376C567.684 134.709 566.859 134.226 566.026 133.926C565.209 133.626 564.351 133.476 563.451 133.476C562.301 133.476 561.393 133.751 560.726 134.301C560.059 134.834 559.726 135.501 559.726 136.301V136.351C559.726 136.767 559.793 137.142 559.926 137.476C560.059 137.792 560.301 138.092 560.651 138.376C561.001 138.642 561.484 138.892 562.101 139.126C562.718 139.342 563.509 139.551 564.476 139.751C566.426 140.184 567.859 140.784 568.776 141.551C569.709 142.317 570.176 143.367 570.176 144.701V144.751C570.176 145.501 570.026 146.184 569.726 146.801C569.426 147.401 569.009 147.917 568.476 148.351C567.959 148.784 567.334 149.117 566.601 149.351C565.868 149.584 565.068 149.701 564.201 149.701ZM574.792 136.526H576.717V149.451H574.792V136.526ZM574.667 131.826H576.867V133.951H574.667V131.826ZM581.935 136.526H583.86V138.776C584.293 138.076 584.86 137.484 585.56 137.001C586.26 136.501 587.168 136.251 588.285 136.251C589.068 136.251 589.76 136.376 590.36 136.626C590.976 136.876 591.493 137.234 591.91 137.701C592.343 138.151 592.668 138.692 592.885 139.326C593.118 139.959 593.235 140.659 593.235 141.426V149.451H591.31V141.901C591.31 140.701 591.001 139.751 590.385 139.051C589.768 138.351 588.885 138.001 587.735 138.001C587.185 138.001 586.668 138.101 586.185 138.301C585.718 138.484 585.31 138.759 584.96 139.126C584.61 139.476 584.335 139.901 584.135 140.401C583.951 140.901 583.86 141.451 583.86 142.051V149.451H581.935V136.526ZM603.815 153.501C602.732 153.501 601.698 153.351 600.715 153.051C599.732 152.751 598.807 152.301 597.94 151.701L598.815 150.201C599.565 150.734 600.348 151.142 601.165 151.426C601.982 151.709 602.857 151.851 603.79 151.851C605.223 151.851 606.365 151.459 607.215 150.676C608.065 149.909 608.49 148.767 608.49 147.251V145.726C607.923 146.476 607.232 147.117 606.415 147.651C605.598 148.184 604.598 148.451 603.415 148.451C602.632 148.451 601.873 148.309 601.14 148.026C600.423 147.742 599.782 147.342 599.215 146.826C598.648 146.292 598.19 145.659 597.84 144.926C597.507 144.176 597.34 143.334 597.34 142.401V142.351C597.34 141.401 597.507 140.551 597.84 139.801C598.19 139.051 598.648 138.417 599.215 137.901C599.782 137.367 600.432 136.959 601.165 136.676C601.898 136.392 602.648 136.251 603.415 136.251C604.015 136.251 604.565 136.326 605.065 136.476C605.582 136.609 606.04 136.792 606.44 137.026C606.857 137.259 607.232 137.534 607.565 137.851C607.898 138.167 608.198 138.501 608.465 138.851V136.526H610.39V147.201C610.39 148.201 610.248 149.076 609.965 149.826C609.682 150.592 609.273 151.242 608.74 151.776C608.157 152.359 607.448 152.792 606.615 153.076C605.782 153.359 604.848 153.501 603.815 153.501ZM603.79 146.751C604.407 146.751 604.998 146.651 605.565 146.451C606.132 146.234 606.632 145.934 607.065 145.551C607.515 145.151 607.873 144.684 608.14 144.151C608.407 143.617 608.54 143.026 608.54 142.376V142.326C608.54 141.659 608.407 141.059 608.14 140.526C607.873 139.992 607.515 139.534 607.065 139.151C606.632 138.767 606.132 138.476 605.565 138.276C604.998 138.059 604.407 137.951 603.79 137.951C603.173 137.951 602.59 138.059 602.04 138.276C601.507 138.476 601.032 138.767 600.615 139.151C600.215 139.517 599.898 139.967 599.665 140.501C599.432 141.034 599.315 141.634 599.315 142.301V142.351C599.315 143.001 599.432 143.601 599.665 144.151C599.915 144.684 600.24 145.142 600.64 145.526C601.057 145.909 601.532 146.209 602.065 146.426C602.615 146.642 603.19 146.751 603.79 146.751ZM619.292 149.726C618.692 149.726 618.1 149.642 617.517 149.476C616.95 149.309 616.433 149.059 615.967 148.726C615.517 148.376 615.15 147.951 614.867 147.451C614.6 146.951 614.467 146.367 614.467 145.701V145.651C614.467 144.967 614.6 144.367 614.867 143.851C615.133 143.334 615.508 142.901 615.992 142.551C616.492 142.201 617.075 141.934 617.742 141.751C618.425 141.567 619.175 141.476 619.992 141.476C620.825 141.476 621.55 141.526 622.167 141.626C622.783 141.726 623.383 141.859 623.967 142.026V141.576C623.967 140.409 623.625 139.534 622.942 138.951C622.275 138.351 621.333 138.051 620.117 138.051C619.35 138.051 618.65 138.142 618.017 138.326C617.4 138.492 616.792 138.717 616.192 139.001L615.617 137.426C616.333 137.092 617.058 136.834 617.792 136.651C618.525 136.451 619.367 136.351 620.317 136.351C622.15 136.351 623.542 136.826 624.492 137.776C625.375 138.659 625.817 139.917 625.817 141.551V149.451H623.967V147.501C623.517 148.084 622.908 148.601 622.142 149.051C621.392 149.501 620.442 149.726 619.292 149.726ZM619.667 148.201C620.267 148.201 620.825 148.117 621.342 147.951C621.875 147.767 622.333 147.526 622.717 147.226C623.117 146.909 623.425 146.542 623.642 146.126C623.875 145.692 623.992 145.217 623.992 144.701V143.451C623.508 143.317 622.95 143.192 622.317 143.076C621.7 142.959 620.992 142.901 620.192 142.901C618.975 142.901 618.042 143.142 617.392 143.626C616.742 144.109 616.417 144.759 616.417 145.576V145.626C616.417 146.026 616.5 146.392 616.667 146.726C616.85 147.042 617.092 147.309 617.392 147.526C617.692 147.742 618.033 147.909 618.417 148.026C618.817 148.142 619.233 148.201 619.667 148.201ZM630.669 136.526H632.594V139.126C632.861 138.742 633.152 138.376 633.469 138.026C633.802 137.676 634.169 137.376 634.569 137.126C634.969 136.859 635.411 136.651 635.894 136.501C636.394 136.334 636.944 136.251 637.544 136.251C638.311 136.251 639.061 136.401 639.794 136.701C640.544 137.001 641.211 137.442 641.794 138.026C642.377 138.592 642.844 139.292 643.194 140.126C643.544 140.942 643.719 141.884 643.719 142.951V143.001C643.719 144.051 643.544 144.992 643.194 145.826C642.844 146.659 642.377 147.367 641.794 147.951C641.227 148.517 640.569 148.959 639.819 149.276C639.086 149.576 638.327 149.726 637.544 149.726C636.944 149.726 636.394 149.651 635.894 149.501C635.394 149.351 634.944 149.151 634.544 148.901C634.144 148.651 633.777 148.359 633.444 148.026C633.127 147.692 632.844 147.342 632.594 146.976V153.451H630.669V136.526ZM637.194 148.001C637.811 148.001 638.394 147.892 638.944 147.676C639.511 147.442 639.994 147.117 640.394 146.701C640.811 146.267 641.136 145.742 641.369 145.126C641.619 144.509 641.744 143.809 641.744 143.026V142.976C641.744 142.209 641.619 141.517 641.369 140.901C641.136 140.284 640.811 139.759 640.394 139.326C639.977 138.892 639.494 138.559 638.944 138.326C638.394 138.092 637.811 137.976 637.194 137.976C636.594 137.976 636.011 138.101 635.444 138.351C634.894 138.584 634.394 138.926 633.944 139.376C633.511 139.809 633.161 140.334 632.894 140.951C632.644 141.551 632.519 142.217 632.519 142.951V143.001C632.519 143.751 632.644 144.434 632.894 145.051C633.161 145.667 633.511 146.192 633.944 146.626C634.394 147.059 634.894 147.401 635.444 147.651C636.011 147.884 636.594 148.001 637.194 148.001ZM653.921 149.751C652.954 149.751 652.062 149.576 651.246 149.226C650.429 148.859 649.721 148.376 649.121 147.776C648.521 147.159 648.054 146.451 647.721 145.651C647.387 144.834 647.221 143.967 647.221 143.051V143.001C647.221 142.084 647.387 141.217 647.721 140.401C648.054 139.584 648.521 138.867 649.121 138.251C649.721 137.634 650.429 137.151 651.246 136.801C652.079 136.434 652.987 136.251 653.971 136.251C654.937 136.251 655.829 136.434 656.646 136.801C657.479 137.151 658.196 137.634 658.796 138.251C659.396 138.851 659.862 139.559 660.196 140.376C660.529 141.176 660.696 142.034 660.696 142.951V143.001C660.696 143.917 660.521 144.784 660.171 145.601C659.837 146.417 659.371 147.134 658.771 147.751C658.171 148.367 657.454 148.859 656.621 149.226C655.787 149.576 654.887 149.751 653.921 149.751ZM653.971 148.026C654.671 148.026 655.312 147.892 655.896 147.626C656.479 147.359 656.979 147.001 657.396 146.551C657.812 146.101 658.137 145.576 658.371 144.976C658.604 144.376 658.721 143.734 658.721 143.051V143.001C658.721 142.301 658.596 141.651 658.346 141.051C658.112 140.434 657.779 139.901 657.346 139.451C656.912 138.984 656.404 138.617 655.821 138.351C655.237 138.084 654.604 137.951 653.921 137.951C653.221 137.951 652.579 138.084 651.996 138.351C651.412 138.617 650.912 138.976 650.496 139.426C650.096 139.876 649.779 140.409 649.546 141.026C649.312 141.626 649.196 142.267 649.196 142.951V143.001C649.196 143.701 649.312 144.359 649.546 144.976C649.796 145.576 650.129 146.101 650.546 146.551C650.979 147.001 651.487 147.359 652.071 147.626C652.654 147.892 653.287 148.026 653.971 148.026ZM664.933 136.526H666.858V139.901C667.091 139.367 667.383 138.876 667.733 138.426C668.083 137.976 668.483 137.592 668.933 137.276C669.383 136.942 669.874 136.692 670.408 136.526C670.941 136.359 671.516 136.284 672.133 136.301V138.376H671.983C671.283 138.376 670.616 138.501 669.983 138.751C669.366 139.001 668.824 139.376 668.358 139.876C667.891 140.376 667.524 141.001 667.258 141.751C666.991 142.484 666.858 143.334 666.858 144.301V149.451H664.933V136.526ZM680.903 149.751C680.02 149.751 679.186 149.592 678.403 149.276C677.62 148.942 676.936 148.484 676.353 147.901C675.77 147.301 675.303 146.592 674.953 145.776C674.62 144.942 674.453 144.026 674.453 143.026V142.976C674.453 142.042 674.603 141.167 674.903 140.351C675.22 139.534 675.653 138.826 676.203 138.226C676.753 137.609 677.403 137.126 678.153 136.776C678.92 136.426 679.753 136.251 680.653 136.251C681.603 136.251 682.453 136.434 683.203 136.801C683.953 137.151 684.586 137.634 685.103 138.251C685.62 138.867 686.011 139.592 686.278 140.426C686.545 141.242 686.678 142.126 686.678 143.076C686.678 143.209 686.678 143.317 686.678 143.401C686.678 143.484 686.67 143.584 686.653 143.701H676.403C676.47 144.401 676.636 145.026 676.903 145.576C677.17 146.109 677.503 146.567 677.903 146.951C678.32 147.317 678.786 147.601 679.303 147.801C679.82 147.984 680.37 148.076 680.953 148.076C681.853 148.076 682.62 147.909 683.253 147.576C683.903 147.242 684.495 146.801 685.028 146.251L686.228 147.326C685.578 148.059 684.836 148.651 684.003 149.101C683.17 149.534 682.136 149.751 680.903 149.751ZM684.728 142.276C684.678 141.692 684.553 141.134 684.353 140.601C684.17 140.067 683.903 139.601 683.553 139.201C683.22 138.801 682.803 138.484 682.303 138.251C681.82 138.001 681.253 137.876 680.603 137.876C680.036 137.876 679.511 137.992 679.028 138.226C678.545 138.442 678.12 138.751 677.753 139.151C677.386 139.534 677.086 139.992 676.853 140.526C676.62 141.059 676.47 141.642 676.403 142.276H684.728ZM689.554 151.626C690.187 151.392 690.637 151.101 690.904 150.751C691.17 150.417 691.279 149.984 691.229 149.451H690.329V146.826H692.629V149.076C692.629 150.092 692.404 150.859 691.954 151.376C691.504 151.909 690.804 152.284 689.854 152.501L689.554 151.626ZM712.452 149.751C711.319 149.751 710.294 149.517 709.377 149.051C708.477 148.567 707.702 147.917 707.052 147.101C706.419 146.267 705.927 145.309 705.577 144.226C705.244 143.142 705.077 141.984 705.077 140.751V140.701C705.077 139.484 705.252 138.326 705.602 137.226C705.952 136.126 706.452 135.167 707.102 134.351C707.752 133.517 708.527 132.859 709.427 132.376C710.344 131.892 711.369 131.651 712.502 131.651C713.619 131.651 714.627 131.892 715.527 132.376C716.444 132.842 717.219 133.492 717.852 134.326C718.502 135.142 718.994 136.101 719.327 137.201C719.677 138.284 719.852 139.434 719.852 140.651V140.701C719.852 141.934 719.677 143.101 719.327 144.201C718.977 145.284 718.477 146.242 717.827 147.076C717.194 147.892 716.419 148.542 715.502 149.026C714.585 149.509 713.569 149.751 712.452 149.751ZM712.502 147.951C713.319 147.951 714.052 147.759 714.702 147.376C715.369 146.976 715.927 146.451 716.377 145.801C716.844 145.134 717.194 144.367 717.427 143.501C717.677 142.617 717.802 141.701 717.802 140.751V140.701C717.802 139.751 717.677 138.842 717.427 137.976C717.177 137.092 716.819 136.317 716.352 135.651C715.885 134.984 715.319 134.451 714.652 134.051C714.002 133.651 713.269 133.451 712.452 133.451C711.635 133.451 710.894 133.651 710.227 134.051C709.577 134.434 709.019 134.959 708.552 135.626C708.102 136.276 707.752 137.034 707.502 137.901C707.252 138.767 707.127 139.684 707.127 140.651V140.701C707.127 141.651 707.252 142.567 707.502 143.451C707.752 144.317 708.11 145.084 708.577 145.751C709.044 146.417 709.61 146.951 710.277 147.351C710.944 147.751 711.685 147.951 712.502 147.951ZM732.741 133.751H723.116V131.951H734.991V133.426L727.041 149.451H724.841L732.741 133.751ZM744.117 147.951C744.967 147.951 745.709 147.751 746.342 147.351C746.992 146.934 747.534 146.392 747.967 145.726C748.417 145.042 748.75 144.267 748.967 143.401C749.2 142.517 749.317 141.601 749.317 140.651V140.301C748.767 141.151 748.084 141.826 747.267 142.326C746.467 142.826 745.5 143.076 744.367 143.076C743.467 143.076 742.642 142.942 741.892 142.676C741.142 142.409 740.5 142.034 739.967 141.551C739.434 141.067 739.017 140.492 738.717 139.826C738.417 139.159 738.267 138.434 738.267 137.651V137.601C738.267 136.767 738.417 135.992 738.717 135.276C739.034 134.542 739.467 133.909 740.017 133.376C740.567 132.842 741.225 132.426 741.992 132.126C742.775 131.809 743.634 131.651 744.567 131.651C745.567 131.651 746.442 131.809 747.192 132.126C747.942 132.442 748.6 132.884 749.167 133.451C749.834 134.117 750.359 134.976 750.742 136.026C751.142 137.076 751.342 138.476 751.342 140.226V140.276C751.342 141.659 751.167 142.934 750.817 144.101C750.467 145.267 749.967 146.267 749.317 147.101C748.684 147.934 747.917 148.584 747.017 149.051C746.134 149.517 745.15 149.751 744.067 149.751C742.917 149.751 741.917 149.551 741.067 149.151C740.217 148.734 739.417 148.217 738.667 147.601L739.817 146.076C740.534 146.709 741.234 147.184 741.917 147.501C742.6 147.801 743.334 147.951 744.117 147.951ZM744.592 141.376C745.259 141.376 745.859 141.267 746.392 141.051C746.942 140.817 747.4 140.517 747.767 140.151C748.15 139.784 748.442 139.367 748.642 138.901C748.842 138.417 748.942 137.926 748.942 137.426V137.376C748.942 136.826 748.834 136.309 748.617 135.826C748.4 135.342 748.092 134.926 747.692 134.576C747.309 134.209 746.842 133.926 746.292 133.726C745.742 133.509 745.142 133.401 744.492 133.401C743.842 133.401 743.25 133.517 742.717 133.751C742.2 133.967 741.759 134.267 741.392 134.651C741.042 135.017 740.767 135.451 740.567 135.951C740.384 136.434 740.292 136.951 740.292 137.501V137.551C740.292 138.101 740.392 138.617 740.592 139.101C740.809 139.567 741.1 139.967 741.467 140.301C741.85 140.634 742.309 140.901 742.842 141.101C743.375 141.284 743.959 141.376 744.592 141.376ZM761.053 147.951C761.903 147.951 762.645 147.751 763.278 147.351C763.928 146.934 764.47 146.392 764.903 145.726C765.353 145.042 765.687 144.267 765.903 143.401C766.137 142.517 766.253 141.601 766.253 140.651V140.301C765.703 141.151 765.02 141.826 764.203 142.326C763.403 142.826 762.437 143.076 761.303 143.076C760.403 143.076 759.578 142.942 758.828 142.676C758.078 142.409 757.437 142.034 756.903 141.551C756.37 141.067 755.953 140.492 755.653 139.826C755.353 139.159 755.203 138.434 755.203 137.651V137.601C755.203 136.767 755.353 135.992 755.653 135.276C755.97 134.542 756.403 133.909 756.953 133.376C757.503 132.842 758.162 132.426 758.928 132.126C759.712 131.809 760.57 131.651 761.503 131.651C762.503 131.651 763.378 131.809 764.128 132.126C764.878 132.442 765.537 132.884 766.103 133.451C766.77 134.117 767.295 134.976 767.678 136.026C768.078 137.076 768.278 138.476 768.278 140.226V140.276C768.278 141.659 768.103 142.934 767.753 144.101C767.403 145.267 766.903 146.267 766.253 147.101C765.62 147.934 764.853 148.584 763.953 149.051C763.07 149.517 762.087 149.751 761.003 149.751C759.853 149.751 758.853 149.551 758.003 149.151C757.153 148.734 756.353 148.217 755.603 147.601L756.753 146.076C757.47 146.709 758.17 147.184 758.853 147.501C759.537 147.801 760.27 147.951 761.053 147.951ZM761.528 141.376C762.195 141.376 762.795 141.267 763.328 141.051C763.878 140.817 764.337 140.517 764.703 140.151C765.087 139.784 765.378 139.367 765.578 138.901C765.778 138.417 765.878 137.926 765.878 137.426V137.376C765.878 136.826 765.77 136.309 765.553 135.826C765.337 135.342 765.028 134.926 764.628 134.576C764.245 134.209 763.778 133.926 763.228 133.726C762.678 133.509 762.078 133.401 761.428 133.401C760.778 133.401 760.187 133.517 759.653 133.751C759.137 133.967 758.695 134.267 758.328 134.651C757.978 135.017 757.703 135.451 757.503 135.951C757.32 136.434 757.228 136.951 757.228 137.501V137.551C757.228 138.101 757.328 138.617 757.528 139.101C757.745 139.567 758.037 139.967 758.403 140.301C758.787 140.634 759.245 140.901 759.778 141.101C760.312 141.284 760.895 141.376 761.528 141.376ZM779.49 149.751C778.357 149.751 777.332 149.517 776.415 149.051C775.515 148.567 774.74 147.917 774.09 147.101C773.457 146.267 772.965 145.309 772.615 144.226C772.282 143.142 772.115 141.984 772.115 140.751V140.701C772.115 139.484 772.29 138.326 772.64 137.226C772.99 136.126 773.49 135.167 774.14 134.351C774.79 133.517 775.565 132.859 776.465 132.376C777.382 131.892 778.407 131.651 779.54 131.651C780.657 131.651 781.665 131.892 782.565 132.376C783.482 132.842 784.257 133.492 784.89 134.326C785.54 135.142 786.032 136.101 786.365 137.201C786.715 138.284 786.89 139.434 786.89 140.651V140.701C786.89 141.934 786.715 143.101 786.365 144.201C786.015 145.284 785.515 146.242 784.865 147.076C784.232 147.892 783.457 148.542 782.54 149.026C781.623 149.509 780.607 149.751 779.49 149.751ZM779.54 147.951C780.357 147.951 781.09 147.759 781.74 147.376C782.407 146.976 782.965 146.451 783.415 145.801C783.882 145.134 784.232 144.367 784.465 143.501C784.715 142.617 784.84 141.701 784.84 140.751V140.701C784.84 139.751 784.715 138.842 784.465 137.976C784.215 137.092 783.857 136.317 783.39 135.651C782.923 134.984 782.357 134.451 781.69 134.051C781.04 133.651 780.307 133.451 779.49 133.451C778.673 133.451 777.932 133.651 777.265 134.051C776.615 134.434 776.057 134.959 775.59 135.626C775.14 136.276 774.79 137.034 774.54 137.901C774.29 138.767 774.165 139.684 774.165 140.651V140.701C774.165 141.651 774.29 142.567 774.54 143.451C774.79 144.317 775.148 145.084 775.615 145.751C776.082 146.417 776.648 146.951 777.315 147.351C777.982 147.751 778.723 147.951 779.54 147.951ZM796.717 149.751C795.25 149.751 793.975 149.467 792.892 148.901C791.809 148.317 790.909 147.559 790.192 146.626L791.642 145.351C792.309 146.184 793.05 146.826 793.867 147.276C794.7 147.726 795.659 147.951 796.742 147.951C797.275 147.951 797.775 147.876 798.242 147.726C798.709 147.559 799.109 147.326 799.442 147.026C799.792 146.726 800.067 146.367 800.267 145.951C800.467 145.534 800.567 145.067 800.567 144.551V144.501C800.567 143.951 800.442 143.467 800.192 143.051C799.959 142.634 799.625 142.284 799.192 142.001C798.759 141.717 798.242 141.501 797.642 141.351C797.042 141.201 796.384 141.126 795.667 141.126H794.542L794.142 139.951L799.667 133.726H791.117V131.951H802.292V133.401L796.792 139.501C797.559 139.567 798.284 139.709 798.967 139.926C799.667 140.142 800.284 140.451 800.817 140.851C801.35 141.251 801.775 141.751 802.092 142.351C802.409 142.934 802.567 143.626 802.567 144.426V144.476C802.567 145.259 802.409 145.976 802.092 146.626C801.792 147.276 801.375 147.834 800.842 148.301C800.325 148.751 799.709 149.109 798.992 149.376C798.292 149.626 797.534 149.751 796.717 149.751Z" fill="white"/>
<path opacity="0.2" d="M849.5 154.451V35.4507" stroke="url(#paint2_linear_505_4340)"/>
<g clip-path="url(#clip3_505_4340)">
<path d="M989.836 58.7451C989.631 58.094 989.223 57.526 988.67 57.1252C988.118 56.7243 987.451 56.5118 986.769 56.5191H982.4L981.073 52.3831C980.864 51.7321 980.454 51.1641 979.902 50.7612C979.349 50.3582 978.683 50.1411 978 50.1411C977.316 50.1411 976.65 50.3582 976.098 50.7612C975.546 51.1641 975.135 51.7321 974.927 52.3831L973.6 56.5191H969.231C968.551 56.5201 967.888 56.736 967.338 57.136C966.788 57.5361 966.378 58.0997 966.167 58.7465C965.956 59.3933 965.955 60.0902 966.164 60.7375C966.373 61.3849 966.782 61.9496 967.331 62.3511L970.887 64.9511L969.535 69.1381C969.316 69.7875 969.314 70.4901 969.527 71.1412C969.74 71.7923 970.158 72.357 970.719 72.7511C971.27 73.1579 971.937 73.3758 972.622 73.3724C973.307 73.369 973.972 73.1444 974.519 72.7321L978 70.1701L981.482 72.7291C982.032 73.1336 982.696 73.3533 983.378 73.3566C984.061 73.3599 984.727 73.1467 985.281 72.7476C985.834 72.3486 986.247 71.7842 986.46 71.1356C986.673 70.487 986.675 69.7877 986.465 69.1381L985.113 64.9511L988.673 62.3511C989.228 61.9547 989.641 61.3899 989.851 60.7405C990.06 60.091 990.055 59.3914 989.836 58.7451ZM987.493 60.7361L983.349 63.7651C983.179 63.8893 983.052 64.0641 982.987 64.2645C982.922 64.4649 982.922 64.6807 982.987 64.8811L984.562 69.7511C984.641 69.9981 984.641 70.264 984.56 70.5106C984.479 70.7572 984.322 70.9718 984.111 71.1235C983.901 71.2752 983.647 71.3562 983.388 71.3549C983.128 71.3536 982.876 71.27 982.667 71.1161L978.592 68.1161C978.42 67.9901 978.213 67.9221 978 67.9221C977.787 67.9221 977.579 67.9901 977.408 68.1161L973.333 71.1161C973.124 71.272 972.871 71.3574 972.61 71.3597C972.349 71.3621 972.095 71.2814 971.883 71.1293C971.671 70.9772 971.514 70.7616 971.433 70.5138C971.352 70.266 971.352 69.9989 971.433 69.7511L973.013 64.8811C973.078 64.6807 973.078 64.4649 973.013 64.2645C972.948 64.0641 972.821 63.8893 972.651 63.7651L968.507 60.7361C968.298 60.5833 968.143 60.3685 968.064 60.1223C967.984 59.8761 967.985 59.6111 968.065 59.3652C968.146 59.1193 968.302 58.9051 968.511 58.7532C968.72 58.6012 968.972 58.5193 969.231 58.5191H974.331C974.543 58.5191 974.749 58.4519 974.92 58.3272C975.091 58.2025 975.218 58.0267 975.283 57.8251L976.833 52.9941C976.912 52.7469 977.068 52.5313 977.278 52.3784C977.488 52.2254 977.741 52.143 978.001 52.143C978.26 52.143 978.514 52.2254 978.723 52.3784C978.933 52.5313 979.089 52.7469 979.169 52.9941L980.719 57.8251C980.784 58.0267 980.911 58.2025 981.082 58.3272C981.253 58.4519 981.459 58.5191 981.671 58.5191H986.771C987.029 58.5193 987.281 58.6012 987.491 58.7532C987.7 58.9051 987.856 59.1193 987.936 59.3652C988.017 59.6111 988.017 59.8761 987.938 60.1223C987.859 60.3685 987.703 60.5833 987.495 60.7361H987.493Z" fill="white"/>
</g>
<path d="M918.465 101.951H923.082C927.262 101.951 930.15 99.0437 930.15 95.3007V95.2627C930.15 91.5197 927.262 88.6507 923.082 88.6507H918.465V101.951ZM923.082 90.0377C926.445 90.0377 928.592 92.3557 928.592 95.3007V95.3387C928.592 98.2837 926.445 100.564 923.082 100.564H919.966V90.0377H923.082ZM933.327 101.951H934.828V96.7827H938.628L942.485 101.951H944.328L940.243 96.5167C942.333 96.1367 943.853 94.8447 943.853 92.6407V92.6027C943.853 91.5577 943.473 90.6267 942.827 89.9807C941.991 89.1447 940.68 88.6507 939.046 88.6507H933.327V101.951ZM934.828 95.4337V90.0377H938.932C941.079 90.0377 942.333 91.0257 942.333 92.6597V92.6977C942.333 94.4077 940.908 95.4337 938.913 95.4337H934.828ZM947.058 101.951H956.767V100.583H948.559V95.9277H955.817V94.5597H948.559V90.0187H956.672V88.6507H947.058V101.951ZM964.346 102.141C966.987 102.141 968.887 100.659 968.887 98.3787V98.3407C968.887 96.3077 967.519 95.2247 964.555 94.5787C961.629 93.9517 960.945 93.2487 960.945 91.9947V91.9567C960.945 90.7597 962.047 89.8097 963.776 89.8097C965.144 89.8097 966.379 90.2467 967.614 91.2537L968.488 90.0947C967.139 89.0117 965.752 88.4607 963.814 88.4607C961.287 88.4607 959.444 89.9997 959.444 92.0897V92.1277C959.444 94.3127 960.85 95.3007 963.909 95.9657C966.702 96.5547 967.367 97.2577 967.367 98.4927V98.5307C967.367 99.8417 966.189 100.792 964.403 100.792C962.56 100.792 961.23 100.165 959.843 98.9107L958.912 100.013C960.508 101.438 962.237 102.141 964.346 102.141ZM976.314 102.141C978.955 102.141 980.855 100.659 980.855 98.3787V98.3407C980.855 96.3077 979.487 95.2247 976.523 94.5787C973.597 93.9517 972.913 93.2487 972.913 91.9947V91.9567C972.913 90.7597 974.015 89.8097 975.744 89.8097C977.112 89.8097 978.347 90.2467 979.582 91.2537L980.456 90.0947C979.107 89.0117 977.72 88.4607 975.782 88.4607C973.255 88.4607 971.412 89.9997 971.412 92.0897V92.1277C971.412 94.3127 972.818 95.3007 975.877 95.9657C978.67 96.5547 979.335 97.2577 979.335 98.4927V98.5307C979.335 99.8417 978.157 100.792 976.371 100.792C974.528 100.792 973.198 100.165 971.811 98.9107L970.88 100.013C972.476 101.438 974.205 102.141 976.314 102.141ZM989.987 102.179C992.4 102.179 993.92 101.248 995.307 99.8417L994.319 98.8727C993.046 100.089 991.849 100.792 990.025 100.792C987.099 100.792 984.876 98.3787 984.876 95.3007V95.2627C984.876 92.2037 987.08 89.8097 990.025 89.8097C991.83 89.8097 993.084 90.5697 994.205 91.6337L995.231 90.5317C993.901 89.2777 992.457 88.4227 990.044 88.4227C986.13 88.4227 983.318 91.5387 983.318 95.3007V95.3387C983.318 99.1577 986.149 102.179 989.987 102.179ZM1003.74 102.179C1007.79 102.179 1010.54 98.9677 1010.54 95.3007V95.2627C1010.54 91.5957 1007.82 88.4227 1003.78 88.4227C999.73 88.4227 996.975 91.6337 996.975 95.3007V95.3387C996.975 99.0057 999.692 102.179 1003.74 102.179ZM1003.78 100.792C1000.74 100.792 998.533 98.3217 998.533 95.3007V95.2627C998.533 92.2417 1000.7 89.8097 1003.74 89.8097C1006.78 89.8097 1008.98 92.2797 1008.98 95.3007V95.3387C1008.98 98.3597 1006.82 100.792 1003.78 100.792ZM1013.71 101.951H1018.32C1022.5 101.951 1025.39 99.0437 1025.39 95.3007V95.2627C1025.39 91.5197 1022.5 88.6507 1018.32 88.6507H1013.71V101.951ZM1018.32 90.0377C1021.69 90.0377 1023.83 92.3557 1023.83 95.3007V95.3387C1023.83 98.2837 1021.69 100.564 1018.32 100.564H1015.21V90.0377H1018.32ZM1028.57 101.951H1038.28V100.583H1030.07V95.9277H1037.33V94.5597H1030.07V90.0187H1038.18V88.6507H1028.57V101.951ZM903.036 134.201C901.703 134.201 900.395 133.976 899.111 133.526C897.828 133.059 896.661 132.351 895.611 131.401L897.886 128.676C898.686 129.326 899.503 129.842 900.336 130.226C901.186 130.609 902.111 130.801 903.111 130.801C903.911 130.801 904.528 130.659 904.961 130.376C905.411 130.076 905.636 129.667 905.636 129.151V129.101C905.636 128.851 905.586 128.634 905.486 128.451C905.403 128.251 905.228 128.067 904.961 127.901C904.711 127.734 904.353 127.567 903.886 127.401C903.436 127.234 902.845 127.059 902.111 126.876C901.228 126.659 900.428 126.417 899.711 126.151C898.995 125.884 898.386 125.559 897.886 125.176C897.386 124.776 896.995 124.284 896.711 123.701C896.445 123.117 896.311 122.392 896.311 121.526V121.476C896.311 120.676 896.461 119.959 896.761 119.326C897.061 118.676 897.478 118.117 898.011 117.651C898.561 117.184 899.211 116.826 899.961 116.576C900.711 116.326 901.536 116.201 902.436 116.201C903.72 116.201 904.895 116.392 905.961 116.776C907.045 117.159 908.036 117.709 908.936 118.426L906.936 121.326C906.153 120.792 905.386 120.376 904.636 120.076C903.886 119.759 903.136 119.601 902.386 119.601C901.636 119.601 901.07 119.751 900.686 120.051C900.32 120.334 900.136 120.692 900.136 121.126V121.176C900.136 121.459 900.186 121.709 900.286 121.926C900.403 122.126 900.603 122.309 900.886 122.476C901.17 122.642 901.553 122.801 902.036 122.951C902.536 123.101 903.161 123.276 903.911 123.476C904.795 123.709 905.578 123.976 906.261 124.276C906.961 124.559 907.545 124.909 908.011 125.326C908.495 125.726 908.853 126.201 909.086 126.751C909.336 127.301 909.461 127.959 909.461 128.726V128.776C909.461 129.642 909.303 130.417 908.986 131.101C908.67 131.767 908.228 132.334 907.661 132.801C907.095 133.251 906.42 133.601 905.636 133.851C904.853 134.084 903.986 134.201 903.036 134.201ZM912.403 120.551H916.203V122.451C916.419 122.167 916.653 121.901 916.903 121.651C917.169 121.384 917.461 121.151 917.778 120.951C918.094 120.751 918.444 120.592 918.828 120.476C919.228 120.359 919.669 120.301 920.153 120.301C921.036 120.301 921.794 120.484 922.428 120.851C923.078 121.217 923.578 121.742 923.928 122.426C924.511 121.726 925.161 121.201 925.878 120.851C926.594 120.484 927.411 120.301 928.328 120.301C929.744 120.301 930.853 120.717 931.653 121.551C932.453 122.384 932.853 123.609 932.853 125.226V133.951H929.053V126.476C929.053 125.576 928.861 124.901 928.478 124.451C928.094 123.984 927.544 123.751 926.828 123.751C926.111 123.751 925.544 123.984 925.128 124.451C924.728 124.901 924.528 125.576 924.528 126.476V133.951H920.728V126.476C920.728 125.576 920.536 124.901 920.153 124.451C919.769 123.984 919.219 123.751 918.503 123.751C917.786 123.751 917.219 123.984 916.803 124.451C916.403 124.901 916.203 125.576 916.203 126.476V133.951H912.403V120.551ZM939.958 134.201C939.324 134.201 938.724 134.117 938.158 133.951C937.608 133.767 937.124 133.501 936.708 133.151C936.291 132.801 935.958 132.376 935.708 131.876C935.474 131.359 935.358 130.767 935.358 130.101V130.051C935.358 129.317 935.491 128.684 935.758 128.151C936.024 127.617 936.391 127.176 936.858 126.826C937.341 126.476 937.908 126.217 938.558 126.051C939.224 125.867 939.958 125.776 940.758 125.776C941.441 125.776 942.033 125.826 942.533 125.926C943.049 126.026 943.549 126.159 944.033 126.326V126.101C944.033 125.301 943.791 124.692 943.308 124.276C942.824 123.859 942.108 123.651 941.158 123.651C940.424 123.651 939.774 123.717 939.208 123.851C938.658 123.967 938.074 124.142 937.458 124.376L936.508 121.476C937.241 121.159 938.008 120.901 938.808 120.701C939.608 120.501 940.574 120.401 941.708 120.401C942.758 120.401 943.649 120.534 944.383 120.801C945.133 121.051 945.749 121.417 946.233 121.901C946.733 122.401 947.099 123.017 947.333 123.751C947.566 124.467 947.683 125.276 947.683 126.176V133.951H944.008V132.501C943.541 133.017 942.983 133.434 942.333 133.751C941.683 134.051 940.891 134.201 939.958 134.201ZM941.108 131.576C942.008 131.576 942.724 131.359 943.258 130.926C943.808 130.492 944.083 129.926 944.083 129.226V128.551C943.749 128.401 943.374 128.284 942.958 128.201C942.558 128.101 942.124 128.051 941.658 128.051C940.841 128.051 940.199 128.209 939.733 128.526C939.266 128.842 939.033 129.301 939.033 129.901V129.951C939.033 130.467 939.224 130.867 939.608 131.151C939.991 131.434 940.491 131.576 941.108 131.576ZM950.952 120.551H954.752V123.251C955.136 122.334 955.661 121.601 956.327 121.051C956.994 120.501 957.894 120.251 959.027 120.301V124.276H958.827C957.561 124.276 956.561 124.659 955.827 125.426C955.111 126.192 954.752 127.384 954.752 129.001V133.951H950.952V120.551ZM965.927 134.176C965.343 134.176 964.81 134.109 964.327 133.976C963.86 133.859 963.452 133.642 963.102 133.326C962.768 133.009 962.502 132.601 962.302 132.101C962.118 131.584 962.027 130.934 962.027 130.151V123.801H960.427V120.551H962.027V117.126H965.827V120.551H968.977V123.801H965.827V129.526C965.827 130.392 966.235 130.826 967.052 130.826C967.718 130.826 968.343 130.667 968.927 130.351V133.401C968.527 133.634 968.085 133.817 967.602 133.951C967.118 134.101 966.56 134.176 965.927 134.176ZM987.873 134.251C986.589 134.251 985.398 134.017 984.298 133.551C983.198 133.084 982.248 132.451 981.448 131.651C980.648 130.834 980.023 129.876 979.573 128.776C979.123 127.676 978.898 126.501 978.898 125.251V125.201C978.898 123.951 979.123 122.784 979.573 121.701C980.023 120.601 980.648 119.642 981.448 118.826C982.248 117.992 983.206 117.342 984.323 116.876C985.439 116.392 986.673 116.151 988.023 116.151C988.839 116.151 989.581 116.217 990.248 116.351C990.931 116.484 991.548 116.667 992.098 116.901C992.648 117.134 993.156 117.417 993.623 117.751C994.089 118.084 994.523 118.451 994.923 118.851L992.473 121.676C991.789 121.059 991.089 120.576 990.373 120.226C989.673 119.876 988.881 119.701 987.998 119.701C987.264 119.701 986.581 119.842 985.948 120.126C985.331 120.409 984.798 120.801 984.348 121.301C983.898 121.801 983.548 122.384 983.298 123.051C983.048 123.701 982.923 124.401 982.923 125.151V125.201C982.923 125.951 983.048 126.659 983.298 127.326C983.548 127.992 983.889 128.576 984.323 129.076C984.773 129.576 985.306 129.976 985.923 130.276C986.556 130.559 987.248 130.701 987.998 130.701C988.998 130.701 989.839 130.517 990.523 130.151C991.223 129.784 991.914 129.284 992.598 128.651L995.048 131.126C994.598 131.609 994.131 132.042 993.648 132.426C993.164 132.809 992.631 133.142 992.048 133.426C991.481 133.692 990.856 133.892 990.173 134.026C989.489 134.176 988.723 134.251 987.873 134.251ZM1001.53 134.201C1000.9 134.201 1000.3 134.117 999.73 133.951C999.18 133.767 998.696 133.501 998.28 133.151C997.863 132.801 997.53 132.376 997.28 131.876C997.046 131.359 996.93 130.767 996.93 130.101V130.051C996.93 129.317 997.063 128.684 997.33 128.151C997.596 127.617 997.963 127.176 998.43 126.826C998.913 126.476 999.48 126.217 1000.13 126.051C1000.8 125.867 1001.53 125.776 1002.33 125.776C1003.01 125.776 1003.6 125.826 1004.1 125.926C1004.62 126.026 1005.12 126.159 1005.6 126.326V126.101C1005.6 125.301 1005.36 124.692 1004.88 124.276C1004.4 123.859 1003.68 123.651 1002.73 123.651C1002 123.651 1001.35 123.717 1000.78 123.851C1000.23 123.967 999.646 124.142 999.03 124.376L998.08 121.476C998.813 121.159 999.58 120.901 1000.38 120.701C1001.18 120.501 1002.15 120.401 1003.28 120.401C1004.33 120.401 1005.22 120.534 1005.95 120.801C1006.7 121.051 1007.32 121.417 1007.8 121.901C1008.3 122.401 1008.67 123.017 1008.9 123.751C1009.14 124.467 1009.25 125.276 1009.25 126.176V133.951H1005.58V132.501C1005.11 133.017 1004.55 133.434 1003.9 133.751C1003.25 134.051 1002.46 134.201 1001.53 134.201ZM1002.68 131.576C1003.58 131.576 1004.3 131.359 1004.83 130.926C1005.38 130.492 1005.65 129.926 1005.65 129.226V128.551C1005.32 128.401 1004.95 128.284 1004.53 128.201C1004.13 128.101 1003.7 128.051 1003.23 128.051C1002.41 128.051 1001.77 128.209 1001.3 128.526C1000.84 128.842 1000.6 129.301 1000.6 129.901V129.951C1000.6 130.467 1000.8 130.867 1001.18 131.151C1001.56 131.434 1002.06 131.576 1002.68 131.576ZM1017.22 134.201C1016.27 134.201 1015.3 134.042 1014.3 133.726C1013.32 133.392 1012.37 132.876 1011.47 132.176L1013.1 129.676C1013.83 130.209 1014.56 130.609 1015.27 130.876C1016.01 131.142 1016.69 131.276 1017.32 131.276C1017.87 131.276 1018.27 131.184 1018.52 131.001C1018.79 130.817 1018.92 130.576 1018.92 130.276V130.226C1018.92 130.026 1018.85 129.851 1018.7 129.701C1018.55 129.551 1018.34 129.426 1018.07 129.326C1017.82 129.209 1017.53 129.101 1017.2 129.001C1016.87 128.901 1016.52 128.792 1016.15 128.676C1015.68 128.542 1015.21 128.384 1014.72 128.201C1014.26 128.001 1013.83 127.751 1013.45 127.451C1013.07 127.134 1012.75 126.751 1012.5 126.301C1012.27 125.851 1012.15 125.301 1012.15 124.651V124.601C1012.15 123.917 1012.27 123.317 1012.52 122.801C1012.79 122.267 1013.14 121.817 1013.57 121.451C1014.02 121.084 1014.54 120.809 1015.12 120.626C1015.72 120.442 1016.37 120.351 1017.05 120.351C1017.9 120.351 1018.76 120.492 1019.62 120.776C1020.51 121.042 1021.32 121.417 1022.05 121.901L1020.6 124.526C1019.93 124.142 1019.28 123.842 1018.65 123.626C1018.02 123.392 1017.46 123.276 1016.97 123.276C1016.51 123.276 1016.16 123.367 1015.92 123.551C1015.69 123.717 1015.57 123.934 1015.57 124.201V124.251C1015.57 124.434 1015.65 124.601 1015.8 124.751C1015.95 124.884 1016.15 125.017 1016.4 125.151C1016.65 125.267 1016.93 125.384 1017.25 125.501C1017.58 125.617 1017.93 125.734 1018.3 125.851C1018.77 126.001 1019.24 126.184 1019.72 126.401C1020.21 126.601 1020.64 126.851 1021.02 127.151C1021.41 127.451 1021.72 127.817 1021.97 128.251C1022.22 128.684 1022.35 129.209 1022.35 129.826V129.876C1022.35 130.626 1022.22 131.276 1021.95 131.826C1021.7 132.359 1021.34 132.801 1020.87 133.151C1020.41 133.501 1019.86 133.767 1019.22 133.951C1018.61 134.117 1017.94 134.201 1017.22 134.201ZM1029.52 134.201C1028.07 134.201 1026.95 133.759 1026.15 132.876C1025.37 131.992 1024.97 130.776 1024.97 129.226V120.551H1028.77V128.026C1028.77 128.926 1028.97 129.609 1029.37 130.076C1029.77 130.526 1030.34 130.751 1031.07 130.751C1031.81 130.751 1032.38 130.526 1032.8 130.076C1033.23 129.609 1033.45 128.926 1033.45 128.026V120.551H1037.25V133.951H1033.45V132.051C1033.23 132.334 1032.99 132.609 1032.72 132.876C1032.47 133.126 1032.19 133.351 1031.87 133.551C1031.56 133.751 1031.21 133.909 1030.82 134.026C1030.44 134.142 1030.01 134.201 1029.52 134.201ZM1044.45 134.201C1043.82 134.201 1043.22 134.117 1042.65 133.951C1042.1 133.767 1041.62 133.501 1041.2 133.151C1040.78 132.801 1040.45 132.376 1040.2 131.876C1039.97 131.359 1039.85 130.767 1039.85 130.101V130.051C1039.85 129.317 1039.98 128.684 1040.25 128.151C1040.52 127.617 1040.88 127.176 1041.35 126.826C1041.83 126.476 1042.4 126.217 1043.05 126.051C1043.72 125.867 1044.45 125.776 1045.25 125.776C1045.93 125.776 1046.52 125.826 1047.02 125.926C1047.54 126.026 1048.04 126.159 1048.52 126.326V126.101C1048.52 125.301 1048.28 124.692 1047.8 124.276C1047.32 123.859 1046.6 123.651 1045.65 123.651C1044.92 123.651 1044.27 123.717 1043.7 123.851C1043.15 123.967 1042.57 124.142 1041.95 124.376L1041 121.476C1041.73 121.159 1042.5 120.901 1043.3 120.701C1044.1 120.501 1045.07 120.401 1046.2 120.401C1047.25 120.401 1048.14 120.534 1048.87 120.801C1049.62 121.051 1050.24 121.417 1050.72 121.901C1051.22 122.401 1051.59 123.017 1051.82 123.751C1052.06 124.467 1052.17 125.276 1052.17 126.176V133.951H1048.5V132.501C1048.03 133.017 1047.47 133.434 1046.82 133.751C1046.17 134.051 1045.38 134.201 1044.45 134.201ZM1045.6 131.576C1046.5 131.576 1047.22 131.359 1047.75 130.926C1048.3 130.492 1048.57 129.926 1048.57 129.226V128.551C1048.24 128.401 1047.87 128.284 1047.45 128.201C1047.05 128.101 1046.62 128.051 1046.15 128.051C1045.33 128.051 1044.69 128.209 1044.22 128.526C1043.76 128.842 1043.52 129.301 1043.52 129.901V129.951C1043.52 130.467 1043.72 130.867 1044.1 131.151C1044.48 131.434 1044.98 131.576 1045.6 131.576ZM1055.62 115.701H1059.42V133.951H1055.62V115.701Z" fill="white"/>
<defs>
<linearGradient id="paint0_linear_505_4340" x1="243.5" y1="94.9478" x2="244.5" y2="94.9478" gradientUnits="userSpaceOnUse">
<stop stop-color="#FAC47E"/>
<stop offset="1" stop-color="#A67F56"/>
</linearGradient>
<linearGradient id="paint1_linear_505_4340" x1="510.5" y1="94.9478" x2="511.5" y2="94.9478" gradientUnits="userSpaceOnUse">
<stop stop-color="#FAC47E"/>
<stop offset="1" stop-color="#A67F56"/>
</linearGradient>
<linearGradient id="paint2_linear_505_4340" x1="849.5" y1="94.9478" x2="850.5" y2="94.9478" gradientUnits="userSpaceOnUse">
<stop stop-color="#FAC47E"/>
<stop offset="1" stop-color="#A67F56"/>
</linearGradient>
<clipPath id="clip0_505_4340">
<rect width="24" height="24" fill="white" transform="translate(105 47.9507)"/>
</clipPath>
<clipPath id="clip1_505_4340">
<rect width="24" height="24" fill="white" transform="translate(365 63.9507)"/>
</clipPath>
<clipPath id="clip2_505_4340">
<rect width="24" height="24" fill="white" transform="translate(668 35.4507)"/>
</clipPath>
<clipPath id="clip3_505_4340">
<rect width="24" height="24" fill="white" transform="translate(966 49.9507)"/>
</clipPath>
</defs>
</svg>
