<svg width="1220" height="190" viewBox="0 0 1220 190" fill="none" xmlns="http://www.w3.org/2000/svg">
<rect x="0.882324" y="0.740234" width="1219" height="189" rx="26" fill="#E8A560" fill-opacity="0.1"/>
<g clip-path="url(#clip0_505_4340)">
<path d="M150.882 50.2402H149.882V49.2402C149.882 48.975 149.777 48.7207 149.589 48.5331C149.402 48.3456 149.148 48.2402 148.882 48.2402C148.617 48.2402 148.363 48.3456 148.175 48.5331C147.988 48.7207 147.882 48.975 147.882 49.2402V50.2402H139.882V49.2402C139.882 48.975 139.777 48.7207 139.589 48.5331C139.402 48.3456 139.148 48.2402 138.882 48.2402C138.617 48.2402 138.363 48.3456 138.175 48.5331C137.988 48.7207 137.882 48.975 137.882 49.2402V50.2402H136.882C135.557 50.2418 134.286 50.7691 133.349 51.7065C132.411 52.6438 131.884 53.9146 131.882 55.2402V67.2402C131.884 68.5658 132.411 69.8367 133.349 70.774C134.286 71.7114 135.557 72.2386 136.882 72.2402H150.882C152.208 72.2386 153.479 71.7114 154.416 70.774C155.353 69.8367 155.881 68.5658 155.882 67.2402V55.2402C155.881 53.9146 155.353 52.6438 154.416 51.7065C153.479 50.7691 152.208 50.2418 150.882 50.2402ZM133.882 55.2402C133.882 54.4446 134.198 53.6815 134.761 53.1189C135.324 52.5563 136.087 52.2402 136.882 52.2402H150.882C151.678 52.2402 152.441 52.5563 153.004 53.1189C153.566 53.6815 153.882 54.4446 153.882 55.2402V56.2402H133.882V55.2402ZM150.882 70.2402H136.882C136.087 70.2402 135.324 69.9242 134.761 69.3616C134.198 68.7989 133.882 68.0359 133.882 67.2402V58.2402H153.882V67.2402C153.882 68.0359 153.566 68.7989 153.004 69.3616C152.441 69.9242 151.678 70.2402 150.882 70.2402Z" fill="white"/>
<path d="M143.882 64.7402C144.711 64.7402 145.382 64.0687 145.382 63.2402C145.382 62.4118 144.711 61.7402 143.882 61.7402C143.054 61.7402 142.382 62.4118 142.382 63.2402C142.382 64.0687 143.054 64.7402 143.882 64.7402Z" fill="white"/>
<path d="M138.882 64.7402C139.711 64.7402 140.382 64.0687 140.382 63.2402C140.382 62.4118 139.711 61.7402 138.882 61.7402C138.054 61.7402 137.382 62.4118 137.382 63.2402C137.382 64.0687 138.054 64.7402 138.882 64.7402Z" fill="white"/>
<path d="M148.882 64.7402C149.711 64.7402 150.382 64.0687 150.382 63.2402C150.382 62.4118 149.711 61.7402 148.882 61.7402C148.054 61.7402 147.382 62.4118 147.382 63.2402C147.382 64.0687 148.054 64.7402 148.882 64.7402Z" fill="white"/>
</g>
<path d="M94.0829 105.24V87.7402H98.2329L102.833 95.1402L107.433 87.7402H111.583V105.24H107.758V93.8152L102.833 101.29H102.733L97.8579 93.8902V105.24H94.0829ZM122.712 105.54C118.562 105.54 115.487 102.465 115.487 98.6152V98.5652C115.487 94.7152 118.587 91.5902 122.762 91.5902C126.912 91.5902 129.987 94.6652 129.987 98.5152V98.5652C129.987 102.415 126.887 105.54 122.712 105.54ZM122.762 102.265C124.937 102.265 126.237 100.59 126.237 98.6152V98.5652C126.237 96.5902 124.812 94.8652 122.712 94.8652C120.537 94.8652 119.237 96.5402 119.237 98.5152V98.5652C119.237 100.54 120.662 102.265 122.762 102.265ZM133.489 105.24V91.8402H137.289V93.7402C138.164 92.6152 139.289 91.5902 141.214 91.5902C144.089 91.5902 145.764 93.4902 145.764 96.5652V105.24H141.964V97.7652C141.964 95.9652 141.114 95.0402 139.664 95.0402C138.214 95.0402 137.289 95.9652 137.289 97.7652V105.24H133.489ZM155.315 105.49C152.19 105.49 149.215 103.04 149.215 98.5652V98.5152C149.215 94.0402 152.14 91.5902 155.315 91.5902C157.34 91.5902 158.59 92.5152 159.49 93.5902V86.9902H163.29V105.24H159.49V103.315C158.565 104.565 157.29 105.49 155.315 105.49ZM156.29 102.265C158.065 102.265 159.54 100.79 159.54 98.5652V98.5152C159.54 96.2902 158.065 94.8152 156.29 94.8152C154.515 94.8152 153.015 96.2652 153.015 98.5152V98.5652C153.015 100.79 154.515 102.265 156.29 102.265ZM171.235 105.49C168.71 105.49 166.635 104.04 166.635 101.39V101.34C166.635 98.4152 168.86 97.0652 172.035 97.0652C173.385 97.0652 174.36 97.2902 175.31 97.6152V97.3902C175.31 95.8152 174.335 94.9402 172.435 94.9402C170.985 94.9402 169.96 95.2152 168.735 95.6652L167.785 92.7652C169.26 92.1152 170.71 91.6902 172.985 91.6902C175.06 91.6902 176.56 92.2402 177.51 93.1902C178.51 94.1902 178.96 95.6652 178.96 97.4652V105.24H175.285V103.79C174.36 104.815 173.085 105.49 171.235 105.49ZM172.385 102.865C174.16 102.865 175.36 101.89 175.36 100.515V99.8402C174.71 99.5402 173.86 99.3402 172.935 99.3402C171.31 99.3402 170.31 99.9902 170.31 101.19V101.24C170.31 102.265 171.16 102.865 172.385 102.865ZM188.367 100.965L191.292 91.8402H195.242L190.092 105.565C189.067 108.29 187.967 109.315 185.692 109.315C184.317 109.315 183.292 108.965 182.317 108.39L183.592 105.64C184.092 105.94 184.717 106.165 185.217 106.165C185.867 106.165 186.217 105.965 186.542 105.29L181.292 91.8402H185.317L188.367 100.965ZM40.6653 137.24V123.515L37.6153 124.265L36.8153 121.115L41.8403 119.615H44.4653V137.24H40.6653ZM57.4622 137.24V133.465H48.9122L48.2872 130.74L57.8872 119.615H61.1372V130.34H63.4872V133.465H61.1372V137.24H57.4622ZM52.8122 130.34H57.4622V124.89L52.8122 130.34ZM74.3437 137.24L81.8437 119.615H85.3937L92.8937 137.24H88.8687L87.2687 133.315H79.8687L78.2687 137.24H74.3437ZM81.2437 129.915H85.8937L83.5687 124.24L81.2437 129.915ZM100.15 137.49C97.2755 137.49 95.6005 135.59 95.6005 132.515V123.84H99.4005V131.315C99.4005 133.115 100.25 134.04 101.7 134.04C103.15 134.04 104.075 133.115 104.075 131.315V123.84H107.875V137.24H104.075V135.34C103.2 136.465 102.075 137.49 100.15 137.49ZM118.027 141.29C115.852 141.29 113.802 140.79 112.102 139.89L113.402 137.04C114.777 137.815 116.152 138.265 117.927 138.265C120.527 138.265 121.752 137.015 121.752 134.615V133.965C120.627 135.315 119.402 136.14 117.377 136.14C114.252 136.14 111.427 133.865 111.427 129.89V129.84C111.427 125.84 114.302 123.59 117.377 123.59C119.452 123.59 120.677 124.465 121.702 125.59V123.84H125.502V134.215C125.502 136.615 124.927 138.365 123.802 139.49C122.552 140.74 120.627 141.29 118.027 141.29ZM118.477 132.99C120.327 132.99 121.752 131.715 121.752 129.89V129.84C121.752 128.015 120.327 126.74 118.477 126.74C116.627 126.74 115.227 128.015 115.227 129.84V129.89C115.227 131.74 116.627 132.99 118.477 132.99ZM134.097 137.49C131.222 137.49 129.547 135.59 129.547 132.515V123.84H133.347V131.315C133.347 133.115 134.197 134.04 135.647 134.04C137.097 134.04 138.022 133.115 138.022 131.315V123.84H141.822V137.24H138.022V135.34C137.147 136.465 136.022 137.49 134.097 137.49ZM150.673 137.49C148.798 137.49 146.698 136.865 144.923 135.465L146.548 132.965C147.998 134.015 149.523 134.565 150.773 134.565C151.873 134.565 152.373 134.165 152.373 133.565V133.515C152.373 132.69 151.073 132.415 149.598 131.965C147.723 131.415 145.598 130.54 145.598 127.94V127.89C145.598 125.165 147.798 123.64 150.498 123.64C152.198 123.64 154.048 124.215 155.498 125.19L154.048 127.815C152.723 127.04 151.398 126.565 150.423 126.565C149.498 126.565 149.023 126.965 149.023 127.49V127.54C149.023 128.29 150.298 128.64 151.748 129.14C153.623 129.765 155.798 130.665 155.798 133.115V133.165C155.798 136.14 153.573 137.49 150.673 137.49ZM163.553 137.465C161.228 137.465 159.653 136.54 159.653 133.44V127.09H158.053V123.84H159.653V120.415H163.453V123.84H166.603V127.09H163.453V132.815C163.453 133.69 163.828 134.115 164.678 134.115C165.378 134.115 166.003 133.94 166.553 133.64V136.69C165.753 137.165 164.828 137.465 163.553 137.465ZM169.429 141.29L169.104 139.715C170.829 139.54 171.679 138.665 171.554 137.24H170.004V133.24H174.054V136.615C174.054 139.915 172.404 141.24 169.429 141.29ZM185.827 137.24V134.19L191.652 129.415C193.827 127.615 194.677 126.665 194.677 125.215C194.677 123.74 193.702 122.94 192.327 122.94C190.977 122.94 190.052 123.69 188.752 125.29L186.052 123.115C187.777 120.765 189.452 119.49 192.577 119.49C196.202 119.49 198.602 121.615 198.602 124.89V124.94C198.602 127.865 197.102 129.315 194.002 131.715L191.152 133.915H198.777V137.24H185.827ZM210.028 137.54C205.353 137.54 202.278 133.615 202.278 128.54V128.49C202.278 123.415 205.428 119.44 210.078 119.44C214.703 119.44 217.828 123.365 217.828 128.44V128.49C217.828 133.565 214.703 137.54 210.028 137.54ZM210.078 134.065C212.403 134.065 213.878 131.715 213.878 128.54V128.49C213.878 125.315 212.328 122.915 210.028 122.915C207.728 122.915 206.228 125.24 206.228 128.44V128.49C206.228 131.69 207.753 134.065 210.078 134.065ZM220.921 137.24V134.19L226.746 129.415C228.921 127.615 229.771 126.665 229.771 125.215C229.771 123.74 228.796 122.94 227.421 122.94C226.071 122.94 225.146 123.69 223.846 125.29L221.146 123.115C222.871 120.765 224.546 119.49 227.671 119.49C231.296 119.49 233.696 121.615 233.696 124.89V124.94C233.696 127.865 232.196 129.315 229.096 131.715L226.246 133.915H233.871V137.24H220.921ZM243.797 137.54C240.647 137.54 238.472 136.29 236.972 134.515L239.622 131.99C240.822 133.34 242.072 134.09 243.847 134.09C245.297 134.09 246.322 133.265 246.322 131.965V131.915C246.322 130.49 245.047 129.69 242.897 129.69H241.297L240.697 127.24L244.872 123.04H237.997V119.74H249.822V122.64L245.397 126.865C247.772 127.265 250.097 128.515 250.097 131.765V131.815C250.097 135.115 247.697 137.54 243.797 137.54Z" fill="white"/>
<path opacity="0.2" d="M296.882 154.74V35.7402" stroke="url(#paint0_linear_505_4340)"/>
<g clip-path="url(#clip1_505_4340)">
<path d="M429.882 48.2402C427.509 48.2402 425.189 48.944 423.215 50.2626C421.242 51.5812 419.704 53.4553 418.796 55.648C417.888 57.8407 417.65 60.2535 418.113 62.5813C418.576 64.9091 419.719 67.0473 421.397 68.7255C423.075 70.4037 425.213 71.5466 427.541 72.0097C429.869 72.4727 432.282 72.235 434.475 71.3268C436.667 70.4185 438.541 68.8805 439.86 66.9071C441.179 64.9337 441.882 62.6136 441.882 60.2402C441.879 57.0587 440.614 54.0084 438.364 51.7588C436.114 49.5091 433.064 48.2437 429.882 48.2402V48.2402ZM429.882 69.2402C428.102 69.2402 426.362 68.7124 424.882 67.7235C423.402 66.7345 422.249 65.3289 421.567 63.6844C420.886 62.0399 420.708 60.2303 421.055 58.4844C421.403 56.7386 422.26 55.1349 423.518 53.8763C424.777 52.6176 426.381 51.7604 428.127 51.4132C429.872 51.0659 431.682 51.2441 433.326 51.9253C434.971 52.6065 436.377 53.7601 437.366 55.2401C438.354 56.7201 438.882 58.4602 438.882 60.2402C438.88 62.6264 437.931 64.914 436.243 66.6013C434.556 68.2885 432.268 69.2376 429.882 69.2402Z" fill="white"/>
<path d="M428.382 59.2952L425.982 60.7952C425.815 60.8998 425.671 61.0362 425.556 61.1967C425.442 61.3573 425.36 61.5387 425.316 61.7308C425.272 61.9228 425.266 62.1217 425.299 62.316C425.332 62.5103 425.403 62.6962 425.507 62.8632C425.612 63.0302 425.748 63.175 425.909 63.2892C426.069 63.4035 426.251 63.485 426.443 63.5291C426.635 63.5733 426.834 63.5791 427.028 63.5463C427.222 63.5136 427.408 63.4428 427.575 63.3382L430.444 61.5382C430.732 61.3578 430.969 61.1071 431.133 60.8097C431.298 60.5122 431.383 60.1779 431.382 59.8382V56.0122C431.382 55.6144 431.224 55.2329 430.943 54.9515C430.662 54.6702 430.28 54.5122 429.882 54.5122C429.484 54.5122 429.103 54.6702 428.822 54.9515C428.54 55.2329 428.382 55.6144 428.382 56.0122V59.2952Z" fill="white"/>
</g>
<path d="M350.752 91.2902H345.427V87.7402H359.927V91.2902H354.602V105.24H350.752V91.2902ZM363.116 86.9902H366.916V93.7402C367.133 93.4569 367.366 93.1902 367.616 92.9402C367.883 92.6736 368.174 92.4402 368.491 92.2402C368.808 92.0402 369.158 91.8819 369.541 91.7652C369.924 91.6486 370.358 91.5902 370.841 91.5902C372.291 91.5902 373.408 92.0319 374.191 92.9152C374.991 93.7986 375.391 95.0152 375.391 96.5652V105.24H371.591V97.7652C371.591 96.8652 371.391 96.1902 370.991 95.7402C370.591 95.2736 370.024 95.0402 369.291 95.0402C368.558 95.0402 367.974 95.2736 367.541 95.7402C367.124 96.1902 366.916 96.8652 366.916 97.7652V105.24H363.116V86.9902ZM385.792 105.54C384.792 105.54 383.859 105.374 382.992 105.04C382.142 104.707 381.401 104.232 380.767 103.615C380.151 102.999 379.667 102.274 379.317 101.44C378.967 100.59 378.792 99.6486 378.792 98.6152V98.5652C378.792 97.6152 378.951 96.7152 379.267 95.8652C379.601 95.0152 380.059 94.2736 380.642 93.6402C381.226 93.0069 381.917 92.5069 382.717 92.1402C383.534 91.7736 384.434 91.5902 385.417 91.5902C386.534 91.5902 387.501 91.7902 388.317 92.1902C389.134 92.5902 389.809 93.1319 390.342 93.8152C390.892 94.4819 391.292 95.2569 391.542 96.1402C391.809 97.0069 391.942 97.9152 391.942 98.8652C391.942 99.0152 391.934 99.1736 391.917 99.3402C391.917 99.5069 391.909 99.6819 391.892 99.8652H382.567C382.751 100.732 383.126 101.39 383.692 101.84C384.276 102.274 384.992 102.49 385.842 102.49C386.476 102.49 387.042 102.382 387.542 102.165C388.042 101.949 388.559 101.599 389.092 101.115L391.267 103.04C390.634 103.824 389.867 104.44 388.967 104.89C388.067 105.324 387.009 105.54 385.792 105.54ZM388.242 97.4902C388.126 96.6402 387.826 95.9569 387.342 95.4402C386.859 94.9069 386.217 94.6402 385.417 94.6402C384.617 94.6402 383.967 94.8986 383.467 95.4152C382.984 95.9319 382.667 96.6236 382.517 97.4902H388.242ZM404.169 87.7402H411.319C412.369 87.7402 413.303 87.8902 414.119 88.1902C414.953 88.4736 415.653 88.8819 416.219 89.4152C416.803 89.9486 417.244 90.5902 417.544 91.3402C417.861 92.0736 418.019 92.8902 418.019 93.7902V93.8402C418.019 94.8569 417.836 95.7486 417.469 96.5152C417.103 97.2819 416.594 97.9236 415.944 98.4402C415.311 98.9569 414.561 99.3486 413.694 99.6152C412.844 99.8652 411.928 99.9902 410.944 99.9902H408.019V105.24H404.169V87.7402ZM411.069 96.5652C412.036 96.5652 412.786 96.3152 413.319 95.8152C413.853 95.2986 414.119 94.6652 414.119 93.9152V93.8652C414.119 92.9986 413.836 92.3402 413.269 91.8902C412.719 91.4402 411.961 91.2152 410.994 91.2152H408.019V96.5652H411.069ZM421.219 91.8402H425.019V94.5402C425.402 93.6236 425.927 92.8902 426.594 92.3402C427.26 91.7902 428.16 91.5402 429.294 91.5902V95.5652H429.094C427.827 95.5652 426.827 95.9486 426.094 96.7152C425.377 97.4819 425.019 98.6736 425.019 100.29V105.24H421.219V91.8402ZM438.627 105.54C437.593 105.54 436.635 105.365 435.752 105.015C434.868 104.649 434.102 104.157 433.452 103.54C432.818 102.907 432.318 102.174 431.952 101.34C431.585 100.49 431.402 99.5819 431.402 98.6152V98.5652C431.402 97.5986 431.585 96.6986 431.952 95.8652C432.318 95.0152 432.827 94.2736 433.477 93.6402C434.127 93.0069 434.893 92.5069 435.777 92.1402C436.66 91.7736 437.627 91.5902 438.677 91.5902C439.71 91.5902 440.668 91.7736 441.552 92.1402C442.435 92.4902 443.193 92.9819 443.827 93.6152C444.477 94.2319 444.985 94.9652 445.352 95.8152C445.718 96.6486 445.902 97.5486 445.902 98.5152V98.5652C445.902 99.5319 445.718 100.44 445.352 101.29C444.985 102.124 444.477 102.857 443.827 103.49C443.177 104.124 442.41 104.624 441.527 104.99C440.643 105.357 439.677 105.54 438.627 105.54ZM438.677 102.265C439.227 102.265 439.71 102.174 440.127 101.99C440.56 101.79 440.927 101.524 441.227 101.19C441.527 100.857 441.752 100.474 441.902 100.04C442.068 99.5902 442.152 99.1152 442.152 98.6152V98.5652C442.152 98.0652 442.068 97.5986 441.902 97.1652C441.735 96.7152 441.493 96.3236 441.177 95.9902C440.86 95.6402 440.485 95.3652 440.052 95.1652C439.618 94.9652 439.143 94.8652 438.627 94.8652C438.077 94.8652 437.585 94.9652 437.152 95.1652C436.735 95.3486 436.377 95.6069 436.077 95.9402C435.777 96.2736 435.543 96.6652 435.377 97.1152C435.227 97.5486 435.152 98.0152 435.152 98.5152V98.5652C435.152 99.0652 435.235 99.5402 435.402 99.9902C435.568 100.424 435.81 100.815 436.127 101.165C436.443 101.499 436.81 101.765 437.227 101.965C437.66 102.165 438.143 102.265 438.677 102.265ZM455.403 109.29C454.303 109.29 453.253 109.165 452.253 108.915C451.253 108.682 450.328 108.34 449.478 107.89L450.778 105.04C451.478 105.424 452.178 105.724 452.878 105.94C453.595 106.157 454.403 106.265 455.303 106.265C456.603 106.265 457.561 105.957 458.178 105.34C458.811 104.724 459.128 103.815 459.128 102.615V101.965C458.561 102.649 457.945 103.182 457.278 103.565C456.611 103.949 455.77 104.14 454.753 104.14C453.97 104.14 453.22 104.007 452.503 103.74C451.786 103.457 451.153 103.049 450.603 102.515C450.053 101.982 449.611 101.332 449.278 100.565C448.961 99.7819 448.803 98.8902 448.803 97.8902V97.8402C448.803 96.8402 448.97 95.9569 449.303 95.1902C449.636 94.4069 450.078 93.7486 450.628 93.2152C451.178 92.6819 451.811 92.2819 452.528 92.0152C453.245 91.7319 453.986 91.5902 454.753 91.5902C455.786 91.5902 456.636 91.7819 457.303 92.1652C457.97 92.5486 458.561 93.0236 459.078 93.5902V91.8402H462.878V102.215C462.878 104.599 462.311 106.357 461.178 107.49C460.545 108.124 459.745 108.582 458.778 108.865C457.828 109.149 456.703 109.29 455.403 109.29ZM455.853 100.99C456.32 100.99 456.753 100.915 457.153 100.765C457.553 100.615 457.895 100.407 458.178 100.14C458.478 99.8569 458.711 99.5236 458.878 99.1402C459.045 98.7569 459.128 98.3402 459.128 97.8902V97.8402C459.128 97.3902 459.045 96.9736 458.878 96.5902C458.711 96.2069 458.478 95.8819 458.178 95.6152C457.895 95.3319 457.553 95.1152 457.153 94.9652C456.753 94.8152 456.32 94.7402 455.853 94.7402C455.386 94.7402 454.953 94.8152 454.553 94.9652C454.17 95.1152 453.828 95.3319 453.528 95.6152C453.245 95.8819 453.02 96.2069 452.853 96.5902C452.686 96.9736 452.603 97.3902 452.603 97.8402V97.8902C452.603 98.8236 452.911 99.5736 453.528 100.14C454.145 100.707 454.92 100.99 455.853 100.99ZM467.023 91.8402H470.823V94.5402C471.207 93.6236 471.732 92.8902 472.398 92.3402C473.065 91.7902 473.965 91.5402 475.098 91.5902V95.5652H474.898C473.632 95.5652 472.632 95.9486 471.898 96.7152C471.182 97.4819 470.823 98.6736 470.823 100.29V105.24H467.023V91.8402ZM481.388 105.49C480.754 105.49 480.154 105.407 479.588 105.24C479.038 105.057 478.554 104.79 478.138 104.44C477.721 104.09 477.388 103.665 477.138 103.165C476.904 102.649 476.788 102.057 476.788 101.39V101.34C476.788 100.607 476.921 99.9736 477.188 99.4402C477.454 98.9069 477.821 98.4652 478.288 98.1152C478.771 97.7652 479.338 97.5069 479.988 97.3402C480.654 97.1569 481.388 97.0652 482.188 97.0652C482.871 97.0652 483.463 97.1152 483.963 97.2152C484.479 97.3152 484.979 97.4486 485.463 97.6152V97.3902C485.463 96.5902 485.221 95.9819 484.738 95.5652C484.254 95.1486 483.538 94.9402 482.588 94.9402C481.854 94.9402 481.204 95.0069 480.638 95.1402C480.088 95.2569 479.504 95.4319 478.888 95.6652L477.938 92.7652C478.671 92.4486 479.438 92.1902 480.238 91.9902C481.038 91.7902 482.004 91.6902 483.138 91.6902C484.188 91.6902 485.079 91.8236 485.813 92.0902C486.563 92.3402 487.179 92.7069 487.663 93.1902C488.163 93.6902 488.529 94.3069 488.763 95.0402C488.996 95.7569 489.113 96.5652 489.113 97.4652V105.24H485.438V103.79C484.971 104.307 484.413 104.724 483.763 105.04C483.113 105.34 482.321 105.49 481.388 105.49ZM482.538 102.865C483.438 102.865 484.154 102.649 484.688 102.215C485.238 101.782 485.513 101.215 485.513 100.515V99.8402C485.179 99.6902 484.804 99.5736 484.388 99.4902C483.988 99.3902 483.554 99.3402 483.088 99.3402C482.271 99.3402 481.629 99.4986 481.163 99.8152C480.696 100.132 480.463 100.59 480.463 101.19V101.24C480.463 101.757 480.654 102.157 481.038 102.44C481.421 102.724 481.921 102.865 482.538 102.865ZM493.133 91.8402H496.933V93.7402C497.149 93.4569 497.383 93.1902 497.633 92.9402C497.899 92.6736 498.191 92.4402 498.508 92.2402C498.824 92.0402 499.174 91.8819 499.558 91.7652C499.958 91.6486 500.399 91.5902 500.883 91.5902C501.766 91.5902 502.524 91.7736 503.158 92.1402C503.808 92.5069 504.308 93.0319 504.658 93.7152C505.241 93.0152 505.891 92.4902 506.608 92.1402C507.324 91.7736 508.141 91.5902 509.058 91.5902C510.474 91.5902 511.583 92.0069 512.383 92.8402C513.183 93.6736 513.583 94.8986 513.583 96.5152V105.24H509.783V97.7652C509.783 96.8652 509.591 96.1902 509.208 95.7402C508.824 95.2736 508.274 95.0402 507.558 95.0402C506.841 95.0402 506.274 95.2736 505.858 95.7402C505.458 96.1902 505.258 96.8652 505.258 97.7652V105.24H501.458V97.7652C501.458 96.8652 501.266 96.1902 500.883 95.7402C500.499 95.2736 499.949 95.0402 499.233 95.0402C498.516 95.0402 497.949 95.2736 497.533 95.7402C497.133 96.1902 496.933 96.8652 496.933 97.7652V105.24H493.133V91.8402ZM346.702 123.515L343.652 124.265L342.852 121.115L347.877 119.615H350.502V137.24H346.702V123.515ZM362.024 137.54C360.874 137.54 359.899 137.382 359.099 137.065C358.299 136.749 357.591 136.282 356.974 135.665C356.341 135.032 355.833 134.207 355.449 133.19C355.083 132.157 354.899 130.774 354.899 129.04V128.99C354.899 127.64 355.049 126.382 355.349 125.215C355.666 124.049 356.141 123.04 356.774 122.19C357.408 121.34 358.208 120.674 359.174 120.19C360.141 119.69 361.274 119.44 362.574 119.44C363.174 119.44 363.724 119.482 364.224 119.565C364.724 119.649 365.191 119.774 365.624 119.94C366.058 120.107 366.474 120.315 366.874 120.565C367.274 120.799 367.666 121.065 368.049 121.365L366.024 124.34C365.741 124.124 365.466 123.932 365.199 123.765C364.933 123.582 364.658 123.432 364.374 123.315C364.091 123.199 363.791 123.107 363.474 123.04C363.158 122.974 362.816 122.94 362.449 122.94C361.799 122.94 361.249 123.082 360.799 123.365C360.366 123.632 360.016 123.974 359.749 124.39C359.483 124.807 359.283 125.249 359.149 125.715C359.033 126.182 358.958 126.607 358.924 126.99C359.391 126.674 359.908 126.407 360.474 126.19C361.058 125.974 361.749 125.865 362.549 125.865C363.416 125.865 364.224 125.99 364.974 126.24C365.724 126.474 366.374 126.824 366.924 127.29C367.474 127.757 367.908 128.34 368.224 129.04C368.541 129.724 368.699 130.524 368.699 131.44V131.49C368.699 132.39 368.524 133.215 368.174 133.965C367.841 134.699 367.374 135.332 366.774 135.865C366.191 136.399 365.491 136.815 364.674 137.115C363.858 137.399 362.974 137.54 362.024 137.54ZM361.874 134.24C362.824 134.24 363.558 133.999 364.074 133.515C364.608 133.032 364.874 132.415 364.874 131.665V131.615C364.874 130.865 364.599 130.257 364.049 129.79C363.516 129.307 362.774 129.065 361.824 129.065C360.874 129.065 360.133 129.299 359.599 129.765C359.083 130.232 358.824 130.84 358.824 131.59V131.64C358.824 132.39 359.091 133.015 359.624 133.515C360.174 133.999 360.924 134.24 361.874 134.24ZM372.527 123.84H376.577V127.84H372.527V123.84ZM372.527 133.24H376.577V137.24H372.527V133.24ZM388.1 137.54C386.933 137.54 385.866 137.315 384.9 136.865C383.95 136.399 383.133 135.765 382.45 134.965C381.783 134.149 381.266 133.19 380.9 132.09C380.533 130.99 380.35 129.807 380.35 128.54V128.49C380.35 127.224 380.533 126.04 380.9 124.94C381.283 123.84 381.816 122.882 382.5 122.065C383.183 121.249 384 120.607 384.95 120.14C385.916 119.674 386.983 119.44 388.15 119.44C389.3 119.44 390.35 119.674 391.3 120.14C392.266 120.59 393.083 121.224 393.75 122.04C394.433 122.84 394.958 123.79 395.325 124.89C395.708 125.99 395.9 127.174 395.9 128.44V128.49C395.9 129.757 395.708 130.94 395.325 132.04C394.958 133.14 394.433 134.099 393.75 134.915C393.066 135.732 392.241 136.374 391.275 136.84C390.325 137.307 389.266 137.54 388.1 137.54ZM388.15 134.065C388.733 134.065 389.258 133.932 389.725 133.665C390.191 133.382 390.591 132.999 390.925 132.515C391.258 132.015 391.508 131.432 391.675 130.765C391.858 130.082 391.95 129.34 391.95 128.54V128.49C391.95 127.69 391.858 126.957 391.675 126.29C391.491 125.607 391.225 125.015 390.875 124.515C390.541 124.015 390.133 123.624 389.65 123.34C389.183 123.057 388.666 122.915 388.1 122.915C387.516 122.915 386.991 123.057 386.525 123.34C386.058 123.607 385.658 123.99 385.325 124.49C385.008 124.974 384.758 125.557 384.575 126.24C384.391 126.907 384.3 127.64 384.3 128.44V128.49C384.3 129.29 384.391 130.032 384.575 130.715C384.758 131.399 385.016 131.99 385.35 132.49C385.683 132.974 386.083 133.357 386.55 133.64C387.033 133.924 387.566 134.065 388.15 134.065ZM407.111 137.54C405.945 137.54 404.878 137.315 403.911 136.865C402.961 136.399 402.145 135.765 401.461 134.965C400.795 134.149 400.278 133.19 399.911 132.09C399.545 130.99 399.361 129.807 399.361 128.54V128.49C399.361 127.224 399.545 126.04 399.911 124.94C400.295 123.84 400.828 122.882 401.511 122.065C402.195 121.249 403.011 120.607 403.961 120.14C404.928 119.674 405.995 119.44 407.161 119.44C408.311 119.44 409.361 119.674 410.311 120.14C411.278 120.59 412.095 121.224 412.761 122.04C413.445 122.84 413.97 123.79 414.336 124.89C414.72 125.99 414.911 127.174 414.911 128.44V128.49C414.911 129.757 414.72 130.94 414.336 132.04C413.97 133.14 413.445 134.099 412.761 134.915C412.078 135.732 411.253 136.374 410.286 136.84C409.336 137.307 408.278 137.54 407.111 137.54ZM407.161 134.065C407.745 134.065 408.27 133.932 408.736 133.665C409.203 133.382 409.603 132.999 409.936 132.515C410.27 132.015 410.52 131.432 410.686 130.765C410.87 130.082 410.961 129.34 410.961 128.54V128.49C410.961 127.69 410.87 126.957 410.686 126.29C410.503 125.607 410.236 125.015 409.886 124.515C409.553 124.015 409.145 123.624 408.661 123.34C408.195 123.057 407.678 122.915 407.111 122.915C406.528 122.915 406.003 123.057 405.536 123.34C405.07 123.607 404.67 123.99 404.336 124.49C404.02 124.974 403.77 125.557 403.586 126.24C403.403 126.907 403.311 127.64 403.311 128.44V128.49C403.311 129.29 403.403 130.032 403.586 130.715C403.77 131.399 404.028 131.99 404.361 132.49C404.695 132.974 405.095 133.357 405.561 133.64C406.045 133.924 406.578 134.065 407.161 134.065ZM426.518 127.665H434.218V131.315H426.518V127.665ZM445.693 134.19L451.518 129.415C452.068 128.965 452.535 128.565 452.918 128.215C453.302 127.849 453.61 127.507 453.843 127.19C454.093 126.857 454.268 126.54 454.368 126.24C454.485 125.924 454.543 125.582 454.543 125.215C454.543 124.465 454.327 123.899 453.893 123.515C453.46 123.132 452.893 122.94 452.193 122.94C451.51 122.94 450.902 123.132 450.368 123.515C449.852 123.899 449.268 124.49 448.618 125.29L445.918 123.115C446.352 122.532 446.785 122.015 447.218 121.565C447.668 121.115 448.143 120.74 448.643 120.44C449.16 120.124 449.727 119.89 450.343 119.74C450.96 119.574 451.66 119.49 452.443 119.49C453.343 119.49 454.16 119.624 454.893 119.89C455.643 120.14 456.277 120.499 456.793 120.965C457.327 121.432 457.735 121.999 458.018 122.665C458.318 123.332 458.468 124.074 458.468 124.89V124.94C458.468 125.674 458.368 126.332 458.168 126.915C457.985 127.482 457.702 128.024 457.318 128.54C456.952 129.04 456.477 129.549 455.893 130.065C455.31 130.565 454.635 131.115 453.868 131.715L451.018 133.915H458.643V137.24H445.693V134.19ZM465.244 123.515L462.194 124.265L461.394 121.115L466.419 119.615H469.044V137.24H465.244V123.515ZM473.766 123.84H477.816V127.84H473.766V123.84ZM473.766 133.24H477.816V137.24H473.766V133.24ZM489.339 137.54C488.172 137.54 487.105 137.315 486.139 136.865C485.189 136.399 484.372 135.765 483.689 134.965C483.022 134.149 482.505 133.19 482.139 132.09C481.772 130.99 481.589 129.807 481.589 128.54V128.49C481.589 127.224 481.772 126.04 482.139 124.94C482.522 123.84 483.055 122.882 483.739 122.065C484.422 121.249 485.239 120.607 486.189 120.14C487.155 119.674 488.222 119.44 489.389 119.44C490.539 119.44 491.589 119.674 492.539 120.14C493.505 120.59 494.322 121.224 494.989 122.04C495.672 122.84 496.197 123.79 496.564 124.89C496.947 125.99 497.139 127.174 497.139 128.44V128.49C497.139 129.757 496.947 130.94 496.564 132.04C496.197 133.14 495.672 134.099 494.989 134.915C494.305 135.732 493.48 136.374 492.514 136.84C491.564 137.307 490.505 137.54 489.339 137.54ZM489.389 134.065C489.972 134.065 490.497 133.932 490.964 133.665C491.43 133.382 491.83 132.999 492.164 132.515C492.497 132.015 492.747 131.432 492.914 130.765C493.097 130.082 493.189 129.34 493.189 128.54V128.49C493.189 127.69 493.097 126.957 492.914 126.29C492.73 125.607 492.464 125.015 492.114 124.515C491.78 124.015 491.372 123.624 490.889 123.34C490.422 123.057 489.905 122.915 489.339 122.915C488.755 122.915 488.23 123.057 487.764 123.34C487.297 123.607 486.897 123.99 486.564 124.49C486.247 124.974 485.997 125.557 485.814 126.24C485.63 126.907 485.539 127.64 485.539 128.44V128.49C485.539 129.29 485.63 130.032 485.814 130.715C485.997 131.399 486.255 131.99 486.589 132.49C486.922 132.974 487.322 133.357 487.789 133.64C488.272 133.924 488.805 134.065 489.389 134.065ZM508.35 137.54C507.184 137.54 506.117 137.315 505.15 136.865C504.2 136.399 503.384 135.765 502.7 134.965C502.034 134.149 501.517 133.19 501.15 132.09C500.784 130.99 500.6 129.807 500.6 128.54V128.49C500.6 127.224 500.784 126.04 501.15 124.94C501.534 123.84 502.067 122.882 502.75 122.065C503.434 121.249 504.25 120.607 505.2 120.14C506.167 119.674 507.234 119.44 508.4 119.44C509.55 119.44 510.6 119.674 511.55 120.14C512.517 120.59 513.334 121.224 514 122.04C514.684 122.84 515.209 123.79 515.575 124.89C515.959 125.99 516.15 127.174 516.15 128.44V128.49C516.15 129.757 515.959 130.94 515.575 132.04C515.209 133.14 514.684 134.099 514 134.915C513.317 135.732 512.492 136.374 511.525 136.84C510.575 137.307 509.517 137.54 508.35 137.54ZM508.4 134.065C508.984 134.065 509.509 133.932 509.975 133.665C510.442 133.382 510.842 132.999 511.175 132.515C511.509 132.015 511.759 131.432 511.925 130.765C512.109 130.082 512.2 129.34 512.2 128.54V128.49C512.2 127.69 512.109 126.957 511.925 126.29C511.742 125.607 511.475 125.015 511.125 124.515C510.792 124.015 510.384 123.624 509.9 123.34C509.434 123.057 508.917 122.915 508.35 122.915C507.767 122.915 507.242 123.057 506.775 123.34C506.309 123.607 505.909 123.99 505.575 124.49C505.259 124.974 505.009 125.557 504.825 126.24C504.642 126.907 504.55 127.64 504.55 128.44V128.49C504.55 129.29 504.642 130.032 504.825 130.715C505.009 131.399 505.267 131.99 505.6 132.49C505.934 132.974 506.334 133.357 506.8 133.64C507.284 133.924 507.817 134.065 508.4 134.065Z" fill="white"/>
<path opacity="0.2" d="M562.882 154.74V35.7402" stroke="url(#paint1_linear_505_4340)"/>
<g clip-path="url(#clip2_505_4340)">
<path d="M767.882 41.7402C767.091 41.7402 766.318 41.9748 765.66 42.4144C765.002 42.8539 764.49 43.4786 764.187 44.2095C763.884 44.9404 763.805 45.7447 763.959 46.5206C764.114 47.2965 764.495 48.0093 765.054 48.5687C765.613 49.1281 766.326 49.509 767.102 49.6634C767.878 49.8177 768.682 49.7385 769.413 49.4358C770.144 49.133 770.769 48.6203 771.208 47.9625C771.648 47.3047 771.882 46.5314 771.882 45.7402C771.882 44.6794 771.461 43.662 770.711 42.9118C769.961 42.1617 768.943 41.7402 767.882 41.7402ZM767.882 47.7402C767.487 47.7402 767.1 47.6229 766.771 47.4032C766.442 47.1834 766.186 46.8711 766.035 46.5056C765.883 46.1401 765.844 45.738 765.921 45.3501C765.998 44.9621 766.189 44.6057 766.468 44.326C766.748 44.0463 767.104 43.8558 767.492 43.7787C767.88 43.7015 768.282 43.7411 768.648 43.8925C769.013 44.0439 769.326 44.3002 769.545 44.6291C769.765 44.958 769.882 45.3447 769.882 45.7402C769.882 46.2707 769.672 46.7794 769.297 47.1544C768.922 47.5295 768.413 47.7402 767.882 47.7402Z" fill="white"/>
<path d="M767.882 59.7403C767.04 59.7446 766.209 59.5471 765.459 59.1643C764.709 58.7816 764.062 58.2247 763.571 57.5403C759.76 52.2833 757.827 48.3313 757.827 45.7933C757.827 43.1265 758.887 40.569 760.772 38.6833C762.658 36.7976 765.215 35.7383 767.882 35.7383C770.549 35.7383 773.107 36.7976 774.992 38.6833C776.878 40.569 777.937 43.1265 777.937 45.7933C777.937 48.3313 776.004 52.2833 772.193 57.5403C771.703 58.2247 771.055 58.7816 770.305 59.1643C769.555 59.5471 768.724 59.7446 767.882 59.7403ZM767.882 37.9213C765.795 37.9237 763.793 38.754 762.317 40.2302C760.841 41.7063 760.011 43.7077 760.008 45.7953C760.008 47.8053 761.901 51.5223 765.337 56.2613C765.629 56.6631 766.012 56.9901 766.454 57.2155C766.896 57.441 767.386 57.5586 767.882 57.5586C768.379 57.5586 768.868 57.441 769.311 57.2155C769.753 56.9901 770.136 56.6631 770.427 56.2613C773.863 51.5223 775.756 47.8053 775.756 45.7953C775.754 43.7077 774.924 41.7063 773.447 40.2302C771.971 38.754 769.97 37.9237 767.882 37.9213Z" fill="white"/>
</g>
<path d="M610.463 75.2402H618.463C620.679 75.2402 622.379 75.8319 623.563 77.0152C624.563 78.0152 625.063 79.3486 625.063 81.0152V81.0652C625.063 82.4819 624.713 83.6402 624.013 84.5402C623.329 85.4236 622.429 86.0736 621.313 86.4902L625.588 92.7402H621.088L617.338 87.1402H614.313V92.7402H610.463V75.2402ZM618.213 83.7402C619.163 83.7402 619.888 83.5152 620.388 83.0652C620.904 82.6152 621.163 82.0152 621.163 81.2652V81.2152C621.163 80.3819 620.896 79.7569 620.363 79.3402C619.829 78.9236 619.088 78.7152 618.138 78.7152H614.313V83.7402H618.213ZM635.21 93.0402C634.177 93.0402 633.218 92.8652 632.335 92.5152C631.452 92.1486 630.685 91.6569 630.035 91.0402C629.402 90.4069 628.902 89.6736 628.535 88.8402C628.168 87.9902 627.985 87.0819 627.985 86.1152V86.0652C627.985 85.0986 628.168 84.1986 628.535 83.3652C628.902 82.5152 629.41 81.7736 630.06 81.1402C630.71 80.5069 631.477 80.0069 632.36 79.6402C633.243 79.2736 634.21 79.0902 635.26 79.0902C636.293 79.0902 637.252 79.2736 638.135 79.6402C639.018 79.9902 639.777 80.4819 640.41 81.1152C641.06 81.7319 641.568 82.4652 641.935 83.3152C642.302 84.1486 642.485 85.0486 642.485 86.0152V86.0652C642.485 87.0319 642.302 87.9402 641.935 88.7902C641.568 89.6236 641.06 90.3569 640.41 90.9902C639.76 91.6236 638.993 92.1236 638.11 92.4902C637.227 92.8569 636.26 93.0402 635.21 93.0402ZM635.26 89.7652C635.81 89.7652 636.293 89.6736 636.71 89.4902C637.143 89.2902 637.51 89.0236 637.81 88.6902C638.11 88.3569 638.335 87.9736 638.485 87.5402C638.652 87.0902 638.735 86.6152 638.735 86.1152V86.0652C638.735 85.5652 638.652 85.0986 638.485 84.6652C638.318 84.2152 638.077 83.8236 637.76 83.4902C637.443 83.1402 637.068 82.8652 636.635 82.6652C636.202 82.4652 635.727 82.3652 635.21 82.3652C634.66 82.3652 634.168 82.4652 633.735 82.6652C633.318 82.8486 632.96 83.1069 632.66 83.4402C632.36 83.7736 632.127 84.1652 631.96 84.6152C631.81 85.0486 631.735 85.5152 631.735 86.0152V86.0652C631.735 86.5652 631.818 87.0402 631.985 87.4902C632.152 87.9236 632.393 88.3152 632.71 88.6652C633.027 88.9986 633.393 89.2652 633.81 89.4652C634.243 89.6652 634.727 89.7652 635.26 89.7652ZM650.687 92.9902C649.737 92.9902 648.762 92.8319 647.762 92.5152C646.778 92.1819 645.837 91.6652 644.937 90.9652L646.562 88.4652C647.295 88.9986 648.02 89.3986 648.737 89.6652C649.47 89.9319 650.153 90.0652 650.787 90.0652C651.337 90.0652 651.737 89.9736 651.987 89.7902C652.253 89.6069 652.387 89.3652 652.387 89.0652V89.0152C652.387 88.8152 652.312 88.6402 652.162 88.4902C652.012 88.3402 651.803 88.2152 651.537 88.1152C651.287 87.9986 650.995 87.8902 650.662 87.7902C650.328 87.6902 649.978 87.5819 649.612 87.4652C649.145 87.3319 648.67 87.1736 648.187 86.9902C647.72 86.7902 647.295 86.5402 646.912 86.2402C646.528 85.9236 646.212 85.5402 645.962 85.0902C645.728 84.6402 645.612 84.0902 645.612 83.4402V83.3902C645.612 82.7069 645.737 82.1069 645.987 81.5902C646.253 81.0569 646.603 80.6069 647.037 80.2402C647.487 79.8736 648.003 79.5986 648.587 79.4152C649.187 79.2319 649.828 79.1402 650.512 79.1402C651.362 79.1402 652.22 79.2819 653.087 79.5652C653.97 79.8319 654.778 80.2069 655.512 80.6902L654.062 83.3152C653.395 82.9319 652.745 82.6319 652.112 82.4152C651.478 82.1819 650.92 82.0652 650.437 82.0652C649.97 82.0652 649.62 82.1569 649.387 82.3402C649.153 82.5069 649.037 82.7236 649.037 82.9902V83.0402C649.037 83.2236 649.112 83.3902 649.262 83.5402C649.412 83.6736 649.612 83.8069 649.862 83.9402C650.112 84.0569 650.395 84.1736 650.712 84.2902C651.045 84.4069 651.395 84.5236 651.762 84.6402C652.228 84.7902 652.703 84.9736 653.187 85.1902C653.67 85.3902 654.103 85.6402 654.487 85.9402C654.87 86.2402 655.187 86.6069 655.437 87.0402C655.687 87.4736 655.812 87.9986 655.812 88.6152V88.6652C655.812 89.4152 655.678 90.0652 655.412 90.6152C655.162 91.1486 654.803 91.5902 654.337 91.9402C653.87 92.2902 653.32 92.5569 652.687 92.7402C652.07 92.9069 651.403 92.9902 650.687 92.9902ZM665.635 93.0402C664.635 93.0402 663.702 92.8736 662.835 92.5402C661.985 92.2069 661.244 91.7319 660.61 91.1152C659.994 90.4986 659.51 89.7736 659.16 88.9402C658.81 88.0902 658.635 87.1486 658.635 86.1152V86.0652C658.635 85.1152 658.794 84.2152 659.11 83.3652C659.444 82.5152 659.902 81.7736 660.485 81.1402C661.069 80.5069 661.76 80.0069 662.56 79.6402C663.377 79.2736 664.277 79.0902 665.26 79.0902C666.377 79.0902 667.344 79.2902 668.16 79.6902C668.977 80.0902 669.652 80.6319 670.185 81.3152C670.735 81.9819 671.135 82.7569 671.385 83.6402C671.652 84.5069 671.785 85.4152 671.785 86.3652C671.785 86.5152 671.777 86.6736 671.76 86.8402C671.76 87.0069 671.752 87.1819 671.735 87.3652H662.41C662.594 88.2319 662.969 88.8902 663.535 89.3402C664.119 89.7736 664.835 89.9902 665.685 89.9902C666.319 89.9902 666.885 89.8819 667.385 89.6652C667.885 89.4486 668.402 89.0986 668.935 88.6152L671.11 90.5402C670.477 91.3236 669.71 91.9402 668.81 92.3902C667.91 92.8236 666.852 93.0402 665.635 93.0402ZM668.085 84.9902C667.969 84.1402 667.669 83.4569 667.185 82.9402C666.702 82.4069 666.06 82.1402 665.26 82.1402C664.46 82.1402 663.81 82.3986 663.31 82.9152C662.827 83.4319 662.51 84.1236 662.36 84.9902H668.085ZM675.542 74.4902H679.342V92.7402H675.542V74.4902ZM683.836 74.4902H687.636V92.7402H683.836V74.4902ZM698.305 93.0402C697.305 93.0402 696.372 92.8736 695.505 92.5402C694.655 92.2069 693.914 91.7319 693.28 91.1152C692.664 90.4986 692.18 89.7736 691.83 88.9402C691.48 88.0902 691.305 87.1486 691.305 86.1152V86.0652C691.305 85.1152 691.464 84.2152 691.78 83.3652C692.114 82.5152 692.572 81.7736 693.155 81.1402C693.739 80.5069 694.43 80.0069 695.23 79.6402C696.047 79.2736 696.947 79.0902 697.93 79.0902C699.047 79.0902 700.014 79.2902 700.83 79.6902C701.647 80.0902 702.322 80.6319 702.855 81.3152C703.405 81.9819 703.805 82.7569 704.055 83.6402C704.322 84.5069 704.455 85.4152 704.455 86.3652C704.455 86.5152 704.447 86.6736 704.43 86.8402C704.43 87.0069 704.422 87.1819 704.405 87.3652H695.08C695.264 88.2319 695.639 88.8902 696.205 89.3402C696.789 89.7736 697.505 89.9902 698.355 89.9902C698.989 89.9902 699.555 89.8819 700.055 89.6652C700.555 89.4486 701.072 89.0986 701.605 88.6152L703.78 90.5402C703.147 91.3236 702.38 91.9402 701.48 92.3902C700.58 92.8236 699.522 93.0402 698.305 93.0402ZM700.755 84.9902C700.639 84.1402 700.339 83.4569 699.855 82.9402C699.372 82.4069 698.73 82.1402 697.93 82.1402C697.13 82.1402 696.48 82.3986 695.98 82.9152C695.497 83.4319 695.18 84.1236 695.03 84.9902H700.755ZM720.658 92.9902C719.291 92.9902 718.141 92.7319 717.208 92.2152C716.291 91.6986 715.533 91.0819 714.933 90.3652L717.358 87.6652C717.858 88.2152 718.358 88.6486 718.858 88.9652C719.374 89.2652 719.941 89.4152 720.558 89.4152C721.291 89.4152 721.866 89.1902 722.283 88.7402C722.699 88.2736 722.908 87.5319 722.908 86.5152V75.2402H726.858V86.6902C726.858 87.7402 726.716 88.6486 726.433 89.4152C726.149 90.1819 725.741 90.8319 725.208 91.3652C724.674 91.8986 724.016 92.3069 723.233 92.5902C722.466 92.8569 721.608 92.9902 720.658 92.9902ZM735.594 92.9902C734.144 92.9902 733.019 92.5486 732.219 91.6652C731.436 90.7819 731.044 89.5652 731.044 88.0152V79.3402H734.844V86.8152C734.844 87.7152 735.044 88.3986 735.444 88.8652C735.844 89.3152 736.411 89.5402 737.144 89.5402C737.877 89.5402 738.452 89.3152 738.869 88.8652C739.302 88.3986 739.519 87.7152 739.519 86.8152V79.3402H743.319V92.7402H739.519V90.8402C739.302 91.1236 739.061 91.3986 738.794 91.6652C738.544 91.9152 738.261 92.1402 737.944 92.3402C737.627 92.5402 737.277 92.6986 736.894 92.8152C736.511 92.9319 736.077 92.9902 735.594 92.9902ZM747.47 79.3402H751.27V81.2402C751.487 80.9569 751.72 80.6902 751.97 80.4402C752.237 80.1736 752.528 79.9402 752.845 79.7402C753.162 79.5402 753.512 79.3819 753.895 79.2652C754.278 79.1486 754.712 79.0902 755.195 79.0902C756.645 79.0902 757.762 79.5319 758.545 80.4152C759.345 81.2986 759.745 82.5152 759.745 84.0652V92.7402H755.945V85.2652C755.945 84.3652 755.745 83.6902 755.345 83.2402C754.945 82.7736 754.378 82.5402 753.645 82.5402C752.912 82.5402 752.328 82.7736 751.895 83.2402C751.478 83.6902 751.27 84.3652 751.27 85.2652V92.7402H747.47V79.3402ZM763.871 73.9902H767.871V77.3652H763.871V73.9902ZM763.971 79.3402H767.771V92.7402H763.971V79.3402ZM778.665 93.0402C777.632 93.0402 776.673 92.8652 775.79 92.5152C774.907 92.1486 774.14 91.6569 773.49 91.0402C772.857 90.4069 772.357 89.6736 771.99 88.8402C771.623 87.9902 771.44 87.0819 771.44 86.1152V86.0652C771.44 85.0986 771.623 84.1986 771.99 83.3652C772.357 82.5152 772.865 81.7736 773.515 81.1402C774.165 80.5069 774.932 80.0069 775.815 79.6402C776.698 79.2736 777.665 79.0902 778.715 79.0902C779.748 79.0902 780.707 79.2736 781.59 79.6402C782.473 79.9902 783.232 80.4819 783.865 81.1152C784.515 81.7319 785.023 82.4652 785.39 83.3152C785.757 84.1486 785.94 85.0486 785.94 86.0152V86.0652C785.94 87.0319 785.757 87.9402 785.39 88.7902C785.023 89.6236 784.515 90.3569 783.865 90.9902C783.215 91.6236 782.448 92.1236 781.565 92.4902C780.682 92.8569 779.715 93.0402 778.665 93.0402ZM778.715 89.7652C779.265 89.7652 779.748 89.6736 780.165 89.4902C780.598 89.2902 780.965 89.0236 781.265 88.6902C781.565 88.3569 781.79 87.9736 781.94 87.5402C782.107 87.0902 782.19 86.6152 782.19 86.1152V86.0652C782.19 85.5652 782.107 85.0986 781.94 84.6652C781.773 84.2152 781.532 83.8236 781.215 83.4902C780.898 83.1402 780.523 82.8652 780.09 82.6652C779.657 82.4652 779.182 82.3652 778.665 82.3652C778.115 82.3652 777.623 82.4652 777.19 82.6652C776.773 82.8486 776.415 83.1069 776.115 83.4402C775.815 83.7736 775.582 84.1652 775.415 84.6152C775.265 85.0486 775.19 85.5152 775.19 86.0152V86.0652C775.19 86.5652 775.273 87.0402 775.44 87.4902C775.607 87.9236 775.848 88.3152 776.165 88.6652C776.482 88.9986 776.848 89.2652 777.265 89.4652C777.698 89.6652 778.182 89.7652 778.715 89.7652ZM789.442 79.3402H793.242V82.0402C793.625 81.1236 794.15 80.3902 794.817 79.8402C795.483 79.2902 796.383 79.0402 797.517 79.0902V83.0652H797.317C796.05 83.0652 795.05 83.4486 794.317 84.2152C793.6 84.9819 793.242 86.1736 793.242 87.7902V92.7402H789.442V79.3402ZM809.286 75.2402H817.411C819.428 75.2402 820.953 75.7569 821.986 76.7902C822.786 77.5902 823.186 78.5819 823.186 79.7652V79.8152C823.186 80.3152 823.119 80.7569 822.986 81.1402C822.869 81.5236 822.703 81.8736 822.486 82.1902C822.286 82.4902 822.044 82.7569 821.761 82.9902C821.494 83.2236 821.203 83.4236 820.886 83.5902C821.903 83.9736 822.703 84.4986 823.286 85.1652C823.869 85.8152 824.161 86.7236 824.161 87.8902V87.9402C824.161 88.7402 824.003 89.4402 823.686 90.0402C823.386 90.6402 822.944 91.1402 822.361 91.5402C821.794 91.9402 821.103 92.2402 820.286 92.4402C819.486 92.6402 818.594 92.7402 817.611 92.7402H809.286V75.2402ZM819.361 80.4152C819.361 79.8319 819.144 79.3902 818.711 79.0902C818.278 78.7736 817.653 78.6152 816.836 78.6152H813.036V82.3152H816.586C817.436 82.3152 818.111 82.1736 818.611 81.8902C819.111 81.5902 819.361 81.1152 819.361 80.4652V80.4152ZM820.336 87.4152C820.336 86.8319 820.111 86.3736 819.661 86.0402C819.211 85.6902 818.486 85.5152 817.486 85.5152H813.036V89.3652H817.611C818.461 89.3652 819.128 89.2152 819.611 88.9152C820.094 88.5986 820.336 88.1152 820.336 87.4652V87.4152ZM831.478 92.9902C830.845 92.9902 830.245 92.9069 829.678 92.7402C829.128 92.5569 828.645 92.2902 828.228 91.9402C827.811 91.5902 827.478 91.1652 827.228 90.6652C826.995 90.1486 826.878 89.5569 826.878 88.8902V88.8402C826.878 88.1069 827.011 87.4736 827.278 86.9402C827.545 86.4069 827.911 85.9652 828.378 85.6152C828.861 85.2652 829.428 85.0069 830.078 84.8402C830.745 84.6569 831.478 84.5652 832.278 84.5652C832.961 84.5652 833.553 84.6152 834.053 84.7152C834.57 84.8152 835.07 84.9486 835.553 85.1152V84.8902C835.553 84.0902 835.311 83.4819 834.828 83.0652C834.345 82.6486 833.628 82.4402 832.678 82.4402C831.945 82.4402 831.295 82.5069 830.728 82.6402C830.178 82.7569 829.595 82.9319 828.978 83.1652L828.028 80.2652C828.761 79.9486 829.528 79.6902 830.328 79.4902C831.128 79.2902 832.095 79.1902 833.228 79.1902C834.278 79.1902 835.17 79.3236 835.903 79.5902C836.653 79.8402 837.27 80.2069 837.753 80.6902C838.253 81.1902 838.62 81.8069 838.853 82.5402C839.086 83.2569 839.203 84.0652 839.203 84.9652V92.7402H835.528V91.2902C835.061 91.8069 834.503 92.2236 833.853 92.5402C833.203 92.8402 832.411 92.9902 831.478 92.9902ZM832.628 90.3652C833.528 90.3652 834.245 90.1486 834.778 89.7152C835.328 89.2819 835.603 88.7152 835.603 88.0152V87.3402C835.27 87.1902 834.895 87.0736 834.478 86.9902C834.078 86.8902 833.645 86.8402 833.178 86.8402C832.361 86.8402 831.72 86.9986 831.253 87.3152C830.786 87.6319 830.553 88.0902 830.553 88.6902V88.7402C830.553 89.2569 830.745 89.6569 831.128 89.9402C831.511 90.2236 832.011 90.3652 832.628 90.3652ZM843.398 74.4902H847.198V92.7402H843.398V74.4902ZM851.692 74.4902H855.492V92.7402H851.692V74.4902ZM859.811 79.3402H863.611V82.0402C863.994 81.1236 864.519 80.3902 865.186 79.8402C865.853 79.2902 866.753 79.0402 867.886 79.0902V83.0652H867.686C866.419 83.0652 865.419 83.4486 864.686 84.2152C863.969 84.9819 863.611 86.1736 863.611 87.7902V92.7402H859.811V79.3402ZM877.219 93.0402C876.186 93.0402 875.227 92.8652 874.344 92.5152C873.461 92.1486 872.694 91.6569 872.044 91.0402C871.411 90.4069 870.911 89.6736 870.544 88.8402C870.177 87.9902 869.994 87.0819 869.994 86.1152V86.0652C869.994 85.0986 870.177 84.1986 870.544 83.3652C870.911 82.5152 871.419 81.7736 872.069 81.1402C872.719 80.5069 873.486 80.0069 874.369 79.6402C875.252 79.2736 876.219 79.0902 877.269 79.0902C878.302 79.0902 879.261 79.2736 880.144 79.6402C881.027 79.9902 881.786 80.4819 882.419 81.1152C883.069 81.7319 883.577 82.4652 883.944 83.3152C884.311 84.1486 884.494 85.0486 884.494 86.0152V86.0652C884.494 87.0319 884.311 87.9402 883.944 88.7902C883.577 89.6236 883.069 90.3569 882.419 90.9902C881.769 91.6236 881.002 92.1236 880.119 92.4902C879.236 92.8569 878.269 93.0402 877.219 93.0402ZM877.269 89.7652C877.819 89.7652 878.302 89.6736 878.719 89.4902C879.152 89.2902 879.519 89.0236 879.819 88.6902C880.119 88.3569 880.344 87.9736 880.494 87.5402C880.661 87.0902 880.744 86.6152 880.744 86.1152V86.0652C880.744 85.5652 880.661 85.0986 880.494 84.6652C880.327 84.2152 880.086 83.8236 879.769 83.4902C879.452 83.1402 879.077 82.8652 878.644 82.6652C878.211 82.4652 877.736 82.3652 877.219 82.3652C876.669 82.3652 876.177 82.4652 875.744 82.6652C875.327 82.8486 874.969 83.1069 874.669 83.4402C874.369 83.7736 874.136 84.1652 873.969 84.6152C873.819 85.0486 873.744 85.5152 873.744 86.0152V86.0652C873.744 86.5652 873.827 87.0402 873.994 87.4902C874.161 87.9236 874.402 88.3152 874.719 88.6652C875.036 88.9986 875.402 89.2652 875.819 89.4652C876.252 89.6652 876.736 89.7652 877.269 89.7652ZM894.57 93.0402C893.537 93.0402 892.579 92.8652 891.695 92.5152C890.812 92.1486 890.045 91.6569 889.395 91.0402C888.762 90.4069 888.262 89.6736 887.895 88.8402C887.529 87.9902 887.345 87.0819 887.345 86.1152V86.0652C887.345 85.0986 887.529 84.1986 887.895 83.3652C888.262 82.5152 888.77 81.7736 889.42 81.1402C890.07 80.5069 890.837 80.0069 891.72 79.6402C892.604 79.2736 893.57 79.0902 894.62 79.0902C895.654 79.0902 896.612 79.2736 897.495 79.6402C898.379 79.9902 899.137 80.4819 899.77 81.1152C900.42 81.7319 900.929 82.4652 901.295 83.3152C901.662 84.1486 901.845 85.0486 901.845 86.0152V86.0652C901.845 87.0319 901.662 87.9402 901.295 88.7902C900.929 89.6236 900.42 90.3569 899.77 90.9902C899.12 91.6236 898.354 92.1236 897.47 92.4902C896.587 92.8569 895.62 93.0402 894.57 93.0402ZM894.62 89.7652C895.17 89.7652 895.654 89.6736 896.07 89.4902C896.504 89.2902 896.87 89.0236 897.17 88.6902C897.47 88.3569 897.695 87.9736 897.845 87.5402C898.012 87.0902 898.095 86.6152 898.095 86.1152V86.0652C898.095 85.5652 898.012 85.0986 897.845 84.6652C897.679 84.2152 897.437 83.8236 897.12 83.4902C896.804 83.1402 896.429 82.8652 895.995 82.6652C895.562 82.4652 895.087 82.3652 894.57 82.3652C894.02 82.3652 893.529 82.4652 893.095 82.6652C892.679 82.8486 892.32 83.1069 892.02 83.4402C891.72 83.7736 891.487 84.1652 891.32 84.6152C891.17 85.0486 891.095 85.5152 891.095 86.0152V86.0652C891.095 86.5652 891.179 87.0402 891.345 87.4902C891.512 87.9236 891.754 88.3152 892.07 88.6652C892.387 88.9986 892.754 89.2652 893.17 89.4652C893.604 89.6652 894.087 89.7652 894.62 89.7652ZM905.347 79.3402H909.147V81.2402C909.364 80.9569 909.597 80.6902 909.847 80.4402C910.114 80.1736 910.405 79.9402 910.722 79.7402C911.039 79.5402 911.389 79.3819 911.772 79.2652C912.172 79.1486 912.614 79.0902 913.097 79.0902C913.98 79.0902 914.739 79.2736 915.372 79.6402C916.022 80.0069 916.522 80.5319 916.872 81.2152C917.455 80.5152 918.105 79.9902 918.822 79.6402C919.539 79.2736 920.355 79.0902 921.272 79.0902C922.689 79.0902 923.797 79.5069 924.597 80.3402C925.397 81.1736 925.797 82.3986 925.797 84.0152V92.7402H921.997V85.2652C921.997 84.3652 921.805 83.6902 921.422 83.2402C921.039 82.7736 920.489 82.5402 919.772 82.5402C919.055 82.5402 918.489 82.7736 918.072 83.2402C917.672 83.6902 917.472 84.3652 917.472 85.2652V92.7402H913.672V85.2652C913.672 84.3652 913.48 83.6902 913.097 83.2402C912.714 82.7736 912.164 82.5402 911.447 82.5402C910.73 82.5402 910.164 82.7736 909.747 83.2402C909.347 83.6902 909.147 84.3652 909.147 85.2652V92.7402H905.347V79.3402ZM651.552 107.24H653.552L659.927 116.79L666.302 107.24H668.302V124.74H666.327V110.565L659.952 119.94H659.852L653.477 110.59V124.74H651.552V107.24ZM677.531 125.015C676.931 125.015 676.34 124.932 675.756 124.765C675.19 124.599 674.673 124.349 674.206 124.015C673.756 123.665 673.39 123.24 673.106 122.74C672.84 122.24 672.706 121.657 672.706 120.99V120.94C672.706 120.257 672.84 119.657 673.106 119.14C673.373 118.624 673.748 118.19 674.231 117.84C674.731 117.49 675.315 117.224 675.981 117.04C676.665 116.857 677.415 116.765 678.231 116.765C679.065 116.765 679.79 116.815 680.406 116.915C681.023 117.015 681.623 117.149 682.206 117.315V116.865C682.206 115.699 681.865 114.824 681.181 114.24C680.515 113.64 679.573 113.34 678.356 113.34C677.59 113.34 676.89 113.432 676.256 113.615C675.64 113.782 675.031 114.007 674.431 114.29L673.856 112.715C674.573 112.382 675.298 112.124 676.031 111.94C676.765 111.74 677.606 111.64 678.556 111.64C680.39 111.64 681.781 112.115 682.731 113.065C683.615 113.949 684.056 115.207 684.056 116.84V124.74H682.206V122.79C681.756 123.374 681.148 123.89 680.381 124.34C679.631 124.79 678.681 125.015 677.531 125.015ZM677.906 123.49C678.506 123.49 679.065 123.407 679.581 123.24C680.115 123.057 680.573 122.815 680.956 122.515C681.356 122.199 681.665 121.832 681.881 121.415C682.115 120.982 682.231 120.507 682.231 119.99V118.74C681.748 118.607 681.19 118.482 680.556 118.365C679.94 118.249 679.231 118.19 678.431 118.19C677.215 118.19 676.281 118.432 675.631 118.915C674.981 119.399 674.656 120.049 674.656 120.865V120.915C674.656 121.315 674.74 121.682 674.906 122.015C675.09 122.332 675.331 122.599 675.631 122.815C675.931 123.032 676.273 123.199 676.656 123.315C677.056 123.432 677.473 123.49 677.906 123.49ZM688.909 111.815H690.834V115.19C691.067 114.657 691.359 114.165 691.709 113.715C692.059 113.265 692.459 112.882 692.909 112.565C693.359 112.232 693.85 111.982 694.384 111.815C694.917 111.649 695.492 111.574 696.109 111.59V113.665H695.959C695.259 113.665 694.592 113.79 693.959 114.04C693.342 114.29 692.8 114.665 692.334 115.165C691.867 115.665 691.5 116.29 691.234 117.04C690.967 117.774 690.834 118.624 690.834 119.59V124.74H688.909V111.815ZM699.966 111.815H701.891V124.74H699.966V111.815ZM699.841 107.115H702.041V109.24H699.841V107.115ZM707.108 111.815H709.033V114.065C709.466 113.365 710.033 112.774 710.733 112.29C711.433 111.79 712.341 111.54 713.458 111.54C714.241 111.54 714.933 111.665 715.533 111.915C716.15 112.165 716.666 112.524 717.083 112.99C717.516 113.44 717.841 113.982 718.058 114.615C718.291 115.249 718.408 115.949 718.408 116.715V124.74H716.483V117.19C716.483 115.99 716.175 115.04 715.558 114.34C714.941 113.64 714.058 113.29 712.908 113.29C712.358 113.29 711.841 113.39 711.358 113.59C710.891 113.774 710.483 114.049 710.133 114.415C709.783 114.765 709.508 115.19 709.308 115.69C709.125 116.19 709.033 116.74 709.033 117.34V124.74H707.108V111.815ZM727.113 125.015C726.513 125.015 725.922 124.932 725.338 124.765C724.772 124.599 724.255 124.349 723.788 124.015C723.338 123.665 722.972 123.24 722.688 122.74C722.422 122.24 722.288 121.657 722.288 120.99V120.94C722.288 120.257 722.422 119.657 722.688 119.14C722.955 118.624 723.33 118.19 723.813 117.84C724.313 117.49 724.897 117.224 725.563 117.04C726.247 116.857 726.997 116.765 727.813 116.765C728.647 116.765 729.372 116.815 729.988 116.915C730.605 117.015 731.205 117.149 731.788 117.315V116.865C731.788 115.699 731.447 114.824 730.763 114.24C730.097 113.64 729.155 113.34 727.938 113.34C727.172 113.34 726.472 113.432 725.838 113.615C725.222 113.782 724.613 114.007 724.013 114.29L723.438 112.715C724.155 112.382 724.88 112.124 725.613 111.94C726.347 111.74 727.188 111.64 728.138 111.64C729.972 111.64 731.363 112.115 732.313 113.065C733.197 113.949 733.638 115.207 733.638 116.84V124.74H731.788V122.79C731.338 123.374 730.73 123.89 729.963 124.34C729.213 124.79 728.263 125.015 727.113 125.015ZM727.488 123.49C728.088 123.49 728.647 123.407 729.163 123.24C729.697 123.057 730.155 122.815 730.538 122.515C730.938 122.199 731.247 121.832 731.463 121.415C731.697 120.982 731.813 120.507 731.813 119.99V118.74C731.33 118.607 730.772 118.482 730.138 118.365C729.522 118.249 728.813 118.19 728.013 118.19C726.797 118.19 725.863 118.432 725.213 118.915C724.563 119.399 724.238 120.049 724.238 120.865V120.915C724.238 121.315 724.322 121.682 724.488 122.015C724.672 122.332 724.913 122.599 725.213 122.815C725.513 123.032 725.855 123.199 726.238 123.315C726.638 123.432 727.055 123.49 727.488 123.49ZM747.061 107.24H754.511C755.511 107.24 756.394 107.382 757.161 107.665C757.944 107.932 758.586 108.307 759.086 108.79C759.836 109.574 760.211 110.507 760.211 111.59V111.64C760.211 112.207 760.128 112.715 759.961 113.165C759.811 113.599 759.603 113.982 759.336 114.315C759.069 114.632 758.769 114.907 758.436 115.14C758.119 115.357 757.786 115.54 757.436 115.69C757.953 115.84 758.436 116.04 758.886 116.29C759.353 116.524 759.753 116.807 760.086 117.14C760.419 117.474 760.686 117.874 760.886 118.34C761.086 118.79 761.186 119.315 761.186 119.915V119.965C761.186 120.715 761.036 121.39 760.736 121.99C760.436 122.574 760.003 123.074 759.436 123.49C758.886 123.89 758.219 124.199 757.436 124.415C756.653 124.632 755.786 124.74 754.836 124.74H747.061V107.24ZM758.211 111.865C758.211 110.999 757.878 110.307 757.211 109.79C756.544 109.274 755.586 109.015 754.336 109.015H749.011V115.04H754.186C755.386 115.04 756.353 114.782 757.086 114.265C757.836 113.732 758.211 112.949 758.211 111.915V111.865ZM759.186 119.79C759.186 118.84 758.794 118.107 758.011 117.59C757.228 117.057 756.069 116.79 754.536 116.79H749.011V122.965H754.886C756.219 122.965 757.269 122.69 758.036 122.14C758.803 121.59 759.186 120.824 759.186 119.84V119.79ZM769.378 125.015C768.778 125.015 768.186 124.932 767.603 124.765C767.036 124.599 766.52 124.349 766.053 124.015C765.603 123.665 765.236 123.24 764.953 122.74C764.686 122.24 764.553 121.657 764.553 120.99V120.94C764.553 120.257 764.686 119.657 764.953 119.14C765.22 118.624 765.595 118.19 766.078 117.84C766.578 117.49 767.161 117.224 767.828 117.04C768.511 116.857 769.261 116.765 770.078 116.765C770.911 116.765 771.636 116.815 772.253 116.915C772.87 117.015 773.47 117.149 774.053 117.315V116.865C774.053 115.699 773.711 114.824 773.028 114.24C772.361 113.64 771.42 113.34 770.203 113.34C769.436 113.34 768.736 113.432 768.103 113.615C767.486 113.782 766.878 114.007 766.278 114.29L765.703 112.715C766.42 112.382 767.145 112.124 767.878 111.94C768.611 111.74 769.453 111.64 770.403 111.64C772.236 111.64 773.628 112.115 774.578 113.065C775.461 113.949 775.903 115.207 775.903 116.84V124.74H774.053V122.79C773.603 123.374 772.995 123.89 772.228 124.34C771.478 124.79 770.528 125.015 769.378 125.015ZM769.753 123.49C770.353 123.49 770.911 123.407 771.428 123.24C771.961 123.057 772.42 122.815 772.803 122.515C773.203 122.199 773.511 121.832 773.728 121.415C773.961 120.982 774.078 120.507 774.078 119.99V118.74C773.595 118.607 773.036 118.482 772.403 118.365C771.786 118.249 771.078 118.19 770.278 118.19C769.061 118.19 768.128 118.432 767.478 118.915C766.828 119.399 766.503 120.049 766.503 120.865V120.915C766.503 121.315 766.586 121.682 766.753 122.015C766.936 122.332 767.178 122.599 767.478 122.815C767.778 123.032 768.12 123.199 768.503 123.315C768.903 123.432 769.32 123.49 769.753 123.49ZM789.942 111.815H791.992L786.567 125.165C786.017 126.499 785.401 127.44 784.717 127.99C784.051 128.54 783.234 128.815 782.267 128.815C781.734 128.815 781.251 128.757 780.817 128.64C780.384 128.54 779.951 128.382 779.517 128.165L780.167 126.64C780.484 126.807 780.792 126.924 781.092 126.99C781.409 127.074 781.776 127.115 782.192 127.115C782.776 127.115 783.267 126.94 783.667 126.59C784.067 126.24 784.459 125.607 784.842 124.69L778.967 111.815H781.092L785.792 122.59L789.942 111.815ZM810.358 124.99C808.958 124.99 807.674 124.765 806.508 124.315C805.358 123.849 804.258 123.14 803.208 122.19L804.433 120.74C805.349 121.574 806.274 122.199 807.208 122.615C808.141 123.015 809.216 123.215 810.433 123.215C811.616 123.215 812.558 122.94 813.258 122.39C813.974 121.824 814.333 121.107 814.333 120.24V120.19C814.333 119.79 814.266 119.432 814.133 119.115C813.999 118.782 813.766 118.482 813.433 118.215C813.099 117.949 812.633 117.707 812.033 117.49C811.449 117.274 810.699 117.065 809.783 116.865C808.783 116.649 807.908 116.399 807.158 116.115C806.424 115.832 805.816 115.49 805.333 115.09C804.849 114.69 804.491 114.224 804.258 113.69C804.024 113.157 803.908 112.532 803.908 111.815V111.765C803.908 111.082 804.049 110.449 804.333 109.865C804.616 109.282 805.016 108.782 805.533 108.365C806.049 107.932 806.658 107.599 807.358 107.365C808.058 107.115 808.824 106.99 809.658 106.99C810.941 106.99 812.058 107.174 813.008 107.54C813.974 107.89 814.908 108.424 815.808 109.14L814.658 110.665C813.841 109.999 813.016 109.515 812.183 109.215C811.366 108.915 810.508 108.765 809.608 108.765C808.458 108.765 807.549 109.04 806.883 109.59C806.216 110.124 805.883 110.79 805.883 111.59V111.64C805.883 112.057 805.949 112.432 806.083 112.765C806.216 113.082 806.458 113.382 806.808 113.665C807.158 113.932 807.641 114.182 808.258 114.415C808.874 114.632 809.666 114.84 810.633 115.04C812.583 115.474 814.016 116.074 814.933 116.84C815.866 117.607 816.333 118.657 816.333 119.99V120.04C816.333 120.79 816.183 121.474 815.883 122.09C815.583 122.69 815.166 123.207 814.633 123.64C814.116 124.074 813.491 124.407 812.758 124.64C812.024 124.874 811.224 124.99 810.358 124.99ZM824.624 125.015C824.024 125.015 823.432 124.932 822.849 124.765C822.282 124.599 821.766 124.349 821.299 124.015C820.849 123.665 820.482 123.24 820.199 122.74C819.932 122.24 819.799 121.657 819.799 120.99V120.94C819.799 120.257 819.932 119.657 820.199 119.14C820.466 118.624 820.841 118.19 821.324 117.84C821.824 117.49 822.407 117.224 823.074 117.04C823.757 116.857 824.507 116.765 825.324 116.765C826.157 116.765 826.882 116.815 827.499 116.915C828.116 117.015 828.716 117.149 829.299 117.315V116.865C829.299 115.699 828.957 114.824 828.274 114.24C827.607 113.64 826.666 113.34 825.449 113.34C824.682 113.34 823.982 113.432 823.349 113.615C822.732 113.782 822.124 114.007 821.524 114.29L820.949 112.715C821.666 112.382 822.391 112.124 823.124 111.94C823.857 111.74 824.699 111.64 825.649 111.64C827.482 111.64 828.874 112.115 829.824 113.065C830.707 113.949 831.149 115.207 831.149 116.84V124.74H829.299V122.79C828.849 123.374 828.241 123.89 827.474 124.34C826.724 124.79 825.774 125.015 824.624 125.015ZM824.999 123.49C825.599 123.49 826.157 123.407 826.674 123.24C827.207 123.057 827.666 122.815 828.049 122.515C828.449 122.199 828.757 121.832 828.974 121.415C829.207 120.982 829.324 120.507 829.324 119.99V118.74C828.841 118.607 828.282 118.482 827.649 118.365C827.032 118.249 826.324 118.19 825.524 118.19C824.307 118.19 823.374 118.432 822.724 118.915C822.074 119.399 821.749 120.049 821.749 120.865V120.915C821.749 121.315 821.832 121.682 821.999 122.015C822.182 122.332 822.424 122.599 822.724 122.815C823.024 123.032 823.366 123.199 823.749 123.315C824.149 123.432 824.566 123.49 824.999 123.49ZM836.002 111.815H837.927V114.065C838.36 113.365 838.927 112.774 839.627 112.29C840.327 111.79 841.235 111.54 842.352 111.54C843.135 111.54 843.827 111.665 844.427 111.915C845.043 112.165 845.56 112.524 845.977 112.99C846.41 113.44 846.735 113.982 846.952 114.615C847.185 115.249 847.302 115.949 847.302 116.715V124.74H845.377V117.19C845.377 115.99 845.068 115.04 844.452 114.34C843.835 113.64 842.952 113.29 841.802 113.29C841.252 113.29 840.735 113.39 840.252 113.59C839.785 113.774 839.377 114.049 839.027 114.415C838.677 114.765 838.402 115.19 838.202 115.69C838.018 116.19 837.927 116.74 837.927 117.34V124.74H836.002V111.815ZM857.582 125.015C856.799 125.015 856.04 124.865 855.307 124.565C854.574 124.265 853.915 123.832 853.332 123.265C852.749 122.682 852.282 121.982 851.932 121.165C851.582 120.332 851.407 119.382 851.407 118.315V118.265C851.407 117.215 851.582 116.274 851.932 115.44C852.282 114.607 852.749 113.907 853.332 113.34C853.915 112.757 854.574 112.315 855.307 112.015C856.04 111.699 856.799 111.54 857.582 111.54C858.182 111.54 858.732 111.615 859.232 111.765C859.732 111.915 860.182 112.115 860.582 112.365C860.982 112.615 861.34 112.907 861.657 113.24C861.99 113.574 862.282 113.924 862.532 114.29V106.49H864.457V124.74H862.532V122.14C862.265 122.524 861.965 122.89 861.632 123.24C861.315 123.59 860.957 123.899 860.557 124.165C860.157 124.432 859.707 124.64 859.207 124.79C858.724 124.94 858.182 125.015 857.582 125.015ZM857.932 123.29C858.532 123.29 859.107 123.174 859.657 122.94C860.224 122.69 860.724 122.349 861.157 121.915C861.607 121.465 861.957 120.94 862.207 120.34C862.474 119.724 862.607 119.04 862.607 118.29V118.24C862.607 117.49 862.474 116.815 862.207 116.215C861.957 115.599 861.607 115.074 861.157 114.64C860.724 114.207 860.224 113.874 859.657 113.64C859.107 113.39 858.532 113.265 857.932 113.265C857.299 113.265 856.707 113.382 856.157 113.615C855.607 113.832 855.124 114.157 854.707 114.59C854.307 115.007 853.982 115.524 853.732 116.14C853.499 116.757 853.382 117.457 853.382 118.24V118.29C853.382 119.057 853.507 119.749 853.757 120.365C854.007 120.982 854.34 121.507 854.757 121.94C855.174 122.374 855.657 122.707 856.207 122.94C856.757 123.174 857.332 123.29 857.932 123.29ZM873.783 124.99C872.85 124.99 871.908 124.824 870.958 124.49C870.008 124.14 869.167 123.674 868.433 123.09L869.408 121.715C870.108 122.249 870.833 122.657 871.583 122.94C872.35 123.224 873.117 123.365 873.883 123.365C874.667 123.365 875.308 123.182 875.808 122.815C876.308 122.449 876.558 121.949 876.558 121.315V121.265C876.558 120.949 876.467 120.674 876.283 120.44C876.117 120.207 875.883 120.007 875.583 119.84C875.283 119.657 874.933 119.499 874.533 119.365C874.15 119.232 873.75 119.107 873.333 118.99C872.833 118.84 872.325 118.682 871.808 118.515C871.308 118.332 870.85 118.107 870.433 117.84C870.033 117.574 869.7 117.24 869.433 116.84C869.183 116.44 869.058 115.94 869.058 115.34V115.29C869.058 114.74 869.167 114.24 869.383 113.79C869.6 113.324 869.9 112.932 870.283 112.615C870.683 112.282 871.15 112.032 871.683 111.865C872.233 111.682 872.825 111.59 873.458 111.59C874.258 111.59 875.067 111.724 875.883 111.99C876.7 112.24 877.442 112.582 878.108 113.015L877.233 114.465C876.633 114.082 876 113.782 875.333 113.565C874.683 113.332 874.042 113.215 873.408 113.215C872.642 113.215 872.033 113.399 871.583 113.765C871.133 114.115 870.908 114.557 870.908 115.09V115.14C870.908 115.44 871 115.707 871.183 115.94C871.367 116.157 871.608 116.349 871.908 116.515C872.225 116.682 872.583 116.832 872.983 116.965C873.383 117.099 873.8 117.232 874.233 117.365C874.733 117.515 875.225 117.682 875.708 117.865C876.208 118.049 876.658 118.282 877.058 118.565C877.458 118.849 877.775 119.19 878.008 119.59C878.258 119.99 878.383 120.482 878.383 121.065V121.115C878.383 121.732 878.258 122.282 878.008 122.765C877.775 123.232 877.45 123.632 877.033 123.965C876.633 124.299 876.15 124.557 875.583 124.74C875.033 124.907 874.433 124.99 873.783 124.99ZM881.71 126.915C882.343 126.682 882.793 126.39 883.06 126.04C883.326 125.707 883.435 125.274 883.385 124.74H882.485V122.115H884.785V124.365C884.785 125.382 884.56 126.149 884.11 126.665C883.66 127.199 882.96 127.574 882.01 127.79L881.71 126.915ZM710.271 149.99C708.871 149.99 707.588 149.765 706.421 149.315C705.271 148.849 704.171 148.14 703.121 147.19L704.346 145.74C705.263 146.574 706.188 147.199 707.121 147.615C708.055 148.015 709.13 148.215 710.346 148.215C711.53 148.215 712.471 147.94 713.171 147.39C713.888 146.824 714.246 146.107 714.246 145.24V145.19C714.246 144.79 714.18 144.432 714.046 144.115C713.913 143.782 713.68 143.482 713.346 143.215C713.013 142.949 712.546 142.707 711.946 142.49C711.363 142.274 710.613 142.065 709.696 141.865C708.696 141.649 707.821 141.399 707.071 141.115C706.338 140.832 705.73 140.49 705.246 140.09C704.763 139.69 704.405 139.224 704.171 138.69C703.938 138.157 703.821 137.532 703.821 136.815V136.765C703.821 136.082 703.963 135.449 704.246 134.865C704.53 134.282 704.93 133.782 705.446 133.365C705.963 132.932 706.571 132.599 707.271 132.365C707.971 132.115 708.738 131.99 709.571 131.99C710.855 131.99 711.971 132.174 712.921 132.54C713.888 132.89 714.821 133.424 715.721 134.14L714.571 135.665C713.755 134.999 712.93 134.515 712.096 134.215C711.28 133.915 710.421 133.765 709.521 133.765C708.371 133.765 707.463 134.04 706.796 134.59C706.13 135.124 705.796 135.79 705.796 136.59V136.64C705.796 137.057 705.863 137.432 705.996 137.765C706.13 138.082 706.371 138.382 706.721 138.665C707.071 138.932 707.555 139.182 708.171 139.415C708.788 139.632 709.58 139.84 710.546 140.04C712.496 140.474 713.93 141.074 714.846 141.84C715.78 142.607 716.246 143.657 716.246 144.99V145.04C716.246 145.79 716.096 146.474 715.796 147.09C715.496 147.69 715.08 148.207 714.546 148.64C714.03 149.074 713.405 149.407 712.671 149.64C711.938 149.874 711.138 149.99 710.271 149.99ZM720.863 136.815H722.788V149.74H720.863V136.815ZM720.738 132.115H722.938V134.24H720.738V132.115ZM728.005 136.815H729.93V139.065C730.363 138.365 730.93 137.774 731.63 137.29C732.33 136.79 733.238 136.54 734.355 136.54C735.138 136.54 735.83 136.665 736.43 136.915C737.047 137.165 737.563 137.524 737.98 137.99C738.413 138.44 738.738 138.982 738.955 139.615C739.188 140.249 739.305 140.949 739.305 141.715V149.74H737.38V142.19C737.38 140.99 737.072 140.04 736.455 139.34C735.838 138.64 734.955 138.29 733.805 138.29C733.255 138.29 732.738 138.39 732.255 138.59C731.788 138.774 731.38 139.049 731.03 139.415C730.68 139.765 730.405 140.19 730.205 140.69C730.022 141.19 729.93 141.74 729.93 142.34V149.74H728.005V136.815ZM749.885 153.79C748.802 153.79 747.769 153.64 746.785 153.34C745.802 153.04 744.877 152.59 744.01 151.99L744.885 150.49C745.635 151.024 746.419 151.432 747.235 151.715C748.052 151.999 748.927 152.14 749.86 152.14C751.294 152.14 752.435 151.749 753.285 150.965C754.135 150.199 754.56 149.057 754.56 147.54V146.015C753.994 146.765 753.302 147.407 752.485 147.94C751.669 148.474 750.669 148.74 749.485 148.74C748.702 148.74 747.944 148.599 747.21 148.315C746.494 148.032 745.852 147.632 745.285 147.115C744.719 146.582 744.26 145.949 743.91 145.215C743.577 144.465 743.41 143.624 743.41 142.69V142.64C743.41 141.69 743.577 140.84 743.91 140.09C744.26 139.34 744.719 138.707 745.285 138.19C745.852 137.657 746.502 137.249 747.235 136.965C747.969 136.682 748.719 136.54 749.485 136.54C750.085 136.54 750.635 136.615 751.135 136.765C751.652 136.899 752.11 137.082 752.51 137.315C752.927 137.549 753.302 137.824 753.635 138.14C753.969 138.457 754.269 138.79 754.535 139.14V136.815H756.46V147.49C756.46 148.49 756.319 149.365 756.035 150.115C755.752 150.882 755.344 151.532 754.81 152.065C754.227 152.649 753.519 153.082 752.685 153.365C751.852 153.649 750.919 153.79 749.885 153.79ZM749.86 147.04C750.477 147.04 751.069 146.94 751.635 146.74C752.202 146.524 752.702 146.224 753.135 145.84C753.585 145.44 753.944 144.974 754.21 144.44C754.477 143.907 754.61 143.315 754.61 142.665V142.615C754.61 141.949 754.477 141.349 754.21 140.815C753.944 140.282 753.585 139.824 753.135 139.44C752.702 139.057 752.202 138.765 751.635 138.565C751.069 138.349 750.477 138.24 749.86 138.24C749.244 138.24 748.66 138.349 748.11 138.565C747.577 138.765 747.102 139.057 746.685 139.44C746.285 139.807 745.969 140.257 745.735 140.79C745.502 141.324 745.385 141.924 745.385 142.59V142.64C745.385 143.29 745.502 143.89 745.735 144.44C745.985 144.974 746.31 145.432 746.71 145.815C747.127 146.199 747.602 146.499 748.135 146.715C748.685 146.932 749.26 147.04 749.86 147.04ZM765.362 150.015C764.762 150.015 764.17 149.932 763.587 149.765C763.02 149.599 762.503 149.349 762.037 149.015C761.587 148.665 761.22 148.24 760.937 147.74C760.67 147.24 760.537 146.657 760.537 145.99V145.94C760.537 145.257 760.67 144.657 760.937 144.14C761.203 143.624 761.578 143.19 762.062 142.84C762.562 142.49 763.145 142.224 763.812 142.04C764.495 141.857 765.245 141.765 766.062 141.765C766.895 141.765 767.62 141.815 768.237 141.915C768.853 142.015 769.453 142.149 770.037 142.315V141.865C770.037 140.699 769.695 139.824 769.012 139.24C768.345 138.64 767.403 138.34 766.187 138.34C765.42 138.34 764.72 138.432 764.087 138.615C763.47 138.782 762.862 139.007 762.262 139.29L761.687 137.715C762.403 137.382 763.128 137.124 763.862 136.94C764.595 136.74 765.437 136.64 766.387 136.64C768.22 136.64 769.612 137.115 770.562 138.065C771.445 138.949 771.887 140.207 771.887 141.84V149.74H770.037V147.79C769.587 148.374 768.978 148.89 768.212 149.34C767.462 149.79 766.512 150.015 765.362 150.015ZM765.737 148.49C766.337 148.49 766.895 148.407 767.412 148.24C767.945 148.057 768.403 147.815 768.787 147.515C769.187 147.199 769.495 146.832 769.712 146.415C769.945 145.982 770.062 145.507 770.062 144.99V143.74C769.578 143.607 769.02 143.482 768.387 143.365C767.77 143.249 767.062 143.19 766.262 143.19C765.045 143.19 764.112 143.432 763.462 143.915C762.812 144.399 762.487 145.049 762.487 145.865V145.915C762.487 146.315 762.57 146.682 762.737 147.015C762.92 147.332 763.162 147.599 763.462 147.815C763.762 148.032 764.103 148.199 764.487 148.315C764.887 148.432 765.303 148.49 765.737 148.49ZM776.739 136.815H778.664V139.415C778.931 139.032 779.223 138.665 779.539 138.315C779.873 137.965 780.239 137.665 780.639 137.415C781.039 137.149 781.481 136.94 781.964 136.79C782.464 136.624 783.014 136.54 783.614 136.54C784.381 136.54 785.131 136.69 785.864 136.99C786.614 137.29 787.281 137.732 787.864 138.315C788.448 138.882 788.914 139.582 789.264 140.415C789.614 141.232 789.789 142.174 789.789 143.24V143.29C789.789 144.34 789.614 145.282 789.264 146.115C788.914 146.949 788.448 147.657 787.864 148.24C787.298 148.807 786.639 149.249 785.889 149.565C785.156 149.865 784.398 150.015 783.614 150.015C783.014 150.015 782.464 149.94 781.964 149.79C781.464 149.64 781.014 149.44 780.614 149.19C780.214 148.94 779.848 148.649 779.514 148.315C779.198 147.982 778.914 147.632 778.664 147.265V153.74H776.739V136.815ZM783.264 148.29C783.881 148.29 784.464 148.182 785.014 147.965C785.581 147.732 786.064 147.407 786.464 146.99C786.881 146.557 787.206 146.032 787.439 145.415C787.689 144.799 787.814 144.099 787.814 143.315V143.265C787.814 142.499 787.689 141.807 787.439 141.19C787.206 140.574 786.881 140.049 786.464 139.615C786.048 139.182 785.564 138.849 785.014 138.615C784.464 138.382 783.881 138.265 783.264 138.265C782.664 138.265 782.081 138.39 781.514 138.64C780.964 138.874 780.464 139.215 780.014 139.665C779.581 140.099 779.231 140.624 778.964 141.24C778.714 141.84 778.589 142.507 778.589 143.24V143.29C778.589 144.04 778.714 144.724 778.964 145.34C779.231 145.957 779.581 146.482 780.014 146.915C780.464 147.349 780.964 147.69 781.514 147.94C782.081 148.174 782.664 148.29 783.264 148.29ZM799.991 150.04C799.024 150.04 798.133 149.865 797.316 149.515C796.499 149.149 795.791 148.665 795.191 148.065C794.591 147.449 794.124 146.74 793.791 145.94C793.458 145.124 793.291 144.257 793.291 143.34V143.29C793.291 142.374 793.458 141.507 793.791 140.69C794.124 139.874 794.591 139.157 795.191 138.54C795.791 137.924 796.499 137.44 797.316 137.09C798.149 136.724 799.058 136.54 800.041 136.54C801.008 136.54 801.899 136.724 802.716 137.09C803.549 137.44 804.266 137.924 804.866 138.54C805.466 139.14 805.933 139.849 806.266 140.665C806.599 141.465 806.766 142.324 806.766 143.24V143.29C806.766 144.207 806.591 145.074 806.241 145.89C805.908 146.707 805.441 147.424 804.841 148.04C804.241 148.657 803.524 149.149 802.691 149.515C801.858 149.865 800.958 150.04 799.991 150.04ZM800.041 148.315C800.741 148.315 801.383 148.182 801.966 147.915C802.549 147.649 803.049 147.29 803.466 146.84C803.883 146.39 804.208 145.865 804.441 145.265C804.674 144.665 804.791 144.024 804.791 143.34V143.29C804.791 142.59 804.666 141.94 804.416 141.34C804.183 140.724 803.849 140.19 803.416 139.74C802.983 139.274 802.474 138.907 801.891 138.64C801.308 138.374 800.674 138.24 799.991 138.24C799.291 138.24 798.649 138.374 798.066 138.64C797.483 138.907 796.983 139.265 796.566 139.715C796.166 140.165 795.849 140.699 795.616 141.315C795.383 141.915 795.266 142.557 795.266 143.24V143.29C795.266 143.99 795.383 144.649 795.616 145.265C795.866 145.865 796.199 146.39 796.616 146.84C797.049 147.29 797.558 147.649 798.141 147.915C798.724 148.182 799.358 148.315 800.041 148.315ZM811.003 136.815H812.928V140.19C813.161 139.657 813.453 139.165 813.803 138.715C814.153 138.265 814.553 137.882 815.003 137.565C815.453 137.232 815.945 136.982 816.478 136.815C817.011 136.649 817.586 136.574 818.203 136.59V138.665H818.053C817.353 138.665 816.686 138.79 816.053 139.04C815.436 139.29 814.895 139.665 814.428 140.165C813.961 140.665 813.595 141.29 813.328 142.04C813.061 142.774 812.928 143.624 812.928 144.59V149.74H811.003V136.815ZM826.973 150.04C826.09 150.04 825.257 149.882 824.473 149.565C823.69 149.232 823.007 148.774 822.423 148.19C821.84 147.59 821.373 146.882 821.023 146.065C820.69 145.232 820.523 144.315 820.523 143.315V143.265C820.523 142.332 820.673 141.457 820.973 140.64C821.29 139.824 821.723 139.115 822.273 138.515C822.823 137.899 823.473 137.415 824.223 137.065C824.99 136.715 825.823 136.54 826.723 136.54C827.673 136.54 828.523 136.724 829.273 137.09C830.023 137.44 830.657 137.924 831.173 138.54C831.69 139.157 832.082 139.882 832.348 140.715C832.615 141.532 832.748 142.415 832.748 143.365C832.748 143.499 832.748 143.607 832.748 143.69C832.748 143.774 832.74 143.874 832.723 143.99H822.473C822.54 144.69 822.707 145.315 822.973 145.865C823.24 146.399 823.573 146.857 823.973 147.24C824.39 147.607 824.857 147.89 825.373 148.09C825.89 148.274 826.44 148.365 827.023 148.365C827.923 148.365 828.69 148.199 829.323 147.865C829.973 147.532 830.565 147.09 831.098 146.54L832.298 147.615C831.648 148.349 830.907 148.94 830.073 149.39C829.24 149.824 828.207 150.04 826.973 150.04ZM830.798 142.565C830.748 141.982 830.623 141.424 830.423 140.89C830.24 140.357 829.973 139.89 829.623 139.49C829.29 139.09 828.873 138.774 828.373 138.54C827.89 138.29 827.323 138.165 826.673 138.165C826.107 138.165 825.582 138.282 825.098 138.515C824.615 138.732 824.19 139.04 823.823 139.44C823.457 139.824 823.157 140.282 822.923 140.815C822.69 141.349 822.54 141.932 822.473 142.565H830.798Z" fill="white"/>
<path opacity="0.2" d="M972.882 154.74V35.7402" stroke="url(#paint2_linear_505_4340)"/>
<g clip-path="url(#clip3_505_4340)">
<path d="M1113.22 59.0347C1113.01 58.3836 1112.6 57.8156 1112.05 57.4147C1111.5 57.0138 1110.83 56.8013 1110.15 56.8087H1105.78L1104.46 52.6727C1104.25 52.0216 1103.84 51.4537 1103.28 51.0507C1102.73 50.6478 1102.07 50.4307 1101.38 50.4307C1100.7 50.4307 1100.03 50.6478 1099.48 51.0507C1098.93 51.4537 1098.52 52.0216 1098.31 52.6727L1096.98 56.8087H1092.61C1091.93 56.8096 1091.27 57.0256 1090.72 57.4256C1090.17 57.8256 1089.76 58.3893 1089.55 59.0361C1089.34 59.6829 1089.34 60.3797 1089.55 61.0271C1089.76 61.6744 1090.16 62.2392 1090.71 62.6407L1094.27 65.2407L1092.92 69.4277C1092.7 70.0771 1092.7 70.7797 1092.91 71.4308C1093.12 72.0819 1093.54 72.6466 1094.1 73.0407C1094.65 73.4475 1095.32 73.6654 1096 73.662C1096.69 73.6585 1097.35 73.4339 1097.9 73.0217L1101.38 70.4597L1104.86 73.0187C1105.41 73.4231 1106.08 73.6428 1106.76 73.6461C1107.44 73.6495 1108.11 73.4363 1108.66 73.0372C1109.22 72.6381 1109.63 72.0737 1109.84 71.4252C1110.06 70.7766 1110.06 70.0772 1109.85 69.4277L1108.5 65.2407L1112.06 62.6407C1112.61 62.2442 1113.02 61.6795 1113.23 61.03C1113.44 60.3806 1113.44 59.6809 1113.22 59.0347ZM1110.88 61.0257L1106.73 64.0547C1106.56 64.1788 1106.43 64.3536 1106.37 64.554C1106.3 64.7544 1106.3 64.9702 1106.37 65.1707L1107.94 70.0407C1108.02 70.2877 1108.02 70.5536 1107.94 70.8002C1107.86 71.0468 1107.7 71.2614 1107.49 71.4131C1107.28 71.5648 1107.03 71.6458 1106.77 71.6444C1106.51 71.6431 1106.26 71.5595 1106.05 71.4057L1101.97 68.4057C1101.8 68.2796 1101.6 68.2116 1101.38 68.2116C1101.17 68.2116 1100.96 68.2796 1100.79 68.4057L1096.72 71.4057C1096.51 71.5616 1096.25 71.6469 1095.99 71.6493C1095.73 71.6516 1095.48 71.5709 1095.27 71.4188C1095.05 71.2667 1094.9 71.0512 1094.81 70.8034C1094.73 70.5556 1094.73 70.2884 1094.82 70.0407L1096.4 65.1707C1096.46 64.9702 1096.46 64.7544 1096.39 64.554C1096.33 64.3536 1096.2 64.1788 1096.03 64.0547L1091.89 61.0257C1091.68 60.8729 1091.53 60.658 1091.45 60.4118C1091.37 60.1656 1091.37 59.9007 1091.45 59.6548C1091.53 59.4089 1091.68 59.1947 1091.89 59.0427C1092.1 58.8908 1092.35 58.8089 1092.61 58.8087H1097.71C1097.92 58.8087 1098.13 58.7415 1098.3 58.6168C1098.47 58.492 1098.6 58.3162 1098.67 58.1147L1100.22 53.2837C1100.29 53.0365 1100.45 52.8209 1100.66 52.6679C1100.87 52.515 1101.12 52.4326 1101.38 52.4326C1101.64 52.4326 1101.9 52.515 1102.11 52.6679C1102.32 52.8209 1102.47 53.0365 1102.55 53.2837L1104.1 58.1147C1104.17 58.3162 1104.29 58.492 1104.46 58.6168C1104.64 58.7415 1104.84 58.8087 1105.05 58.8087H1110.15C1110.41 58.8089 1110.66 58.8908 1110.87 59.0427C1111.08 59.1947 1111.24 59.4089 1111.32 59.6548C1111.4 59.9007 1111.4 60.1656 1111.32 60.4118C1111.24 60.658 1111.09 60.8729 1110.88 61.0257H1110.88Z" fill="white"/>
</g>
<path d="M1041.85 102.24H1046.46C1050.64 102.24 1053.53 99.3332 1053.53 95.5902V95.5522C1053.53 91.8092 1050.64 88.9402 1046.46 88.9402H1041.85V102.24ZM1046.46 90.3272C1049.83 90.3272 1051.97 92.6452 1051.97 95.5902V95.6282C1051.97 98.5732 1049.83 100.853 1046.46 100.853H1043.35V90.3272H1046.46ZM1056.71 102.24H1058.21V97.0722H1062.01L1065.87 102.24H1067.71L1063.63 96.8062C1065.72 96.4262 1067.24 95.1342 1067.24 92.9302V92.8922C1067.24 91.8472 1066.86 90.9162 1066.21 90.2702C1065.37 89.4342 1064.06 88.9402 1062.43 88.9402H1056.71V102.24ZM1058.21 95.7232V90.3272H1062.31C1064.46 90.3272 1065.72 91.3152 1065.72 92.9492V92.9872C1065.72 94.6972 1064.29 95.7232 1062.3 95.7232H1058.21ZM1070.44 102.24H1080.15V100.872H1071.94V96.2172H1079.2V94.8492H1071.94V90.3082H1080.05V88.9402H1070.44V102.24ZM1087.73 102.43C1090.37 102.43 1092.27 100.948 1092.27 98.6682V98.6302C1092.27 96.5972 1090.9 95.5142 1087.94 94.8682C1085.01 94.2412 1084.33 93.5382 1084.33 92.2842V92.2462C1084.33 91.0492 1085.43 90.0992 1087.16 90.0992C1088.53 90.0992 1089.76 90.5362 1091 91.5432L1091.87 90.3842C1090.52 89.3012 1089.13 88.7502 1087.2 88.7502C1084.67 88.7502 1082.83 90.2892 1082.83 92.3792V92.4172C1082.83 94.6022 1084.23 95.5902 1087.29 96.2552C1090.08 96.8442 1090.75 97.5472 1090.75 98.7822V98.8202C1090.75 100.131 1089.57 101.081 1087.79 101.081C1085.94 101.081 1084.61 100.454 1083.23 99.2002L1082.29 100.302C1083.89 101.727 1085.62 102.43 1087.73 102.43ZM1099.7 102.43C1102.34 102.43 1104.24 100.948 1104.24 98.6682V98.6302C1104.24 96.5972 1102.87 95.5142 1099.91 94.8682C1096.98 94.2412 1096.3 93.5382 1096.3 92.2842V92.2462C1096.3 91.0492 1097.4 90.0992 1099.13 90.0992C1100.49 90.0992 1101.73 90.5362 1102.96 91.5432L1103.84 90.3842C1102.49 89.3012 1101.1 88.7502 1099.16 88.7502C1096.64 88.7502 1094.79 90.2892 1094.79 92.3792V92.4172C1094.79 94.6022 1096.2 95.5902 1099.26 96.2552C1102.05 96.8442 1102.72 97.5472 1102.72 98.7822V98.8202C1102.72 100.131 1101.54 101.081 1099.75 101.081C1097.91 101.081 1096.58 100.454 1095.19 99.2002L1094.26 100.302C1095.86 101.727 1097.59 102.43 1099.7 102.43ZM1113.37 102.468C1115.78 102.468 1117.3 101.537 1118.69 100.131L1117.7 99.1622C1116.43 100.378 1115.23 101.081 1113.41 101.081C1110.48 101.081 1108.26 98.6682 1108.26 95.5902V95.5522C1108.26 92.4932 1110.46 90.0992 1113.41 90.0992C1115.21 90.0992 1116.47 90.8592 1117.59 91.9232L1118.61 90.8212C1117.28 89.5672 1115.84 88.7122 1113.43 88.7122C1109.51 88.7122 1106.7 91.8282 1106.7 95.5902V95.6282C1106.7 99.4472 1109.53 102.468 1113.37 102.468ZM1127.12 102.468C1131.17 102.468 1133.92 99.2572 1133.92 95.5902V95.5522C1133.92 91.8852 1131.21 88.7122 1127.16 88.7122C1123.11 88.7122 1120.36 91.9232 1120.36 95.5902V95.6282C1120.36 99.2952 1123.07 102.468 1127.12 102.468ZM1127.16 101.081C1124.12 101.081 1121.91 98.6112 1121.91 95.5902V95.5522C1121.91 92.5312 1124.08 90.0992 1127.12 90.0992C1130.16 90.0992 1132.36 92.5692 1132.36 95.5902V95.6282C1132.36 98.6492 1130.2 101.081 1127.16 101.081ZM1137.09 102.24H1141.71C1145.89 102.24 1148.77 99.3332 1148.77 95.5902V95.5522C1148.77 91.8092 1145.89 88.9402 1141.71 88.9402H1137.09V102.24ZM1141.71 90.3272C1145.07 90.3272 1147.22 92.6452 1147.22 95.5902V95.6282C1147.22 98.5732 1145.07 100.853 1141.71 100.853H1138.59V90.3272H1141.71ZM1151.95 102.24H1161.66V100.872H1153.45V96.2172H1160.71V94.8492H1153.45V90.3082H1161.56V88.9402H1151.95V102.24ZM1026.42 134.49C1025.09 134.49 1023.78 134.265 1022.49 133.815C1021.21 133.349 1020.04 132.64 1018.99 131.69L1021.27 128.965C1022.07 129.615 1022.89 130.132 1023.72 130.515C1024.57 130.899 1025.49 131.09 1026.49 131.09C1027.29 131.09 1027.91 130.949 1028.34 130.665C1028.79 130.365 1029.02 129.957 1029.02 129.44V129.39C1029.02 129.14 1028.97 128.924 1028.87 128.74C1028.79 128.54 1028.61 128.357 1028.34 128.19C1028.09 128.024 1027.74 127.857 1027.27 127.69C1026.82 127.524 1026.23 127.349 1025.49 127.165C1024.61 126.949 1023.81 126.707 1023.09 126.44C1022.38 126.174 1021.77 125.849 1021.27 125.465C1020.77 125.065 1020.38 124.574 1020.09 123.99C1019.83 123.407 1019.69 122.682 1019.69 121.815V121.765C1019.69 120.965 1019.84 120.249 1020.14 119.615C1020.44 118.965 1020.86 118.407 1021.39 117.94C1021.94 117.474 1022.59 117.115 1023.34 116.865C1024.09 116.615 1024.92 116.49 1025.82 116.49C1027.1 116.49 1028.28 116.682 1029.34 117.065C1030.43 117.449 1031.42 117.999 1032.32 118.715L1030.32 121.615C1029.54 121.082 1028.77 120.665 1028.02 120.365C1027.27 120.049 1026.52 119.89 1025.77 119.89C1025.02 119.89 1024.45 120.04 1024.07 120.34C1023.7 120.624 1023.52 120.982 1023.52 121.415V121.465C1023.52 121.749 1023.57 121.999 1023.67 122.215C1023.79 122.415 1023.99 122.599 1024.27 122.765C1024.55 122.932 1024.94 123.09 1025.42 123.24C1025.92 123.39 1026.54 123.565 1027.29 123.765C1028.18 123.999 1028.96 124.265 1029.64 124.565C1030.34 124.849 1030.93 125.199 1031.39 125.615C1031.88 126.015 1032.24 126.49 1032.47 127.04C1032.72 127.59 1032.84 128.249 1032.84 129.015V129.065C1032.84 129.932 1032.69 130.707 1032.37 131.39C1032.05 132.057 1031.61 132.624 1031.04 133.09C1030.48 133.54 1029.8 133.89 1029.02 134.14C1028.24 134.374 1027.37 134.49 1026.42 134.49ZM1035.78 120.84H1039.58V122.74C1039.8 122.457 1040.03 122.19 1040.28 121.94C1040.55 121.674 1040.84 121.44 1041.16 121.24C1041.48 121.04 1041.83 120.882 1042.21 120.765C1042.61 120.649 1043.05 120.59 1043.53 120.59C1044.42 120.59 1045.18 120.774 1045.81 121.14C1046.46 121.507 1046.96 122.032 1047.31 122.715C1047.89 122.015 1048.54 121.49 1049.26 121.14C1049.98 120.774 1050.79 120.59 1051.71 120.59C1053.13 120.59 1054.23 121.007 1055.03 121.84C1055.83 122.674 1056.23 123.899 1056.23 125.515V134.24H1052.43V126.765C1052.43 125.865 1052.24 125.19 1051.86 124.74C1051.48 124.274 1050.93 124.04 1050.21 124.04C1049.49 124.04 1048.93 124.274 1048.51 124.74C1048.11 125.19 1047.91 125.865 1047.91 126.765V134.24H1044.11V126.765C1044.11 125.865 1043.92 125.19 1043.53 124.74C1043.15 124.274 1042.6 124.04 1041.88 124.04C1041.17 124.04 1040.6 124.274 1040.18 124.74C1039.78 125.19 1039.58 125.865 1039.58 126.765V134.24H1035.78V120.84ZM1063.34 134.49C1062.71 134.49 1062.11 134.407 1061.54 134.24C1060.99 134.057 1060.51 133.79 1060.09 133.44C1059.67 133.09 1059.34 132.665 1059.09 132.165C1058.86 131.649 1058.74 131.057 1058.74 130.39V130.34C1058.74 129.607 1058.87 128.974 1059.14 128.44C1059.41 127.907 1059.77 127.465 1060.24 127.115C1060.72 126.765 1061.29 126.507 1061.94 126.34C1062.61 126.157 1063.34 126.065 1064.14 126.065C1064.82 126.065 1065.41 126.115 1065.91 126.215C1066.43 126.315 1066.93 126.449 1067.41 126.615V126.39C1067.41 125.59 1067.17 124.982 1066.69 124.565C1066.21 124.149 1065.49 123.94 1064.54 123.94C1063.81 123.94 1063.16 124.007 1062.59 124.14C1062.04 124.257 1061.46 124.432 1060.84 124.665L1059.89 121.765C1060.62 121.449 1061.39 121.19 1062.19 120.99C1062.99 120.79 1063.96 120.69 1065.09 120.69C1066.14 120.69 1067.03 120.824 1067.76 121.09C1068.51 121.34 1069.13 121.707 1069.61 122.19C1070.11 122.69 1070.48 123.307 1070.71 124.04C1070.95 124.757 1071.06 125.565 1071.06 126.465V134.24H1067.39V132.79C1066.92 133.307 1066.36 133.724 1065.71 134.04C1065.06 134.34 1064.27 134.49 1063.34 134.49ZM1064.49 131.865C1065.39 131.865 1066.11 131.649 1066.64 131.215C1067.19 130.782 1067.46 130.215 1067.46 129.515V128.84C1067.13 128.69 1066.76 128.574 1066.34 128.49C1065.94 128.39 1065.51 128.34 1065.04 128.34C1064.22 128.34 1063.58 128.499 1063.11 128.815C1062.65 129.132 1062.41 129.59 1062.41 130.19V130.24C1062.41 130.757 1062.61 131.157 1062.99 131.44C1063.37 131.724 1063.87 131.865 1064.49 131.865ZM1074.33 120.84H1078.13V123.54C1078.52 122.624 1079.04 121.89 1079.71 121.34C1080.38 120.79 1081.28 120.54 1082.41 120.59V124.565H1082.21C1080.94 124.565 1079.94 124.949 1079.21 125.715C1078.49 126.482 1078.13 127.674 1078.13 129.29V134.24H1074.33V120.84ZM1089.31 134.465C1088.73 134.465 1088.19 134.399 1087.71 134.265C1087.24 134.149 1086.83 133.932 1086.48 133.615C1086.15 133.299 1085.88 132.89 1085.68 132.39C1085.5 131.874 1085.41 131.224 1085.41 130.44V124.09H1083.81V120.84H1085.41V117.415H1089.21V120.84H1092.36V124.09H1089.21V129.815C1089.21 130.682 1089.62 131.115 1090.43 131.115C1091.1 131.115 1091.73 130.957 1092.31 130.64V133.69C1091.91 133.924 1091.47 134.107 1090.98 134.24C1090.5 134.39 1089.94 134.465 1089.31 134.465ZM1111.26 134.54C1109.97 134.54 1108.78 134.307 1107.68 133.84C1106.58 133.374 1105.63 132.74 1104.83 131.94C1104.03 131.124 1103.41 130.165 1102.96 129.065C1102.51 127.965 1102.28 126.79 1102.28 125.54V125.49C1102.28 124.24 1102.51 123.074 1102.96 121.99C1103.41 120.89 1104.03 119.932 1104.83 119.115C1105.63 118.282 1106.59 117.632 1107.71 117.165C1108.82 116.682 1110.06 116.44 1111.41 116.44C1112.22 116.44 1112.96 116.507 1113.63 116.64C1114.31 116.774 1114.93 116.957 1115.48 117.19C1116.03 117.424 1116.54 117.707 1117.01 118.04C1117.47 118.374 1117.91 118.74 1118.31 119.14L1115.86 121.965C1115.17 121.349 1114.47 120.865 1113.76 120.515C1113.06 120.165 1112.26 119.99 1111.38 119.99C1110.65 119.99 1109.96 120.132 1109.33 120.415C1108.71 120.699 1108.18 121.09 1107.73 121.59C1107.28 122.09 1106.93 122.674 1106.68 123.34C1106.43 123.99 1106.31 124.69 1106.31 125.44V125.49C1106.31 126.24 1106.43 126.949 1106.68 127.615C1106.93 128.282 1107.27 128.865 1107.71 129.365C1108.16 129.865 1108.69 130.265 1109.31 130.565C1109.94 130.849 1110.63 130.99 1111.38 130.99C1112.38 130.99 1113.22 130.807 1113.91 130.44C1114.61 130.074 1115.3 129.574 1115.98 128.94L1118.43 131.415C1117.98 131.899 1117.51 132.332 1117.03 132.715C1116.55 133.099 1116.01 133.432 1115.43 133.715C1114.86 133.982 1114.24 134.182 1113.56 134.315C1112.87 134.465 1112.11 134.54 1111.26 134.54ZM1124.91 134.49C1124.28 134.49 1123.68 134.407 1123.11 134.24C1122.56 134.057 1122.08 133.79 1121.66 133.44C1121.25 133.09 1120.91 132.665 1120.66 132.165C1120.43 131.649 1120.31 131.057 1120.31 130.39V130.34C1120.31 129.607 1120.45 128.974 1120.71 128.44C1120.98 127.907 1121.35 127.465 1121.81 127.115C1122.3 126.765 1122.86 126.507 1123.51 126.34C1124.18 126.157 1124.91 126.065 1125.71 126.065C1126.4 126.065 1126.99 126.115 1127.49 126.215C1128 126.315 1128.5 126.449 1128.99 126.615V126.39C1128.99 125.59 1128.75 124.982 1128.26 124.565C1127.78 124.149 1127.06 123.94 1126.11 123.94C1125.38 123.94 1124.73 124.007 1124.16 124.14C1123.61 124.257 1123.03 124.432 1122.41 124.665L1121.46 121.765C1122.2 121.449 1122.96 121.19 1123.76 120.99C1124.56 120.79 1125.53 120.69 1126.66 120.69C1127.71 120.69 1128.6 120.824 1129.34 121.09C1130.09 121.34 1130.7 121.707 1131.19 122.19C1131.69 122.69 1132.05 123.307 1132.29 124.04C1132.52 124.757 1132.64 125.565 1132.64 126.465V134.24H1128.96V132.79C1128.5 133.307 1127.94 133.724 1127.29 134.04C1126.64 134.34 1125.85 134.49 1124.91 134.49ZM1126.06 131.865C1126.96 131.865 1127.68 131.649 1128.21 131.215C1128.76 130.782 1129.04 130.215 1129.04 129.515V128.84C1128.7 128.69 1128.33 128.574 1127.91 128.49C1127.51 128.39 1127.08 128.34 1126.61 128.34C1125.8 128.34 1125.15 128.499 1124.69 128.815C1124.22 129.132 1123.99 129.59 1123.99 130.19V130.24C1123.99 130.757 1124.18 131.157 1124.56 131.44C1124.95 131.724 1125.45 131.865 1126.06 131.865ZM1140.61 134.49C1139.66 134.49 1138.68 134.332 1137.68 134.015C1136.7 133.682 1135.76 133.165 1134.86 132.465L1136.48 129.965C1137.22 130.499 1137.94 130.899 1138.66 131.165C1139.39 131.432 1140.07 131.565 1140.71 131.565C1141.26 131.565 1141.66 131.474 1141.91 131.29C1142.17 131.107 1142.31 130.865 1142.31 130.565V130.515C1142.31 130.315 1142.23 130.14 1142.08 129.99C1141.93 129.84 1141.72 129.715 1141.46 129.615C1141.21 129.499 1140.92 129.39 1140.58 129.29C1140.25 129.19 1139.9 129.082 1139.53 128.965C1139.07 128.832 1138.59 128.674 1138.11 128.49C1137.64 128.29 1137.22 128.04 1136.83 127.74C1136.45 127.424 1136.13 127.04 1135.88 126.59C1135.65 126.14 1135.53 125.59 1135.53 124.94V124.89C1135.53 124.207 1135.66 123.607 1135.91 123.09C1136.17 122.557 1136.52 122.107 1136.96 121.74C1137.41 121.374 1137.92 121.099 1138.51 120.915C1139.11 120.732 1139.75 120.64 1140.43 120.64C1141.28 120.64 1142.14 120.782 1143.01 121.065C1143.89 121.332 1144.7 121.707 1145.43 122.19L1143.98 124.815C1143.32 124.432 1142.67 124.132 1142.03 123.915C1141.4 123.682 1140.84 123.565 1140.36 123.565C1139.89 123.565 1139.54 123.657 1139.31 123.84C1139.07 124.007 1138.96 124.224 1138.96 124.49V124.54C1138.96 124.724 1139.03 124.89 1139.18 125.04C1139.33 125.174 1139.53 125.307 1139.78 125.44C1140.03 125.557 1140.32 125.674 1140.63 125.79C1140.97 125.907 1141.32 126.024 1141.68 126.14C1142.15 126.29 1142.62 126.474 1143.11 126.69C1143.59 126.89 1144.02 127.14 1144.41 127.44C1144.79 127.74 1145.11 128.107 1145.36 128.54C1145.61 128.974 1145.73 129.499 1145.73 130.115V130.165C1145.73 130.915 1145.6 131.565 1145.33 132.115C1145.08 132.649 1144.72 133.09 1144.26 133.44C1143.79 133.79 1143.24 134.057 1142.61 134.24C1141.99 134.407 1141.32 134.49 1140.61 134.49ZM1152.91 134.49C1151.46 134.49 1150.33 134.049 1149.53 133.165C1148.75 132.282 1148.36 131.065 1148.36 129.515V120.84H1152.16V128.315C1152.16 129.215 1152.36 129.899 1152.76 130.365C1153.16 130.815 1153.72 131.04 1154.46 131.04C1155.19 131.04 1155.76 130.815 1156.18 130.365C1156.61 129.899 1156.83 129.215 1156.83 128.315V120.84H1160.63V134.24H1156.83V132.34C1156.61 132.624 1156.37 132.899 1156.11 133.165C1155.86 133.415 1155.57 133.64 1155.26 133.84C1154.94 134.04 1154.59 134.199 1154.21 134.315C1153.82 134.432 1153.39 134.49 1152.91 134.49ZM1167.83 134.49C1167.2 134.49 1166.6 134.407 1166.03 134.24C1165.48 134.057 1165 133.79 1164.58 133.44C1164.17 133.09 1163.83 132.665 1163.58 132.165C1163.35 131.649 1163.23 131.057 1163.23 130.39V130.34C1163.23 129.607 1163.37 128.974 1163.63 128.44C1163.9 127.907 1164.27 127.465 1164.73 127.115C1165.22 126.765 1165.78 126.507 1166.43 126.34C1167.1 126.157 1167.83 126.065 1168.63 126.065C1169.32 126.065 1169.91 126.115 1170.41 126.215C1170.92 126.315 1171.42 126.449 1171.91 126.615V126.39C1171.91 125.59 1171.67 124.982 1171.18 124.565C1170.7 124.149 1169.98 123.94 1169.03 123.94C1168.3 123.94 1167.65 124.007 1167.08 124.14C1166.53 124.257 1165.95 124.432 1165.33 124.665L1164.38 121.765C1165.12 121.449 1165.88 121.19 1166.68 120.99C1167.48 120.79 1168.45 120.69 1169.58 120.69C1170.63 120.69 1171.52 120.824 1172.26 121.09C1173.01 121.34 1173.62 121.707 1174.11 122.19C1174.61 122.69 1174.97 123.307 1175.21 124.04C1175.44 124.757 1175.56 125.565 1175.56 126.465V134.24H1171.88V132.79C1171.42 133.307 1170.86 133.724 1170.21 134.04C1169.56 134.34 1168.77 134.49 1167.83 134.49ZM1168.98 131.865C1169.88 131.865 1170.6 131.649 1171.13 131.215C1171.68 130.782 1171.96 130.215 1171.96 129.515V128.84C1171.62 128.69 1171.25 128.574 1170.83 128.49C1170.43 128.39 1170 128.34 1169.53 128.34C1168.72 128.34 1168.07 128.499 1167.61 128.815C1167.14 129.132 1166.91 129.59 1166.91 130.19V130.24C1166.91 130.757 1167.1 131.157 1167.48 131.44C1167.87 131.724 1168.37 131.865 1168.98 131.865ZM1179 115.99H1182.8V134.24H1179V115.99Z" fill="white"/>
<defs>
<linearGradient id="paint0_linear_505_4340" x1="296.882" y1="95.2373" x2="297.882" y2="95.2373" gradientUnits="userSpaceOnUse">
<stop stop-color="#FAC47E"/>
<stop offset="1" stop-color="#A67F56"/>
</linearGradient>
<linearGradient id="paint1_linear_505_4340" x1="562.882" y1="95.2373" x2="563.882" y2="95.2373" gradientUnits="userSpaceOnUse">
<stop stop-color="#FAC47E"/>
<stop offset="1" stop-color="#A67F56"/>
</linearGradient>
<linearGradient id="paint2_linear_505_4340" x1="972.882" y1="95.2373" x2="973.882" y2="95.2373" gradientUnits="userSpaceOnUse">
<stop stop-color="#FAC47E"/>
<stop offset="1" stop-color="#A67F56"/>
</linearGradient>
<clipPath id="clip0_505_4340">
<rect width="24" height="24" fill="white" transform="translate(131.882 48.2402)"/>
</clipPath>
<clipPath id="clip1_505_4340">
<rect width="24" height="24" fill="white" transform="translate(417.882 48.2402)"/>
</clipPath>
<clipPath id="clip2_505_4340">
<rect width="24" height="24" fill="white" transform="translate(755.882 35.7402)"/>
</clipPath>
<clipPath id="clip3_505_4340">
<rect width="24" height="24" fill="white" transform="translate(1089.38 50.2402)"/>
</clipPath>
</defs>
</svg>
