<svg width="114" height="1058" viewBox="0 0 114 1058" fill="none" xmlns="http://www.w3.org/2000/svg">
<path d="M111.373 1024.89L29.2231 1024.89L29.2231 1057.28L2.87307 1057.28L2.87307 962.269L29.2231 962.269L29.2231 994.819L111.373 994.819L111.373 1024.89ZM111.373 949.07L2.87307 949.07L2.87306 919L43.4831 919L43.4831 880.405L2.87306 880.405L2.87306 850.335L111.373 850.335L111.373 880.405L70.1431 880.405L70.1431 919L111.373 919L111.373 949.07ZM111.373 831.155L2.87306 831.155L2.87306 743.89L28.2931 743.89L28.2931 801.395L44.8781 801.395L44.8781 749.315L68.5931 749.315L68.5931 801.395L85.7981 801.395L85.7981 743.115L111.373 743.115L111.373 831.155ZM111.373 693.157L2.09805 647.122L2.09805 618.137L111.373 571.947L111.373 604.187L91.8431 611.937L91.8431 653.942L111.373 661.692L111.373 693.157ZM68.4381 645.107L68.4381 620.772L37.7481 632.862L68.4381 645.107ZM113.543 513.047C113.543 546.837 90.2931 571.947 57.4331 571.947L57.1231 571.947C25.5031 571.947 0.703048 547.147 0.703046 513.667C0.703045 494.602 6.43804 481.117 16.358 469.647L37.748 487.317C31.238 495.067 27.5181 502.662 27.5181 513.512C27.5181 529.167 40.5381 541.257 57.1231 541.257L57.4331 541.257C75.1031 541.257 87.6581 529.012 87.6581 511.807C87.6581 504.367 86.1081 498.787 83.1631 494.447L69.988 494.447L69.9881 515.682L47.9781 515.682L47.978 465.927L96.6481 465.927C106.258 477.397 113.543 493.207 113.543 513.047ZM111.373 449.256L2.87304 449.256L2.87304 361.991L28.293 361.991L28.293 419.496L44.878 419.496L44.878 367.416L68.593 367.416L68.593 419.496L85.798 419.496L85.798 361.216L111.373 361.216L111.373 449.256ZM111.373 345.721L2.87304 345.721L2.87304 317.666L60.223 273.026L2.87304 273.026L2.87303 243.266L111.373 243.266L111.373 269.461L51.853 315.961L111.373 315.961L111.373 345.721ZM111.373 224.021L2.87303 224.021L2.87303 182.016C2.87303 143.421 25.193 120.946 56.503 120.946L56.813 120.946C88.123 120.946 111.373 143.731 111.373 182.636L111.373 224.021ZM29.378 181.706L29.378 193.951L84.713 193.951L84.713 181.706C84.713 163.571 74.793 151.636 57.278 151.636L56.968 151.636C39.608 151.636 29.378 163.571 29.378 181.706ZM111.373 121.594L2.09803 75.5592L2.09803 46.5742L111.373 0.384188L111.373 32.6242L91.843 40.3742L91.843 82.3792L111.373 90.1292L111.373 121.594ZM68.438 73.5442L68.438 49.2092L37.748 61.2992L68.438 73.5442Z" fill="#FAC47E"/>
</svg>
