<svg width="240" height="26" viewBox="0 0 240 26" fill="none" xmlns="http://www.w3.org/2000/svg">
<path d="M8.30393 25.1733L8.30393 6.62334L0.988926 6.62334L0.988926 0.673338L22.4439 0.673338V6.62334L15.0939 6.62334L15.0939 25.1733L8.30393 25.1733ZM25.4244 25.1733L25.4244 0.673338L32.2144 0.673338V9.84334L40.9294 9.84334V0.673338L47.7194 0.673338L47.7194 25.1733H40.9294L40.9294 15.8633L32.2144 15.8633L32.2144 25.1733H25.4244ZM52.0504 25.1733L52.0504 0.673338L71.7554 0.673338V6.41334L58.7704 6.41334V10.1583L70.5304 10.1583V15.5133H58.7704L58.7704 19.3983H71.9304V25.1733L52.0504 25.1733ZM83.2113 25.1733L93.6063 0.498338L100.151 0.498338L110.581 25.1733H103.301L101.551 20.7633L92.0663 20.7633L90.3163 25.1733H83.2113ZM94.0613 15.4783L99.5563 15.4783L96.8263 8.54834L94.0613 15.4783ZM123.881 25.6633C116.251 25.6633 110.581 20.4133 110.581 12.9933V12.9233C110.581 5.78334 116.181 0.183338 123.741 0.183338C128.046 0.183338 131.091 1.47834 133.681 3.71834L129.691 8.54834C127.941 7.07834 126.226 6.23834 123.776 6.23834C120.241 6.23834 117.511 9.17834 117.511 12.9233V12.9933C117.511 16.9833 120.276 19.8183 124.161 19.8183C125.841 19.8183 127.101 19.4683 128.081 18.8033V15.8283H123.286V10.8583L134.521 10.8583V21.8483C131.931 24.0183 128.361 25.6633 123.881 25.6633ZM138.286 25.1733V0.673338L157.991 0.673338V6.41334L145.006 6.41334V10.1583L156.766 10.1583V15.5133H145.006V19.3983H158.166V25.1733L138.286 25.1733ZM161.665 25.1733V0.673338L168 0.673338L178.08 13.6233V0.673338L184.8 0.673338V25.1733H178.885L168.385 11.7333V25.1733L161.665 25.1733ZM189.145 25.1733V0.673338L198.63 0.673338C207.345 0.673338 212.42 5.71334 212.42 12.7833V12.8533C212.42 19.9233 207.275 25.1733 198.49 25.1733H189.145ZM198.7 6.65834H195.935V19.1533H198.7C202.795 19.1533 205.49 16.9133 205.49 12.9583V12.8883C205.49 8.96834 202.795 6.65834 198.7 6.65834ZM212.274 25.1733L222.669 0.498338L229.214 0.498338L239.644 25.1733H232.364L230.614 20.7633H221.129L219.379 25.1733H212.274ZM223.124 15.4783H228.619L225.889 8.54834L223.124 15.4783Z" fill="#FAC47E"/>
</svg>
