<svg width="614" height="115" viewBox="0 0 614 115" fill="none" xmlns="http://www.w3.org/2000/svg">
<path d="M0.363525 75.1444V76.5601H48.7151V64.3633H47.5172V70.3528H5.69963C10.2734 66.6502 14.8472 62.8387 19.421 58.9183C23.9948 54.9979 28.2419 50.9686 32.1623 47.0482C36.0827 43.1278 39.3497 39.2074 42.1811 35.3959C44.9036 31.5844 46.646 27.9907 47.5172 24.5059C49.3685 16.6651 48.3884 10.5667 44.468 6.31962C40.5476 2.18142 34.4492 0.00341797 26.1728 0.00341797C24.7571 0.00341797 23.1236 0.221216 21.3812 0.547918C19.6388 0.874614 17.7875 1.31022 15.9362 1.85472C13.976 2.39921 12.1247 2.94371 10.1645 3.59712C8.20433 4.25052 6.46193 4.90391 4.82843 5.44841V22.6546H5.91743C7.00643 18.7342 8.20433 15.3583 9.51113 12.6358C10.8179 10.0222 12.2336 7.84421 13.976 6.21072C15.6095 4.57722 17.4608 3.37931 19.6388 2.72592C21.8168 2.07252 24.3215 1.63692 27.1529 1.63692C29.6576 1.63692 31.8356 2.18142 33.6869 3.16152C35.5382 4.14162 37.0628 5.55732 38.1518 7.29972C39.2408 9.15102 39.8942 11.329 40.2209 13.7248C40.5476 16.2295 40.5476 18.952 40.112 21.8923C39.6764 24.5059 39.023 27.0106 38.2607 29.1886C37.3895 31.4755 36.3005 33.7624 34.8848 36.0493C33.4691 38.3362 31.7267 40.732 29.7665 43.2367C27.6974 45.7414 25.3016 48.4639 22.4702 51.5131C19.6388 54.5623 16.3718 58.0471 12.7781 61.8586C9.07553 65.779 4.93733 70.135 0.363525 75.1444Z" fill="#FAC47E"/>
<path d="M59.5992 38.6629C59.5992 44.7613 60.2526 50.2063 61.7772 54.9979C63.3018 59.7895 65.3709 63.9277 67.9845 67.1947C70.5981 70.4617 73.6473 72.9664 77.241 74.7088C80.8347 76.4512 84.7551 77.3224 89.1111 77.3224C93.3582 77.3224 97.2786 76.4512 100.981 74.7088C104.575 72.9664 107.733 70.4617 110.347 67.1947C112.96 63.9277 114.92 59.7895 116.445 54.9979C117.97 50.2063 118.732 44.7613 118.732 38.6629C118.732 32.5645 117.97 27.1195 116.445 22.3279C114.92 17.5363 112.96 13.507 110.347 10.24C107.733 6.97301 104.575 4.35941 100.981 2.61702C97.2786 0.874614 93.3582 0.00341797 89.1111 0.00341797C84.7551 0.00341797 80.8347 0.874614 77.241 2.61702C73.6473 4.35941 70.5981 6.97301 67.9845 10.24C65.3709 13.507 63.3018 17.5363 61.7772 22.3279C60.2526 27.1195 59.5992 32.5645 59.5992 38.6629ZM89.1111 1.63692C91.7247 1.63692 94.3383 2.39921 96.9519 3.70602C99.5655 5.01282 101.852 7.19082 103.921 10.1311C105.882 13.1803 107.515 16.9918 108.822 21.6745C110.02 26.3572 110.673 32.02 110.673 38.6629C110.673 45.4147 110.02 51.0775 108.822 55.7602C107.515 60.4429 105.882 64.2544 103.921 67.1947C101.852 70.135 99.5655 72.313 96.9519 73.6198C94.3383 75.0355 91.7247 75.6889 89.1111 75.6889C86.3886 75.6889 83.775 75.0355 81.1614 73.6198C78.5478 72.313 76.2609 70.135 74.3007 67.1947C72.3405 64.2544 70.707 60.4429 69.5091 55.7602C68.2023 51.0775 67.6578 45.4147 67.6578 38.6629C67.6578 32.02 68.2023 26.3572 69.5091 21.6745C70.707 16.9918 72.3405 13.1803 74.3007 10.1311C76.2609 7.19082 78.5478 5.01282 81.1614 3.70602C83.775 2.39921 86.3886 1.63692 89.1111 1.63692Z" fill="#FAC47E"/>
<path d="M126.279 75.1444V76.5601H174.631V64.3633H173.433V70.3528H131.615C136.189 66.6502 140.763 62.8387 145.337 58.9183C149.91 54.9979 154.158 50.9686 158.078 47.0482C161.998 43.1278 165.265 39.2074 168.097 35.3959C170.819 31.5844 172.562 27.9907 173.433 24.5059C175.284 16.6651 174.304 10.5667 170.384 6.31962C166.463 2.18142 160.365 0.00341797 152.088 0.00341797C150.673 0.00341797 149.039 0.221216 147.297 0.547918C145.554 0.874614 143.703 1.31022 141.852 1.85472C139.892 2.39921 138.04 2.94371 136.08 3.59712C134.12 4.25052 132.378 4.90391 130.744 5.44841V22.6546H131.833C132.922 18.7342 134.12 15.3583 135.427 12.6358C136.734 10.0222 138.149 7.84421 139.892 6.21072C141.525 4.57722 143.376 3.37931 145.554 2.72592C147.732 2.07252 150.237 1.63692 153.069 1.63692C155.573 1.63692 157.751 2.18142 159.603 3.16152C161.454 4.14162 162.978 5.55732 164.067 7.29972C165.156 9.15102 165.81 11.329 166.137 13.7248C166.463 16.2295 166.463 18.952 166.028 21.8923C165.592 24.5059 164.939 27.0106 164.176 29.1886C163.305 31.4755 162.216 33.7624 160.8 36.0493C159.385 38.3362 157.642 40.732 155.682 43.2367C153.613 45.7414 151.217 48.4639 148.386 51.5131C145.554 54.5623 142.287 58.0471 138.694 61.8586C134.991 65.779 130.853 70.135 126.279 75.1444Z" fill="#FAC47E"/>
<path d="M186.713 54.5623H185.515V72.2041C187.257 72.8575 189.217 73.402 191.286 74.0554C193.356 74.7088 195.425 75.2533 197.494 75.6889C199.454 76.1245 201.414 76.5601 203.265 76.8868C205.117 77.2135 206.75 77.3224 208.275 77.3224C212.195 77.3224 215.789 76.9957 219.056 76.1245C222.323 75.2533 225.045 74.0554 227.441 72.313C229.837 70.5706 231.688 68.3926 232.995 65.779C234.302 63.1654 235.173 60.0073 235.391 56.3047C235.5 53.6911 235.173 51.2953 234.52 48.8995C233.757 46.5037 232.451 44.4346 230.708 42.5833C228.857 40.8409 226.352 39.3163 223.303 38.2273C220.145 37.1383 216.225 36.376 211.651 36.1582V35.7226C218.838 34.9603 224.174 32.8912 227.55 29.6242C230.817 26.3572 232.668 22.219 233.104 17.2096C233.322 14.3782 232.886 11.7646 231.906 9.58662C230.926 7.40862 229.401 5.66622 227.441 4.25052C225.372 2.83482 222.867 1.74582 220.036 1.09242C217.096 0.439014 213.829 0.00341797 210.126 0.00341797C207.077 0.00341797 203.81 0.547918 200.107 1.63692C196.405 2.72592 192.811 3.81491 189.108 5.01282V20.9122H190.306C191.613 16.9918 193.029 13.7248 194.553 11.2201C195.969 8.71541 197.494 6.75522 199.236 5.33952C200.87 3.92382 202.612 2.94371 204.572 2.39921C206.424 1.96361 208.493 1.63692 210.671 1.63692C212.631 1.63692 214.482 1.96361 216.442 2.50812C218.403 3.05262 220.145 3.92381 221.67 5.12172C223.194 6.42851 224.283 8.06202 225.154 10.1311C225.917 12.3091 226.134 14.9227 225.808 17.9719C225.372 21.2389 224.61 23.8525 223.303 25.9216C221.996 28.0996 220.472 29.7331 218.62 31.0399C216.769 32.3467 214.809 33.3268 212.631 33.9802C210.453 34.6336 208.275 34.9603 206.097 35.1781V36.9205C208.928 37.1383 211.76 37.6828 214.373 38.4451C216.987 39.3163 219.383 40.5142 221.343 42.0388C223.303 43.5634 224.719 45.6325 225.808 48.0283C226.897 50.4241 227.223 53.4733 227.006 56.9581C226.679 60.334 225.917 63.1654 224.828 65.5612C223.739 67.957 222.323 69.8083 220.581 71.3329C218.838 72.8575 216.987 74.0554 215.027 74.7088C212.958 75.3622 210.888 75.6889 208.928 75.6889C206.206 75.6889 203.81 75.3622 201.632 74.7088C199.454 74.0554 197.494 72.9664 195.751 71.3329C194.009 69.6994 192.375 67.5214 190.96 64.7989C189.435 62.0764 188.019 58.7005 186.713 54.5623Z" fill="#FAC47E"/>
<path d="M50.7584 107.58H48.9019V93.8662H50.7584V107.58Z" fill="#FAC47E"/>
<path d="M56.0725 107.58V97.8856H57.0869C57.3293 97.8856 57.4825 98.0036 57.5463 98.2397L57.6707 99.235C58.0279 98.7947 58.4267 98.4343 58.8669 98.1536C59.3135 97.8728 59.8303 97.7325 60.4173 97.7325C61.0744 97.7325 61.6039 97.9143 62.0059 98.278C62.4142 98.6416 62.7077 99.1329 62.8863 99.7517C63.0203 99.4008 63.1957 99.0978 63.4127 98.8426C63.636 98.5874 63.8848 98.3769 64.1591 98.211C64.4335 98.0451 64.7238 97.9239 65.03 97.8473C65.3426 97.7708 65.6584 97.7325 65.9774 97.7325C66.4878 97.7325 66.9408 97.8154 67.3364 97.9813C67.7383 98.1408 68.0764 98.3769 68.3508 98.6895C68.6315 99.0021 68.8452 99.3881 68.992 99.8474C69.1387 100.3 69.2121 100.82 69.2121 101.407V107.58H67.5086V101.407C67.5086 100.648 67.3427 100.074 67.011 99.6848C66.6792 99.2892 66.1975 99.0914 65.5659 99.0914C65.2852 99.0914 65.0172 99.1425 64.762 99.2445C64.5132 99.3402 64.2931 99.4838 64.1017 99.6752C63.9103 99.8666 63.7572 100.109 63.6423 100.403C63.5339 100.69 63.4797 101.025 63.4797 101.407V107.58H61.7762V101.407C61.7762 100.629 61.6199 100.048 61.3073 99.6656C60.9946 99.2828 60.5385 99.0914 59.9388 99.0914C59.5177 99.0914 59.1253 99.2063 58.7616 99.4359C58.4044 99.6592 58.0758 99.9655 57.7759 100.355V107.58H56.0725Z" fill="#FAC47E"/>
<path d="M73.7059 110.863V97.8856H74.7204C74.9628 97.8856 75.1159 98.0036 75.1797 98.2397L75.3233 99.3881C75.738 98.8841 76.2101 98.4789 76.7396 98.1727C77.2756 97.8665 77.8912 97.7133 78.5866 97.7133C79.1417 97.7133 79.6457 97.8218 80.0987 98.0387C80.5517 98.2493 80.9377 98.5651 81.2567 98.9861C81.5757 99.4008 81.8213 99.9176 81.9936 100.536C82.1658 101.155 82.252 101.867 82.252 102.671C82.252 103.385 82.1563 104.052 81.9649 104.671C81.7735 105.283 81.4991 105.816 81.1418 106.269C80.7846 106.716 80.3443 107.07 79.8212 107.331C79.3044 107.586 78.7206 107.714 78.0699 107.714C77.4701 107.714 76.9566 107.615 76.5291 107.417C76.108 107.22 75.7348 106.939 75.4094 106.575V110.863H73.7059ZM78.022 99.0914C77.467 99.0914 76.9789 99.219 76.5578 99.4742C76.1431 99.7294 75.7603 100.09 75.4094 100.556V105.245C75.722 105.666 76.0634 105.963 76.4334 106.135C76.8098 106.307 77.2277 106.393 77.6871 106.393C78.5866 106.393 79.2789 106.071 79.7638 105.427C80.2486 104.782 80.4911 103.864 80.4911 102.671C80.4911 102.039 80.4337 101.497 80.3188 101.044C80.2104 100.591 80.0509 100.221 79.8403 99.9336C79.6298 99.6401 79.3714 99.4264 79.0651 99.2924C78.7589 99.1584 78.4112 99.0914 78.022 99.0914Z" fill="#FAC47E"/>
<path d="M93.3007 107.58H92.5446C92.3788 107.58 92.2448 107.554 92.1427 107.503C92.0406 107.452 91.9736 107.344 91.9417 107.178L91.7503 106.278C91.4951 106.508 91.2463 106.716 91.0039 106.901C90.7614 107.079 90.5062 107.232 90.2383 107.36C89.9703 107.481 89.6832 107.574 89.377 107.637C89.0771 107.701 88.7422 107.733 88.3721 107.733C87.9957 107.733 87.6416 107.682 87.3099 107.58C86.9845 107.472 86.7006 107.312 86.4581 107.102C86.2157 106.891 86.0211 106.626 85.8744 106.307C85.734 105.982 85.6638 105.599 85.6638 105.159C85.6638 104.776 85.7691 104.409 85.9796 104.058C86.1902 103.701 86.5283 103.385 86.994 103.111C87.4662 102.836 88.0818 102.613 88.8411 102.441C89.6003 102.262 90.5286 102.16 91.6259 102.135V101.379C91.6259 100.626 91.4632 100.058 91.1379 99.6752C90.8189 99.286 90.3435 99.0914 89.7119 99.0914C89.2972 99.0914 88.9463 99.1456 88.6592 99.2541C88.3785 99.3562 88.1329 99.4742 87.9223 99.6082C87.7182 99.7358 87.5395 99.8538 87.3864 99.9623C87.2397 100.064 87.0929 100.115 86.9462 100.115C86.8314 100.115 86.7293 100.087 86.64 100.029C86.557 99.9655 86.49 99.8889 86.439 99.7996L86.1327 99.2541C86.6687 98.7373 87.2461 98.3513 87.8649 98.0961C88.4838 97.8409 89.1696 97.7133 89.9225 97.7133C90.4648 97.7133 90.9464 97.8027 91.3675 97.9813C91.7886 98.1599 92.1427 98.4088 92.4298 98.7278C92.7169 99.0468 92.9338 99.4327 93.0806 99.8857C93.2273 100.339 93.3007 100.836 93.3007 101.379V107.58ZM88.8793 106.537C89.1792 106.537 89.4535 106.508 89.7024 106.451C89.9512 106.387 90.184 106.301 90.401 106.192C90.6243 106.078 90.8348 105.94 91.0326 105.781C91.2367 105.621 91.4345 105.44 91.6259 105.235V103.216C90.8412 103.242 90.1745 103.305 89.6258 103.407C89.0771 103.503 88.6305 103.631 88.286 103.79C87.9415 103.95 87.6895 104.138 87.53 104.355C87.3768 104.572 87.3003 104.814 87.3003 105.082C87.3003 105.337 87.3418 105.558 87.4247 105.743C87.5076 105.928 87.6193 106.081 87.7596 106.202C87.9 106.317 88.0659 106.403 88.2573 106.46C88.4487 106.511 88.656 106.537 88.8793 106.537Z" fill="#FAC47E"/>
<path d="M104.408 99.6082C104.357 99.6784 104.306 99.7326 104.255 99.7709C104.204 99.8092 104.131 99.8283 104.035 99.8283C103.939 99.8283 103.834 99.79 103.719 99.7135C103.611 99.6305 103.47 99.5412 103.298 99.4455C103.126 99.3498 102.915 99.2637 102.667 99.1871C102.424 99.1042 102.124 99.0627 101.767 99.0627C101.295 99.0627 100.877 99.1488 100.513 99.3211C100.15 99.487 99.8434 99.7294 99.5946 100.048C99.3521 100.367 99.1671 100.753 99.0395 101.206C98.9183 101.659 98.8577 102.167 98.8577 102.728C98.8577 103.315 98.9247 103.838 99.0587 104.297C99.1926 104.75 99.3809 105.133 99.6233 105.446C99.8657 105.752 100.159 105.988 100.504 106.154C100.855 106.314 101.247 106.393 101.681 106.393C102.096 106.393 102.437 106.345 102.705 106.25C102.973 106.148 103.196 106.036 103.375 105.915C103.553 105.794 103.7 105.685 103.815 105.589C103.93 105.487 104.045 105.436 104.159 105.436C104.306 105.436 104.415 105.491 104.485 105.599L104.963 106.221C104.542 106.738 104.016 107.117 103.384 107.36C102.753 107.596 102.086 107.714 101.384 107.714C100.778 107.714 100.213 107.602 99.6903 107.379C99.1735 107.156 98.7237 106.834 98.3409 106.412C97.9581 105.985 97.6551 105.462 97.4318 104.843C97.2149 104.224 97.1064 103.519 97.1064 102.728C97.1064 102.007 97.2053 101.34 97.4031 100.728C97.6072 100.115 97.9007 99.5891 98.2835 99.1488C98.6727 98.7022 99.1512 98.3545 99.719 98.1057C100.287 97.8569 100.938 97.7325 101.671 97.7325C102.348 97.7325 102.947 97.8441 103.47 98.0674C103.994 98.2843 104.456 98.5938 104.858 98.9957L104.408 99.6082Z" fill="#FAC47E"/>
<path d="M111.582 107.733C110.816 107.733 110.226 107.519 109.811 107.092C109.403 106.664 109.199 106.049 109.199 105.245V99.3115H108.031C107.929 99.3115 107.843 99.2828 107.773 99.2254C107.703 99.1616 107.668 99.0659 107.668 98.9383V98.2588L109.256 98.0579L109.649 95.0624C109.662 94.9667 109.703 94.8902 109.773 94.8328C109.843 94.769 109.933 94.7371 110.041 94.7371H110.902V98.077H113.678V99.3115H110.902V105.13C110.902 105.538 111.001 105.841 111.199 106.039C111.397 106.237 111.652 106.336 111.965 106.336C112.143 106.336 112.296 106.314 112.424 106.269C112.558 106.218 112.673 106.164 112.769 106.106C112.864 106.049 112.944 105.998 113.008 105.953C113.078 105.902 113.139 105.877 113.19 105.877C113.279 105.877 113.359 105.931 113.429 106.039L113.927 106.853C113.633 107.127 113.279 107.344 112.864 107.503C112.45 107.657 112.022 107.733 111.582 107.733Z" fill="#FAC47E"/>
<path d="M118.081 107.58V99.3402L117.009 99.2158C116.875 99.1839 116.763 99.1361 116.674 99.0723C116.591 99.0021 116.55 98.9032 116.55 98.7756V98.077H118.081V97.1391C118.081 96.5841 118.157 96.0928 118.311 95.6654C118.47 95.2315 118.693 94.8679 118.98 94.5744C119.274 94.2745 119.625 94.048 120.033 93.8949C120.441 93.7418 120.901 93.6652 121.411 93.6652C121.845 93.6652 122.247 93.729 122.617 93.8566L122.579 94.7084C122.572 94.836 122.518 94.9125 122.416 94.938C122.314 94.9636 122.17 94.9763 121.985 94.9763H121.689C121.395 94.9763 121.127 95.0146 120.885 95.0912C120.649 95.1677 120.445 95.2921 120.272 95.4644C120.1 95.6366 119.966 95.8631 119.87 96.1439C119.781 96.4246 119.736 96.7723 119.736 97.187V98.077H122.54V99.3115H119.794V107.58H118.081Z" fill="#FAC47E"/>
<path d="M127.534 97.8856V104.068C127.534 104.802 127.703 105.369 128.042 105.771C128.38 106.173 128.89 106.374 129.573 106.374C130.07 106.374 130.539 106.256 130.98 106.02C131.42 105.784 131.825 105.455 132.195 105.034V97.8856H133.898V107.58H132.884C132.642 107.58 132.488 107.462 132.425 107.226L132.291 106.183C131.87 106.649 131.397 107.025 130.874 107.312C130.351 107.593 129.751 107.733 129.075 107.733C128.546 107.733 128.077 107.647 127.668 107.475C127.266 107.296 126.928 107.047 126.654 106.728C126.38 106.409 126.172 106.023 126.032 105.57C125.898 105.117 125.831 104.616 125.831 104.068V97.8856H127.534Z" fill="#FAC47E"/>
<path d="M140.505 93.4834V107.58H138.801V93.4834H140.505Z" fill="#FAC47E"/>
<path d="M162.587 107.58H161.152C160.986 107.58 160.852 107.539 160.75 107.456C160.648 107.373 160.571 107.267 160.52 107.14L159.238 103.829H153.084L151.802 107.14C151.757 107.255 151.68 107.357 151.572 107.446C151.463 107.535 151.33 107.58 151.17 107.58H149.735L155.218 93.8662H157.103L162.587 107.58ZM153.601 102.489H158.721L156.567 96.9095C156.427 96.5649 156.29 96.1343 156.156 95.6175C156.086 95.8791 156.016 96.1215 155.945 96.3448C155.882 96.5617 155.818 96.7531 155.754 96.919L153.601 102.489Z" fill="#FAC47E"/>
<path d="M171.51 99.4838C171.433 99.6241 171.315 99.6943 171.156 99.6943C171.06 99.6943 170.952 99.6592 170.83 99.5891C170.709 99.5189 170.559 99.4423 170.381 99.3594C170.208 99.2701 170.001 99.1903 169.759 99.1201C169.516 99.0436 169.229 99.0053 168.897 99.0053C168.61 99.0053 168.352 99.0436 168.122 99.1201C167.892 99.1903 167.695 99.2892 167.529 99.4168C167.369 99.5444 167.245 99.6943 167.155 99.8666C167.073 100.032 167.031 100.214 167.031 100.412C167.031 100.661 167.101 100.868 167.242 101.034C167.388 101.2 167.58 101.344 167.816 101.465C168.052 101.586 168.32 101.694 168.62 101.79C168.92 101.879 169.226 101.978 169.538 102.087C169.857 102.189 170.167 102.304 170.467 102.431C170.767 102.559 171.035 102.718 171.271 102.91C171.507 103.101 171.695 103.337 171.835 103.618C171.982 103.892 172.055 104.224 172.055 104.613C172.055 105.06 171.976 105.475 171.816 105.857C171.657 106.234 171.421 106.562 171.108 106.843C170.795 107.117 170.412 107.334 169.96 107.494C169.507 107.653 168.983 107.733 168.39 107.733C167.714 107.733 167.101 107.625 166.553 107.408C166.004 107.184 165.538 106.901 165.155 106.556L165.557 105.905C165.608 105.822 165.669 105.759 165.739 105.714C165.809 105.669 165.902 105.647 166.017 105.647C166.132 105.647 166.253 105.692 166.38 105.781C166.508 105.87 166.661 105.969 166.84 106.078C167.025 106.186 167.245 106.285 167.5 106.374C167.762 106.464 168.087 106.508 168.476 106.508C168.808 106.508 169.098 106.467 169.347 106.384C169.596 106.294 169.803 106.176 169.969 106.03C170.135 105.883 170.256 105.714 170.333 105.522C170.416 105.331 170.457 105.127 170.457 104.91C170.457 104.642 170.384 104.422 170.237 104.25C170.097 104.071 169.908 103.921 169.672 103.8C169.436 103.672 169.165 103.564 168.859 103.474C168.559 103.379 168.25 103.28 167.931 103.178C167.618 103.076 167.309 102.961 167.002 102.833C166.703 102.699 166.435 102.533 166.199 102.336C165.962 102.138 165.771 101.895 165.624 101.608C165.484 101.315 165.414 100.961 165.414 100.546C165.414 100.176 165.49 99.8219 165.643 99.4838C165.797 99.1393 166.02 98.8394 166.313 98.5842C166.607 98.3226 166.967 98.1153 167.395 97.9622C167.822 97.809 168.31 97.7325 168.859 97.7325C169.497 97.7325 170.068 97.8346 170.572 98.0387C171.082 98.2365 171.523 98.5108 171.893 98.8617L171.51 99.4838Z" fill="#FAC47E"/>
<path d="M178.067 97.8856V107.58H176.364V97.8856H178.067ZM178.45 94.8423C178.45 95.0082 178.415 95.1645 178.345 95.3113C178.281 95.4516 178.191 95.5792 178.077 95.6941C177.968 95.8025 177.841 95.8887 177.694 95.9525C177.547 96.0163 177.391 96.0482 177.225 96.0482C177.059 96.0482 176.903 96.0163 176.756 95.9525C176.616 95.8887 176.488 95.8025 176.373 95.6941C176.265 95.5792 176.179 95.4516 176.115 95.3113C176.051 95.1645 176.019 95.0082 176.019 94.8423C176.019 94.6765 176.051 94.5201 176.115 94.3734C176.179 94.2203 176.265 94.0895 176.373 93.981C176.488 93.8662 176.616 93.7769 176.756 93.7131C176.903 93.6493 177.059 93.6174 177.225 93.6174C177.391 93.6174 177.547 93.6493 177.694 93.7131C177.841 93.7769 177.968 93.8662 178.077 93.981C178.191 94.0895 178.281 94.2203 178.345 94.3734C178.415 94.5201 178.45 94.6765 178.45 94.8423Z" fill="#FAC47E"/>
<path d="M190.103 107.58H189.347C189.182 107.58 189.048 107.554 188.945 107.503C188.843 107.452 188.776 107.344 188.745 107.178L188.553 106.278C188.298 106.508 188.049 106.716 187.807 106.901C187.564 107.079 187.309 107.232 187.041 107.36C186.773 107.481 186.486 107.574 186.18 107.637C185.88 107.701 185.545 107.733 185.175 107.733C184.798 107.733 184.444 107.682 184.113 107.58C183.787 107.472 183.503 107.312 183.261 107.102C183.018 106.891 182.824 106.626 182.677 106.307C182.537 105.982 182.467 105.599 182.467 105.159C182.467 104.776 182.572 104.409 182.782 104.058C182.993 103.701 183.331 103.385 183.797 103.111C184.269 102.836 184.885 102.613 185.644 102.441C186.403 102.262 187.331 102.16 188.429 102.135V101.379C188.429 100.626 188.266 100.058 187.941 99.6752C187.622 99.286 187.146 99.0914 186.515 99.0914C186.1 99.0914 185.749 99.1456 185.462 99.2541C185.181 99.3562 184.936 99.4742 184.725 99.6082C184.521 99.7358 184.342 99.8538 184.189 99.9623C184.042 100.064 183.896 100.115 183.749 100.115C183.634 100.115 183.532 100.087 183.443 100.029C183.36 99.9655 183.293 99.8889 183.242 99.7996L182.936 99.2541C183.471 98.7373 184.049 98.3513 184.668 98.0961C185.287 97.8409 185.972 97.7133 186.725 97.7133C187.268 97.7133 187.749 97.8027 188.17 97.9813C188.591 98.1599 188.945 98.4088 189.233 98.7278C189.52 99.0468 189.737 99.4327 189.883 99.8857C190.03 100.339 190.103 100.836 190.103 101.379V107.58ZM185.682 106.537C185.982 106.537 186.256 106.508 186.505 106.451C186.754 106.387 186.987 106.301 187.204 106.192C187.427 106.078 187.638 105.94 187.835 105.781C188.04 105.621 188.237 105.44 188.429 105.235V103.216C187.644 103.242 186.977 103.305 186.429 103.407C185.88 103.503 185.433 103.631 185.089 103.79C184.744 103.95 184.492 104.138 184.333 104.355C184.18 104.572 184.103 104.814 184.103 105.082C184.103 105.337 184.145 105.558 184.227 105.743C184.31 105.928 184.422 106.081 184.562 106.202C184.703 106.317 184.869 106.403 185.06 106.46C185.251 106.511 185.459 106.537 185.682 106.537Z" fill="#FAC47E"/>
<g clip-path="url(#clip0_6424_3089)">
<path d="M389.975 20.1572L388.981 17.1675H382.358L381.365 20.1572H377.841L383.636 3.54785H387.69L393.509 20.1572H389.975ZM383.432 14.1066H387.974L385.703 7.31579L383.432 14.1066Z" fill="#A67F56"/>
<path d="M399.814 16.3843L402.606 14.7471C403.244 16.4318 404.498 17.286 406.39 17.286C408.282 17.286 409.039 16.5504 409.039 15.5301C409.048 15.2541 408.979 14.9811 408.841 14.7421C408.703 14.5031 408.501 14.3076 408.259 14.1776C407.379 13.7009 406.44 13.3419 405.467 13.1099C404.242 12.8032 403.081 12.281 402.038 11.5676C401.519 11.1683 401.106 10.6478 400.834 10.0514C400.561 9.45503 400.439 8.80089 400.477 8.14609C400.448 7.46673 400.575 6.78981 400.85 6.16826C401.125 5.54671 401.54 4.99738 402.061 4.56323C403.141 3.65873 404.511 3.17812 405.917 3.21074C407.158 3.18146 408.381 3.51902 409.432 4.18139C410.483 4.84377 411.317 5.80171 411.83 6.93599L409.086 8.53048C408.424 7.10682 407.36 6.39024 405.917 6.39024C404.569 6.39024 403.741 7.07835 403.741 8.05592C403.737 8.30525 403.793 8.55187 403.904 8.77491C404.015 8.99794 404.178 9.19084 404.379 9.33722C405.165 9.79672 406.008 10.1479 406.887 10.3812L408.022 10.7609C408.384 10.8742 408.74 11.0089 409.086 11.1642C409.451 11.2801 409.8 11.4394 410.127 11.6388C410.75 12.0063 411.284 12.5089 411.688 13.1099C412.108 13.8287 412.32 14.65 412.303 15.4826C412.329 16.1812 412.19 16.8761 411.899 17.5109C411.607 18.1457 411.17 18.7027 410.624 19.1367C409.383 20.0807 407.851 20.5591 406.295 20.4892C403.031 20.4892 400.737 18.9232 399.814 16.3843Z" fill="#A67F56"/>
<path d="M420.25 3.54297H423.515V20.1523H420.25V3.54297Z" fill="#A67F56"/>
<path d="M443.147 20.1572L442.153 17.1675H435.53L434.537 20.1572H431.013L436.808 3.54785H440.852L446.671 20.1572H443.147ZM436.595 14.1066H441.136L438.866 7.31579L436.595 14.1066Z" fill="#A67F56"/>
<path d="M389.975 48.6298L388.981 45.6401H382.358L381.365 48.6298H377.841L383.636 32.0205H387.69L393.509 48.6298H389.975ZM383.432 42.5793H387.974L385.703 35.7885L383.432 42.5793Z" fill="#A67F56"/>
<path d="M410.127 48.6301L406.816 42.8643H404.332V48.6301H401.068V32.0208H407.691C408.417 32.0082 409.138 32.1449 409.809 32.4224C410.48 32.6999 411.087 33.1123 411.594 33.6343C412.112 34.1396 412.522 34.7458 412.799 35.4158C413.075 36.0857 413.213 36.8053 413.202 37.5304C413.185 38.5585 412.875 39.5604 412.31 40.418C411.744 41.2755 410.946 41.9531 410.009 42.3708L413.675 48.6349L410.127 48.6301ZM404.309 35.0769V39.9933H407.667C408.291 39.9625 408.876 39.6859 409.297 39.2237C409.718 38.7615 409.94 38.1511 409.914 37.5256C409.935 36.9033 409.711 36.2979 409.291 35.8398C408.87 35.3817 408.287 35.1077 407.667 35.0769H404.309Z" fill="#A67F56"/>
<path d="M422.971 46.4708C422.171 45.6655 421.542 44.7055 421.123 43.649C420.705 42.5926 420.504 41.4618 420.534 40.3254C420.499 39.1847 420.697 38.0489 421.116 36.988C421.535 35.927 422.166 34.9633 422.971 34.1562C423.773 33.3365 424.736 32.692 425.798 32.2633C426.86 31.8345 427.999 31.6308 429.144 31.6648C430.563 31.648 431.962 31.9997 433.206 32.6857C434.449 33.3717 435.494 34.3687 436.24 35.5798L433.402 37.217C432.966 36.4669 432.336 35.8498 431.577 35.4319C430.819 35.0139 429.961 34.8108 429.097 34.8443C428.377 34.8125 427.658 34.9311 426.987 35.1925C426.315 35.4539 425.704 35.8525 425.194 36.3628C424.703 36.8911 424.321 37.5114 424.069 38.188C423.818 38.8647 423.701 39.5846 423.728 40.3064C423.703 41.0237 423.82 41.7387 424.072 42.4106C424.323 43.0824 424.705 43.6978 425.194 44.2214C425.704 44.7318 426.315 45.1303 426.987 45.3917C427.658 45.6531 428.377 45.7717 429.097 45.74C429.959 45.7743 430.814 45.5741 431.572 45.1606C432.33 44.7471 432.962 44.1356 433.402 43.391L436.24 45.0282C435.497 46.2415 434.452 47.2403 433.208 47.9266C431.964 48.6129 430.564 48.9633 429.144 48.9432C428.001 48.9797 426.862 48.7789 425.8 48.3535C424.738 47.928 423.775 47.2871 422.971 46.4708Z" fill="#A67F56"/>
<path d="M453.601 32.0161H456.842V48.6254H453.601V41.7444H447.451V48.6254H444.187V32.0161H447.451V38.6314H453.601V32.0161Z" fill="#A67F56"/>
<path d="M465.83 32.0161H469.094V48.6254H465.83V32.0161Z" fill="#A67F56"/>
<path d="M489.033 32.0161V35.1529H484.563V48.6302H481.299V35.1529H476.852V32.0161H489.033Z" fill="#A67F56"/>
<path d="M500.032 45.4978H507.009V48.6298H496.768V32.0205H506.901V35.1573H500.041V38.6927H506.309V41.7773H500.041L500.032 45.4978Z" fill="#A67F56"/>
<path d="M516.778 46.4711C515.978 45.6658 515.35 44.7058 514.931 43.6494C514.512 42.5929 514.312 41.4622 514.342 40.3257C514.307 39.185 514.505 38.0492 514.924 36.9883C515.343 35.9273 515.974 34.9636 516.778 34.1565C517.578 33.3398 518.536 32.6971 519.594 32.2684C520.652 31.8398 521.787 31.6344 522.928 31.6651C524.347 31.6483 525.746 32 526.989 32.6861C528.233 33.3721 529.278 34.3691 530.024 35.5802L527.185 37.2174C526.75 36.4673 526.119 35.8502 525.361 35.4322C524.603 35.0142 523.745 34.8111 522.881 34.8446C522.161 34.8129 521.442 34.9314 520.77 35.1929C520.098 35.4543 519.488 35.8528 518.978 36.3632C518.487 36.8914 518.105 37.5117 517.853 38.1884C517.601 38.8651 517.485 39.5849 517.511 40.3067C517.487 41.024 517.604 41.739 517.856 42.4109C518.107 43.0827 518.489 43.6981 518.978 44.2217C519.488 44.7321 520.098 45.1307 520.77 45.3921C521.442 45.6535 522.161 45.7721 522.881 45.7403C523.743 45.7747 524.598 45.5745 525.356 45.1609C526.114 44.7474 526.746 44.1359 527.185 43.3913L530.024 45.0285C529.28 46.2418 528.236 47.2406 526.992 47.9269C525.748 48.6133 524.347 48.9636 522.928 48.9435C521.789 48.9767 520.655 48.7743 519.597 48.349C518.539 47.9236 517.579 47.2844 516.778 46.4711Z" fill="#A67F56"/>
<path d="M548.875 32.0161V35.1529H544.405V48.6302H541.141V35.1529H536.703V32.0161H548.875Z" fill="#A67F56"/>
<path d="M558.242 47.3963C557.654 46.8723 557.19 46.2235 556.883 45.497C556.576 44.7706 556.434 43.9848 556.468 43.1966V32.0161H559.708V42.9308C559.708 44.6629 560.654 45.7544 562.783 45.7544C564.912 45.7544 565.858 44.6629 565.858 42.9308V32.0161H569.122V43.1966C569.156 43.9848 569.014 44.7706 568.707 45.497C568.4 46.2235 567.936 46.8723 567.348 47.3963C566.077 48.4756 564.447 49.0347 562.783 48.9624C561.127 49.0287 559.507 48.4699 558.242 47.3963Z" fill="#A67F56"/>
<path d="M587.051 48.6301L583.74 42.8643H581.256V48.6301H577.992V32.0208H584.615C585.341 32.0082 586.061 32.1449 586.733 32.4224C587.404 32.6999 588.011 33.1123 588.517 33.6343C589.036 34.1396 589.446 34.7458 589.723 35.4158C589.999 36.0857 590.136 36.8053 590.126 37.5304C590.109 38.5585 589.799 39.5604 589.233 40.418C588.668 41.2755 587.869 41.9531 586.933 42.3708L590.599 48.6349L587.051 48.6301ZM581.232 35.0769V39.9933H584.591C585.214 39.9625 585.8 39.6859 586.221 39.2237C586.642 38.7615 586.864 38.1511 586.838 37.5256C586.859 36.9033 586.635 36.2979 586.214 35.8398C585.794 35.3817 585.211 35.1077 584.591 35.0769H581.232Z" fill="#A67F56"/>
<path d="M601.668 45.4978H608.646V48.6298H598.404V32.0205H608.528V35.1573H601.668V38.6927H607.936V41.7773H601.668V45.4978Z" fill="#A67F56"/>
<path d="M385.907 60.4892C386.968 60.4651 388.022 60.6662 389 61.0792C389.978 61.4922 390.859 62.1078 391.583 62.8857C392.34 63.6674 392.933 64.5935 393.327 65.6091C393.721 66.6247 393.909 67.7093 393.878 68.7986C393.908 69.8873 393.721 70.9711 393.327 71.9859C392.933 73.0008 392.34 73.926 391.583 74.7068C390.859 75.4848 389.978 76.1004 389 76.5134C388.022 76.9264 386.968 77.1274 385.907 77.1033H379.331V60.494L385.907 60.4892ZM385.907 73.9713C386.557 73.9962 387.206 73.8821 387.809 73.6367C388.413 73.3912 388.957 73.02 389.407 72.5476C390.328 71.523 390.812 70.1771 390.755 68.7986C390.817 67.4252 390.332 66.0836 389.407 65.0687C388.96 64.5935 388.415 64.2205 387.811 63.9748C387.207 63.7292 386.558 63.6167 385.907 63.645H382.595V73.9902L385.907 73.9713Z" fill="#A67F56"/>
<path d="M405.373 73.9709H412.35V77.103H402.109V60.4937H412.232V63.6304H405.373V67.1659H411.641V70.2504H405.373V73.9709Z" fill="#A67F56"/>
<path d="M419.707 73.3306L422.498 71.6934C423.136 73.3781 424.413 74.2322 426.306 74.2322C428.127 74.2322 428.955 73.4967 428.955 72.4764C428.963 72.2004 428.895 71.9274 428.757 71.6884C428.619 71.4494 428.417 71.2539 428.174 71.1239C427.294 70.6472 426.356 70.2882 425.383 70.0562C424.157 69.75 422.996 69.2261 421.954 68.5091C421.435 68.1112 421.021 67.5916 420.749 66.9959C420.476 66.4001 420.354 65.7466 420.392 65.0924C420.363 64.413 420.491 63.7359 420.766 63.1143C421.04 62.4927 421.455 61.9434 421.977 61.5095C423.057 60.605 424.427 60.1244 425.833 60.157C427.074 60.1277 428.296 60.4653 429.348 61.1277C430.399 61.7901 431.233 62.748 431.746 63.8823L429.002 65.472C428.34 64.0484 427.275 63.3365 425.833 63.3365C424.484 63.3365 423.657 64.0246 423.657 64.9975C423.652 65.2469 423.707 65.4938 423.819 65.717C423.93 65.9402 424.093 66.1329 424.295 66.2788C425.078 66.7423 425.922 67.0937 426.802 67.3228L427.938 67.7072C428.301 67.8184 428.656 67.9531 429.002 68.1105C429.369 68.2318 429.718 68.3993 430.043 68.6088C430.666 68.9763 431.199 69.4789 431.604 70.0799C432.023 70.7988 432.236 71.62 432.219 72.4527C432.245 73.1512 432.106 73.8461 431.814 74.4809C431.523 75.1157 431.086 75.6727 430.54 76.1067C429.298 77.0507 427.767 77.5292 426.211 77.4592C422.923 77.4355 420.629 75.8694 419.707 73.3306Z" fill="#A67F56"/>
<path d="M440.143 60.4893H443.407V77.0986H440.143V60.4893Z" fill="#A67F56"/>
<path d="M468.644 68.1815V69.4628C468.687 70.5294 468.507 71.5933 468.116 72.5861C467.725 73.579 467.131 74.479 466.374 75.2286C465.591 75.9692 464.669 76.5458 463.662 76.9247C462.655 77.3036 461.583 77.4772 460.508 77.4352C459.334 77.4718 458.166 77.2699 457.073 76.8417C455.979 76.4136 454.983 75.768 454.145 74.9438C453.332 74.1495 452.69 73.1965 452.259 72.1436C451.828 71.0906 451.617 69.9602 451.638 68.8221C451.612 67.6785 451.819 66.5416 452.246 65.481C452.673 64.4203 453.311 63.458 454.121 62.6529C454.928 61.8306 455.894 61.1831 456.96 60.7505C458.026 60.3178 459.169 60.1093 460.318 60.1378C461.751 60.1061 463.167 60.4454 464.431 61.1229C465.695 61.8003 466.763 62.7931 467.533 64.0054L464.742 65.6236C463.961 64.2664 462.258 63.3173 460.295 63.3173C459.571 63.2923 458.85 63.4192 458.178 63.6896C457.506 63.9601 456.898 64.3683 456.392 64.8881C455.887 65.4023 455.491 66.015 455.231 66.6884C454.971 67.3617 454.851 68.0814 454.878 68.8031C454.857 69.5226 454.983 70.2387 455.247 70.9078C455.511 71.5769 455.909 72.1848 456.416 72.6945C456.966 73.2109 457.613 73.6114 458.32 73.8723C459.027 74.1331 459.779 74.249 460.531 74.213C463.062 74.213 464.789 73.0266 465.357 71.0573H460.342V68.1625L468.644 68.1815Z" fill="#A67F56"/>
<path d="M486.455 60.4893H489.719V77.0986H487.236L480.14 66.9432V77.0986H476.876V60.4893H479.359L486.455 70.6257V60.4893Z" fill="#A67F56"/>
<path d="M389.975 105.576L388.981 102.586H382.358L381.365 105.576H377.841L383.636 88.9668H387.69L393.509 105.576H389.975ZM383.432 99.5256H387.974L385.703 92.7347L383.432 99.5256Z" fill="#A67F56"/>
<path d="M402.828 105.576L398.192 88.9668H401.622L404.791 101.305L408.244 88.9668H411.035L414.512 101.305L417.682 88.9668H421.112L416.476 105.576H412.762L409.64 94.6092L406.541 105.576H402.828Z" fill="#A67F56"/>
<path d="M437.801 105.576L436.808 102.586H430.208L429.215 105.576H425.691L431.486 88.9668H435.53L441.349 105.576H437.801ZM431.249 99.5256H435.791L433.52 92.7347L431.249 99.5256Z" fill="#A67F56"/>
<path d="M457.953 105.576L454.642 99.8106H452.158V105.576H448.894V88.9671H455.517C456.243 88.9545 456.963 89.0912 457.635 89.3687C458.306 89.6462 458.913 90.0586 459.42 90.5806C459.938 91.0859 460.348 91.6921 460.625 92.3621C460.901 93.032 461.038 93.7516 461.028 94.4766C461.011 95.5048 460.701 96.5067 460.136 97.3643C459.57 98.2218 458.772 98.8994 457.835 99.3171L461.501 105.581L457.953 105.576ZM452.134 92.0232V96.9396H455.493C456.116 96.9088 456.702 96.6322 457.123 96.17C457.544 95.7077 457.766 95.0974 457.74 94.4719C457.761 93.8496 457.537 93.2441 457.116 92.7861C456.696 92.328 456.113 92.054 455.493 92.0232H452.134Z" fill="#A67F56"/>
<path d="M475.882 88.9624C476.943 88.9383 477.997 89.1393 478.976 89.5523C479.954 89.9653 480.834 90.5809 481.559 91.3589C482.316 92.1406 482.909 93.0666 483.303 94.0822C483.697 95.0978 483.884 96.1824 483.853 97.2718C483.884 98.3605 483.697 99.4443 483.303 100.459C482.909 101.474 482.316 102.399 481.559 103.18C480.834 103.958 479.954 104.574 478.976 104.987C477.997 105.4 476.943 105.601 475.882 105.576H469.307V88.9671L475.882 88.9624ZM475.882 102.444C476.533 102.469 477.181 102.355 477.785 102.11C478.388 101.864 478.933 101.493 479.383 101.021C480.304 99.9962 480.788 98.6503 480.731 97.2718C480.792 95.8984 480.307 94.5568 479.383 93.5418C478.935 93.0667 478.391 92.6936 477.787 92.448C477.183 92.2024 476.533 92.0899 475.882 92.1182H472.571V102.463L475.882 102.444Z" fill="#A67F56"/>
<path d="M490.642 101.803L493.433 100.166C494.071 101.851 495.325 102.705 497.217 102.705C499.109 102.705 499.866 101.969 499.866 100.949C499.875 100.673 499.806 100.4 499.668 100.161C499.53 99.9221 499.329 99.7266 499.086 99.5966C498.206 99.1199 497.267 98.7609 496.295 98.5288C495.068 98.2227 493.907 97.6987 492.865 96.9818C492.346 96.5838 491.932 96.0642 491.66 95.4685C491.388 94.8728 491.266 94.2192 491.304 93.565C491.274 92.8856 491.402 92.2086 491.677 91.587C491.952 90.9654 492.367 90.4161 492.889 89.9822C493.968 89.0777 495.338 88.5971 496.744 88.6297C497.985 88.6004 499.208 88.938 500.259 89.6003C501.31 90.2627 502.144 91.2206 502.657 92.3549L499.914 93.9447C499.251 92.521 498.187 91.8092 496.744 91.8092C495.396 91.8092 494.568 92.4973 494.568 93.4701C494.563 93.7196 494.619 93.9665 494.73 94.1897C494.841 94.4128 495.005 94.6056 495.207 94.7514C495.99 95.2149 496.834 95.5663 497.714 95.7954L498.849 96.1798C499.212 96.291 499.568 96.4258 499.914 96.5832C500.28 96.7045 500.63 96.8719 500.954 97.0815C501.577 97.449 502.111 97.9516 502.515 98.5526C502.935 99.2714 503.148 100.093 503.13 100.925C503.156 101.624 503.017 102.319 502.726 102.954C502.434 103.588 501.997 104.145 501.451 104.579C500.21 105.523 498.678 106.002 497.122 105.932C493.858 105.908 491.564 104.342 490.642 101.803Z" fill="#A67F56"/>
</g>
<path d="M324.034 3.28125L319.149 15.8664L351.978 96.3732L352.1 96.7127C353.084 99.4307 354.839 101.772 357.13 103.424C359.42 105.077 362.139 105.963 364.924 105.964L324.034 3.28125Z" fill="url(#paint0_linear_6424_3089)"/>
<path d="M317.212 20.4062L312.502 33.4272L337.169 96.3734L337.29 96.7129C338.275 99.4313 340.029 101.773 342.32 103.425C344.61 105.078 347.329 105.964 350.114 105.964L317.212 20.4062Z" stroke="url(#paint1_linear_6424_3089)" stroke-width="0.33" stroke-miterlimit="10"/>
<path d="M310.555 38.0068L305.699 50.5616L322.378 96.3831L322.5 96.7226C323.483 99.4414 325.238 101.783 327.528 103.436C329.819 105.089 332.538 105.974 335.324 105.974L310.555 38.0068ZM296.794 79.2482L303.427 60.9379C303.91 59.6058 303.91 58.1356 303.427 56.8036L285.66 105.974C286.073 105.971 286.476 105.839 286.816 105.594C287.156 105.343 287.416 104.99 287.558 104.581L296.299 80.5047H312.089C311.953 80.1284 311.71 79.8045 311.392 79.5764C311.074 79.3482 310.698 79.2267 310.312 79.2279L296.794 79.2482Z" fill="url(#paint2_linear_6424_3089)"/>
<defs>
<linearGradient id="paint0_linear_6424_3089" x1="319.149" y1="54.6202" x2="364.924" y2="54.6202" gradientUnits="userSpaceOnUse">
<stop stop-color="#FAC47E"/>
<stop offset="1" stop-color="#A67F56"/>
</linearGradient>
<linearGradient id="paint1_linear_6424_3089" x1="312.376" y1="63.0713" x2="350.294" y2="63.0713" gradientUnits="userSpaceOnUse">
<stop stop-color="#FAC47E"/>
<stop offset="1" stop-color="#A67F56"/>
</linearGradient>
<linearGradient id="paint2_linear_6424_3089" x1="285.655" y1="71.9778" x2="335.304" y2="71.9778" gradientUnits="userSpaceOnUse">
<stop stop-color="#FAC47E"/>
<stop offset="1" stop-color="#A67F56"/>
</linearGradient>
<clipPath id="clip0_6424_3089">
<rect width="230.781" height="102.693" fill="white" transform="translate(377.865 3.21094)"/>
</clipPath>
</defs>
</svg>
