<svg width="614" height="115" viewBox="0 0 614 115" fill="none" xmlns="http://www.w3.org/2000/svg">
<path d="M0.263916 75.1444V76.5601H48.6155V64.3633H47.4176V70.3528H5.60002C10.1738 66.6502 14.7476 62.8387 19.3214 58.9183C23.8952 54.9979 28.1423 50.9686 32.0627 47.0482C35.9831 43.1278 39.2501 39.2074 42.0815 35.3959C44.804 31.5844 46.5464 27.9907 47.4176 24.5059C49.2689 16.6651 48.2888 10.5667 44.3684 6.31962C40.448 2.18142 34.3496 0.00341797 26.0732 0.00341797C24.6575 0.00341797 23.024 0.221216 21.2816 0.547918C19.5392 0.874614 17.6879 1.31022 15.8366 1.85472C13.8764 2.39921 12.0251 2.94371 10.0649 3.59712C8.10472 4.25052 6.36232 4.90391 4.72882 5.44841V22.6546H5.81782C6.90682 18.7342 8.10472 15.3583 9.41152 12.6358C10.7183 10.0222 12.134 7.84421 13.8764 6.21072C15.5099 4.57722 17.3612 3.37931 19.5392 2.72592C21.7172 2.07252 24.2219 1.63692 27.0533 1.63692C29.558 1.63692 31.736 2.18142 33.5873 3.16152C35.4386 4.14162 36.9632 5.55732 38.0522 7.29972C39.1412 9.15102 39.7946 11.329 40.1213 13.7248C40.448 16.2295 40.448 18.952 40.0124 21.8923C39.5768 24.5059 38.9234 27.0106 38.1611 29.1886C37.2899 31.4755 36.2009 33.7624 34.7852 36.0493C33.3695 38.3362 31.6271 40.732 29.6669 43.2367C27.5978 45.7414 25.202 48.4639 22.3706 51.5131C19.5392 54.5623 16.2722 58.0471 12.6785 61.8586C8.97592 65.779 4.83772 70.135 0.263916 75.1444Z" fill="#A67F56"/>
<path d="M59.4996 38.6629C59.4996 44.7613 60.153 50.2063 61.6776 54.9979C63.2022 59.7895 65.2713 63.9277 67.8849 67.1947C70.4985 70.4617 73.5477 72.9664 77.1414 74.7088C80.7351 76.4512 84.6555 77.3224 89.0115 77.3224C93.2586 77.3224 97.179 76.4512 100.882 74.7088C104.475 72.9664 107.633 70.4617 110.247 67.1947C112.861 63.9277 114.821 59.7895 116.345 54.9979C117.87 50.2063 118.632 44.7613 118.632 38.6629C118.632 32.5645 117.87 27.1195 116.345 22.3279C114.821 17.5363 112.861 13.507 110.247 10.24C107.633 6.97301 104.475 4.35941 100.882 2.61702C97.179 0.874614 93.2586 0.00341797 89.0115 0.00341797C84.6555 0.00341797 80.7351 0.874614 77.1414 2.61702C73.5477 4.35941 70.4985 6.97301 67.8849 10.24C65.2713 13.507 63.2022 17.5363 61.6776 22.3279C60.153 27.1195 59.4996 32.5645 59.4996 38.6629ZM89.0115 1.63692C91.6251 1.63692 94.2387 2.39921 96.8523 3.70602C99.4659 5.01282 101.753 7.19082 103.822 10.1311C105.782 13.1803 107.416 16.9918 108.722 21.6745C109.92 26.3572 110.574 32.02 110.574 38.6629C110.574 45.4147 109.92 51.0775 108.722 55.7602C107.416 60.4429 105.782 64.2544 103.822 67.1947C101.753 70.135 99.4659 72.313 96.8523 73.6198C94.2387 75.0355 91.6251 75.6889 89.0115 75.6889C86.289 75.6889 83.6754 75.0355 81.0618 73.6198C78.4482 72.313 76.1613 70.135 74.2011 67.1947C72.2409 64.2544 70.6074 60.4429 69.4095 55.7602C68.1027 51.0775 67.5582 45.4147 67.5582 38.6629C67.5582 32.02 68.1027 26.3572 69.4095 21.6745C70.6074 16.9918 72.2409 13.1803 74.2011 10.1311C76.1613 7.19082 78.4482 5.01282 81.0618 3.70602C83.6754 2.39921 86.289 1.63692 89.0115 1.63692Z" fill="#A67F56"/>
<path d="M126.18 75.1444V76.5601H174.531V64.3633H173.333V70.3528H131.516C136.089 66.6502 140.663 62.8387 145.237 58.9183C149.811 54.9979 154.058 50.9686 157.978 47.0482C161.899 43.1278 165.166 39.2074 167.997 35.3959C170.72 31.5844 172.462 27.9907 173.333 24.5059C175.185 16.6651 174.204 10.5667 170.284 6.31962C166.364 2.18142 160.265 0.00341797 151.989 0.00341797C150.573 0.00341797 148.94 0.221216 147.197 0.547918C145.455 0.874614 143.604 1.31022 141.752 1.85472C139.792 2.39921 137.941 2.94371 135.981 3.59712C134.02 4.25052 132.278 4.90391 130.644 5.44841V22.6546H131.733C132.822 18.7342 134.02 15.3583 135.327 12.6358C136.634 10.0222 138.05 7.84421 139.792 6.21072C141.426 4.57722 143.277 3.37931 145.455 2.72592C147.633 2.07252 150.138 1.63692 152.969 1.63692C155.474 1.63692 157.652 2.18142 159.503 3.16152C161.354 4.14162 162.879 5.55732 163.968 7.29972C165.057 9.15102 165.71 11.329 166.037 13.7248C166.364 16.2295 166.364 18.952 165.928 21.8923C165.492 24.5059 164.839 27.0106 164.077 29.1886C163.206 31.4755 162.117 33.7624 160.701 36.0493C159.285 38.3362 157.543 40.732 155.583 43.2367C153.513 45.7414 151.118 48.4639 148.286 51.5131C145.455 54.5623 142.188 58.0471 138.594 61.8586C134.892 65.779 130.753 70.135 126.18 75.1444Z" fill="#A67F56"/>
<path d="M186.613 54.5623H185.415V72.2041C187.158 72.8575 189.118 73.402 191.187 74.0554C193.256 74.7088 195.325 75.2533 197.394 75.6889C199.354 76.1245 201.315 76.5601 203.166 76.8868C205.017 77.2135 206.651 77.3224 208.175 77.3224C212.096 77.3224 215.689 76.9957 218.956 76.1245C222.223 75.2533 224.946 74.0554 227.342 72.313C229.737 70.5706 231.589 68.3926 232.896 65.779C234.202 63.1654 235.074 60.0073 235.291 56.3047C235.4 53.6911 235.074 51.2953 234.42 48.8995C233.658 46.5037 232.351 44.4346 230.609 42.5833C228.757 40.8409 226.253 39.3163 223.203 38.2273C220.045 37.1383 216.125 36.376 211.551 36.1582V35.7226C218.739 34.9603 224.075 32.8912 227.451 29.6242C230.718 26.3572 232.569 22.219 233.004 17.2096C233.222 14.3782 232.787 11.7646 231.807 9.58662C230.826 7.40862 229.302 5.66622 227.342 4.25052C225.273 2.83482 222.768 1.74582 219.936 1.09242C216.996 0.439014 213.729 0.00341797 210.027 0.00341797C206.977 0.00341797 203.71 0.547918 200.008 1.63692C196.305 2.72592 192.711 3.81491 189.009 5.01282V20.9122H190.207C191.514 16.9918 192.929 13.7248 194.454 11.2201C195.87 8.71541 197.394 6.75522 199.137 5.33952C200.77 3.92382 202.512 2.94371 204.473 2.39921C206.324 1.96361 208.393 1.63692 210.571 1.63692C212.531 1.63692 214.383 1.96361 216.343 2.50812C218.303 3.05262 220.045 3.92381 221.57 5.12172C223.095 6.42851 224.184 8.06202 225.055 10.1311C225.817 12.3091 226.035 14.9227 225.708 17.9719C225.273 21.2389 224.51 23.8525 223.203 25.9216C221.897 28.0996 220.372 29.7331 218.521 31.0399C216.669 32.3467 214.709 33.3268 212.531 33.9802C210.353 34.6336 208.175 34.9603 205.997 35.1781V36.9205C208.829 37.1383 211.66 37.6828 214.274 38.4451C216.887 39.3163 219.283 40.5142 221.243 42.0388C223.203 43.5634 224.619 45.6325 225.708 48.0283C226.797 50.4241 227.124 53.4733 226.906 56.9581C226.579 60.334 225.817 63.1654 224.728 65.5612C223.639 67.957 222.223 69.8083 220.481 71.3329C218.739 72.8575 216.887 74.0554 214.927 74.7088C212.858 75.3622 210.789 75.6889 208.829 75.6889C206.106 75.6889 203.71 75.3622 201.532 74.7088C199.354 74.0554 197.394 72.9664 195.652 71.3329C193.909 69.6994 192.276 67.5214 190.86 64.7989C189.336 62.0764 187.92 58.7005 186.613 54.5623Z" fill="#A67F56"/>
<path d="M50.6589 107.58H48.8023V93.8662H50.6589V107.58Z" fill="#A67F56"/>
<path d="M55.9729 107.58V97.8856H56.9873C57.2298 97.8856 57.3829 98.0036 57.4467 98.2397L57.5711 99.235C57.9284 98.7947 58.3271 98.4343 58.7674 98.1536C59.214 97.8728 59.7307 97.7325 60.3177 97.7325C60.9748 97.7325 61.5044 97.9143 61.9063 98.278C62.3146 98.6416 62.6081 99.1329 62.7868 99.7517C62.9207 99.4008 63.0962 99.0978 63.3131 98.8426C63.5364 98.5874 63.7852 98.3769 64.0596 98.211C64.3339 98.0451 64.6242 97.9239 64.9304 97.8473C65.2431 97.7708 65.5589 97.7325 65.8779 97.7325C66.3883 97.7325 66.8412 97.8154 67.2368 97.9813C67.6387 98.1408 67.9769 98.3769 68.2512 98.6895C68.5319 99.0021 68.7457 99.3881 68.8924 99.8474C69.0392 100.3 69.1125 100.82 69.1125 101.407V107.58H67.4091V101.407C67.4091 100.648 67.2432 100.074 66.9114 99.6848C66.5797 99.2892 66.098 99.0914 65.4664 99.0914C65.1856 99.0914 64.9177 99.1425 64.6625 99.2445C64.4137 99.3402 64.1935 99.4838 64.0021 99.6752C63.8107 99.8666 63.6576 100.109 63.5428 100.403C63.4343 100.69 63.3801 101.025 63.3801 101.407V107.58H61.6766V101.407C61.6766 100.629 61.5203 100.048 61.2077 99.6656C60.8951 99.2828 60.4389 99.0914 59.8392 99.0914C59.4181 99.0914 59.0257 99.2063 58.6621 99.4359C58.3048 99.6592 57.9762 99.9655 57.6764 100.355V107.58H55.9729Z" fill="#A67F56"/>
<path d="M73.6064 110.863V97.8856H74.6208C74.8632 97.8856 75.0164 98.0036 75.0802 98.2397L75.2237 99.3881C75.6384 98.8841 76.1105 98.4789 76.6401 98.1727C77.176 97.8665 77.7917 97.7133 78.4871 97.7133C79.0421 97.7133 79.5462 97.8218 79.9991 98.0387C80.4521 98.2493 80.8381 98.5651 81.1571 98.9861C81.4761 99.4008 81.7217 99.9176 81.894 100.536C82.0663 101.155 82.1524 101.867 82.1524 102.671C82.1524 103.385 82.0567 104.052 81.8653 104.671C81.6739 105.283 81.3996 105.816 81.0423 106.269C80.685 106.716 80.2448 107.07 79.7216 107.331C79.2048 107.586 78.6211 107.714 77.9703 107.714C77.3706 107.714 76.857 107.615 76.4295 107.417C76.0085 107.22 75.6352 106.939 75.3098 106.575V110.863H73.6064ZM77.9225 99.0914C77.3674 99.0914 76.8793 99.219 76.4582 99.4742C76.0435 99.7294 75.6607 100.09 75.3098 100.556V105.245C75.6225 105.666 75.9638 105.963 76.3338 106.135C76.7103 106.307 77.1281 106.393 77.5875 106.393C78.4871 106.393 79.1793 106.071 79.6642 105.427C80.1491 104.782 80.3915 103.864 80.3915 102.671C80.3915 102.039 80.3341 101.497 80.2192 101.044C80.1108 100.591 79.9513 100.221 79.7407 99.9336C79.5302 99.6401 79.2718 99.4264 78.9656 99.2924C78.6593 99.1584 78.3116 99.0914 77.9225 99.0914Z" fill="#A67F56"/>
<path d="M93.2011 107.58H92.4451C92.2792 107.58 92.1452 107.554 92.0431 107.503C91.9411 107.452 91.8741 107.344 91.8422 107.178L91.6508 106.278C91.3956 106.508 91.1468 106.716 90.9043 106.901C90.6619 107.079 90.4067 107.232 90.1387 107.36C89.8708 107.481 89.5836 107.574 89.2774 107.637C88.9776 107.701 88.6426 107.733 88.2726 107.733C87.8961 107.733 87.5421 107.682 87.2103 107.58C86.8849 107.472 86.601 107.312 86.3586 107.102C86.1161 106.891 85.9215 106.626 85.7748 106.307C85.6344 105.982 85.5643 105.599 85.5643 105.159C85.5643 104.776 85.6695 104.409 85.8801 104.058C86.0906 103.701 86.4287 103.385 86.8945 103.111C87.3666 102.836 87.9823 102.613 88.7415 102.441C89.5007 102.262 90.429 102.16 91.5264 102.135V101.379C91.5264 100.626 91.3637 100.058 91.0383 99.6752C90.7193 99.286 90.244 99.0914 89.6124 99.0914C89.1977 99.0914 88.8468 99.1456 88.5597 99.2541C88.2789 99.3562 88.0333 99.4742 87.8228 99.6082C87.6186 99.7358 87.44 99.8538 87.2868 99.9623C87.1401 100.064 86.9934 100.115 86.8466 100.115C86.7318 100.115 86.6297 100.087 86.5404 100.029C86.4575 99.9655 86.3905 99.8889 86.3394 99.7996L86.0332 99.2541C86.5691 98.7373 87.1465 98.3513 87.7654 98.0961C88.3842 97.8409 89.0701 97.7133 89.8229 97.7133C90.3652 97.7133 90.8469 97.8027 91.268 97.9813C91.689 98.1599 92.0431 98.4088 92.3302 98.7278C92.6173 99.0468 92.8343 99.4327 92.981 99.8857C93.1277 100.339 93.2011 100.836 93.2011 101.379V107.58ZM88.7798 106.537C89.0796 106.537 89.354 106.508 89.6028 106.451C89.8516 106.387 90.0845 106.301 90.3014 106.192C90.5247 106.078 90.7352 105.94 90.933 105.781C91.1372 105.621 91.335 105.44 91.5264 105.235V103.216C90.7416 103.242 90.0749 103.305 89.5262 103.407C88.9776 103.503 88.5309 103.631 88.1864 103.79C87.8419 103.95 87.5899 104.138 87.4304 104.355C87.2773 104.572 87.2007 104.814 87.2007 105.082C87.2007 105.337 87.2422 105.558 87.3251 105.743C87.4081 105.928 87.5197 106.081 87.6601 106.202C87.8004 106.317 87.9663 106.403 88.1577 106.46C88.3491 106.511 88.5565 106.537 88.7798 106.537Z" fill="#A67F56"/>
<path d="M104.309 99.6082C104.258 99.6784 104.207 99.7326 104.156 99.7709C104.105 99.8092 104.031 99.8283 103.936 99.8283C103.84 99.8283 103.735 99.79 103.62 99.7135C103.511 99.6305 103.371 99.5412 103.199 99.4455C103.026 99.3498 102.816 99.2637 102.567 99.1871C102.325 99.1042 102.025 99.0627 101.667 99.0627C101.195 99.0627 100.777 99.1488 100.414 99.3211C100.05 99.487 99.7438 99.7294 99.495 100.048C99.2526 100.367 99.0676 100.753 98.94 101.206C98.8187 101.659 98.7581 102.167 98.7581 102.728C98.7581 103.315 98.8251 103.838 98.9591 104.297C99.0931 104.75 99.2813 105.133 99.5237 105.446C99.7662 105.752 100.06 105.988 100.404 106.154C100.755 106.314 101.147 106.393 101.581 106.393C101.996 106.393 102.337 106.345 102.605 106.25C102.873 106.148 103.097 106.036 103.275 105.915C103.454 105.794 103.601 105.685 103.715 105.589C103.83 105.487 103.945 105.436 104.06 105.436C104.207 105.436 104.315 105.491 104.385 105.599L104.864 106.221C104.443 106.738 103.916 107.117 103.285 107.36C102.653 107.596 101.986 107.714 101.285 107.714C100.679 107.714 100.114 107.602 99.5907 107.379C99.0739 107.156 98.6241 106.834 98.2414 106.412C97.8586 105.985 97.5555 105.462 97.3322 104.843C97.1153 104.224 97.0068 103.519 97.0068 102.728C97.0068 102.007 97.1057 101.34 97.3035 100.728C97.5077 100.115 97.8011 99.5891 98.1839 99.1488C98.5731 98.7022 99.0516 98.3545 99.6194 98.1057C100.187 97.8569 100.838 97.7325 101.572 97.7325C102.248 97.7325 102.848 97.8441 103.371 98.0674C103.894 98.2843 104.357 98.5938 104.759 98.9957L104.309 99.6082Z" fill="#A67F56"/>
<path d="M111.482 107.733C110.717 107.733 110.127 107.519 109.712 107.092C109.304 106.664 109.099 106.049 109.099 105.245V99.3115H107.932C107.83 99.3115 107.744 99.2828 107.673 99.2254C107.603 99.1616 107.568 99.0659 107.568 98.9383V98.2588L109.157 98.0579L109.549 95.0624C109.562 94.9667 109.603 94.8902 109.674 94.8328C109.744 94.769 109.833 94.7371 109.942 94.7371H110.803V98.077H113.578V99.3115H110.803V105.13C110.803 105.538 110.902 105.841 111.1 106.039C111.297 106.237 111.553 106.336 111.865 106.336C112.044 106.336 112.197 106.314 112.325 106.269C112.458 106.218 112.573 106.164 112.669 106.106C112.765 106.049 112.844 105.998 112.908 105.953C112.978 105.902 113.039 105.877 113.09 105.877C113.179 105.877 113.259 105.931 113.329 106.039L113.827 106.853C113.534 107.127 113.179 107.344 112.765 107.503C112.35 107.657 111.923 107.733 111.482 107.733Z" fill="#A67F56"/>
<path d="M117.981 107.58V99.3402L116.909 99.2158C116.775 99.1839 116.664 99.1361 116.574 99.0723C116.492 99.0021 116.45 98.9032 116.45 98.7756V98.077H117.981V97.1391C117.981 96.5841 118.058 96.0928 118.211 95.6654C118.37 95.2315 118.594 94.8679 118.881 94.5744C119.174 94.2745 119.525 94.048 119.934 93.8949C120.342 93.7418 120.801 93.6652 121.312 93.6652C121.745 93.6652 122.147 93.729 122.517 93.8566L122.479 94.7084C122.473 94.836 122.419 94.9125 122.316 94.938C122.214 94.9636 122.071 94.9763 121.886 94.9763H121.589C121.296 94.9763 121.028 95.0146 120.785 95.0912C120.549 95.1677 120.345 95.2921 120.173 95.4644C120.001 95.6366 119.867 95.8631 119.771 96.1439C119.682 96.4246 119.637 96.7723 119.637 97.187V98.077H122.441V99.3115H119.694V107.58H117.981Z" fill="#A67F56"/>
<path d="M127.435 97.8856V104.068C127.435 104.802 127.604 105.369 127.942 105.771C128.28 106.173 128.791 106.374 129.473 106.374C129.971 106.374 130.44 106.256 130.88 106.02C131.32 105.784 131.725 105.455 132.095 105.034V97.8856H133.799V107.58H132.784C132.542 107.58 132.389 107.462 132.325 107.226L132.191 106.183C131.77 106.649 131.298 107.025 130.775 107.312C130.252 107.593 129.652 107.733 128.976 107.733C128.446 107.733 127.977 107.647 127.569 107.475C127.167 107.296 126.829 107.047 126.554 106.728C126.28 106.409 126.073 106.023 125.932 105.57C125.798 105.117 125.731 104.616 125.731 104.068V97.8856H127.435Z" fill="#A67F56"/>
<path d="M140.405 93.4834V107.58H138.702V93.4834H140.405Z" fill="#A67F56"/>
<path d="M162.487 107.58H161.052C160.886 107.58 160.752 107.539 160.65 107.456C160.548 107.373 160.471 107.267 160.42 107.14L159.138 103.829H152.984L151.702 107.14C151.657 107.255 151.581 107.357 151.472 107.446C151.364 107.535 151.23 107.58 151.07 107.58H149.635L155.119 93.8662H157.004L162.487 107.58ZM153.501 102.489H158.621L156.468 96.9095C156.328 96.5649 156.19 96.1343 156.056 95.6175C155.986 95.8791 155.916 96.1215 155.846 96.3448C155.782 96.5617 155.718 96.7531 155.654 96.919L153.501 102.489Z" fill="#A67F56"/>
<path d="M171.41 99.4838C171.334 99.6241 171.216 99.6943 171.056 99.6943C170.96 99.6943 170.852 99.6592 170.731 99.5891C170.61 99.5189 170.46 99.4423 170.281 99.3594C170.109 99.2701 169.901 99.1903 169.659 99.1201C169.417 99.0436 169.129 99.0053 168.798 99.0053C168.511 99.0053 168.252 99.0436 168.022 99.1201C167.793 99.1903 167.595 99.2892 167.429 99.4168C167.27 99.5444 167.145 99.6943 167.056 99.8666C166.973 100.032 166.932 100.214 166.932 100.412C166.932 100.661 167.002 100.868 167.142 101.034C167.289 101.2 167.48 101.344 167.716 101.465C167.952 101.586 168.22 101.694 168.52 101.79C168.82 101.879 169.126 101.978 169.439 102.087C169.758 102.189 170.067 102.304 170.367 102.431C170.667 102.559 170.935 102.718 171.171 102.91C171.407 103.101 171.595 103.337 171.736 103.618C171.882 103.892 171.956 104.224 171.956 104.613C171.956 105.06 171.876 105.475 171.717 105.857C171.557 106.234 171.321 106.562 171.008 106.843C170.696 107.117 170.313 107.334 169.86 107.494C169.407 107.653 168.884 107.733 168.29 107.733C167.614 107.733 167.002 107.625 166.453 107.408C165.904 107.184 165.439 106.901 165.056 106.556L165.458 105.905C165.509 105.822 165.569 105.759 165.64 105.714C165.71 105.669 165.802 105.647 165.917 105.647C166.032 105.647 166.153 105.692 166.281 105.781C166.408 105.87 166.561 105.969 166.74 106.078C166.925 106.186 167.145 106.285 167.4 106.374C167.662 106.464 167.987 106.508 168.377 106.508C168.708 106.508 168.999 106.467 169.247 106.384C169.496 106.294 169.704 106.176 169.87 106.03C170.035 105.883 170.157 105.714 170.233 105.522C170.316 105.331 170.358 105.127 170.358 104.91C170.358 104.642 170.284 104.422 170.137 104.25C169.997 104.071 169.809 103.921 169.573 103.8C169.337 103.672 169.066 103.564 168.759 103.474C168.46 103.379 168.15 103.28 167.831 103.178C167.518 103.076 167.209 102.961 166.903 102.833C166.603 102.699 166.335 102.533 166.099 102.336C165.863 102.138 165.671 101.895 165.525 101.608C165.384 101.315 165.314 100.961 165.314 100.546C165.314 100.176 165.391 99.8219 165.544 99.4838C165.697 99.1393 165.92 98.8394 166.214 98.5842C166.507 98.3226 166.868 98.1153 167.295 97.9622C167.723 97.809 168.211 97.7325 168.759 97.7325C169.397 97.7325 169.968 97.8346 170.472 98.0387C170.983 98.2365 171.423 98.5108 171.793 98.8617L171.41 99.4838Z" fill="#A67F56"/>
<path d="M177.968 97.8856V107.58H176.264V97.8856H177.968ZM178.35 94.8423C178.35 95.0082 178.315 95.1645 178.245 95.3113C178.181 95.4516 178.092 95.5792 177.977 95.6941C177.869 95.8025 177.741 95.8887 177.594 95.9525C177.448 96.0163 177.291 96.0482 177.125 96.0482C176.959 96.0482 176.803 96.0163 176.656 95.9525C176.516 95.8887 176.388 95.8025 176.274 95.6941C176.165 95.5792 176.079 95.4516 176.015 95.3113C175.951 95.1645 175.92 95.0082 175.92 94.8423C175.92 94.6765 175.951 94.5201 176.015 94.3734C176.079 94.2203 176.165 94.0895 176.274 93.981C176.388 93.8662 176.516 93.7769 176.656 93.7131C176.803 93.6493 176.959 93.6174 177.125 93.6174C177.291 93.6174 177.448 93.6493 177.594 93.7131C177.741 93.7769 177.869 93.8662 177.977 93.981C178.092 94.0895 178.181 94.2203 178.245 94.3734C178.315 94.5201 178.35 94.6765 178.35 94.8423Z" fill="#A67F56"/>
<path d="M190.004 107.58H189.248C189.082 107.58 188.948 107.554 188.846 107.503C188.744 107.452 188.677 107.344 188.645 107.178L188.454 106.278C188.198 106.508 187.95 106.716 187.707 106.901C187.465 107.079 187.209 107.232 186.941 107.36C186.674 107.481 186.386 107.574 186.08 107.637C185.78 107.701 185.445 107.733 185.075 107.733C184.699 107.733 184.345 107.682 184.013 107.58C183.688 107.472 183.404 107.312 183.161 107.102C182.919 106.891 182.724 106.626 182.578 106.307C182.437 105.982 182.367 105.599 182.367 105.159C182.367 104.776 182.472 104.409 182.683 104.058C182.893 103.701 183.232 103.385 183.697 103.111C184.169 102.836 184.785 102.613 185.544 102.441C186.303 102.262 187.232 102.16 188.329 102.135V101.379C188.329 100.626 188.166 100.058 187.841 99.6752C187.522 99.286 187.047 99.0914 186.415 99.0914C186 99.0914 185.65 99.1456 185.362 99.2541C185.082 99.3562 184.836 99.4742 184.626 99.6082C184.421 99.7358 184.243 99.8538 184.09 99.9623C183.943 100.064 183.796 100.115 183.649 100.115C183.535 100.115 183.432 100.087 183.343 100.029C183.26 99.9655 183.193 99.8889 183.142 99.7996L182.836 99.2541C183.372 98.7373 183.949 98.3513 184.568 98.0961C185.187 97.8409 185.873 97.7133 186.626 97.7133C187.168 97.7133 187.65 97.8027 188.071 97.9813C188.492 98.1599 188.846 98.4088 189.133 98.7278C189.42 99.0468 189.637 99.4327 189.784 99.8857C189.931 100.339 190.004 100.836 190.004 101.379V107.58ZM185.583 106.537C185.882 106.537 186.157 106.508 186.406 106.451C186.654 106.387 186.887 106.301 187.104 106.192C187.327 106.078 187.538 105.94 187.736 105.781C187.94 105.621 188.138 105.44 188.329 105.235V103.216C187.544 103.242 186.878 103.305 186.329 103.407C185.78 103.503 185.334 103.631 184.989 103.79C184.645 103.95 184.393 104.138 184.233 104.355C184.08 104.572 184.003 104.814 184.003 105.082C184.003 105.337 184.045 105.558 184.128 105.743C184.211 105.928 184.322 106.081 184.463 106.202C184.603 106.317 184.769 106.403 184.96 106.46C185.152 106.511 185.359 106.537 185.583 106.537Z" fill="#A67F56"/>
<g clip-path="url(#clip0_854_12582)">
<path d="M389.875 20.1572L388.882 17.1675H382.259L381.265 20.1572H377.741L383.536 3.54785H387.59L393.409 20.1572H389.875ZM383.333 14.1066H387.874L385.603 7.31579L383.333 14.1066Z" fill="#A67F56"/>
<path d="M399.715 16.3843L402.506 14.7471C403.144 16.4318 404.398 17.286 406.29 17.286C408.182 17.286 408.939 16.5504 408.939 15.5301C408.948 15.2541 408.879 14.9811 408.741 14.7421C408.604 14.5031 408.402 14.3076 408.159 14.1776C407.279 13.7009 406.341 13.3419 405.368 13.1099C404.143 12.8032 402.981 12.281 401.938 11.5676C401.419 11.1683 401.006 10.6478 400.734 10.0514C400.462 9.45503 400.339 8.80089 400.377 8.14609C400.348 7.46673 400.476 6.78981 400.751 6.16826C401.025 5.54671 401.44 4.99738 401.962 4.56323C403.041 3.65873 404.411 3.17812 405.817 3.21074C407.058 3.18146 408.281 3.51902 409.332 4.18139C410.384 4.84377 411.218 5.80171 411.73 6.93599L408.987 8.53048C408.324 7.10682 407.26 6.39024 405.817 6.39024C404.469 6.39024 403.641 7.07835 403.641 8.05592C403.637 8.30525 403.693 8.55187 403.804 8.77491C403.915 8.99794 404.078 9.19084 404.28 9.33722C405.065 9.79672 405.908 10.1479 406.787 10.3812L407.922 10.7609C408.285 10.8742 408.64 11.0089 408.987 11.1642C409.351 11.2801 409.701 11.4394 410.027 11.6388C410.651 12.0063 411.184 12.5089 411.588 13.1099C412.008 13.8287 412.221 14.65 412.203 15.4826C412.229 16.1812 412.091 16.8761 411.799 17.5109C411.507 18.1457 411.07 18.7027 410.524 19.1367C409.283 20.0807 407.752 20.5591 406.196 20.4892C402.931 20.4892 400.637 18.9232 399.715 16.3843Z" fill="#A67F56"/>
<path d="M420.151 3.54297H423.415V20.1523H420.151V3.54297Z" fill="#A67F56"/>
<path d="M443.047 20.1572L442.053 17.1675H435.431L434.437 20.1572H430.913L436.708 3.54785H440.753L446.571 20.1572H443.047ZM436.495 14.1066H441.036L438.766 7.31579L436.495 14.1066Z" fill="#A67F56"/>
<path d="M389.875 48.6298L388.882 45.6401H382.259L381.265 48.6298H377.741L383.536 32.0205H387.59L393.409 48.6298H389.875ZM383.333 42.5793H387.874L385.603 35.7885L383.333 42.5793Z" fill="#A67F56"/>
<path d="M410.027 48.6301L406.716 42.8643H404.232V48.6301H400.968V32.0208H407.591C408.317 32.0082 409.038 32.1449 409.709 32.4224C410.38 32.6999 410.988 33.1123 411.494 33.6343C412.012 34.1396 412.422 34.7458 412.699 35.4158C412.975 36.0857 413.113 36.8053 413.102 37.5304C413.085 38.5585 412.775 39.5604 412.21 40.418C411.644 41.2755 410.846 41.9531 409.909 42.3708L413.575 48.6349L410.027 48.6301ZM404.209 35.0769V39.9933H407.567C408.191 39.9625 408.777 39.6859 409.198 39.2237C409.618 38.7615 409.84 38.1511 409.814 37.5256C409.835 36.9033 409.611 36.2979 409.191 35.8398C408.77 35.3817 408.187 35.1077 407.567 35.0769H404.209Z" fill="#A67F56"/>
<path d="M422.871 46.4708C422.071 45.6655 421.442 44.7055 421.024 43.649C420.605 42.5926 420.404 41.4618 420.435 40.3254C420.4 39.1847 420.598 38.0489 421.017 36.988C421.436 35.927 422.067 34.9633 422.871 34.1562C423.673 33.3365 424.636 32.692 425.698 32.2633C426.76 31.8345 427.9 31.6308 429.044 31.6648C430.463 31.648 431.862 31.9997 433.106 32.6857C434.349 33.3717 435.394 34.3687 436.14 35.5798L433.302 37.217C432.866 36.4669 432.236 35.8498 431.477 35.4319C430.719 35.0139 429.862 34.8108 428.997 34.8443C428.277 34.8125 427.559 34.9311 426.887 35.1925C426.215 35.4539 425.605 35.8525 425.094 36.3628C424.603 36.8911 424.221 37.5114 423.969 38.188C423.718 38.8647 423.602 39.5846 423.628 40.3064C423.603 41.0237 423.72 41.7387 423.972 42.4106C424.224 43.0824 424.605 43.6978 425.094 44.2214C425.605 44.7318 426.215 45.1303 426.887 45.3917C427.559 45.6531 428.277 45.7717 428.997 45.74C429.859 45.7743 430.714 45.5741 431.472 45.1606C432.23 44.7471 432.862 44.1356 433.302 43.391L436.14 45.0282C435.397 46.2415 434.352 47.2403 433.108 47.9266C431.864 48.6129 430.464 48.9633 429.044 48.9432C427.901 48.9797 426.763 48.7789 425.7 48.3535C424.638 47.928 423.675 47.2871 422.871 46.4708Z" fill="#A67F56"/>
<path d="M453.501 32.0161H456.742V48.6254H453.501V41.7444H447.352V48.6254H444.088V32.0161H447.352V38.6314H453.501V32.0161Z" fill="#A67F56"/>
<path d="M465.73 32.0161H468.994V48.6254H465.73V32.0161Z" fill="#A67F56"/>
<path d="M488.933 32.0161V35.1529H484.463V48.6302H481.199V35.1529H476.752V32.0161H488.933Z" fill="#A67F56"/>
<path d="M499.932 45.4978H506.91V48.6298H496.668V32.0205H506.801V35.1573H499.942V38.6927H506.21V41.7773H499.942L499.932 45.4978Z" fill="#A67F56"/>
<path d="M516.678 46.4711C515.878 45.6658 515.25 44.7058 514.831 43.6494C514.412 42.5929 514.212 41.4622 514.242 40.3257C514.207 39.185 514.405 38.0492 514.824 36.9883C515.243 35.9273 515.874 34.9636 516.678 34.1565C517.478 33.3398 518.437 32.6971 519.495 32.2684C520.553 31.8398 521.687 31.6344 522.828 31.6651C524.247 31.6483 525.646 32 526.889 32.6861C528.133 33.3721 529.178 34.3691 529.924 35.5802L527.086 37.2174C526.65 36.4673 526.019 35.8502 525.261 35.4322C524.503 35.0142 523.645 34.8111 522.781 34.8446C522.061 34.8129 521.342 34.9314 520.67 35.1929C519.999 35.4543 519.388 35.8528 518.878 36.3632C518.387 36.8914 518.005 37.5117 517.753 38.1884C517.501 38.8651 517.385 39.5849 517.412 40.3067C517.387 41.024 517.504 41.739 517.756 42.4109C518.007 43.0827 518.389 43.6981 518.878 44.2217C519.388 44.7321 519.999 45.1307 520.67 45.3921C521.342 45.6535 522.061 45.7721 522.781 45.7403C523.643 45.7747 524.498 45.5745 525.256 45.1609C526.014 44.7474 526.646 44.1359 527.086 43.3913L529.924 45.0285C529.181 46.2418 528.136 47.2406 526.892 47.9269C525.648 48.6133 524.248 48.9636 522.828 48.9435C521.689 48.9767 520.555 48.7743 519.497 48.349C518.439 47.9236 517.479 47.2844 516.678 46.4711Z" fill="#A67F56"/>
<path d="M548.775 32.0161V35.1529H544.305V48.6302H541.041V35.1529H536.604V32.0161H548.775Z" fill="#A67F56"/>
<path d="M558.142 47.3963C557.554 46.8723 557.09 46.2235 556.783 45.497C556.476 44.7706 556.334 43.9848 556.368 43.1966V32.0161H559.608V42.9308C559.608 44.6629 560.554 45.7544 562.683 45.7544C564.812 45.7544 565.758 44.6629 565.758 42.9308V32.0161H569.022V43.1966C569.056 43.9848 568.914 44.7706 568.607 45.497C568.3 46.2235 567.836 46.8723 567.248 47.3963C565.977 48.4756 564.347 49.0347 562.683 48.9624C561.027 49.0287 559.407 48.4699 558.142 47.3963Z" fill="#A67F56"/>
<path d="M586.951 48.6301L583.64 42.8643H581.156V48.6301H577.892V32.0208H584.515C585.241 32.0082 585.961 32.1449 586.633 32.4224C587.304 32.6999 587.911 33.1123 588.418 33.6343C588.936 34.1396 589.346 34.7458 589.623 35.4158C589.899 36.0857 590.036 36.8053 590.026 37.5304C590.009 38.5585 589.699 39.5604 589.133 40.418C588.568 41.2755 587.77 41.9531 586.833 42.3708L590.499 48.6349L586.951 48.6301ZM581.132 35.0769V39.9933H584.491C585.114 39.9625 585.7 39.6859 586.121 39.2237C586.542 38.7615 586.764 38.1511 586.738 37.5256C586.759 36.9033 586.535 36.2979 586.114 35.8398C585.694 35.3817 585.111 35.1077 584.491 35.0769H581.132Z" fill="#A67F56"/>
<path d="M601.569 45.4978H608.546V48.6298H598.304V32.0205H608.428V35.1573H601.569V38.6927H607.837V41.7773H601.569V45.4978Z" fill="#A67F56"/>
<path d="M385.807 60.4892C386.868 60.4651 387.922 60.6662 388.9 61.0792C389.879 61.4922 390.759 62.1078 391.483 62.8857C392.24 63.6674 392.834 64.5935 393.228 65.6091C393.622 66.6247 393.809 67.7093 393.778 68.7986C393.809 69.8873 393.622 70.9711 393.227 71.9859C392.833 73.0008 392.24 73.926 391.483 74.7068C390.759 75.4848 389.879 76.1004 388.9 76.5134C387.922 76.9264 386.868 77.1274 385.807 77.1033H379.231V60.494L385.807 60.4892ZM385.807 73.9713C386.458 73.9962 387.106 73.8821 387.71 73.6367C388.313 73.3912 388.858 73.02 389.307 72.5476C390.228 71.523 390.713 70.1771 390.656 68.7986C390.717 67.4252 390.232 66.0836 389.307 65.0687C388.86 64.5935 388.315 64.2205 387.711 63.9748C387.108 63.7292 386.458 63.6167 385.807 63.645H382.495V73.9902L385.807 73.9713Z" fill="#A67F56"/>
<path d="M405.273 73.9709H412.251V77.103H402.009V60.4937H412.132V63.6304H405.273V67.1659H411.541V70.2504H405.273V73.9709Z" fill="#A67F56"/>
<path d="M419.607 73.3306L422.398 71.6934C423.036 73.3781 424.314 74.2322 426.206 74.2322C428.027 74.2322 428.855 73.4967 428.855 72.4764C428.864 72.2004 428.795 71.9274 428.657 71.6884C428.519 71.4494 428.317 71.2539 428.075 71.1239C427.195 70.6472 426.256 70.2882 425.284 70.0562C424.057 69.75 422.896 69.2261 421.854 68.5091C421.335 68.1112 420.921 67.5916 420.649 66.9959C420.377 66.4001 420.254 65.7466 420.293 65.0924C420.263 64.413 420.391 63.7359 420.666 63.1143C420.941 62.4927 421.355 61.9434 421.877 61.5095C422.957 60.605 424.327 60.1244 425.733 60.157C426.974 60.1277 428.197 60.4653 429.248 61.1277C430.299 61.7901 431.133 62.748 431.646 63.8823L428.902 65.472C428.24 64.0484 427.176 63.3365 425.733 63.3365C424.385 63.3365 423.557 64.0246 423.557 64.9975C423.552 65.2469 423.608 65.4938 423.719 65.717C423.83 65.9402 423.994 66.1329 424.195 66.2788C424.979 66.7423 425.823 67.0937 426.703 67.3228L427.838 67.7072C428.201 67.8184 428.557 67.9531 428.902 68.1105C429.269 68.2318 429.619 68.3993 429.943 68.6088C430.566 68.9763 431.1 69.4789 431.504 70.0799C431.924 70.7988 432.136 71.62 432.119 72.4527C432.145 73.1512 432.006 73.8461 431.715 74.4809C431.423 75.1157 430.986 75.6727 430.44 76.1067C429.199 77.0507 427.667 77.5292 426.111 77.4592C422.824 77.4355 420.529 75.8694 419.607 73.3306Z" fill="#A67F56"/>
<path d="M440.043 60.4893H443.307V77.0986H440.043V60.4893Z" fill="#A67F56"/>
<path d="M468.545 68.1815V69.4628C468.587 70.5294 468.407 71.5933 468.016 72.5861C467.625 73.579 467.032 74.479 466.274 75.2286C465.492 75.9692 464.57 76.5458 463.563 76.9247C462.555 77.3036 461.483 77.4772 460.408 77.4352C459.235 77.4718 458.066 77.2699 456.973 76.8417C455.88 76.4136 454.884 75.768 454.045 74.9438C453.233 74.1495 452.591 73.1965 452.16 72.1436C451.728 71.0906 451.517 69.9602 451.538 68.8221C451.513 67.6785 451.72 66.5416 452.147 65.481C452.574 64.4203 453.212 63.458 454.022 62.6529C454.828 61.8306 455.794 61.1831 456.86 60.7505C457.926 60.3178 459.069 60.1093 460.219 60.1378C461.651 60.1061 463.068 60.4454 464.331 61.1229C465.595 61.8003 466.663 62.7931 467.433 64.0054L464.642 65.6236C463.861 64.2664 462.158 63.3173 460.195 63.3173C459.471 63.2923 458.751 63.4192 458.079 63.6896C457.407 63.9601 456.798 64.3683 456.292 64.8881C455.787 65.4023 455.392 66.015 455.131 66.6884C454.871 67.3617 454.751 68.0814 454.779 68.8031C454.758 69.5226 454.883 70.2387 455.147 70.9078C455.412 71.5769 455.809 72.1848 456.316 72.6945C456.866 73.2109 457.513 73.6114 458.22 73.8723C458.927 74.1331 459.679 74.249 460.432 74.213C462.963 74.213 464.689 73.0266 465.257 71.0573H460.242V68.1625L468.545 68.1815Z" fill="#A67F56"/>
<path d="M486.355 60.4893H489.619V77.0986H487.136L480.04 66.9432V77.0986H476.776V60.4893H479.259L486.355 70.6257V60.4893Z" fill="#A67F56"/>
<path d="M389.875 105.576L388.882 102.586H382.259L381.265 105.576H377.741L383.536 88.9668H387.59L393.409 105.576H389.875ZM383.333 99.5256H387.874L385.603 92.7347L383.333 99.5256Z" fill="#A67F56"/>
<path d="M402.728 105.576L398.092 88.9668H401.522L404.691 101.305L408.145 88.9668H410.936L414.413 101.305L417.582 88.9668H421.012L416.376 105.576H412.662L409.54 94.6092L406.442 105.576H402.728Z" fill="#A67F56"/>
<path d="M437.701 105.576L436.708 102.586H430.109L429.115 105.576H425.591L431.386 88.9668H435.431L441.249 105.576H437.701ZM431.149 99.5256H435.691L433.42 92.7347L431.149 99.5256Z" fill="#A67F56"/>
<path d="M457.854 105.576L454.542 99.8106H452.059V105.576H448.794V88.9671H455.417C456.143 88.9545 456.864 89.0912 457.535 89.3687C458.206 89.6462 458.814 90.0586 459.32 90.5806C459.838 91.0859 460.248 91.6921 460.525 92.3621C460.802 93.032 460.939 93.7516 460.928 94.4766C460.911 95.5048 460.602 96.5067 460.036 97.3643C459.47 98.2218 458.672 98.8994 457.735 99.3171L461.401 105.581L457.854 105.576ZM452.035 92.0232V96.9396H455.394C456.017 96.9088 456.603 96.6322 457.024 96.17C457.445 95.7077 457.666 95.0974 457.641 94.4719C457.661 93.8496 457.437 93.2441 457.017 92.7861C456.597 92.328 456.014 92.054 455.394 92.0232H452.035Z" fill="#A67F56"/>
<path d="M475.782 88.9624C476.844 88.9383 477.898 89.1393 478.876 89.5523C479.854 89.9653 480.735 90.5809 481.459 91.3589C482.216 92.1406 482.809 93.0666 483.203 94.0822C483.597 95.0978 483.784 96.1824 483.753 97.2718C483.784 98.3605 483.597 99.4443 483.203 100.459C482.809 101.474 482.216 102.399 481.459 103.18C480.735 103.958 479.854 104.574 478.876 104.987C477.898 105.4 476.844 105.601 475.782 105.576H469.207V88.9671L475.782 88.9624ZM475.782 102.444C476.433 102.469 477.082 102.355 477.685 102.11C478.289 101.864 478.833 101.493 479.283 101.021C480.204 99.9962 480.688 98.6503 480.631 97.2718C480.692 95.8984 480.207 94.5568 479.283 93.5418C478.835 93.0667 478.291 92.6936 477.687 92.448C477.083 92.2024 476.434 92.0899 475.782 92.1182H472.471V102.463L475.782 102.444Z" fill="#A67F56"/>
<path d="M490.542 101.803L493.333 100.166C493.972 101.851 495.225 102.705 497.117 102.705C499.01 102.705 499.767 101.969 499.767 100.949C499.775 100.673 499.707 100.4 499.569 100.161C499.431 99.9221 499.229 99.7266 498.986 99.5966C498.106 99.1199 497.168 98.7609 496.195 98.5288C494.969 98.2227 493.807 97.6987 492.765 96.9818C492.246 96.5838 491.833 96.0642 491.56 95.4685C491.288 94.8728 491.166 94.2192 491.204 93.565C491.175 92.8856 491.302 92.2086 491.577 91.587C491.852 90.9654 492.267 90.4161 492.789 89.9822C493.868 89.0777 495.238 88.5971 496.644 88.6297C497.886 88.6004 499.108 88.938 500.159 89.6003C501.211 90.2627 502.045 91.2206 502.558 92.3549L499.814 93.9447C499.152 92.521 498.087 91.8092 496.644 91.8092C495.296 91.8092 494.468 92.4973 494.468 93.4701C494.463 93.7196 494.519 93.9665 494.63 94.1897C494.741 94.4128 494.905 94.6056 495.107 94.7514C495.89 95.2149 496.734 95.5663 497.614 95.7954L498.749 96.1798C499.113 96.291 499.468 96.4258 499.814 96.5832C500.18 96.7045 500.53 96.8719 500.855 97.0815C501.478 97.449 502.011 97.9516 502.416 98.5526C502.835 99.2714 503.048 100.093 503.031 100.925C503.056 101.624 502.918 102.319 502.626 102.954C502.334 103.588 501.898 104.145 501.351 104.579C500.11 105.523 498.579 106.002 497.023 105.932C493.759 105.908 491.464 104.342 490.542 101.803Z" fill="#A67F56"/>
</g>
<path d="M323.934 3.28125L319.049 15.8664L351.879 96.3732L352 96.7127C352.985 99.4307 354.739 101.772 357.03 103.424C359.32 105.077 362.039 105.963 364.824 105.964L323.934 3.28125Z" fill="url(#paint0_linear_854_12582)"/>
<path d="M317.112 20.4062L312.402 33.4272L337.069 96.3734L337.19 96.7129C338.175 99.4313 339.929 101.773 342.22 103.425C344.511 105.078 347.229 105.964 350.014 105.964L317.112 20.4062Z" stroke="url(#paint1_linear_854_12582)" stroke-width="0.33" stroke-miterlimit="10"/>
<path d="M310.455 38.0068L305.599 50.5616L322.279 96.3831L322.4 96.7226C323.384 99.4414 325.138 101.783 327.429 103.436C329.72 105.089 332.439 105.974 335.224 105.974L310.455 38.0068ZM296.694 79.2482L303.327 60.9379C303.81 59.6058 303.81 58.1356 303.327 56.8036L285.56 105.974C285.973 105.971 286.376 105.839 286.716 105.594C287.057 105.343 287.316 104.99 287.459 104.581L296.199 80.5047H311.989C311.853 80.1284 311.61 79.8045 311.292 79.5764C310.975 79.3482 310.598 79.2267 310.212 79.2279L296.694 79.2482Z" fill="url(#paint2_linear_854_12582)"/>
<defs>
<linearGradient id="paint0_linear_854_12582" x1="319.049" y1="54.6202" x2="364.824" y2="54.6202" gradientUnits="userSpaceOnUse">
<stop stop-color="#FAC47E"/>
<stop offset="1" stop-color="#A67F56"/>
</linearGradient>
<linearGradient id="paint1_linear_854_12582" x1="312.276" y1="63.0713" x2="350.194" y2="63.0713" gradientUnits="userSpaceOnUse">
<stop stop-color="#FAC47E"/>
<stop offset="1" stop-color="#A67F56"/>
</linearGradient>
<linearGradient id="paint2_linear_854_12582" x1="285.555" y1="71.9778" x2="335.204" y2="71.9778" gradientUnits="userSpaceOnUse">
<stop stop-color="#FAC47E"/>
<stop offset="1" stop-color="#A67F56"/>
</linearGradient>
<clipPath id="clip0_854_12582">
<rect width="230.781" height="102.693" fill="white" transform="translate(377.765 3.21094)"/>
</clipPath>
</defs>
</svg>
