<svg width="666" height="115" viewBox="0 0 666 115" fill="none" xmlns="http://www.w3.org/2000/svg">
<g clip-path="url(#clip0_5721_23197)">
<path d="M52.8528 69.1706V82.2775H0.72998V80.7514C30.6624 48.5675 40.8799 40.3757 43.5805 23.5207C45.5835 10.7728 40.6548 1.75059 29.6046 1.75059C17.5191 1.75059 11.4201 7.24922 6.71646 24.3511H5.54617V5.85773C12.8155 3.27674 22.5604 0 28.5468 0C46.2812 0 55.666 9.47112 51.5475 26.3261C48.0366 40.9592 26.0712 59.677 6.46889 75.6118H51.5475V69.1706H52.8303H52.8528Z" fill="#FAC47E"/>
<path d="M128.314 41.5427C128.314 67.7566 114.811 83.0855 96.3785 83.0855C77.9464 83.0855 64.5781 67.7566 64.5781 41.5427C64.5781 15.3288 78.0814 0 96.401 0C114.72 0 128.336 15.2166 128.336 41.5427H128.314ZM119.627 41.5427C119.627 12.8601 108.014 1.75059 96.3785 1.75059C84.7431 1.75059 73.2653 12.8601 73.2653 41.5427C73.2653 70.2254 84.8781 81.3349 96.3785 81.3349C107.879 81.3349 119.627 70.0907 119.627 41.5427Z" fill="#FAC47E"/>
<path d="M188.651 69.1706V82.2775H136.528V80.7514C166.461 48.5675 176.678 40.3757 179.379 23.5207C181.382 10.7728 176.453 1.75059 165.403 1.75059C153.317 1.75059 147.218 7.24922 142.515 24.3511H141.345V5.85773C148.614 3.27674 158.359 0 164.345 0C182.08 0 191.464 9.47112 187.346 26.3261C183.835 40.9592 161.87 59.677 142.267 75.6118H187.346V69.1706H188.629H188.651Z" fill="#FAC47E"/>
<path d="M247.008 61.2259V80.7741H254.637V82.3002H231.637V80.7741H239.154V61.2259H198.081V59.6997C215.815 48.5902 225.313 24.5758 219.214 1.88553V0.359375H229.071C231.659 37.9296 212.98 53.1463 199.611 59.6997H239.176V47.0641L245.973 18.6283H247.031V59.6997H257.586V61.2259H247.031H247.008Z" fill="#FAC47E"/>
<path d="M59.0871 112.598H63.9708V114.775H56.7915V103.216H63.8808V105.393H59.0871V107.862H63.4757V110.017H59.0871V112.62V112.598Z" fill="#FAC47E"/>
<path d="M78.982 103.217V114.775H76.7089V107.279L73.4456 112.643H73.1756L69.9123 107.279V114.753H67.6167V103.194H69.9798L73.3106 108.671L76.6189 103.194H78.982V103.217Z" fill="#FAC47E"/>
<path d="M85.5084 112.598H90.3922V114.775H83.2129V103.216H90.3021V105.393H85.5084V107.862H89.897V110.017H85.5084V112.62V112.598Z" fill="#FAC47E"/>
<path d="M100.43 114.775L98.0895 110.757H96.3566V114.775H94.061V103.216H98.6972C99.7774 103.216 100.678 103.598 101.42 104.338C102.163 105.079 102.546 105.999 102.546 107.054C102.546 108.491 101.645 109.815 100.318 110.421L102.883 114.775H100.408H100.43ZM96.3566 105.348V108.76H98.7197C99.5749 108.76 100.295 107.974 100.295 107.032C100.295 106.089 99.5749 105.326 98.7197 105.326H96.3566V105.348Z" fill="#FAC47E"/>
<path d="M117.714 108.558V109.456C117.714 111.117 117.174 112.441 116.116 113.473C115.058 114.506 113.686 114.999 111.998 114.999C110.22 114.999 108.712 114.416 107.542 113.271C106.371 112.104 105.786 110.668 105.786 109.007C105.786 107.346 106.371 105.91 107.519 104.72C108.689 103.553 110.13 102.97 111.863 102.97C114.023 102.97 115.914 104.025 116.904 105.663L114.946 106.785C114.406 105.842 113.213 105.192 111.84 105.192C110.737 105.192 109.815 105.551 109.117 106.291C108.397 107.01 108.059 107.907 108.059 109.007C108.059 110.107 108.419 111.004 109.139 111.723C109.86 112.441 110.827 112.777 112.02 112.777C113.798 112.777 114.991 111.947 115.396 110.578H111.885V108.558H117.692H117.714Z" fill="#FAC47E"/>
<path d="M121.405 103.216H123.7V114.775H121.405V103.216Z" fill="#FAC47E"/>
<path d="M134.616 103.216H136.911V114.775H135.178L130.205 107.705V114.775H127.909V103.216H129.642L134.616 110.264V103.216Z" fill="#FAC47E"/>
<path d="M152.53 108.558V109.456C152.53 111.117 151.99 112.441 150.932 113.473C149.874 114.506 148.502 114.999 146.814 114.999C145.036 114.999 143.528 114.416 142.357 113.271C141.187 112.104 140.602 110.668 140.602 109.007C140.602 107.346 141.187 105.91 142.335 104.72C143.505 103.553 144.946 102.97 146.679 102.97C148.839 102.97 150.73 104.025 151.72 105.663L149.762 106.785C149.222 105.842 148.029 105.192 146.656 105.192C145.553 105.192 144.631 105.551 143.933 106.291C143.213 107.01 142.875 107.907 142.875 109.007C142.875 110.107 143.235 111.004 143.955 111.723C144.676 112.441 145.643 112.777 146.836 112.777C148.614 112.777 149.807 111.947 150.212 110.578H146.701V108.558H152.507H152.53Z" fill="#FAC47E"/>
<path d="M169.882 114.775L169.184 112.687H164.571L163.873 114.775H161.397L165.448 103.216H168.284L172.358 114.775H169.882ZM165.291 110.555H168.464L166.866 105.842L165.268 110.555H165.291Z" fill="#FAC47E"/>
<path d="M174.721 112.149L176.679 111.004C177.129 112.172 178.029 112.778 179.334 112.778C180.64 112.778 181.18 112.261 181.18 111.566C181.18 111.162 181 110.847 180.64 110.623C180.28 110.399 179.627 110.152 178.682 109.882C177.647 109.568 177.016 109.321 176.274 108.805C175.553 108.289 175.171 107.481 175.171 106.426C175.171 105.371 175.531 104.541 176.274 103.935C177.016 103.306 177.939 102.992 178.974 102.992C180.842 102.992 182.328 103.957 183.115 105.596L181.202 106.695C180.73 105.708 179.987 105.214 178.974 105.214C178.029 105.214 177.444 105.685 177.444 106.381C177.444 106.74 177.602 107.032 177.894 107.279C178.209 107.503 178.794 107.75 179.65 107.997L180.437 108.266C180.617 108.311 180.865 108.423 181.18 108.558C181.495 108.67 181.743 108.783 181.9 108.895C182.238 109.097 182.778 109.523 183.003 109.927C183.25 110.331 183.43 110.915 183.43 111.566C183.43 112.643 183.025 113.473 182.26 114.102C181.495 114.73 180.482 115.044 179.222 115.044C176.926 115.044 175.306 113.945 174.676 112.194L174.721 112.149Z" fill="#FAC47E"/>
<path d="M186.963 103.216H189.259V114.775H186.963V103.216Z" fill="#FAC47E"/>
<path d="M200.94 114.775L200.242 112.687H195.628L194.931 114.775H192.455L196.506 103.216H199.342L203.415 114.775H200.94ZM196.349 110.555H199.522L197.924 105.842L196.326 110.555H196.349Z" fill="#FAC47E"/>
</g>
<path fill-rule="evenodd" clip-rule="evenodd" d="M449.001 15.4698L451.827 13.8119C452.474 15.5179 453.744 16.3829 455.66 16.3829C457.576 16.3829 458.343 15.638 458.343 14.6048C458.351 14.3253 458.282 14.0489 458.142 13.8068C458.002 13.5648 457.798 13.3668 457.552 13.2352C456.661 12.7524 455.711 12.3889 454.726 12.1539C453.485 11.8433 452.309 11.3145 451.253 10.592C450.727 10.1877 450.308 9.66061 450.033 9.05665C449.757 8.45269 449.633 7.79026 449.672 7.12715C449.642 6.43918 449.772 5.75368 450.05 5.12424C450.328 4.49481 450.748 3.93852 451.276 3.49886C452.37 2.58289 453.757 2.09618 455.181 2.12922C456.438 2.09957 457.676 2.44141 458.74 3.11218C459.805 3.78295 460.65 4.75305 461.169 5.90171L458.39 7.51641C457.72 6.07471 456.642 5.34904 455.181 5.34904C453.815 5.34904 452.977 6.04587 452.977 7.03584C452.973 7.28834 453.03 7.53808 453.142 7.76394C453.255 7.98981 453.42 8.18515 453.624 8.33339C454.419 8.79871 455.273 9.15431 456.163 9.39062L457.313 9.7751C457.68 9.88991 458.039 10.0263 458.39 10.1836C458.76 10.3009 459.114 10.4622 459.444 10.6641C460.076 11.0363 460.616 11.5453 461.025 12.1539C461.45 12.8818 461.665 13.7135 461.648 14.5567C461.674 15.2642 461.534 15.9678 461.238 16.6107C460.943 17.2536 460.501 17.8176 459.947 18.2571C458.69 19.2131 457.14 19.6976 455.564 19.6268C452.259 19.6268 449.935 18.0409 449.001 15.4698ZM439.037 19.2907L438.031 16.2631H431.324L430.318 19.2907H426.749L432.617 2.47076H436.723L442.615 19.2907H439.037ZM432.411 13.1634H437.01L434.711 6.28649L432.411 13.1634ZM473.002 2.46587H469.696V19.2858H473.002V2.46587ZM492.883 19.2907L491.877 16.2631H485.17L484.164 19.2907H480.595L486.463 2.47076H490.559L496.452 19.2907H492.883ZM486.248 13.1634H490.847L488.547 6.28649L486.248 13.1634ZM438.031 45.097L439.037 48.1246H442.615L436.723 31.3046H432.617L426.749 48.1246H430.318L431.324 45.097H438.031ZM437.01 41.9973H432.411L434.711 35.1204L437.01 41.9973ZM459.444 48.1247L456.091 42.2858H453.576V48.1247H450.27V31.3048H456.977C457.712 31.2921 458.442 31.4305 459.122 31.7115C459.802 31.9925 460.417 32.4101 460.929 32.9387C461.454 33.4504 461.87 34.0644 462.15 34.7428C462.43 35.4213 462.569 36.1499 462.558 36.8842C462.541 37.9254 462.227 38.94 461.654 39.8084C461.082 40.6769 460.273 41.363 459.325 41.786L463.037 48.1295L459.444 48.1247ZM453.552 34.3997V39.3783H456.953C457.584 39.3472 458.178 39.0671 458.604 38.599C459.03 38.1309 459.255 37.5128 459.229 36.8794C459.25 36.2492 459.023 35.6361 458.597 35.1722C458.171 34.7083 457.581 34.4308 456.953 34.3997H453.552ZM470.58 43.0807C471.004 44.1505 471.641 45.1227 472.451 45.9382C473.265 46.7648 474.241 47.4139 475.316 47.8447C476.392 48.2756 477.545 48.4789 478.703 48.442C480.14 48.4623 481.558 48.1075 482.818 47.4125C484.078 46.7175 485.136 45.706 485.889 44.4773L483.014 42.8193C482.569 43.5734 481.929 44.1926 481.161 44.6114C480.394 45.0302 479.528 45.2329 478.655 45.1981C477.926 45.2303 477.198 45.1102 476.518 44.8455C475.837 44.5808 475.219 44.1772 474.703 43.6603C474.207 43.13 473.821 42.5068 473.566 41.8265C473.311 41.1461 473.193 40.422 473.217 39.6956C473.191 38.9647 473.309 38.2357 473.563 37.5504C473.818 36.8652 474.205 36.237 474.703 35.7021C475.219 35.1852 475.837 34.7816 476.518 34.5169C477.198 34.2522 477.926 34.1321 478.655 34.1643C479.53 34.1303 480.399 34.336 481.167 34.7593C481.935 35.1826 482.573 35.8075 483.014 36.5671L485.889 34.9091C485.133 33.6827 484.075 32.6731 482.816 31.9783C481.556 31.2836 480.14 30.9275 478.703 30.9445C477.544 30.91 476.39 31.1164 475.314 31.5505C474.238 31.9847 473.263 32.6373 472.451 33.4674C471.637 34.2848 470.998 35.2607 470.573 36.3351C470.149 37.4095 469.948 38.5597 469.984 39.7148C469.953 40.8657 470.156 42.0109 470.58 43.0807ZM503.47 31.3001H506.751V48.12H503.47V41.1517H497.242V48.12H493.937V31.3001H497.242V37.9992H503.47V31.3001ZM519.159 31.3001H515.854V48.12H519.159V31.3001ZM539.351 31.3001V34.4766H534.824V48.1248H531.519V34.4766H527.015V31.3001H539.351ZM557.555 44.9528H550.489L550.499 41.1851H556.846V38.0614H550.499V34.4812H557.445V31.3046H547.184V48.1246H557.555V44.9528ZM567.448 45.9382C566.638 45.1227 566.001 44.1505 565.577 43.0807C565.153 42.0109 564.95 40.8657 564.981 39.7148C564.945 38.5597 565.146 37.4095 565.57 36.3351C565.994 35.2607 566.633 34.2848 567.448 33.4674C568.258 32.6404 569.228 31.9895 570.3 31.5554C571.371 31.1213 572.521 30.9133 573.676 30.9444C575.113 30.9275 576.529 31.2836 577.789 31.9783C579.048 32.6731 580.106 33.6827 580.861 34.9091L577.987 36.5671C577.546 35.8075 576.908 35.1826 576.14 34.7593C575.372 34.336 574.503 34.1303 573.628 34.1642C572.899 34.1321 572.171 34.2522 571.491 34.5169C570.81 34.7816 570.192 35.1852 569.676 35.7021C569.178 36.237 568.791 36.8651 568.536 37.5504C568.282 38.2357 568.164 38.9647 568.19 39.6956C568.166 40.422 568.284 41.1461 568.539 41.8265C568.794 42.5068 569.18 43.13 569.676 43.6603C570.192 44.1772 570.81 44.5807 571.491 44.8455C572.171 45.1102 572.899 45.2303 573.628 45.1981C574.501 45.2329 575.367 45.0302 576.134 44.6114C576.902 44.1926 577.542 43.5734 577.987 42.8193L580.861 44.4773C580.109 45.706 579.051 46.7175 577.791 47.4125C576.531 48.1075 575.113 48.4623 573.676 48.442C572.522 48.4756 571.374 48.2706 570.302 47.8399C569.231 47.4091 568.259 46.7618 567.448 45.9382ZM599.952 34.4766V31.3001H587.626V34.4766H592.119V48.1248H595.425V34.4766H599.952ZM609.437 46.8753C608.842 46.3446 608.372 45.6876 608.061 44.9519C607.75 44.2163 607.607 43.4205 607.641 42.6223V31.3001H610.922V42.3532C610.922 44.1072 611.88 45.2126 614.036 45.2126C616.192 45.2126 617.15 44.1072 617.15 42.3532V31.3001H620.456V42.6223C620.49 43.4205 620.346 44.2163 620.035 44.9519C619.724 45.6876 619.254 46.3446 618.659 46.8753C617.372 47.9682 615.721 48.5345 614.036 48.4612C612.359 48.5284 610.718 47.9625 609.437 46.8753ZM635.258 42.2858L638.612 48.1247L642.205 48.1295L638.492 41.786C639.441 41.363 640.249 40.6769 640.822 39.8084C641.395 38.94 641.708 37.9254 641.726 36.8842C641.736 36.1499 641.597 35.4213 641.317 34.7428C641.037 34.0644 640.622 33.4504 640.097 32.9387C639.584 32.4101 638.969 31.9925 638.289 31.7115C637.61 31.4305 636.88 31.2921 636.145 31.3048H629.438V48.1247H632.743V42.2858H635.258ZM632.719 39.3783V34.3997H636.121C636.748 34.4308 637.339 34.7083 637.764 35.1722C638.19 35.6361 638.417 36.2492 638.396 36.8794C638.422 37.5128 638.198 38.1309 637.771 38.599C637.345 39.0671 636.752 39.3472 636.121 39.3783H632.719ZM653.414 44.9528H660.481V48.1246H650.109V31.3046H660.361V34.4812H653.414V38.0614H659.762V41.1851H653.414V44.9528ZM438.049 60.7317C437.059 60.3135 435.991 60.1099 434.917 60.1343L428.258 60.1391V76.959H434.917C435.991 76.9834 437.059 76.7798 438.049 76.3616C439.04 75.9434 439.931 75.3199 440.665 74.5321C441.432 73.7414 442.032 72.8044 442.431 71.7768C442.83 70.7491 443.02 69.6515 442.989 68.549C443.02 67.4458 442.831 66.3475 442.432 65.319C442.032 64.2906 441.432 63.3528 440.665 62.5611C439.931 61.7733 439.04 61.1499 438.049 60.7317ZM436.844 73.4484C436.232 73.697 435.576 73.8125 434.917 73.7873L431.563 73.8065V63.3301H434.917C435.576 63.3014 436.234 63.4153 436.845 63.6641C437.457 63.9128 438.008 64.2906 438.462 64.7718C439.398 65.7996 439.889 67.1582 439.827 68.549C439.885 69.945 439.394 71.308 438.462 72.3455C438.006 72.824 437.455 73.1999 436.844 73.4484ZM454.63 73.787H461.696V76.9588H451.325V60.1388H461.576V63.3154H454.63V66.8956H460.978V70.0193H454.63V73.787ZM471.972 71.4803L469.145 73.1382C470.08 75.7093 472.403 77.2952 475.732 77.3192C477.308 77.3901 478.859 76.9055 480.116 75.9496C480.669 75.5101 481.111 74.946 481.407 74.3031C481.702 73.6603 481.842 72.9566 481.816 72.2492C481.834 71.4059 481.618 70.5743 481.194 69.8463C480.784 69.2377 480.244 68.7287 479.613 68.3566C479.284 68.1444 478.93 67.9748 478.559 67.852C478.209 67.6926 477.849 67.5561 477.481 67.4435L476.331 67.0542C475.44 66.8222 474.585 66.4664 473.792 65.997C473.588 65.8493 473.422 65.6541 473.31 65.4281C473.197 65.2021 473.141 64.9521 473.145 64.6994C473.145 63.7143 473.984 63.0174 475.349 63.0174C476.81 63.0174 477.888 63.7383 478.559 65.18L481.337 63.5701C480.818 62.4214 479.973 61.4514 478.909 60.7806C477.844 60.1098 476.606 59.768 475.349 59.7976C473.925 59.7646 472.538 60.2513 471.445 61.1672C470.916 61.6067 470.496 62.1629 470.218 62.7924C469.939 63.4219 469.81 64.1075 469.84 64.7956C469.801 65.458 469.925 66.1199 470.201 66.7232C470.476 67.3264 470.895 67.8526 471.421 68.2556C472.476 68.9817 473.652 69.5123 474.894 69.8223C475.879 70.0573 476.829 70.4208 477.72 70.9036C477.966 71.0352 478.171 71.2332 478.31 71.4753C478.45 71.7173 478.52 71.9937 478.511 72.2732C478.511 73.3064 477.673 74.0513 475.828 74.0513C473.912 74.0513 472.618 73.1863 471.972 71.4803ZM489.841 60.1343H493.146V76.9542H489.841V60.1343ZM518.169 72.3847C518.564 71.3792 518.747 70.3019 518.704 69.2217V67.9242L510.296 67.905V70.8364H515.374C514.8 72.8308 513.051 74.0322 510.488 74.0322C509.726 74.0687 508.965 73.9513 508.249 73.6872C507.533 73.423 506.877 73.0174 506.32 72.4944C505.807 71.9783 505.405 71.3627 505.137 70.6851C504.869 70.0075 504.742 69.2823 504.763 68.5537C504.735 67.8229 504.857 67.094 505.121 66.4121C505.384 65.7302 505.784 65.1098 506.296 64.589C506.809 64.0626 507.425 63.6493 508.105 63.3754C508.786 63.1015 509.516 62.973 510.249 62.9983C512.237 62.9983 513.961 63.9595 514.752 65.3339L517.578 63.6952C516.799 62.4675 515.717 61.4621 514.437 60.7761C513.158 60.09 511.723 59.7464 510.273 59.7785C509.108 59.7497 507.951 59.9608 506.871 60.3989C505.792 60.837 504.813 61.4928 503.997 62.3256C503.177 63.1409 502.53 64.1153 502.098 65.1894C501.666 66.2636 501.456 67.4148 501.482 68.573C501.46 69.7255 501.674 70.8702 502.111 71.9365C502.548 73.0028 503.198 73.9679 504.021 74.7723C504.87 75.6069 505.878 76.2607 506.985 76.6943C508.093 77.1279 509.276 77.3323 510.464 77.2953C511.553 77.3377 512.639 77.162 513.659 76.7783C514.679 76.3946 515.612 75.8106 516.404 75.0606C517.172 74.3016 517.773 73.3901 518.169 72.3847ZM536.74 60.1343H540.046V76.9542H537.531L530.345 66.67V76.9542H527.039V60.1343H529.554L536.74 70.3992V60.1343ZM438.031 102.765L439.037 105.793H442.615L436.723 88.973H432.617L426.749 105.793H430.318L431.324 102.765H438.031ZM437.01 99.6657H432.411L434.711 92.7888L437.01 99.6657ZM452.053 105.793L447.358 88.973H450.831L454.041 101.468L457.538 88.973H460.364L463.885 101.468L467.095 88.973H470.568L465.873 105.793H462.113L458.951 94.687L455.813 105.793H452.053ZM486.463 102.765L487.469 105.793H491.062L485.17 88.973H481.074L475.205 105.793H478.774L479.78 102.765H486.463ZM483.134 92.7888L485.433 99.6657H480.834L483.134 92.7888ZM507.877 105.793L504.524 99.9542H502.009V105.793H498.703V88.9732H505.41C506.145 88.9605 506.875 89.0989 507.555 89.3799C508.234 89.6609 508.849 90.0785 509.362 90.6071C509.887 91.1188 510.302 91.7328 510.582 92.4112C510.863 93.0897 511.002 93.8183 510.991 94.5526C510.974 95.5938 510.66 96.6084 510.087 97.4768C509.514 98.3453 508.706 99.0314 507.757 99.4544L511.47 105.798L507.877 105.793ZM501.985 92.0681V97.0467H505.386C506.017 97.0156 506.61 96.7355 507.037 96.2674C507.463 95.7993 507.687 95.1812 507.661 94.5478C507.682 93.9176 507.455 93.3045 507.03 92.8406C506.604 92.3767 506.014 92.0992 505.386 92.0681H501.985ZM529.166 89.5659C528.176 89.1477 527.108 88.9441 526.033 88.9685L519.375 88.9733V105.793H526.033C527.108 105.818 528.176 105.614 529.166 105.196C530.157 104.778 531.048 104.154 531.782 103.366C532.549 102.576 533.149 101.639 533.548 100.611C533.947 99.5833 534.137 98.4857 534.106 97.3832C534.137 96.28 533.947 95.1817 533.548 94.1532C533.149 93.1248 532.549 92.187 531.782 91.3953C531.048 90.6075 530.157 89.9841 529.166 89.5659ZM527.96 102.283C527.349 102.531 526.692 102.647 526.033 102.621L522.68 102.641V92.1643H526.033C526.693 92.1356 527.351 92.2495 527.962 92.4983C528.574 92.747 529.125 93.1248 529.578 93.606C530.515 94.6338 531.006 95.9924 530.944 97.3832C531.001 98.7792 530.511 100.142 529.578 101.18C529.123 101.658 528.571 102.034 527.96 102.283ZM540.98 101.972L543.807 100.314C544.453 102.02 545.723 102.886 547.639 102.886C549.555 102.886 550.322 102.141 550.322 101.107C550.33 100.828 550.261 100.551 550.121 100.309C549.982 100.067 549.777 99.8694 549.531 99.7378C548.64 99.255 547.69 98.8915 546.705 98.6565C545.463 98.3465 544.287 97.8159 543.232 97.0898C542.706 96.6868 542.287 96.1606 542.011 95.5574C541.736 94.9541 541.612 94.2922 541.651 93.6297C541.621 92.9417 541.75 92.2561 542.029 91.6266C542.307 90.9971 542.727 90.4409 543.256 90.0014C544.349 89.0855 545.736 88.5988 547.16 88.6318C548.417 88.6022 549.655 88.944 550.719 89.6148C551.784 90.2855 552.629 91.2556 553.148 92.4043L550.37 94.0142C549.699 92.5725 548.621 91.8516 547.16 91.8516C545.795 91.8516 544.956 92.5485 544.956 93.5336C544.951 93.7863 545.008 94.0363 545.12 94.2623C545.233 94.4883 545.399 94.6835 545.603 94.8312C546.396 95.3006 547.251 95.6564 548.142 95.8884L549.292 96.2777C549.659 96.3903 550.019 96.5268 550.37 96.6862C550.741 96.809 551.095 96.9786 551.424 97.1908C552.055 97.5629 552.595 98.0719 553.004 98.6805C553.429 99.4085 553.645 100.24 553.627 101.083C553.653 101.791 553.513 102.494 553.217 103.137C552.922 103.78 552.48 104.344 551.926 104.784C550.67 105.74 549.119 106.224 547.543 106.153C544.238 106.129 541.914 104.543 540.98 101.972ZM367.313 14.9458L372.259 2.20105L413.667 106.186C410.847 106.185 408.094 105.287 405.775 103.614C403.455 101.94 401.678 99.5698 400.681 96.8173L400.558 96.4735L367.313 14.9458ZM365.346 19.0651L365.507 19.4831L398.826 106.126L398.913 106.353L398.67 106.353C395.814 106.352 393.027 105.444 390.679 103.75C388.331 102.057 386.534 99.6579 385.526 96.8742L385.526 96.8736L385.405 96.5346L385.403 96.5299L360.425 32.7901L360.402 32.7315L360.424 32.6723L365.194 19.4862L365.346 19.0651ZM365.355 20.0211L360.76 32.7268L385.716 96.4126L385.718 96.4173L385.718 96.4173L385.841 96.7605L385.841 96.7609C386.826 99.4829 388.582 101.826 390.874 103.479C393.099 105.084 395.726 105.966 398.426 106.017L365.355 20.0211ZM353.692 50.0811L358.609 37.3671L383.692 106.196C380.871 106.196 378.118 105.3 375.798 103.626C373.478 101.952 371.702 99.5808 370.706 96.8275L370.583 96.4837L353.692 50.0811ZM351.391 60.5889L344.674 79.1315L358.363 79.1109C358.754 79.1097 359.135 79.2328 359.457 79.4638C359.778 79.6949 360.025 80.0229 360.163 80.4039H344.172L335.321 104.785C335.176 105.199 334.914 105.557 334.569 105.811C334.225 106.06 333.817 106.194 333.398 106.196L351.391 56.4022C351.88 57.7511 351.88 59.24 351.391 60.5889Z" fill="url(#paint0_linear_5721_23197)"/>
<defs>
<linearGradient id="paint0_linear_5721_23197" x1="333.398" y1="54.2378" x2="660.481" y2="54.2378" gradientUnits="userSpaceOnUse">
<stop stop-color="#FAC47E"/>
<stop offset="1" stop-color="#A67F56"/>
</linearGradient>
<clipPath id="clip0_5721_23197">
<rect width="256.833" height="115" fill="white" transform="translate(0.72998)"/>
</clipPath>
</defs>
</svg>
