<svg width="13" height="10" viewBox="0 0 13 10" fill="none" xmlns="http://www.w3.org/2000/svg">
<path d="M12.4 4.99999C12.3982 5.07579 12.384 5.15078 12.358 5.22199C12.3441 5.24734 12.3281 5.27143 12.31 5.29399C12.2943 5.32724 12.2763 5.35932 12.256 5.39L8.65601 9.59C8.51668 9.75291 8.30101 9.82911 8.09026 9.7899C7.87951 9.75069 7.70568 9.60203 7.63426 9.3999C7.56284 9.19778 7.60468 8.97291 7.74401 8.81L10.498 5.6H1.00001C0.668638 5.6 0.400009 5.33137 0.400009 4.99999C0.400009 4.66862 0.668638 4.39999 1.00001 4.39999H10.498L7.74401 1.18999C7.60468 1.02708 7.56284 0.80221 7.63426 0.600087C7.70568 0.397964 7.87951 0.249297 8.09026 0.210087C8.30101 0.170877 8.51668 0.247082 8.65601 0.409995L12.256 4.60999C12.2763 4.64067 12.2943 4.67275 12.31 4.706C12.3281 4.72856 12.3441 4.75265 12.358 4.778C12.384 4.84921 12.3982 4.9242 12.4 4.99999Z" fill="white"/>
</svg>
