<svg width="764" height="90" viewBox="0 0 764 90" fill="none" xmlns="http://www.w3.org/2000/svg">
<g clip-path="url(#clip0_207_1315)">
<rect width="764" height="90" fill="#A67F56"/>
<path d="M182.387 52V38.263H187.128C188.027 38.263 188.793 38.3485 189.427 38.5195C190.066 38.6905 190.589 38.9343 190.994 39.251C191.406 39.5677 191.707 39.9508 191.897 40.4005C192.087 40.8502 192.182 41.3568 192.182 41.9205C192.182 42.2435 192.134 42.5538 192.039 42.8515C191.944 43.1428 191.795 43.4183 191.593 43.678C191.396 43.9313 191.143 44.1625 190.833 44.3715C190.529 44.5805 190.164 44.7578 189.74 44.9035C191.627 45.3278 192.571 46.3475 192.571 47.9625C192.571 48.5452 192.46 49.0835 192.239 49.5775C192.017 50.0715 191.694 50.499 191.27 50.86C190.845 51.2147 190.323 51.4933 189.702 51.696C189.081 51.8987 188.372 52 187.574 52H182.387ZM184.943 45.977V50.005H187.536C188.011 50.005 188.407 49.948 188.724 49.834C189.047 49.72 189.303 49.568 189.493 49.378C189.689 49.188 189.829 48.9663 189.911 48.713C190 48.4597 190.044 48.1905 190.044 47.9055C190.044 47.6078 189.997 47.3418 189.902 47.1075C189.807 46.8668 189.658 46.6642 189.455 46.4995C189.252 46.3285 188.993 46.1987 188.676 46.11C188.359 46.0213 187.976 45.977 187.527 45.977H184.943ZM184.943 44.21H186.985C187.853 44.21 188.511 44.0517 188.961 43.735C189.411 43.4183 189.636 42.9148 189.636 42.2245C189.636 41.5088 189.433 40.999 189.028 40.695C188.622 40.391 187.989 40.239 187.128 40.239H184.943V44.21ZM204.377 38.263V40.296H198.287V44.1055H203.085V46.072H198.287V49.9575H204.377V52H195.713V38.263H204.377ZM214.899 40.7615C214.829 40.9008 214.747 40.999 214.652 41.056C214.563 41.113 214.455 41.1415 214.329 41.1415C214.202 41.1415 214.059 41.094 213.901 40.999C213.743 40.8977 213.556 40.7868 213.341 40.6665C213.125 40.5462 212.872 40.4385 212.581 40.3435C212.296 40.2422 211.957 40.1915 211.564 40.1915C211.209 40.1915 210.899 40.2358 210.633 40.3245C210.373 40.4068 210.152 40.524 209.968 40.676C209.791 40.828 209.658 41.0117 209.569 41.227C209.48 41.436 209.436 41.6672 209.436 41.9205C209.436 42.2435 209.525 42.5127 209.702 42.728C209.886 42.9433 210.126 43.127 210.424 43.279C210.722 43.431 211.061 43.5672 211.441 43.6875C211.821 43.8078 212.207 43.9377 212.6 44.077C212.999 44.21 213.388 44.3683 213.768 44.552C214.148 44.7293 214.487 44.9573 214.785 45.236C215.082 45.5083 215.32 45.844 215.497 46.243C215.681 46.642 215.773 47.1265 215.773 47.6965C215.773 48.3172 215.665 48.8998 215.45 49.4445C215.241 49.9828 214.93 50.4547 214.519 50.86C214.113 51.259 213.616 51.5757 213.027 51.81C212.438 52.038 211.764 52.152 211.004 52.152C210.567 52.152 210.136 52.1077 209.712 52.019C209.287 51.9367 208.879 51.8163 208.486 51.658C208.1 51.4997 207.736 51.3097 207.394 51.088C207.058 50.8663 206.757 50.6193 206.491 50.347L207.232 49.1215C207.302 49.0328 207.384 48.96 207.479 48.903C207.58 48.8397 207.691 48.808 207.812 48.808C207.97 48.808 208.141 48.8745 208.325 49.0075C208.508 49.1342 208.724 49.2767 208.971 49.435C209.224 49.5933 209.518 49.739 209.854 49.872C210.196 49.9987 210.605 50.062 211.08 50.062C211.808 50.062 212.372 49.891 212.771 49.549C213.17 49.2007 213.369 48.7035 213.369 48.0575C213.369 47.6965 213.277 47.402 213.094 47.174C212.916 46.946 212.679 46.756 212.381 46.604C212.083 46.4457 211.745 46.3127 211.365 46.205C210.985 46.0973 210.598 45.9802 210.206 45.8535C209.813 45.7268 209.427 45.5748 209.047 45.3975C208.667 45.2202 208.328 44.989 208.03 44.704C207.732 44.419 207.492 44.0643 207.308 43.64C207.131 43.2093 207.042 42.6805 207.042 42.0535C207.042 41.5532 207.14 41.0655 207.337 40.5905C207.539 40.1155 207.831 39.6943 208.211 39.327C208.597 38.9597 209.069 38.6652 209.626 38.4435C210.183 38.2218 210.82 38.111 211.536 38.111C212.346 38.111 213.094 38.2377 213.778 38.491C214.462 38.7443 215.044 39.099 215.526 39.555L214.899 40.7615ZM228.353 38.263V40.3625H224.221V52H221.665V40.3625H217.514V38.263H228.353ZM247.136 52H244.562V45.996H238.121V52H235.546V38.263H238.121V44.172H244.562V38.263H247.136V52ZM264.034 45.1315C264.034 46.1385 263.866 47.0727 263.531 47.934C263.195 48.789 262.723 49.53 262.115 50.157C261.507 50.784 260.776 51.2748 259.921 51.6295C259.066 51.9778 258.119 52.152 257.08 52.152C256.041 52.152 255.091 51.9778 254.23 51.6295C253.375 51.2748 252.64 50.784 252.026 50.157C251.418 49.53 250.946 48.789 250.611 47.934C250.275 47.0727 250.107 46.1385 250.107 45.1315C250.107 44.1245 250.275 43.1935 250.611 42.3385C250.946 41.4772 251.418 40.733 252.026 40.106C252.64 39.479 253.375 38.9913 254.23 38.643C255.091 38.2883 256.041 38.111 257.08 38.111C258.119 38.111 259.066 38.2883 259.921 38.643C260.776 38.9977 261.507 39.4885 262.115 40.1155C262.723 40.7362 263.195 41.4772 263.531 42.3385C263.866 43.1935 264.034 44.1245 264.034 45.1315ZM261.412 45.1315C261.412 44.3778 261.311 43.7033 261.108 43.108C260.912 42.5063 260.627 41.9965 260.253 41.5785C259.879 41.1605 259.423 40.8407 258.885 40.619C258.353 40.3973 257.751 40.2865 257.08 40.2865C256.409 40.2865 255.804 40.3973 255.266 40.619C254.727 40.8407 254.268 41.1605 253.888 41.5785C253.514 41.9965 253.226 42.5063 253.024 43.108C252.821 43.7033 252.72 44.3778 252.72 45.1315C252.72 45.8852 252.821 46.5628 253.024 47.1645C253.226 47.7598 253.514 48.2665 253.888 48.6845C254.268 49.0962 254.727 49.4128 255.266 49.6345C255.804 49.8562 256.409 49.967 257.08 49.967C257.751 49.967 258.353 49.8562 258.885 49.6345C259.423 49.4128 259.879 49.0962 260.253 48.6845C260.627 48.2665 260.912 47.7598 261.108 47.1645C261.311 46.5628 261.412 45.8852 261.412 45.1315ZM274.366 40.7615C274.297 40.9008 274.214 40.999 274.119 41.056C274.031 41.113 273.923 41.1415 273.796 41.1415C273.67 41.1415 273.527 41.094 273.369 40.999C273.21 40.8977 273.024 40.7868 272.808 40.6665C272.593 40.5462 272.34 40.4385 272.048 40.3435C271.763 40.2422 271.424 40.1915 271.032 40.1915C270.677 40.1915 270.367 40.2358 270.101 40.3245C269.841 40.4068 269.619 40.524 269.436 40.676C269.258 40.828 269.125 41.0117 269.037 41.227C268.948 41.436 268.904 41.6672 268.904 41.9205C268.904 42.2435 268.992 42.5127 269.17 42.728C269.353 42.9433 269.594 43.127 269.892 43.279C270.189 43.431 270.528 43.5672 270.908 43.6875C271.288 43.8078 271.675 43.9377 272.067 44.077C272.466 44.21 272.856 44.3683 273.236 44.552C273.616 44.7293 273.955 44.9573 274.252 45.236C274.55 45.5083 274.787 45.844 274.965 46.243C275.148 46.642 275.24 47.1265 275.24 47.6965C275.24 48.3172 275.133 48.8998 274.917 49.4445C274.708 49.9828 274.398 50.4547 273.986 50.86C273.581 51.259 273.084 51.5757 272.495 51.81C271.906 52.038 271.231 52.152 270.471 52.152C270.034 52.152 269.604 52.1077 269.179 52.019C268.755 51.9367 268.346 51.8163 267.954 51.658C267.567 51.4997 267.203 51.3097 266.861 51.088C266.526 50.8663 266.225 50.6193 265.959 50.347L266.7 49.1215C266.769 49.0328 266.852 48.96 266.947 48.903C267.048 48.8397 267.159 48.808 267.279 48.808C267.438 48.808 267.609 48.8745 267.792 49.0075C267.976 49.1342 268.191 49.2767 268.438 49.435C268.692 49.5933 268.986 49.739 269.322 49.872C269.664 49.9987 270.072 50.062 270.547 50.062C271.276 50.062 271.839 49.891 272.238 49.549C272.637 49.2007 272.837 48.7035 272.837 48.0575C272.837 47.6965 272.745 47.402 272.561 47.174C272.384 46.946 272.146 46.756 271.849 46.604C271.551 46.4457 271.212 46.3127 270.832 46.205C270.452 46.0973 270.066 45.9802 269.673 45.8535C269.281 45.7268 268.894 45.5748 268.514 45.3975C268.134 45.2202 267.795 44.989 267.498 44.704C267.2 44.419 266.959 44.0643 266.776 43.64C266.598 43.2093 266.51 42.6805 266.51 42.0535C266.51 41.5532 266.608 41.0655 266.804 40.5905C267.007 40.1155 267.298 39.6943 267.678 39.327C268.065 38.9597 268.536 38.6652 269.094 38.4435C269.651 38.2218 270.288 38.111 271.003 38.111C271.814 38.111 272.561 38.2377 273.245 38.491C273.929 38.7443 274.512 39.099 274.993 39.555L274.366 40.7615ZM280.781 47.1645V52H278.226V38.263H282.7C283.619 38.263 284.413 38.3707 285.085 38.586C285.756 38.8013 286.31 39.1022 286.747 39.4885C287.184 39.8748 287.507 40.3372 287.716 40.8755C287.925 41.4138 288.03 42.0028 288.03 42.6425C288.03 43.3075 287.919 43.9187 287.697 44.476C287.476 45.027 287.143 45.502 286.7 45.901C286.256 46.3 285.702 46.6103 285.037 46.832C284.372 47.0537 283.593 47.1645 282.7 47.1645H280.781ZM280.781 45.1695H282.7C283.169 45.1695 283.577 45.1125 283.926 44.9985C284.274 44.8782 284.562 44.7103 284.79 44.495C285.018 44.2733 285.189 44.0073 285.303 43.697C285.417 43.3803 285.474 43.0288 285.474 42.6425C285.474 42.2752 285.417 41.9427 285.303 41.645C285.189 41.3473 285.018 41.094 284.79 40.885C284.562 40.676 284.274 40.5177 283.926 40.41C283.577 40.296 283.169 40.239 282.7 40.239H280.781V45.1695ZM293.844 52H291.279V38.263H293.844V52ZM307.57 38.263V40.3625H303.438V52H300.882V40.3625H296.731V38.263H307.57ZM320.823 52H318.847C318.625 52 318.441 51.9462 318.296 51.8385C318.156 51.7245 318.055 51.5852 317.992 51.4205L316.966 48.618H311.275L310.249 51.4205C310.198 51.5662 310.097 51.6992 309.945 51.8195C309.799 51.9398 309.619 52 309.404 52H307.418L312.814 38.263H315.427L320.823 52ZM311.931 46.813H316.31L314.638 42.2435C314.562 42.0408 314.477 41.8033 314.382 41.531C314.293 41.2523 314.204 40.9515 314.116 40.6285C314.027 40.9515 313.938 41.2523 313.85 41.531C313.767 41.8097 313.685 42.0535 313.603 42.2625L311.931 46.813ZM325.743 49.891H331.243V52H323.187V38.263H325.743V49.891ZM336.831 52H334.266V38.263H336.831V52ZM350.558 38.263V40.3625H346.425V52H343.87V40.3625H339.718V38.263H350.558ZM359.236 46.661V52H356.68V46.661L351.674 38.263H353.925C354.147 38.263 354.321 38.3168 354.448 38.4245C354.581 38.5322 354.692 38.6683 354.78 38.833L357.298 43.4215C357.443 43.6938 357.57 43.9535 357.678 44.2005C357.785 44.4412 357.884 44.6787 357.972 44.913C358.055 44.6723 358.146 44.4317 358.248 44.191C358.355 43.944 358.482 43.6875 358.628 43.4215L361.126 38.833C361.196 38.6937 361.3 38.5638 361.44 38.4435C361.579 38.3232 361.756 38.263 361.972 38.263H364.233L359.236 46.661ZM383.207 52H381.231C381.01 52 380.826 51.9462 380.68 51.8385C380.541 51.7245 380.44 51.5852 380.376 51.4205L379.35 48.618H373.66L372.634 51.4205C372.583 51.5662 372.482 51.6992 372.33 51.8195C372.184 51.9398 372.004 52 371.788 52H369.803L375.199 38.263H377.811L383.207 52ZM374.315 46.813H378.695L377.023 42.2435C376.947 42.0408 376.861 41.8033 376.766 41.531C376.678 41.2523 376.589 40.9515 376.5 40.6285C376.412 40.9515 376.323 41.2523 376.234 41.531C376.152 41.8097 376.07 42.0535 375.987 42.2625L374.315 46.813ZM388.213 46.6325V52H385.657V38.263H389.847C390.784 38.263 391.585 38.3612 392.25 38.5575C392.922 38.7475 393.47 39.0167 393.894 39.365C394.325 39.7133 394.638 40.1313 394.834 40.619C395.037 41.1003 395.138 41.6323 395.138 42.215C395.138 42.6773 395.069 43.1143 394.929 43.526C394.796 43.9377 394.6 44.3113 394.34 44.647C394.087 44.9827 393.77 45.2772 393.39 45.5305C393.017 45.7838 392.589 45.9865 392.108 46.1385C392.431 46.3222 392.71 46.585 392.944 46.927L396.383 52H394.084C393.862 52 393.672 51.9557 393.514 51.867C393.362 51.7783 393.232 51.6517 393.124 51.487L390.236 47.0885C390.129 46.9238 390.008 46.8067 389.875 46.737C389.749 46.6673 389.559 46.6325 389.305 46.6325H388.213ZM388.213 44.799H389.809C390.29 44.799 390.708 44.7388 391.063 44.6185C391.424 44.4982 391.718 44.3335 391.946 44.1245C392.181 43.9092 392.355 43.6558 392.469 43.3645C392.583 43.0732 392.64 42.7533 392.64 42.405C392.64 41.7083 392.409 41.1732 391.946 40.7995C391.49 40.4258 390.791 40.239 389.847 40.239H388.213V44.799ZM407.951 48.7605C408.091 48.7605 408.211 48.8143 408.312 48.922L409.319 50.0145C408.762 50.7048 408.075 51.2337 407.258 51.601C406.447 51.9683 405.472 52.152 404.332 52.152C403.312 52.152 402.394 51.9778 401.577 51.6295C400.766 51.2812 400.073 50.7967 399.496 50.176C398.92 49.5553 398.477 48.8143 398.166 47.953C397.862 47.0917 397.71 46.1512 397.71 45.1315C397.71 44.0992 397.881 43.1555 398.223 42.3005C398.565 41.4392 399.047 40.6982 399.667 40.0775C400.288 39.4568 401.029 38.9755 401.89 38.6335C402.758 38.2852 403.714 38.111 404.759 38.111C405.779 38.111 406.669 38.2757 407.429 38.605C408.195 38.928 408.851 39.3587 409.395 39.897L408.54 41.0845C408.49 41.1605 408.423 41.227 408.341 41.284C408.265 41.341 408.157 41.3695 408.018 41.3695C407.872 41.3695 407.723 41.3125 407.571 41.1985C407.419 41.0845 407.226 40.961 406.992 40.828C406.757 40.695 406.46 40.5715 406.099 40.4575C405.744 40.3435 405.291 40.2865 404.74 40.2865C404.094 40.2865 403.499 40.4005 402.954 40.6285C402.416 40.8502 401.95 41.17 401.558 41.588C401.171 42.006 400.867 42.5158 400.646 43.1175C400.43 43.7128 400.323 44.3842 400.323 45.1315C400.323 45.9042 400.43 46.5913 400.646 47.193C400.867 47.7947 401.165 48.3013 401.539 48.713C401.912 49.1247 402.353 49.4413 402.859 49.663C403.366 49.8783 403.911 49.986 404.493 49.986C404.842 49.986 405.155 49.967 405.434 49.929C405.719 49.891 405.978 49.8308 406.213 49.7485C406.453 49.6662 406.678 49.5617 406.887 49.435C407.103 49.302 407.315 49.1405 407.524 48.9505C407.587 48.8935 407.654 48.8492 407.723 48.8175C407.793 48.7795 407.869 48.7605 407.951 48.7605ZM423.795 52H421.221V45.996H414.78V52H412.205V38.263H414.78V44.172H421.221V38.263H423.795V52ZM430.395 52H427.83V38.263H430.395V52ZM444.122 38.263V40.3625H439.989V52H437.434V40.3625H433.282V38.263H444.122ZM455.355 38.263V40.296H449.266V44.1055H454.063V46.072H449.266V49.9575H455.355V52H446.691V38.263H455.355ZM467.957 48.7605C468.096 48.7605 468.217 48.8143 468.318 48.922L469.325 50.0145C468.768 50.7048 468.081 51.2337 467.264 51.601C466.453 51.9683 465.478 52.152 464.338 52.152C463.318 52.152 462.4 51.9778 461.583 51.6295C460.772 51.2812 460.078 50.7967 459.502 50.176C458.926 49.5553 458.482 48.8143 458.172 47.953C457.868 47.0917 457.716 46.1512 457.716 45.1315C457.716 44.0992 457.887 43.1555 458.229 42.3005C458.571 41.4392 459.052 40.6982 459.673 40.0775C460.294 39.4568 461.035 38.9755 461.896 38.6335C462.764 38.2852 463.72 38.111 464.765 38.111C465.785 38.111 466.675 38.2757 467.435 38.605C468.201 38.928 468.856 39.3587 469.401 39.897L468.546 41.0845C468.495 41.1605 468.429 41.227 468.347 41.284C468.271 41.341 468.163 41.3695 468.024 41.3695C467.878 41.3695 467.729 41.3125 467.577 41.1985C467.425 41.0845 467.232 40.961 466.998 40.828C466.763 40.695 466.466 40.5715 466.105 40.4575C465.75 40.3435 465.297 40.2865 464.746 40.2865C464.1 40.2865 463.505 40.4005 462.96 40.6285C462.422 40.8502 461.956 41.17 461.564 41.588C461.177 42.006 460.873 42.5158 460.652 43.1175C460.436 43.7128 460.329 44.3842 460.329 45.1315C460.329 45.9042 460.436 46.5913 460.652 47.193C460.873 47.7947 461.171 48.3013 461.545 48.713C461.918 49.1247 462.358 49.4413 462.865 49.663C463.372 49.8783 463.916 49.986 464.499 49.986C464.847 49.986 465.161 49.967 465.44 49.929C465.725 49.891 465.984 49.8308 466.219 49.7485C466.459 49.6662 466.684 49.5617 466.893 49.435C467.108 49.302 467.321 49.1405 467.53 48.9505C467.593 48.8935 467.659 48.8492 467.729 48.8175C467.799 48.7795 467.875 48.7605 467.957 48.7605ZM481.892 38.263V40.3625H477.759V52H475.204V40.3625H471.052V38.263H481.892ZM489.99 49.9385C490.484 49.9385 490.924 49.8562 491.311 49.6915C491.703 49.5268 492.033 49.2957 492.299 48.998C492.571 48.7003 492.777 48.3393 492.916 47.915C493.062 47.4907 493.135 47.0157 493.135 46.49V38.263H495.69V46.49C495.69 47.307 495.557 48.0638 495.291 48.7605C495.031 49.4508 494.655 50.0493 494.161 50.556C493.667 51.0563 493.068 51.449 492.365 51.734C491.662 52.0127 490.87 52.152 489.99 52.152C489.11 52.152 488.318 52.0127 487.615 51.734C486.912 51.449 486.314 51.0563 485.82 50.556C485.332 50.0493 484.955 49.4508 484.689 48.7605C484.429 48.0638 484.3 47.307 484.3 46.49V38.263H486.855V46.4805C486.855 47.0062 486.925 47.4812 487.064 47.9055C487.21 48.3298 487.416 48.694 487.682 48.998C487.948 49.2957 488.274 49.5268 488.66 49.6915C489.053 49.8562 489.496 49.9385 489.99 49.9385ZM501.875 46.6325V52H499.32V38.263H503.509C504.447 38.263 505.248 38.3612 505.913 38.5575C506.584 38.7475 507.132 39.0167 507.556 39.365C507.987 39.7133 508.3 40.1313 508.497 40.619C508.699 41.1003 508.801 41.6323 508.801 42.215C508.801 42.6773 508.731 43.1143 508.592 43.526C508.459 43.9377 508.262 44.3113 508.003 44.647C507.749 44.9827 507.433 45.2772 507.053 45.5305C506.679 45.7838 506.252 45.9865 505.77 46.1385C506.093 46.3222 506.372 46.585 506.606 46.927L510.045 52H507.746C507.525 52 507.335 51.9557 507.176 51.867C507.024 51.7783 506.894 51.6517 506.787 51.487L503.899 47.0885C503.791 46.9238 503.671 46.8067 503.538 46.737C503.411 46.6673 503.221 46.6325 502.968 46.6325H501.875ZM501.875 44.799H503.471C503.953 44.799 504.371 44.7388 504.725 44.6185C505.086 44.4982 505.381 44.3335 505.609 44.1245C505.843 43.9092 506.017 43.6558 506.131 43.3645C506.245 43.0732 506.302 42.7533 506.302 42.405C506.302 41.7083 506.071 41.1732 505.609 40.7995C505.153 40.4258 504.453 40.239 503.509 40.239H501.875V44.799ZM521.298 38.263V40.296H515.209V44.1055H520.006V46.072H515.209V49.9575H521.298V52H512.634V38.263H521.298ZM541.279 45.1315C541.279 46.1385 541.112 47.0632 540.776 47.9055C540.44 48.7478 539.968 49.473 539.36 50.081C538.752 50.689 538.021 51.1608 537.166 51.4965C536.311 51.8322 535.364 52 534.325 52H529.081V38.263H534.325C535.364 38.263 536.311 38.434 537.166 38.776C538.021 39.1117 538.752 39.5835 539.36 40.1915C539.968 40.7932 540.44 41.5152 540.776 42.3575C541.112 43.1998 541.279 44.1245 541.279 45.1315ZM538.667 45.1315C538.667 44.3778 538.566 43.7033 538.363 43.108C538.16 42.5063 537.872 41.9997 537.498 41.588C537.125 41.17 536.669 40.8502 536.13 40.6285C535.598 40.4068 534.997 40.296 534.325 40.296H531.656V49.967H534.325C534.997 49.967 535.598 49.8562 536.13 49.6345C536.669 49.4128 537.125 49.0962 537.498 48.6845C537.872 48.2665 538.16 47.7598 538.363 47.1645C538.566 46.5628 538.667 45.8852 538.667 45.1315ZM552.89 38.263V40.296H546.8V44.1055H551.598V46.072H546.8V49.9575H552.89V52H544.226V38.263H552.89ZM563.411 40.7615C563.342 40.9008 563.259 40.999 563.164 41.056C563.076 41.113 562.968 41.1415 562.841 41.1415C562.715 41.1415 562.572 41.094 562.414 40.999C562.255 40.8977 562.069 40.7868 561.853 40.6665C561.638 40.5462 561.385 40.4385 561.093 40.3435C560.808 40.2422 560.469 40.1915 560.077 40.1915C559.722 40.1915 559.412 40.2358 559.146 40.3245C558.886 40.4068 558.664 40.524 558.481 40.676C558.303 40.828 558.17 41.0117 558.082 41.227C557.993 41.436 557.949 41.6672 557.949 41.9205C557.949 42.2435 558.037 42.5127 558.215 42.728C558.398 42.9433 558.639 43.127 558.937 43.279C559.234 43.431 559.573 43.5672 559.953 43.6875C560.333 43.8078 560.72 43.9377 561.112 44.077C561.511 44.21 561.901 44.3683 562.281 44.552C562.661 44.7293 563 44.9573 563.297 45.236C563.595 45.5083 563.832 45.844 564.01 46.243C564.193 46.642 564.285 47.1265 564.285 47.6965C564.285 48.3172 564.178 48.8998 563.962 49.4445C563.753 49.9828 563.443 50.4547 563.031 50.86C562.626 51.259 562.129 51.5757 561.54 51.81C560.951 52.038 560.276 52.152 559.516 52.152C559.079 52.152 558.649 52.1077 558.224 52.019C557.8 51.9367 557.391 51.8163 556.999 51.658C556.612 51.4997 556.248 51.3097 555.906 51.088C555.571 50.8663 555.27 50.6193 555.004 50.347L555.745 49.1215C555.814 49.0328 555.897 48.96 555.992 48.903C556.093 48.8397 556.204 48.808 556.324 48.808C556.483 48.808 556.654 48.8745 556.837 49.0075C557.021 49.1342 557.236 49.2767 557.483 49.435C557.737 49.5933 558.031 49.739 558.367 49.872C558.709 49.9987 559.117 50.062 559.592 50.062C560.321 50.062 560.884 49.891 561.283 49.549C561.682 49.2007 561.882 48.7035 561.882 48.0575C561.882 47.6965 561.79 47.402 561.606 47.174C561.429 46.946 561.191 46.756 560.894 46.604C560.596 46.4457 560.257 46.3127 559.877 46.205C559.497 46.0973 559.111 45.9802 558.718 45.8535C558.326 45.7268 557.939 45.5748 557.559 45.3975C557.179 45.2202 556.84 44.989 556.543 44.704C556.245 44.419 556.004 44.0643 555.821 43.64C555.643 43.2093 555.555 42.6805 555.555 42.0535C555.555 41.5532 555.653 41.0655 555.849 40.5905C556.052 40.1155 556.343 39.6943 556.723 39.327C557.11 38.9597 557.581 38.6652 558.139 38.4435C558.696 38.2218 559.333 38.111 560.048 38.111C560.859 38.111 561.606 38.2377 562.29 38.491C562.974 38.7443 563.557 39.099 564.038 39.555L563.411 40.7615ZM570.064 52H567.499V38.263H570.064V52ZM580.418 50.119C580.994 50.119 581.495 50.0683 581.919 49.967C582.35 49.8593 582.758 49.7137 583.144 49.53V47.0315H581.425C581.26 47.0315 581.13 46.9872 581.035 46.8985C580.94 46.8035 580.893 46.6895 580.893 46.5565V45.1125H585.462V50.67C585.114 50.9233 584.75 51.145 584.37 51.335C583.996 51.5187 583.594 51.6707 583.163 51.791C582.739 51.9113 582.283 52 581.795 52.057C581.308 52.1203 580.782 52.152 580.218 52.152C579.218 52.152 578.296 51.9778 577.454 51.6295C576.612 51.2812 575.883 50.7967 575.269 50.176C574.655 49.5553 574.173 48.8143 573.825 47.953C573.483 47.0917 573.312 46.1512 573.312 45.1315C573.312 44.0992 573.48 43.1523 573.815 42.291C574.151 41.4297 574.626 40.6887 575.24 40.068C575.861 39.4473 576.612 38.966 577.492 38.624C578.372 38.282 579.36 38.111 580.456 38.111C581.577 38.111 582.546 38.2788 583.363 38.6145C584.186 38.9438 584.883 39.3745 585.453 39.9065L584.712 41.0655C584.566 41.2998 584.373 41.417 584.132 41.417C583.98 41.417 583.825 41.3663 583.667 41.265C583.464 41.1447 583.255 41.0243 583.04 40.904C582.831 40.7837 582.597 40.6792 582.337 40.5905C582.084 40.5018 581.795 40.429 581.472 40.372C581.156 40.315 580.788 40.2865 580.37 40.2865C579.693 40.2865 579.078 40.4005 578.527 40.6285C577.983 40.8565 577.517 41.1827 577.131 41.607C576.745 42.0313 576.447 42.5412 576.238 43.1365C576.029 43.7318 575.924 44.3968 575.924 45.1315C575.924 45.9232 576.035 46.6293 576.257 47.25C576.479 47.8643 576.789 48.3837 577.188 48.808C577.587 49.2323 578.062 49.5585 578.613 49.7865C579.164 50.0082 579.766 50.119 580.418 50.119ZM590.13 38.263C590.244 38.263 590.339 38.2693 590.415 38.282C590.491 38.2883 590.557 38.3073 590.614 38.339C590.678 38.3643 590.738 38.4055 590.795 38.4625C590.852 38.5132 590.915 38.5828 590.985 38.6715L598.195 47.858C598.17 47.6363 598.151 47.421 598.138 47.212C598.132 46.9967 598.129 46.7972 598.129 46.6135V38.263H600.38V52H599.06C598.857 52 598.689 51.9683 598.556 51.905C598.423 51.8417 598.293 51.7277 598.167 51.563L590.985 42.4145C591.004 42.6172 591.016 42.8198 591.023 43.0225C591.035 43.2188 591.042 43.3993 591.042 43.564V52H588.79V38.263H590.13Z" fill="white"/>
<g clip-path="url(#clip1_207_1315)">
<path d="M68.8266 31.3743L68.4967 30.3739H66.2978L65.968 31.3743H64.7979L66.7219 25.8164H68.0679L69.9998 31.3743H68.8266ZM66.6544 29.3496H68.1622L67.4083 27.0773L66.6544 29.3496Z" fill="white"/>
<path d="M72.0936 30.1119L73.0203 29.5641C73.2323 30.1278 73.6485 30.4136 74.2768 30.4136C74.905 30.4136 75.1563 30.1675 75.1563 29.8261C75.1592 29.7337 75.1364 29.6424 75.0906 29.5624C75.0448 29.4824 74.9778 29.417 74.8972 29.3735C74.605 29.214 74.2935 29.0939 73.9705 29.0162C73.5637 28.9136 73.1782 28.7388 72.8318 28.5001C72.6595 28.3665 72.5223 28.1923 72.4319 27.9928C72.3416 27.7932 72.3009 27.5743 72.3135 27.3552C72.3038 27.1279 72.3462 26.9014 72.4375 26.6934C72.5288 26.4854 72.6664 26.3016 72.8396 26.1563C73.198 25.8536 73.6529 25.6928 74.1197 25.7037C74.5318 25.6939 74.9377 25.8069 75.2868 26.0285C75.6359 26.2502 75.9128 26.5707 76.083 26.9503L75.172 27.4838C74.9521 27.0074 74.5988 26.7677 74.1197 26.7677C73.6721 26.7677 73.3972 26.9979 73.3972 27.325C73.3959 27.4085 73.4144 27.491 73.4514 27.5656C73.4883 27.6403 73.5424 27.7048 73.6092 27.7538C73.8699 27.9075 74.1499 28.025 74.4417 28.1031L74.8186 28.2302C74.939 28.2681 75.057 28.3132 75.172 28.3651C75.2931 28.4039 75.4091 28.4572 75.5176 28.5239C75.7245 28.6469 75.9016 28.8151 76.0359 29.0162C76.1751 29.2568 76.2458 29.5316 76.2401 29.8102C76.2486 30.044 76.2026 30.2765 76.1057 30.4889C76.0089 30.7013 75.8639 30.8877 75.6825 31.0329C75.2704 31.3488 74.762 31.5089 74.2454 31.4855C73.1616 31.4855 72.3998 30.9615 72.0936 30.1119Z" fill="white"/>
<path d="M78.8787 25.8147H79.9625V31.3726H78.8787V25.8147Z" fill="white"/>
<path d="M86.4807 31.3743L86.1509 30.3739H83.9519L83.6221 31.3743H82.452L84.376 25.8164H85.7189L87.6508 31.3743H86.4807ZM84.3053 29.3496H85.8132L85.0593 27.0773L84.3053 29.3496Z" fill="white"/>
<path d="M68.8266 40.9021L68.4967 39.9017H66.2978L65.968 40.9021H64.7979L66.7219 35.3442H68.0679L69.9998 40.9021H68.8266ZM66.6544 38.8775H68.1622L67.4083 36.6051L66.6544 38.8775Z" fill="white"/>
<path d="M75.5176 40.9021L74.4181 38.9728H73.5935V40.9021H72.5098V35.3443H74.7087C74.9497 35.3401 75.189 35.3858 75.4118 35.4786C75.6347 35.5715 75.8364 35.7095 76.0045 35.8842C76.1766 36.0533 76.3127 36.2561 76.4046 36.4803C76.4964 36.7045 76.542 36.9453 76.5385 37.1879C76.5328 37.5319 76.43 37.8672 76.2422 38.1542C76.0543 38.4411 75.7893 38.6678 75.4783 38.8076L76.6956 40.9037L75.5176 40.9021ZM73.5857 36.3669V38.012H74.7008C74.9078 38.0017 75.1023 37.9092 75.2421 37.7545C75.3818 37.5998 75.4554 37.3956 75.4469 37.1863C75.4537 36.9781 75.3793 36.7755 75.2398 36.6222C75.1002 36.4689 74.9066 36.3772 74.7008 36.3669H73.5857Z" fill="white"/>
<path d="M79.7819 40.1796C79.5163 39.9101 79.3076 39.5888 79.1686 39.2353C79.0295 38.8818 78.963 38.5034 78.973 38.1231C78.9614 37.7415 79.0271 37.3614 79.1662 37.0064C79.3053 36.6513 79.5148 36.3289 79.7819 36.0588C80.0482 35.7845 80.3678 35.5688 80.7206 35.4254C81.0733 35.2819 81.4515 35.2137 81.8316 35.2251C82.3027 35.2195 82.7672 35.3372 83.18 35.5667C83.5929 35.7963 83.94 36.1299 84.1875 36.5352L83.2452 37.083C83.1006 36.832 82.8912 36.6255 82.6394 36.4857C82.3876 36.3458 82.1029 36.2778 81.8159 36.289C81.5769 36.2784 81.3383 36.3181 81.1152 36.4056C80.8922 36.493 80.6895 36.6264 80.5201 36.7972C80.3571 36.974 80.2301 37.1815 80.1466 37.4079C80.063 37.6344 80.0245 37.8753 80.0332 38.1168C80.0251 38.3568 80.0639 38.5961 80.1475 38.8209C80.231 39.0457 80.3576 39.2516 80.5201 39.4269C80.6895 39.5977 80.8922 39.731 81.1152 39.8185C81.3383 39.906 81.5769 39.9456 81.8159 39.935C82.1021 39.9465 82.386 39.8795 82.6377 39.7411C82.8893 39.6028 83.0992 39.3981 83.2452 39.149L84.1875 39.6968C83.9408 40.1028 83.5939 40.4371 83.1809 40.6667C82.7678 40.8964 82.3029 41.0136 81.8316 41.0069C81.452 41.0191 81.074 40.9519 80.7213 40.8095C80.3686 40.6672 80.0488 40.4527 79.7819 40.1796Z" fill="white"/>
<path d="M89.9518 35.3425H91.0277V40.9004H89.9518V38.5979H87.91V40.9004H86.8262V35.3425H87.91V37.5562H89.9518V35.3425Z" fill="white"/>
<path d="M94.012 35.3425H95.0957V40.9004H94.012V35.3425Z" fill="white"/>
<path d="M101.716 35.3425V36.3922H100.232V40.902H99.148V36.3922H97.6716V35.3425H101.716Z" fill="white"/>
<path d="M105.368 39.8541H107.685V40.9021H104.284V35.3442H107.648V36.3939H105.371V37.5769H107.452V38.6091H105.371L105.368 39.8541Z" fill="white"/>
<path d="M110.928 40.1796C110.662 39.9101 110.454 39.5889 110.315 39.2354C110.176 38.8819 110.109 38.5035 110.119 38.1232C110.107 37.7415 110.173 37.3614 110.312 37.0064C110.451 36.6514 110.661 36.3289 110.928 36.0588C111.193 35.7855 111.512 35.5704 111.863 35.427C112.214 35.2836 112.591 35.2148 112.97 35.2251C113.441 35.2195 113.905 35.3372 114.318 35.5668C114.731 35.7963 115.078 36.1299 115.326 36.5352L114.383 37.083C114.239 36.832 114.029 36.6256 113.778 36.4857C113.526 36.3458 113.241 36.2778 112.954 36.2891C112.715 36.2784 112.476 36.3181 112.253 36.4056C112.03 36.4931 111.828 36.6264 111.658 36.7972C111.495 36.974 111.368 37.1815 111.285 37.408C111.201 37.6344 111.163 37.8753 111.171 38.1168C111.163 38.3568 111.202 38.5961 111.286 38.8209C111.369 39.0457 111.496 39.2517 111.658 39.4269C111.828 39.5977 112.03 39.731 112.253 39.8185C112.476 39.906 112.715 39.9457 112.954 39.935C113.24 39.9465 113.524 39.8795 113.776 39.7412C114.027 39.6028 114.237 39.3982 114.383 39.149L115.326 39.6968C115.079 40.1029 114.732 40.4371 114.319 40.6667C113.906 40.8964 113.441 41.0136 112.97 41.0069C112.591 41.018 112.215 40.9503 111.864 40.808C111.512 40.6656 111.194 40.4517 110.928 40.1796Z" fill="white"/>
<path d="M121.585 35.3425V36.3922H120.1V40.902H119.017V36.3922H117.543V35.3425H121.585Z" fill="white"/>
<path d="M124.695 40.4891C124.499 40.3138 124.345 40.0967 124.243 39.8536C124.142 39.6105 124.095 39.3475 124.106 39.0838V35.3425H125.182V38.9949C125.182 39.5745 125.496 39.9397 126.202 39.9397C126.909 39.9397 127.223 39.5745 127.223 38.9949V35.3425H128.307V39.0838C128.318 39.3475 128.271 39.6105 128.169 39.8536C128.067 40.0967 127.913 40.3138 127.718 40.4891C127.296 40.8503 126.755 41.0374 126.202 41.0132C125.653 41.0354 125.115 40.8484 124.695 40.4891Z" fill="white"/>
<path d="M134.26 40.9021L133.16 38.9728H132.336V40.9021H131.252V35.3443H133.451C133.692 35.3401 133.931 35.3858 134.154 35.4786C134.377 35.5715 134.579 35.7095 134.747 35.8842C134.919 36.0533 135.055 36.2561 135.147 36.4803C135.239 36.7045 135.284 36.9453 135.281 37.1879C135.275 37.5319 135.172 37.8672 134.985 38.1542C134.797 38.4411 134.532 38.6678 134.221 38.8076L135.438 40.9037L134.26 40.9021ZM132.328 36.3669V38.012H133.443C133.65 38.0017 133.845 37.9092 133.984 37.7545C134.124 37.5998 134.198 37.3956 134.189 37.1863C134.196 36.9781 134.122 36.7755 133.982 36.6222C133.843 36.4689 133.649 36.3772 133.443 36.3669H132.328Z" fill="white"/>
<path d="M139.113 39.8541H141.43V40.9021H138.029V35.3442H141.391V36.3939H139.113V37.5769H141.194V38.6091H139.113V39.8541Z" fill="white"/>
<path d="M67.4758 44.8703C67.8281 44.8622 68.1781 44.9295 68.5029 45.0677C68.8277 45.2059 69.12 45.4119 69.3606 45.6722C69.6119 45.9338 69.8088 46.2437 69.9397 46.5835C70.0705 46.9234 70.1326 47.2863 70.1224 47.6508C70.1326 48.0151 70.0705 48.3778 69.9396 48.7174C69.8088 49.0569 69.6119 49.3665 69.3606 49.6278C69.12 49.8881 68.8277 50.0942 68.5029 50.2323C68.1781 50.3705 67.8281 50.4378 67.4758 50.4298H65.2926V44.8719L67.4758 44.8703ZM67.4758 49.3817C67.6919 49.39 67.9072 49.3519 68.1076 49.2697C68.308 49.1876 68.4888 49.0634 68.6381 48.9053C68.9439 48.5625 69.1046 48.1121 69.0857 47.6508C69.106 47.1912 68.945 46.7423 68.6381 46.4027C68.4895 46.2437 68.3088 46.1188 68.1082 46.0366C67.9077 45.9544 67.692 45.9168 67.4758 45.9263H66.3764V49.388L67.4758 49.3817Z" fill="white"/>
<path d="M73.939 49.3819H76.2557V50.43H72.8553V44.8721H76.2165V45.9217H73.939V47.1048H76.0202V48.1369H73.939V49.3819Z" fill="white"/>
<path d="M78.6981 49.1673L79.6248 48.6195C79.8368 49.1832 80.2609 49.469 80.8892 49.469C81.4939 49.469 81.7687 49.2229 81.7687 48.8815C81.7716 48.7891 81.7488 48.6978 81.703 48.6178C81.6572 48.5379 81.5902 48.4724 81.5096 48.4289C81.2174 48.2694 80.9059 48.1493 80.5829 48.0716C80.1758 47.9692 79.7901 47.7939 79.4442 47.554C79.2719 47.4208 79.1345 47.2469 79.0441 47.0476C78.9537 46.8482 78.9131 46.6295 78.9259 46.4106C78.916 46.1833 78.9584 45.9567 79.0497 45.7487C79.141 45.5407 79.2787 45.3569 79.452 45.2117C79.8104 44.909 80.2653 44.7482 80.7321 44.7591C81.1442 44.7493 81.5501 44.8623 81.8992 45.0839C82.2483 45.3056 82.5252 45.6261 82.6954 46.0057L81.7844 46.5377C81.5645 46.0613 81.2112 45.8231 80.7321 45.8231C80.2845 45.8231 80.0096 46.0533 80.0096 46.3789C80.008 46.4623 80.0265 46.545 80.0634 46.6196C80.1003 46.6943 80.1546 46.7588 80.2216 46.8076C80.4817 46.9627 80.7619 47.0803 81.0541 47.157L81.431 47.2856C81.5516 47.3228 81.6696 47.3679 81.7844 47.4206C81.9061 47.4612 82.0222 47.5172 82.13 47.5873C82.3369 47.7103 82.514 47.8785 82.6483 48.0796C82.7875 48.3201 82.8582 48.5949 82.8525 48.8736C82.861 49.1073 82.815 49.3398 82.7181 49.5523C82.6213 49.7647 82.4763 49.9511 82.2949 50.0963C81.8828 50.4122 81.3744 50.5723 80.8578 50.5489C79.7662 50.5409 79.0044 50.0169 78.6981 49.1673Z" fill="white"/>
<path d="M85.4833 44.8704H86.5671V50.4283H85.4833V44.8704Z" fill="white"/>
<path d="M94.9465 47.4444V47.8732C94.9606 48.2301 94.9008 48.5861 94.771 48.9183C94.6411 49.2506 94.4441 49.5517 94.1926 49.8026C93.9328 50.0504 93.6268 50.2433 93.2923 50.3701C92.9579 50.4969 92.6019 50.555 92.245 50.541C91.8555 50.5532 91.4675 50.4856 91.1045 50.3424C90.7414 50.1991 90.4108 49.9831 90.1324 49.7073C89.8626 49.4415 89.6495 49.1226 89.5063 48.7702C89.3632 48.4179 89.2929 48.0396 89.3 47.6588C89.2915 47.2761 89.3603 46.8957 89.502 46.5408C89.6438 46.1858 89.8557 45.8638 90.1246 45.5944C90.3923 45.3193 90.7131 45.1026 91.067 44.9578C91.4209 44.813 91.8005 44.7433 92.1822 44.7528C92.6578 44.7422 93.128 44.8557 93.5476 45.0824C93.9672 45.3091 94.3218 45.6413 94.5774 46.047L93.6507 46.5885C93.3916 46.1343 92.8261 45.8168 92.1743 45.8168C91.934 45.8084 91.6947 45.8508 91.4715 45.9413C91.2484 46.0318 91.0464 46.1684 90.8785 46.3424C90.7107 46.5144 90.5795 46.7195 90.493 46.9448C90.4066 47.1701 90.3667 47.4109 90.3759 47.6524C90.3689 47.8932 90.4106 48.1328 90.4984 48.3567C90.5861 48.5806 90.7182 48.784 90.8864 48.9546C91.0689 49.1274 91.2839 49.2614 91.5186 49.3487C91.7534 49.436 92.003 49.4748 92.2528 49.4627C93.0931 49.4627 93.6664 49.0657 93.8549 48.4067H92.19V47.4381L94.9465 47.4444Z" fill="white"/>
<path d="M100.86 44.8704H101.944V50.4283H101.119L98.7632 47.03V50.4283H97.6794V44.8704H98.504L100.86 48.2623V44.8704Z" fill="white"/>
<path d="M68.8266 59.9578L68.4967 58.9574H66.2978L65.968 59.9578H64.7979L66.7219 54.3999H68.0679L69.9998 59.9578H68.8266ZM66.6544 57.9331H68.1622L67.4083 55.6607L66.6544 57.9331Z" fill="white"/>
<path d="M73.0941 59.9578L71.5548 54.3999H72.6935L73.7459 58.5286L74.8924 54.3999H75.8191L76.9736 58.5286L78.0259 54.3999H79.1646L77.6254 59.9578H76.3924L75.3558 56.288L74.327 59.9578H73.0941Z" fill="white"/>
<path d="M84.7059 59.9578L84.376 58.9574H82.185L81.8551 59.9578H80.685L82.609 54.3999H83.952L85.8839 59.9578H84.7059ZM82.5305 57.9331H84.0384L83.2844 55.6607L82.5305 57.9331Z" fill="white"/>
<path d="M91.3968 59.9576L90.2974 58.0282H89.4728V59.9576H88.389V54.3997H90.5879C90.829 54.3955 91.0682 54.4412 91.2911 54.5341C91.514 54.6269 91.7156 54.7649 91.8837 54.9396C92.0559 55.1087 92.192 55.3115 92.2838 55.5357C92.3757 55.7599 92.4212 56.0007 92.4178 56.2433C92.4121 56.5874 92.3093 56.9226 92.1214 57.2096C91.9336 57.4965 91.6686 57.7233 91.3576 57.863L92.5748 59.9592L91.3968 59.9576ZM89.4649 55.4223V57.0675H90.5801C90.787 57.0572 90.9816 56.9646 91.1213 56.8099C91.2611 56.6553 91.3347 56.451 91.3261 56.2417C91.333 56.0335 91.2586 55.8309 91.1191 55.6776C90.9795 55.5243 90.7859 55.4326 90.5801 55.4223H89.4649Z" fill="white"/>
<path d="M97.3497 54.3981C97.702 54.39 98.052 54.4573 98.3768 54.5955C98.7016 54.7337 98.9938 54.9397 99.2344 55.2C99.4858 55.4616 99.6827 55.7715 99.8135 56.1113C99.9444 56.4512 100.006 56.8141 99.9962 57.1786C100.006 57.5429 99.9443 57.9056 99.8134 58.2452C99.6826 58.5848 99.4857 58.8944 99.2344 59.1557C98.9938 59.416 98.7016 59.622 98.3768 59.7602C98.052 59.8984 97.702 59.9656 97.3497 59.9576H95.1664V54.3997L97.3497 54.3981ZM97.3497 58.9095C97.5657 58.9179 97.781 58.8797 97.9814 58.7976C98.1818 58.7154 98.3626 58.5912 98.5119 58.4331C98.8177 58.0903 98.9785 57.6399 98.9596 57.1786C98.9799 56.7191 98.8188 56.2701 98.5119 55.9305C98.3633 55.7715 98.1826 55.6467 97.982 55.5645C97.7815 55.4823 97.5658 55.4446 97.3497 55.4541H96.2502V58.9159L97.3497 58.9095Z" fill="white"/>
<path d="M102.25 58.6952L103.177 58.1473C103.389 58.711 103.805 58.9969 104.433 58.9969C105.062 58.9969 105.313 58.7507 105.313 58.4093C105.316 58.317 105.293 58.2256 105.247 58.1457C105.201 58.0657 105.134 58.0003 105.054 57.9568C104.762 57.7972 104.45 57.6771 104.127 57.5995C103.72 57.497 103.334 57.3217 102.988 57.0818C102.816 56.9486 102.679 56.7747 102.588 56.5754C102.498 56.3761 102.457 56.1574 102.47 55.9385C102.46 55.7111 102.503 55.4846 102.594 55.2765C102.685 55.0685 102.823 54.8847 102.996 54.7395C103.354 54.4369 103.809 54.276 104.276 54.287C104.688 54.2772 105.094 54.3901 105.443 54.6118C105.792 54.8334 106.069 55.154 106.24 55.5335L105.329 56.0655C105.109 55.5891 104.755 55.3509 104.276 55.3509C103.829 55.3509 103.554 55.5812 103.554 55.9067C103.552 55.9902 103.571 56.0728 103.607 56.1475C103.644 56.2221 103.699 56.2867 103.766 56.3354C104.026 56.4906 104.306 56.6081 104.598 56.6848L104.975 56.8134C105.096 56.8506 105.214 56.8957 105.329 56.9484C105.45 56.989 105.566 57.045 105.674 57.1151C105.881 57.2381 106.058 57.4063 106.192 57.6074C106.332 57.8479 106.402 58.1228 106.397 58.4014C106.405 58.6352 106.359 58.8677 106.262 59.0801C106.165 59.2925 106.02 59.4789 105.839 59.6241C105.427 59.94 104.918 60.1001 104.402 60.0767C103.318 60.0688 102.556 59.5447 102.25 58.6952Z" fill="white"/>
</g>
<path d="M46.9516 25.7273L45.3273 29.9386L56.2433 56.8782L56.2837 56.9918C56.6111 57.9013 57.1945 58.6846 57.9561 59.2376C58.7178 59.7906 59.6217 60.087 60.5477 60.0875L46.9516 25.7273Z" fill="white"/>
<path d="M44.6832 31.4578L43.1171 35.8149L51.319 56.8783L51.3594 56.9919C51.6867 57.9015 52.27 58.685 53.0317 59.238C53.7934 59.791 54.6974 60.0874 55.6234 60.0876L44.6832 31.4578Z" stroke="white" stroke-width="0.5" stroke-miterlimit="10"/>
<path d="M42.4696 37.3474L40.8551 41.5486L46.4011 56.8816L46.4414 56.9952C46.7685 57.905 47.3517 58.6885 48.1135 59.2416C48.8753 59.7946 49.7794 60.0909 50.7055 60.0909L42.4696 37.3474ZM37.894 51.1478L40.0995 45.0207C40.2601 44.575 40.2601 44.083 40.0995 43.6373L34.1918 60.0909C34.3292 60.0901 34.4631 60.0458 34.5761 59.9638C34.6895 59.8799 34.7756 59.7615 34.8231 59.6247L37.7293 51.5683H42.9798C42.9345 51.4423 42.8536 51.334 42.748 51.2576C42.6424 51.1813 42.5171 51.1406 42.3889 51.141L37.894 51.1478Z" fill="white"/>
</g>
<defs>
<clipPath id="clip0_207_1315">
<rect width="764" height="90" fill="white"/>
</clipPath>
<clipPath id="clip1_207_1315">
<rect width="76.6242" height="34.3636" fill="white" transform="translate(64.8057 25.7036)"/>
</clipPath>
</defs>
</svg>
