<svg width="115" height="39" viewBox="0 0 115 39" fill="none" xmlns="http://www.w3.org/2000/svg">
<path fill-rule="evenodd" clip-rule="evenodd" d="M43.5935 5.61191L44.5202 5.06406C44.7323 5.62779 45.1485 5.91363 45.7767 5.91363C46.405 5.91363 46.6563 5.6675 46.6563 5.32608C46.6591 5.23372 46.6364 5.14238 46.5906 5.06241C46.5448 4.98243 46.4778 4.917 46.3971 4.87351C46.105 4.71398 45.7935 4.59386 45.4705 4.51621C45.0637 4.41358 44.6781 4.23885 44.3317 4.00012C44.1595 3.86652 44.0222 3.69234 43.9319 3.49278C43.8415 3.29321 43.8009 3.07432 43.8134 2.8552C43.8037 2.62787 43.8462 2.40136 43.9375 2.19337C44.0287 1.98539 44.1664 1.80157 44.3396 1.65629C44.698 1.35362 45.1528 1.1928 45.6197 1.20371C46.0318 1.19391 46.4376 1.30687 46.7867 1.52852C47.1358 1.75016 47.4127 2.07072 47.583 2.45027L46.672 2.98383C46.4521 2.50744 46.0987 2.26765 45.6197 2.26765C45.172 2.26765 44.8972 2.49791 44.8972 2.82503C44.8958 2.90846 44.9144 2.99099 44.9513 3.06562C44.9882 3.14025 45.0424 3.2048 45.1092 3.25379C45.3699 3.40754 45.6499 3.52505 45.9416 3.60313L46.3186 3.73018C46.4389 3.76811 46.5569 3.81318 46.672 3.86515C46.7931 3.90391 46.9091 3.95722 47.0176 4.02395C47.2245 4.14692 47.4015 4.31511 47.5359 4.51621C47.6751 4.75675 47.7458 5.03156 47.7401 5.3102C47.7486 5.54396 47.7026 5.77647 47.6057 5.9889C47.5088 6.20133 47.3638 6.3877 47.1825 6.53293C46.7704 6.84881 46.2619 7.00892 45.7453 6.98551C44.6616 6.98551 43.8998 6.46148 43.5935 5.61191ZM40.3266 6.87436L39.9967 5.87394H37.7978L37.468 6.87436H36.2979L38.2219 1.31647H39.568L41.4999 6.87436H40.3266ZM38.1544 4.8497H39.6622L38.9083 2.57731L38.1544 4.8497ZM51.4625 1.31488H50.3787V6.87277H51.4625V1.31488ZM57.9807 6.87436L57.6509 5.87394H55.4519L55.1221 6.87436H53.952L55.876 1.31647H57.2189L59.1508 6.87436H57.9807ZM55.8053 4.8497H57.3132L56.5593 2.57731L55.8053 4.8497ZM39.9967 15.4017L40.3266 16.4022H41.4999L39.568 10.8443H38.2219L36.2979 16.4022H37.468L37.7978 15.4017H39.9967ZM39.6622 14.3775H38.1544L38.9083 12.1051L39.6622 14.3775ZM47.0176 16.4022L45.9181 14.4728H45.0935V16.4022H44.0098V10.8443H46.2087C46.4497 10.8401 46.689 10.8858 46.9118 10.9787C47.1347 11.0715 47.3364 11.2095 47.5045 11.3842C47.6766 11.5533 47.8127 11.7561 47.9046 11.9803C47.9964 12.2045 48.042 12.4453 48.0385 12.6879C48.0328 13.032 47.93 13.3672 47.7421 13.6542C47.5543 13.9411 47.2893 14.1679 46.9783 14.3076L48.1955 16.4037L47.0176 16.4022ZM45.0856 11.8669V13.5121H46.2008C46.4078 13.5018 46.6023 13.4092 46.742 13.2545C46.8818 13.0999 46.9554 12.8956 46.9469 12.6863C46.9537 12.4781 46.8793 12.2755 46.7398 12.1222C46.6002 11.9689 46.4066 11.8772 46.2008 11.8669H45.0856ZM50.6685 14.7354C50.8076 15.0889 51.0162 15.4102 51.2818 15.6796C51.5488 15.9528 51.8686 16.1673 52.2213 16.3096C52.574 16.452 52.952 16.5192 53.3316 16.507C53.8029 16.5137 54.2678 16.3965 54.6808 16.1668C55.0938 15.9371 55.4407 15.6029 55.6875 15.1969L54.7451 14.649C54.5992 14.8982 54.3893 15.1028 54.1376 15.2412C53.886 15.3796 53.6021 15.4466 53.3159 15.4351C53.0768 15.4457 52.8383 15.406 52.6152 15.3186C52.3921 15.2311 52.1895 15.0977 52.0201 14.9269C51.8576 14.7517 51.731 14.5458 51.6474 14.321C51.5639 14.0962 51.5251 13.8569 51.5332 13.6169C51.5245 13.3753 51.563 13.1345 51.6466 12.908C51.7301 12.6816 51.8571 12.474 52.0201 12.2973C52.1895 12.1265 52.3921 11.9931 52.6152 11.9056C52.8383 11.8182 53.0768 11.7785 53.3159 11.7891C53.6029 11.7779 53.8876 11.8459 54.1394 11.9857C54.3912 12.1256 54.6006 12.3321 54.7451 12.5831L55.6875 12.0353C55.4399 11.63 55.0929 11.2964 54.68 11.0668C54.2672 10.8373 53.8027 10.7196 53.3316 10.7252C52.9515 10.7138 52.5733 10.782 52.2205 10.9255C51.8678 11.0689 51.5482 11.2846 51.2818 11.5589C51.0148 11.8289 50.8053 12.1514 50.6662 12.5064C50.5271 12.8615 50.4613 13.2415 50.473 13.6232C50.463 14.0035 50.5295 14.3819 50.6685 14.7354ZM61.4518 10.8427H62.5277V16.4006H61.4518V14.098H59.41V16.4006H58.3262V10.8427H59.41V13.0563H61.4518V10.8427ZM66.5957 10.8427H65.512V16.4006H66.5957V10.8427ZM73.216 10.8427V11.8923H71.7318V16.4022H70.648V11.8923H69.1716V10.8427H73.216ZM79.1845 15.3541H76.8678L76.8709 14.1091H78.952V13.077H76.8709V11.8939H79.1484V10.8443H75.784V16.4022H79.1845V15.3541ZM82.4279 15.6796C82.1623 15.4102 81.9536 15.0889 81.8146 14.7354C81.6755 14.3819 81.609 14.0035 81.619 13.6232C81.6073 13.2415 81.6731 12.8615 81.8122 12.5064C81.9513 12.1514 82.1608 11.8289 82.4279 11.5589C82.6933 11.2856 83.0116 11.0705 83.3629 10.9271C83.7142 10.7836 84.091 10.7149 84.4697 10.7252C84.9408 10.7196 85.4054 10.8373 85.8182 11.0668C86.231 11.2964 86.5781 11.63 86.8257 12.0353L85.8833 12.5831C85.7387 12.3321 85.5293 12.1256 85.2775 11.9857C85.0258 11.8459 84.7411 11.7779 84.454 11.7891C84.215 11.7785 83.9764 11.8182 83.7533 11.9056C83.5303 11.9931 83.3276 12.1265 83.1582 12.2973C82.9952 12.474 82.8683 12.6816 82.7847 12.908C82.7012 13.1345 82.6627 13.3753 82.6713 13.6169C82.6632 13.8569 82.702 14.0962 82.7856 14.321C82.8691 14.5458 82.9958 14.7517 83.1582 14.9269C83.3276 15.0977 83.5303 15.2311 83.7533 15.3186C83.9764 15.406 84.215 15.4457 84.454 15.4351C84.7402 15.4466 85.0242 15.3796 85.2758 15.2412C85.5274 15.1028 85.7373 14.8982 85.8833 14.649L86.8257 15.1969C86.5789 15.6029 86.232 15.9371 85.819 16.1668C85.406 16.3965 84.941 16.5137 84.4697 16.507C84.0914 16.5181 83.715 16.4503 83.3637 16.308C83.0124 16.1657 82.6939 15.9518 82.4279 15.6796ZM93.0847 11.8923V10.8427H89.0435V11.8923H90.5167V16.4022H91.6005V11.8923H93.0847ZM96.1946 15.9893C95.9994 15.8139 95.8453 15.5968 95.7434 15.3537C95.6416 15.1107 95.5945 14.8477 95.6056 14.5839V10.8427H96.6815V14.495C96.6815 15.0746 96.9957 15.4399 97.7025 15.4399C98.4092 15.4399 98.7234 15.0746 98.7234 14.495V10.8427H99.8071V14.5839C99.8183 14.8477 99.7712 15.1107 99.6693 15.3537C99.5674 15.5968 99.4133 15.8139 99.2181 15.9893C98.796 16.3504 98.2549 16.5375 97.7025 16.5133C97.1527 16.5355 96.6147 16.3485 96.1946 15.9893ZM104.66 14.4728L105.76 16.4022L106.938 16.4037L105.721 14.3076C106.032 14.1679 106.297 13.9411 106.484 13.6542C106.672 13.3672 106.775 13.032 106.781 12.6879C106.784 12.4453 106.739 12.2045 106.647 11.9803C106.555 11.7561 106.419 11.5533 106.247 11.3842C106.079 11.2095 105.877 11.0715 105.654 10.9787C105.431 10.8858 105.192 10.8401 104.951 10.8443H102.752V16.4022H103.836V14.4728H104.66ZM103.828 13.5121V11.8669H104.943C105.149 11.8772 105.343 11.9689 105.482 12.1222C105.622 12.2755 105.696 12.4781 105.689 12.6863C105.698 12.8956 105.624 13.0999 105.484 13.2545C105.345 13.4092 105.15 13.5018 104.943 13.5121H103.828ZM110.613 15.3541H112.93V16.4022H109.529V10.8443H112.891V11.8939H110.613V13.077H112.694V14.1091H110.613V15.3541ZM40.0029 20.5679C39.6781 20.4297 39.3281 20.3624 38.9758 20.3705L36.7926 20.3721V25.93H38.9758C39.3281 25.938 39.6781 25.8708 40.0029 25.7326C40.3277 25.5944 40.62 25.3884 40.8606 25.128C41.1119 24.8668 41.3088 24.5572 41.4396 24.2176C41.5705 23.878 41.6326 23.5153 41.6224 23.151C41.6326 22.7865 41.5705 22.4236 41.4397 22.0837C41.3088 21.7439 41.1119 21.434 40.8606 21.1724C40.62 20.9121 40.3277 20.7061 40.0029 20.5679ZM39.6076 24.77C39.4072 24.8521 39.1919 24.8902 38.9758 24.8819L37.8764 24.8883V21.4265H38.9758C39.192 21.417 39.4077 21.4547 39.6082 21.5369C39.8088 21.6191 39.9895 21.7439 40.1381 21.9029C40.445 22.2425 40.606 22.6914 40.5857 23.151C40.6046 23.6123 40.4439 24.0627 40.1381 24.4055C39.9888 24.5636 39.8079 24.6878 39.6076 24.77ZM45.439 24.8819H47.7558V25.93H44.3553V20.3721H47.7165V21.4217H45.439V22.6048H47.5202V23.6369H45.439V24.8819ZM51.1248 24.1197L50.1981 24.6675C50.5044 25.5171 51.2662 26.0411 52.3578 26.0491C52.8744 26.0725 53.3828 25.9124 53.7949 25.5965C53.9763 25.4513 54.1213 25.2649 54.2181 25.0525C54.315 24.84 54.361 24.6075 54.3525 24.3738C54.3582 24.0951 54.2875 23.8203 54.1483 23.5798C54.014 23.3787 53.8369 23.2105 53.63 23.0875C53.5222 23.0174 53.4061 22.9614 53.2844 22.9208C53.1697 22.8681 53.0516 22.823 52.931 22.7858L52.5541 22.6572C52.2619 22.5805 51.9817 22.4629 51.7216 22.3078C51.6546 22.259 51.6003 22.1945 51.5634 22.1198C51.5265 22.0452 51.508 21.9625 51.5096 21.8791C51.5096 21.5535 51.7845 21.3233 52.2321 21.3233C52.7112 21.3233 53.0645 21.5615 53.2844 22.0379L54.1954 21.5059C54.0252 21.1263 53.7483 20.8058 53.3992 20.5841C53.0501 20.3625 52.6442 20.2495 52.2321 20.2593C51.7653 20.2484 51.3104 20.4092 50.952 20.7119C50.7787 20.8571 50.641 21.0409 50.5497 21.2489C50.4585 21.4569 50.416 21.6835 50.4259 21.9108C50.4132 22.1297 50.4538 22.3484 50.5441 22.5478C50.6345 22.7471 50.7719 22.921 50.9442 23.0542C51.2901 23.2941 51.6758 23.4694 52.0829 23.5718C52.4059 23.6495 52.7174 23.7696 53.0096 23.9291C53.0902 23.9726 53.1572 24.0381 53.203 24.118C53.2488 24.198 53.2716 24.2893 53.2687 24.3817C53.2687 24.7231 52.9939 24.9693 52.3892 24.9693C51.7609 24.9693 51.3368 24.6834 51.1248 24.1197ZM56.9833 20.3705H58.0671V25.9284H56.9833V20.3705ZM66.271 24.4185C66.4008 24.0863 66.4606 23.7303 66.4465 23.3733V22.9446L63.69 22.9382V23.9069H65.3549C65.1664 24.5659 64.5931 24.9629 63.7528 24.9629C63.503 24.9749 63.2534 24.9362 63.0186 24.8489C62.7839 24.7616 62.5689 24.6276 62.3864 24.4548C62.2182 24.2842 62.0861 24.0808 61.9984 23.8569C61.9106 23.633 61.8689 23.3933 61.8759 23.1526C61.8667 22.9111 61.9066 22.6703 61.993 22.445C62.0795 22.2196 62.2107 22.0146 62.3785 21.8425C62.5464 21.6686 62.7484 21.532 62.9715 21.4415C63.1947 21.351 63.434 21.3086 63.6743 21.3169C64.3261 21.3169 64.8916 21.6345 65.1507 22.0887L66.0774 21.5472C65.8218 21.1415 65.4672 20.8093 65.0476 20.5826C64.628 20.3559 64.1578 20.2424 63.6822 20.253C63.3005 20.2434 62.9209 20.3132 62.567 20.458C62.2131 20.6028 61.8923 20.8194 61.6246 21.0946C61.3556 21.364 61.1438 21.686 61.002 22.0409C60.8603 22.3959 60.7915 22.7763 60.8 23.159C60.7929 23.5398 60.8632 23.9181 61.0063 24.2704C61.1495 24.6227 61.3626 24.9416 61.6324 25.2074C61.9108 25.4832 62.2414 25.6993 62.6045 25.8425C62.9675 25.9858 63.3555 26.0534 63.745 26.0411C64.1019 26.0552 64.4579 25.9971 64.7923 25.8703C65.1268 25.7435 65.4328 25.5505 65.6926 25.3027C65.9441 25.0519 66.1411 24.7507 66.271 24.4185ZM72.36 20.3705H73.4438V25.9284H72.6192L70.2632 22.5301V25.9284H69.1794V20.3705H70.004L72.36 23.7624V20.3705ZM39.9967 34.4574L40.3266 35.4578H41.4999L39.568 29.8999H38.2219L36.2979 35.4578H37.468L37.7978 34.4574H39.9967ZM39.6622 33.4331H38.1544L38.9083 31.1607L39.6622 33.4331ZM44.594 35.4578L43.0548 29.8999H44.1935L45.2459 34.0286L46.3924 29.8999H47.3191L48.4735 34.0286L49.5259 29.8999H50.6646L49.1254 35.4578H47.8924L46.8558 31.788L45.827 35.4578H44.594ZM55.876 34.4574L56.2059 35.4578H57.3839L55.4519 29.8999H54.109L52.185 35.4578H53.3551L53.685 34.4574H55.876ZM54.7844 31.1607L55.5383 33.4331H54.0305L54.7844 31.1607ZM62.8968 35.4578L61.7974 33.5284H60.9728V35.4578H59.889V29.8999H62.0879C62.3289 29.8957 62.5682 29.9414 62.7911 30.0343C63.014 30.1271 63.2156 30.2651 63.3837 30.4398C63.5559 30.6089 63.692 30.8118 63.7838 31.0359C63.8757 31.2601 63.9212 31.5009 63.9178 31.7435C63.9121 32.0876 63.8093 32.4228 63.6214 32.7098C63.4336 32.9968 63.1686 33.2235 62.8576 33.3633L64.0748 35.4594L62.8968 35.4578ZM60.9649 30.9225V32.5677H62.0801C62.287 32.5574 62.4816 32.4648 62.6213 32.3101C62.7611 32.1555 62.8347 31.9512 62.8261 31.7419C62.833 31.5337 62.7586 31.3311 62.6191 31.1778C62.4795 31.0245 62.2859 30.9328 62.0801 30.9225H60.9649ZM69.8767 30.0957C69.5519 29.9575 69.2019 29.8902 68.8496 29.8983L66.6664 29.8999V35.4578H68.8496C69.2019 35.4658 69.5519 35.3986 69.8767 35.2604C70.2015 35.1222 70.4938 34.9162 70.7344 34.6559C70.9857 34.3946 71.1825 34.085 71.3134 33.7454C71.4442 33.4058 71.5064 33.0431 71.4961 32.6788C71.5064 32.3143 71.4443 31.9514 71.3135 31.6115C71.1826 31.2717 70.9857 30.9618 70.7344 30.7002C70.4938 30.4399 70.2015 30.2339 69.8767 30.0957ZM69.4814 34.2978C69.281 34.3799 69.0657 34.4181 68.8496 34.4097L67.7501 34.4161V30.9543H68.8496C69.0658 30.9448 69.2815 30.9825 69.482 31.0647C69.6825 31.1469 69.8632 31.2717 70.0119 31.4307C70.3188 31.7703 70.4798 32.2193 70.4595 32.6788C70.4784 33.1401 70.3177 33.5905 70.0119 33.9333C69.8625 34.0914 69.6817 34.2156 69.4814 34.2978ZM73.75 34.1954L74.6767 33.6475C74.8888 34.2112 75.305 34.4971 75.9332 34.4971C76.5615 34.4971 76.8128 34.2509 76.8128 33.9095C76.8157 33.8172 76.7929 33.7258 76.7471 33.6458C76.7013 33.5659 76.6343 33.5004 76.5536 33.4569C76.2615 33.2974 75.95 33.1773 75.627 33.0997C75.2199 32.9972 74.8342 32.8219 74.4882 32.582C74.3159 32.4488 74.1786 32.2749 74.0882 32.0756C73.9978 31.8763 73.9572 31.6575 73.9699 31.4386C73.9601 31.2113 74.0025 30.9847 74.0938 30.7767C74.1851 30.5687 74.3228 30.3849 74.4961 30.2397C74.8545 29.9371 75.3093 29.7762 75.7762 29.7871C76.1883 29.7774 76.5941 29.8903 76.9432 30.112C77.2923 30.3336 77.5692 30.6542 77.7395 31.0337L76.8285 31.5657C76.6086 31.0893 76.2552 30.8511 75.7762 30.8511C75.3285 30.8511 75.0537 31.0813 75.0537 31.4069C75.0521 31.4904 75.0705 31.573 75.1075 31.6477C75.1444 31.7223 75.1987 31.7868 75.2657 31.8356C75.5257 31.9907 75.8059 32.1083 76.0981 32.185L76.4751 32.3136C76.5957 32.3508 76.7137 32.3959 76.8285 32.4486C76.9502 32.4892 77.0663 32.5452 77.1741 32.6153C77.381 32.7383 77.558 32.9065 77.6924 33.1076C77.8316 33.3481 77.9023 33.6229 77.8966 33.9016C77.9051 34.1353 77.8591 34.3678 77.7622 34.5803C77.6653 34.7927 77.5203 34.9791 77.339 35.1243C76.9269 35.4402 76.4184 35.6003 75.9018 35.5769C74.8181 35.5689 74.0563 35.0449 73.75 34.1954ZM16.8273 5.43867L18.4516 1.22736L32.0477 35.5876C31.1217 35.5871 30.2178 35.2906 29.4562 34.7377C28.6945 34.1847 28.1112 33.4014 27.7837 32.4918L27.7433 32.3782L16.8273 5.43867ZM16.1761 6.23859L16.4168 6.8685L27.357 35.4984L27.4866 35.8377L27.1234 35.8376C26.1437 35.8373 25.1884 35.5237 24.3848 34.9403C23.5813 34.3569 22.9679 33.532 22.6242 32.5765L22.6238 32.5755L22.5847 32.4655L14.3842 11.4056L14.3502 11.3184L14.3818 11.2303L15.948 6.87317L16.1761 6.23859ZM16.1904 7.67688L14.884 11.3114L23.052 32.2875L23.0547 32.2945L23.0546 32.2945L23.0946 32.4072L23.0948 32.4077C23.4056 33.2713 23.9587 34.0131 24.6785 34.5357C25.2962 34.9841 26.0119 35.2533 26.7538 35.3208L16.1904 7.67688ZM12.3551 17.0486L13.9696 12.8475L22.2055 35.591C21.2794 35.591 20.3752 35.2947 19.6135 34.7417C18.8517 34.1886 18.2685 33.405 17.9414 32.4952L17.9011 32.3816L12.3551 17.0486ZM11.5995 20.5208L9.39399 26.6479L13.8889 26.6411C14.0171 26.6407 14.1424 26.6813 14.248 26.7577C14.3536 26.834 14.4345 26.9424 14.4798 27.0683H9.2293L6.32311 35.1248C6.27564 35.2616 6.18945 35.3799 6.07609 35.4638C5.96309 35.5458 5.82918 35.5901 5.69183 35.591L11.5995 19.1373C11.7601 19.5831 11.7601 20.075 11.5995 20.5208Z" fill="url(#paint0_linear_5952_4580)"/>
<defs>
<linearGradient id="paint0_linear_5952_4580" x1="5.69183" y1="18.5196" x2="112.93" y2="18.5196" gradientUnits="userSpaceOnUse">
<stop stop-color="#FAC47E"/>
<stop offset="1" stop-color="#A67F56"/>
</linearGradient>
</defs>
</svg>
