<svg width="240" height="79" viewBox="0 0 240 79" fill="none" xmlns="http://www.w3.org/2000/svg">
<path fill-rule="evenodd" clip-rule="evenodd" d="M90.8452 10.6273L92.788 9.48836C93.2325 10.6603 94.1051 11.2546 95.4223 11.2546C96.7394 11.2546 97.2663 10.7429 97.2663 10.0331C97.2722 9.84106 97.2245 9.65117 97.1285 9.48491C97.0325 9.31865 96.892 9.18262 96.7229 9.0922C96.1105 8.76056 95.4573 8.51083 94.7802 8.3494C93.9274 8.13604 93.1191 7.77278 92.3928 7.27648C92.0317 6.99873 91.744 6.63663 91.5545 6.22173C91.3651 5.80684 91.2799 5.35178 91.3062 4.89625C91.2859 4.42365 91.3749 3.95274 91.5662 3.52034C91.7576 3.08795 92.0462 2.7058 92.4093 2.40377C93.1606 1.77455 94.1143 1.4402 95.093 1.46289C95.957 1.44252 96.8079 1.67735 97.5397 2.13814C98.2716 2.59893 98.8521 3.26535 99.2091 4.05443L97.2992 5.16366C96.8382 4.17327 96.0973 3.67477 95.093 3.67477C94.1545 3.67477 93.5783 4.15346 93.5783 4.83353C93.5755 5.00698 93.6144 5.17854 93.6918 5.3337C93.7692 5.48886 93.8827 5.62305 94.0228 5.72488C94.5693 6.04454 95.1563 6.28882 95.768 6.45116L96.5583 6.71528C96.8106 6.79414 97.0579 6.88784 97.2992 6.99588C97.553 7.07646 97.7962 7.18729 98.0237 7.32601C98.4574 7.58167 98.8287 7.93133 99.1103 8.3494C99.4022 8.84948 99.5503 9.42078 99.5384 10.0001C99.5563 10.486 99.4598 10.9694 99.2567 11.411C99.0536 11.8527 98.7496 12.2401 98.3694 12.5421C97.5054 13.1988 96.4395 13.5316 95.3564 13.4829C93.0843 13.4829 91.4873 12.3935 90.8452 10.6273ZM83.9961 13.2519L83.3046 11.172H78.6946L78.0031 13.2519H75.5499L79.5837 1.6973H82.4056L86.4558 13.2519H83.9961ZM79.442 9.0427H82.6032L81.0226 4.31853L79.442 9.0427ZM107.342 1.69399H105.07V13.2486H107.342V1.69399ZM121.008 13.2519L120.316 11.172H115.706L115.015 13.2519H112.562L116.595 1.6973H119.411L123.461 13.2519H121.008ZM116.447 9.0427H119.608L118.028 4.31853L116.447 9.0427ZM83.3046 30.9798L83.9961 33.0597H86.4558L82.4056 21.5051H79.5837L75.5499 33.0597H78.0031L78.6946 30.9798H83.3046ZM82.6032 28.8505H79.442L81.0226 24.1264L82.6032 28.8505ZM98.0237 33.0597L95.7187 29.0486H93.9899V33.0597H91.7178V21.5051H96.3278C96.8331 21.4964 97.3348 21.5914 97.802 21.7845C98.2692 21.9775 98.692 22.2644 99.0444 22.6276C99.4053 22.9791 99.6907 23.4008 99.8832 23.8669C100.076 24.333 100.171 24.8335 100.164 25.3379C100.152 26.0532 99.9365 26.7502 99.5427 27.3468C99.149 27.9433 98.5934 28.4147 97.9413 28.7053L100.493 33.063L98.0237 33.0597ZM93.9734 23.6312V27.0513H96.3113C96.7452 27.0299 97.1531 26.8375 97.446 26.5159C97.739 26.1944 97.8933 25.7698 97.8755 25.3346C97.8898 24.9017 97.7339 24.4805 97.4413 24.1618C97.1487 23.8432 96.7428 23.6526 96.3113 23.6312H93.9734ZM105.678 29.5946C105.969 30.3295 106.407 30.9973 106.964 31.5576C107.523 32.1254 108.194 32.5713 108.933 32.8673C109.673 33.1632 110.465 33.3029 111.261 33.2776C112.249 33.2915 113.224 33.0478 114.09 32.5703C114.956 32.0929 115.683 31.3981 116.2 30.554L114.224 29.415C113.918 29.9331 113.478 30.3584 112.951 30.6461C112.423 30.9338 111.828 31.0731 111.228 31.0492C110.727 31.0713 110.227 30.9888 109.759 30.8069C109.291 30.6251 108.867 30.3478 108.511 29.9928C108.171 29.6285 107.905 29.2004 107.73 28.733C107.555 28.2656 107.474 27.7682 107.491 27.2692C107.472 26.7671 107.553 26.2663 107.728 25.7955C107.904 25.3248 108.17 24.8933 108.511 24.5258C108.867 24.1707 109.291 23.8935 109.759 23.7117C110.227 23.5298 110.727 23.4473 111.228 23.4694C111.83 23.4461 112.427 23.5874 112.955 23.8782C113.482 24.1689 113.921 24.5982 114.224 25.12L116.2 23.9811C115.681 23.1386 114.953 22.445 114.088 21.9678C113.222 21.4905 112.249 21.2459 111.261 21.2575C110.464 21.2339 109.671 21.3756 108.932 21.6739C108.192 21.9721 107.522 22.4205 106.964 22.9907C106.404 23.5522 105.965 24.2226 105.673 24.9607C105.381 25.6988 105.244 26.4889 105.268 27.2824C105.247 28.073 105.386 28.8597 105.678 29.5946ZM128.285 21.5018H130.541V33.0564H128.285V28.2695H124.004V33.0564H121.732V21.5018H124.004V26.1038H128.285V21.5018ZM139.069 21.5018H136.797V33.0564H139.069V21.5018ZM152.948 21.5018V23.684H149.837V33.0597H147.565V23.684H144.469V21.5018H152.948ZM165.461 30.8808H160.604L160.611 28.2926H164.974V26.1467H160.611V23.6873H165.386V21.5051H158.332V33.0597H165.461V30.8808ZM172.261 31.5576C171.704 30.9973 171.267 30.3295 170.975 29.5946C170.684 28.8597 170.544 28.073 170.565 27.2824C170.541 26.4889 170.679 25.6988 170.97 24.9607C171.262 24.2226 171.701 23.5522 172.261 22.9907C172.818 22.4225 173.485 21.9754 174.221 21.6772C174.958 21.379 175.748 21.2362 176.542 21.2575C177.529 21.2458 178.503 21.4905 179.369 21.9678C180.234 22.445 180.962 23.1386 181.481 23.9811L179.505 25.12C179.202 24.5982 178.763 24.1689 178.235 23.8782C177.708 23.5874 177.111 23.4461 176.509 23.4694C176.008 23.4473 175.508 23.5298 175.04 23.7117C174.572 23.8935 174.147 24.1707 173.792 24.5258C173.45 24.8933 173.184 25.3248 173.009 25.7955C172.834 26.2663 172.753 26.7671 172.771 27.2692C172.754 27.7682 172.836 28.2656 173.011 28.733C173.186 29.2004 173.452 29.6285 173.792 29.9928C174.147 30.3478 174.572 30.6251 175.04 30.8069C175.508 30.9888 176.008 31.0713 176.509 31.0492C177.109 31.0731 177.704 30.9338 178.232 30.6461C178.759 30.3584 179.199 29.9331 179.505 29.415L181.481 30.554C180.964 31.3981 180.236 32.0929 179.371 32.5703C178.505 33.0478 177.53 33.2915 176.542 33.2776C175.749 33.3006 174.959 33.1598 174.223 32.8639C173.487 32.568 172.819 32.1234 172.261 31.5576ZM194.603 23.684V21.5018H186.131V23.684H189.219V33.0597H191.491V23.684H194.603ZM201.123 32.2013C200.714 31.8368 200.391 31.3854 200.177 30.8801C199.963 30.3747 199.865 29.828 199.888 29.2797V21.5018H202.144V29.0948C202.144 30.2998 202.802 31.0591 204.284 31.0591C205.766 31.0591 206.424 30.2998 206.424 29.0948V21.5018H208.697V29.2797C208.72 29.828 208.621 30.3747 208.408 30.8801C208.194 31.3854 207.871 31.8368 207.462 32.2013C206.577 32.9521 205.442 33.3411 204.284 33.2908C203.132 33.3369 202.004 32.9482 201.123 32.2013ZM218.871 29.0486L221.176 33.0597L223.646 33.063L221.094 28.7053C221.746 28.4147 222.302 27.9433 222.696 27.3468C223.089 26.7502 223.305 26.0532 223.317 25.3379C223.324 24.8335 223.229 24.333 223.036 23.8669C222.844 23.4008 222.558 22.9791 222.197 22.6276C221.845 22.2644 221.422 21.9775 220.955 21.7845C220.488 21.5914 219.986 21.4964 219.481 21.5051H214.871V33.0597H217.143V29.0486H218.871ZM217.126 27.0513V23.6312H219.464C219.896 23.6526 220.301 23.8432 220.594 24.1618C220.887 24.4805 221.043 24.9017 221.028 25.3346C221.046 25.7698 220.892 26.1944 220.599 26.5159C220.306 26.8375 219.898 27.0299 219.464 27.0513H217.126ZM231.351 30.8808H236.208V33.0597H229.079V21.5051H236.126V23.6873H231.351V26.1467H235.714V28.2926H231.351V30.8808ZM83.3175 41.72C82.6366 41.4327 81.9028 41.2929 81.1642 41.3096L76.5871 41.3129V52.8675H81.1642C81.9028 52.8843 82.6366 52.7444 83.3175 52.4571C83.9985 52.1698 84.6112 51.7415 85.1156 51.2003C85.6424 50.6571 86.0552 50.0135 86.3296 49.3075C86.6039 48.6015 86.7341 47.8476 86.7127 47.0902C86.7342 46.3324 86.604 45.5779 86.3297 44.8713C86.0554 44.1648 85.6425 43.5206 85.1156 42.9768C84.6112 42.4356 83.9985 42.0073 83.3175 41.72ZM82.4887 50.4559C82.0686 50.6266 81.6171 50.7059 81.1642 50.6886L78.8592 50.7018V43.505H81.1642C81.6174 43.4853 82.0696 43.5636 82.49 43.7344C82.9105 43.9053 83.2893 44.1648 83.6009 44.4954C84.2444 45.2015 84.5819 46.1348 84.5394 47.0902C84.579 48.0492 84.2421 48.9855 83.6009 49.6982C83.2879 50.0269 82.9088 50.2851 82.4887 50.4559ZM94.7143 50.6886H99.5713V52.8675H92.4422V41.3129H99.489V43.4951H94.7143V45.9546H99.0773V48.1004H94.7143V50.6886ZM106.634 49.104L104.692 50.243C105.334 52.0092 106.931 53.0986 109.219 53.1151C110.302 53.1638 111.368 52.8309 112.232 52.1742C112.613 51.8723 112.917 51.4848 113.12 51.0432C113.323 50.6016 113.419 50.1182 113.401 49.6322C113.413 49.0529 113.265 48.4816 112.973 47.9816C112.692 47.5635 112.32 47.2138 111.887 46.9582C111.661 46.8124 111.417 46.6959 111.162 46.6115C110.921 46.502 110.674 46.4083 110.421 46.3309L109.631 46.0635C109.018 45.9041 108.431 45.6597 107.886 45.3372C107.745 45.2358 107.631 45.1017 107.554 44.9464C107.477 44.7912 107.438 44.6194 107.441 44.4459C107.441 43.7691 108.017 43.2904 108.956 43.2904C109.96 43.2904 110.701 43.7856 111.162 44.776L113.072 43.6701C112.715 42.881 112.135 42.2146 111.403 41.7538C110.671 41.293 109.82 41.0582 108.956 41.0785C107.977 41.0558 107.024 41.3902 106.272 42.0194C105.909 42.3213 105.62 42.7034 105.429 43.1358C105.237 43.5683 105.149 44.0393 105.169 44.5119C105.142 44.967 105.228 45.4217 105.417 45.8361C105.607 46.2505 105.895 46.612 106.256 46.8888C106.981 47.3876 107.79 47.7521 108.643 47.9651C109.32 48.1265 109.973 48.3762 110.586 48.7079C110.755 48.7983 110.895 48.9343 110.991 49.1006C111.087 49.2668 111.135 49.4567 111.129 49.6487C111.129 50.3585 110.553 50.8702 109.285 50.8702C107.968 50.8702 107.079 50.276 106.634 49.104ZM118.917 41.3096H121.189V52.8642H118.917V41.3096ZM138.756 47.5524V46.661L132.977 46.6478V48.6616H136.468C136.073 50.0317 134.871 50.857 133.109 50.857C132.585 50.882 132.062 50.8014 131.57 50.6199C131.078 50.4385 130.627 50.1599 130.244 49.8006C129.892 49.446 129.615 49.0231 129.431 48.5577C129.247 48.0922 129.159 47.594 129.174 47.0935C129.155 46.5914 129.238 46.0908 129.42 45.6223C129.601 45.1539 129.876 44.7277 130.228 44.3699C130.58 44.0083 131.003 43.7244 131.471 43.5362C131.939 43.348 132.441 43.2598 132.944 43.2772C134.311 43.2772 135.496 43.9375 136.04 44.8816L137.982 43.7559C137.447 42.9125 136.703 42.2219 135.823 41.7506C134.944 41.2793 133.958 41.0433 132.961 41.0653C132.161 41.0455 131.365 41.1906 130.623 41.4915C129.881 41.7925 129.209 42.2429 128.647 42.815C128.083 43.3751 127.639 44.0445 127.342 44.7824C127.045 45.5203 126.901 46.3111 126.918 47.1067C126.904 47.8985 127.051 48.6849 127.351 49.4173C127.651 50.1498 128.098 50.8128 128.664 51.3654C129.247 51.9387 129.94 52.3879 130.701 52.6857C131.463 52.9836 132.276 53.124 133.093 53.0986C133.841 53.1277 134.587 53.007 135.288 52.7434C135.989 52.4798 136.631 52.0787 137.176 51.5635C137.703 51.042 138.116 50.4159 138.388 49.7252C138.66 49.0345 138.786 48.2944 138.756 47.5524ZM151.154 41.3096H153.426V52.8642H151.697L146.758 45.7994V52.8642H144.486V41.3096H146.215L151.154 48.3612V41.3096ZM83.3046 70.5955L83.9961 72.6753H86.4558L82.4056 61.1208H79.5837L75.5499 72.6753H78.0031L78.6946 70.5955H83.3046ZM82.6032 68.4661H79.442L81.0226 63.742L82.6032 68.4661ZM92.9428 72.6753L89.7157 61.1208H92.1031L94.3093 69.7041L96.7131 61.1208H98.6559L101.076 69.7041L103.282 61.1208H105.67L102.443 72.6753H99.8578L97.6845 65.046L95.5276 72.6753H92.9428ZM116.595 70.5955L117.287 72.6753H119.757L115.706 61.1208H112.891L108.857 72.6753H111.31L112.002 70.5955H116.595ZM114.307 63.742L115.887 68.4661H112.726L114.307 63.742ZM131.314 72.6753L129.009 68.6642H127.281V72.6753H125.009V61.1207H129.619C130.124 61.112 130.626 61.2071 131.093 61.4001C131.56 61.5932 131.983 61.8801 132.335 62.2432C132.696 62.5947 132.981 63.0165 133.174 63.4825C133.367 63.9486 133.462 64.4492 133.455 64.9536C133.443 65.6688 133.227 66.3658 132.834 66.9624C132.44 67.559 131.884 68.0303 131.232 68.3209L133.784 72.6786L131.314 72.6753ZM127.264 63.2468V66.6669H129.602C130.036 66.6455 130.444 66.4531 130.737 66.1315C131.03 65.81 131.184 65.3854 131.166 64.9503C131.181 64.5174 131.025 64.0961 130.732 63.7775C130.439 63.4588 130.034 63.2682 129.602 63.2468H127.264ZM145.948 61.5278C145.267 61.2405 144.533 61.1007 143.794 61.1174L139.217 61.1208V72.6753H143.794C144.533 72.6921 145.267 72.5522 145.948 72.2649C146.629 71.9776 147.241 71.5493 147.746 71.0081C148.273 70.4649 148.685 69.8213 148.96 69.1153C149.234 68.4093 149.364 67.6554 149.343 66.898C149.364 66.1402 149.234 65.3857 148.96 64.6792C148.686 63.9726 148.273 63.3284 147.746 62.7846C147.241 62.2434 146.629 61.8151 145.948 61.5278ZM145.119 70.2637C144.699 70.4344 144.247 70.5138 143.794 70.4965L141.489 70.5097V63.3128H143.794C144.248 63.2931 144.7 63.3714 145.12 63.5423C145.541 63.7131 145.919 63.9727 146.231 64.3032C146.874 65.0093 147.212 65.9426 147.17 66.898C147.209 67.857 146.872 68.7933 146.231 69.5061C145.918 69.8347 145.539 70.093 145.119 70.2637ZM154.068 70.0508L156.011 68.9118C156.455 70.0838 157.328 70.678 158.645 70.678C159.962 70.678 160.489 70.1663 160.489 69.4565C160.495 69.2645 160.447 69.0746 160.351 68.9084C160.255 68.7421 160.115 68.6061 159.946 68.5157C159.333 68.184 158.68 67.9343 158.003 67.7729C157.15 67.5599 156.341 67.1954 155.616 66.6966C155.254 66.4198 154.966 66.0583 154.777 65.6439C154.588 65.2295 154.502 64.7748 154.529 64.3197C154.508 63.8471 154.597 63.3761 154.789 62.9436C154.98 62.5112 155.269 62.1291 155.632 61.8272C156.383 61.198 157.337 60.8637 158.316 60.8864C159.18 60.866 160.031 61.1008 160.763 61.5616C161.494 62.0224 162.075 62.6888 162.432 63.4779L160.522 64.5838C160.061 63.5934 159.32 63.0982 158.316 63.0982C157.377 63.0982 156.801 63.5769 156.801 64.2537C156.798 64.4272 156.836 64.599 156.914 64.7542C156.991 64.9095 157.105 65.0436 157.246 65.145C157.791 65.4675 158.378 65.712 158.991 65.8713L159.781 66.1387C160.034 66.2161 160.281 66.3098 160.522 66.4193C160.777 66.5037 161.021 66.6202 161.246 66.766C161.68 67.0216 162.052 67.3713 162.333 67.7894C162.625 68.2895 162.773 68.8608 162.761 69.44C162.779 69.926 162.683 70.4094 162.48 70.851C162.276 71.2926 161.972 71.6801 161.592 71.982C160.728 72.6387 159.662 72.9716 158.579 72.9229C156.307 72.9064 154.71 71.817 154.068 70.0508ZM34.7301 10.2671L38.1353 1.51204L66.6395 72.9452C64.6982 72.9441 62.8032 72.3278 61.2063 71.1782C59.6095 70.0286 58.3865 68.4001 57.7 66.5093L57.6154 66.2731L34.7301 10.2671ZM33.3726 12.7113L33.613 13.3353L56.5491 72.8553L56.6801 73.1953L56.3157 73.1952C54.3211 73.1946 52.3749 72.5616 50.7361 71.3817C49.0974 70.202 47.8441 68.5318 47.1413 66.5945L47.1409 66.5936L47.0576 66.361L29.8637 22.5748L29.8292 22.487L29.8614 22.3982L33.1447 13.34L33.3726 12.7113ZM33.3869 14.1391L30.3636 22.4799L47.5244 66.1817L47.5271 66.1887L47.527 66.1888L47.6113 66.424L47.6114 66.4243C48.2808 68.2692 49.4732 69.8564 51.0283 70.976C52.4823 72.0228 54.1892 72.6146 55.9486 72.6875L33.3869 14.1391ZM25.3541 34.4036L28.739 25.6697L46.0053 72.9522C44.0638 72.9522 42.1683 72.3363 40.5713 71.1865C38.9743 70.0368 37.7515 68.4077 37.0658 66.5163L36.9812 66.2802L25.3541 34.4036ZM23.7699 41.622L19.1462 54.36L28.5697 54.3458C28.8385 54.345 29.1012 54.4295 29.3225 54.5883C29.5439 54.747 29.7135 54.9723 29.8086 55.2341H18.8009L12.7081 71.983C12.6086 72.2675 12.4279 72.5134 12.1902 72.6879C11.9533 72.8584 11.6726 72.9505 11.3846 72.9522L23.7699 38.746C24.1066 39.6726 24.1066 40.6954 23.7699 41.622Z" fill="url(#paint0_linear_3272_30348)"/>
<defs>
<linearGradient id="paint0_linear_3272_30348" x1="11.3846" y1="37.3267" x2="236.208" y2="37.3267" gradientUnits="userSpaceOnUse">
<stop stop-color="#FAC47E"/>
<stop offset="1" stop-color="#A67F56"/>
</linearGradient>
</defs>
</svg>
