<svg width="301" height="101" viewBox="0 0 301 101" fill="none" xmlns="http://www.w3.org/2000/svg">
<g style="mix-blend-mode:screen" opacity="0.3">
<path d="M38.0293 0.5L33.2521 12.7552L65.3584 91.1508L65.4772 91.4813C66.4403 94.1281 68.156 96.4076 70.3963 98.0168C72.6365 99.626 75.2951 100.489 78.0186 100.49L38.0293 0.5Z" fill="#A67F56"/>
<path d="M38.0293 0.5L33.2521 12.7552L65.3584 91.1508L65.4772 91.4813C66.4403 94.1281 68.156 96.4076 70.3963 98.0168C72.6365 99.626 75.2951 100.489 78.0186 100.49L38.0293 0.5Z" fill="#16203C"/>
<path d="M31.3576 17.1758L26.7513 29.8553L50.875 91.1508L50.9937 91.4814C51.9563 94.1285 53.6719 96.4084 55.9122 98.0177C58.1526 99.627 60.8115 100.489 63.5352 100.49L31.3576 17.1758Z" stroke="#A67F56" stroke-width="0.45" stroke-miterlimit="10"/>
<path d="M31.3576 17.1758L26.7513 29.8553L50.875 91.1508L50.9937 91.4814C51.9563 94.1285 53.6719 96.4084 55.9122 98.0177C58.1526 99.627 60.8115 100.489 63.5352 100.49L31.3576 17.1758Z" stroke="#16203C" stroke-width="0.45" stroke-miterlimit="10"/>
<path d="M24.8469 34.3152L20.0981 46.5408L36.4101 91.1606L36.5288 91.4912C37.4908 94.1387 39.2063 96.419 41.4467 98.0284C43.6872 99.6378 46.3464 100.5 49.0703 100.5L24.8469 34.3152ZM11.3889 74.475L17.8757 56.6449C18.348 55.3478 18.348 53.9161 17.8757 52.619V52.619L0.5 100.5C0.903978 100.498 1.29786 100.369 1.63021 100.13C1.96362 99.8858 2.21713 99.5415 2.35675 99.1433L10.9045 75.6986H26.3475C26.2141 75.3322 25.9762 75.0168 25.6656 74.7946C25.355 74.5725 24.9865 74.4541 24.6094 74.4553L11.3889 74.475Z" fill="#A67F56"/>
<path d="M24.8469 34.3152L20.0981 46.5408L36.4101 91.1606L36.5288 91.4912C37.4908 94.1387 39.2063 96.419 41.4467 98.0284C43.6872 99.6378 46.3464 100.5 49.0703 100.5L24.8469 34.3152ZM11.3889 74.475L17.8757 56.6449C18.348 55.3478 18.348 53.9161 17.8757 52.619V52.619L0.5 100.5C0.903978 100.498 1.29786 100.369 1.63021 100.13C1.96362 99.8858 2.21713 99.5415 2.35675 99.1433L10.9045 75.6986H26.3475C26.2141 75.3322 25.9762 75.0168 25.6656 74.7946C25.355 74.5725 24.9865 74.4541 24.6094 74.4553L11.3889 74.475Z" fill="#16203C"/>
</g>
</svg>
