<svg width="99" height="81" viewBox="0 0 99 81" fill="none" xmlns="http://www.w3.org/2000/svg">
<path d="M50.1187 0.300003L47.3013 7.4225L66.2359 52.9848L66.3059 53.1769C66.8739 54.7151 67.8858 56.04 69.2069 56.9752C70.5281 57.9104 72.096 58.4118 73.7022 58.4127L50.1187 0.300003Z" fill="#A67F56"/>
<path d="M46.1841 9.99162L43.4675 17.3607L57.6944 52.9847L57.7644 53.1768C58.3321 54.7153 59.3438 56.0404 60.6651 56.9757C61.9863 57.911 63.5544 58.4122 65.1607 58.4126L46.1841 9.99162Z" stroke="#A67F56" stroke-width="0.6" stroke-miterlimit="10"/>
<path d="M42.3444 19.9529L39.5438 27.0582L49.1637 52.9905L49.2337 53.1826C49.8011 54.7214 50.8127 56.0466 52.1341 56.982C53.4554 57.9173 55.0236 58.4184 56.63 58.4184L42.3444 19.9529ZM34.4076 43.2931L38.2331 32.9305C38.5117 32.1767 38.5117 31.3446 38.2331 30.5908V30.5908L27.9859 58.4184C28.2241 58.417 28.4564 58.342 28.6524 58.2034C28.8491 58.0614 28.9986 57.8613 29.0809 57.6299L34.1219 44.0042H43.2293C43.1507 43.7913 43.0104 43.608 42.8272 43.4789C42.644 43.3497 42.4267 43.2809 42.2043 43.2817L34.4076 43.2931Z" fill="#A67F56"/>
<path d="M15.9165 70.3431L14.8419 67.3184H14.0949L13.0247 70.3431H13.6756L13.859 69.7987H15.0778L15.2613 70.3431H15.9165ZM14.4706 68.0054L14.89 69.2412H14.0512L14.4706 68.0054Z" fill="#A67F56"/>
<path d="M17.8445 70.4036C18.1721 70.4036 18.4386 70.3215 18.6439 70.1573C18.8492 69.9931 18.954 69.7727 18.954 69.4919C18.954 69.319 18.906 69.1678 18.8404 69.0641C18.7837 68.9604 18.6439 68.8523 18.5521 68.7962C18.5084 68.7659 18.4429 68.7357 18.3599 68.7054C18.2769 68.6709 18.2114 68.6449 18.1634 68.632L17.9537 68.5628C17.7265 68.4937 17.5736 68.4289 17.4906 68.3727C17.412 68.3122 17.3727 68.2344 17.3727 68.1394C17.3727 67.9622 17.5256 67.8369 17.7746 67.8369C18.041 67.8369 18.2376 67.9665 18.3599 68.2258L18.8667 67.9363C18.657 67.5085 18.2682 67.2579 17.7746 67.2579C17.4994 67.2579 17.2591 67.34 17.0625 67.5042C16.866 67.6641 16.7699 67.8844 16.7699 68.1567C16.7699 68.4332 16.8703 68.6406 17.0582 68.7789C17.2504 68.9128 17.4164 68.9777 17.6916 69.0598C17.9406 69.1289 18.1109 69.1937 18.207 69.2542C18.3031 69.3104 18.3512 69.3925 18.3512 69.5005C18.3512 69.6863 18.1983 69.8203 17.8619 69.8203C17.5125 69.8203 17.2766 69.6647 17.1586 69.3579L16.6432 69.6561C16.8135 70.1184 17.2373 70.4036 17.8445 70.4036Z" fill="#A67F56"/>
<path d="M19.9811 70.3431H20.584V67.3184H19.9811V70.3431Z" fill="#A67F56"/>
<path d="M24.4263 70.3431L23.3516 67.3184H22.6047L21.5344 70.3431H22.1853L22.3688 69.7987H23.5875L23.771 70.3431H24.4263ZM22.9803 68.0054L23.3997 69.2412H22.561L22.9803 68.0054Z" fill="#A67F56"/>
<path d="M29.7468 70.3431L28.6721 67.3184H27.9252L26.8549 70.3431H27.5058L27.6893 69.7987H28.908L29.0915 70.3431H29.7468ZM28.3008 68.0054L28.7202 69.2412H27.8815L28.3008 68.0054Z" fill="#A67F56"/>
<path d="M33.0272 70.3431L32.3501 69.2024C32.704 69.0425 32.9399 68.6968 32.9399 68.3209C32.9399 68.0443 32.8394 67.8066 32.6428 67.6122C32.4463 67.4178 32.206 67.3184 31.922 67.3184H30.6989V70.3431H31.3017V69.2931H31.7604L32.3764 70.3431H33.0272ZM31.922 67.8758C32.1492 67.8758 32.337 68.0746 32.337 68.3209C32.337 68.5672 32.1492 68.7702 31.922 68.7702H31.3017V67.8758H31.922Z" fill="#A67F56"/>
<path d="M35.4536 70.4036C36.0128 70.4036 36.5064 70.1271 36.7685 69.6906L36.2487 69.3925C36.1045 69.6561 35.8031 69.8203 35.4536 69.8203C35.1566 69.8203 34.9163 69.7295 34.7328 69.5437C34.5537 69.3579 34.462 69.1203 34.462 68.8307C34.462 68.5369 34.5537 68.2993 34.7328 68.1134C34.9163 67.9276 35.1566 67.8369 35.4536 67.8369C35.8031 67.8369 36.0958 67.9968 36.2487 68.269L36.7685 67.9708C36.5064 67.5344 36.0084 67.2579 35.4536 67.2579C34.9949 67.2579 34.6149 67.4091 34.3135 67.7116C34.0121 68.0097 33.8635 68.3857 33.8635 68.8307C33.8635 69.2758 34.0121 69.6474 34.3135 69.9499C34.6149 70.2524 34.9949 70.4036 35.4536 70.4036Z" fill="#A67F56"/>
<path d="M39.5327 68.5196H38.3969V67.3184H37.7941V70.3431H38.3969V69.09H39.5327V70.3431H40.1311V67.3184H39.5327V68.5196Z" fill="#A67F56"/>
<path d="M41.3544 70.3431H41.9573V67.3184H41.3544V70.3431Z" fill="#A67F56"/>
<path d="M42.9514 67.3184V67.8887H43.7726V70.3431H44.3755V67.8887H45.2011V67.3184H42.9514Z" fill="#A67F56"/>
<path d="M46.7957 69.0943H47.9533V68.5326H46.7957V67.8887H48.0625V67.3184H46.1929V70.3431H48.0844V69.7727H46.7957V69.0943Z" fill="#A67F56"/>
<path d="M50.5935 70.4036C51.1526 70.4036 51.6463 70.1271 51.9084 69.6906L51.3885 69.3925C51.2444 69.6561 50.943 69.8203 50.5935 69.8203C50.2964 69.8203 50.0562 69.7295 49.8727 69.5437C49.6936 69.3579 49.6019 69.1203 49.6019 68.8307C49.6019 68.5369 49.6936 68.2993 49.8727 68.1134C50.0562 67.9276 50.2964 67.8369 50.5935 67.8369C50.943 67.8369 51.2356 67.9968 51.3885 68.269L51.9084 67.9708C51.6463 67.5344 51.1483 67.2579 50.5935 67.2579C50.1348 67.2579 49.7548 67.4091 49.4534 67.7116C49.1519 68.0097 49.0034 68.3857 49.0034 68.8307C49.0034 69.2758 49.1519 69.6474 49.4534 69.9499C49.7548 70.2524 50.1348 70.4036 50.5935 70.4036Z" fill="#A67F56"/>
<path d="M52.694 67.3184V67.8887H53.5152V70.3431H54.1181V67.8887H54.9437V67.3184H52.694Z" fill="#A67F56"/>
<path d="M57.0756 70.4036C57.4207 70.4036 57.7003 70.3085 57.9187 70.1184C58.1371 69.9283 58.2463 69.6734 58.2463 69.3536V67.3184H57.6435V69.3061C57.6435 69.6215 57.4644 69.8203 57.0756 69.8203C56.6868 69.8203 56.5077 69.6215 56.5077 69.3061V67.3184H55.9093V69.3536C55.9093 69.6734 56.0185 69.9283 56.2369 70.1184C56.4553 70.3085 56.7349 70.4036 57.0756 70.4036Z" fill="#A67F56"/>
<path d="M61.773 70.3431L61.0959 69.2024C61.4497 69.0425 61.6856 68.6968 61.6856 68.3209C61.6856 68.0443 61.5851 67.8066 61.3886 67.6122C61.192 67.4178 60.9517 67.3184 60.6678 67.3184H59.4446V70.3431H60.0475V69.2931H60.5062L61.1221 70.3431H61.773ZM60.6678 67.8758C60.8949 67.8758 61.0828 68.0746 61.0828 68.3209C61.0828 68.5672 60.8949 68.7702 60.6678 68.7702H60.0475V67.8758H60.6678Z" fill="#A67F56"/>
<path d="M63.386 69.0943H64.5436V68.5326H63.386V67.8887H64.6528V67.3184H62.7832V70.3431H64.6747V69.7727H63.386V69.0943Z" fill="#A67F56"/>
<path d="M67.5022 67.3184V70.3431H68.7166C69.1359 70.3431 69.4854 70.1962 69.765 69.9067C70.0489 69.6172 70.1887 69.2585 70.1887 68.8307C70.1887 68.403 70.0489 68.0443 69.765 67.7548C69.4854 67.4653 69.1359 67.3184 68.7166 67.3184H67.5022ZM68.105 69.7727V67.8887H68.7166C68.983 67.8887 69.1971 67.9752 69.3631 68.1523C69.5291 68.3252 69.6121 68.5499 69.6121 68.8307C69.6121 69.1116 69.5291 69.3363 69.3631 69.5135C69.1971 69.6863 68.983 69.7727 68.7166 69.7727H68.105Z" fill="#A67F56"/>
<path d="M71.8744 69.0943H73.032V68.5326H71.8744V67.8887H73.1412V67.3184H71.2716V70.3431H73.1631V69.7727H71.8744V69.0943Z" fill="#A67F56"/>
<path d="M75.2873 70.4036C75.6149 70.4036 75.8814 70.3215 76.0867 70.1573C76.292 69.9931 76.3968 69.7727 76.3968 69.4919C76.3968 69.319 76.3488 69.1678 76.2833 69.0641C76.2265 68.9604 76.0867 68.8523 75.9949 68.7962C75.9513 68.7659 75.8857 68.7357 75.8027 68.7054C75.7197 68.6709 75.6542 68.6449 75.6062 68.632L75.3965 68.5628C75.1693 68.4937 75.0164 68.4289 74.9334 68.3727C74.8548 68.3122 74.8155 68.2344 74.8155 68.1394C74.8155 67.9622 74.9684 67.8369 75.2174 67.8369C75.4839 67.8369 75.6804 67.9665 75.8027 68.2258L76.3095 67.9363C76.0998 67.5085 75.711 67.2579 75.2174 67.2579C74.9422 67.2579 74.7019 67.34 74.5053 67.5042C74.3088 67.6641 74.2127 67.8844 74.2127 68.1567C74.2127 68.4332 74.3131 68.6406 74.501 68.7789C74.6932 68.9128 74.8592 68.9777 75.1344 69.0598C75.3834 69.1289 75.5537 69.1937 75.6498 69.2542C75.746 69.3104 75.794 69.3925 75.794 69.5005C75.794 69.6863 75.6411 69.8203 75.3048 69.8203C74.9553 69.8203 74.7194 69.6647 74.6014 69.3579L74.086 69.6561C74.2563 70.1184 74.6801 70.4036 75.2873 70.4036Z" fill="#A67F56"/>
<path d="M77.4239 70.3431H78.0268V67.3184H77.4239V70.3431Z" fill="#A67F56"/>
<path d="M80.7158 68.7184V69.2456H81.6419C81.5327 69.6042 81.2182 69.8203 80.7508 69.8203C80.4363 69.8203 80.1829 69.7295 79.9907 69.5437C79.8028 69.3579 79.7067 69.1203 79.7067 68.8351C79.7067 68.5456 79.7985 68.3079 79.9863 68.1221C80.1742 67.932 80.4144 67.8369 80.7071 67.8369C81.0697 67.8369 81.3842 68.0097 81.5283 68.256L82.0438 67.9622C81.7817 67.5344 81.2837 67.2579 80.7115 67.2579C80.2572 67.2579 79.8771 67.4091 79.567 67.7159C79.2612 68.0227 79.1083 68.3943 79.1083 68.8351C79.1083 69.2715 79.2612 69.6431 79.5713 69.9499C79.8815 70.2524 80.2746 70.4036 80.7464 70.4036C81.1876 70.4036 81.5502 70.2697 81.8298 70.0018C82.1093 69.7338 82.2491 69.3838 82.2491 68.9517V68.7184H80.7158Z" fill="#A67F56"/>
<path d="M85.1023 69.1635L83.7918 67.3184H83.3331V70.3431H83.936V68.4937L85.2465 70.3431H85.7052V67.3184H85.1023V69.1635Z" fill="#A67F56"/>
<path d="M37.5328 77.8731L38.548 75.5592H38.5725L39.5877 77.8731H39.074L38.4257 76.2458L38.7468 76.028L37.9701 77.8731H37.5328ZM38.227 77.0686H38.9027L39.0587 77.4376H38.0894L38.227 77.0686Z" fill="#A67F56"/>
<path d="M41.6515 75.662H42.1713L42.6514 77.0595L42.5811 77.0292L43 75.9978L43.2049 76.5997L42.5566 77.976L41.6515 75.662ZM42.7798 75.662H43.2202L43.7736 77.0141L43.6941 77.002L44.1069 75.662H44.5839L43.7155 77.9699L42.7798 75.662Z" fill="#A67F56"/>
<path d="M46.6751 77.8731L47.6903 75.5592H47.7147L48.7299 77.8731H48.2162L47.5679 76.2458L47.889 76.028L47.1123 77.8731H46.6751ZM47.3692 77.0686H48.045L48.2009 77.4376H47.2316L47.3692 77.0686Z" fill="#A67F56"/>
<path d="M52.0027 75.6469C52.1434 75.6469 52.2687 75.6651 52.3788 75.7014C52.4889 75.7356 52.5806 75.7861 52.654 75.8526C52.7294 75.9171 52.7865 75.9958 52.8253 76.0885C52.864 76.1793 52.8833 76.2821 52.8833 76.3971C52.8833 76.4878 52.8691 76.5785 52.8405 76.6693C52.814 76.76 52.7692 76.8427 52.706 76.9173C52.6448 76.9919 52.5633 77.0524 52.4614 77.0988C52.3594 77.1432 52.233 77.1653 52.0822 77.1653H51.7642V77.8731H51.3208V75.6469H52.0027ZM52.0791 76.7419C52.1464 76.7419 52.2025 76.7308 52.2473 76.7086C52.2922 76.6864 52.3268 76.6582 52.3513 76.6239C52.3778 76.5896 52.3961 76.5543 52.4063 76.518C52.4186 76.4797 52.4247 76.4444 52.4247 76.4122C52.4247 76.388 52.4206 76.3577 52.4124 76.3214C52.4063 76.2831 52.3921 76.2448 52.3696 76.2065C52.3472 76.1682 52.3126 76.1359 52.2657 76.1097C52.2208 76.0835 52.1597 76.0704 52.0822 76.0704H51.7642V76.7419H52.0791ZM52.495 77.0141L53.0515 77.8731H52.5348L51.966 77.0262L52.495 77.0141Z" fill="#A67F56"/>
<path d="M55.6799 77.8731V75.6469H56.3526C56.5789 75.6469 56.7715 75.6802 56.9305 75.7467C57.0896 75.8133 57.217 75.902 57.3128 76.0129C57.4106 76.1238 57.482 76.2478 57.5268 76.385C57.5717 76.5221 57.5941 76.6602 57.5941 76.7994C57.5941 76.9647 57.5635 77.1139 57.5024 77.247C57.4432 77.3781 57.3617 77.491 57.2577 77.5858C57.1538 77.6785 57.0335 77.7501 56.8969 77.8005C56.7603 77.8489 56.6156 77.8731 56.4627 77.8731H55.6799ZM56.1233 77.4497H56.3862C56.4984 77.4497 56.6003 77.4356 56.692 77.4073C56.7838 77.3771 56.8623 77.3337 56.9275 77.2773C56.9948 77.2208 57.0457 77.1502 57.0804 77.0655C57.1171 76.9788 57.1354 76.88 57.1354 76.7691C57.1354 76.6239 57.111 76.5059 57.062 76.4152C57.0151 76.3224 56.956 76.2509 56.8847 76.2005C56.8154 76.15 56.744 76.1158 56.6706 76.0976C56.5972 76.0774 56.5351 76.0674 56.4841 76.0674H56.1233V77.4497Z" fill="#A67F56"/>
<path d="M61.5035 76.1853C61.4179 76.1389 61.3302 76.1006 61.2405 76.0704C61.1529 76.0401 61.0703 76.025 60.9928 76.025C60.897 76.025 60.8216 76.0442 60.7666 76.0825C60.7115 76.1208 60.684 76.1783 60.684 76.2549C60.684 76.3073 60.7044 76.3547 60.7451 76.3971C60.788 76.4374 60.842 76.4737 60.9072 76.5059C60.9745 76.5382 61.0438 76.5675 61.1151 76.5937C61.1804 76.6179 61.2446 76.6471 61.3078 76.6814C61.373 76.7136 61.4311 76.755 61.4821 76.8054C61.533 76.8538 61.5738 76.9153 61.6044 76.9899C61.635 77.0625 61.6503 77.1522 61.6503 77.2591C61.6503 77.372 61.6207 77.4769 61.5616 77.5737C61.5025 77.6705 61.4158 77.7491 61.3017 77.8096C61.1875 77.8681 61.0469 77.8973 60.8797 77.8973C60.7941 77.8973 60.7064 77.8893 60.6167 77.8731C60.5291 77.855 60.4424 77.8288 60.3568 77.7945C60.2712 77.7582 60.1886 77.7128 60.1091 77.6584L60.3048 77.3166C60.3578 77.3549 60.4149 77.3892 60.4761 77.4194C60.5393 77.4477 60.6024 77.4698 60.6656 77.486C60.7288 77.5021 60.7869 77.5102 60.8399 77.5102C60.8929 77.5102 60.9459 77.5031 60.9989 77.489C61.054 77.4729 61.0988 77.4466 61.1335 77.4103C61.1702 77.3741 61.1885 77.3236 61.1885 77.2591C61.1885 77.2147 61.1732 77.1744 61.1427 77.1381C61.1141 77.1018 61.0744 77.0686 61.0234 77.0383C60.9745 77.0081 60.9205 76.9818 60.8613 76.9597C60.792 76.9334 60.7207 76.9032 60.6473 76.8689C60.5739 76.8346 60.5046 76.7933 60.4394 76.7449C60.3762 76.6945 60.3242 76.633 60.2834 76.5604C60.2447 76.4858 60.2253 76.395 60.2253 76.2882C60.2253 76.1591 60.2539 76.0472 60.3109 75.9524C60.3701 75.8576 60.4526 75.783 60.5586 75.7286C60.6646 75.6721 60.7869 75.6409 60.9256 75.6348C61.107 75.6348 61.2538 75.656 61.3659 75.6983C61.48 75.7407 61.582 75.7911 61.6717 75.8496L61.5035 76.1853Z" fill="#A67F56"/>
</svg>
