<svg width="170" height="56" viewBox="0 0 170 56" fill="none" xmlns="http://www.w3.org/2000/svg">
<path fill-rule="evenodd" clip-rule="evenodd" d="M64.2623 7.5333L65.6442 6.72594C65.9604 7.55669 66.5811 7.97793 67.5179 7.97793C68.4548 7.97793 68.8296 7.6152 68.8296 7.11207C68.8338 6.97595 68.7999 6.84135 68.7316 6.72349C68.6633 6.60564 68.5634 6.50921 68.4431 6.44511C68.0075 6.21003 67.5429 6.03301 67.0612 5.91858C66.4546 5.76733 65.8797 5.50983 65.3631 5.15802C65.1063 4.96114 64.9016 4.70446 64.7668 4.41035C64.6321 4.11625 64.5715 3.79368 64.5902 3.47077C64.5757 3.13576 64.639 2.80195 64.7751 2.49544C64.9113 2.18894 65.1165 1.91805 65.3748 1.70395C65.9092 1.25792 66.5876 1.02091 67.2837 1.037C67.8983 1.02256 68.5035 1.18902 69.0241 1.51566C69.5446 1.8423 69.9576 2.31469 70.2115 2.87404L68.853 3.66033C68.5251 2.95828 67.9981 2.60491 67.2837 2.60491C66.6162 2.60491 66.2063 2.94424 66.2063 3.42631C66.2043 3.54926 66.232 3.67088 66.2871 3.78086C66.3421 3.89085 66.4229 3.98597 66.5225 4.05816C66.9112 4.28475 67.3288 4.45791 67.7638 4.57298L68.326 4.76021C68.5054 4.81611 68.6814 4.88253 68.853 4.95912C69.0335 5.01624 69.2065 5.0948 69.3683 5.19313C69.6768 5.37436 69.9409 5.62222 70.1412 5.91858C70.3488 6.27306 70.4542 6.67803 70.4457 7.08866C70.4584 7.43315 70.3898 7.7758 70.2453 8.08886C70.1009 8.40191 69.8847 8.67657 69.6142 8.89059C68.9997 9.35609 68.2415 9.59204 67.4711 9.55754C65.855 9.55754 64.719 8.78528 64.2623 7.5333ZM59.3905 9.39374L58.8986 7.91944H55.6196L55.1277 9.39374H53.3828L56.252 1.20316H58.2592L61.1401 9.39374H59.3905ZM56.1512 6.41003H58.3997L57.2755 3.06125L56.1512 6.41003ZM75.9967 1.20082H74.3806V9.39139H75.9967V1.20082ZM85.7168 9.39374L85.225 7.91944H81.9459L81.454 9.39374H79.7091L82.5783 1.20316H84.5808L87.4618 9.39374H85.7168ZM82.4729 6.41003H84.7214L83.5971 3.06125L82.4729 6.41003ZM58.8986 21.9604L59.3905 23.4347H61.1401L58.2592 15.2441H56.252L53.3828 23.4347H55.1277L55.6196 21.9604H58.8986ZM58.3997 20.451H56.1512L57.2755 17.1022L58.3997 20.451ZM69.3683 23.4347L67.7287 20.5914H66.4991V23.4347H64.883V15.2441H68.162C68.5214 15.2379 68.8783 15.3053 69.2106 15.4422C69.5429 15.579 69.8437 15.7824 70.0944 16.0398C70.351 16.289 70.5541 16.5879 70.691 16.9183C70.8279 17.2487 70.8959 17.6035 70.8907 17.9611C70.8822 18.4681 70.7289 18.9622 70.4488 19.3851C70.1687 19.8079 69.7735 20.1421 69.3097 20.348L71.1249 23.4371L69.3683 23.4347ZM66.4874 16.7512V19.1756H68.1503C68.4589 19.1604 68.749 19.024 68.9574 18.7961C69.1658 18.5682 69.2756 18.2672 69.2629 17.9587C69.2731 17.6519 69.1621 17.3533 68.954 17.1274C68.7459 16.9015 68.4572 16.7664 68.1503 16.7512H66.4874ZM74.8127 20.9784C75.0201 21.4994 75.3312 21.9728 75.7273 22.3699C76.1253 22.7725 76.6023 23.0885 77.1282 23.2983C77.6542 23.5081 78.2178 23.6072 78.7839 23.5892C79.4867 23.5991 80.1801 23.4263 80.796 23.0879C81.4119 22.7494 81.9292 22.2569 82.2972 21.6585L80.8919 20.8512C80.6742 21.2184 80.3612 21.5199 79.986 21.7238C79.6107 21.9278 79.1873 22.0265 78.7605 22.0096C78.4041 22.0252 78.0483 21.9667 77.7156 21.8378C77.383 21.7089 77.0808 21.5124 76.8282 21.2607C76.5859 21.0025 76.3971 20.699 76.2725 20.3677C76.1479 20.0364 76.09 19.6838 76.1021 19.3301C76.0891 18.9741 76.1466 18.6192 76.2712 18.2855C76.3958 17.9518 76.5851 17.6459 76.8282 17.3854C77.0808 17.1337 77.383 16.9372 77.7156 16.8083C78.0483 16.6794 78.4041 16.6209 78.7605 16.6365C79.1886 16.62 79.6131 16.7202 79.9886 16.9263C80.364 17.1324 80.6763 17.4367 80.8919 17.8066L82.2972 16.9993C81.928 16.402 81.4104 15.9104 80.7948 15.5721C80.1792 15.2338 79.4864 15.0604 78.7839 15.0686C78.2172 15.0519 77.6531 15.1523 77.1271 15.3638C76.6011 15.5752 76.1245 15.893 75.7273 16.2972C75.3291 16.6952 75.0167 17.1705 74.8092 17.6937C74.6018 18.2169 74.5037 18.7769 74.5211 19.3394C74.5062 19.8999 74.6054 20.4575 74.8127 20.9784ZM90.8931 15.2418H92.4975V23.4324H90.8931V20.0391H87.8482V23.4324H86.2321V15.2418H87.8482V18.504H90.8931V15.2418ZM98.5638 15.2418H96.9477V23.4324H98.5638V15.2418ZM108.436 15.2418V16.7887H106.223V23.4347H104.607V16.7887H102.405V15.2418H108.436ZM117.336 21.8902H113.882L113.886 20.0555H116.99V18.5344H113.886V16.791H117.283V15.2441H112.266V23.4347H117.336V21.8902ZM122.173 22.3699C121.777 21.9728 121.466 21.4994 121.259 20.9784C121.051 20.4575 120.952 19.8999 120.967 19.3394C120.95 18.7769 121.048 18.2169 121.255 17.6937C121.462 17.1705 121.775 16.6952 122.173 16.2972C122.569 15.8945 123.044 15.5775 123.568 15.3661C124.091 15.1548 124.653 15.0535 125.218 15.0686C125.921 15.0604 126.613 15.2338 127.229 15.5721C127.844 15.9104 128.362 16.402 128.731 16.9993L127.326 17.8066C127.11 17.4367 126.798 17.1324 126.423 16.9263C126.047 16.7202 125.623 16.62 125.195 16.6365C124.838 16.6209 124.482 16.6794 124.15 16.8083C123.817 16.9372 123.515 17.1337 123.262 17.3854C123.019 17.6459 122.83 17.9518 122.705 18.2855C122.581 18.6192 122.523 18.9741 122.536 19.3301C122.524 19.6838 122.582 20.0364 122.707 20.3677C122.831 20.699 123.02 21.0025 123.262 21.2607C123.515 21.5124 123.817 21.7089 124.15 21.8378C124.482 21.9667 124.838 22.0252 125.195 22.0096C125.621 22.0265 126.045 21.9278 126.42 21.7238C126.795 21.5199 127.108 21.2184 127.326 20.8512L128.731 21.6585C128.363 22.2569 127.846 22.7494 127.23 23.0879C126.614 23.4263 125.921 23.5991 125.218 23.5892C124.654 23.6055 124.092 23.5057 123.569 23.296C123.045 23.0862 122.57 22.771 122.173 22.3699ZM138.065 16.7887V15.2418H132.038V16.7887H134.235V23.4347H135.852V16.7887H138.065ZM142.703 22.8263C142.411 22.5678 142.182 22.2479 142.03 21.8897C141.878 21.5315 141.808 21.1439 141.824 20.7552V15.2418H143.429V20.6242C143.429 21.4783 143.897 22.0166 144.951 22.0166C146.005 22.0166 146.473 21.4783 146.473 20.6242V15.2418H148.09V20.7552C148.106 21.1439 148.036 21.5315 147.884 21.8897C147.732 22.2479 147.502 22.5678 147.211 22.8263C146.582 23.3585 145.775 23.6342 144.951 23.5985C144.131 23.6312 143.329 23.3557 142.703 22.8263ZM155.327 20.5914L156.967 23.4347L158.723 23.4371L156.908 20.348C157.372 20.1421 157.767 19.8079 158.047 19.3851C158.327 18.9622 158.48 18.4681 158.489 17.9611C158.494 17.6035 158.426 17.2487 158.289 16.9183C158.152 16.5879 157.949 16.289 157.693 16.0398C157.442 15.7824 157.141 15.579 156.809 15.4422C156.477 15.3053 156.12 15.2379 155.76 15.2441H152.481V23.4347H154.097V20.5914H155.327ZM154.086 19.1756V16.7512H155.749C156.055 16.7664 156.344 16.9015 156.552 17.1274C156.76 17.3533 156.871 17.6519 156.861 17.9587C156.874 18.2672 156.764 18.5682 156.556 18.7961C156.347 19.024 156.057 19.1604 155.749 19.1756H154.086ZM164.204 21.8902H167.659V23.4347H162.588V15.2441H167.6V16.791H164.204V18.5344H167.307V20.0555H164.204V21.8902ZM58.9079 29.5737C58.4235 29.37 57.9016 29.2709 57.3762 29.2828L54.1205 29.2851V37.4757H57.3762C57.9016 37.4876 58.4235 37.3884 58.9079 37.1848C59.3922 36.9811 59.8281 36.6775 60.1868 36.2939C60.5616 35.9089 60.8552 35.4526 61.0503 34.9522C61.2454 34.4517 61.3381 33.9173 61.3228 33.3804C61.3381 32.8432 61.2455 32.3084 61.0504 31.8075C60.8553 31.3067 60.5616 30.8501 60.1868 30.4646C59.8281 30.0809 59.3922 29.7774 58.9079 29.5737ZM58.3183 35.7662C58.0195 35.8872 57.6984 35.9435 57.3762 35.9312L55.7367 35.9406V30.839H57.3762C57.6986 30.825 58.0202 30.8805 58.3193 31.0016C58.6183 31.1228 58.8878 31.3067 59.1094 31.541C59.5671 32.0415 59.8072 32.7031 59.777 33.3804C59.8051 34.0602 59.5655 34.7239 59.1094 35.2291C58.8868 35.4621 58.6171 35.6452 58.3183 35.7662ZM67.0144 35.9312H70.4691V37.4757H65.3982V29.2851H70.4105V30.832H67.0144V32.5754H70.1178V34.0965H67.0144V35.9312ZM75.4931 34.8079L74.1112 35.6153C74.568 36.8673 75.7039 37.6395 77.3318 37.6512C78.1021 37.6857 78.8603 37.4498 79.4748 36.9843C79.7453 36.7702 79.9615 36.4956 80.106 36.1825C80.2505 35.8695 80.3191 35.5268 80.3063 35.1823C80.3148 34.7717 80.2094 34.3667 80.0018 34.0123C79.8015 33.7159 79.5375 33.468 79.2289 33.2868C79.0683 33.1835 78.8951 33.1009 78.7136 33.0411C78.5425 32.9635 78.3664 32.897 78.1866 32.8422L77.6245 32.6526C77.1887 32.5397 76.7709 32.3664 76.3831 32.1378C76.2832 32.0659 76.2023 31.9708 76.1472 31.8608C76.0921 31.7507 76.0646 31.629 76.067 31.5059C76.067 31.0262 76.4768 30.6869 77.1444 30.6869C77.8587 30.6869 78.3857 31.0379 78.7136 31.74L80.0721 30.956C79.8182 30.3967 79.4053 29.9243 78.8847 29.5976C78.3641 29.271 77.7589 29.1045 77.1444 29.119C76.4482 29.1029 75.7699 29.3399 75.2355 29.7859C74.977 29.9999 74.7717 30.2708 74.6356 30.5773C74.4994 30.8838 74.4362 31.2177 74.4508 31.5527C74.4319 31.8753 74.4924 32.1977 74.6272 32.4914C74.7619 32.7852 74.9668 33.0414 75.2238 33.2377C75.7397 33.5912 76.3148 33.8496 76.9219 34.0006C77.4035 34.115 77.8681 34.292 78.3037 34.5271C78.424 34.5912 78.5239 34.6876 78.5922 34.8055C78.6605 34.9233 78.6945 35.0579 78.6902 35.194C78.6902 35.6972 78.2803 36.0599 77.3786 36.0599C76.4417 36.0599 75.8093 35.6387 75.4931 34.8079ZM84.2295 29.2828H85.8456V37.4734H84.2295V29.2828ZM98.0795 35.2483C98.2731 34.7586 98.3623 34.234 98.3413 33.708V33.0762L94.2307 33.0668V34.4943H96.7134C96.4324 35.4655 95.5775 36.0505 94.3244 36.0505C93.9519 36.0683 93.5796 36.0111 93.2295 35.8825C92.8795 35.7539 92.5589 35.5564 92.2867 35.3017C92.0358 35.0504 91.839 34.7506 91.7081 34.4206C91.5772 34.0907 91.5151 33.7375 91.5255 33.3828C91.5118 33.0269 91.5712 32.6719 91.7001 32.3399C91.829 32.0078 92.0247 31.7057 92.275 31.4521C92.5254 31.1958 92.8266 30.9945 93.1593 30.8611C93.492 30.7277 93.849 30.6652 94.2073 30.6775C95.1793 30.6775 96.0225 31.1456 96.4089 31.8148L97.7908 31.0168C97.4097 30.419 96.8808 29.9294 96.2552 29.5954C95.6295 29.2613 94.9282 29.094 94.219 29.1096C93.6498 29.0956 93.0838 29.1984 92.5561 29.4117C92.0283 29.6251 91.55 29.9444 91.1507 30.3499C90.7496 30.7469 90.4337 31.2214 90.2223 31.7445C90.0109 32.2675 89.9084 32.8282 89.9211 33.3921C89.9105 33.9534 90.0152 34.5108 90.2287 35.03C90.4422 35.5492 90.76 36.0192 91.1624 36.4109C91.5775 36.8174 92.0705 37.1357 92.6119 37.3468C93.1533 37.558 93.7318 37.6575 94.3127 37.6395C94.8449 37.6602 95.3758 37.5746 95.8745 37.3877C96.3732 37.2009 96.8296 36.9165 97.217 36.5513C97.5921 36.1817 97.8859 35.7379 98.0795 35.2483ZM107.16 29.2828H108.776V37.4734H107.546L104.033 32.4654V37.4734H102.417V29.2828H103.646L107.16 34.2814V29.2828ZM58.8986 50.0424L59.3905 51.5167H61.1401L58.2592 43.3261H56.252L53.3828 51.5167H55.1277L55.6196 50.0424H58.8986ZM58.3997 48.533H56.1512L57.2755 45.1842L58.3997 48.533ZM65.7543 51.5167L63.4589 43.3261H65.157L66.7263 49.4105L68.4361 43.3261H69.818L71.5395 49.4105L73.1088 43.3261H74.8069L72.5115 51.5167H70.6729L69.127 46.1086L67.5929 51.5167H65.7543ZM82.5783 50.0424L83.0701 51.5167H84.8268L81.9459 43.3261H79.9433L77.0741 51.5167H78.819L79.3109 50.0424H82.5783ZM80.9504 45.1842L82.0747 48.533H79.8262L80.9504 45.1842ZM93.0479 51.5167L91.4084 48.6734H90.1787V51.5167H88.5626V43.3261H91.8417C92.2011 43.3199 92.5579 43.3873 92.8902 43.5241C93.2225 43.661 93.5233 43.8644 93.774 44.1218C94.0307 44.371 94.2337 44.6699 94.3706 45.0003C94.5076 45.3307 94.5755 45.6855 94.5703 46.043C94.5619 46.5501 94.4086 47.0441 94.1285 47.467C93.8484 47.8899 93.4531 48.224 92.9893 48.43L94.8046 51.519L93.0479 51.5167ZM90.167 44.8332V47.2576H91.8299C92.1385 47.2424 92.4287 47.106 92.637 46.8781C92.8454 46.6501 92.9552 46.3492 92.9425 46.0407C92.9527 45.7338 92.8418 45.4353 92.6337 45.2094C92.4255 44.9835 92.1369 44.8484 91.8299 44.8332H90.167ZM103.457 43.6147C102.972 43.411 102.45 43.3119 101.925 43.3238L98.6692 43.3261V51.5167H101.925C102.45 51.5286 102.972 51.4294 103.457 51.2258C103.941 51.0221 104.377 50.7185 104.735 50.3349C105.11 49.9498 105.404 49.4936 105.599 48.9932C105.794 48.4927 105.887 47.9583 105.871 47.4214C105.887 46.8842 105.794 46.3494 105.599 45.8485C105.404 45.3477 105.11 44.891 104.735 44.5056C104.377 44.1219 103.941 43.8183 103.457 43.6147ZM102.867 49.8072C102.568 49.9282 102.247 49.9845 101.925 49.9722L100.285 49.9815V44.88H101.925C102.247 44.866 102.569 44.9215 102.868 45.0426C103.167 45.1638 103.436 45.3477 103.658 45.582C104.116 46.0825 104.356 46.7441 104.326 47.4214C104.354 48.1012 104.114 48.7649 103.658 49.2701C103.435 49.5031 103.166 49.6862 102.867 49.8072ZM109.232 49.6563L110.614 48.8489C110.931 49.6797 111.551 50.1009 112.488 50.1009C113.425 50.1009 113.8 49.7382 113.8 49.235C113.804 49.0989 113.77 48.9643 113.702 48.8465C113.634 48.7286 113.534 48.6322 113.413 48.5681C112.978 48.333 112.513 48.156 112.031 48.0415C111.424 47.8906 110.849 47.6322 110.333 47.2786C110.076 47.0824 109.872 46.8262 109.737 46.5324C109.602 46.2386 109.541 45.9163 109.56 45.5937C109.546 45.2587 109.609 44.9248 109.745 44.6183C109.881 44.3118 110.087 44.0409 110.345 43.8269C110.879 43.3809 111.558 43.1439 112.254 43.16C112.868 43.1455 113.474 43.312 113.994 43.6386C114.515 43.9653 114.928 44.4376 115.182 44.997L113.823 45.7809C113.495 45.0789 112.968 44.7279 112.254 44.7279C111.586 44.7279 111.177 45.0672 111.177 45.5469C111.174 45.6699 111.202 45.7917 111.257 45.9018C111.312 46.0118 111.393 46.1069 111.493 46.1788C111.88 46.4074 112.298 46.5806 112.734 46.6936L113.296 46.8832C113.476 46.938 113.652 47.0045 113.823 47.0821C114.005 47.1419 114.178 47.2245 114.339 47.3278C114.647 47.509 114.911 47.7569 115.111 48.0532C115.319 48.4077 115.424 48.8127 115.416 49.2233C115.429 49.5678 115.36 49.9105 115.216 50.2235C115.071 50.5366 114.855 50.8112 114.584 51.0253C113.97 51.4908 113.212 51.7267 112.441 51.6922C110.825 51.6805 109.689 50.9082 109.232 49.6563ZM24.3478 7.27799L26.7699 1.07184L47.0449 51.708C45.664 51.7072 44.316 51.2704 43.1802 50.4555C42.0444 49.6405 41.1745 48.4862 40.6862 47.1458L40.626 46.9784L24.3478 7.27799ZM23.3801 8.8049L23.6204 9.42645L39.9348 51.6178L40.0664 51.9581L39.7015 51.958C38.2676 51.9576 36.8687 51.5041 35.6909 50.659C34.5133 49.8141 33.6129 48.6181 33.108 47.2313L33.1077 47.2304L33.0488 47.0666L20.8192 16.0293L20.7845 15.9412L20.8169 15.8522L23.1523 9.43116L23.3801 8.8049ZM23.3944 10.2283L21.3191 15.9341L33.5154 46.8868L33.5181 46.8938L33.518 46.8938L33.5779 47.0603L33.578 47.0605C34.0492 48.3547 34.8884 49.4678 35.9824 50.2528C36.9748 50.9648 38.1345 51.3765 39.3327 51.4471L23.3944 10.2283ZM17.6786 24.3874L20.0863 18.1962L32.3678 51.713C30.9868 51.7129 29.6385 51.2764 28.5026 50.4613C27.3666 49.6463 26.4969 48.4916 26.0091 47.1508L25.9489 46.9834L17.6786 24.3874ZM16.5518 29.5042L13.263 38.5336L19.9659 38.5237C20.1571 38.523 20.3439 38.583 20.5014 38.6955C20.6588 38.808 20.7795 38.9677 20.8471 39.1533H13.0174L8.68358 51.0259C8.61279 51.2276 8.48426 51.4019 8.31521 51.5256C8.14671 51.6464 7.94701 51.7117 7.74219 51.713L16.5518 27.4655C16.7913 28.1224 16.7913 28.8474 16.5518 29.5042Z" fill="#A67F56"/>
<path fill-rule="evenodd" clip-rule="evenodd" d="M64.2623 7.5333L65.6442 6.72594C65.9604 7.55669 66.5811 7.97793 67.5179 7.97793C68.4548 7.97793 68.8296 7.6152 68.8296 7.11207C68.8338 6.97595 68.7999 6.84135 68.7316 6.72349C68.6633 6.60564 68.5634 6.50921 68.4431 6.44511C68.0075 6.21003 67.5429 6.03301 67.0612 5.91858C66.4546 5.76733 65.8797 5.50983 65.3631 5.15802C65.1063 4.96114 64.9016 4.70446 64.7668 4.41035C64.6321 4.11625 64.5715 3.79368 64.5902 3.47077C64.5757 3.13576 64.639 2.80195 64.7751 2.49544C64.9113 2.18894 65.1165 1.91805 65.3748 1.70395C65.9092 1.25792 66.5876 1.02091 67.2837 1.037C67.8983 1.02256 68.5035 1.18902 69.0241 1.51566C69.5446 1.8423 69.9576 2.31469 70.2115 2.87404L68.853 3.66033C68.5251 2.95828 67.9981 2.60491 67.2837 2.60491C66.6162 2.60491 66.2063 2.94424 66.2063 3.42631C66.2043 3.54926 66.232 3.67088 66.2871 3.78086C66.3421 3.89085 66.4229 3.98597 66.5225 4.05816C66.9112 4.28475 67.3288 4.45791 67.7638 4.57298L68.326 4.76021C68.5054 4.81611 68.6814 4.88253 68.853 4.95912C69.0335 5.01624 69.2065 5.0948 69.3683 5.19313C69.6768 5.37436 69.9409 5.62222 70.1412 5.91858C70.3488 6.27306 70.4542 6.67803 70.4457 7.08866C70.4584 7.43315 70.3898 7.7758 70.2453 8.08886C70.1009 8.40191 69.8847 8.67657 69.6142 8.89059C68.9997 9.35609 68.2415 9.59204 67.4711 9.55754C65.855 9.55754 64.719 8.78528 64.2623 7.5333ZM59.3905 9.39374L58.8986 7.91944H55.6196L55.1277 9.39374H53.3828L56.252 1.20316H58.2592L61.1401 9.39374H59.3905ZM56.1512 6.41003H58.3997L57.2755 3.06125L56.1512 6.41003ZM75.9967 1.20082H74.3806V9.39139H75.9967V1.20082ZM85.7168 9.39374L85.225 7.91944H81.9459L81.454 9.39374H79.7091L82.5783 1.20316H84.5808L87.4618 9.39374H85.7168ZM82.4729 6.41003H84.7214L83.5971 3.06125L82.4729 6.41003ZM58.8986 21.9604L59.3905 23.4347H61.1401L58.2592 15.2441H56.252L53.3828 23.4347H55.1277L55.6196 21.9604H58.8986ZM58.3997 20.451H56.1512L57.2755 17.1022L58.3997 20.451ZM69.3683 23.4347L67.7287 20.5914H66.4991V23.4347H64.883V15.2441H68.162C68.5214 15.2379 68.8783 15.3053 69.2106 15.4422C69.5429 15.579 69.8437 15.7824 70.0944 16.0398C70.351 16.289 70.5541 16.5879 70.691 16.9183C70.8279 17.2487 70.8959 17.6035 70.8907 17.9611C70.8822 18.4681 70.7289 18.9622 70.4488 19.3851C70.1687 19.8079 69.7735 20.1421 69.3097 20.348L71.1249 23.4371L69.3683 23.4347ZM66.4874 16.7512V19.1756H68.1503C68.4589 19.1604 68.749 19.024 68.9574 18.7961C69.1658 18.5682 69.2756 18.2672 69.2629 17.9587C69.2731 17.6519 69.1621 17.3533 68.954 17.1274C68.7459 16.9015 68.4572 16.7664 68.1503 16.7512H66.4874ZM74.8127 20.9784C75.0201 21.4994 75.3312 21.9728 75.7273 22.3699C76.1253 22.7725 76.6023 23.0885 77.1282 23.2983C77.6542 23.5081 78.2178 23.6072 78.7839 23.5892C79.4867 23.5991 80.1801 23.4263 80.796 23.0879C81.4119 22.7494 81.9292 22.2569 82.2972 21.6585L80.8919 20.8512C80.6742 21.2184 80.3612 21.5199 79.986 21.7238C79.6107 21.9278 79.1873 22.0265 78.7605 22.0096C78.4041 22.0252 78.0483 21.9667 77.7156 21.8378C77.383 21.7089 77.0808 21.5124 76.8282 21.2607C76.5859 21.0025 76.3971 20.699 76.2725 20.3677C76.1479 20.0364 76.09 19.6838 76.1021 19.3301C76.0891 18.9741 76.1466 18.6192 76.2712 18.2855C76.3958 17.9518 76.5851 17.6459 76.8282 17.3854C77.0808 17.1337 77.383 16.9372 77.7156 16.8083C78.0483 16.6794 78.4041 16.6209 78.7605 16.6365C79.1886 16.62 79.6131 16.7202 79.9886 16.9263C80.364 17.1324 80.6763 17.4367 80.8919 17.8066L82.2972 16.9993C81.928 16.402 81.4104 15.9104 80.7948 15.5721C80.1792 15.2338 79.4864 15.0604 78.7839 15.0686C78.2172 15.0519 77.6531 15.1523 77.1271 15.3638C76.6011 15.5752 76.1245 15.893 75.7273 16.2972C75.3291 16.6952 75.0167 17.1705 74.8092 17.6937C74.6018 18.2169 74.5037 18.7769 74.5211 19.3394C74.5062 19.8999 74.6054 20.4575 74.8127 20.9784ZM90.8931 15.2418H92.4975V23.4324H90.8931V20.0391H87.8482V23.4324H86.2321V15.2418H87.8482V18.504H90.8931V15.2418ZM98.5638 15.2418H96.9477V23.4324H98.5638V15.2418ZM108.436 15.2418V16.7887H106.223V23.4347H104.607V16.7887H102.405V15.2418H108.436ZM117.336 21.8902H113.882L113.886 20.0555H116.99V18.5344H113.886V16.791H117.283V15.2441H112.266V23.4347H117.336V21.8902ZM122.173 22.3699C121.777 21.9728 121.466 21.4994 121.259 20.9784C121.051 20.4575 120.952 19.8999 120.967 19.3394C120.95 18.7769 121.048 18.2169 121.255 17.6937C121.462 17.1705 121.775 16.6952 122.173 16.2972C122.569 15.8945 123.044 15.5775 123.568 15.3661C124.091 15.1548 124.653 15.0535 125.218 15.0686C125.921 15.0604 126.613 15.2338 127.229 15.5721C127.844 15.9104 128.362 16.402 128.731 16.9993L127.326 17.8066C127.11 17.4367 126.798 17.1324 126.423 16.9263C126.047 16.7202 125.623 16.62 125.195 16.6365C124.838 16.6209 124.482 16.6794 124.15 16.8083C123.817 16.9372 123.515 17.1337 123.262 17.3854C123.019 17.6459 122.83 17.9518 122.705 18.2855C122.581 18.6192 122.523 18.9741 122.536 19.3301C122.524 19.6838 122.582 20.0364 122.707 20.3677C122.831 20.699 123.02 21.0025 123.262 21.2607C123.515 21.5124 123.817 21.7089 124.15 21.8378C124.482 21.9667 124.838 22.0252 125.195 22.0096C125.621 22.0265 126.045 21.9278 126.42 21.7238C126.795 21.5199 127.108 21.2184 127.326 20.8512L128.731 21.6585C128.363 22.2569 127.846 22.7494 127.23 23.0879C126.614 23.4263 125.921 23.5991 125.218 23.5892C124.654 23.6055 124.092 23.5057 123.569 23.296C123.045 23.0862 122.57 22.771 122.173 22.3699ZM138.065 16.7887V15.2418H132.038V16.7887H134.235V23.4347H135.852V16.7887H138.065ZM142.703 22.8263C142.411 22.5678 142.182 22.2479 142.03 21.8897C141.878 21.5315 141.808 21.1439 141.824 20.7552V15.2418H143.429V20.6242C143.429 21.4783 143.897 22.0166 144.951 22.0166C146.005 22.0166 146.473 21.4783 146.473 20.6242V15.2418H148.09V20.7552C148.106 21.1439 148.036 21.5315 147.884 21.8897C147.732 22.2479 147.502 22.5678 147.211 22.8263C146.582 23.3585 145.775 23.6342 144.951 23.5985C144.131 23.6312 143.329 23.3557 142.703 22.8263ZM155.327 20.5914L156.967 23.4347L158.723 23.4371L156.908 20.348C157.372 20.1421 157.767 19.8079 158.047 19.3851C158.327 18.9622 158.48 18.4681 158.489 17.9611C158.494 17.6035 158.426 17.2487 158.289 16.9183C158.152 16.5879 157.949 16.289 157.693 16.0398C157.442 15.7824 157.141 15.579 156.809 15.4422C156.477 15.3053 156.12 15.2379 155.76 15.2441H152.481V23.4347H154.097V20.5914H155.327ZM154.086 19.1756V16.7512H155.749C156.055 16.7664 156.344 16.9015 156.552 17.1274C156.76 17.3533 156.871 17.6519 156.861 17.9587C156.874 18.2672 156.764 18.5682 156.556 18.7961C156.347 19.024 156.057 19.1604 155.749 19.1756H154.086ZM164.204 21.8902H167.659V23.4347H162.588V15.2441H167.6V16.791H164.204V18.5344H167.307V20.0555H164.204V21.8902ZM58.9079 29.5737C58.4235 29.37 57.9016 29.2709 57.3762 29.2828L54.1205 29.2851V37.4757H57.3762C57.9016 37.4876 58.4235 37.3884 58.9079 37.1848C59.3922 36.9811 59.8281 36.6775 60.1868 36.2939C60.5616 35.9089 60.8552 35.4526 61.0503 34.9522C61.2454 34.4517 61.3381 33.9173 61.3228 33.3804C61.3381 32.8432 61.2455 32.3084 61.0504 31.8075C60.8553 31.3067 60.5616 30.8501 60.1868 30.4646C59.8281 30.0809 59.3922 29.7774 58.9079 29.5737ZM58.3183 35.7662C58.0195 35.8872 57.6984 35.9435 57.3762 35.9312L55.7367 35.9406V30.839H57.3762C57.6986 30.825 58.0202 30.8805 58.3193 31.0016C58.6183 31.1228 58.8878 31.3067 59.1094 31.541C59.5671 32.0415 59.8072 32.7031 59.777 33.3804C59.8051 34.0602 59.5655 34.7239 59.1094 35.2291C58.8868 35.4621 58.6171 35.6452 58.3183 35.7662ZM67.0144 35.9312H70.4691V37.4757H65.3982V29.2851H70.4105V30.832H67.0144V32.5754H70.1178V34.0965H67.0144V35.9312ZM75.4931 34.8079L74.1112 35.6153C74.568 36.8673 75.7039 37.6395 77.3318 37.6512C78.1021 37.6857 78.8603 37.4498 79.4748 36.9843C79.7453 36.7702 79.9615 36.4956 80.106 36.1825C80.2505 35.8695 80.3191 35.5268 80.3063 35.1823C80.3148 34.7717 80.2094 34.3667 80.0018 34.0123C79.8015 33.7159 79.5375 33.468 79.2289 33.2868C79.0683 33.1835 78.8951 33.1009 78.7136 33.0411C78.5425 32.9635 78.3664 32.897 78.1866 32.8422L77.6245 32.6526C77.1887 32.5397 76.7709 32.3664 76.3831 32.1378C76.2832 32.0659 76.2023 31.9708 76.1472 31.8608C76.0921 31.7507 76.0646 31.629 76.067 31.5059C76.067 31.0262 76.4768 30.6869 77.1444 30.6869C77.8587 30.6869 78.3857 31.0379 78.7136 31.74L80.0721 30.956C79.8182 30.3967 79.4053 29.9243 78.8847 29.5976C78.3641 29.271 77.7589 29.1045 77.1444 29.119C76.4482 29.1029 75.7699 29.3399 75.2355 29.7859C74.977 29.9999 74.7717 30.2708 74.6356 30.5773C74.4994 30.8838 74.4362 31.2177 74.4508 31.5527C74.4319 31.8753 74.4924 32.1977 74.6272 32.4914C74.7619 32.7852 74.9668 33.0414 75.2238 33.2377C75.7397 33.5912 76.3148 33.8496 76.9219 34.0006C77.4035 34.115 77.8681 34.292 78.3037 34.5271C78.424 34.5912 78.5239 34.6876 78.5922 34.8055C78.6605 34.9233 78.6945 35.0579 78.6902 35.194C78.6902 35.6972 78.2803 36.0599 77.3786 36.0599C76.4417 36.0599 75.8093 35.6387 75.4931 34.8079ZM84.2295 29.2828H85.8456V37.4734H84.2295V29.2828ZM98.0795 35.2483C98.2731 34.7586 98.3623 34.234 98.3413 33.708V33.0762L94.2307 33.0668V34.4943H96.7134C96.4324 35.4655 95.5775 36.0505 94.3244 36.0505C93.9519 36.0683 93.5796 36.0111 93.2295 35.8825C92.8795 35.7539 92.5589 35.5564 92.2867 35.3017C92.0358 35.0504 91.839 34.7506 91.7081 34.4206C91.5772 34.0907 91.5151 33.7375 91.5255 33.3828C91.5118 33.0269 91.5712 32.6719 91.7001 32.3399C91.829 32.0078 92.0247 31.7057 92.275 31.4521C92.5254 31.1958 92.8266 30.9945 93.1593 30.8611C93.492 30.7277 93.849 30.6652 94.2073 30.6775C95.1793 30.6775 96.0225 31.1456 96.4089 31.8148L97.7908 31.0168C97.4097 30.419 96.8808 29.9294 96.2552 29.5954C95.6295 29.2613 94.9282 29.094 94.219 29.1096C93.6498 29.0956 93.0838 29.1984 92.5561 29.4117C92.0283 29.6251 91.55 29.9444 91.1507 30.3499C90.7496 30.7469 90.4337 31.2214 90.2223 31.7445C90.0109 32.2675 89.9084 32.8282 89.9211 33.3921C89.9105 33.9534 90.0152 34.5108 90.2287 35.03C90.4422 35.5492 90.76 36.0192 91.1624 36.4109C91.5775 36.8174 92.0705 37.1357 92.6119 37.3468C93.1533 37.558 93.7318 37.6575 94.3127 37.6395C94.8449 37.6602 95.3758 37.5746 95.8745 37.3877C96.3732 37.2009 96.8296 36.9165 97.217 36.5513C97.5921 36.1817 97.8859 35.7379 98.0795 35.2483ZM107.16 29.2828H108.776V37.4734H107.546L104.033 32.4654V37.4734H102.417V29.2828H103.646L107.16 34.2814V29.2828ZM58.8986 50.0424L59.3905 51.5167H61.1401L58.2592 43.3261H56.252L53.3828 51.5167H55.1277L55.6196 50.0424H58.8986ZM58.3997 48.533H56.1512L57.2755 45.1842L58.3997 48.533ZM65.7543 51.5167L63.4589 43.3261H65.157L66.7263 49.4105L68.4361 43.3261H69.818L71.5395 49.4105L73.1088 43.3261H74.8069L72.5115 51.5167H70.6729L69.127 46.1086L67.5929 51.5167H65.7543ZM82.5783 50.0424L83.0701 51.5167H84.8268L81.9459 43.3261H79.9433L77.0741 51.5167H78.819L79.3109 50.0424H82.5783ZM80.9504 45.1842L82.0747 48.533H79.8262L80.9504 45.1842ZM93.0479 51.5167L91.4084 48.6734H90.1787V51.5167H88.5626V43.3261H91.8417C92.2011 43.3199 92.5579 43.3873 92.8902 43.5241C93.2225 43.661 93.5233 43.8644 93.774 44.1218C94.0307 44.371 94.2337 44.6699 94.3706 45.0003C94.5076 45.3307 94.5755 45.6855 94.5703 46.043C94.5619 46.5501 94.4086 47.0441 94.1285 47.467C93.8484 47.8899 93.4531 48.224 92.9893 48.43L94.8046 51.519L93.0479 51.5167ZM90.167 44.8332V47.2576H91.8299C92.1385 47.2424 92.4287 47.106 92.637 46.8781C92.8454 46.6501 92.9552 46.3492 92.9425 46.0407C92.9527 45.7338 92.8418 45.4353 92.6337 45.2094C92.4255 44.9835 92.1369 44.8484 91.8299 44.8332H90.167ZM103.457 43.6147C102.972 43.411 102.45 43.3119 101.925 43.3238L98.6692 43.3261V51.5167H101.925C102.45 51.5286 102.972 51.4294 103.457 51.2258C103.941 51.0221 104.377 50.7185 104.735 50.3349C105.11 49.9498 105.404 49.4936 105.599 48.9932C105.794 48.4927 105.887 47.9583 105.871 47.4214C105.887 46.8842 105.794 46.3494 105.599 45.8485C105.404 45.3477 105.11 44.891 104.735 44.5056C104.377 44.1219 103.941 43.8183 103.457 43.6147ZM102.867 49.8072C102.568 49.9282 102.247 49.9845 101.925 49.9722L100.285 49.9815V44.88H101.925C102.247 44.866 102.569 44.9215 102.868 45.0426C103.167 45.1638 103.436 45.3477 103.658 45.582C104.116 46.0825 104.356 46.7441 104.326 47.4214C104.354 48.1012 104.114 48.7649 103.658 49.2701C103.435 49.5031 103.166 49.6862 102.867 49.8072ZM109.232 49.6563L110.614 48.8489C110.931 49.6797 111.551 50.1009 112.488 50.1009C113.425 50.1009 113.8 49.7382 113.8 49.235C113.804 49.0989 113.77 48.9643 113.702 48.8465C113.634 48.7286 113.534 48.6322 113.413 48.5681C112.978 48.333 112.513 48.156 112.031 48.0415C111.424 47.8906 110.849 47.6322 110.333 47.2786C110.076 47.0824 109.872 46.8262 109.737 46.5324C109.602 46.2386 109.541 45.9163 109.56 45.5937C109.546 45.2587 109.609 44.9248 109.745 44.6183C109.881 44.3118 110.087 44.0409 110.345 43.8269C110.879 43.3809 111.558 43.1439 112.254 43.16C112.868 43.1455 113.474 43.312 113.994 43.6386C114.515 43.9653 114.928 44.4376 115.182 44.997L113.823 45.7809C113.495 45.0789 112.968 44.7279 112.254 44.7279C111.586 44.7279 111.177 45.0672 111.177 45.5469C111.174 45.6699 111.202 45.7917 111.257 45.9018C111.312 46.0118 111.393 46.1069 111.493 46.1788C111.88 46.4074 112.298 46.5806 112.734 46.6936L113.296 46.8832C113.476 46.938 113.652 47.0045 113.823 47.0821C114.005 47.1419 114.178 47.2245 114.339 47.3278C114.647 47.509 114.911 47.7569 115.111 48.0532C115.319 48.4077 115.424 48.8127 115.416 49.2233C115.429 49.5678 115.36 49.9105 115.216 50.2235C115.071 50.5366 114.855 50.8112 114.584 51.0253C113.97 51.4908 113.212 51.7267 112.441 51.6922C110.825 51.6805 109.689 50.9082 109.232 49.6563ZM24.3478 7.27799L26.7699 1.07184L47.0449 51.708C45.664 51.7072 44.316 51.2704 43.1802 50.4555C42.0444 49.6405 41.1745 48.4862 40.6862 47.1458L40.626 46.9784L24.3478 7.27799ZM23.3801 8.8049L23.6204 9.42645L39.9348 51.6178L40.0664 51.9581L39.7015 51.958C38.2676 51.9576 36.8687 51.5041 35.6909 50.659C34.5133 49.8141 33.6129 48.6181 33.108 47.2313L33.1077 47.2304L33.0488 47.0666L20.8192 16.0293L20.7845 15.9412L20.8169 15.8522L23.1523 9.43116L23.3801 8.8049ZM23.3944 10.2283L21.3191 15.9341L33.5154 46.8868L33.5181 46.8938L33.518 46.8938L33.5779 47.0603L33.578 47.0605C34.0492 48.3547 34.8884 49.4678 35.9824 50.2528C36.9748 50.9648 38.1345 51.3765 39.3327 51.4471L23.3944 10.2283ZM17.6786 24.3874L20.0863 18.1962L32.3678 51.713C30.9868 51.7129 29.6385 51.2764 28.5026 50.4613C27.3666 49.6463 26.4969 48.4916 26.0091 47.1508L25.9489 46.9834L17.6786 24.3874ZM16.5518 29.5042L13.263 38.5336L19.9659 38.5237C20.1571 38.523 20.3439 38.583 20.5014 38.6955C20.6588 38.808 20.7795 38.9677 20.8471 39.1533H13.0174L8.68358 51.0259C8.61279 51.2276 8.48426 51.4019 8.31521 51.5256C8.14671 51.6464 7.94701 51.7117 7.74219 51.713L16.5518 27.4655C16.7913 28.1224 16.7913 28.8474 16.5518 29.5042Z" fill="#16203C"/>
</svg>
