<svg width="170" height="57" viewBox="0 0 170 57" fill="none" xmlns="http://www.w3.org/2000/svg">
<path d="M53.3945 55.9281L54.8126 52.6484H54.8468L56.265 55.9281H55.5473L54.6418 53.6216L55.0903 53.3129L54.0053 55.9281H53.3945ZM54.3641 54.7877H55.3081L55.526 55.3107H54.1719L54.3641 54.7877Z" fill="#A67F56"/>
<path d="M59.1479 52.7942H59.8741L60.5447 54.7748L60.4464 54.732L61.0317 53.2701L61.3178 54.1232L60.4123 56.0738L59.1479 52.7942ZM60.7241 52.7942H61.3392L62.1124 54.7105L62.0013 54.6934L62.578 52.7942H63.2443L62.0312 56.0652L60.7241 52.7942Z" fill="#A67F56"/>
<path d="M66.1654 55.9281L67.5836 52.6484H67.6178L69.0359 55.9281H68.3183L67.4127 53.6216L67.8612 53.3129L66.7763 55.9281H66.1654ZM67.1351 54.7877H68.0791L68.2969 55.3107H66.9429L67.1351 54.7877Z" fill="#A67F56"/>
<path d="M73.6077 52.7728C73.8042 52.7728 73.9793 52.7985 74.1331 52.8499C74.2869 52.8985 74.415 52.97 74.5176 53.0643C74.6229 53.1557 74.7027 53.2672 74.7568 53.3987C74.8109 53.5273 74.8379 53.6731 74.8379 53.836C74.8379 53.9646 74.818 54.0932 74.7781 54.2218C74.7411 54.3504 74.6785 54.4676 74.5902 54.5733C74.5047 54.6791 74.3908 54.7648 74.2485 54.8306C74.1061 54.8934 73.9295 54.9249 73.7188 54.9249H73.2745V55.9281H72.6552V52.7728H73.6077ZM73.7145 54.3247C73.8085 54.3247 73.8868 54.309 73.9494 54.2775C74.0121 54.2461 74.0605 54.2061 74.0947 54.1575C74.1317 54.1089 74.1573 54.0589 74.1716 54.0074C74.1887 53.9531 74.1972 53.9031 74.1972 53.8574C74.1972 53.8231 74.1915 53.7802 74.1801 53.7288C74.1716 53.6745 74.1516 53.6202 74.1203 53.5659C74.089 53.5116 74.0406 53.4658 73.9751 53.4287C73.9124 53.3915 73.827 53.373 73.7188 53.373H73.2745V54.3247H73.7145ZM74.2954 54.7105L75.0729 55.9281H74.351L73.5565 54.7277L74.2954 54.7105Z" fill="#A67F56"/>
<path d="M78.7445 55.9281V52.7728H79.6842C80.0003 52.7728 80.2694 52.8199 80.4915 52.9142C80.7137 53.0086 80.8916 53.1343 81.0255 53.2915C81.1622 53.4487 81.2618 53.6245 81.3245 53.8188C81.3871 54.0132 81.4185 54.2089 81.4185 54.4061C81.4185 54.6405 81.3757 54.852 81.2903 55.0406C81.2077 55.2264 81.0938 55.3865 80.9486 55.5208C80.8034 55.6523 80.6353 55.7537 80.4445 55.8252C80.2538 55.8938 80.0516 55.9281 79.838 55.9281H78.7445ZM79.3638 55.3279H79.7312C79.8878 55.3279 80.0302 55.3079 80.1584 55.2678C80.2865 55.225 80.3961 55.1635 80.4873 55.0835C80.5812 55.0035 80.6524 54.9034 80.7008 54.7834C80.7521 54.6605 80.7777 54.5205 80.7777 54.3633C80.7777 54.1575 80.7436 53.9903 80.6752 53.8617C80.6097 53.7302 80.5271 53.6288 80.4275 53.5573C80.3306 53.4858 80.231 53.4373 80.1285 53.4115C80.0259 53.383 79.9391 53.3687 79.8679 53.3687H79.3638V55.3279Z" fill="#A67F56"/>
<path d="M86.8796 53.5359C86.76 53.4701 86.6375 53.4158 86.5122 53.373C86.3898 53.3301 86.2744 53.3086 86.1662 53.3086C86.0324 53.3086 85.927 53.3358 85.8501 53.3901C85.7733 53.4444 85.7348 53.5259 85.7348 53.6345C85.7348 53.7088 85.7633 53.7759 85.8202 53.836C85.88 53.8931 85.9555 53.9446 86.0466 53.9903C86.1406 54.036 86.2374 54.0775 86.3371 54.1146C86.4282 54.1489 86.5179 54.1904 86.6062 54.2389C86.6973 54.2847 86.7785 54.3433 86.8497 54.4147C86.9209 54.4833 86.9778 54.5705 87.0205 54.6762C87.0633 54.7791 87.0846 54.9063 87.0846 55.0578C87.0846 55.2178 87.0433 55.3664 86.9607 55.5036C86.8782 55.6408 86.7571 55.7523 86.5977 55.838C86.4382 55.9209 86.2417 55.9624 86.0082 55.9624C85.8886 55.9624 85.7661 55.9509 85.6408 55.9281C85.5184 55.9023 85.3974 55.8652 85.2778 55.8166C85.1581 55.7651 85.0428 55.7008 84.9318 55.6237L85.2051 55.1392C85.2792 55.1935 85.3589 55.2421 85.4443 55.285C85.5326 55.325 85.6209 55.3564 85.7092 55.3793C85.7975 55.4022 85.8786 55.4136 85.9527 55.4136C86.0267 55.4136 86.1007 55.4036 86.1748 55.3836C86.2517 55.3607 86.3143 55.3236 86.3627 55.2721C86.414 55.2207 86.4396 55.1492 86.4396 55.0578C86.4396 54.9949 86.4183 54.9377 86.3755 54.8863C86.3357 54.8349 86.2801 54.7877 86.209 54.7448C86.1406 54.702 86.0651 54.6648 85.9826 54.6334C85.8857 54.5962 85.7861 54.5533 85.6835 54.5047C85.581 54.4562 85.4842 54.3976 85.3931 54.329C85.3048 54.2575 85.2322 54.1704 85.1752 54.0675C85.1211 53.9617 85.0941 53.8331 85.0941 53.6816C85.0941 53.4987 85.1339 53.3401 85.2137 53.2058C85.2963 53.0714 85.4116 52.9657 85.5597 52.8885C85.7078 52.8085 85.8786 52.7642 86.0723 52.7556C86.3257 52.7556 86.5307 52.7856 86.6874 52.8456C86.8468 52.9057 86.9892 52.9771 87.1145 53.06L86.8796 53.5359Z" fill="#A67F56"/>
<path d="M62.2313 11.7179L58.9475 2.3399H56.6649L53.3945 11.7179H55.3834L55.9441 10.0299H59.6683L60.229 11.7179H62.2313ZM57.8129 4.47005L59.0943 8.30163H56.5314L57.8129 4.47005Z" fill="#A67F56"/>
<path d="M68.1226 11.9055C69.1237 11.9055 69.938 11.6509 70.5654 11.1418C71.1928 10.6327 71.5131 9.94947 71.5131 9.07866C71.5131 8.54277 71.3663 8.07388 71.1661 7.75234C70.9925 7.43081 70.5654 7.09588 70.2851 6.92172C70.1516 6.82794 69.9513 6.73416 69.6977 6.64038C69.4441 6.53321 69.2439 6.45282 69.097 6.41263L68.4563 6.19828C67.7622 5.98392 67.295 5.78297 67.0413 5.6088C66.8011 5.42124 66.6809 5.18009 66.6809 4.88536C66.6809 4.33608 67.1481 3.94756 67.909 3.94756C68.7233 3.94756 69.324 4.34947 69.6977 5.1533L71.2462 4.25569C70.6054 2.92938 69.4174 2.15234 67.909 2.15234C67.068 2.15234 66.3339 2.40689 65.7332 2.91598C65.1325 3.41167 64.8388 4.09493 64.8388 4.93895C64.8388 5.79636 65.1458 6.43943 65.7198 6.86813C66.3072 7.28344 66.8144 7.4844 67.6554 7.73895C68.4163 7.9533 68.9369 8.15426 69.2305 8.34182C69.5242 8.51598 69.671 8.77053 69.671 9.10545C69.671 9.68153 69.2038 10.0968 68.176 10.0968C67.1081 10.0968 66.3873 9.61454 66.0269 8.66335L64.4517 9.58775C64.9723 11.0212 66.2671 11.9055 68.1226 11.9055Z" fill="#A67F56"/>
<path d="M74.6517 11.7179H76.4938V2.3399H74.6517V11.7179Z" fill="#A67F56"/>
<path d="M88.235 11.7179L84.9512 2.3399H82.6686L79.3982 11.7179H81.3871L81.9478 10.0299H85.6721L86.2327 11.7179H88.235ZM83.8166 4.47005L85.0981 8.30163H82.5351L83.8166 4.47005Z" fill="#A67F56"/>
<path d="M62.2313 28.5983L58.9475 19.2203H56.6649L53.3945 28.5983H55.3834L55.9441 26.9102H59.6683L60.229 28.5983H62.2313ZM57.8129 21.3504L59.0943 25.182H56.5314L57.8129 21.3504Z" fill="#A67F56"/>
<path d="M72.2557 28.5983L70.1866 25.0614C71.2679 24.5657 71.9887 23.494 71.9887 22.3284C71.9887 21.471 71.6817 20.7342 71.081 20.1313C70.4803 19.5284 69.7461 19.2203 68.8785 19.2203H65.1408V28.5983H66.9829V25.3428H68.3846L70.2667 28.5983H72.2557ZM68.8785 20.9485C69.5726 20.9485 70.1466 21.5648 70.1466 22.3284C70.1466 23.0921 69.5726 23.7217 68.8785 23.7217H66.9829V20.9485H68.8785Z" fill="#A67F56"/>
<path d="M79.6701 28.7858C81.3787 28.7858 82.8871 27.9284 83.688 26.5753L82.0995 25.6509C81.659 26.4681 80.738 26.9772 79.6701 26.9772C78.7624 26.9772 78.0282 26.6959 77.4676 26.1198C76.9203 25.5437 76.6399 24.8069 76.6399 23.9093C76.6399 22.9983 76.9203 22.2614 77.4676 21.6854C78.0282 21.1093 78.7624 20.8279 79.6701 20.8279C80.738 20.8279 81.6323 21.3236 82.0995 22.1677L83.688 21.2433C82.8871 19.8901 81.3654 19.0327 79.6701 19.0327C78.2685 19.0327 77.1071 19.5016 76.1861 20.4394C75.265 21.3638 74.8112 22.5294 74.8112 23.9093C74.8112 25.2892 75.265 26.4413 76.1861 27.3791C77.1071 28.3169 78.2685 28.7858 79.6701 28.7858Z" fill="#A67F56"/>
<path d="M92.1347 22.9447H88.664V19.2203H86.8219V28.5983H88.664V24.7131H92.1347V28.5983H93.9634V19.2203H92.1347V22.9447Z" fill="#A67F56"/>
<path d="M97.7016 28.5983H99.5437V19.2203H97.7016V28.5983Z" fill="#A67F56"/>
<path d="M102.582 19.2203V20.9887H105.091V28.5983H106.933V20.9887H109.456V19.2203H102.582Z" fill="#A67F56"/>
<path d="M114.329 24.7265H117.866V22.9849H114.329V20.9887H118.2V19.2203H112.487V28.5983H118.267V26.8299H114.329V24.7265Z" fill="#A67F56"/>
<path d="M125.934 28.7858C127.643 28.7858 129.151 27.9284 129.952 26.5753L128.363 25.6509C127.923 26.4681 127.002 26.9772 125.934 26.9772C125.026 26.9772 124.292 26.6959 123.731 26.1198C123.184 25.5437 122.904 24.8069 122.904 23.9093C122.904 22.9983 123.184 22.2614 123.731 21.6854C124.292 21.1093 125.026 20.8279 125.934 20.8279C127.002 20.8279 127.896 21.3236 128.363 22.1677L129.952 21.2433C129.151 19.8901 127.629 19.0327 125.934 19.0327C124.532 19.0327 123.371 19.5016 122.45 20.4394C121.529 21.3638 121.075 22.5294 121.075 23.9093C121.075 25.2892 121.529 26.4413 122.45 27.3791C123.371 28.3169 124.532 28.7858 125.934 28.7858Z" fill="#A67F56"/>
<path d="M132.353 19.2203V20.9887H134.862V28.5983H136.704V20.9887H139.227V19.2203H132.353Z" fill="#A67F56"/>
<path d="M145.742 28.7858C146.796 28.7858 147.651 28.4911 148.318 27.9016C148.986 27.3122 149.319 26.5217 149.319 25.5303V19.2203H147.477V25.383C147.477 26.361 146.93 26.9772 145.742 26.9772C144.554 26.9772 144.006 26.361 144.006 25.383V19.2203H142.178V25.5303C142.178 26.5217 142.511 27.3122 143.179 27.9016C143.846 28.4911 144.701 28.7858 145.742 28.7858Z" fill="#A67F56"/>
<path d="M160.096 28.5983L158.027 25.0614C159.108 24.5657 159.829 23.494 159.829 22.3284C159.829 21.471 159.522 20.7342 158.921 20.1313C158.32 19.5284 157.586 19.2203 156.719 19.2203H152.981V28.5983H154.823V25.3428H156.225L158.107 28.5983H160.096ZM156.719 20.9485C157.413 20.9485 157.987 21.5648 157.987 22.3284C157.987 23.0921 157.413 23.7217 156.719 23.7217H154.823V20.9485H156.719Z" fill="#A67F56"/>
<path d="M165.025 24.7265H168.562V22.9849H165.025V20.9887H168.896V19.2203H163.183V28.5983H168.963V26.8299H165.025V24.7265Z" fill="#A67F56"/>
<path d="M54.2221 36.1007V45.4787H57.933C59.2145 45.4787 60.2824 45.0232 61.1367 44.1255C62.0043 43.2279 62.4315 42.116 62.4315 40.7897C62.4315 39.4633 62.0043 38.3514 61.1367 37.4538C60.2824 36.5562 59.2145 36.1007 57.933 36.1007H54.2221ZM56.0642 43.7102V37.8691H57.933C58.7473 37.8691 59.4013 38.137 59.9086 38.6863C60.4158 39.2222 60.6695 39.9188 60.6695 40.7897C60.6695 41.6605 60.4158 42.3571 59.9086 42.9064C59.4013 43.4423 58.7473 43.7102 57.933 43.7102H56.0642Z" fill="#A67F56"/>
<path d="M67.5826 41.6069H71.12V39.8653H67.5826V37.8691H71.4537V36.1007H65.7405V45.4787H71.5204V43.7102H67.5826V41.6069Z" fill="#A67F56"/>
<path d="M78.0115 45.6662C79.0127 45.6662 79.8269 45.4117 80.4543 44.9026C81.0817 44.3935 81.4021 43.7102 81.4021 42.8394C81.4021 42.3035 81.2552 41.8346 81.055 41.5131C80.8815 41.1916 80.4543 40.8567 80.174 40.6825C80.0405 40.5887 79.8403 40.4949 79.5867 40.4011C79.333 40.294 79.1328 40.2136 78.986 40.1734L78.3452 39.959C77.6511 39.7447 77.1839 39.5437 76.9303 39.3696C76.69 39.182 76.5699 38.9409 76.5699 38.6461C76.5699 38.0968 77.0371 37.7083 77.7979 37.7083C78.6122 37.7083 79.2129 38.1102 79.5867 38.9141L81.1351 38.0165C80.4944 36.6901 79.3063 35.9131 77.7979 35.9131C76.957 35.9131 76.2228 36.1677 75.6221 36.6767C75.0214 37.1724 74.7278 37.8557 74.7278 38.6997C74.7278 39.5571 75.0348 40.2002 75.6088 40.6289C76.1961 41.0442 76.7034 41.2452 77.5443 41.4997C78.3052 41.7141 78.8258 41.915 79.1194 42.1026C79.4131 42.2767 79.56 42.5313 79.56 42.8662C79.56 43.4423 79.0928 43.8576 78.0649 43.8576C76.997 43.8576 76.2762 43.3753 75.9158 42.4241L74.3406 43.3485C74.8612 44.782 76.1561 45.6662 78.0115 45.6662Z" fill="#A67F56"/>
<path d="M84.5407 45.4787H86.3828V36.1007H84.5407V45.4787Z" fill="#A67F56"/>
<path d="M94.5999 40.4413V42.0758H97.4298C97.0961 43.1877 96.135 43.8576 94.7067 43.8576C93.7456 43.8576 92.9714 43.5763 92.384 43.0002C91.81 42.4241 91.5164 41.6873 91.5164 40.8031C91.5164 39.9055 91.7967 39.1686 92.3707 38.5925C92.9447 38.0031 93.6788 37.7083 94.5732 37.7083C95.6811 37.7083 96.6422 38.2442 97.0827 39.0078L98.6579 38.0968C97.857 36.7705 96.3352 35.9131 94.5865 35.9131C93.1983 35.9131 92.037 36.382 91.0892 37.3332C90.1548 38.2844 89.6876 39.4366 89.6876 40.8031C89.6876 42.1562 90.1548 43.3083 91.1026 44.2595C92.0503 45.1973 93.2517 45.6662 94.6933 45.6662C96.0415 45.6662 97.1495 45.2509 98.0038 44.4203C98.8581 43.5897 99.2853 42.5045 99.2853 41.1648V40.4413H94.5999Z" fill="#A67F56"/>
<path d="M108.004 41.8212L103.999 36.1007H102.598V45.4787H104.44V39.7447L108.444 45.4787H109.846V36.1007H108.004V41.8212Z" fill="#A67F56"/>
<path d="M21.0678 0.196289L18.386 7.05917L36.4095 50.9607L36.4761 51.1458C37.0168 52.628 37.98 53.9045 39.2375 54.8057C40.4951 55.7068 41.9876 56.1899 43.5165 56.1908L21.0678 0.196289Z" fill="url(#paint0_linear_501_542)"/>
<path d="M17.3225 9.53467L14.7366 16.6352L28.2789 50.9607L28.3456 51.1458C28.8859 52.6282 29.849 53.9049 31.1067 54.8062C32.3643 55.7074 33.8569 56.1903 35.3859 56.1907L17.3225 9.53467Z" stroke="url(#paint1_linear_501_542)" stroke-width="0.5" stroke-miterlimit="10"/>
<path d="M13.6676 19.1328L11.0018 25.9791L20.1588 50.9663L20.2254 51.1514C20.7655 52.634 21.7285 53.9109 22.9862 54.8122C24.2439 55.7135 25.7367 56.1963 27.2658 56.1963L13.6676 19.1328ZM6.11268 41.6223L9.75416 31.6374C10.0193 30.9111 10.0193 30.1093 9.75416 29.383L0 56.1963C0.22678 56.1949 0.447892 56.1227 0.634462 55.9891C0.821629 55.8523 0.963944 55.6595 1.04232 55.4365L5.84077 42.3075H14.51C14.4351 42.1023 14.3015 41.9257 14.1272 41.8013C13.9528 41.6769 13.746 41.6106 13.5343 41.6113L6.11268 41.6223Z" fill="url(#paint2_linear_501_542)"/>
<defs>
<linearGradient id="paint0_linear_501_542" x1="18.386" y1="28.1921" x2="43.5165" y2="28.1921" gradientUnits="userSpaceOnUse">
<stop stop-color="#FAC47E"/>
<stop offset="1" stop-color="#A67F56"/>
</linearGradient>
<linearGradient id="paint1_linear_501_542" x1="14.6673" y1="32.8005" x2="35.4846" y2="32.8005" gradientUnits="userSpaceOnUse">
<stop stop-color="#FAC47E"/>
<stop offset="1" stop-color="#A67F56"/>
</linearGradient>
<linearGradient id="paint2_linear_501_542" x1="-0.0026658" y1="37.6577" x2="27.2552" y2="37.6577" gradientUnits="userSpaceOnUse">
<stop stop-color="#FAC47E"/>
<stop offset="1" stop-color="#A67F56"/>
</linearGradient>
</defs>
</svg>
