<svg width="170" height="56" viewBox="0 0 170 56" fill="none" xmlns="http://www.w3.org/2000/svg">
<g clip-path="url(#clip0_3110_1800)">
<path d="M59.3905 9.3937L58.8986 7.9194H55.6195L55.1277 9.3937H53.3828L56.2519 1.20312H58.2592L61.1401 9.3937H59.3905ZM56.1512 6.40999H58.3997L57.2755 3.06122L56.1512 6.40999Z" fill="#A67F56"/>
<path d="M64.2623 7.5333L65.6442 6.72594C65.9604 7.55669 66.5811 7.97793 67.5179 7.97793C68.4548 7.97793 68.8296 7.6152 68.8296 7.11207C68.8338 6.97595 68.7999 6.84135 68.7316 6.72349C68.6633 6.60564 68.5633 6.50921 68.4431 6.44511C68.0075 6.21003 67.5429 6.03301 67.0612 5.91858C66.4546 5.76733 65.8797 5.50983 65.3631 5.15802C65.1063 4.96114 64.9015 4.70446 64.7668 4.41035C64.6321 4.11625 64.5715 3.79368 64.5902 3.47077C64.5757 3.13576 64.639 2.80195 64.7751 2.49544C64.9113 2.18894 65.1165 1.91805 65.3748 1.70395C65.9092 1.25792 66.5876 1.02091 67.2837 1.037C67.8983 1.02256 68.5035 1.18902 69.0241 1.51566C69.5446 1.8423 69.9576 2.31469 70.2115 2.87404L68.853 3.66033C68.5251 2.95828 67.9981 2.60491 67.2837 2.60491C66.6162 2.60491 66.2063 2.94424 66.2063 3.42631C66.2043 3.54926 66.232 3.67088 66.287 3.78086C66.3421 3.89085 66.4229 3.98597 66.5225 4.05816C66.9112 4.28475 67.3288 4.45791 67.7638 4.57298L68.326 4.76021C68.5054 4.81611 68.6814 4.88253 68.853 4.95912C69.0335 5.01624 69.2065 5.0948 69.3683 5.19313C69.6768 5.37436 69.9409 5.62222 70.1412 5.91858C70.3488 6.27306 70.4542 6.67803 70.4457 7.08866C70.4584 7.43315 70.3898 7.7758 70.2453 8.08886C70.1009 8.40191 69.8847 8.67657 69.6142 8.89059C68.9997 9.35609 68.2415 9.59204 67.4711 9.55754C65.855 9.55754 64.719 8.78528 64.2623 7.5333Z" fill="#A67F56"/>
<path d="M74.3806 1.20068H75.9967V9.39126H74.3806V1.20068Z" fill="#A67F56"/>
<path d="M85.7168 9.3937L85.225 7.9194H81.9459L81.454 9.3937H79.7091L82.5783 1.20312H84.5809L87.4618 9.3937H85.7168ZM82.4729 6.40999H84.7214L83.5971 3.06122L82.4729 6.40999Z" fill="#A67F56"/>
<path d="M59.3905 23.4347L58.8986 21.9604H55.6195L55.1277 23.4347H53.3828L56.2519 15.2441H58.2592L61.1401 23.4347H59.3905ZM56.1512 20.451H58.3997L57.2755 17.1022L56.1512 20.451Z" fill="#A67F56"/>
<path d="M69.3683 23.4346L67.7287 20.5913H66.4991V23.4346H64.8829V15.244H68.162C68.5214 15.2378 68.8782 15.3052 69.2106 15.4421C69.5429 15.5789 69.8437 15.7823 70.0943 16.0397C70.351 16.2889 70.554 16.5878 70.691 16.9182C70.8279 17.2486 70.8959 17.6034 70.8907 17.961C70.8822 18.468 70.7289 18.9621 70.4488 19.385C70.1687 19.8078 69.7735 20.142 69.3097 20.3479L71.1249 23.437L69.3683 23.4346ZM66.4873 16.7511V19.1755H68.1503C68.4589 19.1603 68.749 19.0239 68.9574 18.796C69.1658 18.5681 69.2756 18.2671 69.2628 17.9586C69.273 17.6518 69.1621 17.3532 68.954 17.1273C68.7459 16.9014 68.4572 16.7663 68.1503 16.7511H66.4873Z" fill="#A67F56"/>
<path d="M75.7273 22.37C75.3312 21.9729 75.0201 21.4995 74.8127 20.9785C74.6054 20.4576 74.5062 19.8999 74.5211 19.3395C74.5037 18.777 74.6018 18.2169 74.8092 17.6937C75.0167 17.1705 75.3291 16.6953 75.7273 16.2973C76.1245 15.8931 76.6011 15.5753 77.1271 15.3638C77.6531 15.1524 78.2172 15.0519 78.7839 15.0687C79.4864 15.0604 80.1792 15.2339 80.7948 15.5722C81.4104 15.9105 81.928 16.4021 82.2972 16.9993L80.8919 17.8067C80.6763 17.4368 80.364 17.1325 79.9886 16.9264C79.6131 16.7202 79.1886 16.6201 78.7605 16.6366C78.404 16.6209 78.0483 16.6794 77.7156 16.8083C77.383 16.9372 77.0808 17.1338 76.8282 17.3855C76.5851 17.646 76.3958 17.9518 76.2712 18.2855C76.1466 18.6192 76.0891 18.9742 76.1021 19.3301C76.09 19.6838 76.1479 20.0365 76.2725 20.3678C76.3971 20.6991 76.5859 21.0025 76.8282 21.2608C77.0808 21.5125 77.383 21.709 77.7156 21.8379C78.0483 21.9668 78.404 22.0253 78.7605 22.0096C79.1873 22.0266 79.6107 21.9278 79.9859 21.7239C80.3612 21.52 80.6742 21.2184 80.8919 20.8512L82.2972 21.6586C81.9292 22.2569 81.4119 22.7495 80.796 23.0879C80.1801 23.4264 79.4867 23.5991 78.7839 23.5892C78.2178 23.6072 77.6542 23.5082 77.1282 23.2984C76.6023 23.0886 76.1253 22.7725 75.7273 22.37Z" fill="#A67F56"/>
<path d="M90.8931 15.2417H92.4975V23.4323H90.8931V20.039H87.8482V23.4323H86.2321V15.2417H87.8482V18.5039H90.8931V15.2417Z" fill="#A67F56"/>
<path d="M96.9477 15.2417H98.5638V23.4323H96.9477V15.2417Z" fill="#A67F56"/>
<path d="M108.436 15.2417V16.7886H106.223V23.4346H104.607V16.7886H102.405V15.2417H108.436Z" fill="#A67F56"/>
<path d="M113.882 21.8902H117.336V23.4347H112.266V15.2441H117.283V16.791H113.886V18.5344H116.99V20.0555H113.886L113.882 21.8902Z" fill="#A67F56"/>
<path d="M122.173 22.3702C121.777 21.973 121.466 21.4996 121.259 20.9787C121.051 20.4577 120.952 19.9001 120.967 19.3397C120.95 18.7772 121.048 18.2171 121.255 17.6939C121.462 17.1707 121.775 16.6955 122.173 16.2974C122.569 15.8947 123.044 15.5777 123.568 15.3664C124.091 15.155 124.653 15.0537 125.218 15.0689C125.921 15.0606 126.613 15.234 127.229 15.5723C127.844 15.9106 128.362 16.4023 128.731 16.9995L127.326 17.8068C127.11 17.437 126.798 17.1326 126.423 16.9265C126.047 16.7204 125.623 16.6202 125.195 16.6368C124.838 16.6211 124.482 16.6796 124.15 16.8085C123.817 16.9374 123.515 17.1339 123.262 17.3856C123.019 17.6461 122.83 17.952 122.705 18.2857C122.581 18.6194 122.523 18.9744 122.536 19.3303C122.524 19.684 122.582 20.0366 122.707 20.3679C122.831 20.6992 123.02 21.0027 123.262 21.2609C123.515 21.5126 123.817 21.7091 124.15 21.8381C124.482 21.967 124.838 22.0254 125.195 22.0098C125.621 22.0267 126.045 21.928 126.42 21.7241C126.795 21.5201 127.108 21.2186 127.326 20.8514L128.731 21.6588C128.363 22.2571 127.846 22.7496 127.23 23.0881C126.614 23.4265 125.921 23.5993 125.218 23.5894C124.654 23.6058 124.092 23.506 123.569 23.2962C123.045 23.0864 122.57 22.7712 122.173 22.3702Z" fill="#A67F56"/>
<path d="M138.065 15.2417V16.7886H135.852V23.4346H134.235V16.7886H132.038V15.2417H138.065Z" fill="#A67F56"/>
<path d="M142.703 22.8262C142.411 22.5677 142.182 22.2478 142.03 21.8896C141.878 21.5313 141.808 21.1438 141.824 20.7551V15.2417H143.429V20.6241C143.429 21.4782 143.897 22.0165 144.951 22.0165C146.005 22.0165 146.473 21.4782 146.473 20.6241V15.2417H148.09V20.7551C148.106 21.1438 148.036 21.5313 147.884 21.8896C147.732 22.2478 147.502 22.5677 147.211 22.8262C146.582 23.3584 145.775 23.6341 144.951 23.5984C144.131 23.6311 143.329 23.3556 142.703 22.8262Z" fill="#A67F56"/>
<path d="M156.967 23.4346L155.327 20.5913H154.097V23.4346H152.481V15.244H155.76C156.12 15.2378 156.477 15.3052 156.809 15.4421C157.141 15.5789 157.442 15.7823 157.693 16.0397C157.949 16.2889 158.152 16.5878 158.289 16.9182C158.426 17.2486 158.494 17.6034 158.489 17.961C158.48 18.468 158.327 18.9621 158.047 19.385C157.767 19.8078 157.372 20.142 156.908 20.3479L158.723 23.437L156.967 23.4346ZM154.086 16.7511V19.1755H155.749C156.057 19.1603 156.347 19.0239 156.556 18.796C156.764 18.5681 156.874 18.2671 156.861 17.9586C156.871 17.6518 156.76 17.3532 156.552 17.1273C156.344 16.9014 156.055 16.7663 155.749 16.7511H154.086Z" fill="#A67F56"/>
<path d="M164.204 21.8902H167.659V23.4347H162.588V15.2441H167.6V16.791H164.204V18.5344H167.307V20.0555H164.204V21.8902Z" fill="#A67F56"/>
<path d="M57.3762 29.2827C57.9016 29.2708 58.4235 29.37 58.9079 29.5736C59.3922 29.7773 59.8281 30.0808 60.1868 30.4645C60.5616 30.85 60.8553 31.3066 61.0504 31.8075C61.2455 32.3083 61.3381 32.8431 61.3228 33.3803C61.3381 33.9172 61.2454 34.4516 61.0503 34.9521C60.8552 35.4525 60.5616 35.9088 60.1868 36.2938C59.8281 36.6775 59.3922 36.981 58.9079 37.1847C58.4235 37.3884 57.9016 37.4875 57.3762 37.4756H54.1205V29.285L57.3762 29.2827ZM57.3762 35.9311C57.6984 35.9434 58.0195 35.8871 58.3183 35.7661C58.6171 35.6451 58.8868 35.462 59.1094 35.2291C59.5655 34.7238 59.8051 34.0601 59.777 33.3803C59.8072 32.703 59.5671 32.0415 59.1094 31.541C58.8878 31.3066 58.6183 31.1227 58.3193 31.0016C58.0202 30.8804 57.6986 30.825 57.3762 30.8389H55.7367V35.9405L57.3762 35.9311Z" fill="#A67F56"/>
<path d="M67.0144 35.9312H70.4691V37.4757H65.3983V29.2852H70.4106V30.832H67.0144V32.5754H70.1178V34.0965H67.0144V35.9312Z" fill="#A67F56"/>
<path d="M74.1112 35.6153L75.4931 34.808C75.8093 35.6387 76.4417 36.06 77.3786 36.06C78.2803 36.06 78.6902 35.6972 78.6902 35.1941C78.6945 35.058 78.6605 34.9234 78.5922 34.8055C78.5239 34.6877 78.424 34.5913 78.3037 34.5272C77.8681 34.2921 77.4036 34.115 76.9219 34.0006C76.3148 33.8496 75.7397 33.5913 75.2238 33.2377C74.9668 33.0415 74.762 32.7852 74.6272 32.4915C74.4924 32.1977 74.4319 31.8754 74.4508 31.5528C74.4362 31.2178 74.4994 30.8839 74.6356 30.5774C74.7717 30.2708 74.977 30 75.2355 29.786C75.7699 29.3399 76.4482 29.1029 77.1444 29.119C77.7589 29.1046 78.3641 29.2711 78.8847 29.5977C79.4053 29.9243 79.8182 30.3967 80.0721 30.9561L78.7136 31.74C78.3857 31.038 77.8587 30.6869 77.1444 30.6869C76.4768 30.6869 76.067 31.0263 76.067 31.506C76.0646 31.629 76.0921 31.7508 76.1472 31.8608C76.2023 31.9709 76.2832 32.0659 76.3832 32.1378C76.7709 32.3664 77.1888 32.5397 77.6245 32.6527L78.1866 32.8422C78.3664 32.8971 78.5425 32.9635 78.7136 33.0411C78.8951 33.101 79.0683 33.1835 79.2289 33.2869C79.5375 33.4681 79.8015 33.716 80.0018 34.0123C80.2095 34.3668 80.3149 34.7718 80.3063 35.1824C80.3191 35.5269 80.2505 35.8695 80.106 36.1826C79.9615 36.4956 79.7453 36.7703 79.4748 36.9843C78.8603 37.4498 78.1022 37.6858 77.3318 37.6513C75.7039 37.6396 74.568 36.8673 74.1112 35.6153Z" fill="#A67F56"/>
<path d="M84.2295 29.2827H85.8456V37.4733H84.2295V29.2827Z" fill="#A67F56"/>
<path d="M98.3413 33.0762V33.7081C98.3622 34.2341 98.2731 34.7587 98.0795 35.2483C97.8859 35.7379 97.5921 36.1817 97.217 36.5514C96.8296 36.9166 96.3732 37.2009 95.8745 37.3878C95.3758 37.5746 94.8449 37.6602 94.3127 37.6396C93.7318 37.6576 93.1533 37.558 92.6119 37.3469C92.0705 37.1358 91.5775 36.8174 91.1624 36.411C90.76 36.0193 90.4422 35.5493 90.2287 35.0301C90.0152 34.5108 89.9105 33.9534 89.9211 33.3922C89.9084 32.8282 90.0109 32.2676 90.2223 31.7445C90.4337 31.2215 90.7496 30.747 91.1507 30.35C91.55 29.9444 92.0283 29.6251 92.5561 29.4118C93.0838 29.1984 93.6498 29.0956 94.219 29.1097C94.9282 29.094 95.6295 29.2613 96.2552 29.5954C96.8808 29.9295 97.4097 30.4191 97.7908 31.0169L96.4089 31.8149C96.0225 31.1456 95.1793 30.6776 94.2073 30.6776C93.849 30.6653 93.492 30.7278 93.1593 30.8612C92.8266 30.9946 92.5254 31.1958 92.275 31.4522C92.0247 31.7058 91.829 32.0079 91.7001 32.3399C91.5712 32.672 91.5118 33.0269 91.5255 33.3828C91.515 33.7376 91.5772 34.0907 91.7081 34.4207C91.839 34.7506 92.0358 35.0504 92.2867 35.3017C92.5589 35.5564 92.8795 35.7539 93.2295 35.8826C93.5795 36.0112 93.9519 36.0683 94.3244 36.0506C95.5774 36.0506 96.4324 35.4656 96.7134 34.4944H94.2307V33.0669L98.3413 33.0762Z" fill="#A67F56"/>
<path d="M107.16 29.2827H108.776V37.4733H107.546L104.033 32.4653V37.4733H102.417V29.2827H103.646L107.16 34.2813V29.2827Z" fill="#A67F56"/>
<path d="M59.3905 51.5167L58.8986 50.0424H55.6195L55.1277 51.5167H53.3828L56.2519 43.3262H58.2592L61.1401 51.5167H59.3905ZM56.1512 48.533H58.3997L57.2755 45.1843L56.1512 48.533Z" fill="#A67F56"/>
<path d="M65.7542 51.5167L63.4589 43.3262H65.157L66.7262 49.4106L68.436 43.3262H69.8179L71.5394 49.4106L73.1087 43.3262H74.8068L72.5115 51.5167H70.6728L69.127 46.1086L67.5928 51.5167H65.7542Z" fill="#A67F56"/>
<path d="M83.0701 51.5167L82.5783 50.0424H79.3109L78.8191 51.5167H77.0741L79.9433 43.3262H81.9459L84.8268 51.5167H83.0701ZM79.8262 48.533H82.0747L80.9504 45.1843L79.8262 48.533Z" fill="#A67F56"/>
<path d="M93.0479 51.5167L91.4084 48.6734H90.1787V51.5167H88.5626V43.3261H91.8417C92.2011 43.3199 92.5579 43.3873 92.8902 43.5241C93.2226 43.661 93.5233 43.8643 93.774 44.1217C94.0307 44.3709 94.2337 44.6699 94.3706 45.0002C94.5076 45.3306 94.5755 45.6855 94.5703 46.043C94.5619 46.55 94.4086 47.0441 94.1285 47.467C93.8484 47.8899 93.4531 48.224 92.9894 48.43L94.8046 51.519L93.0479 51.5167ZM90.167 44.8331V47.2575H91.8299C92.1386 47.2424 92.4287 47.106 92.6371 46.878C92.8454 46.6501 92.9552 46.3491 92.9425 46.0407C92.9527 45.7338 92.8418 45.4352 92.6337 45.2093C92.4256 44.9834 92.1369 44.8483 91.8299 44.8331H90.167Z" fill="#A67F56"/>
<path d="M101.925 43.3237C102.45 43.3118 102.972 43.411 103.457 43.6146C103.941 43.8183 104.377 44.1219 104.735 44.5055C105.11 44.891 105.404 45.3476 105.599 45.8485C105.794 46.3493 105.887 46.8841 105.871 47.4213C105.887 47.9582 105.794 48.4927 105.599 48.9931C105.404 49.4935 105.11 49.9498 104.735 50.3348C104.377 50.7185 103.941 51.0221 103.457 51.2257C102.972 51.4294 102.45 51.5285 101.925 51.5166H98.6692V43.3261L101.925 43.3237ZM101.925 49.9721C102.247 49.9844 102.568 49.9282 102.867 49.8071C103.166 49.6861 103.435 49.503 103.658 49.2701C104.114 48.7648 104.354 48.1011 104.326 47.4213C104.356 46.7441 104.116 46.0825 103.658 45.582C103.436 45.3477 103.167 45.1637 102.868 45.0426C102.569 44.9214 102.247 44.866 101.925 44.8799H100.285V49.9815L101.925 49.9721Z" fill="#A67F56"/>
<path d="M109.232 49.6563L110.614 48.849C110.931 49.6797 111.551 50.101 112.488 50.101C113.425 50.101 113.8 49.7383 113.8 49.2351C113.804 49.099 113.77 48.9644 113.702 48.8465C113.633 48.7287 113.534 48.6323 113.413 48.5682C112.978 48.3331 112.513 48.1561 112.031 48.0416C111.424 47.8907 110.849 47.6323 110.333 47.2787C110.076 47.0825 109.872 46.8263 109.737 46.5325C109.602 46.2387 109.541 45.9164 109.56 45.5938C109.546 45.2588 109.609 44.9249 109.745 44.6184C109.881 44.3118 110.087 44.041 110.345 43.827C110.879 43.381 111.558 43.144 112.254 43.16C112.868 43.1456 113.474 43.3121 113.994 43.6387C114.515 43.9653 114.928 44.4377 115.182 44.9971L113.823 45.781C113.495 45.079 112.968 44.728 112.254 44.728C111.586 44.728 111.177 45.0673 111.177 45.547C111.174 45.67 111.202 45.7918 111.257 45.9018C111.312 46.0119 111.393 46.107 111.493 46.1789C111.88 46.4074 112.298 46.5807 112.734 46.6937L113.296 46.8832C113.476 46.9381 113.652 47.0045 113.823 47.0822C114.005 47.142 114.178 47.2245 114.338 47.3279C114.647 47.5091 114.911 47.757 115.111 48.0533C115.319 48.4078 115.424 48.8128 115.416 49.2234C115.429 49.5679 115.36 49.9105 115.216 50.2236C115.071 50.5367 114.855 50.8113 114.584 51.0253C113.97 51.4908 113.212 51.7268 112.441 51.6923C110.825 51.6806 109.689 50.9083 109.232 49.6563Z" fill="#A67F56"/>
</g>
<path d="M26.7699 1.07178L24.3478 7.27793L40.626 46.9784L40.6862 47.1457C41.1745 48.4861 42.0444 49.6405 43.1802 50.4554C44.316 51.2703 45.664 51.7072 47.0448 51.7079L26.7699 1.07178Z" fill="#A67F56"/>
<path d="M23.3873 9.5166L21.0518 15.9376L33.2828 46.9784L33.3429 47.1458C33.831 48.4864 34.7008 49.6409 35.8367 50.4559C36.9726 51.2709 38.3207 51.7076 39.7016 51.708L23.3873 9.5166Z" stroke="#A67F56" stroke-width="0.5" stroke-miterlimit="10"/>
<path d="M20.0863 18.1963L17.6786 24.3875L25.9489 46.9835L26.0091 47.1509C26.4969 48.4916 27.3666 49.6464 28.5026 50.4614C29.6385 51.2764 30.9868 51.713 32.3678 51.713L20.0863 18.1963ZM13.263 38.5337L16.5518 29.5043C16.7913 28.8474 16.7913 28.1224 16.5518 27.4656L7.74219 51.713C7.94701 51.7118 8.14671 51.6465 8.31521 51.5257C8.48426 51.402 8.61279 51.2276 8.68358 51.026L13.0174 39.1533H20.8471C20.7795 38.9678 20.6588 38.8081 20.5014 38.6955C20.3439 38.583 20.1571 38.5231 19.9659 38.5237L13.263 38.5337Z" fill="#A67F56"/>
<defs>
<clipPath id="clip0_3110_1800">
<rect width="114.264" height="50.6411" fill="white" transform="translate(53.3945 1.03711)"/>
</clipPath>
</defs>
</svg>
