<svg width="275" height="90" viewBox="0 0 275 90" fill="none" xmlns="http://www.w3.org/2000/svg">
<path fill-rule="evenodd" clip-rule="evenodd" d="M103.954 12.1069L106.189 10.8094C106.701 12.1445 107.705 12.8215 109.22 12.8215C110.736 12.8215 111.342 12.2385 111.342 11.4299C111.349 11.2112 111.294 10.9949 111.183 10.8054C111.073 10.616 110.911 10.4611 110.717 10.358C110.012 9.98023 109.261 9.69573 108.481 9.51182C107.5 9.26875 106.57 8.85491 105.734 8.28951C105.319 7.97308 104.988 7.56056 104.77 7.08789C104.552 6.61523 104.454 6.09681 104.484 5.57786C104.461 5.03944 104.563 4.50296 104.783 4.01036C105.004 3.51776 105.336 3.0824 105.753 2.73832C106.618 2.02148 107.715 1.64058 108.841 1.66643C109.835 1.64322 110.815 1.91075 111.657 2.4357C112.499 2.96066 113.167 3.71986 113.577 4.61881L111.38 5.88249C110.849 4.7542 109.997 4.18629 108.841 4.18629C107.762 4.18629 107.098 4.73164 107.098 5.5064C107.095 5.704 107.14 5.89945 107.229 6.07621C107.318 6.25298 107.449 6.40585 107.61 6.52187C108.239 6.88603 108.914 7.16433 109.618 7.34926L110.527 7.65016C110.818 7.74001 111.102 7.84675 111.38 7.96983C111.672 8.06163 111.952 8.1879 112.213 8.34593C112.713 8.63719 113.14 9.03553 113.464 9.51182C113.8 10.0815 113.97 10.7324 113.956 11.3923C113.977 11.946 113.866 12.4967 113.632 12.9998C113.399 13.5029 113.049 13.9443 112.611 14.2883C111.617 15.0364 110.391 15.4156 109.144 15.3602C106.53 15.3602 104.693 14.119 103.954 12.1069ZM96.0729 15.0969L95.2772 12.7275H89.9728L89.1772 15.0969H86.3545L90.9959 1.93348H94.2429L98.9032 15.0969H96.0729ZM90.8329 10.3017H94.4702L92.6516 4.91969L90.8329 10.3017ZM122.936 1.92971H120.322V15.0931H122.936V1.92971ZM138.66 15.0969L137.864 12.7275H132.56L131.764 15.0969H128.941L133.583 1.93348H136.822L141.482 15.0969H138.66ZM133.412 10.3017H137.049L135.231 4.91969L133.412 10.3017ZM95.2772 35.2933L96.0729 37.6628H98.9032L94.2429 24.4993H90.9959L86.3545 37.6628H89.1772L89.9728 35.2933H95.2772ZM94.4702 32.8675H90.8329L92.6516 27.4856L94.4702 32.8675ZM112.213 37.6628L109.561 33.0932H107.572V37.6628H104.958V24.4993H110.262C110.844 24.4894 111.421 24.5977 111.958 24.8176C112.496 25.0375 112.982 25.3644 113.388 25.7781C113.803 26.1786 114.132 26.659 114.353 27.19C114.575 27.7209 114.685 28.2912 114.676 28.8658C114.662 29.6807 114.414 30.4747 113.961 31.1544C113.508 31.834 112.869 32.371 112.119 32.702L115.055 37.6665L112.213 37.6628ZM107.553 26.9214V30.8178H110.243C110.742 30.7934 111.212 30.5742 111.549 30.2078C111.886 29.8415 112.064 29.3578 112.043 28.8621C112.059 28.3689 111.88 27.889 111.543 27.526C111.207 27.163 110.74 26.9458 110.243 26.9214H107.553ZM121.021 33.7152C121.356 34.5524 121.859 35.3133 122.5 35.9515C123.144 36.5984 123.915 37.1064 124.766 37.4436C125.617 37.7808 126.529 37.9399 127.445 37.911C128.582 37.9269 129.703 37.6492 130.699 37.1053C131.696 36.5614 132.533 35.7698 133.128 34.8082L130.855 33.5106C130.502 34.1008 129.996 34.5854 129.389 34.9131C128.782 35.2409 128.097 35.3996 127.407 35.3723C126.83 35.3975 126.255 35.3035 125.717 35.0963C125.178 34.8892 124.69 34.5733 124.281 34.1688C123.889 33.7538 123.584 33.2661 123.382 32.7336C123.18 32.2012 123.087 31.6345 123.106 31.066C123.085 30.494 123.178 29.9235 123.38 29.3872C123.581 28.8509 123.888 28.3593 124.281 27.9406C124.69 27.5361 125.178 27.2203 125.717 27.0131C126.255 26.806 126.83 26.712 127.407 26.7371C128.099 26.7106 128.786 26.8715 129.393 27.2028C130.001 27.5341 130.506 28.0231 130.855 28.6176L133.128 27.3201C132.531 26.3602 131.693 25.5701 130.697 25.0264C129.702 24.4827 128.581 24.204 127.445 24.2173C126.528 24.1903 125.615 24.3518 124.764 24.6916C123.914 25.0314 123.143 25.5421 122.5 26.1918C121.856 26.8314 121.351 27.5952 121.015 28.4361C120.679 29.2769 120.521 30.1771 120.549 31.0811C120.525 31.9818 120.685 32.8779 121.021 33.7152ZM147.033 24.4956H149.628V37.659H147.033V32.2056H142.107V37.659H139.493V24.4956H142.107V29.7384H147.033V24.4956ZM159.441 24.4956H156.827V37.659H159.441V24.4956ZM175.411 24.4956V26.9816H171.831V37.6628H169.217V26.9816H165.655V24.4956H175.411ZM189.809 35.1805H184.221L184.228 32.2319H189.248V29.7873H184.228V26.9853H189.722V24.4993H181.606V37.6628H189.809V35.1805ZM197.633 35.9515C196.992 35.3133 196.489 34.5524 196.154 33.7152C195.818 32.8779 195.658 31.9818 195.682 31.0811C195.654 30.1771 195.812 29.2769 196.148 28.4361C196.483 27.5952 196.989 26.8314 197.633 26.1918C198.273 25.5445 199.041 25.0351 199.889 24.6954C200.736 24.3557 201.645 24.1929 202.559 24.2173C203.695 24.204 204.816 24.4827 205.811 25.0264C206.807 25.5701 207.645 26.3602 208.242 27.3201L205.969 28.6176C205.62 28.0231 205.115 27.5341 204.507 27.2028C203.9 26.8715 203.213 26.7106 202.521 26.7371C201.944 26.712 201.369 26.806 200.83 27.0131C200.292 27.2203 199.804 27.5361 199.395 27.9406C199.002 28.3593 198.695 28.8509 198.494 29.3872C198.292 29.9235 198.199 30.494 198.22 31.066C198.201 31.6345 198.294 32.2012 198.496 32.7336C198.698 33.2661 199.003 33.7538 199.395 34.1688C199.804 34.5733 200.292 34.8892 200.83 35.0963C201.369 35.3035 201.944 35.3975 202.521 35.3723C203.211 35.3996 203.896 35.2409 204.503 34.9131C205.11 34.5854 205.616 34.1008 205.969 33.5106L208.242 34.8082C207.647 35.7698 206.81 36.5614 205.813 37.1053C204.817 37.6492 203.695 37.9269 202.559 37.911C201.646 37.9373 200.738 37.7769 199.891 37.4398C199.043 37.1027 198.275 36.5961 197.633 35.9515ZM223.34 26.9816V24.4956H213.592V26.9816H217.146V37.6628H219.76V26.9816H223.34ZM230.842 36.6849C230.372 36.2696 230 35.7554 229.754 35.1797C229.508 34.6039 229.395 33.9811 229.422 33.3564V24.4956H232.017V33.1458C232.017 34.5186 232.775 35.3836 234.48 35.3836C236.185 35.3836 236.942 34.5186 236.942 33.1458V24.4956H239.557V33.3564C239.584 33.9811 239.47 34.6039 239.224 35.1797C238.979 35.7554 238.607 36.2696 238.136 36.6849C237.118 37.5402 235.812 37.9834 234.48 37.926C233.153 37.9786 231.856 37.5357 230.842 36.6849ZM251.264 33.0932L253.916 37.6628L256.758 37.6665L253.822 32.702C254.572 32.371 255.211 31.834 255.664 31.1544C256.117 30.4747 256.366 29.6807 256.379 28.8658C256.388 28.2912 256.278 27.7209 256.056 27.19C255.835 26.659 255.506 26.1786 255.091 25.7781C254.686 25.3644 254.199 25.0375 253.661 24.8176C253.124 24.5977 252.547 24.4894 251.965 24.4993H246.661V37.6628H249.275V33.0932H251.264ZM249.256 30.8178V26.9214H251.946C252.443 26.9458 252.91 27.163 253.246 27.526C253.583 27.889 253.762 28.3689 253.746 28.8621C253.767 29.3578 253.589 29.8415 253.252 30.2078C252.915 30.5742 252.445 30.7934 251.946 30.8178H249.256ZM265.624 35.1805H271.213V37.6628H263.01V24.4993H271.118V26.9853H265.624V29.7873H270.644V32.2319H265.624V35.1805ZM95.2922 47.529C94.5087 47.2017 93.6643 47.0424 92.8145 47.0614L87.548 47.0652V60.2286H92.8145C93.6643 60.2477 94.5087 60.0884 95.2922 59.7611C96.0757 59.4338 96.7807 58.9459 97.3611 58.3293C97.9673 57.7105 98.4422 56.9772 98.7579 56.173C99.0735 55.3687 99.2234 54.5097 99.1987 53.6469C99.2235 52.7835 99.0736 51.924 98.758 51.1191C98.4424 50.3142 97.9674 49.5803 97.3611 48.9607C96.7807 48.3442 96.0757 47.8563 95.2922 47.529ZM94.3385 57.4812C93.8551 57.6757 93.3357 57.7661 92.8145 57.7464L90.1623 57.7614V49.5625H92.8145C93.336 49.5401 93.8563 49.6292 94.34 49.8239C94.8238 50.0186 95.2597 50.3142 95.6182 50.6908C96.3586 51.4952 96.747 52.5584 96.6981 53.6469C96.7436 54.7394 96.3559 55.8061 95.6182 56.6181C95.258 56.9925 94.8218 57.2867 94.3385 57.4812ZM108.406 57.7464H113.994V60.2286H105.791V47.0652H113.899V49.5512H108.406V52.3531H113.426V54.7978H108.406V57.7464ZM122.121 55.9411L119.886 57.2387C120.625 59.2508 122.462 60.4919 125.096 60.5107C126.342 60.5662 127.568 60.187 128.562 59.4388C129 59.0949 129.35 58.6534 129.583 58.1503C129.817 57.6472 129.928 57.0965 129.907 56.5429C129.921 55.8829 129.751 55.2321 129.415 54.6624C129.091 54.1861 128.664 53.7878 128.164 53.4965C127.905 53.3304 127.624 53.1977 127.331 53.1016C127.054 52.9768 126.769 52.87 126.478 52.7819L125.569 52.4773C124.864 52.2957 124.188 52.0172 123.561 51.6498C123.399 51.5343 123.268 51.3815 123.179 51.2046C123.09 51.0278 123.046 50.8321 123.05 50.6344C123.05 49.8634 123.713 49.318 124.792 49.318C125.948 49.318 126.8 49.8822 127.331 51.0105L129.528 49.7505C129.118 48.8516 128.45 48.0924 127.608 47.5675C126.766 47.0425 125.787 46.775 124.792 46.7982C123.666 46.7723 122.569 47.1532 121.704 47.8701C121.286 48.2139 120.954 48.6493 120.734 49.1419C120.514 49.6346 120.412 50.1712 120.435 50.7096C120.405 51.2281 120.503 51.7461 120.72 52.2182C120.938 52.6903 121.27 53.1021 121.686 53.4175C122.52 53.9857 123.45 54.401 124.432 54.6436C125.212 54.8275 125.963 55.112 126.668 55.4898C126.862 55.5928 127.024 55.7478 127.135 55.9372C127.245 56.1266 127.3 56.3429 127.293 56.5617C127.293 57.3703 126.63 57.9532 125.171 57.9532C123.656 57.9532 122.633 57.2763 122.121 55.9411ZM136.254 47.0614H138.868V60.2249H136.254V47.0614ZM159.081 54.1735V53.158L152.432 53.143V55.4371H156.448C155.994 56.9979 154.611 57.9382 152.584 57.9382C151.981 57.9667 151.379 57.8749 150.813 57.6681C150.246 57.4614 149.728 57.144 149.287 56.7347C148.882 56.3308 148.563 55.849 148.351 55.3187C148.14 54.7884 148.039 54.2208 148.056 53.6507C148.034 53.0787 148.13 52.5083 148.338 51.9746C148.547 51.441 148.863 50.9554 149.268 50.5479C149.673 50.1359 150.161 49.8124 150.699 49.598C151.237 49.3837 151.815 49.2832 152.394 49.303C153.967 49.303 155.331 50.0552 155.956 51.1308L158.191 49.8483C157.575 48.8875 156.719 48.1007 155.707 47.5638C154.695 47.0269 153.56 46.758 152.413 46.7831C151.492 46.7605 150.577 46.9258 149.723 47.2687C148.869 47.6115 148.096 48.1247 147.45 48.7765C146.801 49.4145 146.29 50.1771 145.948 51.0177C145.606 51.8584 145.44 52.7594 145.461 53.6657C145.444 54.5677 145.613 55.4636 145.958 56.2981C146.304 57.1325 146.818 57.8878 147.469 58.5174C148.14 59.1706 148.938 59.6822 149.813 60.0215C150.689 60.3609 151.625 60.5209 152.565 60.4919C153.426 60.5251 154.285 60.3876 155.091 60.0873C155.898 59.787 156.636 59.33 157.263 58.743C157.87 58.149 158.345 57.4357 158.658 56.6488C158.971 55.8619 159.115 55.0188 159.081 54.1735ZM173.347 47.0614H175.961V60.2249H173.972L168.288 52.1764V60.2249H165.674V47.0614H167.663L173.347 55.0949V47.0614ZM95.2772 80.4251L96.0729 82.7945H98.9032L94.2429 69.6311H90.9959L86.3545 82.7945H89.1772L89.9728 80.4251H95.2772ZM94.4702 77.9993H90.8329L92.6516 72.6173L94.4702 77.9993ZM106.367 82.7945L102.654 69.6311H105.401L107.94 79.4096L110.705 69.6311H112.941L115.726 79.4096L118.264 69.6311H121.011L117.298 82.7945H114.324L111.823 74.1029L109.341 82.7945H106.367ZM133.583 80.4251L134.378 82.7945H137.22L132.56 69.6311H129.32L124.679 82.7945H127.501L128.297 80.4251H133.583ZM130.949 72.6173L132.768 77.9993H129.131L130.949 72.6173ZM150.519 82.7945L147.867 78.2249H145.877V82.7945H143.263V69.6311H148.567C149.149 69.6211 149.726 69.7294 150.264 69.9493C150.801 70.1693 151.288 70.4961 151.693 70.9098C152.108 71.3103 152.437 71.7907 152.658 72.3217C152.88 72.8527 152.99 73.4229 152.981 73.9976C152.968 74.8124 152.72 75.6065 152.267 76.2861C151.814 76.9658 151.174 77.5027 150.424 77.8338L153.36 82.7982L150.519 82.7945ZM145.858 72.0531V75.9495H148.548C149.048 75.9251 149.517 75.7059 149.854 75.3396C150.191 74.9733 150.369 74.4895 150.348 73.9938C150.365 73.5006 150.185 73.0208 149.849 72.6577C149.512 72.2947 149.045 72.0775 148.548 72.0531H145.858ZM167.356 70.0949C166.573 69.7675 165.728 69.6082 164.878 69.6273L159.612 69.6311V82.7945H164.878C165.728 82.8136 166.573 82.6543 167.356 82.327C168.14 81.9997 168.845 81.5118 169.425 80.8952C170.031 80.2764 170.506 79.5431 170.822 78.7388C171.137 77.9345 171.287 77.0756 171.263 76.2128C171.287 75.3494 171.138 74.4899 170.822 73.685C170.506 72.8801 170.031 72.1461 169.425 71.5266C168.845 70.91 168.14 70.4222 167.356 70.0949ZM166.402 80.0471C165.919 80.2416 165.4 80.332 164.878 80.3123L162.226 80.3273V72.1284H164.878C165.4 72.1059 165.92 72.1951 166.404 72.3898C166.888 72.5844 167.324 72.8801 167.682 73.2567C168.423 74.061 168.811 75.1243 168.762 76.2128C168.808 77.3053 168.42 78.372 167.682 79.184C167.322 79.5584 166.886 79.8526 166.402 80.0471ZM176.7 79.8045L178.935 78.507C179.447 79.8421 180.451 80.5191 181.966 80.5191C183.482 80.5191 184.088 79.9362 184.088 79.1275C184.095 78.9088 184.04 78.6925 183.929 78.5031C183.819 78.3137 183.657 78.1587 183.463 78.0557C182.758 77.6779 182.007 77.3934 181.227 77.2094C180.245 76.9668 179.315 76.5516 178.48 75.9834C178.065 75.668 177.733 75.2562 177.515 74.784C177.297 74.3119 177.199 73.7939 177.23 73.2755C177.206 72.737 177.309 72.2004 177.529 71.7078C177.749 71.2151 178.081 70.7798 178.499 70.4359C179.364 69.7191 180.461 69.3382 181.587 69.364C182.581 69.3408 183.56 69.6084 184.403 70.1333C185.245 70.6583 185.913 71.4175 186.323 72.3164L184.126 73.5763C183.595 72.4481 182.743 71.8839 181.587 71.8839C180.507 71.8839 179.844 72.4292 179.844 73.2002C179.841 73.3979 179.885 73.5936 179.974 73.7705C180.063 73.9474 180.194 74.1001 180.356 74.2157C180.983 74.5831 181.659 74.8616 182.364 75.0431L183.273 75.3478C183.564 75.4359 183.849 75.5427 184.126 75.6674C184.419 75.7636 184.699 75.8963 184.959 76.0624C185.459 76.3536 185.886 76.752 186.21 77.2282C186.546 77.798 186.716 78.4488 186.702 79.1087C186.723 79.6624 186.612 80.2131 186.378 80.7162C186.145 81.2193 185.795 81.6607 185.357 82.0047C184.363 82.7528 183.137 83.132 181.89 83.0766C179.276 83.0578 177.439 81.8166 176.7 79.8045ZM39.3862 11.6966L43.3043 1.72243L76.102 83.102C73.8683 83.1008 71.6878 82.3987 69.8504 81.089C68.0131 79.7793 66.6059 77.924 65.816 75.7699L65.7186 75.5009L39.3862 11.6966ZM37.8252 14.5867L38.0654 15.2037L64.4562 83.0113L64.5888 83.3521L64.2232 83.352C61.9367 83.3513 59.7054 82.6329 57.826 81.2932C55.9468 79.9537 54.5089 78.0568 53.7024 75.8559L53.7021 75.855L53.606 75.5896L33.8221 25.7061L33.7869 25.6175L33.8197 25.5279L37.5976 15.2084L37.8252 14.5867ZM37.8395 16.002L34.322 25.6103L54.0722 75.4087L54.075 75.4157L54.0749 75.4158L54.1719 75.6839L54.172 75.6841C54.9445 77.792 56.3207 79.6061 58.1163 80.8861C59.8107 82.0939 61.803 82.7722 63.8551 82.8453L37.8395 16.002ZM28.5978 39.1939L32.4925 29.2438L52.3597 83.11C50.1257 83.1099 47.9447 82.4082 46.1071 81.0984C44.2696 79.7886 42.8626 77.9327 42.0737 75.7779L41.9763 75.5089L28.5978 39.1939ZM26.7751 47.4174L21.4548 61.9289L32.2978 61.9128C32.6071 61.9118 32.9093 62.0082 33.164 62.189C33.4188 62.3698 33.6139 62.6265 33.7233 62.9247H21.0576L14.047 82.0058C13.9325 82.3299 13.7246 82.6101 13.4511 82.8088C13.1785 83.003 12.8555 83.108 12.5242 83.11L26.7751 44.1408C27.1625 45.1965 27.1625 46.3617 26.7751 47.4174Z" fill="url(#paint0_linear_5943_11798)"/>
<defs>
<linearGradient id="paint0_linear_5943_11798" x1="12.5242" y1="42.5065" x2="271.213" y2="42.5065" gradientUnits="userSpaceOnUse">
<stop stop-color="#FAC47E"/>
<stop offset="1" stop-color="#A67F56"/>
</linearGradient>
</defs>
</svg>
