<svg width="115" height="38" viewBox="0 0 115 38" fill="none" xmlns="http://www.w3.org/2000/svg">
<g clip-path="url(#clip0_810_4958)">
<path d="M40.3266 6.3743L39.9967 5.37388H37.7978L37.468 6.3743H36.2979L38.2219 0.816406H39.568L41.4999 6.3743H40.3266ZM38.1544 4.34964H39.6622L38.9083 2.07725L38.1544 4.34964Z" fill="white"/>
<path d="M43.5935 5.11191L44.5202 4.56406C44.7323 5.12779 45.1485 5.41363 45.7767 5.41363C46.405 5.41363 46.6563 5.1675 46.6563 4.82608C46.6591 4.73372 46.6364 4.64238 46.5906 4.56241C46.5448 4.48243 46.4778 4.417 46.3971 4.37351C46.105 4.21398 45.7935 4.09386 45.4704 4.01621C45.0637 3.91358 44.6781 3.73885 44.3317 3.50012C44.1595 3.36652 44.0222 3.19234 43.9319 2.99278C43.8415 2.79321 43.8009 2.57432 43.8134 2.3552C43.8037 2.12787 43.8462 1.90136 43.9375 1.69337C44.0287 1.48539 44.1664 1.30157 44.3396 1.15629C44.698 0.853622 45.1528 0.692796 45.6197 0.703713C46.0318 0.693914 46.4376 0.806871 46.7867 1.02852C47.1358 1.25016 47.4127 1.57072 47.583 1.95027L46.672 2.48383C46.4521 2.00744 46.0987 1.76765 45.6197 1.76765C45.172 1.76765 44.8972 1.99791 44.8972 2.32503C44.8958 2.40846 44.9144 2.49099 44.9513 2.56562C44.9882 2.64025 45.0424 2.7048 45.1092 2.75379C45.3699 2.90754 45.6499 3.02505 45.9416 3.10313L46.3186 3.23018C46.4389 3.26811 46.5569 3.31318 46.672 3.36515C46.7931 3.40391 46.9091 3.45722 47.0176 3.52395C47.2245 3.64692 47.4015 3.81511 47.5359 4.01621C47.6751 4.25675 47.7458 4.53156 47.7401 4.8102C47.7486 5.04396 47.7026 5.27647 47.6057 5.4889C47.5088 5.70133 47.3638 5.8877 47.1825 6.03293C46.7704 6.34881 46.2619 6.50892 45.7453 6.48551C44.6616 6.48551 43.8998 5.96148 43.5935 5.11191Z" fill="white"/>
<path d="M50.3787 0.814697H51.4625V6.37259H50.3787V0.814697Z" fill="white"/>
<path d="M57.9807 6.3743L57.6509 5.37388H55.4519L55.1221 6.3743H53.952L55.876 0.816406H57.2189L59.1508 6.3743H57.9807ZM55.8053 4.34964H57.3132L56.5593 2.07725L55.8053 4.34964Z" fill="white"/>
<path d="M40.3266 15.9021L39.9967 14.9017H37.7978L37.468 15.9021H36.2979L38.2219 10.3442H39.568L41.4999 15.9021H40.3266ZM38.1544 13.8775H39.6622L38.9083 11.6051L38.1544 13.8775Z" fill="white"/>
<path d="M47.0176 15.9021L45.9181 13.9728H45.0935V15.9021H44.0098V10.3443H46.2087C46.4497 10.3401 46.689 10.3858 46.9118 10.4786C47.1347 10.5715 47.3364 10.7095 47.5045 10.8842C47.6766 11.0533 47.8127 11.2561 47.9046 11.4803C47.9964 11.7045 48.042 11.9453 48.0385 12.1879C48.0328 12.5319 47.93 12.8672 47.7421 13.1542C47.5543 13.4411 47.2893 13.6678 46.9783 13.8076L48.1955 15.9037L47.0176 15.9021ZM45.0857 11.3669V13.012H46.2008C46.4078 13.0017 46.6023 12.9092 46.742 12.7545C46.8818 12.5998 46.9554 12.3956 46.9469 12.1863C46.9537 11.9781 46.8793 11.7755 46.7398 11.6222C46.6002 11.4689 46.4066 11.3772 46.2008 11.3669H45.0857Z" fill="white"/>
<path d="M51.2818 15.1796C51.0162 14.9101 50.8076 14.5888 50.6685 14.2353C50.5295 13.8818 50.463 13.5034 50.473 13.1231C50.4613 12.7415 50.5271 12.3614 50.6662 12.0064C50.8053 11.6513 51.0148 11.3289 51.2818 11.0588C51.5482 10.7845 51.8678 10.5688 52.2205 10.4254C52.5733 10.2819 52.9515 10.2137 53.3316 10.2251C53.8027 10.2195 54.2672 10.3372 54.68 10.5667C55.0929 10.7963 55.4399 11.1299 55.6875 11.5352L54.7451 12.083C54.6006 11.832 54.3912 11.6255 54.1394 11.4857C53.8876 11.3458 53.6029 11.2778 53.3159 11.289C53.0768 11.2784 52.8383 11.3181 52.6152 11.4056C52.3921 11.493 52.1895 11.6264 52.0201 11.7972C51.8571 11.974 51.7301 12.1815 51.6466 12.4079C51.563 12.6344 51.5245 12.8753 51.5332 13.1168C51.5251 13.3568 51.5639 13.5961 51.6474 13.8209C51.731 14.0457 51.8576 14.2516 52.0201 14.4269C52.1895 14.5977 52.3921 14.731 52.6152 14.8185C52.8383 14.906 53.0768 14.9456 53.3159 14.935C53.6021 14.9465 53.886 14.8795 54.1376 14.7411C54.3893 14.6028 54.5992 14.3981 54.7451 14.149L55.6875 14.6968C55.4407 15.1028 55.0938 15.4371 54.6808 15.6667C54.2678 15.8964 53.8029 16.0136 53.3316 16.0069C52.952 16.0191 52.574 15.9519 52.2213 15.8095C51.8686 15.6672 51.5488 15.4527 51.2818 15.1796Z" fill="white"/>
<path d="M61.4518 10.3425H62.5277V15.9004H61.4518V13.5979H59.41V15.9004H58.3262V10.3425H59.41V12.5562H61.4518V10.3425Z" fill="white"/>
<path d="M65.512 10.3425H66.5957V15.9004H65.512V10.3425Z" fill="white"/>
<path d="M73.216 10.3425V11.3922H71.7317V15.902H70.648V11.3922H69.1716V10.3425H73.216Z" fill="white"/>
<path d="M76.8678 14.8541H79.1845V15.9021H75.784V10.3442H79.1484V11.3939H76.8709V12.5769H78.952V13.6091H76.8709L76.8678 14.8541Z" fill="white"/>
<path d="M82.4279 15.1796C82.1623 14.9101 81.9536 14.5889 81.8146 14.2354C81.6755 13.8819 81.609 13.5035 81.619 13.1232C81.6073 12.7415 81.6731 12.3614 81.8122 12.0064C81.9513 11.6514 82.1608 11.3289 82.4279 11.0588C82.6933 10.7855 83.0116 10.5704 83.3629 10.427C83.7142 10.2836 84.091 10.2148 84.4697 10.2251C84.9408 10.2195 85.4054 10.3372 85.8182 10.5668C86.231 10.7963 86.5781 11.1299 86.8257 11.5352L85.8833 12.083C85.7387 11.832 85.5293 11.6256 85.2775 11.4857C85.0258 11.3458 84.7411 11.2778 84.454 11.2891C84.215 11.2784 83.9764 11.3181 83.7534 11.4056C83.5303 11.4931 83.3276 11.6264 83.1582 11.7972C82.9952 11.974 82.8683 12.1815 82.7847 12.408C82.7012 12.6344 82.6627 12.8753 82.6713 13.1168C82.6632 13.3568 82.702 13.5961 82.7856 13.8209C82.8692 14.0457 82.9958 14.2517 83.1582 14.4269C83.3276 14.5977 83.5303 14.731 83.7534 14.8185C83.9764 14.906 84.215 14.9457 84.454 14.935C84.7402 14.9465 85.0242 14.8795 85.2758 14.7412C85.5274 14.6028 85.7373 14.3982 85.8833 14.149L86.8257 14.6968C86.5789 15.1029 86.232 15.4371 85.819 15.6667C85.406 15.8964 84.941 16.0136 84.4697 16.0069C84.0914 16.018 83.715 15.9503 83.3637 15.808C83.0124 15.6656 82.6939 15.4517 82.4279 15.1796Z" fill="white"/>
<path d="M93.0847 10.3425V11.3922H91.6005V15.902H90.5167V11.3922H89.0435V10.3425H93.0847Z" fill="white"/>
<path d="M96.1946 15.4891C95.9994 15.3138 95.8453 15.0967 95.7434 14.8536C95.6416 14.6105 95.5945 14.3475 95.6056 14.0838V10.3425H96.6815V13.9949C96.6815 14.5745 96.9957 14.9397 97.7025 14.9397C98.4092 14.9397 98.7234 14.5745 98.7234 13.9949V10.3425H99.8071V14.0838C99.8183 14.3475 99.7712 14.6105 99.6693 14.8536C99.5674 15.0967 99.4133 15.3138 99.2181 15.4891C98.796 15.8503 98.2549 16.0374 97.7025 16.0132C97.1527 16.0354 96.6147 15.8484 96.1946 15.4891Z" fill="white"/>
<path d="M105.76 15.9021L104.66 13.9728H103.836V15.9021H102.752V10.3443H104.951C105.192 10.3401 105.431 10.3858 105.654 10.4786C105.877 10.5715 106.079 10.7095 106.247 10.8842C106.419 11.0533 106.555 11.2561 106.647 11.4803C106.739 11.7045 106.784 11.9453 106.781 12.1879C106.775 12.5319 106.672 12.8672 106.484 13.1542C106.297 13.4411 106.032 13.6678 105.721 13.8076L106.938 15.9037L105.76 15.9021ZM103.828 11.3669V13.012H104.943C105.15 13.0017 105.345 12.9092 105.484 12.7545C105.624 12.5998 105.698 12.3956 105.689 12.1863C105.696 11.9781 105.622 11.7755 105.482 11.6222C105.343 11.4689 105.149 11.3772 104.943 11.3669H103.828Z" fill="white"/>
<path d="M110.613 14.8541H112.93V15.9021H109.529V10.3442H112.891V11.3939H110.613V12.5769H112.694V13.6091H110.613V14.8541Z" fill="white"/>
<path d="M38.9758 19.8703C39.3281 19.8622 39.6781 19.9295 40.0029 20.0677C40.3277 20.2059 40.62 20.4119 40.8606 20.6722C41.1119 20.9338 41.3088 21.2437 41.4397 21.5835C41.5705 21.9234 41.6326 22.2863 41.6224 22.6508C41.6326 23.0151 41.5705 23.3778 41.4396 23.7174C41.3088 24.0569 41.1119 24.3665 40.8606 24.6278C40.62 24.8881 40.3277 25.0942 40.0029 25.2323C39.6781 25.3705 39.3281 25.4378 38.9758 25.4298H36.7926V19.8719L38.9758 19.8703ZM38.9758 24.3817C39.1919 24.39 39.4072 24.3519 39.6076 24.2697C39.808 24.1876 39.9888 24.0634 40.1381 23.9053C40.4439 23.5625 40.6046 23.1121 40.5857 22.6508C40.606 22.1912 40.445 21.7423 40.1381 21.4027C39.9895 21.2437 39.8088 21.1188 39.6082 21.0366C39.4077 20.9544 39.192 20.9168 38.9758 20.9263H37.8764V24.388L38.9758 24.3817Z" fill="white"/>
<path d="M45.439 24.3819H47.7558V25.43H44.3553V19.8721H47.7165V20.9217H45.439V22.1048H47.5202V23.1369H45.439V24.3819Z" fill="white"/>
<path d="M50.1981 24.1673L51.1248 23.6195C51.3368 24.1832 51.7609 24.469 52.3892 24.469C52.9939 24.469 53.2687 24.2229 53.2687 23.8815C53.2716 23.7891 53.2488 23.6978 53.203 23.6178C53.1572 23.5379 53.0902 23.4724 53.0096 23.4289C52.7175 23.2694 52.4059 23.1493 52.0829 23.0716C51.6758 22.9692 51.2901 22.7939 50.9442 22.554C50.7719 22.4208 50.6345 22.2469 50.5441 22.0476C50.4538 21.8482 50.4132 21.6295 50.4259 21.4106C50.4161 21.1833 50.4585 20.9567 50.5497 20.7487C50.641 20.5407 50.7787 20.3569 50.952 20.2117C51.3104 19.909 51.7653 19.7482 52.2321 19.7591C52.6442 19.7493 53.0501 19.8623 53.3992 20.0839C53.7483 20.3056 54.0252 20.6261 54.1954 21.0057L53.2844 21.5377C53.0646 21.0613 52.7112 20.8231 52.2321 20.8231C51.7845 20.8231 51.5096 21.0533 51.5096 21.3789C51.508 21.4623 51.5265 21.545 51.5634 21.6196C51.6003 21.6943 51.6546 21.7588 51.7217 21.8076C51.9817 21.9627 52.2619 22.0803 52.5541 22.157L52.931 22.2856C53.0516 22.3228 53.1697 22.3679 53.2844 22.4206C53.4061 22.4612 53.5222 22.5172 53.63 22.5873C53.8369 22.7103 54.014 22.8785 54.1483 23.0796C54.2875 23.3201 54.3582 23.5949 54.3525 23.8736C54.361 24.1073 54.315 24.3398 54.2181 24.5523C54.1213 24.7647 53.9763 24.9511 53.7949 25.0963C53.3828 25.4122 52.8744 25.5723 52.3578 25.5489C51.2662 25.5409 50.5044 25.0169 50.1981 24.1673Z" fill="white"/>
<path d="M56.9833 19.8704H58.0671V25.4283H56.9833V19.8704Z" fill="white"/>
<path d="M66.4465 22.4444V22.8732C66.4606 23.2301 66.4008 23.5861 66.271 23.9183C66.1411 24.2506 65.9441 24.5517 65.6926 24.8026C65.4328 25.0504 65.1268 25.2433 64.7923 25.3701C64.4579 25.4969 64.1019 25.555 63.745 25.541C63.3555 25.5532 62.9675 25.4856 62.6045 25.3424C62.2414 25.1991 61.9108 24.9831 61.6324 24.7073C61.3626 24.4415 61.1495 24.1226 61.0063 23.7702C60.8632 23.4179 60.7929 23.0396 60.8 22.6588C60.7915 22.2761 60.8603 21.8957 61.002 21.5408C61.1438 21.1858 61.3557 20.8638 61.6246 20.5944C61.8923 20.3193 62.2131 20.1026 62.567 19.9578C62.9209 19.813 63.3005 19.7433 63.6822 19.7528C64.1578 19.7422 64.628 19.8557 65.0476 20.0824C65.4672 20.3091 65.8218 20.6413 66.0774 21.047L65.1507 21.5885C64.8916 21.1343 64.3261 20.8168 63.6743 20.8168C63.434 20.8084 63.1947 20.8508 62.9715 20.9413C62.7484 21.0318 62.5464 21.1684 62.3785 21.3424C62.2107 21.5144 62.0795 21.7195 61.993 21.9448C61.9066 22.1701 61.8667 22.4109 61.8759 22.6524C61.8689 22.8932 61.9106 23.1328 61.9984 23.3567C62.0861 23.5806 62.2182 23.784 62.3864 23.9546C62.5689 24.1274 62.7839 24.2614 63.0186 24.3487C63.2534 24.436 63.503 24.4748 63.7528 24.4627C64.5931 24.4627 65.1664 24.0657 65.3549 23.4067H63.69V22.4381L66.4465 22.4444Z" fill="white"/>
<path d="M72.36 19.8704H73.4438V25.4283H72.6192L70.2632 22.03V25.4283H69.1794V19.8704H70.004L72.36 23.2623V19.8704Z" fill="white"/>
<path d="M40.3266 34.9578L39.9967 33.9574H37.7978L37.468 34.9578H36.2979L38.2219 29.3999H39.568L41.4999 34.9578H40.3266ZM38.1544 32.9331H39.6622L38.9083 30.6607L38.1544 32.9331Z" fill="white"/>
<path d="M44.594 34.9578L43.0548 29.3999H44.1935L45.2459 33.5286L46.3924 29.3999H47.3191L48.4735 33.5286L49.5259 29.3999H50.6646L49.1254 34.9578H47.8924L46.8558 31.288L45.827 34.9578H44.594Z" fill="white"/>
<path d="M56.2059 34.9578L55.876 33.9574H53.685L53.3551 34.9578H52.185L54.109 29.3999H55.4519L57.3839 34.9578H56.2059ZM54.0305 32.9331H55.5383L54.7844 30.6607L54.0305 32.9331Z" fill="white"/>
<path d="M62.8968 34.9576L61.7974 33.0282H60.9728V34.9576H59.889V29.3997H62.0879C62.329 29.3955 62.5682 29.4412 62.7911 29.5341C63.014 29.6269 63.2156 29.7649 63.3837 29.9396C63.5559 30.1087 63.692 30.3115 63.7838 30.5357C63.8757 30.7599 63.9212 31.0007 63.9178 31.2433C63.9121 31.5874 63.8093 31.9226 63.6214 32.2096C63.4336 32.4965 63.1686 32.7233 62.8576 32.863L64.0748 34.9592L62.8968 34.9576ZM60.9649 30.4223V32.0675H62.0801C62.287 32.0572 62.4816 31.9646 62.6213 31.8099C62.7611 31.6553 62.8347 31.451 62.8261 31.2417C62.833 31.0335 62.7586 30.8309 62.6191 30.6776C62.4795 30.5243 62.2859 30.4326 62.0801 30.4223H60.9649Z" fill="white"/>
<path d="M68.8496 29.3981C69.2019 29.39 69.5519 29.4573 69.8767 29.5955C70.2015 29.7337 70.4938 29.9397 70.7344 30.2C70.9857 30.4616 71.1826 30.7715 71.3135 31.1113C71.4443 31.4512 71.5064 31.8141 71.4961 32.1786C71.5064 32.5429 71.4442 32.9056 71.3134 33.2452C71.1825 33.5848 70.9857 33.8944 70.7344 34.1557C70.4938 34.416 70.2015 34.622 69.8767 34.7602C69.5519 34.8984 69.2019 34.9656 68.8496 34.9576H66.6664V29.3997L68.8496 29.3981ZM68.8496 33.9095C69.0657 33.9179 69.281 33.8797 69.4814 33.7976C69.6817 33.7154 69.8626 33.5912 70.0119 33.4331C70.3177 33.0903 70.4784 32.6399 70.4595 32.1786C70.4798 31.7191 70.3188 31.2701 70.0119 30.9305C69.8632 30.7715 69.6825 30.6467 69.482 30.5645C69.2815 30.4823 69.0658 30.4446 68.8496 30.4541H67.7502V33.9159L68.8496 33.9095Z" fill="white"/>
<path d="M73.75 33.6952L74.6767 33.1473C74.8888 33.711 75.305 33.9969 75.9332 33.9969C76.5615 33.9969 76.8128 33.7507 76.8128 33.4093C76.8157 33.317 76.7929 33.2256 76.7471 33.1457C76.7013 33.0657 76.6343 33.0003 76.5536 32.9568C76.2615 32.7972 75.95 32.6771 75.627 32.5995C75.2199 32.497 74.8342 32.3217 74.4882 32.0818C74.3159 31.9486 74.1786 31.7747 74.0882 31.5754C73.9978 31.3761 73.9572 31.1574 73.9699 30.9385C73.9601 30.7111 74.0025 30.4846 74.0938 30.2765C74.1851 30.0685 74.3228 29.8847 74.4961 29.7395C74.8545 29.4369 75.3093 29.276 75.7762 29.287C76.1883 29.2772 76.5941 29.3901 76.9432 29.6118C77.2923 29.8334 77.5692 30.154 77.7395 30.5335L76.8285 31.0655C76.6086 30.5891 76.2552 30.3509 75.7762 30.3509C75.3285 30.3509 75.0537 30.5812 75.0537 30.9067C75.0521 30.9902 75.0705 31.0728 75.1075 31.1475C75.1444 31.2221 75.1987 31.2867 75.2657 31.3354C75.5257 31.4906 75.8059 31.6081 76.0981 31.6848L76.4751 31.8134C76.5957 31.8506 76.7137 31.8957 76.8285 31.9484C76.9502 31.989 77.0663 32.045 77.1741 32.1151C77.381 32.2381 77.558 32.4063 77.6924 32.6074C77.8316 32.8479 77.9023 33.1228 77.8966 33.4014C77.9051 33.6352 77.8591 33.8677 77.7622 34.0801C77.6653 34.2925 77.5203 34.4789 77.339 34.6241C76.9269 34.94 76.4184 35.1001 75.9018 35.0767C74.8181 35.0688 74.0563 34.5447 73.75 33.6952Z" fill="white"/>
</g>
<path d="M18.4516 0.727295L16.8273 4.93861L27.7433 31.8782L27.7837 31.9918C28.1112 32.9013 28.6945 33.6846 29.4562 34.2376C30.2178 34.7906 31.1217 35.087 32.0477 35.0875L18.4516 0.727295Z" fill="white"/>
<path d="M16.1832 6.45776L14.6171 10.8149L22.819 31.8783L22.8594 31.9919C23.1867 32.9015 23.77 33.685 24.5317 34.238C25.2934 34.791 26.1974 35.0874 27.1234 35.0876L16.1832 6.45776Z" stroke="white" stroke-width="0.5" stroke-miterlimit="10"/>
<path d="M13.9696 12.3474L12.3551 16.5486L17.9011 31.8816L17.9414 31.9952C18.2685 32.905 18.8517 33.6885 19.6135 34.2416C20.3752 34.7946 21.2794 35.0909 22.2055 35.0909L13.9696 12.3474ZM9.39399 26.1478L11.5995 20.0207C11.7601 19.575 11.7601 19.083 11.5995 18.6373L5.69183 35.0909C5.82918 35.0901 5.96309 35.0458 6.07609 34.9638C6.18945 34.8799 6.27564 34.7615 6.32311 34.6247L9.2293 26.5683H14.4798C14.4345 26.4423 14.3536 26.334 14.248 26.2576C14.1424 26.1813 14.0171 26.1406 13.8889 26.141L9.39399 26.1478Z" fill="white"/>
<defs>
<clipPath id="clip0_810_4958">
<rect width="76.6242" height="34.3636" fill="white" transform="translate(36.3057 0.703613)"/>
</clipPath>
</defs>
</svg>
