<svg width="275" height="90" viewBox="0 0 275 90" fill="none" xmlns="http://www.w3.org/2000/svg">
<g clip-path="url(#clip0_2264_3873)">
<path d="M96.0729 15.097L95.2772 12.7276H89.9728L89.1772 15.097H86.3545L90.9958 1.93359H94.2429L98.9032 15.097H96.0729ZM90.8329 10.3018H94.4702L92.6516 4.91981L90.8329 10.3018Z" fill="white"/>
<path d="M103.954 12.1069L106.189 10.8094C106.701 12.1445 107.705 12.8215 109.22 12.8215C110.736 12.8215 111.342 12.2385 111.342 11.4299C111.349 11.2112 111.294 10.9949 111.183 10.8054C111.073 10.616 110.911 10.4611 110.717 10.358C110.012 9.98023 109.26 9.69573 108.481 9.51182C107.5 9.26875 106.57 8.85491 105.734 8.28951C105.319 7.97308 104.988 7.56056 104.77 7.08789C104.552 6.61523 104.454 6.09681 104.484 5.57786C104.461 5.03944 104.563 4.50296 104.783 4.01036C105.003 3.51776 105.335 3.0824 105.753 2.73832C106.618 2.02148 107.715 1.64058 108.841 1.66643C109.835 1.64322 110.814 1.91075 111.657 2.4357C112.499 2.96066 113.167 3.71986 113.577 4.61881L111.38 5.88249C110.849 4.7542 109.997 4.18629 108.841 4.18629C107.761 4.18629 107.098 4.73164 107.098 5.5064C107.095 5.704 107.14 5.89945 107.229 6.07621C107.318 6.25298 107.449 6.40585 107.61 6.52187C108.239 6.88603 108.914 7.16433 109.618 7.34926L110.527 7.65016C110.818 7.74001 111.102 7.84675 111.38 7.96983C111.672 8.06163 111.952 8.1879 112.213 8.34593C112.712 8.63719 113.14 9.03553 113.464 9.51182C113.799 10.0815 113.97 10.7324 113.956 11.3923C113.977 11.946 113.866 12.4967 113.632 12.9998C113.398 13.5029 113.049 13.9443 112.611 14.2883C111.617 15.0364 110.391 15.4156 109.144 15.3602C106.53 15.3602 104.692 14.119 103.954 12.1069Z" fill="white"/>
<path d="M120.322 1.92981H122.936V15.0932H120.322V1.92981Z" fill="white"/>
<path d="M138.66 15.097L137.864 12.7276H132.56L131.764 15.097H128.941L133.583 1.93359H136.822L141.483 15.097H138.66ZM133.412 10.3018H137.05L135.231 4.91981L133.412 10.3018Z" fill="white"/>
<path d="M96.0729 37.6628L95.2772 35.2934H89.9728L89.1772 37.6628H86.3545L90.9958 24.4994H94.2429L98.9032 37.6628H96.0729ZM90.8329 32.8676H94.4702L92.6516 27.4856L90.8329 32.8676Z" fill="white"/>
<path d="M112.214 37.6628L109.561 33.0932H107.572V37.6628H104.958V24.4994H110.262C110.844 24.4894 111.421 24.5978 111.959 24.8177C112.496 25.0376 112.983 25.3645 113.388 25.7781C113.803 26.1786 114.132 26.6591 114.353 27.19C114.575 27.721 114.685 28.2913 114.676 28.8659C114.663 29.6808 114.415 30.4748 113.962 31.1544C113.508 31.8341 112.869 32.3711 112.119 32.7021L115.055 37.6666L112.214 37.6628ZM107.553 26.9215V30.8178H110.243C110.743 30.7935 111.212 30.5742 111.549 30.2079C111.886 29.8416 112.064 29.3579 112.043 28.8621C112.06 28.369 111.88 27.8891 111.544 27.5261C111.207 27.163 110.74 26.9459 110.243 26.9215H107.553Z" fill="white"/>
<path d="M122.5 35.9516C121.86 35.3134 121.356 34.5525 121.021 33.7153C120.685 32.878 120.525 31.9819 120.549 31.0812C120.521 30.1772 120.68 29.277 121.015 28.4362C121.351 27.5953 121.856 26.8315 122.5 26.1919C123.143 25.5422 123.914 25.0315 124.765 24.6917C125.616 24.3519 126.528 24.1904 127.445 24.2174C128.581 24.2041 129.702 24.4828 130.698 25.0265C131.694 25.5702 132.531 26.3603 133.128 27.3202L130.855 28.6177C130.506 28.0232 130.001 27.5342 129.393 27.2029C128.786 26.8716 128.099 26.7107 127.407 26.7372C126.83 26.7121 126.255 26.8061 125.717 27.0132C125.179 27.2204 124.69 27.5362 124.281 27.9407C123.888 28.3594 123.582 28.851 123.38 29.3873C123.179 29.9236 123.086 30.4941 123.107 31.0661C123.087 31.6346 123.181 32.2013 123.382 32.7337C123.584 33.2662 123.889 33.7539 124.281 34.1689C124.69 34.5734 125.179 34.8893 125.717 35.0964C126.255 35.3036 126.83 35.3976 127.407 35.3724C128.097 35.3997 128.782 35.241 129.389 34.9132C129.996 34.5855 130.503 34.1009 130.855 33.5107L133.128 34.8083C132.533 35.7699 131.696 36.5615 130.7 37.1054C129.703 37.6493 128.582 37.927 127.445 37.9111C126.529 37.94 125.617 37.7809 124.766 37.4437C123.916 37.1065 123.144 36.5985 122.5 35.9516V35.9516Z" fill="white"/>
<path d="M147.033 24.4956H149.628V37.659H147.033V32.2056H142.107V37.659H139.493V24.4956H142.107V29.7384H147.033V24.4956Z" fill="white"/>
<path d="M156.827 24.4956H159.441V37.659H156.827V24.4956Z" fill="white"/>
<path d="M175.412 24.4956V26.9816H171.831V37.6628H169.217V26.9816H165.655V24.4956H175.412Z" fill="white"/>
<path d="M184.221 35.1806H189.809V37.6628H181.606V24.4994H189.722V26.9854H184.228V29.7873H189.249V32.232H184.228L184.221 35.1806Z" fill="white"/>
<path d="M197.633 35.9516C196.992 35.3133 196.489 34.5525 196.154 33.7153C195.818 32.878 195.658 31.9818 195.682 31.0811C195.654 30.1771 195.812 29.277 196.148 28.4361C196.484 27.5953 196.989 26.8315 197.633 26.1919C198.274 25.5446 199.041 25.0352 199.889 24.6955C200.736 24.3558 201.645 24.193 202.559 24.2173C203.695 24.204 204.816 24.4828 205.812 25.0265C206.807 25.5702 207.645 26.3603 208.242 27.3202L205.969 28.6177C205.62 28.0232 205.115 27.5341 204.507 27.2029C203.9 26.8716 203.213 26.7106 202.521 26.7372C201.944 26.712 201.369 26.806 200.831 27.0132C200.293 27.2204 199.804 27.5362 199.395 27.9407C199.002 28.3594 198.696 28.8509 198.494 29.3872C198.292 29.9235 198.2 30.4941 198.22 31.0661C198.201 31.6346 198.295 32.2013 198.496 32.7337C198.698 33.2662 199.003 33.7539 199.395 34.1689C199.804 34.5734 200.293 34.8892 200.831 35.0964C201.369 35.3036 201.944 35.3976 202.521 35.3724C203.211 35.3996 203.896 35.241 204.503 34.9132C205.11 34.5855 205.617 34.1009 205.969 33.5107L208.242 34.8083C207.647 35.7699 206.81 36.5614 205.814 37.1054C204.817 37.6493 203.696 37.9269 202.559 37.9111C201.646 37.9374 200.738 37.777 199.891 37.4399C199.043 37.1028 198.275 36.5962 197.633 35.9516V35.9516Z" fill="white"/>
<path d="M223.34 24.4956V26.9816H219.76V37.6628H217.146V26.9816H213.592V24.4956H223.34Z" fill="white"/>
<path d="M230.843 36.6849C230.372 36.2696 230 35.7554 229.754 35.1797C229.508 34.604 229.395 33.9812 229.422 33.3565V24.4956H232.017V33.1459C232.017 34.5186 232.775 35.3836 234.48 35.3836C236.185 35.3836 236.943 34.5186 236.943 33.1459V24.4956H239.557V33.3565C239.584 33.9812 239.47 34.604 239.225 35.1797C238.979 35.7554 238.607 36.2696 238.136 36.6849C237.118 37.5403 235.813 37.9834 234.48 37.9261C233.154 37.9786 231.856 37.5358 230.843 36.6849V36.6849Z" fill="white"/>
<path d="M253.917 37.6628L251.265 33.0932H249.275V37.6628H246.661V24.4994H251.966C252.547 24.4894 253.124 24.5978 253.662 24.8177C254.199 25.0376 254.686 25.3645 255.091 25.7781C255.507 26.1786 255.835 26.6591 256.056 27.19C256.278 27.721 256.388 28.2913 256.38 28.8659C256.366 29.6808 256.118 30.4748 255.665 31.1544C255.212 31.8341 254.572 32.3711 253.822 32.7021L256.758 37.6666L253.917 37.6628ZM249.256 26.9215V30.8178H251.947C252.446 30.7935 252.915 30.5742 253.252 30.2079C253.589 29.8416 253.767 29.3579 253.746 28.8621C253.763 28.369 253.583 27.8891 253.247 27.5261C252.91 27.163 252.443 26.9459 251.947 26.9215H249.256Z" fill="white"/>
<path d="M265.624 35.1806H271.213V37.6628H263.01V24.4994H271.118V26.9854H265.624V29.7873H270.644V32.232H265.624V35.1806Z" fill="white"/>
<path d="M92.8144 47.0615C93.6642 47.0424 94.5085 47.2017 95.2921 47.529C96.0756 47.8563 96.7806 48.3442 97.361 48.9608C97.9673 49.5803 98.4423 50.3142 98.7579 51.1191C99.0735 51.924 99.2234 52.7836 99.1986 53.6469C99.2233 54.5097 99.0734 55.3687 98.7578 56.173C98.4421 56.9773 97.9672 57.7105 97.361 58.3294C96.7806 58.9459 96.0756 59.4338 95.2921 59.7611C94.5085 60.0884 93.6642 60.2477 92.8144 60.2287H87.5479V47.0652L92.8144 47.0615ZM92.8144 57.7464C93.3355 57.7661 93.855 57.6758 94.3384 57.4812C94.8217 57.2867 95.2579 56.9925 95.6181 56.6181C96.3558 55.8061 96.7435 54.7394 96.6979 53.6469C96.7469 52.5585 96.3585 51.4952 95.6181 50.6908C95.2596 50.3142 94.8236 50.0186 94.3399 49.8239C93.8561 49.6292 93.3359 49.5401 92.8144 49.5625H90.1622V57.7615L92.8144 57.7464Z" fill="white"/>
<path d="M108.406 57.7465H113.994V60.2287H105.792V47.0653H113.9V49.5513H108.406V52.3532H113.426V54.7979H108.406V57.7465Z" fill="white"/>
<path d="M119.886 57.2387L122.121 55.9412C122.633 57.2764 123.656 57.9533 125.171 57.9533C126.63 57.9533 127.293 57.3704 127.293 56.5618C127.3 56.343 127.245 56.1267 127.134 55.9373C127.024 55.7479 126.862 55.5929 126.668 55.4899C125.963 55.1121 125.212 54.8276 124.432 54.6437C123.45 54.401 122.52 53.9858 121.685 53.4176C121.27 53.1022 120.938 52.6904 120.72 52.2183C120.502 51.7461 120.404 51.2281 120.435 50.7097C120.411 50.1712 120.514 49.6347 120.734 49.142C120.954 48.6494 121.286 48.214 121.704 47.8701C122.569 47.1533 123.666 46.7724 124.792 46.7983C125.786 46.7751 126.765 47.0426 127.608 47.5675C128.45 48.0925 129.118 48.8517 129.528 49.7506L127.331 51.0106C126.8 49.8823 125.948 49.3181 124.792 49.3181C123.712 49.3181 123.049 49.8635 123.049 50.6345C123.046 50.8322 123.09 51.0279 123.179 51.2047C123.268 51.3816 123.399 51.5344 123.561 51.6499C124.188 52.0173 124.864 52.2958 125.569 52.4773L126.478 52.782C126.769 52.8701 127.054 52.9769 127.331 53.1017C127.624 53.1978 127.904 53.3305 128.164 53.4966C128.663 53.7878 129.091 54.1862 129.415 54.6625C129.751 55.2322 129.921 55.883 129.907 56.543C129.928 57.0966 129.817 57.6473 129.583 58.1504C129.349 58.6535 129 59.095 128.562 59.4389C127.568 60.187 126.342 60.5663 125.095 60.5108C122.462 60.492 120.625 59.2509 119.886 57.2387Z" fill="white"/>
<path d="M136.254 47.0615H138.868V60.2249H136.254V47.0615Z" fill="white"/>
<path d="M159.082 53.158V54.1735C159.116 55.0189 158.971 55.862 158.658 56.6488C158.345 57.4357 157.87 58.149 157.263 58.7431C156.636 59.33 155.898 59.787 155.091 60.0873C154.285 60.3876 153.426 60.5251 152.565 60.4919C151.625 60.5209 150.689 60.3609 149.814 60.0216C148.938 59.6822 148.14 59.1706 147.469 58.5174C146.818 57.8879 146.304 57.1326 145.958 56.2981C145.613 55.4636 145.444 54.5677 145.461 53.6658C145.44 52.7594 145.606 51.8584 145.948 51.0178C146.29 50.1772 146.801 49.4145 147.45 48.7765C148.096 48.1248 148.869 47.6116 149.723 47.2687C150.577 46.9258 151.493 46.7606 152.413 46.7832C153.56 46.7581 154.695 47.0269 155.707 47.5638C156.719 48.1008 157.575 48.8876 158.191 49.8484L155.956 51.1309C155.331 50.0552 153.967 49.303 152.394 49.303C151.815 49.2832 151.237 49.3837 150.699 49.5981C150.161 49.8124 149.674 50.1359 149.268 50.5479C148.864 50.9554 148.547 51.441 148.339 51.9747C148.13 52.5083 148.034 53.0787 148.056 53.6507C148.039 54.2209 148.14 54.7884 148.351 55.3187C148.563 55.849 148.882 56.3308 149.287 56.7347C149.728 57.144 150.246 57.4614 150.813 57.6682C151.379 57.8749 151.981 57.9667 152.584 57.9382C154.611 57.9382 155.994 56.998 156.448 55.4372H152.432V53.143L159.082 53.158Z" fill="white"/>
<path d="M173.347 47.0615H175.961V60.2249H173.972L168.289 52.1765V60.2249H165.674V47.0615H167.663L173.347 55.095V47.0615Z" fill="white"/>
<path d="M96.0729 82.7945L95.2772 80.4251H89.9728L89.1772 82.7945H86.3545L90.9958 69.6311H94.2429L98.9032 82.7945H96.0729ZM90.8329 77.9993H94.4702L92.6516 72.6173L90.8329 77.9993Z" fill="white"/>
<path d="M106.367 82.7945L102.654 69.6311H105.401L107.94 79.4096L110.706 69.6311H112.941L115.726 79.4096L118.264 69.6311H121.011L117.298 82.7945H114.324L111.823 74.1029L109.342 82.7945H106.367Z" fill="white"/>
<path d="M134.378 82.7945L133.583 80.4251H128.297L127.501 82.7945H124.679L129.32 69.6311H132.56L137.22 82.7945H134.378ZM129.131 77.9993H132.768L130.949 72.6173L129.131 77.9993Z" fill="white"/>
<path d="M150.519 82.7945L147.867 78.225H145.878V82.7945H143.263V69.6311H148.568C149.149 69.6212 149.726 69.7295 150.264 69.9494C150.801 70.1693 151.288 70.4962 151.693 70.9099C152.109 71.3103 152.437 71.7908 152.659 72.3217C152.88 72.8527 152.99 73.423 152.982 73.9976C152.968 74.8125 152.72 75.6065 152.267 76.2862C151.814 76.9658 151.174 77.5028 150.424 77.8338L153.36 82.7983L150.519 82.7945ZM145.859 72.0532V75.9496H148.549C149.048 75.9252 149.517 75.7059 149.854 75.3396C150.191 74.9733 150.369 74.4896 150.348 73.9939C150.365 73.5007 150.185 73.0208 149.849 72.6578C149.512 72.2947 149.045 72.0776 148.549 72.0532H145.859Z" fill="white"/>
<path d="M164.878 69.6274C165.728 69.6083 166.573 69.7676 167.356 70.0949C168.14 70.4222 168.845 70.9101 169.425 71.5267C170.031 72.1462 170.506 72.8801 170.822 73.685C171.137 74.4899 171.287 75.3495 171.263 76.2129C171.287 77.0757 171.137 77.9346 170.822 78.7389C170.506 79.5432 170.031 80.2764 169.425 80.8953C168.845 81.5118 168.14 81.9997 167.356 82.327C166.573 82.6543 165.728 82.8137 164.878 82.7946H159.612V69.6312L164.878 69.6274ZM164.878 80.3123C165.4 80.3321 165.919 80.2417 166.402 80.0472C166.886 79.8527 167.322 79.5585 167.682 79.184C168.42 78.372 168.807 77.3054 168.762 76.2129C168.811 75.1244 168.422 74.0611 167.682 73.2567C167.323 72.8802 166.888 72.5845 166.404 72.3898C165.92 72.1952 165.4 72.106 164.878 72.1284H162.226V80.3274L164.878 80.3123Z" fill="white"/>
<path d="M176.7 79.8045L178.935 78.507C179.447 79.8422 180.451 80.5191 181.966 80.5191C183.482 80.5191 184.088 79.9362 184.088 79.1276C184.095 78.9088 184.04 78.6925 183.929 78.5031C183.819 78.3137 183.657 78.1587 183.463 78.0557C182.758 77.6779 182.007 77.3934 181.227 77.2095C180.245 76.9668 179.315 76.5516 178.48 75.9834C178.065 75.668 177.733 75.2562 177.515 74.7841C177.297 74.3119 177.199 73.7939 177.23 73.2755C177.206 72.737 177.309 72.2005 177.529 71.7078C177.749 71.2152 178.081 70.7798 178.499 70.4359C179.364 69.7191 180.461 69.3382 181.587 69.3641C182.581 69.3409 183.561 69.6084 184.403 70.1333C185.245 70.6583 185.913 71.4175 186.323 72.3164L184.126 73.5764C183.595 72.4481 182.743 71.8839 181.587 71.8839C180.508 71.8839 179.844 72.4293 179.844 73.2003C179.841 73.398 179.885 73.5937 179.974 73.7705C180.063 73.9474 180.194 74.1002 180.356 74.2157C180.983 74.5831 181.659 74.8616 182.364 75.0431L183.273 75.3478C183.564 75.4359 183.849 75.5427 184.126 75.6675C184.419 75.7636 184.7 75.8963 184.959 76.0624C185.459 76.3536 185.886 76.752 186.21 77.2283C186.546 77.798 186.716 78.4488 186.702 79.1088C186.723 79.6624 186.612 80.2131 186.378 80.7162C186.145 81.2193 185.795 81.6608 185.357 82.0047C184.363 82.7528 183.137 83.1321 181.89 83.0766C179.276 83.0578 177.439 81.8167 176.7 79.8045Z" fill="white"/>
</g>
<path d="M43.3044 1.72253L39.3862 11.6967L65.7186 75.501L65.816 75.77C66.6059 77.9241 68.0131 79.7794 69.8505 81.0891C71.6878 82.3988 73.8683 83.1009 76.1021 83.1021L43.3044 1.72253Z" fill="white"/>
<path d="M37.8324 15.2944L34.0544 25.6139L53.8398 75.5009L53.9371 75.7699C54.7266 77.9244 56.1337 79.7799 57.9711 81.0897C59.8086 82.3995 61.9893 83.1014 64.2232 83.102L37.8324 15.2944Z" stroke="white" stroke-width="0.5" stroke-miterlimit="10"/>
<path d="M32.4926 29.2439L28.5978 39.194L41.9763 75.509L42.0737 75.778C42.8626 77.9328 44.2696 79.7887 46.1071 81.0985C47.9447 82.4084 50.1257 83.11 52.3597 83.1101L32.4926 29.2439ZM21.4548 61.929L26.7751 47.4175C27.1625 46.3618 27.1625 45.1966 26.7751 44.1409V44.1409L12.5242 83.1101C12.8555 83.1081 13.1785 83.0031 13.4511 82.8089C13.7246 82.6102 13.9325 82.33 14.047 82.0059L21.0576 62.9248H33.7233C33.6139 62.6266 33.4188 62.3699 33.164 62.1891C32.9093 62.0083 32.6071 61.9119 32.2978 61.913L21.4548 61.929Z" fill="white"/>
<defs>
<clipPath id="clip0_2264_3873">
<rect width="184.839" height="81.3876" fill="white" transform="translate(86.3735 1.6665)"/>
</clipPath>
</defs>
</svg>
