<svg width="29" height="36" viewBox="0 0 29 36" fill="none" xmlns="http://www.w3.org/2000/svg">
<path d="M14.0891 0.5L12.415 4.7893L23.6655 32.2278L23.7071 32.3435C24.0446 33.2698 24.6458 34.0676 25.4308 34.6309C26.2159 35.1941 27.1475 35.496 28.1018 35.4965L14.0891 0.5Z" fill="white"/>
<path d="M11.7511 6.33643L10.137 10.7742L18.5902 32.2277L18.6318 32.3434C18.9691 33.2699 19.5703 34.0679 20.3553 34.6311C21.1404 35.1944 22.0721 35.4962 23.0265 35.4965L11.7511 6.33643Z" stroke="white" stroke-width="0.5" stroke-miterlimit="10"/>
<path d="M9.4697 12.3354L7.80567 16.6144L13.5216 32.2314L13.5632 32.347C13.9003 33.2737 14.5014 34.0718 15.2865 34.6351C16.0716 35.1984 17.0034 35.5001 17.9579 35.5001L9.4697 12.3354ZM4.75385 26.3914L7.0269 20.1508C7.19242 19.6969 7.19242 19.1958 7.0269 18.7418L0.938232 35.5001C1.07979 35.4993 1.21781 35.4541 1.33427 35.3706C1.4511 35.2852 1.53994 35.1646 1.58886 35.0253L4.58411 26.8196H9.99553C9.94878 26.6914 9.86542 26.581 9.75658 26.5033C9.64775 26.4255 9.51863 26.3841 9.38649 26.3845L4.75385 26.3914Z" fill="white"/>
</svg>
