<svg width="994" height="173" viewBox="0 0 994 173" fill="none" xmlns="http://www.w3.org/2000/svg">
<path fill-rule="evenodd" clip-rule="evenodd" d="M78.219 123.538V103.928H78.1853H76.266V113.565H8.82033C38.1489 89.7237 71.0131 61.7186 76.266 39.8248C82.428 14.6068 68.3867 0.436279 41.8529 0.436279C32.896 0.436279 18.3159 5.33886 7.43976 9.20049V36.8699H9.19073C16.2282 11.2824 25.3534 3.05547 43.4355 3.05547C59.9686 3.05547 67.3428 16.5544 64.346 35.6274C60.9437 56.8614 49.5678 68.9057 19.3232 100.927L19.3227 100.928L19.3209 100.93L19.3206 100.93L19.3195 100.931L19.3185 100.932C13.6449 106.939 7.30731 113.649 0.233887 121.255V123.538H78.219ZM143.341 124.747C170.919 124.747 191.122 101.812 191.122 62.5916H191.156C191.156 23.2031 170.784 0.436279 143.375 0.436279C115.966 0.436279 95.7623 23.371 95.7623 62.5916C95.7623 101.812 115.764 124.747 143.341 124.747ZM143.341 3.05547C160.75 3.05547 178.125 19.6772 178.125 62.5916C178.125 105.305 160.548 122.128 143.341 122.128C126.135 122.128 108.76 105.506 108.76 62.5916C108.76 19.6772 125.933 3.05547 143.341 3.05547ZM281.398 103.928V123.538H203.413V121.255C210.488 113.647 216.827 106.936 222.502 100.927C252.746 68.9057 264.122 56.8614 267.525 35.6274C270.521 16.5544 263.147 3.05547 246.614 3.05547C228.532 3.05547 219.407 11.2824 212.369 36.8699H210.618V9.20049C221.495 5.33886 236.075 0.436279 245.032 0.436279C271.565 0.436279 285.607 14.6068 279.445 39.8248C274.192 61.7186 241.328 89.7237 211.999 113.565H279.445V103.928H281.364H281.398ZM368.71 121.288V92.0409H368.744H384.536V89.7575H368.744V28.3073H367.161L356.992 70.8523V89.7575H297.796C317.797 79.9523 345.745 57.1855 341.873 0.973688H327.125V3.25708C336.25 37.2058 322.04 73.1357 295.506 89.7575V92.0409H356.958V121.288H345.712V123.572H380.125V121.288H368.71ZM87.5463 168.904H94.8532V172.161H84.1118V154.868H94.7185V158.125H87.5463V161.818H94.1124V165.042H87.5463V168.904ZM117.313 172.161V154.868V154.834H113.777L108.827 163.027L103.844 154.834H100.308V172.127H103.743V160.945L108.625 168.971H109.029L113.912 160.945V172.161H117.313ZM127.078 168.904H134.384V172.161H123.643V154.868H134.25V158.125H127.078V161.818H133.644V165.042H127.078V168.904ZM145.901 166.15L149.403 172.161H153.073L149.234 165.647C151.221 164.74 152.568 162.759 152.568 160.61C152.568 159.031 151.995 157.655 150.884 156.547C149.773 155.438 148.426 154.868 146.81 154.868H139.873V172.161H143.308V166.15H145.901ZM143.308 163.162V158.058V158.024H146.843C148.123 158.024 149.201 159.166 149.201 160.576C149.201 161.986 148.123 163.162 146.843 163.162H143.308ZM175.263 164.203C175.263 166.687 174.455 168.669 172.872 170.213C171.289 171.758 169.235 172.497 166.71 172.497C164.05 172.497 161.794 171.624 160.043 169.911C158.292 168.165 157.416 166.016 157.416 163.531C157.416 161.046 158.292 158.897 160.009 157.117C161.76 155.371 163.915 154.498 166.508 154.498C169.741 154.498 172.569 156.076 174.051 158.528L171.121 160.207C170.313 158.796 168.528 157.823 166.474 157.823C164.824 157.823 163.444 158.36 162.4 159.468C161.322 160.542 160.817 161.886 160.817 163.531C160.817 165.176 161.356 166.52 162.434 167.594C163.511 168.669 164.959 169.172 166.744 169.172C169.404 169.172 171.188 167.93 171.795 165.882H166.542V162.859H175.229H175.263V164.203ZM184.219 154.868H180.785V172.161H184.219V154.868ZM200.551 154.868H203.985V172.161H201.392L193.951 161.583V172.161H190.516V154.868H193.109L200.551 165.411V154.868ZM224.963 170.213C226.546 168.669 227.354 166.687 227.354 164.203V162.859H227.32H218.633V165.882H223.885C223.279 167.93 221.495 169.172 218.835 169.172C217.05 169.172 215.602 168.669 214.525 167.594C213.447 166.52 212.908 165.176 212.908 163.531C212.908 161.886 213.413 160.542 214.491 159.468C215.535 158.36 216.915 157.823 218.565 157.823C220.619 157.823 222.404 158.796 223.212 160.207L226.142 158.528C224.66 156.076 221.831 154.498 218.599 154.498C216.006 154.498 213.851 155.371 212.1 157.117C210.383 158.897 209.507 161.046 209.507 163.531C209.507 166.016 210.383 168.165 212.134 169.911C213.885 171.624 216.141 172.497 218.801 172.497C221.326 172.497 223.38 171.758 224.963 170.213ZM253.315 172.161L252.271 169.038H245.368L244.325 172.161H240.621L246.682 154.868H250.924L257.019 172.161H253.315ZM246.446 165.848H251.194L248.803 158.796L246.412 165.848H246.446ZM263.484 166.52L260.555 168.232L260.487 168.299C261.43 170.919 263.855 172.564 267.289 172.564C269.175 172.564 270.69 172.094 271.835 171.154C272.98 170.213 273.586 168.971 273.586 167.359C273.586 166.385 273.317 165.512 272.946 164.908C272.609 164.303 271.801 163.665 271.296 163.363C271.06 163.195 270.69 163.027 270.219 162.859L270.123 162.818L270.017 162.773C269.64 162.611 269.337 162.48 269.107 162.423L267.929 162.02C266.649 161.651 265.774 161.281 265.303 160.945C264.865 160.576 264.629 160.14 264.629 159.602C264.629 158.561 265.505 157.856 266.919 157.856C268.434 157.856 269.545 158.595 270.252 160.072L273.115 158.427C271.936 155.976 269.714 154.532 266.919 154.532C265.37 154.532 263.989 155.002 262.878 155.942C261.767 156.849 261.228 158.091 261.228 159.669C261.228 161.248 261.801 162.457 262.878 163.229C263.989 164.001 264.932 164.371 266.481 164.841C267.895 165.244 268.872 165.613 269.411 165.949C269.949 166.285 270.219 166.755 270.219 167.359C270.219 168.4 269.411 169.172 267.458 169.172C265.505 169.172 264.158 168.266 263.484 166.52ZM278.872 154.868H282.307V172.161H278.872V154.868ZM298.739 169.038L299.783 172.161H303.487L297.392 154.868H293.15L287.089 172.161H290.793L291.836 169.038H298.739ZM297.662 165.848H292.914H292.88L295.271 158.796L297.662 165.848Z" fill="#A67F56"/>
<path fill-rule="evenodd" clip-rule="evenodd" d="M670.19 23.5822L674.419 21.1016C675.386 23.6541 677.286 24.9484 680.153 24.9484C683.02 24.9484 684.167 23.8339 684.167 22.288C684.18 21.8698 684.076 21.4562 683.867 21.0941C683.658 20.732 683.352 20.4357 682.984 20.2388C681.651 19.5165 680.229 18.9726 678.755 18.621C676.899 18.1563 675.139 17.3651 673.559 16.2842C672.773 15.6793 672.146 14.8906 671.734 13.987C671.322 13.0833 671.136 12.0922 671.193 11.1001C671.149 10.0708 671.343 9.04513 671.759 8.10338C672.176 7.16164 672.804 6.32932 673.594 5.67152C675.23 4.30107 677.306 3.57286 679.436 3.62229C681.317 3.57792 683.169 4.08938 684.762 5.09298C686.355 6.09657 687.619 7.54801 688.395 9.26661L684.238 11.6825C683.235 9.52544 681.622 8.43972 679.436 8.43972C677.393 8.43972 676.139 9.4823 676.139 10.9635C676.133 11.3413 676.218 11.7149 676.386 12.0528C676.555 12.3908 676.802 12.683 677.107 12.9048C678.296 13.601 679.574 14.1331 680.905 14.4866L682.626 15.0619C683.175 15.2337 683.713 15.4377 684.238 15.673C684.791 15.8485 685.32 16.0899 685.815 16.3921C686.759 16.9489 687.567 17.7104 688.18 18.621C688.816 19.7101 689.138 20.9544 689.112 22.2161C689.151 23.2745 688.941 24.3273 688.499 25.2892C688.057 26.2511 687.395 27.0949 686.568 27.7525C684.687 29.1828 682.367 29.9078 680.009 29.8017C675.064 29.8017 671.588 27.429 670.19 23.5822ZM655.281 29.2985L653.776 24.7687H643.742L642.236 29.2985H636.897L645.677 4.13282H651.819L660.636 29.2985H655.281ZM645.369 20.131H652.25L648.809 9.84183L645.369 20.131ZM706.099 4.12563H701.154V29.2913H706.099V4.12563ZM735.845 29.2985L734.339 24.7687H724.305L722.8 29.2985H717.46L726.24 4.13282H732.368L741.184 29.2985H735.845ZM725.918 20.131H732.798L729.358 9.84183L725.918 20.131ZM653.776 67.9097L655.281 72.4395H660.636L651.819 47.2739H645.677L636.897 72.4395H642.236L643.742 67.9097H653.776ZM652.25 63.272H645.369L648.809 52.9829L652.25 63.272ZM685.815 72.4395L680.798 63.7035H677.035V72.4395H672.089V47.2739H682.124C683.224 47.2548 684.316 47.4619 685.333 47.8824C686.35 48.3028 687.27 48.9277 688.037 49.7186C688.823 50.4842 689.444 51.4027 689.863 52.4178C690.282 53.4329 690.49 54.5231 690.474 55.6217C690.448 57.1796 689.979 58.6975 689.122 59.9969C688.265 61.2962 687.055 62.3228 685.636 62.9557L691.191 72.4467L685.815 72.4395ZM676.999 51.9044V59.3534H682.088C683.032 59.3068 683.92 58.8876 684.558 58.1873C685.196 57.487 685.532 56.5622 685.493 55.6145C685.524 54.6717 685.184 53.7543 684.547 53.0602C683.911 52.3661 683.027 51.951 682.088 51.9044H676.999ZM702.476 64.8926C703.111 66.4932 704.063 67.9478 705.275 69.168C706.493 70.4048 707.952 71.3759 709.562 72.0205C711.172 72.6651 712.896 72.9693 714.629 72.9141C716.779 72.9445 718.901 72.4137 720.786 71.3738C722.671 70.3339 724.254 68.8206 725.38 66.9822L721.079 64.5016C720.413 65.6298 719.455 66.5563 718.307 67.1828C717.159 67.8094 715.863 68.1128 714.557 68.0607C713.466 68.1088 712.377 67.9291 711.36 67.5331C710.342 67.137 709.417 66.5332 708.644 65.7598C707.902 64.9664 707.325 64.034 706.943 63.0161C706.562 61.9982 706.385 60.9147 706.422 59.8279C706.382 58.7344 706.558 57.6437 706.939 56.6184C707.321 55.5931 707.9 54.6533 708.644 53.8529C709.417 53.0796 710.342 52.4758 711.36 52.0797C712.377 51.6836 713.466 51.5039 714.557 51.552C715.867 51.5013 717.166 51.809 718.315 52.4423C719.464 53.0756 720.42 54.0106 721.079 55.1471L725.38 52.6665C724.25 50.8315 722.666 49.3209 720.782 48.2815C718.898 47.2421 716.779 46.7092 714.629 46.7346C712.894 46.6831 711.168 46.9919 709.559 47.6415C707.949 48.2911 706.49 49.2675 705.275 50.5095C704.056 51.7324 703.1 53.1925 702.466 54.8C701.831 56.4076 701.531 58.1285 701.584 59.8567C701.538 61.5787 701.842 63.292 702.476 64.8926ZM751.685 47.2667H756.595V72.4323H751.685V62.0066H742.367V72.4323H737.422V47.2667H742.367V57.2898H751.685V47.2667ZM775.159 47.2667H770.213V72.4323H775.159V47.2667ZM805.37 47.2667V52.0194H798.597V72.4395H793.651V52.0194H786.913V47.2667H805.37ZM832.607 67.694H822.034L822.049 62.0569H831.546V57.3833H822.049V52.0266H832.442V47.2739H817.089V72.4395H832.607V67.694ZM847.407 69.168C846.195 67.9478 845.243 66.4932 844.609 64.8926C843.974 63.292 843.67 61.5787 843.716 59.8567C843.663 58.1285 843.963 56.4076 844.598 54.8C845.233 53.1925 846.189 51.7324 847.407 50.5095C848.619 49.272 850.071 48.2982 851.675 47.6487C853.278 46.9993 854.997 46.6881 856.725 46.7346C858.875 46.7092 860.995 47.2421 862.879 48.2815C864.763 49.3209 866.347 50.8315 867.477 52.6665L863.176 55.1471C862.516 54.0106 861.561 53.0756 860.412 52.4423C859.263 51.809 857.964 51.5013 856.654 51.552C855.563 51.5039 854.474 51.6836 853.456 52.0797C852.438 52.4758 851.513 53.0796 850.74 53.8529C849.996 54.6533 849.417 55.5931 849.036 56.6184C848.655 57.6437 848.479 58.7343 848.518 59.8279C848.481 60.9147 848.659 61.9982 849.04 63.0161C849.421 64.034 849.999 64.9664 850.74 65.7598C851.513 66.5332 852.438 67.137 853.456 67.5331C854.474 67.9291 855.563 68.1088 856.654 68.0607C857.96 68.1127 859.256 67.8094 860.404 67.1828C861.552 66.5563 862.51 65.6298 863.176 64.5016L867.477 66.9822C866.35 68.8206 864.767 70.3339 862.883 71.3738C860.998 72.4137 858.876 72.9444 856.725 72.9141C854.999 72.9643 853.281 72.6577 851.678 72.0132C850.075 71.3688 848.621 70.4003 847.407 69.168ZM896.039 52.0194V47.2667H877.597V52.0194H884.32V72.4395H889.266V52.0194H896.039ZM910.231 70.5701C909.34 69.776 908.637 68.793 908.172 67.6924C907.707 66.5917 907.492 65.401 907.543 64.2068V47.2667H912.453V63.8041C912.453 66.4285 913.886 68.0823 917.112 68.0823C920.337 68.0823 921.771 66.4285 921.771 63.8041V47.2667H926.716V64.2068C926.767 65.401 926.552 66.5917 926.087 67.6924C925.623 68.793 924.919 69.776 924.029 70.5701C922.102 72.2052 919.633 73.0524 917.112 72.9428C914.603 73.0433 912.148 72.1967 910.231 70.5701ZM948.864 63.7035L953.881 72.4395L959.257 72.4467L953.702 62.9557C955.121 62.3228 956.331 61.2962 957.188 59.9969C958.045 58.6975 958.514 57.1796 958.54 55.6217C958.556 54.5231 958.348 53.4329 957.929 52.4178C957.51 51.4027 956.889 50.4842 956.103 49.7186C955.336 48.9277 954.416 48.3028 953.399 47.8824C952.382 47.4619 951.29 47.2548 950.19 47.2739H940.156V72.4395H945.101V63.7035H948.864ZM945.065 59.3534V51.9044H950.154C951.093 51.951 951.977 52.3661 952.614 53.0602C953.251 53.7543 953.59 54.6717 953.559 55.6145C953.598 56.5622 953.262 57.487 952.624 58.1873C951.986 58.8876 951.099 59.3068 950.154 59.3534H945.065ZM976.029 67.694H986.601V72.4395H971.084V47.2739H986.422V52.0266H976.029V57.3833H985.526V62.0569H976.029V67.694ZM653.804 91.3016C652.322 90.6759 650.725 90.3713 649.117 90.4078L639.154 90.415V115.581H649.117C650.725 115.617 652.322 115.312 653.804 114.687C655.287 114.061 656.62 113.128 657.718 111.95C658.865 110.766 659.764 109.365 660.361 107.827C660.958 106.289 661.241 104.647 661.195 102.998C661.241 101.347 660.958 99.7039 660.361 98.1651C659.764 96.6263 658.865 95.2232 657.718 94.0388C656.62 92.8601 655.287 91.9273 653.804 91.3016ZM652 110.328C651.086 110.7 650.103 110.873 649.117 110.835L644.1 110.864V95.1892H649.117C650.104 95.1464 651.088 95.3168 652.003 95.689C652.918 96.0611 653.743 96.6264 654.421 97.3463C655.822 98.8841 656.557 100.917 656.464 102.998C656.55 105.086 655.817 107.126 654.421 108.678C653.74 109.394 652.915 109.956 652 110.328ZM678.612 110.835H689.184V115.581H673.666V90.415H689.005V95.1677H678.612V100.524H688.109V105.198H678.612V110.835ZM704.558 107.384L700.329 109.864C701.727 113.711 705.203 116.084 710.185 116.12C712.542 116.226 714.863 115.501 716.743 114.071C717.571 113.413 718.232 112.569 718.675 111.607C719.117 110.645 719.327 109.593 719.288 108.534C719.314 107.273 718.991 106.028 718.356 104.939C717.743 104.029 716.935 103.267 715.991 102.71C715.499 102.393 714.969 102.139 714.414 101.955C713.89 101.717 713.351 101.513 712.801 101.344L711.081 100.762C709.747 100.415 708.469 99.8821 707.282 99.1798C706.976 98.9589 706.728 98.6668 706.56 98.3287C706.391 97.9905 706.307 97.6164 706.314 97.2385C706.314 95.7645 707.569 94.7219 709.611 94.7219C711.798 94.7219 713.41 95.8004 714.414 97.9575L718.571 95.5488C717.794 93.8302 716.53 92.3787 714.937 91.3752C713.344 90.3716 711.492 89.8601 709.611 89.9045C707.481 89.855 705.405 90.5832 703.77 91.9537C702.979 92.6111 702.351 93.4434 701.934 94.3852C701.517 95.327 701.324 96.3529 701.369 97.3823C701.311 98.3734 701.496 99.3637 701.908 100.266C702.321 101.169 702.948 101.956 703.734 102.559C705.313 103.645 707.073 104.439 708.931 104.903C710.405 105.255 711.826 105.799 713.159 106.521C713.527 106.718 713.833 107.014 714.042 107.376C714.251 107.738 714.355 108.152 714.342 108.57C714.342 110.116 713.088 111.231 710.328 111.231C707.461 111.231 705.526 109.936 704.558 107.384ZM731.293 90.4078H736.239V115.573H731.293V90.4078ZM773.677 108.737C774.269 107.232 774.542 105.621 774.478 104.004V102.063L761.899 102.034V106.42H769.496C768.636 109.404 766.02 111.202 762.185 111.202C761.045 111.256 759.906 111.081 758.835 110.685C757.764 110.29 756.783 109.683 755.95 108.901C755.182 108.129 754.579 107.208 754.179 106.194C753.778 105.18 753.588 104.095 753.62 103.005C753.578 101.911 753.76 100.821 754.155 99.8008C754.549 98.7805 755.148 97.8522 755.914 97.0731C756.68 96.2855 757.602 95.667 758.62 95.2572C759.638 94.8474 760.73 94.6553 761.827 94.6931C764.801 94.6931 767.382 96.1312 768.564 98.1876L772.793 95.7357C771.627 93.8989 770.009 92.3946 768.094 91.3682C766.179 90.3417 764.033 89.8277 761.863 89.8757C760.121 89.8325 758.389 90.1484 756.774 90.8039C755.159 91.4594 753.695 92.4405 752.473 93.6865C751.246 94.9063 750.279 96.3643 749.632 97.9714C748.985 99.5785 748.672 101.301 748.71 103.034C748.678 104.758 748.999 106.471 749.652 108.066C750.305 109.662 751.278 111.105 752.509 112.309C753.779 113.558 755.288 114.536 756.945 115.185C758.602 115.833 760.372 116.139 762.15 116.084C763.778 116.147 765.403 115.884 766.929 115.31C768.455 114.736 769.852 113.863 771.037 112.74C772.185 111.605 773.084 110.241 773.677 108.737ZM801.464 90.4078H806.409V115.573H802.646L791.895 100.186V115.573H786.949V90.4078H790.712L801.464 105.766V90.4078ZM653.776 154.192L655.281 158.722H660.636L651.819 133.556H645.677L636.897 158.722H642.236L643.742 154.192H653.776ZM652.25 149.554H645.369L648.809 139.265L652.25 149.554ZM674.756 158.722L667.731 133.556H672.928L677.73 152.251L682.962 133.556H687.191L692.459 152.251L697.262 133.556H702.458L695.434 158.722H689.807L685.077 142.105L680.382 158.722H674.756ZM726.24 154.192L727.745 158.722H733.121L724.305 133.556H718.177L709.396 158.722H714.736L716.241 154.192H726.24ZM721.259 139.265L724.699 149.554H717.818L721.259 139.265ZM758.279 158.722L753.262 149.986H749.499V158.722H744.553V133.556H754.588C755.688 133.537 756.78 133.744 757.797 134.165C758.814 134.585 759.734 135.21 760.501 136.001C761.287 136.766 761.908 137.685 762.327 138.7C762.746 139.715 762.954 140.805 762.938 141.904C762.912 143.462 762.443 144.98 761.586 146.279C760.729 147.578 759.519 148.605 758.1 149.238L763.655 158.729L758.279 158.722ZM749.463 138.187V145.636H754.552C755.496 145.589 756.384 145.17 757.022 144.469C757.659 143.769 757.995 142.844 757.956 141.897C757.988 140.954 757.648 140.036 757.011 139.342C756.375 138.648 755.491 138.233 754.552 138.187H749.463ZM790.131 134.443C788.649 133.817 787.052 133.512 785.444 133.549L775.481 133.556V158.722H785.444C787.052 158.758 788.649 158.454 790.131 157.828C791.613 157.202 792.947 156.269 794.045 155.091C795.192 153.908 796.09 152.506 796.687 150.968C797.284 149.43 797.568 147.788 797.521 146.139C797.568 144.488 797.285 142.845 796.688 141.306C796.091 139.767 795.192 138.364 794.045 137.18C792.947 136.001 791.613 135.068 790.131 134.443ZM788.327 153.469C787.413 153.841 786.43 154.014 785.444 153.976L780.427 154.005V138.33H785.444C786.431 138.287 787.415 138.458 788.33 138.83C789.245 139.202 790.07 139.767 790.748 140.487C792.149 142.025 792.883 144.058 792.791 146.139C792.877 148.227 792.144 150.267 790.748 151.819C790.067 152.535 789.241 153.097 788.327 153.469ZM807.807 153.005L812.036 150.525C813.003 153.077 814.903 154.372 817.77 154.372C820.637 154.372 821.784 153.257 821.784 151.711C821.797 151.293 821.693 150.88 821.484 150.517C821.275 150.155 820.969 149.859 820.601 149.662C819.268 148.94 817.846 148.396 816.372 148.044C814.514 147.58 812.754 146.787 811.176 145.7C810.389 145.097 809.762 144.31 809.35 143.407C808.938 142.505 808.752 141.515 808.81 140.523C808.766 139.494 808.959 138.468 809.376 137.526C809.792 136.584 810.421 135.752 811.211 135.095C812.847 133.724 814.923 132.996 817.053 133.046C818.934 133.001 820.786 133.513 822.379 134.516C823.972 135.52 825.235 136.971 826.012 138.69L821.855 141.099C820.852 138.941 819.239 137.863 817.053 137.863C815.01 137.863 813.756 138.906 813.756 140.38C813.749 140.758 813.833 141.132 814.001 141.47C814.17 141.808 814.418 142.1 814.723 142.321C815.91 143.023 817.189 143.556 818.522 143.903L820.242 144.485C820.793 144.654 821.331 144.858 821.855 145.096C822.41 145.28 822.94 145.534 823.432 145.851C824.376 146.408 825.184 147.17 825.797 148.08C826.433 149.169 826.755 150.414 826.729 151.675C826.768 152.734 826.558 153.787 826.116 154.748C825.674 155.71 825.012 156.554 824.185 157.212C822.304 158.642 819.984 159.367 817.626 159.261C812.681 159.225 809.204 156.852 807.807 153.005ZM547.97 22.7978L555.371 3.72934L617.325 159.309C613.105 159.307 608.987 157.965 605.516 155.461C602.045 152.957 599.387 149.41 597.895 145.292L597.711 144.778L547.97 22.7978ZM545.028 28.9609L545.268 29.5863L595.12 159.22L595.25 159.56L594.886 159.56C590.613 159.558 586.443 158.199 582.93 155.665C579.417 153.131 576.729 149.542 575.221 145.377L575.221 145.376L575.04 144.869L575.037 144.862L537.666 49.4959L537.631 49.4082L537.663 49.3197L544.8 29.591L545.028 28.9609ZM545.042 30.3912L538.166 49.4012L575.505 144.687L575.508 144.694L575.508 144.694L575.691 145.207C577.166 149.28 579.793 152.786 583.223 155.26C586.551 157.661 590.482 158.98 594.521 159.056L545.042 30.3912ZM527.591 75.3667L534.948 56.3443L572.476 159.325C568.256 159.325 564.137 157.983 560.666 155.479C557.194 152.975 554.537 149.427 553.046 145.308L552.862 144.793L527.591 75.3667ZM524.148 91.0882L514.098 118.831L534.58 118.8C535.164 118.799 535.735 118.983 536.216 119.328C536.698 119.674 537.066 120.165 537.273 120.735H513.348L500.105 157.214C499.889 157.833 499.496 158.369 498.979 158.749C498.464 159.12 497.854 159.321 497.228 159.325L524.148 84.8242C524.88 86.8424 524.88 89.07 524.148 91.0882Z" fill="#A67F56"/>
</svg>
