<svg width="521" height="173" viewBox="0 0 521 173" fill="none" xmlns="http://www.w3.org/2000/svg">
<path fill-rule="evenodd" clip-rule="evenodd" d="M197.19 23.5822L201.419 21.1016C202.386 23.6541 204.286 24.9484 207.153 24.9484C210.02 24.9484 211.167 23.8339 211.167 22.288C211.18 21.8698 211.076 21.4562 210.867 21.0941C210.658 20.732 210.352 20.4357 209.984 20.2388C208.651 19.5165 207.229 18.9726 205.755 18.621C203.899 18.1563 202.139 17.3651 200.559 16.2842C199.773 15.6793 199.146 14.8906 198.734 13.987C198.322 13.0833 198.136 12.0922 198.193 11.1001C198.149 10.0708 198.343 9.04513 198.759 8.10338C199.176 7.16164 199.804 6.32932 200.594 5.67152C202.23 4.30107 204.306 3.57286 206.436 3.62229C208.317 3.57792 210.169 4.08938 211.762 5.09298C213.355 6.09657 214.619 7.54801 215.395 9.26661L211.238 11.6825C210.235 9.52544 208.622 8.43972 206.436 8.43972C204.393 8.43972 203.139 9.4823 203.139 10.9635C203.133 11.3413 203.218 11.7149 203.386 12.0528C203.555 12.3908 203.802 12.683 204.107 12.9048C205.296 13.601 206.574 14.1331 207.905 14.4866L209.626 15.0619C210.175 15.2337 210.713 15.4377 211.238 15.673C211.791 15.8485 212.32 16.0899 212.815 16.3921C213.759 16.9489 214.567 17.7104 215.18 18.621C215.816 19.7101 216.138 20.9544 216.112 22.2161C216.151 23.2745 215.941 24.3273 215.499 25.2892C215.057 26.2511 214.395 27.0949 213.568 27.7525C211.687 29.1828 209.367 29.9078 207.009 29.8017C202.064 29.8017 198.588 27.429 197.19 23.5822ZM182.281 29.2985L180.776 24.7687H170.742L169.236 29.2985H163.897L172.677 4.13282H178.819L187.636 29.2985H182.281ZM172.369 20.131H179.25L175.809 9.84183L172.369 20.131ZM233.099 4.12563H228.154V29.2913H233.099V4.12563ZM262.845 29.2985L261.339 24.7687H251.305L249.8 29.2985H244.46L253.24 4.13282H259.368L268.184 29.2985H262.845ZM252.918 20.131H259.798L256.358 9.84183L252.918 20.131ZM180.776 67.9097L182.281 72.4395H187.636L178.819 47.2739H172.677L163.897 72.4395H169.236L170.742 67.9097H180.776ZM179.25 63.272H172.369L175.809 52.9829L179.25 63.272ZM212.815 72.4395L207.798 63.7035H204.035V72.4395H199.089V47.2739H209.124C210.224 47.2548 211.316 47.4619 212.333 47.8824C213.35 48.3028 214.27 48.9277 215.037 49.7186C215.823 50.4842 216.444 51.4027 216.863 52.4178C217.282 53.4329 217.49 54.5231 217.474 55.6217C217.448 57.1796 216.979 58.6975 216.122 59.9969C215.265 61.2962 214.055 62.3228 212.636 62.9557L218.191 72.4467L212.815 72.4395ZM203.999 51.9044V59.3534H209.088C210.032 59.3068 210.92 58.8876 211.558 58.1873C212.196 57.487 212.532 56.5622 212.493 55.6145C212.524 54.6717 212.184 53.7543 211.547 53.0602C210.911 52.3661 210.027 51.951 209.088 51.9044H203.999ZM229.476 64.8926C230.111 66.4932 231.063 67.9478 232.275 69.168C233.493 70.4048 234.952 71.3759 236.562 72.0205C238.172 72.6651 239.896 72.9693 241.629 72.9141C243.779 72.9445 245.901 72.4137 247.786 71.3738C249.671 70.3339 251.254 68.8206 252.38 66.9822L248.079 64.5016C247.413 65.6298 246.455 66.5563 245.307 67.1828C244.159 67.8094 242.863 68.1128 241.557 68.0607C240.466 68.1088 239.377 67.9291 238.36 67.5331C237.342 67.137 236.417 66.5332 235.644 65.7598C234.902 64.9664 234.325 64.034 233.943 63.0161C233.562 61.9982 233.385 60.9147 233.422 59.8279C233.382 58.7344 233.558 57.6437 233.939 56.6184C234.321 55.5931 234.9 54.6533 235.644 53.8529C236.417 53.0796 237.342 52.4758 238.36 52.0797C239.377 51.6836 240.466 51.5039 241.557 51.552C242.867 51.5013 244.166 51.809 245.315 52.4423C246.464 53.0756 247.42 54.0106 248.079 55.1471L252.38 52.6665C251.25 50.8315 249.666 49.3209 247.782 48.2815C245.898 47.2421 243.779 46.7092 241.629 46.7346C239.894 46.6831 238.168 46.9919 236.559 47.6415C234.949 48.2911 233.49 49.2675 232.275 50.5095C231.056 51.7324 230.1 53.1925 229.466 54.8C228.831 56.4076 228.531 58.1285 228.584 59.8567C228.538 61.5787 228.842 63.292 229.476 64.8926ZM278.685 47.2667H283.595V72.4323H278.685V62.0066H269.367V72.4323H264.422V47.2667H269.367V57.2898H278.685V47.2667ZM302.159 47.2667H297.213V72.4323H302.159V47.2667ZM332.37 47.2667V52.0194H325.597V72.4395H320.651V52.0194H313.913V47.2667H332.37ZM359.607 67.694H349.034L349.049 62.0569H358.546V57.3833H349.049V52.0266H359.442V47.2739H344.089V72.4395H359.607V67.694ZM374.407 69.168C373.195 67.9478 372.243 66.4932 371.609 64.8926C370.974 63.292 370.67 61.5787 370.716 59.8567C370.663 58.1285 370.963 56.4076 371.598 54.8C372.233 53.1925 373.189 51.7324 374.407 50.5095C375.619 49.272 377.071 48.2982 378.675 47.6487C380.278 46.9993 381.997 46.6881 383.725 46.7346C385.875 46.7092 387.995 47.2421 389.879 48.2815C391.763 49.3209 393.347 50.8315 394.477 52.6665L390.176 55.1471C389.516 54.0106 388.561 53.0756 387.412 52.4423C386.263 51.809 384.964 51.5013 383.654 51.552C382.563 51.5039 381.474 51.6836 380.456 52.0797C379.438 52.4758 378.513 53.0796 377.74 53.8529C376.996 54.6533 376.417 55.5931 376.036 56.6184C375.655 57.6437 375.479 58.7343 375.518 59.8279C375.481 60.9147 375.659 61.9982 376.04 63.0161C376.421 64.034 376.999 64.9664 377.74 65.7598C378.513 66.5332 379.438 67.137 380.456 67.5331C381.474 67.9291 382.563 68.1088 383.654 68.0607C384.96 68.1127 386.256 67.8094 387.404 67.1828C388.552 66.5563 389.51 65.6298 390.176 64.5016L394.477 66.9822C393.35 68.8206 391.767 70.3339 389.883 71.3738C387.998 72.4137 385.876 72.9444 383.725 72.9141C381.999 72.9643 380.281 72.6577 378.678 72.0132C377.075 71.3688 375.621 70.4003 374.407 69.168ZM423.039 52.0194V47.2667H404.597V52.0194H411.32V72.4395H416.266V52.0194H423.039ZM437.231 70.5701C436.34 69.776 435.637 68.793 435.172 67.6924C434.707 66.5917 434.492 65.401 434.543 64.2068V47.2667H439.453V63.8041C439.453 66.4285 440.886 68.0823 444.112 68.0823C447.337 68.0823 448.771 66.4285 448.771 63.8041V47.2667H453.716V64.2068C453.767 65.401 453.552 66.5917 453.087 67.6924C452.623 68.793 451.919 69.776 451.029 70.5701C449.102 72.2052 446.633 73.0524 444.112 72.9428C441.603 73.0433 439.148 72.1967 437.231 70.5701ZM475.864 63.7035L480.881 72.4395L486.257 72.4467L480.702 62.9557C482.121 62.3228 483.331 61.2962 484.188 59.9969C485.045 58.6975 485.514 57.1796 485.54 55.6217C485.556 54.5231 485.348 53.4329 484.929 52.4178C484.51 51.4027 483.889 50.4842 483.103 49.7186C482.336 48.9277 481.416 48.3028 480.399 47.8824C479.382 47.4619 478.29 47.2548 477.19 47.2739H467.156V72.4395H472.101V63.7035H475.864ZM472.065 59.3534V51.9044H477.154C478.093 51.951 478.977 52.3661 479.614 53.0602C480.251 53.7543 480.59 54.6717 480.559 55.6145C480.598 56.5622 480.262 57.487 479.624 58.1873C478.986 58.8876 478.099 59.3068 477.154 59.3534H472.065ZM503.029 67.694H513.601V72.4395H498.084V47.2739H513.422V52.0266H503.029V57.3833H512.526V62.0569H503.029V67.694ZM180.804 91.3016C179.322 90.6759 177.725 90.3713 176.117 90.4078L166.154 90.415V115.581H176.117C177.725 115.617 179.322 115.312 180.804 114.687C182.287 114.061 183.62 113.128 184.718 111.95C185.865 110.766 186.764 109.365 187.361 107.827C187.958 106.289 188.241 104.647 188.195 102.998C188.241 101.347 187.958 99.7039 187.361 98.1651C186.764 96.6263 185.865 95.2232 184.718 94.0388C183.62 92.8601 182.287 91.9273 180.804 91.3016ZM179 110.328C178.086 110.7 177.103 110.873 176.117 110.835L171.1 110.864V95.1892H176.117C177.104 95.1464 178.088 95.3168 179.003 95.689C179.918 96.0611 180.743 96.6264 181.421 97.3463C182.822 98.8841 183.557 100.917 183.464 102.998C183.55 105.086 182.817 107.126 181.421 108.678C180.74 109.394 179.915 109.956 179 110.328ZM205.612 110.835H216.184V115.581H200.666V90.415H216.005V95.1677H205.612V100.524H215.109V105.198H205.612V110.835ZM231.558 107.384L227.329 109.864C228.727 113.711 232.203 116.084 237.185 116.12C239.542 116.226 241.863 115.501 243.743 114.071C244.571 113.413 245.232 112.569 245.675 111.607C246.117 110.645 246.327 109.593 246.288 108.534C246.314 107.273 245.991 106.028 245.356 104.939C244.743 104.029 243.935 103.267 242.991 102.71C242.499 102.393 241.969 102.139 241.414 101.955C240.89 101.717 240.351 101.513 239.801 101.344L238.081 100.762C236.747 100.415 235.469 99.8821 234.282 99.1798C233.976 98.9589 233.728 98.6668 233.56 98.3287C233.391 97.9905 233.307 97.6164 233.314 97.2385C233.314 95.7645 234.569 94.7219 236.611 94.7219C238.798 94.7219 240.41 95.8004 241.414 97.9575L245.571 95.5488C244.794 93.8302 243.53 92.3787 241.937 91.3752C240.344 90.3716 238.492 89.8601 236.611 89.9045C234.481 89.855 232.405 90.5832 230.77 91.9537C229.979 92.6111 229.351 93.4434 228.934 94.3852C228.517 95.327 228.324 96.3529 228.369 97.3823C228.311 98.3734 228.496 99.3637 228.908 100.266C229.321 101.169 229.948 101.956 230.734 102.559C232.313 103.645 234.073 104.439 235.931 104.903C237.405 105.255 238.826 105.799 240.159 106.521C240.527 106.718 240.833 107.014 241.042 107.376C241.251 107.738 241.355 108.152 241.342 108.57C241.342 110.116 240.088 111.231 237.328 111.231C234.461 111.231 232.526 109.936 231.558 107.384ZM258.293 90.4078H263.239V115.573H258.293V90.4078ZM300.677 108.737C301.269 107.232 301.542 105.621 301.478 104.004V102.063L288.899 102.034V106.42H296.496C295.636 109.404 293.02 111.202 289.185 111.202C288.045 111.256 286.906 111.081 285.835 110.685C284.764 110.29 283.783 109.683 282.95 108.901C282.182 108.129 281.579 107.208 281.179 106.194C280.778 105.18 280.588 104.095 280.62 103.005C280.578 101.911 280.76 100.821 281.155 99.8008C281.549 98.7805 282.148 97.8522 282.914 97.0731C283.68 96.2855 284.602 95.667 285.62 95.2572C286.638 94.8474 287.73 94.6553 288.827 94.6931C291.801 94.6931 294.382 96.1312 295.564 98.1876L299.793 95.7357C298.627 93.8989 297.009 92.3946 295.094 91.3682C293.179 90.3417 291.033 89.8277 288.863 89.8757C287.121 89.8325 285.389 90.1484 283.774 90.8039C282.159 91.4594 280.695 92.4405 279.473 93.6865C278.246 94.9063 277.279 96.3643 276.632 97.9714C275.985 99.5785 275.672 101.301 275.71 103.034C275.678 104.758 275.999 106.471 276.652 108.066C277.305 109.662 278.278 111.105 279.509 112.309C280.779 113.558 282.288 114.536 283.945 115.185C285.602 115.833 287.372 116.139 289.15 116.084C290.778 116.147 292.403 115.884 293.929 115.31C295.455 114.736 296.852 113.863 298.037 112.74C299.185 111.605 300.084 110.241 300.677 108.737ZM328.464 90.4078H333.409V115.573H329.646L318.895 100.186V115.573H313.949V90.4078H317.712L328.464 105.766V90.4078ZM180.776 154.192L182.281 158.722H187.636L178.819 133.556H172.677L163.897 158.722H169.236L170.742 154.192H180.776ZM179.25 149.554H172.369L175.809 139.265L179.25 149.554ZM201.756 158.722L194.731 133.556H199.928L204.73 152.251L209.962 133.556H214.191L219.459 152.251L224.262 133.556H229.458L222.434 158.722H216.807L212.077 142.105L207.382 158.722H201.756ZM253.24 154.192L254.745 158.722H260.121L251.305 133.556H245.177L236.396 158.722H241.736L243.241 154.192H253.24ZM248.259 139.265L251.699 149.554H244.818L248.259 139.265ZM285.279 158.722L280.262 149.986H276.499V158.722H271.553V133.556H281.588C282.688 133.537 283.78 133.744 284.797 134.165C285.814 134.585 286.734 135.21 287.501 136.001C288.287 136.766 288.908 137.685 289.327 138.7C289.746 139.715 289.954 140.805 289.938 141.904C289.912 143.462 289.443 144.98 288.586 146.279C287.729 147.578 286.519 148.605 285.1 149.238L290.655 158.729L285.279 158.722ZM276.463 138.187V145.636H281.552C282.496 145.589 283.384 145.17 284.022 144.469C284.659 143.769 284.995 142.844 284.956 141.897C284.988 140.954 284.648 140.036 284.011 139.342C283.375 138.648 282.491 138.233 281.552 138.187H276.463ZM317.131 134.443C315.649 133.817 314.052 133.512 312.444 133.549L302.481 133.556V158.722H312.444C314.052 158.758 315.649 158.454 317.131 157.828C318.613 157.202 319.947 156.269 321.045 155.091C322.192 153.908 323.09 152.506 323.687 150.968C324.284 149.43 324.568 147.788 324.521 146.139C324.568 144.488 324.285 142.845 323.688 141.306C323.091 139.767 322.192 138.364 321.045 137.18C319.947 136.001 318.613 135.068 317.131 134.443ZM315.327 153.469C314.413 153.841 313.43 154.014 312.444 153.976L307.427 154.005V138.33H312.444C313.431 138.287 314.415 138.458 315.33 138.83C316.245 139.202 317.07 139.767 317.748 140.487C319.149 142.025 319.883 144.058 319.791 146.139C319.877 148.227 319.144 150.267 317.748 151.819C317.067 152.535 316.241 153.097 315.327 153.469ZM334.807 153.005L339.036 150.525C340.003 153.077 341.903 154.372 344.77 154.372C347.637 154.372 348.784 153.257 348.784 151.711C348.797 151.293 348.693 150.88 348.484 150.517C348.275 150.155 347.969 149.859 347.601 149.662C346.268 148.94 344.846 148.396 343.372 148.044C341.514 147.58 339.754 146.787 338.176 145.7C337.389 145.097 336.762 144.31 336.35 143.407C335.938 142.505 335.752 141.515 335.81 140.523C335.766 139.494 335.959 138.468 336.376 137.526C336.792 136.584 337.421 135.752 338.211 135.095C339.847 133.724 341.923 132.996 344.053 133.046C345.934 133.001 347.786 133.513 349.379 134.516C350.972 135.52 352.235 136.971 353.012 138.69L348.855 141.099C347.852 138.941 346.239 137.863 344.053 137.863C342.01 137.863 340.756 138.906 340.756 140.38C340.749 140.758 340.833 141.132 341.001 141.47C341.17 141.808 341.418 142.1 341.723 142.321C342.91 143.023 344.189 143.556 345.522 143.903L347.242 144.485C347.793 144.654 348.331 144.858 348.855 145.096C349.41 145.28 349.94 145.534 350.432 145.851C351.376 146.408 352.184 147.17 352.797 148.08C353.433 149.169 353.755 150.414 353.729 151.675C353.768 152.734 353.558 153.787 353.116 154.748C352.674 155.71 352.012 156.554 351.185 157.212C349.304 158.642 346.984 159.367 344.626 159.261C339.681 159.225 336.204 156.852 334.807 153.005ZM74.9698 22.7978L82.371 3.72934L144.325 159.309C140.105 159.307 135.987 157.965 132.516 155.461C129.045 152.957 126.387 149.41 124.895 145.292L124.711 144.778L74.9698 22.7978ZM72.0276 28.9609L72.2681 29.5863L122.12 159.22L122.25 159.56L121.886 159.56C117.613 159.558 113.443 158.199 109.93 155.665C106.417 153.131 103.729 149.542 102.221 145.377L102.221 145.376L102.04 144.869L102.037 144.862L64.6656 49.4959L64.6313 49.4082L64.6633 49.3197L71.7997 29.591L72.0276 28.9609ZM72.0419 30.3912L65.1655 49.4012L102.505 144.687L102.508 144.694L102.508 144.694L102.691 145.207C104.166 149.28 106.793 152.786 110.223 155.26C113.551 157.661 117.482 158.98 121.521 159.056L72.0419 30.3912ZM54.5909 75.3667L61.948 56.3443L99.4764 159.325C95.2564 159.325 91.1366 157.983 87.6655 155.479C84.1944 152.975 81.5368 149.427 80.0464 145.308L79.8625 144.793L54.5909 75.3667ZM51.1478 91.0882L41.0981 118.831L61.5801 118.8C62.1643 118.799 62.7352 118.983 63.2164 119.328C63.6976 119.674 64.0661 120.165 64.2729 120.735H40.3477L27.105 157.214C26.8887 157.833 26.4959 158.369 25.9794 158.749C25.4645 159.12 24.8542 159.321 24.2284 159.325L51.1478 84.8242C51.8796 86.8424 51.8796 89.07 51.1478 91.0882Z" fill="#A67F56"/>
</svg>
