<svg width="76" height="76" viewBox="0 0 76 76" fill="none" xmlns="http://www.w3.org/2000/svg">
<rect x="0.5" y="0.5" width="75" height="75" rx="37.5" fill="#FAC47E" fill-opacity="0.55"/>
<path d="M22.2665 30.5207C22.2665 30.1951 22.5321 29.9309 22.8594 29.9309H43.7175C44.0448 29.9309 44.3104 30.1951 44.3104 30.5207C44.3104 30.8463 44.0448 31.1106 43.7175 31.1106H22.8594C22.5321 31.1106 22.2665 30.8463 22.2665 30.5207ZM22.8594 23.6312H43.7175C44.0448 23.6312 44.3104 23.367 44.3104 23.0414C44.3104 22.7158 44.0448 22.4515 43.7175 22.4515H22.8594C22.5321 22.4515 22.2665 22.7158 22.2665 23.0414C22.2665 23.367 22.5321 23.6312 22.8594 23.6312ZM22.8594 27.3709H43.7175C44.0448 27.3709 44.3104 27.1066 44.3104 26.781C44.3104 26.4554 44.0448 26.1912 43.7175 26.1912H22.8594C22.5321 26.1912 22.2665 26.4554 22.2665 26.781C22.2665 27.1066 22.5321 27.3709 22.8594 27.3709ZM22.8594 34.8503H43.7175C44.0448 34.8503 44.3104 34.586 44.3104 34.2604C44.3104 33.9348 44.0448 33.6706 43.7175 33.6706H22.8594C22.5321 33.6706 22.2665 33.9348 22.2665 34.2604C22.2665 34.586 22.5321 34.8503 22.8594 34.8503ZM47.7884 55.4269V55.6959C47.7884 56.8882 46.813 57.8587 45.6146 57.8587H20.9622C19.7639 57.8587 18.7885 56.8882 18.7885 55.6959V21.7657C18.7885 19.7672 20.4224 18.1416 22.4309 18.1416H50.9448C53.3391 18.1416 55.2868 20.2777 55.2868 22.9037V32.078C55.2868 33.2703 54.3114 34.2408 53.113 34.2408H47.7884V35.5314C53.0364 35.8381 57.2116 40.1818 57.2116 45.4795C57.2116 50.7772 53.0364 55.121 47.7884 55.4277V55.4269ZM50.9448 19.3213C49.2042 19.3213 47.7884 20.9281 47.7884 22.9037V33.0611H53.1122C53.6569 33.0611 54.1003 32.6199 54.1003 32.078V22.9037C54.1003 20.9281 52.6846 19.3213 50.944 19.3213H50.9448ZM46.6027 55.6959V55.4269C44.6384 55.3121 42.8251 54.6318 41.3248 53.548H22.8594C22.5321 53.548 22.2665 53.2837 22.2665 52.9581C22.2665 52.6325 22.5321 52.3683 22.8594 52.3683H39.9651C39.2419 51.6172 38.6356 50.7544 38.1747 49.8083H22.8594C22.5321 49.8083 22.2665 49.544 22.2665 49.2184C22.2665 48.8928 22.5321 48.6286 22.8594 48.6286H37.6925C37.4198 47.8162 37.2499 46.9581 37.1977 46.0686H22.8594C22.5321 46.0686 22.2665 45.8043 22.2665 45.4787C22.2665 45.1531 22.5321 44.8889 22.8594 44.8889H37.1977C37.2499 43.9994 37.4198 43.1413 37.6925 42.3289H22.8594C22.5321 42.3289 22.2665 42.0647 22.2665 41.739C22.2665 41.4134 22.5321 41.1492 22.8594 41.1492H38.1747C38.6356 40.2031 39.2419 39.3403 39.9651 38.5892H22.8594C22.5321 38.5892 22.2665 38.325 22.2665 37.9994C22.2665 37.6738 22.5321 37.4095 22.8594 37.4095H41.3248C42.8259 36.3257 44.6392 35.6454 46.6027 35.5306V22.9037C46.6027 21.4763 47.179 20.1951 48.0888 19.3213H22.4309C21.0761 19.3213 19.9742 20.4177 19.9742 21.7657V55.6959C19.9742 56.2377 20.4176 56.679 20.9622 56.679H45.6154C46.1601 56.679 46.6035 56.2377 46.6035 55.6959H46.6027ZM56.0259 45.4795C56.0259 40.6348 52.0649 36.6938 47.1956 36.6938C42.3263 36.6938 38.3652 40.6348 38.3652 45.4795C38.3652 50.3242 42.3263 54.2653 47.1956 54.2653C52.0649 54.2653 56.0259 50.3242 56.0259 45.4795ZM55.1327 45.4795C55.1327 49.8343 51.5716 53.3773 47.1948 53.3773C42.8179 53.3773 39.2569 49.8343 39.2569 45.4795C39.2569 41.1248 42.8179 37.5817 47.1948 37.5817C51.5716 37.5817 55.1327 41.1248 55.1327 45.4795ZM53.947 45.4795C53.947 41.7752 50.9179 38.7614 47.1948 38.7614C43.4717 38.7614 40.4426 41.7752 40.4426 45.4795C40.4426 49.1838 43.4717 52.1976 47.1948 52.1976C50.9179 52.1976 53.947 49.1838 53.947 45.4795ZM51.6799 44.1756L47.6129 48.896C47.3086 49.2798 46.8525 49.5094 46.36 49.5275C46.3395 49.5283 46.3181 49.5291 46.2976 49.5291C45.8233 49.5291 45.3735 49.3309 45.0558 48.9786L42.7373 46.4099C42.12 45.7273 42.1761 44.6726 42.8614 44.0584C43.1934 43.7611 43.6219 43.6101 44.0685 43.6329C44.5151 43.6565 44.9253 43.8515 45.2241 44.1818L46.2699 45.3411L49.1385 42.012C49.4286 41.6746 49.8342 41.4701 50.2792 41.4355C50.725 41.4009 51.1566 41.5409 51.4957 41.8303C51.8348 42.1189 52.0411 42.5224 52.0759 42.9652C52.1107 43.408 51.97 43.8382 51.6791 44.1756H51.6799ZM50.8942 43.0564C50.8839 42.9274 50.8238 42.8102 50.7258 42.7261C50.627 42.6419 50.5013 42.601 50.3717 42.6113C50.242 42.6215 50.1243 42.6812 50.0397 42.7796L46.7308 46.6199C46.6201 46.7489 46.4581 46.8236 46.2873 46.826H46.2802C46.1118 46.826 45.9514 46.7552 45.8391 46.6301L44.342 44.9715C44.255 44.8755 44.1357 44.8189 44.0052 44.8118C43.9965 44.8118 43.9878 44.8118 43.9791 44.8118C43.859 44.8118 43.7436 44.8559 43.6535 44.9361C43.4535 45.1154 43.4377 45.4229 43.6171 45.6219L45.9356 48.1905C46.0676 48.336 46.2296 48.3533 46.315 48.3494C46.4612 48.3439 46.5956 48.2755 46.6849 48.1614C46.6913 48.1536 46.6968 48.1465 46.7039 48.1386L50.7788 43.4087C50.8626 43.3112 50.9037 43.1862 50.8934 43.0572L50.8942 43.0564Z" fill="white"/>
</svg>
