<svg width="245" height="245" viewBox="0 0 245 245" fill="none" xmlns="http://www.w3.org/2000/svg">
<g clip-path="url(#clip0_12_8600)">
<rect width="245" height="245" fill="url(#paint0_linear_12_8600)"/>
<g style="mix-blend-mode:screen" opacity="0.15">
<path d="M189.325 38L177.063 68.5024L259.469 263.624L259.774 264.447C262.246 271.035 266.65 276.708 272.4 280.714C278.15 284.719 284.973 286.866 291.964 286.87L189.325 38Z" fill="#1D2849"/>
<path d="M172.201 79.5049L160.378 111.063L222.295 263.624L222.6 264.447C225.07 271.036 229.474 276.71 235.224 280.716C240.974 284.721 247.799 286.868 254.79 286.87L172.201 79.5049Z" stroke="#1D2849" stroke-width="0.5" stroke-miterlimit="10"/>
<path d="M155.49 122.164L143.302 152.593L185.169 263.649L185.474 264.472C187.943 271.061 192.346 276.737 198.096 280.742C203.847 284.748 210.672 286.894 217.663 286.894L155.49 122.164ZM120.948 222.12L137.597 177.741C138.81 174.513 138.81 170.95 137.597 167.721L93 286.894C94.0369 286.888 95.0478 286.567 95.9009 285.973C96.7566 285.365 97.4073 284.508 97.7656 283.517L119.705 225.165H159.342C158.999 224.253 158.389 223.468 157.591 222.915C156.794 222.362 155.848 222.067 154.881 222.07L120.948 222.12Z" fill="#1D2849"/>
</g>
</g>
<defs>
<linearGradient id="paint0_linear_12_8600" x1="0" y1="245" x2="204.509" y2="81.3327" gradientUnits="userSpaceOnUse">
<stop stop-color="#16203C"/>
<stop offset="1" stop-color="#1D2849"/>
</linearGradient>
<clipPath id="clip0_12_8600">
<rect width="245" height="245" fill="white"/>
</clipPath>
</defs>
</svg>
