<svg width="245" height="245" viewBox="0 0 245 245" fill="none" xmlns="http://www.w3.org/2000/svg">
<g clip-path="url(#clip0_192_941)">
<rect width="245" height="245" fill="#A67F56"/>
<g style="mix-blend-mode:screen" opacity="0.15">
<path d="M182.489 42.29L170.228 72.7924L252.634 267.914L252.938 268.737C255.41 275.325 259.814 280.998 265.564 285.004C271.314 289.009 278.138 291.156 285.128 291.16L182.489 42.29Z" fill="url(#paint0_linear_192_941)"/>
<path d="M165.365 83.7949L153.542 115.353L215.459 267.914L215.764 268.737C218.235 275.326 222.638 281 228.388 285.006C234.139 289.011 240.963 291.158 247.954 291.16L165.365 83.7949Z" stroke="url(#paint1_linear_192_941)" stroke-width="0.5" stroke-miterlimit="10"/>
<path d="M148.654 126.454L136.466 156.883L178.333 267.939L178.638 268.762C181.107 275.351 185.51 281.027 191.26 285.033C197.011 289.038 203.836 291.184 210.828 291.184L148.654 126.454ZM114.112 226.41L130.762 182.031C131.974 178.803 131.974 175.24 130.762 172.011L86.1642 291.184C87.2011 291.178 88.2121 290.857 89.0651 290.263C89.9209 289.655 90.5715 288.798 90.9299 287.807L112.869 229.455H152.506C152.163 228.543 151.553 227.758 150.756 227.205C149.959 226.652 149.013 226.357 148.045 226.36L114.112 226.41Z" fill="url(#paint2_linear_192_941)"/>
</g>
<path d="M76.5363 105.111C77.1697 105.111 77.7397 105.203 78.2463 105.386C78.7593 105.564 79.1963 105.814 79.5573 106.137C79.9183 106.454 80.1938 106.827 80.3838 107.258C80.5802 107.689 80.6783 108.154 80.6783 108.654C80.6783 109.091 80.6277 109.478 80.5263 109.813C80.4313 110.143 80.2888 110.431 80.0988 110.678C79.9152 110.925 79.6872 111.134 79.4148 111.305C79.1488 111.476 78.8448 111.618 78.5028 111.732C79.3262 111.992 79.9405 112.388 80.3458 112.92C80.7512 113.452 80.9538 114.12 80.9538 114.924C80.9538 115.608 80.8272 116.213 80.5738 116.739C80.3205 117.265 79.9785 117.708 79.5478 118.069C79.1172 118.424 78.6168 118.693 78.0468 118.876C77.4832 119.06 76.8847 119.152 76.2513 119.152C75.561 119.152 74.9593 119.073 74.4463 118.914C73.9333 118.756 73.4868 118.522 73.1068 118.211C72.7268 117.901 72.4038 117.521 72.1378 117.071C71.8718 116.622 71.6438 116.102 71.4538 115.513L72.4893 115.086C72.6667 115.01 72.8472 114.972 73.0308 114.972C73.1955 114.972 73.3412 115.007 73.4678 115.076C73.6008 115.146 73.7022 115.247 73.7718 115.38C73.8858 115.602 74.0093 115.821 74.1423 116.036C74.2817 116.251 74.4463 116.444 74.6363 116.615C74.8263 116.78 75.048 116.916 75.3013 117.024C75.561 117.125 75.8682 117.176 76.2228 117.176C76.6218 117.176 76.9702 117.113 77.2678 116.986C77.5655 116.853 77.8125 116.682 78.0088 116.473C78.2115 116.264 78.3603 116.033 78.4553 115.779C78.5567 115.52 78.6073 115.26 78.6073 115C78.6073 114.671 78.5725 114.373 78.5028 114.107C78.4332 113.835 78.2875 113.604 78.0658 113.414C77.8442 113.224 77.5243 113.075 77.1063 112.967C76.6947 112.86 76.1405 112.806 75.4438 112.806V111.134C76.0202 111.128 76.4983 111.074 76.8783 110.972C77.2583 110.871 77.5592 110.732 77.7808 110.554C78.0088 110.371 78.1672 110.152 78.2558 109.899C78.3445 109.646 78.3888 109.367 78.3888 109.063C78.3888 108.411 78.2115 107.92 77.8568 107.59C77.5022 107.255 77.0177 107.087 76.4033 107.087C75.846 107.087 75.3837 107.236 75.0163 107.533C74.649 107.825 74.3925 108.202 74.2468 108.664C74.1708 108.905 74.0663 109.079 73.9333 109.187C73.8003 109.288 73.6262 109.338 73.4108 109.338C73.3095 109.338 73.2018 109.329 73.0878 109.31L71.8528 109.091C71.9478 108.433 72.1315 107.856 72.4038 107.362C72.6762 106.862 73.015 106.447 73.4203 106.118C73.832 105.782 74.3007 105.532 74.8263 105.367C75.3583 105.196 75.9283 105.111 76.5363 105.111ZM93.1153 112.131C93.1153 113.328 92.9855 114.37 92.7258 115.257C92.4725 116.137 92.1178 116.866 91.6618 117.442C91.2121 118.018 90.677 118.449 90.0563 118.734C89.442 119.013 88.777 119.152 88.0613 119.152C87.3456 119.152 86.6806 119.013 86.0663 118.734C85.4583 118.449 84.9295 118.018 84.4798 117.442C84.0301 116.866 83.6786 116.137 83.4253 115.257C83.172 114.37 83.0453 113.328 83.0453 112.131C83.0453 110.928 83.172 109.886 83.4253 109.006C83.6786 108.126 84.0301 107.397 84.4798 106.821C84.9295 106.245 85.4583 105.817 86.0663 105.538C86.6806 105.253 87.3456 105.111 88.0613 105.111C88.777 105.111 89.442 105.253 90.0563 105.538C90.677 105.817 91.2121 106.245 91.6618 106.821C92.1178 107.397 92.4725 108.126 92.7258 109.006C92.9855 109.886 93.1153 110.928 93.1153 112.131ZM90.6928 112.131C90.6928 111.137 90.62 110.314 90.4743 109.661C90.3286 109.009 90.1323 108.49 89.8853 108.103C89.6446 107.717 89.366 107.448 89.0493 107.296C88.7326 107.138 88.4033 107.058 88.0613 107.058C87.7256 107.058 87.3995 107.138 87.0828 107.296C86.7725 107.448 86.497 107.717 86.2563 108.103C86.0156 108.49 85.8225 109.009 85.6768 109.661C85.5375 110.314 85.4678 111.137 85.4678 112.131C85.4678 113.126 85.5375 113.949 85.6768 114.601C85.8225 115.254 86.0156 115.773 86.2563 116.159C86.497 116.546 86.7725 116.818 87.0828 116.976C87.3995 117.128 87.7256 117.204 88.0613 117.204C88.4033 117.204 88.7326 117.128 89.0493 116.976C89.366 116.818 89.6446 116.546 89.8853 116.159C90.1323 115.773 90.3286 115.254 90.4743 114.601C90.62 113.949 90.6928 113.126 90.6928 112.131ZM112.627 119H110.651C110.429 119 110.246 118.946 110.1 118.838C109.961 118.724 109.859 118.585 109.796 118.42L108.77 115.618H103.08L102.054 118.42C102.003 118.566 101.902 118.699 101.75 118.819C101.604 118.94 101.423 119 101.208 119H99.2226L104.619 105.263H107.231L112.627 119ZM103.735 113.813H108.115L106.443 109.243C106.367 109.041 106.281 108.803 106.186 108.531C106.097 108.252 106.009 107.951 105.92 107.628C105.831 107.951 105.743 108.252 105.654 108.531C105.572 108.81 105.489 109.053 105.407 109.262L103.735 113.813ZM112.754 105.263H114.901C115.123 105.263 115.306 105.317 115.452 105.424C115.604 105.526 115.705 105.665 115.756 105.842L118.093 114.06C118.15 114.263 118.201 114.484 118.245 114.725C118.296 114.959 118.343 115.209 118.388 115.475C118.438 115.209 118.492 114.959 118.549 114.725C118.612 114.484 118.679 114.263 118.749 114.06L121.447 105.842C121.497 105.697 121.595 105.564 121.741 105.443C121.893 105.323 122.077 105.263 122.292 105.263H123.043C123.264 105.263 123.448 105.317 123.594 105.424C123.739 105.526 123.841 105.665 123.898 105.842L126.577 114.06C126.716 114.465 126.836 114.915 126.938 115.409C126.982 115.162 127.026 114.924 127.071 114.696C127.121 114.468 127.172 114.256 127.223 114.06L129.56 105.842C129.604 105.684 129.702 105.548 129.854 105.434C130.006 105.32 130.19 105.263 130.405 105.263H132.41L128.144 119H125.836L122.834 109.614C122.796 109.494 122.754 109.364 122.71 109.224C122.672 109.085 122.634 108.936 122.596 108.778C122.558 108.936 122.517 109.085 122.473 109.224C122.435 109.364 122.397 109.494 122.359 109.614L119.328 119H117.02L112.754 105.263ZM145.829 119H143.853C143.631 119 143.448 118.946 143.302 118.838C143.163 118.724 143.061 118.585 142.998 118.42L141.972 115.618H136.281L135.255 118.42C135.205 118.566 135.103 118.699 134.951 118.819C134.806 118.94 134.625 119 134.41 119H132.424L137.82 105.263H140.433L145.829 119ZM136.937 113.813H141.316L139.644 109.243C139.568 109.041 139.483 108.803 139.388 108.531C139.299 108.252 139.211 107.951 139.122 107.628C139.033 107.951 138.945 108.252 138.856 108.531C138.774 108.81 138.691 109.053 138.609 109.262L136.937 113.813ZM150.835 113.633V119H148.279V105.263H152.469C153.406 105.263 154.207 105.361 154.872 105.557C155.543 105.747 156.091 106.017 156.516 106.365C156.946 106.713 157.26 107.131 157.456 107.619C157.659 108.1 157.76 108.632 157.76 109.215C157.76 109.677 157.69 110.114 157.551 110.526C157.418 110.938 157.222 111.311 156.962 111.647C156.709 111.983 156.392 112.277 156.012 112.53C155.638 112.784 155.211 112.986 154.73 113.138C155.053 113.322 155.331 113.585 155.566 113.927L159.005 119H156.706C156.484 119 156.294 118.956 156.136 118.867C155.984 118.778 155.854 118.652 155.746 118.487L152.858 114.088C152.75 113.924 152.63 113.807 152.497 113.737C152.37 113.667 152.18 113.633 151.927 113.633H150.835ZM150.835 111.799H152.431C152.912 111.799 153.33 111.739 153.685 111.618C154.046 111.498 154.34 111.333 154.568 111.124C154.802 110.909 154.977 110.656 155.091 110.364C155.205 110.073 155.262 109.753 155.262 109.405C155.262 108.708 155.03 108.173 154.568 107.799C154.112 107.426 153.412 107.239 152.469 107.239H150.835V111.799ZM173.792 112.131C173.792 113.138 173.624 114.063 173.288 114.905C172.953 115.748 172.481 116.473 171.873 117.081C171.265 117.689 170.533 118.161 169.678 118.496C168.823 118.832 167.877 119 166.838 119H161.594V105.263H166.838C167.877 105.263 168.823 105.434 169.678 105.776C170.533 106.112 171.265 106.583 171.873 107.191C172.481 107.793 172.953 108.515 173.288 109.357C173.624 110.2 173.792 111.124 173.792 112.131ZM171.179 112.131C171.179 111.378 171.078 110.703 170.875 110.108C170.673 109.506 170.385 109 170.011 108.588C169.637 108.17 169.181 107.85 168.643 107.628C168.111 107.407 167.509 107.296 166.838 107.296H164.168V116.967H166.838C167.509 116.967 168.111 116.856 168.643 116.634C169.181 116.413 169.637 116.096 170.011 115.684C170.385 115.266 170.673 114.76 170.875 114.164C171.078 113.563 171.179 112.885 171.179 112.131ZM71.3406 136.76C71.48 136.76 71.6003 136.814 71.7016 136.922L72.7086 138.014C72.1513 138.705 71.4641 139.234 70.6471 139.601C69.8365 139.968 68.8611 140.152 67.7211 140.152C66.7015 140.152 65.7831 139.978 64.9661 139.629C64.1555 139.281 63.462 138.797 62.8856 138.176C62.3093 137.555 61.866 136.814 61.5556 135.953C61.2516 135.092 61.0996 134.151 61.0996 133.131C61.0996 132.099 61.2706 131.155 61.6126 130.3C61.9546 129.439 62.436 128.698 63.0566 128.077C63.6773 127.457 64.4183 126.975 65.2796 126.633C66.1473 126.285 67.1036 126.111 68.1486 126.111C69.1683 126.111 70.0581 126.276 70.8181 126.605C71.5845 126.928 72.24 127.359 72.7846 127.897L71.9296 129.084C71.879 129.16 71.8125 129.227 71.7301 129.284C71.6541 129.341 71.5465 129.369 71.4071 129.369C71.2615 129.369 71.1126 129.312 70.9606 129.198C70.8086 129.084 70.6155 128.961 70.3811 128.828C70.1468 128.695 69.8491 128.571 69.4881 128.457C69.1335 128.343 68.6806 128.286 68.1296 128.286C67.4836 128.286 66.8883 128.4 66.3436 128.628C65.8053 128.85 65.3398 129.17 64.9471 129.588C64.5608 130.006 64.2568 130.516 64.0351 131.117C63.8198 131.713 63.7121 132.384 63.7121 133.131C63.7121 133.904 63.8198 134.591 64.0351 135.193C64.2568 135.795 64.5545 136.301 64.9281 136.713C65.3018 137.125 65.742 137.441 66.2486 137.663C66.7553 137.878 67.3 137.986 67.8826 137.986C68.231 137.986 68.5445 137.967 68.8231 137.929C69.1081 137.891 69.3678 137.831 69.6021 137.748C69.8428 137.666 70.0676 137.562 70.2766 137.435C70.492 137.302 70.7041 137.14 70.9131 136.95C70.9765 136.893 71.043 136.849 71.1126 136.817C71.1823 136.779 71.2583 136.76 71.3406 136.76ZM87.6692 140H85.6932C85.4715 140 85.2879 139.946 85.1422 139.838C85.0029 139.724 84.9015 139.585 84.8382 139.42L83.8122 136.618H78.1217L77.0957 139.42C77.045 139.566 76.9437 139.699 76.7917 139.819C76.646 139.94 76.4655 140 76.2502 140H74.2647L79.6607 126.263H82.2732L87.6692 140ZM78.7772 134.813H83.1567L81.4847 130.243C81.4087 130.041 81.3232 129.803 81.2282 129.531C81.1395 129.252 81.0509 128.951 80.9622 128.628C80.8735 128.951 80.7849 129.252 80.6962 129.531C80.6139 129.81 80.5315 130.053 80.4492 130.262L78.7772 134.813ZM98.3229 126.263V128.362H94.1904V140H91.6349V128.362H87.4834V126.263H98.3229ZM109.556 126.263V128.296H103.467V132.105H108.264V134.072H103.467V137.957H109.556V140H100.892V126.263H109.556ZM119.023 138.119C119.6 138.119 120.1 138.068 120.524 137.967C120.955 137.859 121.363 137.714 121.75 137.53V135.031H120.03C119.866 135.031 119.736 134.987 119.641 134.898C119.546 134.803 119.498 134.689 119.498 134.556V133.112H124.068V138.67C123.719 138.923 123.355 139.145 122.975 139.335C122.602 139.519 122.199 139.671 121.769 139.791C121.344 139.911 120.888 140 120.401 140.057C119.913 140.12 119.387 140.152 118.824 140.152C117.823 140.152 116.902 139.978 116.059 139.629C115.217 139.281 114.489 138.797 113.874 138.176C113.26 137.555 112.779 136.814 112.43 135.953C112.088 135.092 111.917 134.151 111.917 133.131C111.917 132.099 112.085 131.152 112.421 130.291C112.756 129.43 113.231 128.689 113.846 128.068C114.466 127.447 115.217 126.966 116.097 126.624C116.978 126.282 117.966 126.111 119.061 126.111C120.182 126.111 121.151 126.279 121.968 126.614C122.792 126.944 123.488 127.374 124.058 127.906L123.317 129.065C123.172 129.3 122.978 129.417 122.738 129.417C122.586 129.417 122.431 129.366 122.272 129.265C122.07 129.145 121.861 129.024 121.645 128.904C121.436 128.784 121.202 128.679 120.942 128.59C120.689 128.502 120.401 128.429 120.078 128.372C119.761 128.315 119.394 128.286 118.976 128.286C118.298 128.286 117.684 128.4 117.133 128.628C116.588 128.856 116.123 129.183 115.736 129.607C115.35 130.031 115.052 130.541 114.843 131.136C114.634 131.732 114.53 132.397 114.53 133.131C114.53 133.923 114.641 134.629 114.862 135.25C115.084 135.864 115.394 136.384 115.793 136.808C116.192 137.232 116.667 137.558 117.218 137.786C117.769 138.008 118.371 138.119 119.023 138.119ZM140.572 133.131C140.572 134.138 140.404 135.073 140.069 135.934C139.733 136.789 139.261 137.53 138.653 138.157C138.045 138.784 137.314 139.275 136.459 139.629C135.604 139.978 134.657 140.152 133.618 140.152C132.58 140.152 131.63 139.978 130.768 139.629C129.913 139.275 129.179 138.784 128.564 138.157C127.956 137.53 127.484 136.789 127.149 135.934C126.813 135.073 126.645 134.138 126.645 133.131C126.645 132.124 126.813 131.193 127.149 130.338C127.484 129.477 127.956 128.733 128.564 128.106C129.179 127.479 129.913 126.991 130.768 126.643C131.63 126.288 132.58 126.111 133.618 126.111C134.657 126.111 135.604 126.288 136.459 126.643C137.314 126.998 138.045 127.488 138.653 128.115C139.261 128.736 139.733 129.477 140.069 130.338C140.404 131.193 140.572 132.124 140.572 133.131ZM137.95 133.131C137.95 132.378 137.849 131.703 137.646 131.108C137.45 130.506 137.165 129.996 136.791 129.578C136.418 129.16 135.962 128.841 135.423 128.619C134.891 128.397 134.29 128.286 133.618 128.286C132.947 128.286 132.342 128.397 131.804 128.619C131.265 128.841 130.806 129.16 130.426 129.578C130.053 129.996 129.764 130.506 129.562 131.108C129.359 131.703 129.258 132.378 129.258 133.131C129.258 133.885 129.359 134.563 129.562 135.164C129.764 135.76 130.053 136.266 130.426 136.684C130.806 137.096 131.265 137.413 131.804 137.634C132.342 137.856 132.947 137.967 133.618 137.967C134.29 137.967 134.891 137.856 135.423 137.634C135.962 137.413 136.418 137.096 136.791 136.684C137.165 136.266 137.45 135.76 137.646 135.164C137.849 134.563 137.95 133.885 137.95 133.131ZM146.183 134.633V140H143.627V126.263H147.817C148.754 126.263 149.555 126.361 150.22 126.557C150.892 126.747 151.44 127.017 151.864 127.365C152.295 127.713 152.608 128.131 152.804 128.619C153.007 129.1 153.108 129.632 153.108 130.215C153.108 130.677 153.039 131.114 152.899 131.526C152.766 131.938 152.57 132.311 152.31 132.647C152.057 132.983 151.74 133.277 151.36 133.53C150.987 133.784 150.559 133.986 150.078 134.138C150.401 134.322 150.68 134.585 150.914 134.927L154.353 140H152.054C151.832 140 151.642 139.956 151.484 139.867C151.332 139.778 151.202 139.652 151.094 139.487L148.206 135.088C148.099 134.924 147.978 134.807 147.845 134.737C147.719 134.667 147.529 134.633 147.275 134.633H146.183ZM146.183 132.799H147.779C148.26 132.799 148.678 132.739 149.033 132.618C149.394 132.498 149.688 132.333 149.916 132.124C150.151 131.909 150.325 131.656 150.439 131.364C150.553 131.073 150.61 130.753 150.61 130.405C150.61 129.708 150.379 129.173 149.916 128.799C149.46 128.426 148.761 128.239 147.817 128.239H146.183V132.799ZM159.821 140H157.256V126.263H159.821V140ZM172.531 126.263V128.296H166.441V132.105H171.239V134.072H166.441V137.957H172.531V140H163.867V126.263H172.531ZM183.052 128.761C182.983 128.901 182.9 128.999 182.805 129.056C182.717 129.113 182.609 129.141 182.482 129.141C182.356 129.141 182.213 129.094 182.055 128.999C181.896 128.898 181.71 128.787 181.494 128.666C181.279 128.546 181.026 128.438 180.734 128.343C180.449 128.242 180.11 128.191 179.718 128.191C179.363 128.191 179.053 128.236 178.787 128.324C178.527 128.407 178.305 128.524 178.122 128.676C177.944 128.828 177.811 129.012 177.723 129.227C177.634 129.436 177.59 129.667 177.59 129.92C177.59 130.243 177.678 130.513 177.856 130.728C178.039 130.943 178.28 131.127 178.578 131.279C178.875 131.431 179.214 131.567 179.594 131.687C179.974 131.808 180.361 131.938 180.753 132.077C181.152 132.21 181.542 132.368 181.922 132.552C182.302 132.729 182.641 132.957 182.938 133.236C183.236 133.508 183.473 133.844 183.651 134.243C183.834 134.642 183.926 135.126 183.926 135.696C183.926 136.317 183.819 136.9 183.603 137.444C183.394 137.983 183.084 138.455 182.672 138.86C182.267 139.259 181.77 139.576 181.181 139.81C180.592 140.038 179.917 140.152 179.157 140.152C178.72 140.152 178.29 140.108 177.865 140.019C177.441 139.937 177.032 139.816 176.64 139.658C176.253 139.5 175.889 139.31 175.547 139.088C175.212 138.866 174.911 138.619 174.645 138.347L175.386 137.121C175.455 137.033 175.538 136.96 175.633 136.903C175.734 136.84 175.845 136.808 175.965 136.808C176.124 136.808 176.295 136.874 176.478 137.007C176.662 137.134 176.877 137.277 177.124 137.435C177.378 137.593 177.672 137.739 178.008 137.872C178.35 137.999 178.758 138.062 179.233 138.062C179.962 138.062 180.525 137.891 180.924 137.549C181.323 137.201 181.523 136.703 181.523 136.057C181.523 135.696 181.431 135.402 181.247 135.174C181.07 134.946 180.832 134.756 180.535 134.604C180.237 134.446 179.898 134.313 179.518 134.205C179.138 134.097 178.752 133.98 178.359 133.853C177.967 133.727 177.58 133.575 177.2 133.397C176.82 133.22 176.481 132.989 176.184 132.704C175.886 132.419 175.645 132.064 175.462 131.64C175.284 131.209 175.196 130.68 175.196 130.053C175.196 129.553 175.294 129.065 175.49 128.59C175.693 128.115 175.984 127.694 176.364 127.327C176.751 126.96 177.222 126.665 177.78 126.443C178.337 126.222 178.974 126.111 179.689 126.111C180.5 126.111 181.247 126.238 181.931 126.491C182.615 126.744 183.198 127.099 183.679 127.555L183.052 128.761Z" fill="white"/>
</g>
<defs>
<linearGradient id="paint0_linear_192_941" x1="170.228" y1="166.719" x2="285.128" y2="166.719" gradientUnits="userSpaceOnUse">
<stop stop-color="#FAC47E"/>
<stop offset="1" stop-color="#A67F56"/>
</linearGradient>
<linearGradient id="paint1_linear_192_941" x1="153.225" y1="187.201" x2="248.405" y2="187.201" gradientUnits="userSpaceOnUse">
<stop stop-color="#FAC47E"/>
<stop offset="1" stop-color="#A67F56"/>
</linearGradient>
<linearGradient id="paint2_linear_192_941" x1="86.1521" y1="208.788" x2="210.779" y2="208.788" gradientUnits="userSpaceOnUse">
<stop stop-color="#FAC47E"/>
<stop offset="1" stop-color="#A67F56"/>
</linearGradient>
<clipPath id="clip0_192_941">
<rect width="245" height="245" fill="white"/>
</clipPath>
</defs>
</svg>
