<svg width="778" height="285" viewBox="0 0 778 285" fill="none" xmlns="http://www.w3.org/2000/svg">
    <path d="M109.392 184.723H111.399C109.743 188.666 108.098 192.587 106.465 196.486C104.831 200.385 103.18 204.305 101.512 208.245L96.5968 196.486C94.9631 192.587 93.3185 188.666 91.6628 184.723H93.6694L97.4466 193.779L101.224 202.835C101.262 203.007 101.314 203.169 101.365 203.312C101.417 203.455 101.465 203.641 101.507 203.789C101.55 203.622 101.597 203.455 101.653 203.312C101.71 203.169 101.753 202.988 101.795 202.835C103.054 199.791 104.313 196.772 105.572 193.779C106.831 190.786 108.105 187.767 109.392 184.723Z" fill="#193E69" />
    <path d="M117.73 184.723H119.737V207.216H117.73V184.723Z" fill="#193E69" />
    <path d="M126.928 207.216V184.723H140.393V186.629H128.897V194.961H139.147V196.868H128.897V205.347H140.832V207.254L126.928 207.216Z" fill="#193E69" />
    <path d="M162.797 184.723V186.629H155.002V207.192H153.028V186.653H145.2V184.746L162.797 184.723Z" fill="#193E69" />
    <path d="M187.018 184.723V208.245C184.185 205.052 181.352 201.887 178.519 198.75C175.686 195.614 172.866 192.444 170.058 189.241C169.95 189.089 169.851 188.951 169.751 188.822L169.449 188.407C169.473 188.579 169.487 188.746 169.501 188.917C169.515 189.089 169.525 189.26 169.548 189.432V207.201H167.575V183.698L176.074 193.336L184.572 202.974C184.676 203.126 184.775 203.264 184.874 203.393L185.177 203.808C185.153 203.641 185.139 203.469 185.129 203.298C185.12 203.126 185.101 202.954 185.077 202.783V184.723H187.018Z" fill="#193E69" />
    <path d="M213.534 207.216H211.523C210.868 205.671 210.221 204.124 209.582 202.573C208.943 201.022 208.296 199.475 207.641 197.931H199.657C199.028 199.469 198.386 201.016 197.731 202.573C197.076 204.13 196.423 205.678 195.772 207.216H193.798C195.457 203.275 197.102 199.356 198.732 195.457C200.362 191.558 202.007 187.638 203.666 183.698C205.318 187.641 206.963 191.555 208.6 195.438C210.237 199.321 211.881 203.247 213.534 207.216ZM203.968 189.127C203.926 188.955 203.874 188.788 203.822 188.626C203.77 188.464 203.723 188.302 203.68 188.15C203.247 189.493 202.743 190.812 202.169 192.101C201.6 193.407 201.038 194.713 200.484 196.019H206.801C206.329 194.861 205.857 193.712 205.385 192.564C204.912 191.415 204.44 190.285 203.968 189.127Z" fill="#193E69" />
    <path d="M220.182 183.698C222.136 186.24 224.078 188.782 226.008 191.324C227.937 193.866 229.88 196.409 231.834 198.951C233.783 196.409 235.723 193.866 237.656 191.324C239.589 188.782 241.531 186.24 243.482 183.698V207.216H241.509V190.442C241.509 190.228 241.509 190.033 241.509 189.851C241.509 189.67 241.537 189.48 241.556 189.289C240.039 191.482 238.448 193.644 236.782 195.776C235.117 197.908 233.465 200.05 231.825 202.201L227.528 196.534C226.102 194.656 224.67 192.765 223.232 190.862L222.561 189.994C222.473 189.882 222.393 189.764 222.32 189.642C222.252 189.517 222.173 189.399 222.084 189.289C222.084 189.48 222.122 189.666 222.132 189.851C222.141 190.037 222.132 190.228 222.132 190.442V207.216H220.158L220.182 183.698Z" fill="#193E69" />
    <path d="M13.3806 222.85C12.3555 221.86 11.143 221.09 9.81588 220.586C8.43454 220.057 6.9683 219.79 5.491 219.799H0.297363V242.292H4.40033C6.3558 242.349 8.30144 241.993 10.1133 241.248C11.553 240.638 12.8496 239.728 13.9188 238.579C14.8767 237.542 15.6043 236.31 16.053 234.966C16.4745 233.713 16.6944 232.4 16.7045 231.077C16.7221 229.479 16.4152 227.894 15.8027 226.42C15.2414 225.078 14.4176 223.863 13.3806 222.85ZM13.3806 234.628C12.9462 235.661 12.3051 236.592 11.4975 237.363C10.6899 238.134 9.73322 238.728 8.68744 239.108C7.56858 239.522 6.38503 239.729 5.19354 239.718H2.9414V222.335H5.19354C6.38849 222.325 7.57535 222.533 8.69689 222.95C9.74525 223.329 10.7039 223.925 11.5119 224.699C12.3199 225.473 12.9595 226.408 13.39 227.445C13.8601 228.584 14.0931 229.809 14.0747 231.043C14.0871 232.275 13.8459 233.495 13.3664 234.628H13.3806Z" fill="#B78118" />
    <path d="M4.40515 242.626H0V219.48H5.49109C7.00728 219.472 8.51192 219.747 9.92928 220.29C11.2937 220.806 12.5413 221.594 13.5979 222.607C14.6617 223.646 15.5093 224.889 16.0908 226.263C16.7181 227.787 17.0268 229.426 16.9973 231.077C16.9857 232.434 16.7593 233.781 16.3269 235.066C15.8773 236.456 15.1402 237.733 14.1645 238.813C13.0647 239.992 11.7332 240.928 10.2551 241.558C8.39926 242.319 6.40729 242.682 4.40515 242.626ZM0.627958 241.992H4.40515C6.31633 242.045 8.2178 241.699 9.99066 240.977C11.3911 240.376 12.6519 239.486 13.6923 238.365C14.6109 237.357 15.3091 236.165 15.7414 234.866C16.1538 233.646 16.369 232.366 16.3788 231.077C16.4017 229.517 16.1076 227.97 15.5148 226.529C14.9648 225.231 14.162 224.058 13.1541 223.079C12.1574 222.122 10.9827 221.376 9.69793 220.881C8.35044 220.369 6.92161 220.109 5.48164 220.114H0.613794L0.627958 241.992ZM5.19363 240.038H2.62987V222.02H5.19363C6.4252 222.01 7.64857 222.223 8.80557 222.65C9.89195 223.05 10.8863 223.67 11.7282 224.47C12.5676 225.277 13.2317 226.251 13.6781 227.33C14.1633 228.509 14.4044 229.776 14.3864 231.053C14.4062 232.325 14.1651 233.588 13.6781 234.761C13.2268 235.834 12.5611 236.801 11.7228 237.602C10.8844 238.404 9.89129 239.022 8.80557 239.418C7.64747 239.839 6.42447 240.049 5.19363 240.038ZM3.30504 239.404H5.19363C6.3416 239.41 7.48148 239.21 8.56005 238.813C9.56727 238.441 10.4904 237.868 11.2749 237.13C12.0433 236.392 12.6567 235.505 13.0785 234.523C13.5292 233.428 13.7526 232.252 13.7348 231.067C13.7512 229.878 13.5279 228.697 13.0785 227.597C12.662 226.601 12.0483 225.7 11.2749 224.952C10.4904 224.213 9.56727 223.641 8.56005 223.269C7.48295 222.864 6.34303 222.656 5.19363 222.654H3.30504V239.404Z" fill="#B78118" />
    <path d="M24.2967 232.235H34.1316V229.694H24.2967V222.34H35.3733V219.799H21.6574V242.292H35.8171V239.752H24.2967V232.235Z" fill="#B78118" />
    <path d="M36.1335 242.626H21.3411V219.48H35.6897V222.654H24.6131V229.38H34.4668V232.55H24.6131V239.437H36.1335V242.626ZM21.9691 241.992H35.5055V240.085H23.9851V231.916H33.82V230.009H23.9851V222.02H35.0617V220.114H21.9691V241.992Z" fill="#B78118" />
    <path d="M51.908 231.415C51.2216 230.869 50.4677 230.416 49.6653 230.066C48.8579 229.714 48.1072 229.408 47.4037 229.151C46.9599 228.999 46.5302 228.836 46.1147 228.674C45.7201 228.513 45.3472 228.301 45.0052 228.045C44.6781 227.801 44.4062 227.489 44.2073 227.13C43.993 226.714 43.8889 226.25 43.9051 225.781C43.8887 224.863 44.2062 223.971 44.7975 223.274C45.3876 222.569 46.3036 222.216 47.5312 222.216C47.9996 222.212 48.4664 222.271 48.9193 222.392C49.3244 222.497 49.7182 222.643 50.095 222.826C50.4256 222.985 50.7417 223.173 51.0393 223.388C51.2767 223.558 51.5009 223.746 51.7097 223.951C51.9599 223.627 52.2102 223.307 52.4557 222.998C52.7012 222.688 52.9278 222.354 53.2017 222.044C52.3121 221.219 51.2755 220.572 50.1469 220.138C49.2961 219.849 48.4053 219.697 47.5076 219.69C46.4935 219.659 45.4847 219.846 44.5472 220.238C43.8014 220.56 43.1379 221.049 42.6067 221.668C42.1286 222.218 41.7685 222.862 41.5491 223.56C41.3391 224.246 41.2433 224.963 41.2658 225.681C41.2602 226.507 41.4444 227.323 41.804 228.064C42.115 228.679 42.5305 229.234 43.0316 229.704C43.4816 230.125 43.9907 230.477 44.5425 230.748C45.0713 231.005 45.5293 231.225 45.9117 231.358C46.3839 231.549 46.9693 231.754 47.6303 231.968C48.2877 232.183 48.9208 232.467 49.5189 232.817C50.1074 233.159 50.6251 233.612 51.044 234.151C51.4802 234.756 51.6999 235.492 51.6672 236.239C51.6787 236.805 51.5591 237.367 51.3178 237.879C51.0935 238.336 50.7709 238.736 50.3735 239.051C49.968 239.368 49.5089 239.609 49.0185 239.761C48.5028 239.92 47.9665 240.001 47.4273 240C46.8447 240.004 46.2649 239.917 45.7087 239.742C45.1957 239.579 44.7043 239.353 44.245 239.07C43.8086 238.796 43.3935 238.488 43.0033 238.15C42.6568 237.851 42.3274 237.533 42.0165 237.197L40.364 238.865C40.6869 239.349 41.0782 239.783 41.5255 240.152C42.0512 240.6 42.6207 240.993 43.2252 241.325C43.8923 241.69 44.5968 241.981 45.3263 242.192C46.0933 242.418 46.8882 242.532 47.687 242.531C48.5536 242.534 49.4143 242.387 50.2319 242.097C51.0124 241.822 51.7324 241.396 52.3518 240.843C52.9544 240.29 53.4368 239.616 53.7683 238.865C54.1272 238.046 54.306 237.158 54.2924 236.263C54.3214 235.265 54.085 234.277 53.6077 233.403C53.1721 232.637 52.5951 231.962 51.908 231.415Z" fill="#B78118" />
    <path d="M47.687 242.864C46.8612 242.864 46.0395 242.747 45.246 242.516C44.4941 242.296 43.7676 241.996 43.0788 241.62C42.4563 241.279 41.8695 240.875 41.3271 240.414C40.8556 240.025 40.4436 239.567 40.1043 239.056L39.9673 238.841L42.0306 236.758L42.2526 236.997C42.5496 237.323 42.8649 237.632 43.1968 237.921C43.5729 238.248 43.9739 238.545 44.3961 238.808C44.8406 239.08 45.3162 239.296 45.8125 239.451C46.8286 239.762 47.9127 239.762 48.9287 239.451C49.3838 239.317 49.811 239.101 50.1894 238.813C50.5479 238.525 50.8383 238.16 51.0392 237.745C51.26 237.278 51.3683 236.765 51.3556 236.248C51.3906 235.568 51.1959 234.896 50.8032 234.342C50.4136 233.837 49.933 233.412 49.3867 233.088C48.8057 232.751 48.1918 232.474 47.5548 232.264C46.9032 232.054 46.3177 231.844 45.8173 231.649C45.4301 231.496 44.9627 231.286 44.4292 231.029C43.8511 230.742 43.3168 230.373 42.8427 229.933C42.3146 229.439 41.8767 228.855 41.549 228.207C41.1682 227.417 40.9712 226.55 40.973 225.672C40.9536 224.92 41.0541 224.17 41.2705 223.45C41.5067 222.661 41.9134 221.934 42.4612 221.323C43.009 220.711 43.6844 220.23 44.4386 219.914C45.4165 219.505 46.4685 219.309 47.5264 219.337C48.4585 219.349 49.3827 219.51 50.2649 219.814C51.4309 220.257 52.5028 220.92 53.4236 221.768L53.6597 221.968L53.4661 222.211C53.2158 222.53 52.9656 222.85 52.7248 223.164C52.484 223.479 52.229 223.808 51.9741 224.118L51.7522 224.394L51.5067 224.146C51.3084 223.954 51.097 223.775 50.874 223.612C50.5914 223.41 50.293 223.232 49.9816 223.079C49.6195 222.909 49.2435 222.772 48.8579 222.669C48.4326 222.556 47.9945 222.5 47.5548 222.502C46.4263 222.502 45.5859 222.821 45.0618 223.455C44.516 224.094 44.2249 224.914 44.245 225.757C44.229 226.17 44.3184 226.581 44.5047 226.949C44.6802 227.27 44.9217 227.55 45.2129 227.769C45.5376 228.006 45.8895 228.203 46.2611 228.355C46.6671 228.522 47.0968 228.684 47.5264 228.832C48.2347 229.094 49.0043 229.404 49.8164 229.761C50.6425 230.122 51.4186 230.59 52.1252 231.153C52.8512 231.73 53.4617 232.442 53.9241 233.25C54.427 234.173 54.6779 235.214 54.6512 236.267C54.6628 237.209 54.4744 238.142 54.0988 239.003C53.7432 239.794 53.2287 240.502 52.5879 241.082C51.9407 241.663 51.1867 242.11 50.3688 242.397C49.5084 242.709 48.601 242.867 47.687 242.864ZM40.7747 238.922C41.0518 239.292 41.3685 239.629 41.719 239.928C42.2286 240.362 42.7807 240.742 43.3668 241.063C44.0139 241.419 44.698 241.702 45.4065 241.906C46.9518 242.369 48.6012 242.337 50.128 241.816C50.8685 241.553 51.5515 241.149 52.1393 240.624C52.7166 240.102 53.1798 239.464 53.4991 238.751C53.8375 237.973 54.0066 237.131 53.9949 236.282C54.0242 235.336 53.8025 234.4 53.3528 233.57C52.9304 232.834 52.3727 232.187 51.7097 231.663C51.0433 231.137 50.3135 230.698 49.5378 230.357C48.7351 230.004 47.9797 229.699 47.2951 229.447C46.856 229.299 46.4122 229.137 45.992 228.97C45.5727 228.798 45.1763 228.573 44.8116 228.303C44.4469 228.034 44.1454 227.687 43.9287 227.287C43.688 226.825 43.5693 226.308 43.584 225.786C43.5681 224.793 43.9124 223.828 44.5519 223.074C45.2035 222.297 46.2044 221.901 47.5264 221.901C48.0218 221.899 48.5154 221.961 48.9948 222.087C49.4199 222.206 49.8326 222.365 50.2271 222.564C50.5741 222.728 50.9045 222.926 51.2139 223.155C51.3792 223.279 51.5303 223.393 51.6861 223.508L52.2196 222.816C52.4037 222.573 52.5926 222.34 52.7815 222.092C51.983 221.383 51.063 220.827 50.0666 220.452C49.2464 220.173 48.3874 220.026 47.5217 220.019C46.5522 219.989 45.5874 220.165 44.6888 220.533C43.9882 220.834 43.3625 221.288 42.8569 221.863C42.4068 222.393 42.0708 223.011 41.8701 223.679C41.6705 224.333 41.578 225.016 41.5963 225.7C41.5897 226.481 41.7626 227.253 42.1015 227.955C42.3945 228.535 42.786 229.06 43.2582 229.504C43.6809 229.902 44.1579 230.238 44.6747 230.5C45.194 230.753 45.6473 230.953 46.0203 231.101C46.4924 231.291 47.0779 231.496 47.72 231.701C48.4001 231.926 49.0551 232.222 49.6747 232.583C50.3001 232.951 50.8498 233.436 51.2942 234.013C51.7702 234.675 52.0114 235.479 51.9788 236.296C51.9911 236.912 51.8601 237.523 51.5964 238.079C51.3536 238.578 51.0036 239.016 50.5718 239.361C50.1362 239.7 49.6435 239.957 49.1176 240.119C47.9772 240.469 46.7593 240.469 45.619 240.119C45.0813 239.945 44.5661 239.706 44.0845 239.409C43.6334 239.126 43.2055 238.807 42.805 238.455C42.5122 238.203 42.2478 237.979 42.0165 237.721L40.7747 238.922Z" fill="#B78118" />
    <path d="M62.9373 219.799H60.2933V242.292H62.9373V219.799Z" fill="#B78118" />
    <path d="M63.2678 242.626H59.9628V219.48H63.2678V242.626ZM60.6238 241.992H62.6398V220.114H60.6238V241.992Z" fill="#B78118" />
    <path d="M73.4898 224.733C74.28 223.911 75.2194 223.251 76.2566 222.788C77.3245 222.313 78.48 222.073 79.6467 222.082C80.4228 222.077 81.1956 222.185 81.9413 222.402C82.6636 222.618 83.3578 222.921 84.0093 223.303C84.2407 222.936 84.4815 222.578 84.7411 222.225C85.0008 221.873 85.2369 221.515 85.473 221.148C84.6087 220.637 83.6838 220.238 82.7204 219.961C81.7204 219.676 80.6857 219.535 79.6467 219.542C78.1249 219.532 76.6179 219.844 75.2226 220.457C73.8756 221.045 72.6502 221.885 71.6107 222.931C70.5723 223.983 69.745 225.227 69.1744 226.596C68.5784 228.013 68.2763 229.538 68.2868 231.077C68.2749 232.611 68.5771 234.132 69.1744 235.543C70.3255 238.302 72.4946 240.5 75.2226 241.673C76.6203 242.277 78.1263 242.583 79.6467 242.574C80.6865 242.578 81.7215 242.432 82.7204 242.14C83.6684 241.856 84.581 241.462 85.4399 240.967V234.58C85.4765 234.073 85.3718 233.567 85.1378 233.117C84.9889 232.94 84.7986 232.804 84.5841 232.721C84.3697 232.637 84.1379 232.61 83.9102 232.64H79.5192V235.181H82.0641C82.404 235.181 82.6118 235.252 82.6873 235.39C82.7803 235.63 82.819 235.887 82.8006 236.144V239.423C81.7935 239.81 80.7242 240.005 79.6467 240C78.48 240.009 77.3245 239.769 76.2566 239.294C75.226 238.836 74.288 238.19 73.4898 237.388C72.2569 236.125 71.4202 234.523 71.0843 232.782C70.7484 231.042 70.9282 229.24 71.6013 227.602C72.0462 226.534 72.6869 225.56 73.4898 224.733Z" fill="#B78118" />
    <path d="M79.6466 242.864C78.0843 242.874 76.5367 242.559 75.0999 241.94C72.3012 240.741 70.0732 238.492 68.8864 235.667C68.2819 234.211 67.9706 232.648 67.9706 231.07C67.9706 229.491 68.2819 227.928 68.8864 226.472C69.4746 225.067 70.324 223.789 71.3888 222.707C72.4566 221.634 73.7137 220.773 75.0951 220.166C76.5305 219.533 78.0804 219.209 79.6466 219.213C80.7144 219.209 81.7775 219.355 82.8053 219.647C83.7972 219.93 84.7491 220.34 85.6382 220.867L85.9262 221.034L85.7468 221.31C85.5107 221.682 85.2746 222.044 85.0055 222.402C84.7364 222.759 84.5098 223.107 84.2831 223.465L84.1179 223.717L83.8582 223.565C83.2298 223.195 82.5591 222.904 81.861 222.697C81.1445 222.488 80.402 222.384 79.6561 222.387C78.5331 222.38 77.4213 222.612 76.3935 223.069C75.3931 223.517 74.4862 224.152 73.7212 224.942C72.9499 225.746 72.3349 226.689 71.9081 227.721C71.2538 229.299 71.0768 231.038 71.3994 232.717C71.722 234.397 72.5299 235.942 73.7212 237.159C74.4924 237.934 75.3982 238.559 76.3935 239.003C77.4216 239.459 78.5335 239.689 79.6561 239.68C80.6203 239.685 81.5783 239.524 82.489 239.204V236.148C82.5065 235.945 82.4808 235.74 82.4134 235.548C82.3032 235.507 82.1857 235.491 82.0688 235.5H79.2123V232.33H83.9337C84.2128 232.296 84.4958 232.334 84.7566 232.44C85.0174 232.546 85.2475 232.716 85.4257 232.936C85.6943 233.438 85.817 234.006 85.7798 234.575V241.12L85.6193 241.21C84.7398 241.719 83.8051 242.124 82.8336 242.416C81.7983 242.72 80.7248 242.871 79.6466 242.864ZM79.6466 219.861C78.1689 219.852 76.7055 220.154 75.3501 220.748C74.039 221.321 72.8459 222.138 71.8326 223.155C70.8256 224.179 70.0241 225.389 69.4718 226.72C68.9001 228.098 68.6056 229.576 68.6056 231.07C68.6056 232.563 68.9001 234.042 69.4718 235.419C70.5972 238.093 72.7061 240.222 75.3548 241.358C76.7149 241.941 78.1785 242.238 79.6561 242.23C80.6655 242.235 81.6703 242.093 82.6401 241.811C83.5066 241.553 84.3425 241.199 85.133 240.758V234.561C85.165 234.116 85.0786 233.67 84.8828 233.269C84.7458 233.06 84.4106 232.95 83.9385 232.95H79.8638V234.857H82.0924C82.2671 234.857 82.7911 234.857 82.9942 235.233C83.1111 235.52 83.1612 235.83 83.1405 236.139V239.633L82.9375 239.714C81.8956 240.114 80.7897 240.317 79.675 240.314C78.4644 240.321 77.266 240.071 76.1575 239.58C75.0909 239.105 74.1209 238.434 73.2962 237.602C72.0217 236.293 71.1574 234.633 70.8114 232.831C70.4655 231.029 70.6531 229.164 71.351 227.469C71.8056 226.362 72.4641 225.353 73.2915 224.494C74.1118 223.646 75.0844 222.964 76.1575 222.483C77.266 221.992 78.4644 221.742 79.675 221.749C80.4735 221.748 81.2682 221.86 82.0357 222.082C82.6904 222.276 83.3233 222.538 83.9243 222.864C84.1132 222.583 84.302 222.302 84.505 222.025C84.7081 221.749 84.8686 221.506 85.0433 221.243C84.2845 220.824 83.4815 220.491 82.6495 220.252C81.6718 219.979 80.6609 219.848 79.6466 219.861Z" fill="#B78118" />
    <path d="M108.641 236.43C108.641 236.601 108.679 236.773 108.689 236.944C108.698 237.116 108.717 237.287 108.736 237.459C108.632 237.307 108.533 237.168 108.434 237.04L108.131 236.625C105.399 233.622 102.684 230.649 99.9869 227.707L91.8376 218.794V242.292H94.4769V226.034C94.4769 225.862 94.4438 225.691 94.4297 225.519C94.4155 225.347 94.4061 225.176 94.3825 225.004L94.6846 225.424C94.7791 225.552 94.8829 225.691 94.9868 225.838L103.136 234.58L111.285 243.317V219.799H108.641V236.43Z" fill="#B78118" />
    <path d="M111.597 244.118L94.7884 226.091V242.626H91.5164V217.959L92.0689 218.555L100.213 227.473C102.898 230.403 105.604 233.361 108.33 236.348V219.48H111.597V244.118ZM93.9197 223.798L94.6374 224.818L94.9348 225.233C95.034 225.362 95.1378 225.505 95.2417 225.657L110.955 242.521V220.119H108.943V236.396C108.943 236.568 108.977 236.739 108.991 236.911C109.005 237.083 109.014 237.24 109.038 237.388L109.198 238.636L108.467 237.616L108.169 237.202L107.862 236.777L99.7413 227.893L92.135 219.575V241.978H94.151V226.034C94.151 225.896 94.1133 225.714 94.1038 225.557C94.0944 225.4 94.0755 225.228 94.0566 225.08L93.9197 223.798Z" fill="#B78118" />
    <path d="M147.655 239.718C147.201 240.036 146.715 240.305 146.205 240.519C145.756 240.704 145.275 240.799 144.789 240.8C144.159 240.787 143.544 240.608 143.004 240.281C142.249 239.816 141.572 239.234 140.998 238.555C141.863 237.441 142.576 236.215 143.118 234.909C143.656 233.646 144.035 232.32 144.246 230.962H147.079V229.709H139.605V230.962H142.867C142.829 231.483 142.742 231.998 142.608 232.502C142.461 233.071 142.275 233.628 142.051 234.17C141.557 235.362 140.911 236.484 140.129 237.507C139.77 237.054 139.35 236.491 138.878 235.81C138.406 235.128 137.933 234.413 137.461 233.655C136.989 232.898 136.517 232.144 136.045 231.396C135.573 230.648 135.214 229.966 134.902 229.394C135.588 229.076 136.26 228.744 136.918 228.398C137.543 228.08 138.13 227.693 138.67 227.244C139.172 226.829 139.592 226.321 139.907 225.748C140.199 225.144 140.358 224.482 140.373 223.81C140.388 223.138 140.258 222.47 139.992 221.854C139.752 221.347 139.407 220.899 138.982 220.538C138.551 220.182 138.055 219.915 137.523 219.752C136.961 219.579 136.377 219.492 135.79 219.494C135.033 219.485 134.281 219.629 133.58 219.918C132.947 220.181 132.37 220.565 131.88 221.048C131.41 221.516 131.034 222.074 130.776 222.688C130.512 223.305 130.377 223.97 130.379 224.642C130.383 225.037 130.422 225.431 130.497 225.819C130.576 226.236 130.684 226.647 130.818 227.049C130.95 227.464 131.101 227.874 131.29 228.288C131.479 228.703 131.64 229.108 131.824 229.504C131.194 229.822 130.54 230.166 129.86 230.538C129.2 230.919 128.59 231.384 128.047 231.92C127.503 232.461 127.057 233.093 126.729 233.789C126.371 234.564 126.195 235.412 126.215 236.267C126.198 237.211 126.408 238.146 126.828 238.989C127.224 239.77 127.773 240.461 128.443 241.02C129.126 241.58 129.903 242.011 130.738 242.292C131.594 242.584 132.492 242.732 133.396 242.731C134.436 242.737 135.467 242.54 136.432 242.149C137.382 241.762 138.27 241.233 139.067 240.581C139.737 241.252 140.512 241.806 141.361 242.221C142.102 242.561 142.908 242.735 143.722 242.731C144.51 242.722 145.289 242.56 146.017 242.254C146.906 241.859 147.709 241.289 148.377 240.576C148.283 240.41 148.177 240.251 148.061 240.1C147.935 239.963 147.799 239.835 147.655 239.718ZM133.089 222.43C133.224 222.088 133.428 221.778 133.689 221.52C133.941 221.268 134.244 221.073 134.576 220.948C134.919 220.813 135.285 220.745 135.653 220.748C135.991 220.746 136.327 220.806 136.644 220.924C136.956 221.036 137.239 221.215 137.475 221.448C137.727 221.704 137.922 222.011 138.047 222.349C138.202 222.765 138.278 223.206 138.269 223.651C138.278 224.197 138.173 224.739 137.962 225.243C137.761 225.706 137.483 226.132 137.14 226.501C136.771 226.888 136.355 227.228 135.903 227.511C135.408 227.827 134.894 228.11 134.364 228.36C133.908 227.483 133.526 226.57 133.221 225.629C133.011 224.985 132.893 224.314 132.872 223.636C132.867 223.224 132.94 222.814 133.089 222.43ZM136.224 240.719C135.567 240.999 134.86 241.143 134.147 241.144C133.539 241.143 132.937 241.035 132.367 240.824C131.786 240.616 131.253 240.292 130.799 239.871C130.318 239.416 129.937 238.863 129.68 238.25C129.381 237.521 129.235 236.737 129.251 235.948C129.243 235.356 129.324 234.766 129.491 234.199C129.644 233.702 129.867 233.23 130.152 232.797C130.434 232.379 130.769 231.999 131.149 231.668C131.538 231.317 131.953 230.996 132.39 230.71C132.598 231.139 132.863 231.611 133.146 232.14C133.429 232.669 133.755 233.203 134.09 233.765C134.425 234.327 134.775 234.89 135.138 235.457C135.502 236.024 135.861 236.568 136.219 237.083C136.578 237.597 136.918 238.064 137.244 238.512C137.57 238.961 137.863 239.304 138.122 239.594C137.542 240.053 136.903 240.431 136.224 240.719Z" fill="#B78118" />
    <path d="M143.689 243.045C142.832 243.048 141.985 242.864 141.205 242.507C140.406 242.122 139.671 241.612 139.029 240.996C138.262 241.584 137.421 242.065 136.526 242.426C134.634 243.173 132.542 243.225 130.615 242.574C129.744 242.281 128.933 241.83 128.221 241.244C127.517 240.659 126.94 239.934 126.526 239.113C126.085 238.226 125.862 237.245 125.875 236.253C125.857 235.35 126.044 234.455 126.422 233.636C126.768 232.907 127.236 232.245 127.806 231.677C128.371 231.12 129.006 230.639 129.694 230.247C130.266 229.914 130.837 229.609 131.399 229.332C131.257 229.022 131.12 228.708 130.988 228.379C130.813 227.959 130.658 227.535 130.516 227.116C130.38 226.699 130.272 226.274 130.19 225.843C130.109 225.437 130.068 225.023 130.067 224.609C130.066 223.894 130.209 223.187 130.488 222.53C130.763 221.879 131.16 221.289 131.659 220.791C132.178 220.278 132.79 219.872 133.462 219.594C134.786 219.063 136.249 219 137.612 219.418C138.187 219.59 138.722 219.877 139.185 220.262C139.645 220.654 140.017 221.142 140.275 221.692C140.561 222.354 140.701 223.072 140.685 223.795C140.668 224.517 140.496 225.228 140.181 225.877C139.849 226.485 139.405 227.024 138.873 227.464C138.314 227.927 137.706 228.327 137.06 228.655C136.493 228.946 135.922 229.232 135.337 229.513C135.61 230.019 135.941 230.586 136.314 231.205C136.763 231.954 137.23 232.702 137.73 233.46C138.231 234.218 138.675 234.938 139.147 235.605C139.506 236.12 139.836 236.558 140.134 236.963C140.429 236.558 140.702 236.136 140.95 235.7C141.257 235.16 141.532 234.601 141.772 234.027C141.986 233.496 142.167 232.951 142.315 232.397C142.414 232.023 142.486 231.642 142.532 231.258H139.284V229.351H147.419V231.258H144.529C144.304 232.547 143.933 233.805 143.425 235.009C142.903 236.256 142.231 237.433 141.423 238.512C141.931 239.086 142.519 239.58 143.17 239.981C143.603 240.249 144.095 240.409 144.602 240.448C145.11 240.486 145.619 240.401 146.087 240.2C146.574 239.993 147.038 239.736 147.471 239.432L147.679 239.289L147.863 239.461C148.005 239.594 148.138 239.738 148.259 239.89C148.382 240.05 148.495 240.218 148.599 240.39L148.731 240.605L148.557 240.781C147.859 241.522 147.023 242.117 146.097 242.531C145.335 242.857 144.517 243.032 143.689 243.045ZM139.062 240.186L139.26 240.376C139.905 241.02 140.65 241.553 141.465 241.954C142.156 242.266 142.904 242.431 143.662 242.436C144.419 242.442 145.17 242.289 145.866 241.987C146.638 241.646 147.339 241.161 147.934 240.557C147.884 240.48 147.831 240.405 147.773 240.333C147.724 240.268 147.67 240.206 147.613 240.147C147.206 240.42 146.775 240.651 146.324 240.839C145.768 241.072 145.166 241.171 144.566 241.127C143.965 241.083 143.384 240.898 142.867 240.586C142.085 240.101 141.383 239.497 140.785 238.794L140.606 238.594L140.771 238.384C142.433 236.21 143.527 233.65 143.953 230.939L143.996 230.672H146.796V230.047H139.916V230.672H143.222L143.198 231.01C143.157 231.549 143.069 232.084 142.934 232.607C142.781 233.189 142.59 233.761 142.362 234.318C142.113 234.917 141.826 235.5 141.503 236.063C141.172 236.641 140.803 237.197 140.398 237.726L140.157 238.041L139.907 237.731C139.539 237.254 139.114 236.696 138.642 236.015C138.17 235.333 137.697 234.613 137.197 233.851C136.696 233.088 136.253 232.335 135.78 231.582C135.308 230.829 134.94 230.152 134.633 229.566L134.477 229.275L134.775 229.132C135.455 228.814 136.122 228.484 136.777 228.141C137.382 227.832 137.952 227.458 138.476 227.025C138.947 226.634 139.341 226.157 139.638 225.619C139.904 225.06 140.049 224.449 140.062 223.828C140.075 223.207 139.956 222.591 139.713 222.02C139.491 221.55 139.168 221.135 138.769 220.805C138.369 220.476 137.909 220.23 137.414 220.08C136.883 219.917 136.331 219.835 135.776 219.837C135.061 219.828 134.352 219.963 133.689 220.233C133.093 220.482 132.55 220.842 132.088 221.296C131.647 221.736 131.295 222.259 131.054 222.836C130.806 223.413 130.679 224.036 130.681 224.666C130.684 225.04 130.72 225.413 130.79 225.781C130.868 226.185 130.972 226.583 131.101 226.973C131.234 227.378 131.385 227.788 131.55 228.188C131.715 228.589 131.895 228.999 132.079 229.394L132.216 229.68L131.928 229.814C131.295 230.114 130.643 230.457 129.987 230.838C129.35 231.205 128.763 231.654 128.24 232.173C127.721 232.686 127.295 233.288 126.984 233.951C126.652 234.685 126.491 235.485 126.512 236.291C126.498 237.184 126.698 238.067 127.093 238.865C127.468 239.611 127.992 240.27 128.632 240.8C129.284 241.335 130.026 241.747 130.823 242.016C132.608 242.62 134.547 242.571 136.3 241.878C137.222 241.503 138.083 240.99 138.854 240.357L139.062 240.186ZM134.147 241.472C133.502 241.472 132.863 241.356 132.258 241.129C131.636 240.904 131.066 240.554 130.582 240.1C130.068 239.614 129.661 239.024 129.388 238.369C129.065 237.603 128.904 236.776 128.915 235.943C128.908 235.319 128.994 234.697 129.17 234.099C129.333 233.572 129.568 233.072 129.869 232.612C130.166 232.17 130.518 231.769 130.917 231.42C131.321 231.07 131.75 230.751 132.202 230.467L132.499 230.281L132.65 230.595C132.848 231.01 133.099 231.487 133.396 232.025C133.694 232.564 134.005 233.083 134.34 233.641C134.676 234.199 135.02 234.761 135.384 235.328C135.747 235.896 136.102 236.434 136.456 236.944C136.81 237.454 137.15 237.898 137.475 238.346C137.801 238.794 138.089 239.127 138.335 239.409L138.561 239.661L138.297 239.871C137.691 240.348 137.026 240.742 136.319 241.043C135.628 241.321 134.89 241.459 134.147 241.449V241.472ZM132.258 231.196C131.94 231.414 131.634 231.649 131.342 231.901C130.984 232.215 130.666 232.574 130.398 232.969C130.13 233.377 129.922 233.822 129.779 234.289C129.621 234.826 129.545 235.384 129.553 235.943C129.535 236.688 129.672 237.429 129.954 238.117C130.194 238.69 130.55 239.206 130.998 239.633C131.421 240.028 131.919 240.335 132.461 240.533C133.638 240.965 134.934 240.931 136.087 240.438C136.639 240.202 137.164 239.905 137.65 239.552C137.447 239.308 137.23 239.032 136.984 238.713C136.654 238.279 136.314 237.807 135.95 237.283C135.587 236.758 135.228 236.225 134.864 235.648C134.501 235.071 134.147 234.509 133.812 233.946C133.476 233.384 133.155 232.84 132.867 232.316C132.645 231.892 132.442 231.515 132.268 231.186L132.258 231.196ZM134.213 228.813L134.076 228.541C133.609 227.649 133.22 226.718 132.915 225.757C132.695 225.084 132.572 224.383 132.551 223.674C132.544 223.219 132.626 222.768 132.792 222.345C132.944 221.963 133.172 221.618 133.462 221.329C133.744 221.047 134.082 220.828 134.454 220.686C135.192 220.416 136.001 220.416 136.739 220.686C137.092 220.814 137.414 221.017 137.683 221.282C137.966 221.569 138.186 221.914 138.33 222.292C138.5 222.749 138.582 223.234 138.571 223.722C138.581 224.313 138.469 224.899 138.24 225.443C138.027 225.94 137.728 226.395 137.357 226.787C136.973 227.195 136.538 227.553 136.064 227.85C135.557 228.17 135.032 228.46 134.491 228.717L134.213 228.813ZM133.373 222.588C133.239 222.934 133.173 223.303 133.179 223.674C133.2 224.323 133.313 224.965 133.514 225.581C133.779 226.4 134.107 227.197 134.496 227.964C134.919 227.756 135.33 227.525 135.729 227.273C136.156 227.005 136.549 226.685 136.899 226.32C137.22 225.98 137.478 225.586 137.664 225.157C137.856 224.692 137.951 224.192 137.943 223.689C137.952 223.286 137.886 222.885 137.749 222.507C137.638 222.21 137.465 221.941 137.244 221.715C137.043 221.504 136.798 221.341 136.526 221.239C135.928 221.022 135.274 221.022 134.676 221.239C134.386 221.349 134.122 221.52 133.901 221.739C133.672 221.968 133.492 222.243 133.373 222.545V222.588Z" fill="#B78118" />
    <path d="M173.349 232.778C172.934 232.308 172.438 231.917 171.886 231.625C171.34 231.331 170.757 231.115 170.153 230.981C171.322 230.683 172.335 229.947 172.986 228.922C173.627 227.872 173.955 226.657 173.93 225.424C173.952 224.544 173.778 223.671 173.42 222.869C173.1 222.175 172.613 221.572 172.004 221.115C171.344 220.64 170.598 220.302 169.808 220.119C168.88 219.898 167.929 219.79 166.975 219.799H161.144V242.292H167.542C168.445 242.293 169.345 242.168 170.214 241.92C171.041 241.696 171.823 241.326 172.523 240.829C173.183 240.355 173.732 239.74 174.128 239.027C174.547 238.255 174.756 237.385 174.733 236.506C174.742 235.792 174.613 235.083 174.355 234.418C174.113 233.819 173.773 233.264 173.349 232.778ZM163.784 222.335H167.141C168.197 222.287 169.242 222.569 170.134 223.141C170.896 223.674 171.277 224.574 171.277 225.838C171.298 226.356 171.212 226.873 171.023 227.355C170.835 227.837 170.548 228.273 170.181 228.636C169.368 229.373 168.298 229.753 167.207 229.694H163.765L163.784 222.335ZM171.711 237.697C171.453 238.149 171.1 238.538 170.677 238.837C170.219 239.158 169.707 239.392 169.166 239.528C168.562 239.68 167.942 239.755 167.32 239.752H163.784V232.235H166.871C167.526 232.235 168.179 232.31 168.817 232.459C169.408 232.591 169.971 232.824 170.483 233.15C170.96 233.455 171.359 233.868 171.65 234.356C171.953 234.882 172.107 235.482 172.093 236.091C172.108 236.651 171.976 237.205 171.711 237.697Z" fill="#B78118" />
    <path d="M167.542 242.626H160.828V219.48H166.966C167.951 219.472 168.934 219.584 169.893 219.813C170.723 220.007 171.508 220.364 172.202 220.862C172.852 221.348 173.371 221.99 173.713 222.731C174.091 223.576 174.277 224.496 174.256 225.424C174.279 226.717 173.935 227.991 173.264 229.094C172.756 229.908 172.022 230.552 171.154 230.948C171.455 231.06 171.748 231.192 172.032 231.344C172.619 231.653 173.146 232.068 173.585 232.569C174.03 233.083 174.387 233.667 174.643 234.299C174.92 235 175.058 235.75 175.049 236.506C175.069 237.44 174.846 238.364 174.402 239.184C173.984 239.939 173.405 240.59 172.707 241.091C171.976 241.609 171.161 241.994 170.299 242.23C169.402 242.488 168.474 242.622 167.542 242.626ZM161.475 241.973H167.556C168.431 241.974 169.301 241.854 170.143 241.615C170.934 241.399 171.682 241.046 172.353 240.572C172.976 240.125 173.493 239.546 173.869 238.875C174.262 238.145 174.458 237.322 174.435 236.491C174.444 235.819 174.322 235.152 174.076 234.528C173.85 233.96 173.531 233.435 173.132 232.974C172.742 232.532 172.276 232.164 171.758 231.887C171.236 231.611 170.681 231.405 170.106 231.277L168.869 231.01L170.087 230.662C171.183 230.39 172.136 229.709 172.754 228.755C173.358 227.751 173.665 226.593 173.642 225.419C173.664 224.586 173.502 223.76 173.17 222.997C172.87 222.352 172.416 221.791 171.848 221.367C171.223 220.914 170.515 220.59 169.766 220.414C168.856 220.198 167.924 220.093 166.989 220.099H161.475V241.973ZM167.334 240.066H163.486V231.916H166.886C167.564 231.917 168.24 231.995 168.902 232.149C169.529 232.291 170.127 232.539 170.672 232.883C171.184 233.217 171.613 233.663 171.928 234.189C172.257 234.768 172.42 235.428 172.4 236.096C172.414 236.71 172.269 237.318 171.98 237.859C171.698 238.351 171.313 238.774 170.852 239.099C170.363 239.444 169.816 239.694 169.237 239.837C168.61 239.997 167.966 240.076 167.32 240.071L167.334 240.066ZM164.114 239.432H167.334C167.929 239.434 168.522 239.362 169.1 239.218C169.606 239.091 170.086 238.873 170.516 238.574C170.902 238.301 171.224 237.946 171.461 237.535C171.694 237.096 171.812 236.604 171.801 236.105C171.812 235.55 171.67 235.002 171.39 234.523C171.122 234.078 170.757 233.702 170.323 233.422C169.84 233.114 169.308 232.895 168.75 232.774C168.131 232.627 167.498 232.554 166.862 232.554H164.09L164.114 239.432ZM167.24 230.009H163.486V222.02H167.14C168.26 221.974 169.367 222.273 170.313 222.878C171.163 223.474 171.593 224.47 171.593 225.838C171.614 226.399 171.519 226.958 171.313 227.48C171.108 228.001 170.796 228.473 170.398 228.865C169.531 229.654 168.391 230.066 167.225 230.014L167.24 230.009ZM164.114 229.375H167.24C168.247 229.434 169.237 229.092 169.997 228.422C170.335 228.089 170.598 227.689 170.771 227.246C170.943 226.803 171.021 226.328 170.998 225.853C170.998 224.69 170.667 223.894 169.988 223.417C169.142 222.88 168.153 222.619 167.155 222.669H164.095L164.114 229.375Z" fill="#B78118" />
    <path d="M192.495 234.933C192.509 235.677 192.368 236.416 192.079 237.102C191.823 237.709 191.438 238.253 190.951 238.694C190.454 239.132 189.874 239.465 189.247 239.671C187.838 240.122 186.326 240.122 184.917 239.671C184.291 239.465 183.712 239.132 183.217 238.694C182.732 238.254 182.351 237.71 182.103 237.102C181.828 236.413 181.693 235.675 181.706 234.933V219.799H179.062V235.028C179.042 236.14 179.248 237.245 179.667 238.274C180.042 239.189 180.62 240.004 181.357 240.657C182.1 241.303 182.966 241.79 183.902 242.087C185.975 242.736 188.193 242.736 190.266 242.087C191.202 241.789 192.067 241.302 192.811 240.657C193.548 240.001 194.13 239.187 194.516 238.274C194.946 237.248 195.156 236.142 195.134 235.028V219.799H192.495V234.933Z" fill="#B78118" />
    <path d="M187.084 242.864C185.972 242.88 184.865 242.719 183.803 242.388C182.828 242.075 181.926 241.567 181.149 240.896C180.381 240.215 179.776 239.368 179.379 238.417C178.945 237.348 178.731 236.202 178.751 235.047V219.48H182.018V234.933C182.006 235.633 182.133 236.328 182.391 236.978C182.622 237.542 182.975 238.047 183.425 238.455C183.891 238.864 184.434 239.176 185.021 239.37C186.364 239.797 187.804 239.797 189.147 239.37C189.733 239.177 190.275 238.865 190.738 238.455C191.192 238.045 191.552 237.539 191.791 236.973C192.06 236.328 192.192 235.633 192.179 234.933V219.48H195.469V235.028C195.49 236.186 195.27 237.336 194.823 238.403C194.415 239.35 193.806 240.195 193.038 240.877C192.261 241.548 191.359 242.056 190.384 242.369C189.317 242.708 188.203 242.876 187.084 242.864ZM179.379 220.114V235.028C179.359 236.097 179.555 237.16 179.955 238.15C180.314 239.012 180.863 239.78 181.56 240.395C182.273 241.012 183.101 241.477 183.996 241.763C186.007 242.386 188.156 242.386 190.167 241.763C191.064 241.477 191.894 241.012 192.608 240.395C193.306 239.776 193.86 239.007 194.228 238.145C194.639 237.159 194.841 236.098 194.823 235.028V220.114H192.806V234.933C192.82 235.721 192.67 236.504 192.367 237.23C192.091 237.879 191.679 238.46 191.159 238.932C190.631 239.397 190.016 239.75 189.35 239.971C187.876 240.443 186.292 240.443 184.818 239.971C184.151 239.75 183.536 239.395 183.009 238.927C182.491 238.457 182.082 237.875 181.815 237.225C181.521 236.498 181.376 235.718 181.39 234.933V220.114H179.379Z" fill="#B78118" />
    <path d="M203.505 219.799H200.861V242.292H203.505V219.799Z" fill="#B78118" />
    <path d="M203.822 242.626H200.55V219.48H203.822V242.626ZM201.178 241.992H203.194V220.114H201.178V241.992Z" fill="#B78118" />
    <path d="M211.716 219.799H209.077V242.292H223.236V239.752H211.716V219.799Z" fill="#B78118" />
    <path d="M223.553 242.626H208.76V219.48H212.032V239.437H223.553V242.626ZM209.388 241.992H222.92V240.085H211.4V220.114H209.388V241.992Z" fill="#B78118" />
    <path d="M243.482 226.42C242.919 225.085 242.097 223.878 241.065 222.869C240.038 221.882 238.826 221.112 237.5 220.605C236.117 220.076 234.649 219.81 233.17 219.818H227.977V242.292H232.085C234.04 242.348 235.985 241.992 237.798 241.248C239.235 240.636 240.53 239.727 241.598 238.579C242.549 237.54 243.271 236.308 243.714 234.966C244.139 233.714 244.361 232.4 244.37 231.077C244.394 229.479 244.092 227.894 243.482 226.42ZM241.046 234.647C240.614 235.681 239.973 236.613 239.166 237.385C238.358 238.156 237.4 238.749 236.353 239.127C235.231 239.543 234.044 239.75 232.849 239.737H230.626V222.335H232.849C234.044 222.324 235.231 222.533 236.353 222.95C237.402 223.328 238.361 223.923 239.169 224.697C239.977 225.471 240.617 226.407 241.046 227.445C241.519 228.583 241.755 229.808 241.74 231.043C241.757 232.274 241.521 233.494 241.046 234.628V234.647Z" fill="#B78118" />
    <path d="M232.089 242.626H227.665V219.48H233.17C234.687 219.472 236.191 219.747 237.609 220.29C238.969 220.809 240.213 221.597 241.268 222.607C242.33 223.646 243.176 224.889 243.756 226.263C244.385 227.782 244.696 229.416 244.672 231.062C244.662 232.42 244.437 233.766 244.006 235.052C243.555 236.447 242.815 237.729 241.834 238.813C240.737 239.993 239.407 240.928 237.93 241.558C236.077 242.317 234.088 242.68 232.089 242.626ZM228.312 241.992H232.089C234 242.045 235.902 241.699 237.675 240.977C239.072 240.38 240.33 239.497 241.372 238.384C242.293 237.378 242.992 236.185 243.421 234.885C243.833 233.665 244.048 232.385 244.058 231.096C244.083 229.536 243.789 227.988 243.194 226.549C242.659 225.257 241.868 224.09 240.869 223.118C239.87 222.147 238.685 221.392 237.387 220.9C236.039 220.387 234.61 220.127 233.17 220.133H228.298L228.312 241.992ZM232.864 240.057H230.323V222.039H232.864C234.095 222.029 235.318 222.242 236.475 222.669C237.562 223.069 238.556 223.689 239.398 224.489C240.238 225.296 240.902 226.27 241.348 227.349C241.835 228.528 242.077 229.795 242.061 231.072C242.079 232.344 241.836 233.607 241.348 234.78C240.897 235.853 240.231 236.82 239.393 237.622C238.554 238.423 237.561 239.041 236.475 239.437C235.312 239.853 234.084 240.057 232.849 240.038L232.864 240.057ZM230.975 239.423H232.864C234.021 239.432 235.171 239.231 236.258 238.832C237.264 238.459 238.185 237.887 238.968 237.149C239.739 236.404 240.353 235.509 240.772 234.518C241.227 233.425 241.452 232.248 241.433 231.062C241.45 229.872 241.225 228.691 240.772 227.592C240.356 226.596 239.742 225.696 238.968 224.947C238.185 224.21 237.263 223.638 236.258 223.264C235.171 222.865 234.021 222.665 232.864 222.673H230.975V239.423Z" fill="#B78118" />
    <path d="M137.56 274.409L138.642 276.015C137.785 276.514 136.872 276.908 135.922 277.188C134.924 277.482 133.888 277.628 132.848 277.621C131.329 277.631 129.823 277.326 128.424 276.725C125.701 275.558 123.532 273.369 122.376 270.619C121.779 269.208 121.477 267.688 121.488 266.153C121.478 264.613 121.78 263.086 122.376 261.668C122.948 260.301 123.775 259.058 124.812 258.007C125.852 256.961 127.077 256.122 128.424 255.534C129.82 254.92 131.327 254.609 132.848 254.618C133.887 254.613 134.921 254.752 135.922 255.033C136.885 255.314 137.81 255.714 138.675 256.225C138.505 256.501 138.325 256.778 138.132 257.045C137.938 257.311 137.749 257.583 137.56 257.864C136.142 256.983 134.505 256.525 132.839 256.544C131.585 256.537 130.343 256.795 129.194 257.302C128.079 257.79 127.069 258.493 126.219 259.371C125.365 260.26 124.68 261.301 124.199 262.44C123.699 263.613 123.445 264.877 123.453 266.153C123.442 267.433 123.691 268.702 124.184 269.881C125.127 272.166 126.913 273.992 129.166 274.971C130.313 275.479 131.553 275.738 132.806 275.729C133.645 275.733 134.481 275.619 135.289 275.391C136.085 275.163 136.848 274.833 137.56 274.409Z" fill="#193E69" />
    <path d="M144.879 277.364V254.876H158.344V256.782H146.838V265.071H157.088V266.978H146.838V275.462H158.774V277.369L144.879 277.364Z" fill="#193E69" />
    <path d="M185.781 254.876V278.375C182.948 275.197 180.115 272.032 177.282 268.88C174.449 265.728 171.616 262.563 168.784 259.385L168.481 258.965C168.382 258.842 168.283 258.699 168.179 258.551C168.179 258.722 168.212 258.894 168.226 259.066C168.241 259.237 168.25 259.409 168.274 259.58V277.345H166.3V253.846C169.133 257.084 171.966 260.297 174.799 263.484C177.632 266.671 180.465 269.885 183.297 273.127C183.401 273.274 183.505 273.413 183.6 273.541L183.902 273.961C183.878 273.789 183.864 273.618 183.855 273.446C183.845 273.274 183.826 273.103 183.807 272.931V254.876H185.781Z" fill="#193E69" />
    <path d="M208.217 254.876V256.782H200.418V277.345H198.444V256.802H190.616V254.895L208.217 254.876Z" fill="#193E69" />
    <path d="M212.259 277.364V254.876H225.725V256.782H214.233V265.071H224.483V266.978H214.233V275.462H226.159V277.369L212.259 277.364Z" fill="#193E69" />
    <path d="M232.628 277.364V254.876H237.628C238.402 254.886 239.172 254.998 239.917 255.21C240.755 255.436 241.552 255.795 242.278 256.272C243.007 256.751 243.628 257.38 244.101 258.117C244.606 258.935 244.86 259.885 244.833 260.848C244.886 262.267 244.459 263.662 243.624 264.804C242.74 265.9 241.498 266.641 240.121 266.892C240.929 268.627 241.742 270.375 242.557 272.135C243.372 273.896 244.195 275.643 245.026 277.378H242.859C242.05 275.643 241.244 273.92 240.442 272.207C239.639 270.494 238.833 268.77 238.024 267.035C237.891 267.056 237.757 267.067 237.623 267.069H234.615V277.378L232.628 277.364ZM234.601 265.124H237.628C238.493 265.148 239.356 265.013 240.172 264.723C240.777 264.505 241.325 264.153 241.778 263.694C242.155 263.302 242.439 262.83 242.609 262.312C242.761 261.839 242.84 261.345 242.845 260.848C242.844 260.309 242.707 259.78 242.448 259.309C242.175 258.808 241.807 258.367 241.367 258.007C240.877 257.613 240.322 257.309 239.729 257.107C239.062 256.877 238.361 256.762 237.656 256.768H234.601V265.124Z" fill="#193E69" />
    <path d="M280.286 255.138C283.719 251.873 293.143 245.824 293.143 245.824C292.538 243.832 290.178 237.478 283.383 228.579C283.195 228.331 281.528 226.458 281.301 226.244C280.98 227.84 279.181 232.721 273.681 235.648C266.566 239.428 264.601 244.971 264.601 244.971V271.954C268.142 267.188 271.872 263.122 280.286 255.138Z" fill="url(#paint0_linear_1_143)" />
    <path d="M264.601 274.824V280C292.26 276.582 297.571 260.596 293.676 247.788C293.676 247.788 287.156 251.272 282.175 255.834C270.72 266.325 267.911 270.172 264.601 274.824Z" fill="url(#paint1_linear_1_143)" />
    <path d="M315.91 217.769C314.744 207.397 304.753 201.229 288.195 194.656C272.014 188.236 269.144 185.042 264.587 181V212.302C274.314 218.164 277.486 219.375 283.294 226.196C291.792 236.205 294.328 243.784 294.649 245C297.312 243.46 317.51 232.016 315.91 217.769Z" fill="url(#paint2_linear_1_143)" />
    <path d="M358 176V285" stroke="#A67F56" stroke-width="3" />
    <path d="M429.16 191.08V195.36H416.34V203.38H426.44V207.52H416.34V215.7H429.16V220H410.92V191.08H429.16ZM440.751 205.12L431.531 191.08H436.891C437.264 191.08 437.531 191.133 437.691 191.24C437.864 191.333 438.017 191.493 438.151 191.72L444.731 202.34C444.797 202.167 444.871 202 444.951 201.84C445.031 201.667 445.124 201.493 445.231 201.32L451.251 191.82C451.544 191.327 451.924 191.08 452.391 191.08H457.551L448.231 204.9L457.811 220H452.431C452.071 220 451.777 219.907 451.551 219.72C451.337 219.533 451.157 219.32 451.011 219.08L444.311 208C444.257 208.16 444.197 208.313 444.131 208.46C444.064 208.593 443.997 208.72 443.931 208.84L437.511 219.08C437.364 219.307 437.184 219.52 436.971 219.72C436.757 219.907 436.491 220 436.171 220H431.131L440.751 205.12ZM480.253 213.18C480.546 213.18 480.8 213.293 481.013 213.52L483.133 215.82C481.96 217.273 480.513 218.387 478.793 219.16C477.086 219.933 475.033 220.32 472.633 220.32C470.486 220.32 468.553 219.953 466.833 219.22C465.126 218.487 463.666 217.467 462.453 216.16C461.24 214.853 460.306 213.293 459.653 211.48C459.013 209.667 458.693 207.687 458.693 205.54C458.693 203.367 459.053 201.38 459.773 199.58C460.493 197.767 461.506 196.207 462.813 194.9C464.12 193.593 465.68 192.58 467.493 191.86C469.32 191.127 471.333 190.76 473.533 190.76C475.68 190.76 477.553 191.107 479.153 191.8C480.766 192.48 482.146 193.387 483.293 194.52L481.493 197.02C481.386 197.18 481.246 197.32 481.073 197.44C480.913 197.56 480.686 197.62 480.393 197.62C480.086 197.62 479.773 197.5 479.453 197.26C479.133 197.02 478.726 196.76 478.233 196.48C477.74 196.2 477.113 195.94 476.353 195.7C475.606 195.46 474.653 195.34 473.493 195.34C472.133 195.34 470.88 195.58 469.733 196.06C468.6 196.527 467.62 197.2 466.793 198.08C465.98 198.96 465.34 200.033 464.873 201.3C464.42 202.553 464.193 203.967 464.193 205.54C464.193 207.167 464.42 208.613 464.873 209.88C465.34 211.147 465.966 212.213 466.753 213.08C467.54 213.947 468.466 214.613 469.533 215.08C470.6 215.533 471.746 215.76 472.973 215.76C473.706 215.76 474.366 215.72 474.953 215.64C475.553 215.56 476.1 215.433 476.593 215.26C477.1 215.087 477.573 214.867 478.013 214.6C478.466 214.32 478.913 213.98 479.353 213.58C479.486 213.46 479.626 213.367 479.773 213.3C479.92 213.22 480.08 213.18 480.253 213.18ZM492.589 215.56H504.169V220H487.209V191.08H492.589V215.56ZM519.513 215.66C520.553 215.66 521.48 215.487 522.293 215.14C523.12 214.793 523.813 214.307 524.373 213.68C524.946 213.053 525.38 212.293 525.673 211.4C525.98 210.507 526.133 209.507 526.133 208.4V191.08H531.513V208.4C531.513 210.12 531.233 211.713 530.673 213.18C530.126 214.633 529.333 215.893 528.293 216.96C527.253 218.013 525.993 218.84 524.513 219.44C523.033 220.027 521.366 220.32 519.513 220.32C517.66 220.32 515.993 220.027 514.513 219.44C513.033 218.84 511.773 218.013 510.733 216.96C509.706 215.893 508.913 214.633 508.353 213.18C507.806 211.713 507.533 210.12 507.533 208.4V191.08H512.913V208.38C512.913 209.487 513.06 210.487 513.353 211.38C513.66 212.273 514.093 213.04 514.653 213.68C515.213 214.307 515.9 214.793 516.713 215.14C517.54 215.487 518.473 215.66 519.513 215.66ZM552.475 196.34C552.328 196.633 552.155 196.84 551.955 196.96C551.768 197.08 551.541 197.14 551.275 197.14C551.008 197.14 550.708 197.04 550.375 196.84C550.041 196.627 549.648 196.393 549.195 196.14C548.741 195.887 548.208 195.66 547.595 195.46C546.995 195.247 546.281 195.14 545.455 195.14C544.708 195.14 544.055 195.233 543.495 195.42C542.948 195.593 542.481 195.84 542.095 196.16C541.721 196.48 541.441 196.867 541.255 197.32C541.068 197.76 540.975 198.247 540.975 198.78C540.975 199.46 541.161 200.027 541.535 200.48C541.921 200.933 542.428 201.32 543.055 201.64C543.681 201.96 544.395 202.247 545.195 202.5C545.995 202.753 546.808 203.027 547.635 203.32C548.475 203.6 549.295 203.933 550.095 204.32C550.895 204.693 551.608 205.173 552.235 205.76C552.861 206.333 553.361 207.04 553.735 207.88C554.121 208.72 554.315 209.74 554.315 210.94C554.315 212.247 554.088 213.473 553.635 214.62C553.195 215.753 552.541 216.747 551.675 217.6C550.821 218.44 549.775 219.107 548.535 219.6C547.295 220.08 545.875 220.32 544.275 220.32C543.355 220.32 542.448 220.227 541.555 220.04C540.661 219.867 539.801 219.613 538.975 219.28C538.161 218.947 537.395 218.547 536.675 218.08C535.968 217.613 535.335 217.093 534.775 216.52L536.335 213.94C536.481 213.753 536.655 213.6 536.855 213.48C537.068 213.347 537.301 213.28 537.555 213.28C537.888 213.28 538.248 213.42 538.635 213.7C539.021 213.967 539.475 214.267 539.995 214.6C540.528 214.933 541.148 215.24 541.855 215.52C542.575 215.787 543.435 215.92 544.435 215.92C545.968 215.92 547.155 215.56 547.995 214.84C548.835 214.107 549.255 213.06 549.255 211.7C549.255 210.94 549.061 210.32 548.675 209.84C548.301 209.36 547.801 208.96 547.175 208.64C546.548 208.307 545.835 208.027 545.035 207.8C544.235 207.573 543.421 207.327 542.595 207.06C541.768 206.793 540.955 206.473 540.155 206.1C539.355 205.727 538.641 205.24 538.015 204.64C537.388 204.04 536.881 203.293 536.495 202.4C536.121 201.493 535.935 200.38 535.935 199.06C535.935 198.007 536.141 196.98 536.555 195.98C536.981 194.98 537.595 194.093 538.395 193.32C539.208 192.547 540.201 191.927 541.375 191.46C542.548 190.993 543.888 190.76 545.395 190.76C547.101 190.76 548.675 191.027 550.115 191.56C551.555 192.093 552.781 192.84 553.795 193.8L552.475 196.34ZM564.48 220H559.08V191.08H564.48V220ZM568.158 191.08H572.498C572.965 191.08 573.345 191.193 573.638 191.42C573.931 191.647 574.151 191.94 574.298 192.3L581.098 209.94C581.325 210.513 581.538 211.147 581.738 211.84C581.951 212.52 582.151 213.24 582.338 214C582.645 212.467 583.025 211.113 583.478 209.94L590.258 192.3C590.378 191.993 590.591 191.713 590.898 191.46C591.205 191.207 591.585 191.08 592.038 191.08H596.378L584.698 220H579.838L568.158 191.08ZM617.637 191.08V195.36H604.817V203.38H614.917V207.52H604.817V215.7H617.637V220H599.397V191.08H617.637ZM408.08 239.08H412.42C412.887 239.08 413.267 239.193 413.56 239.42C413.853 239.647 414.073 239.94 414.22 240.3L421.02 257.94C421.247 258.513 421.46 259.147 421.66 259.84C421.873 260.52 422.073 261.24 422.26 262C422.567 260.467 422.947 259.113 423.4 257.94L430.18 240.3C430.3 239.993 430.513 239.713 430.82 239.46C431.127 239.207 431.507 239.08 431.96 239.08H436.3L424.62 268H419.76L408.08 239.08ZM445.378 268H439.978V239.08H445.378V268ZM470.137 239.08V243.36H457.317V251.38H467.417V255.52H457.317V263.7H470.137V268H451.897V239.08H470.137ZM495.167 239.08V243.5H486.467V268H481.087V243.5H472.347V239.08H495.167ZM501.396 239.08C501.636 239.08 501.836 239.093 501.996 239.12C502.156 239.133 502.296 239.173 502.416 239.24C502.55 239.293 502.676 239.38 502.796 239.5C502.916 239.607 503.05 239.753 503.196 239.94L518.376 259.28C518.323 258.813 518.283 258.36 518.256 257.92C518.243 257.467 518.236 257.047 518.236 256.66V239.08H522.976V268H520.196C519.77 268 519.416 267.933 519.136 267.8C518.856 267.667 518.583 267.427 518.316 267.08L503.196 247.82C503.236 248.247 503.263 248.673 503.276 249.1C503.303 249.513 503.316 249.893 503.316 250.24V268H498.576V239.08H501.396ZM554.231 268H550.071C549.604 268 549.217 267.887 548.911 267.66C548.617 267.42 548.404 267.127 548.271 266.78L546.111 260.88H534.131L531.971 266.78C531.864 267.087 531.651 267.367 531.331 267.62C531.024 267.873 530.644 268 530.191 268H526.011L537.371 239.08H542.871L554.231 268ZM535.511 257.08H544.731L541.211 247.46C541.051 247.033 540.871 246.533 540.671 245.96C540.484 245.373 540.297 244.74 540.111 244.06C539.924 244.74 539.737 245.373 539.551 245.96C539.377 246.547 539.204 247.06 539.031 247.5L535.511 257.08ZM571.729 256C571.956 256.427 572.162 256.873 572.349 257.34C572.549 257.793 572.742 258.253 572.929 258.72C573.116 258.24 573.309 257.767 573.509 257.3C573.709 256.833 573.922 256.387 574.149 255.96L582.709 239.94C582.816 239.74 582.922 239.58 583.029 239.46C583.149 239.34 583.276 239.253 583.409 239.2C583.556 239.147 583.716 239.113 583.889 239.1C584.062 239.087 584.269 239.08 584.509 239.08H588.569V268H583.829V249.32C583.829 248.973 583.836 248.593 583.849 248.18C583.876 247.767 583.909 247.347 583.949 246.92L575.209 263.32C575.009 263.693 574.749 263.987 574.429 264.2C574.109 264.4 573.736 264.5 573.309 264.5H572.569C572.142 264.5 571.769 264.4 571.449 264.2C571.129 263.987 570.869 263.693 570.669 263.32L561.809 246.86C561.862 247.3 561.896 247.733 561.909 248.16C561.936 248.573 561.949 248.96 561.949 249.32V268H557.209V239.08H561.269C561.509 239.08 561.716 239.087 561.889 239.1C562.062 239.113 562.216 239.147 562.349 239.2C562.496 239.253 562.629 239.34 562.749 239.46C562.869 239.58 562.982 239.74 563.089 239.94L571.729 256ZM607.691 257.82V268H602.311V239.08H611.731C613.664 239.08 615.338 239.307 616.751 239.76C618.164 240.213 619.331 240.847 620.251 241.66C621.171 242.473 621.851 243.447 622.291 244.58C622.731 245.713 622.951 246.953 622.951 248.3C622.951 249.7 622.718 250.987 622.251 252.16C621.784 253.32 621.084 254.32 620.151 255.16C619.218 256 618.051 256.653 616.651 257.12C615.251 257.587 613.611 257.82 611.731 257.82H607.691ZM607.691 253.62H611.731C612.718 253.62 613.578 253.5 614.311 253.26C615.044 253.007 615.651 252.653 616.131 252.2C616.611 251.733 616.971 251.173 617.211 250.52C617.451 249.853 617.571 249.113 617.571 248.3C617.571 247.527 617.451 246.827 617.211 246.2C616.971 245.573 616.611 245.04 616.131 244.6C615.651 244.16 615.044 243.827 614.311 243.6C613.578 243.36 612.718 243.24 611.731 243.24H607.691V253.62ZM649.465 268H645.305C644.838 268 644.452 267.887 644.145 267.66C643.852 267.42 643.638 267.127 643.505 266.78L641.345 260.88H629.365L627.205 266.78C627.098 267.087 626.885 267.367 626.565 267.62C626.258 267.873 625.878 268 625.425 268H621.245L632.605 239.08H638.105L649.465 268ZM630.745 257.08H639.965L636.445 247.46C636.285 247.033 636.105 246.533 635.905 245.96C635.718 245.373 635.532 244.74 635.345 244.06C635.158 244.74 634.972 245.373 634.785 245.96C634.612 246.547 634.438 247.06 634.265 247.5L630.745 257.08ZM658.003 256.7V268H652.623V239.08H661.443C663.417 239.08 665.103 239.287 666.503 239.7C667.917 240.1 669.07 240.667 669.963 241.4C670.87 242.133 671.53 243.013 671.943 244.04C672.37 245.053 672.583 246.173 672.583 247.4C672.583 248.373 672.437 249.293 672.143 250.16C671.863 251.027 671.45 251.813 670.903 252.52C670.37 253.227 669.703 253.847 668.903 254.38C668.117 254.913 667.217 255.34 666.203 255.66C666.883 256.047 667.47 256.6 667.963 257.32L675.203 268H670.363C669.897 268 669.497 267.907 669.163 267.72C668.843 267.533 668.57 267.267 668.343 266.92L662.263 257.66C662.037 257.313 661.783 257.067 661.503 256.92C661.237 256.773 660.837 256.7 660.303 256.7H658.003ZM658.003 252.84H661.363C662.377 252.84 663.257 252.713 664.003 252.46C664.763 252.207 665.383 251.86 665.863 251.42C666.357 250.967 666.723 250.433 666.963 249.82C667.203 249.207 667.323 248.533 667.323 247.8C667.323 246.333 666.837 245.207 665.863 244.42C664.903 243.633 663.43 243.24 661.443 243.24H658.003V252.84ZM697.902 239.08V243.5H689.202V268H683.822V243.5H675.082V239.08H697.902ZM704.131 239.08C704.371 239.08 704.571 239.093 704.731 239.12C704.891 239.133 705.031 239.173 705.151 239.24C705.284 239.293 705.411 239.38 705.531 239.5C705.651 239.607 705.784 239.753 705.931 239.94L721.111 259.28C721.057 258.813 721.017 258.36 720.991 257.92C720.977 257.467 720.971 257.047 720.971 256.66V239.08H725.711V268H722.931C722.504 268 722.151 267.933 721.871 267.8C721.591 267.667 721.317 267.427 721.051 267.08L705.931 247.82C705.971 248.247 705.997 248.673 706.011 249.1C706.037 249.513 706.051 249.893 706.051 250.24V268H701.311V239.08H704.131ZM749.785 239.08V243.36H736.965V251.38H747.065V255.52H736.965V263.7H749.785V268H731.545V239.08H749.785ZM759.996 256.7V268H754.616V239.08H763.436C765.409 239.08 767.096 239.287 768.496 239.7C769.909 240.1 771.062 240.667 771.956 241.4C772.862 242.133 773.522 243.013 773.936 244.04C774.362 245.053 774.576 246.173 774.576 247.4C774.576 248.373 774.429 249.293 774.136 250.16C773.856 251.027 773.442 251.813 772.896 252.52C772.362 253.227 771.696 253.847 770.896 254.38C770.109 254.913 769.209 255.34 768.196 255.66C768.876 256.047 769.462 256.6 769.956 257.32L777.196 268H772.356C771.889 268 771.489 267.907 771.156 267.72C770.836 267.533 770.562 267.267 770.336 266.92L764.256 257.66C764.029 257.313 763.776 257.067 763.496 256.92C763.229 256.773 762.829 256.7 762.296 256.7H759.996ZM759.996 252.84H763.356C764.369 252.84 765.249 252.713 765.996 252.46C766.756 252.207 767.376 251.86 767.856 251.42C768.349 250.967 768.716 250.433 768.956 249.82C769.196 249.207 769.316 248.533 769.316 247.8C769.316 246.333 768.829 245.207 767.856 244.42C766.896 243.633 765.422 243.24 763.436 243.24H759.996V252.84Z" fill="#A67F56" />
    <path d="M90.2387 42.22V43H100.079V42.22C98.5787 41.98 97.4987 41.2 96.8987 39.88C96.2387 38.62 96.2987 37.06 97.0787 35.26L99.1787 29.92H119.219L124.379 42.22H120.899V43H133.799V42.22H130.019L112.079 0.999997H109.919L96.2987 35.14C95.4587 37.18 94.4987 38.74 93.4187 39.94C92.2787 41.14 91.1987 41.92 90.2387 42.22ZM118.859 29.14H99.4787L108.899 5.56L118.859 29.14ZM135.004 42.22V43H144.844V42.22C143.344 41.98 142.264 41.2 141.664 39.88C141.004 38.62 141.064 37.06 141.844 35.26L143.944 29.92H163.984L169.144 42.22H165.664V43H178.564V42.22H174.784L156.844 0.999997H154.684L141.064 35.14C140.224 37.18 139.264 38.74 138.184 39.94C137.044 41.14 135.964 41.92 135.004 42.22ZM163.624 29.14H144.244L153.664 5.56L163.624 29.14ZM186.67 42.22H182.77V43H198.67C202.63 43 206.17 42.64 209.41 41.92C212.65 41.2 215.41 40 217.69 38.32C219.97 36.7 221.71 34.54 222.97 31.84C224.17 29.2 224.83 25.9 224.83 22C224.83 18.16 224.17 14.86 222.97 12.16C221.71 9.52 219.97 7.36 217.69 5.68C215.41 4.06 212.65 2.86 209.41 2.14C206.17 1.42 202.63 0.999997 198.67 0.999997H182.77V1.78H186.67V42.22ZM200.35 41.68H191.53V2.26H200.35C206.47 2.26 211.09 3.88 214.33 7.06C217.51 10.3 219.13 15.28 219.13 22C219.13 28.78 217.51 33.76 214.33 36.94C211.09 40.12 206.47 41.68 200.35 41.68ZM227.231 42.22V43H237.071V42.22C235.571 41.98 234.491 41.2 233.891 39.88C233.231 38.62 233.291 37.06 234.071 35.26L236.171 29.92H256.211L261.371 42.22H257.891V43H270.791V42.22H267.011L249.071 0.999997H246.911L233.291 35.14C232.451 37.18 231.491 38.74 230.411 39.94C229.271 41.14 228.191 41.92 227.231 42.22ZM255.851 29.14H236.471L245.891 5.56L255.851 29.14ZM311.105 0.999997H292.985V1.78H296.825V42.22H292.985V43H307.625V42.22H301.745V27.64H311.165C315.965 27.58 319.745 26.38 322.445 24.1C325.085 21.82 326.465 18.58 326.465 14.32C326.465 9.88 325.085 6.58 322.385 4.42C319.685 2.26 315.905 1.12 311.105 0.999997ZM308.105 26.86H301.745V2.26H308.105C312.305 2.26 315.485 3.22 317.585 5.14C319.685 7.06 320.765 10.12 320.765 14.32C320.765 18.64 319.685 21.82 317.645 23.86C315.605 25.9 312.425 26.86 308.105 26.86ZM324.672 42.22V43H334.512V42.22C333.012 41.98 331.932 41.2 331.332 39.88C330.672 38.62 330.732 37.06 331.512 35.26L333.612 29.92H353.652L358.812 42.22H355.332V43H368.232V42.22H364.452L346.512 0.999997H344.352L330.732 35.14C329.892 37.18 328.932 38.74 327.852 39.94C326.712 41.14 325.632 41.92 324.672 42.22ZM353.292 29.14H333.912L343.332 5.56L353.292 29.14ZM372.438 43H385.098V42.22H381.198V23.2H390.498C392.418 23.2 394.038 23.32 395.358 23.56C396.618 23.8 397.638 24.16 398.418 24.7C399.138 25.3 399.678 26.02 400.038 26.98C400.338 27.94 400.518 29.08 400.518 30.46V36.64C400.518 39.28 401.058 41.08 402.258 42.04C403.398 43 405.018 43.42 407.058 43.42C408.318 43.42 409.338 43.24 410.058 42.76C410.778 42.34 411.378 41.8 411.738 41.14C412.098 40.48 412.278 39.76 412.398 38.92C412.518 38.14 412.578 37.36 412.578 36.64H411.858C411.858 38.2 411.618 39.46 411.198 40.42C410.718 41.38 409.998 41.86 408.918 41.86C407.898 41.86 407.118 41.56 406.638 40.9C406.158 40.24 405.918 39.04 405.918 37.36V32.14C405.918 30.34 405.678 28.78 405.318 27.58C404.898 26.38 404.238 25.42 403.278 24.7C402.318 23.98 401.118 23.5 399.558 23.2C397.998 22.9 396.018 22.72 393.678 22.72V22.48C395.718 22.48 397.458 22.24 399.018 21.76C400.578 21.28 401.838 20.56 402.858 19.66C403.878 18.76 404.658 17.68 405.138 16.42C405.618 15.22 405.918 13.84 405.918 12.34C405.918 10.18 405.498 8.38 404.718 6.94C403.938 5.5 402.858 4.3 401.478 3.4C400.038 2.56 398.358 1.9 396.318 1.54C394.278 1.18 392.058 0.999997 389.658 0.999997H372.438V1.78H376.338V42.22H372.438V43ZM389.058 22.42H381.198V2.26H389.058C390.618 2.26 392.058 2.44 393.438 2.68C394.818 2.98 396.018 3.52 397.098 4.24C398.118 4.96 398.958 5.98 399.558 7.24C400.158 8.56 400.518 10.18 400.518 12.16C400.518 14.2 400.218 15.82 399.618 17.14C399.018 18.46 398.238 19.54 397.218 20.32C396.198 21.1 394.998 21.64 393.618 21.94C392.178 22.3 390.678 22.42 389.058 22.42ZM451.877 0.999997H414.377V14.08H415.097C415.217 12.76 415.337 11.38 415.517 9.94C415.637 8.56 415.997 7.3 416.537 6.16C417.077 5.02 417.917 4.06 419.057 3.34C420.137 2.62 421.757 2.26 423.797 2.26H430.697V42.22H426.797V43H439.457V42.22H435.557V2.26H442.457C444.497 2.26 446.057 2.62 447.197 3.34C448.277 4.06 449.117 5.02 449.657 6.16C450.197 7.3 450.557 8.56 450.737 9.94C450.857 11.38 451.037 12.76 451.157 14.08H451.877V0.999997ZM457.854 1.78H461.814L464.634 5.26V30.82C464.634 32.38 464.514 33.82 464.394 35.08C464.274 36.4 463.974 37.54 463.554 38.5C463.134 39.46 462.534 40.3 461.814 40.9C461.034 41.56 460.014 41.98 458.754 42.22V43H471.714V42.22C470.394 41.98 469.374 41.56 468.594 40.9C467.754 40.3 467.154 39.46 466.674 38.5C466.194 37.54 465.834 36.4 465.654 35.08C465.474 33.82 465.414 32.38 465.414 30.82V6.28L494.874 43H497.514V13.18C497.514 11.62 497.574 10.24 497.694 8.92C497.814 7.66 498.114 6.52 498.534 5.56C498.894 4.6 499.494 3.76 500.274 3.1C500.994 2.5 502.014 2.02 503.334 1.78V0.999997H490.374V1.78C491.574 2.02 492.594 2.5 493.434 3.1C494.274 3.76 494.934 4.6 495.414 5.56C495.894 6.52 496.194 7.66 496.434 8.92C496.614 10.24 496.734 11.62 496.734 13.18V36.34L468.294 0.999997H457.854V1.78ZM513.857 42.22H509.957V43H542.717V29.44H541.997C541.757 31.48 541.397 33.22 540.917 34.72C540.437 36.28 539.777 37.54 538.877 38.56C537.977 39.58 536.837 40.36 535.397 40.9C533.957 41.44 532.157 41.68 529.997 41.68H518.717V22.36H527.957C529.217 22.36 530.297 22.48 531.137 22.66C531.977 22.84 532.697 23.14 533.237 23.56C533.777 23.98 534.197 24.58 534.557 25.3C534.917 26.02 535.217 26.98 535.457 28.06H535.997V15.88H535.457C535.217 17.02 534.917 17.98 534.557 18.7C534.197 19.42 533.777 20.02 533.237 20.44C532.697 20.86 531.977 21.16 531.137 21.34C530.297 21.52 529.217 21.58 527.957 21.58H518.717V2.26H528.977C531.137 2.26 532.937 2.56 534.377 3.1C535.817 3.64 536.957 4.42 537.857 5.44C538.757 6.52 539.417 7.78 539.897 9.34C540.377 10.9 540.737 12.64 540.977 14.56H541.697V0.999997H509.957V1.78H513.857V42.22ZM549.332 43H561.992V42.22H558.092V23.2H567.392C569.312 23.2 570.932 23.32 572.252 23.56C573.512 23.8 574.532 24.16 575.312 24.7C576.032 25.3 576.572 26.02 576.932 26.98C577.232 27.94 577.412 29.08 577.412 30.46V36.64C577.412 39.28 577.952 41.08 579.152 42.04C580.292 43 581.912 43.42 583.952 43.42C585.212 43.42 586.232 43.24 586.952 42.76C587.672 42.34 588.272 41.8 588.632 41.14C588.992 40.48 589.172 39.76 589.292 38.92C589.412 38.14 589.472 37.36 589.472 36.64H588.752C588.752 38.2 588.512 39.46 588.092 40.42C587.612 41.38 586.892 41.86 585.812 41.86C584.792 41.86 584.012 41.56 583.532 40.9C583.052 40.24 582.812 39.04 582.812 37.36V32.14C582.812 30.34 582.572 28.78 582.212 27.58C581.792 26.38 581.132 25.42 580.172 24.7C579.212 23.98 578.012 23.5 576.452 23.2C574.892 22.9 572.912 22.72 570.572 22.72V22.48C572.612 22.48 574.352 22.24 575.912 21.76C577.472 21.28 578.732 20.56 579.752 19.66C580.772 18.76 581.552 17.68 582.032 16.42C582.512 15.22 582.812 13.84 582.812 12.34C582.812 10.18 582.392 8.38 581.612 6.94C580.832 5.5 579.752 4.3 578.372 3.4C576.932 2.56 575.252 1.9 573.212 1.54C571.172 1.18 568.952 0.999997 566.552 0.999997H549.332V1.78H553.232V42.22H549.332V43ZM565.952 22.42H558.092V2.26H565.952C567.512 2.26 568.952 2.44 570.332 2.68C571.712 2.98 572.912 3.52 573.992 4.24C575.012 4.96 575.852 5.98 576.452 7.24C577.052 8.56 577.412 10.18 577.412 12.16C577.412 14.2 577.112 15.82 576.512 17.14C575.912 18.46 575.132 19.54 574.112 20.32C573.092 21.1 571.892 21.64 570.512 21.94C569.072 22.3 567.572 22.42 565.952 22.42ZM594.214 30.88H593.674V40.54C595.954 41.26 598.294 41.92 600.694 42.52C603.094 43.12 605.374 43.42 607.654 43.42C609.454 43.42 611.194 43.24 612.874 42.82C614.554 42.46 615.994 41.86 617.314 41.02C618.634 40.18 619.714 39.16 620.554 37.84C621.394 36.58 621.994 35.08 622.234 33.28C622.474 31.6 622.354 30.16 621.994 28.9C621.574 27.7 620.914 26.56 619.954 25.54C618.994 24.58 617.794 23.62 616.354 22.78C614.914 21.94 613.234 21.04 611.374 20.2C609.634 19.48 608.014 18.7 606.514 17.92C605.014 17.14 603.754 16.3 602.674 15.34C601.594 14.44 600.754 13.36 600.274 12.16C599.734 10.96 599.554 9.46 599.794 7.78C599.914 6.58 600.274 5.62 600.814 4.84C601.294 4.06 601.954 3.46 602.674 2.98C603.394 2.5 604.234 2.2 605.194 2.02C606.154 1.84 607.114 1.72 608.134 1.72C609.574 1.72 610.834 1.9 611.974 2.2C613.114 2.56 614.134 3.1 615.094 3.94C616.054 4.78 616.894 5.86 617.734 7.24C618.514 8.62 619.294 10.36 620.014 12.46H620.554V3.82C618.694 3.16 616.714 2.5 614.554 1.84C612.394 1.18 610.294 0.819999 608.194 0.819999C606.754 0.819999 605.374 0.999997 603.934 1.3C602.494 1.6 601.114 2.08 599.914 2.8C598.714 3.52 597.694 4.54 596.854 5.74C596.014 6.94 595.474 8.5 595.294 10.3C595.054 12.16 595.234 13.78 595.834 15.16C596.434 16.54 597.274 17.74 598.414 18.82C599.554 19.9 600.934 20.86 602.494 21.7C604.054 22.54 605.734 23.38 607.534 24.1C609.454 24.94 611.074 25.84 612.514 26.74C613.894 27.7 615.034 28.66 615.874 29.74C616.714 30.82 617.194 32.02 617.374 33.34C617.554 34.66 617.374 36.16 616.834 37.78C616.234 39.46 615.154 40.66 613.534 41.38C611.914 42.16 609.814 42.52 607.234 42.52C605.674 42.52 604.294 42.4 603.034 42.04C601.714 41.74 600.574 41.14 599.554 40.24C598.474 39.4 597.514 38.2 596.674 36.7C595.774 35.2 594.934 33.28 594.214 30.88Z" fill="#A67F56" />
    <defs>
        <linearGradient id="paint0_linear_1_143" x1="264.601" y1="249.099" x2="293.143" y2="249.099" gradientUnits="userSpaceOnUse">
            <stop stop-color="#B78118" stop-opacity="0.57" />
            <stop offset="1" stop-color="#0081AB" />
        </linearGradient>
        <linearGradient id="paint1_linear_1_143" x1="264.601" y1="263.894" x2="294.814" y2="263.894" gradientUnits="userSpaceOnUse">
            <stop stop-color="#193E69" />
            <stop offset="1" stop-color="#0081AB" />
        </linearGradient>
        <linearGradient id="paint2_linear_1_143" x1="264.601" y1="212.997" x2="316" y2="212.997" gradientUnits="userSpaceOnUse">
            <stop stop-color="#0081AB" />
            <stop offset="1" stop-color="#B78118" stop-opacity="0.57" />
        </linearGradient>
    </defs>
</svg>
    