<svg width="374" height="247" viewBox="0 0 374 247" fill="none" xmlns="http://www.w3.org/2000/svg">
<path d="M127.443 77.519V78H133.511V77.519C132.586 77.371 131.92 76.89 131.55 76.076C131.143 75.299 131.18 74.337 131.661 73.227L132.956 69.934H145.314L148.496 77.519H146.35V78H154.305V77.519H151.974L140.911 52.1H139.579L131.18 73.153C130.662 74.411 130.07 75.373 129.404 76.113C128.701 76.853 128.035 77.334 127.443 77.519ZM145.092 69.453H133.141L138.95 54.912L145.092 69.453ZM157.638 77.519V78H163.706V77.519C162.781 77.371 162.115 76.89 161.745 76.076C161.338 75.299 161.375 74.337 161.856 73.227L163.151 69.934H175.509L178.691 77.519H176.545V78H184.5V77.519H182.169L171.106 52.1H169.774L161.375 73.153C160.857 74.411 160.265 75.373 159.599 76.113C158.896 76.853 158.23 77.334 157.638 77.519ZM175.287 69.453H163.336L169.145 54.912L175.287 69.453ZM192.089 77.519H189.684V78H199.489C201.931 78 204.114 77.778 206.112 77.334C208.11 76.89 209.812 76.15 211.218 75.114C212.624 74.115 213.697 72.783 214.474 71.118C215.214 69.49 215.621 67.455 215.621 65.05C215.621 62.682 215.214 60.647 214.474 58.982C213.697 57.354 212.624 56.022 211.218 54.986C209.812 53.987 208.11 53.247 206.112 52.803C204.114 52.359 201.931 52.1 199.489 52.1H189.684V52.581H192.089V77.519ZM200.525 77.186H195.086V52.877H200.525C204.299 52.877 207.148 53.876 209.146 55.837C211.107 57.835 212.106 60.906 212.106 65.05C212.106 69.231 211.107 72.302 209.146 74.263C207.148 76.224 204.299 77.186 200.525 77.186ZM219.692 77.519V78H225.76V77.519C224.835 77.371 224.169 76.89 223.799 76.076C223.392 75.299 223.429 74.337 223.91 73.227L225.205 69.934H237.563L240.745 77.519H238.599V78H246.554V77.519H244.223L233.16 52.1H231.828L223.429 73.153C222.911 74.411 222.319 75.373 221.653 76.113C220.95 76.853 220.284 77.334 219.692 77.519ZM237.341 69.453H225.39L231.199 54.912L237.341 69.453ZM87.7362 109.1H76.5622V109.581H78.9302V134.519H76.5622V135H85.5902V134.519H81.9642V125.528H87.7732C90.7332 125.491 93.0642 124.751 94.7292 123.345C96.3572 121.939 97.2082 119.941 97.2082 117.314C97.2082 114.576 96.3572 112.541 94.6922 111.209C93.0272 109.877 90.6962 109.174 87.7362 109.1ZM85.8862 125.047H81.9642V109.877H85.8862C88.4762 109.877 90.4372 110.469 91.7322 111.653C93.0272 112.837 93.6932 114.724 93.6932 117.314C93.6932 119.978 93.0272 121.939 91.7692 123.197C90.5112 124.455 88.5502 125.047 85.8862 125.047ZM98.6928 134.519V135H104.761V134.519C103.836 134.371 103.17 133.89 102.8 133.076C102.393 132.299 102.43 131.337 102.911 130.227L104.206 126.934H116.564L119.746 134.519H117.6V135H125.555V134.519H123.224L112.161 109.1H110.829L102.43 130.153C101.912 131.411 101.32 132.373 100.654 133.113C99.9508 133.853 99.2848 134.334 98.6928 134.519ZM116.342 126.453H104.391L110.2 111.912L116.342 126.453ZM130.738 135H138.545V134.519H136.14V122.79H141.875C143.059 122.79 144.058 122.864 144.872 123.012C145.649 123.16 146.278 123.382 146.759 123.715C147.203 124.085 147.536 124.529 147.758 125.121C147.943 125.713 148.054 126.416 148.054 127.267V131.078C148.054 132.706 148.387 133.816 149.127 134.408C149.83 135 150.829 135.259 152.087 135.259C152.864 135.259 153.493 135.148 153.937 134.852C154.381 134.593 154.751 134.26 154.973 133.853C155.195 133.446 155.306 133.002 155.38 132.484C155.454 132.003 155.491 131.522 155.491 131.078H155.047C155.047 132.04 154.899 132.817 154.64 133.409C154.344 134.001 153.9 134.297 153.234 134.297C152.605 134.297 152.124 134.112 151.828 133.705C151.532 133.298 151.384 132.558 151.384 131.522V128.303C151.384 127.193 151.236 126.231 151.014 125.491C150.755 124.751 150.348 124.159 149.756 123.715C149.164 123.271 148.424 122.975 147.462 122.79C146.5 122.605 145.279 122.494 143.836 122.494V122.346C145.094 122.346 146.167 122.198 147.129 121.902C148.091 121.606 148.868 121.162 149.497 120.607C150.126 120.052 150.607 119.386 150.903 118.609C151.199 117.869 151.384 117.018 151.384 116.093C151.384 114.761 151.125 113.651 150.644 112.763C150.163 111.875 149.497 111.135 148.646 110.58C147.758 110.062 146.722 109.655 145.464 109.433C144.206 109.211 142.837 109.1 141.357 109.1H130.738V109.581H133.143V134.519H130.738V135ZM140.987 122.309H136.14V109.877H140.987C141.949 109.877 142.837 109.988 143.688 110.136C144.539 110.321 145.279 110.654 145.945 111.098C146.574 111.542 147.092 112.171 147.462 112.948C147.832 113.762 148.054 114.761 148.054 115.982C148.054 117.24 147.869 118.239 147.499 119.053C147.129 119.867 146.648 120.533 146.019 121.014C145.39 121.495 144.65 121.828 143.799 122.013C142.911 122.235 141.986 122.309 140.987 122.309ZM182.316 109.1H159.191V117.166H159.635C159.709 116.352 159.783 115.501 159.894 114.613C159.968 113.762 160.19 112.985 160.523 112.282C160.856 111.579 161.374 110.987 162.077 110.543C162.743 110.099 163.742 109.877 165 109.877H169.255V134.519H166.85V135H174.657V134.519H172.252V109.877H176.507C177.765 109.877 178.727 110.099 179.43 110.543C180.096 110.987 180.614 111.579 180.947 112.282C181.28 112.985 181.502 113.762 181.613 114.613C181.687 115.501 181.798 116.352 181.872 117.166H182.316V109.1ZM188.591 109.581H191.033L192.772 111.727V127.489C192.772 128.451 192.698 129.339 192.624 130.116C192.55 130.93 192.365 131.633 192.106 132.225C191.847 132.817 191.477 133.335 191.033 133.705C190.552 134.112 189.923 134.371 189.146 134.519V135H197.138V134.519C196.324 134.371 195.695 134.112 195.214 133.705C194.696 133.335 194.326 132.817 194.03 132.225C193.734 131.633 193.512 130.93 193.401 130.116C193.29 129.339 193.253 128.451 193.253 127.489V112.356L211.42 135H213.048V116.611C213.048 115.649 213.085 114.798 213.159 113.984C213.233 113.207 213.418 112.504 213.677 111.912C213.899 111.32 214.269 110.802 214.75 110.395C215.194 110.025 215.823 109.729 216.637 109.581V109.1H208.645V109.581C209.385 109.729 210.014 110.025 210.532 110.395C211.05 110.802 211.457 111.32 211.753 111.912C212.049 112.504 212.234 113.207 212.382 113.984C212.493 114.798 212.567 115.649 212.567 116.611V130.893L195.029 109.1H188.591V109.581ZM225.717 134.519H223.312V135H243.514V126.638H243.07C242.922 127.896 242.7 128.969 242.404 129.894C242.108 130.856 241.701 131.633 241.146 132.262C240.591 132.891 239.888 133.372 239 133.705C238.112 134.038 237.002 134.186 235.67 134.186H228.714V122.272H234.412C235.189 122.272 235.855 122.346 236.373 122.457C236.891 122.568 237.335 122.753 237.668 123.012C238.001 123.271 238.26 123.641 238.482 124.085C238.704 124.529 238.889 125.121 239.037 125.787H239.37V118.276H239.037C238.889 118.979 238.704 119.571 238.482 120.015C238.26 120.459 238.001 120.829 237.668 121.088C237.335 121.347 236.891 121.532 236.373 121.643C235.855 121.754 235.189 121.791 234.412 121.791H228.714V109.877H235.041C236.373 109.877 237.483 110.062 238.371 110.395C239.259 110.728 239.962 111.209 240.517 111.838C241.072 112.504 241.479 113.281 241.775 114.243C242.071 115.205 242.293 116.278 242.441 117.462H242.885V109.1H223.312V109.581H225.717V134.519ZM250.183 135H257.99V134.519H255.585V122.79H261.32C262.504 122.79 263.503 122.864 264.317 123.012C265.094 123.16 265.723 123.382 266.204 123.715C266.648 124.085 266.981 124.529 267.203 125.121C267.388 125.713 267.499 126.416 267.499 127.267V131.078C267.499 132.706 267.832 133.816 268.572 134.408C269.275 135 270.274 135.259 271.532 135.259C272.309 135.259 272.938 135.148 273.382 134.852C273.826 134.593 274.196 134.26 274.418 133.853C274.64 133.446 274.751 133.002 274.825 132.484C274.899 132.003 274.936 131.522 274.936 131.078H274.492C274.492 132.04 274.344 132.817 274.085 133.409C273.789 134.001 273.345 134.297 272.679 134.297C272.05 134.297 271.569 134.112 271.273 133.705C270.977 133.298 270.829 132.558 270.829 131.522V128.303C270.829 127.193 270.681 126.231 270.459 125.491C270.2 124.751 269.793 124.159 269.201 123.715C268.609 123.271 267.869 122.975 266.907 122.79C265.945 122.605 264.724 122.494 263.281 122.494V122.346C264.539 122.346 265.612 122.198 266.574 121.902C267.536 121.606 268.313 121.162 268.942 120.607C269.571 120.052 270.052 119.386 270.348 118.609C270.644 117.869 270.829 117.018 270.829 116.093C270.829 114.761 270.57 113.651 270.089 112.763C269.608 111.875 268.942 111.135 268.091 110.58C267.203 110.062 266.167 109.655 264.909 109.433C263.651 109.211 262.282 109.1 260.802 109.1H250.183V109.581H252.588V134.519H250.183V135ZM260.432 122.309H255.585V109.877H260.432C261.394 109.877 262.282 109.988 263.133 110.136C263.984 110.321 264.724 110.654 265.39 111.098C266.019 111.542 266.537 112.171 266.907 112.948C267.277 113.762 267.499 114.761 267.499 115.982C267.499 117.24 267.314 118.239 266.944 119.053C266.574 119.867 266.093 120.533 265.464 121.014C264.835 121.495 264.095 121.828 263.244 122.013C262.356 122.235 261.431 122.309 260.432 122.309ZM280.45 127.526H280.117V133.483C281.523 133.927 282.966 134.334 284.446 134.704C285.926 135.074 287.332 135.259 288.738 135.259C289.848 135.259 290.921 135.148 291.957 134.889C292.993 134.667 293.881 134.297 294.695 133.779C295.509 133.261 296.175 132.632 296.693 131.818C297.211 131.041 297.581 130.116 297.729 129.006C297.877 127.97 297.803 127.082 297.581 126.305C297.322 125.565 296.915 124.862 296.323 124.233C295.731 123.641 294.991 123.049 294.103 122.531C293.215 122.013 292.179 121.458 291.032 120.94C289.959 120.496 288.96 120.015 288.035 119.534C287.11 119.053 286.333 118.535 285.667 117.943C285.001 117.388 284.483 116.722 284.187 115.982C283.854 115.242 283.743 114.317 283.891 113.281C283.965 112.541 284.187 111.949 284.52 111.468C284.816 110.987 285.223 110.617 285.667 110.321C286.111 110.025 286.629 109.84 287.221 109.729C287.813 109.618 288.405 109.544 289.034 109.544C289.922 109.544 290.699 109.655 291.402 109.84C292.105 110.062 292.734 110.395 293.326 110.913C293.918 111.431 294.436 112.097 294.954 112.948C295.435 113.799 295.916 114.872 296.36 116.167H296.693V110.839C295.546 110.432 294.325 110.025 292.993 109.618C291.661 109.211 290.366 108.989 289.071 108.989C288.183 108.989 287.332 109.1 286.444 109.285C285.556 109.47 284.705 109.766 283.965 110.21C283.225 110.654 282.596 111.283 282.078 112.023C281.56 112.763 281.227 113.725 281.116 114.835C280.968 115.982 281.079 116.981 281.449 117.832C281.819 118.683 282.337 119.423 283.04 120.089C283.743 120.755 284.594 121.347 285.556 121.865C286.518 122.383 287.554 122.901 288.664 123.345C289.848 123.863 290.847 124.418 291.735 124.973C292.586 125.565 293.289 126.157 293.807 126.823C294.325 127.489 294.621 128.229 294.732 129.043C294.843 129.857 294.732 130.782 294.399 131.781C294.029 132.817 293.363 133.557 292.364 134.001C291.365 134.482 290.07 134.704 288.479 134.704C287.517 134.704 286.666 134.63 285.889 134.408C285.075 134.223 284.372 133.853 283.743 133.298C283.077 132.78 282.485 132.04 281.967 131.115C281.412 130.19 280.894 129.006 280.45 127.526Z" fill="#A67F56"/>
<path d="M79.483 193.692H80.3907C79.6417 195.485 78.8978 197.267 78.1588 199.039C77.4198 200.812 76.673 202.593 75.9184 204.384L73.6951 199.039C72.9561 197.267 72.2122 195.485 71.4633 193.692H72.3709L74.0795 197.809L75.7881 201.925C75.8052 202.003 75.8287 202.077 75.8522 202.142C75.8757 202.207 75.8971 202.291 75.9163 202.358C75.9355 202.283 75.9569 202.207 75.9825 202.142C76.0081 202.077 76.0273 201.994 76.0466 201.925C76.6161 200.541 77.1856 199.169 77.7552 197.809C78.3247 196.448 78.9006 195.076 79.483 193.692Z" fill="#193E69"/>
<path d="M83.2548 193.692H84.1624V203.916H83.2548V193.692Z" fill="#193E69"/>
<path d="M87.4152 203.916V193.692H93.5063V194.559H88.3058V198.346H92.9425V199.213H88.3058V203.067H93.7049V203.934L87.4152 203.916Z" fill="#193E69"/>
<path d="M103.64 193.692V194.559H100.114V203.905H99.2215V194.57H95.6804V193.703L103.64 193.692Z" fill="#193E69"/>
<path d="M114.597 193.692V204.384C113.315 202.933 112.034 201.494 110.752 200.068C109.471 198.643 108.195 197.202 106.925 195.746C106.876 195.677 106.831 195.614 106.786 195.555L106.65 195.367C106.66 195.445 106.667 195.521 106.673 195.599C106.68 195.677 106.684 195.755 106.694 195.833V203.91H105.802V193.226L109.646 197.607L113.49 201.988C113.537 202.057 113.582 202.12 113.627 202.179L113.764 202.367C113.753 202.291 113.747 202.213 113.742 202.135C113.738 202.057 113.73 201.979 113.719 201.901V193.692H114.597Z" fill="#193E69"/>
<path d="M126.591 203.916H125.681C125.385 203.214 125.093 202.511 124.803 201.806C124.514 201.101 124.222 200.398 123.926 199.696H120.314C120.029 200.395 119.739 201.098 119.443 201.806C119.147 202.514 118.851 203.217 118.556 203.916H117.664C118.414 202.125 119.158 200.344 119.896 198.571C120.633 196.799 121.377 195.017 122.127 193.226C122.875 195.019 123.619 196.798 124.359 198.563C125.1 200.328 125.844 202.112 126.591 203.916ZM122.264 195.694C122.245 195.616 122.221 195.54 122.198 195.467C122.174 195.393 122.153 195.319 122.134 195.25C121.938 195.861 121.71 196.46 121.45 197.046C121.193 197.64 120.939 198.233 120.688 198.827H123.546C123.332 198.3 123.118 197.778 122.905 197.256C122.691 196.734 122.478 196.221 122.264 195.694Z" fill="#193E69"/>
<path d="M129.598 193.226C130.482 194.382 131.361 195.537 132.234 196.693C133.107 197.848 133.985 199.004 134.869 200.159C135.751 199.004 136.628 197.848 137.503 196.693C138.377 195.537 139.255 194.382 140.138 193.226V203.916H139.245V196.292C139.245 196.195 139.245 196.106 139.245 196.023C139.245 195.941 139.258 195.854 139.267 195.768C138.58 196.764 137.861 197.747 137.107 198.716C136.354 199.686 135.607 200.659 134.865 201.637L132.921 199.061C132.276 198.207 131.629 197.348 130.978 196.483L130.675 196.088C130.635 196.037 130.599 195.984 130.566 195.928C130.535 195.871 130.499 195.818 130.459 195.768C130.459 195.854 130.476 195.939 130.48 196.023C130.485 196.108 130.48 196.195 130.48 196.292V203.916H129.588L129.598 193.226Z" fill="#193E69"/>
<path d="M36.0527 211.023C35.589 210.573 35.0405 210.223 34.4402 209.993C33.8153 209.753 33.1521 209.632 32.4838 209.636H30.1345V219.86H31.9905C32.875 219.886 33.7551 219.724 34.5747 219.386C35.226 219.108 35.8124 218.695 36.2961 218.172C36.7294 217.701 37.0586 217.141 37.2615 216.53C37.4522 215.961 37.5517 215.364 37.5562 214.762C37.5642 214.036 37.4253 213.315 37.1483 212.645C36.8944 212.035 36.5217 211.483 36.0527 211.023ZM36.0527 216.376C35.8562 216.846 35.5662 217.269 35.2009 217.619C34.8355 217.97 34.4028 218.24 33.9297 218.413C33.4236 218.601 32.8883 218.695 32.3493 218.69H31.3305V210.789H32.3493C32.8898 210.784 33.4267 210.879 33.934 211.068C34.4082 211.241 34.8419 211.511 35.2074 211.863C35.5728 212.215 35.8622 212.64 36.0569 213.111C36.2695 213.629 36.375 214.186 36.3666 214.747C36.3722 215.307 36.2631 215.862 36.0463 216.376H36.0527Z" fill="#B78118"/>
<path d="M31.9926 220.012H30V209.491H32.4839C33.1697 209.487 33.8503 209.612 34.4915 209.859C35.1087 210.094 35.673 210.452 36.1509 210.912C36.6322 211.384 37.0155 211.949 37.2786 212.574C37.5624 213.267 37.702 214.012 37.6887 214.762C37.6834 215.379 37.581 215.991 37.3854 216.576C37.182 217.207 36.8486 217.788 36.4072 218.279C35.9098 218.815 35.3075 219.24 34.6388 219.526C33.7994 219.872 32.8983 220.037 31.9926 220.012ZM30.2841 219.724H31.9926C32.8572 219.748 33.7173 219.591 34.5192 219.262C35.1527 218.989 35.723 218.585 36.1937 218.075C36.6092 217.617 36.925 217.075 37.1206 216.485C37.3071 215.93 37.4044 215.348 37.4089 214.762C37.4192 214.053 37.2862 213.35 37.018 212.695C36.7693 212.105 36.4061 211.572 35.9502 211.127C35.4994 210.692 34.968 210.353 34.3868 210.128C33.7773 209.895 33.131 209.777 32.4796 209.779H30.2776L30.2841 219.724ZM32.3493 218.835H31.1896V210.646H32.3493C32.9064 210.641 33.4598 210.738 33.9832 210.932C34.4746 211.114 34.9244 211.395 35.3052 211.759C35.6849 212.126 35.9853 212.569 36.1872 213.059C36.4067 213.595 36.5157 214.171 36.5076 214.751C36.5166 215.33 36.4075 215.903 36.1872 216.437C35.9831 216.925 35.682 217.364 35.3027 217.728C34.9235 218.093 34.4743 218.374 33.9832 218.554C33.4593 218.745 32.9061 218.84 32.3493 218.835ZM31.495 218.547H32.3493C32.8686 218.55 33.3842 218.459 33.8721 218.279C34.3277 218.109 34.7453 217.849 35.1002 217.514C35.4477 217.178 35.7252 216.775 35.916 216.329C36.1199 215.831 36.2209 215.296 36.2129 214.758C36.2203 214.217 36.1193 213.68 35.916 213.181C35.7276 212.728 35.45 212.318 35.1002 211.978C34.7453 211.642 34.3277 211.382 33.8721 211.213C33.3849 211.029 32.8692 210.935 32.3493 210.934H31.495V218.547Z" fill="#B78118"/>
<path d="M40.9905 215.289H45.4393V214.134H40.9905V210.791H46.001V209.636H39.7966V219.86H46.2017V218.705H40.9905V215.289Z" fill="#B78118"/>
<path d="M46.3448 220.012H39.6536V209.491H46.1441V210.934H41.1336V213.991H45.5909V215.432H41.1336V218.562H46.3448V220.012ZM39.9376 219.724H46.0608V218.857H40.8496V215.143H45.2983V214.277H40.8496V210.646H45.86V209.779H39.9376V219.724Z" fill="#B78118"/>
<path d="M53.4803 214.916C53.1698 214.668 52.8288 214.462 52.4658 214.303C52.1006 214.143 51.761 214.004 51.4428 213.887C51.2421 213.818 51.0477 213.744 50.8598 213.67C50.6812 213.597 50.5126 213.501 50.3579 213.384C50.2099 213.273 50.0869 213.131 49.9969 212.968C49.9 212.779 49.8529 212.568 49.8602 212.355C49.8528 211.938 49.9964 211.532 50.2639 211.215C50.5309 210.895 50.9452 210.734 51.5005 210.734C51.7124 210.733 51.9235 210.76 52.1284 210.815C52.3116 210.862 52.4898 210.928 52.6602 211.012C52.8098 211.084 52.9527 211.17 53.0873 211.267C53.1948 211.345 53.2961 211.43 53.3906 211.523C53.5038 211.376 53.617 211.231 53.7281 211.09C53.8391 210.949 53.9416 210.797 54.0655 210.656C53.6631 210.282 53.1942 209.987 52.6837 209.79C52.2988 209.658 51.8959 209.59 51.4898 209.586C51.0311 209.572 50.5747 209.657 50.1507 209.835C49.8133 209.982 49.5132 210.204 49.2729 210.485C49.0566 210.735 48.8938 211.028 48.7945 211.345C48.6995 211.657 48.6562 211.983 48.6663 212.31C48.6638 212.685 48.7472 213.056 48.9098 213.393C49.0505 213.672 49.2384 213.925 49.4651 214.138C49.6687 214.33 49.899 214.489 50.1486 214.613C50.3878 214.73 50.5949 214.829 50.7679 214.89C50.9815 214.977 51.2463 215.07 51.5453 215.167C51.8427 215.265 52.129 215.394 52.3996 215.553C52.6658 215.708 52.9 215.914 53.0895 216.16C53.2868 216.434 53.3862 216.769 53.3714 217.109C53.3766 217.366 53.3225 217.621 53.2133 217.854C53.1119 218.062 52.9659 218.244 52.7862 218.387C52.6028 218.531 52.3951 218.64 52.1732 218.71C51.94 218.782 51.6974 218.819 51.4535 218.818C51.1899 218.82 50.9277 218.781 50.6761 218.701C50.444 218.627 50.2217 218.524 50.014 218.396C49.8166 218.271 49.6288 218.131 49.4523 217.977C49.2956 217.842 49.1465 217.697 49.0059 217.544L48.2584 218.302C48.4045 218.522 48.5815 218.719 48.7838 218.887C49.0216 219.091 49.2792 219.27 49.5527 219.42C49.8545 219.586 50.1731 219.719 50.5031 219.815C50.85 219.917 51.2096 219.969 51.571 219.968C51.963 219.97 52.3523 219.903 52.7221 219.771C53.0752 219.646 53.4009 219.453 53.6811 219.201C53.9537 218.95 54.1718 218.644 54.3218 218.302C54.4842 217.93 54.565 217.526 54.5589 217.119C54.572 216.666 54.4651 216.217 54.2492 215.819C54.0521 215.471 53.7911 215.165 53.4803 214.916Z" fill="#B78118"/>
<path d="M51.571 220.12C51.1975 220.12 50.8258 220.067 50.4669 219.962C50.1268 219.862 49.7981 219.725 49.4866 219.555C49.205 219.399 48.9395 219.216 48.6942 219.006C48.4809 218.829 48.2945 218.621 48.141 218.389L48.0791 218.292L49.0124 217.345L49.1128 217.453C49.2472 217.601 49.3898 217.742 49.54 217.873C49.7101 218.022 49.8914 218.157 50.0824 218.276C50.2835 218.4 50.4986 218.498 50.7232 218.569C51.1827 218.71 51.6732 218.71 52.1327 218.569C52.3386 218.508 52.5318 218.41 52.703 218.279C52.8652 218.148 52.9965 217.982 53.0874 217.793C53.1873 217.581 53.2363 217.348 53.2305 217.113C53.2464 216.804 53.1583 216.498 52.9806 216.246C52.8044 216.017 52.587 215.824 52.3399 215.676C52.0771 215.523 51.7994 215.397 51.5112 215.302C51.2165 215.206 50.9517 215.111 50.7253 215.022C50.5502 214.953 50.3387 214.857 50.0974 214.74C49.8359 214.61 49.5942 214.442 49.3798 214.242C49.1409 214.018 48.9428 213.752 48.7946 213.458C48.6223 213.099 48.5332 212.705 48.534 212.305C48.5252 211.964 48.5707 211.623 48.6686 211.296C48.7754 210.937 48.9594 210.607 49.2072 210.329C49.455 210.051 49.7605 209.832 50.1017 209.688C50.544 209.502 51.0199 209.413 51.4984 209.426C51.92 209.431 52.3381 209.504 52.7372 209.643C53.2646 209.844 53.7494 210.146 54.166 210.531L54.2728 210.622L54.1852 210.732C54.072 210.877 53.9588 211.023 53.8499 211.166C53.741 211.309 53.6256 211.458 53.5103 211.599L53.4099 211.725L53.2989 211.612C53.2092 211.524 53.1135 211.443 53.0127 211.369C52.8849 211.277 52.7499 211.196 52.609 211.127C52.4452 211.05 52.2751 210.987 52.1007 210.94C51.9083 210.889 51.7101 210.864 51.5112 210.864C51.0008 210.864 50.6206 211.01 50.3836 211.298C50.1367 211.588 50.005 211.961 50.0141 212.344C50.0068 212.532 50.0473 212.719 50.1316 212.886C50.2109 213.032 50.3202 213.159 50.4519 213.259C50.5988 213.366 50.758 213.456 50.926 213.525C51.1097 213.601 51.3041 213.675 51.4984 213.742C51.8188 213.861 52.1669 214.002 52.5343 214.164C52.9079 214.328 53.259 214.541 53.5786 214.797C53.9071 215.059 54.1832 215.383 54.3924 215.75C54.6199 216.17 54.7334 216.643 54.7213 217.122C54.7265 217.549 54.6413 217.974 54.4714 218.365C54.3105 218.725 54.0778 219.046 53.7879 219.31C53.4952 219.574 53.1541 219.777 52.7841 219.908C52.395 220.049 51.9845 220.121 51.571 220.12ZM48.4443 218.328C48.5697 218.496 48.7129 218.65 48.8715 218.785C49.102 218.983 49.3517 219.155 49.6168 219.301C49.9096 219.463 50.219 219.592 50.5395 219.685C51.2385 219.895 51.9846 219.881 52.6752 219.643C53.0102 219.524 53.3192 219.34 53.585 219.102C53.8462 218.864 54.0557 218.574 54.2001 218.25C54.3532 217.897 54.4297 217.514 54.4244 217.128C54.4377 216.698 54.3374 216.273 54.1339 215.895C53.9429 215.561 53.6906 215.267 53.3907 215.029C53.0893 214.789 52.7592 214.59 52.4083 214.435C52.0452 214.275 51.7035 214.136 51.3938 214.021C51.1952 213.954 50.9944 213.88 50.8043 213.805C50.6147 213.726 50.4353 213.624 50.2704 213.501C50.1054 213.379 49.969 213.221 49.871 213.04C49.7621 212.83 49.7084 212.595 49.7151 212.357C49.7079 211.906 49.8636 211.467 50.1529 211.124C50.4476 210.771 50.9004 210.591 51.4984 210.591C51.7225 210.59 51.9458 210.619 52.1626 210.676C52.3549 210.73 52.5416 210.802 52.7201 210.893C52.877 210.967 53.0265 211.057 53.1664 211.161C53.2412 211.218 53.3095 211.27 53.38 211.322L53.6214 211.007C53.7047 210.897 53.7901 210.791 53.8755 210.678C53.5143 210.356 53.0982 210.103 52.6475 209.933C52.2764 209.806 51.8879 209.739 51.4963 209.736C51.0577 209.722 50.6213 209.802 50.2148 209.97C49.8979 210.106 49.6149 210.313 49.3862 210.574C49.1826 210.815 49.0306 211.096 48.9398 211.4C48.8495 211.697 48.8077 212.007 48.8159 212.318C48.8129 212.673 48.8912 213.024 49.0445 213.343C49.177 213.607 49.3541 213.845 49.5677 214.047C49.7589 214.228 49.9747 214.381 50.2084 214.5C50.4434 214.615 50.6484 214.706 50.8171 214.773C51.0307 214.86 51.2955 214.953 51.586 215.046C51.8936 215.148 52.1899 215.283 52.4702 215.447C52.7531 215.614 53.0017 215.835 53.2027 216.097C53.4181 216.398 53.5272 216.763 53.5124 217.135C53.518 217.415 53.4588 217.692 53.3394 217.945C53.2296 218.172 53.0713 218.371 52.876 218.528C52.6789 218.682 52.4561 218.798 52.2182 218.872C51.7023 219.031 51.1514 219.031 50.6356 218.872C50.3924 218.793 50.1593 218.685 49.9415 218.549C49.7374 218.421 49.5439 218.276 49.3627 218.116C49.2303 218.001 49.1107 217.899 49.006 217.782L48.4443 218.328Z" fill="#B78118"/>
<path d="M58.4695 209.636H57.2734V219.86H58.4695V209.636Z" fill="#B78118"/>
<path d="M58.6189 220.012H57.1239V209.491H58.6189V220.012ZM57.4229 219.724H58.3349V209.779H57.4229V219.724Z" fill="#B78118"/>
<path d="M63.2428 211.878C63.6002 211.505 64.0251 211.205 64.4943 210.994C64.9774 210.779 65.5 210.67 66.0278 210.674C66.3788 210.671 66.7284 210.72 67.0658 210.819C67.3925 210.917 67.7065 211.055 68.0012 211.228C68.1059 211.062 68.2148 210.899 68.3323 210.739C68.4497 210.578 68.5565 210.416 68.6633 210.249C68.2723 210.017 67.854 209.836 67.4182 209.71C66.9658 209.58 66.4978 209.516 66.0278 209.519C65.3394 209.515 64.6577 209.656 64.0266 209.935C63.4172 210.202 62.863 210.584 62.3928 211.059C61.923 211.538 61.5488 212.103 61.2907 212.726C61.0211 213.369 60.8845 214.063 60.8892 214.762C60.8838 215.46 61.0205 216.151 61.2907 216.792C61.8114 218.046 62.7926 219.045 64.0266 219.578C64.6588 219.853 65.3401 219.992 66.0278 219.988C66.4981 219.99 66.9664 219.923 67.4182 219.791C67.847 219.662 68.2598 219.483 68.6483 219.258V216.355C68.6649 216.124 68.6175 215.894 68.5117 215.689C68.4443 215.609 68.3582 215.547 68.2612 215.509C68.1642 215.471 68.0594 215.459 67.9564 215.473H65.9701V216.628H67.1213C67.2751 216.628 67.369 216.66 67.4032 216.723C67.4453 216.832 67.4628 216.949 67.4545 217.065V218.556C66.9989 218.732 66.5152 218.82 66.0278 218.818C65.5 218.822 64.9774 218.713 64.4943 218.497C64.0281 218.289 63.6038 217.995 63.2428 217.631C62.6851 217.057 62.3066 216.328 62.1546 215.537C62.0027 214.746 62.084 213.927 62.3885 213.183C62.5897 212.697 62.8796 212.255 63.2428 211.878Z" fill="#B78118"/>
<path d="M66.0278 220.12C65.3211 220.124 64.6211 219.981 63.9711 219.7C62.7051 219.155 61.6973 218.133 61.1605 216.849C60.887 216.187 60.7462 215.476 60.7462 214.759C60.7462 214.041 60.887 213.331 61.1605 212.669C61.4265 212.031 61.8108 211.45 62.2924 210.958C62.7755 210.47 63.3441 210.078 63.969 209.803C64.6182 209.515 65.3194 209.368 66.0278 209.37C66.5108 209.368 66.9917 209.434 67.4566 209.567C67.9053 209.696 68.3359 209.882 68.7381 210.121L68.8684 210.197L68.7872 210.323C68.6804 210.492 68.5736 210.656 68.4519 210.819C68.3302 210.981 68.2276 211.14 68.1251 211.302L68.0504 211.417L67.9329 211.348C67.6486 211.18 67.3453 211.047 67.0295 210.953C66.7054 210.858 66.3695 210.811 66.0321 210.812C65.5241 210.809 65.0212 210.915 64.5563 211.122C64.1038 211.326 63.6935 211.615 63.3475 211.974C62.9986 212.339 62.7204 212.768 62.5273 213.237C62.2314 213.954 62.1513 214.744 62.2972 215.508C62.4432 216.271 62.8086 216.974 63.3475 217.527C63.6963 217.879 64.1061 218.163 64.5563 218.365C65.0213 218.572 65.5243 218.677 66.0321 218.673C66.4683 218.675 66.9016 218.602 67.3135 218.456V217.067C67.3215 216.975 67.3098 216.882 67.2794 216.794C67.2295 216.776 67.1764 216.769 67.1235 216.773H65.8313V215.332H67.9671C68.0933 215.317 68.2213 215.334 68.3393 215.382C68.4573 215.43 68.5614 215.507 68.642 215.607C68.7634 215.835 68.819 216.094 68.8022 216.352V219.327L68.7295 219.368C68.3317 219.6 67.9089 219.784 67.4695 219.916C67.0011 220.055 66.5156 220.123 66.0278 220.12ZM66.0278 209.664C65.3594 209.66 64.6974 209.797 64.0843 210.067C63.4912 210.328 62.9515 210.699 62.4932 211.161C62.0377 211.627 61.6751 212.177 61.4253 212.782C61.1667 213.408 61.0335 214.08 61.0335 214.759C61.0335 215.438 61.1667 216.11 61.4253 216.736C61.9344 217.951 62.8883 218.919 64.0864 219.435C64.7017 219.701 65.3637 219.835 66.0321 219.832C66.4887 219.834 66.9432 219.77 67.3819 219.641C67.7739 219.524 68.152 219.363 68.5096 219.162V216.346C68.5241 216.143 68.485 215.941 68.3964 215.759C68.3344 215.663 68.1828 215.614 67.9692 215.614H66.1261V216.48H67.1341C67.2132 216.48 67.4502 216.48 67.5421 216.651C67.595 216.782 67.6176 216.923 67.6083 217.063V218.651L67.5164 218.688C67.0451 218.87 66.5449 218.962 66.0406 218.961C65.4931 218.964 64.9509 218.851 64.4495 218.627C63.9671 218.411 63.5283 218.106 63.1553 217.728C62.5787 217.133 62.1878 216.379 62.0313 215.56C61.8748 214.74 61.9597 213.893 62.2753 213.122C62.481 212.619 62.7788 212.16 63.1531 211.77C63.5242 211.385 63.9641 211.074 64.4495 210.856C64.9509 210.633 65.4931 210.519 66.0406 210.522C66.4018 210.522 66.7613 210.573 67.1085 210.674C67.4047 210.762 67.691 210.881 67.9628 211.029C68.0482 210.901 68.1337 210.773 68.2255 210.648C68.3173 210.522 68.39 210.412 68.469 210.292C68.1257 210.102 67.7625 209.951 67.3862 209.842C66.9439 209.718 66.4866 209.658 66.0278 209.664Z" fill="#B78118"/>
<path d="M79.1435 217.195C79.1435 217.273 79.1606 217.351 79.1648 217.429C79.1691 217.507 79.1776 217.585 79.1862 217.663C79.1392 217.594 79.0943 217.531 79.0495 217.473L78.9128 217.284C77.6769 215.919 76.4489 214.568 75.2286 213.23L71.5424 209.179V219.86H72.7362V212.47C72.7362 212.392 72.7213 212.314 72.7149 212.236C72.7085 212.158 72.7042 212.08 72.6935 212.002L72.8302 212.193C72.8729 212.251 72.9199 212.314 72.9669 212.381L76.6532 216.355L80.3395 220.326V209.636H79.1435V217.195Z" fill="#B78118"/>
<path d="M80.4804 220.69L72.8772 212.496V220.012H71.3971V208.8L71.647 209.071L75.3311 213.124C76.5457 214.456 77.7694 215.801 79.0025 217.158V209.491H80.4804V220.69ZM72.4842 211.454L72.8088 211.917L72.9434 212.106C72.9882 212.164 73.0352 212.229 73.0822 212.299L80.1899 219.964V209.781H79.2801V217.18C79.2801 217.258 79.2951 217.336 79.3015 217.414C79.3079 217.492 79.3122 217.564 79.3228 217.631L79.3955 218.198L79.0644 217.735L78.9299 217.546L78.791 217.353L75.1176 213.315L71.6769 209.534V219.717H72.5888V212.47C72.5888 212.407 72.5718 212.325 72.5675 212.253C72.5632 212.182 72.5547 212.104 72.5461 212.037L72.4842 211.454Z" fill="#B78118"/>
<path d="M96.7911 218.69C96.5859 218.835 96.3661 218.957 96.1354 219.054C95.9319 219.138 95.7144 219.182 95.4947 219.182C95.2099 219.176 94.9316 219.095 94.6874 218.946C94.3459 218.735 94.0395 218.47 93.7797 218.162C94.171 217.655 94.4935 217.098 94.7387 216.504C94.9822 215.93 95.1537 215.327 95.2491 214.71H96.5305V214.14H93.1497V214.71H94.6255C94.608 214.947 94.5687 215.181 94.508 215.41C94.4417 215.668 94.3574 215.922 94.256 216.168C94.0328 216.71 93.7406 217.22 93.3867 217.685C93.2244 217.479 93.0343 217.223 92.8208 216.914C92.6072 216.604 92.3936 216.279 92.18 215.934C91.9665 215.59 91.7529 215.247 91.5393 214.907C91.3257 214.567 91.1634 214.257 91.0225 213.997C91.3329 213.853 91.6368 213.702 91.9344 213.545C92.2169 213.4 92.4826 213.224 92.7268 213.02C92.954 212.831 93.1438 212.6 93.2864 212.34C93.4186 212.065 93.4906 211.765 93.4972 211.459C93.5038 211.154 93.445 210.85 93.3248 210.57C93.2161 210.34 93.0603 210.136 92.8677 209.972C92.673 209.81 92.4487 209.689 92.2078 209.614C91.9537 209.536 91.6895 209.497 91.424 209.497C91.0815 209.493 90.7416 209.559 90.4245 209.69C90.138 209.81 89.877 209.984 89.6556 210.204C89.4426 210.417 89.2728 210.67 89.1558 210.949C89.0367 211.229 88.9757 211.532 88.9764 211.837C88.978 212.017 88.9959 212.196 89.0298 212.372C89.0657 212.562 89.1142 212.749 89.1751 212.931C89.2349 213.12 89.3032 213.306 89.3886 213.495C89.4741 213.683 89.5467 213.867 89.63 214.047C89.3452 214.192 89.049 214.348 88.7415 214.517C88.443 214.691 88.1674 214.902 87.9214 215.146C87.6753 215.391 87.4736 215.679 87.3255 215.995C87.1635 216.347 87.0839 216.733 87.0927 217.122C87.085 217.551 87.1803 217.975 87.3703 218.359C87.5491 218.714 87.7977 219.028 88.1008 219.282C88.4097 219.536 88.7613 219.732 89.1387 219.86C89.5262 219.993 89.9323 220.06 90.3412 220.059C90.8115 220.062 91.2779 219.973 91.7144 219.795C92.1444 219.619 92.546 219.379 92.9062 219.082C93.2094 219.387 93.5601 219.639 93.9442 219.828C94.2794 219.982 94.6437 220.061 95.012 220.059C95.3685 220.056 95.7209 219.982 96.05 219.843C96.4525 219.663 96.8156 219.404 97.1179 219.08C97.0751 219.005 97.0273 218.932 96.9748 218.864C96.9178 218.801 96.8564 218.743 96.7911 218.69ZM90.2023 210.832C90.2634 210.676 90.3558 210.535 90.4736 210.418C90.5878 210.304 90.7246 210.215 90.8751 210.158C91.0303 210.097 91.1955 210.066 91.362 210.067C91.5151 210.067 91.667 210.094 91.8106 210.147C91.9514 210.198 92.0796 210.28 92.1864 210.386C92.3004 210.502 92.3885 210.642 92.4449 210.795C92.5153 210.984 92.5494 211.185 92.5452 211.387C92.5494 211.635 92.5021 211.882 92.4064 212.11C92.3156 212.321 92.1899 212.514 92.0348 212.682C91.8677 212.858 91.6798 213.013 91.4752 213.142C91.2514 213.285 91.0188 213.414 90.779 213.527C90.5727 213.129 90.3998 212.714 90.2621 212.286C90.167 211.993 90.1138 211.688 90.1041 211.38C90.1017 211.193 90.1351 211.007 90.2023 210.832ZM91.6205 219.145C91.323 219.272 91.0035 219.338 90.6807 219.338C90.4061 219.338 90.1335 219.289 89.8756 219.193C89.6129 219.098 89.3718 218.951 89.1665 218.76C88.9489 218.553 88.7765 218.302 88.6603 218.023C88.5251 217.691 88.4589 217.335 88.466 216.976C88.4624 216.707 88.4992 216.439 88.5749 216.181C88.644 215.956 88.7447 215.741 88.8739 215.544C89.0014 215.354 89.1529 215.181 89.3245 215.031C89.5005 214.871 89.6883 214.726 89.8862 214.595C89.9802 214.79 90.0998 215.005 90.228 215.245C90.3561 215.486 90.5035 215.728 90.6551 215.984C90.8068 216.24 90.9648 216.495 91.1293 216.753C91.2937 217.011 91.456 217.258 91.6183 217.492C91.7807 217.726 91.9344 217.938 92.0818 218.142C92.2292 218.346 92.3616 218.502 92.479 218.634C92.2165 218.842 91.9277 219.014 91.6205 219.145Z" fill="#B78118"/>
<path d="M94.997 220.202C94.6096 220.204 94.2264 220.12 93.8737 219.958C93.5119 219.783 93.1796 219.551 92.8891 219.271C92.5424 219.538 92.1616 219.757 91.7571 219.921C90.9011 220.26 89.9547 220.284 89.0832 219.988C88.689 219.855 88.3221 219.65 88.0004 219.383C87.6817 219.118 87.4206 218.788 87.2336 218.415C87.0342 218.012 86.9331 217.566 86.9389 217.115C86.9307 216.705 87.0155 216.298 87.1866 215.926C87.3428 215.594 87.5545 215.293 87.8124 215.035C88.0681 214.782 88.3553 214.563 88.6667 214.385C88.9251 214.234 89.1836 214.095 89.4377 213.969C89.3736 213.828 89.3117 213.685 89.2519 213.536C89.1729 213.345 89.1024 213.152 89.0383 212.962C88.977 212.772 88.9278 212.579 88.891 212.383C88.8543 212.199 88.8357 212.011 88.8354 211.822C88.8347 211.497 88.8994 211.176 89.0255 210.877C89.1499 210.582 89.3298 210.313 89.5552 210.087C89.79 209.854 90.067 209.669 90.371 209.543C90.9698 209.301 91.6317 209.273 92.2483 209.463C92.5083 209.541 92.7501 209.672 92.9596 209.846C93.168 210.024 93.3363 210.246 93.4529 210.496C93.5823 210.797 93.6455 211.124 93.6381 211.452C93.6307 211.781 93.553 212.103 93.4102 212.398C93.2601 212.675 93.0593 212.92 92.8186 213.12C92.5657 213.33 92.2906 213.512 91.9985 213.662C91.7422 213.794 91.4838 213.924 91.2189 214.052C91.3428 214.281 91.4923 214.539 91.661 214.821C91.8639 215.161 92.0754 215.501 92.3017 215.845C92.5281 216.19 92.7289 216.517 92.9425 216.82C93.1048 217.054 93.2543 217.254 93.3888 217.438C93.5225 217.254 93.6459 217.062 93.7583 216.864C93.8971 216.618 94.0212 216.364 94.1299 216.103C94.2268 215.862 94.3088 215.614 94.3756 215.362C94.4203 215.192 94.4531 215.019 94.4738 214.844H93.0044V213.978H96.6843V214.844H95.3772C95.2753 215.43 95.1076 216.002 94.8774 216.55C94.6417 217.116 94.3375 217.651 93.9719 218.142C94.2017 218.403 94.4679 218.627 94.7621 218.809C94.9584 218.932 95.1805 219.004 95.4101 219.022C95.6397 219.039 95.8701 219 96.082 218.909C96.302 218.815 96.5118 218.698 96.7078 218.56L96.8018 218.495L96.8851 218.573C96.9494 218.634 97.0094 218.699 97.0645 218.768C97.1198 218.841 97.1711 218.917 97.2182 218.996L97.278 219.093L97.199 219.173C96.8834 219.51 96.5052 219.78 96.0863 219.968C95.7414 220.117 95.3716 220.196 94.997 220.202ZM92.904 218.903L92.9937 218.989C93.2854 219.282 93.6223 219.524 93.9911 219.706C94.3038 219.848 94.6422 219.923 94.9848 219.926C95.3274 219.928 95.6668 219.859 95.9816 219.721C96.3309 219.566 96.6482 219.346 96.9171 219.071C96.8947 219.036 96.8705 219.002 96.8445 218.97C96.8221 218.94 96.7978 218.912 96.7719 218.885C96.5881 219.009 96.3928 219.114 96.1888 219.199C95.9375 219.306 95.6652 219.35 95.3936 219.331C95.1221 219.311 94.859 219.226 94.6254 219.084C94.2717 218.864 93.9539 218.589 93.6836 218.27L93.6024 218.179L93.6772 218.084C94.4289 217.096 94.9239 215.932 95.1167 214.699L95.1359 214.578H96.4024V214.294H93.2906V214.578H94.7856L94.7749 214.732C94.7566 214.977 94.7166 215.22 94.6553 215.458C94.5862 215.722 94.4999 215.982 94.3969 216.235C94.2842 216.508 94.1543 216.773 94.0082 217.028C93.8585 217.292 93.6916 217.544 93.5084 217.785L93.3995 217.928L93.2863 217.787C93.1197 217.57 92.9275 217.317 92.7139 217.007C92.5004 216.697 92.2868 216.37 92.0604 216.023C91.834 215.676 91.6333 215.334 91.4197 214.992C91.2061 214.649 91.0395 214.342 90.9007 214.075L90.8302 213.943L90.9648 213.878C91.2723 213.734 91.5742 213.584 91.8703 213.428C92.144 213.287 92.4018 213.117 92.6392 212.921C92.8522 212.743 93.0304 212.526 93.1646 212.281C93.2851 212.027 93.3505 211.749 93.3564 211.467C93.3623 211.185 93.3085 210.905 93.1988 210.646C93.0979 210.432 92.9521 210.243 92.7716 210.093C92.5906 209.944 92.3823 209.832 92.1587 209.764C91.9185 209.69 91.6686 209.652 91.4175 209.653C91.0942 209.649 90.7733 209.71 90.4735 209.833C90.2042 209.946 89.9584 210.11 89.7495 210.316C89.5498 210.516 89.3909 210.754 89.2818 211.016C89.1696 211.279 89.1121 211.562 89.1131 211.848C89.1143 212.018 89.1308 212.188 89.1622 212.355C89.1977 212.539 89.2448 212.719 89.3032 212.897C89.363 213.081 89.4313 213.267 89.5061 213.449C89.5808 213.631 89.662 213.818 89.7453 213.997L89.8072 214.127L89.6769 214.188C89.3907 214.325 89.096 214.48 88.7991 214.654C88.5109 214.82 88.2453 215.024 88.0089 215.26C87.7739 215.494 87.5815 215.767 87.4408 216.069C87.2906 216.402 87.2176 216.766 87.2272 217.132C87.221 217.538 87.3111 217.939 87.4899 218.302C87.6595 218.641 87.8966 218.941 88.1862 219.182C88.4812 219.425 88.8168 219.612 89.1771 219.734C89.9847 220.009 90.8616 219.987 91.6546 219.672C92.0717 219.501 92.4612 219.268 92.81 218.98L92.904 218.903ZM90.6807 219.487C90.3891 219.487 90.0998 219.434 89.8264 219.331C89.5451 219.229 89.2872 219.07 89.0682 218.864C88.8358 218.643 88.6517 218.375 88.5279 218.077C88.3818 217.729 88.3091 217.353 88.3143 216.974C88.3109 216.69 88.3498 216.408 88.4296 216.136C88.5031 215.896 88.6095 215.669 88.7457 215.46C88.8798 215.259 89.0392 215.077 89.2199 214.918C89.4024 214.759 89.5966 214.614 89.8008 214.485L89.9353 214.4L90.0037 214.543C90.0934 214.732 90.2066 214.948 90.3411 215.193C90.4757 215.438 90.6166 215.674 90.7683 215.928C90.9199 216.181 91.0758 216.437 91.2403 216.695C91.4047 216.953 91.5649 217.197 91.7251 217.429C91.8853 217.661 92.039 217.863 92.1864 218.066C92.3338 218.27 92.4641 218.422 92.5751 218.549L92.6776 218.664L92.558 218.76C92.2841 218.976 91.9832 219.155 91.6632 219.292C91.3508 219.419 91.0169 219.481 90.6807 219.477V219.487ZM89.8264 214.816C89.6826 214.915 89.5442 215.022 89.4121 215.137C89.2498 215.28 89.1063 215.443 88.9849 215.622C88.8638 215.808 88.7696 216.01 88.7052 216.222C88.6337 216.466 88.5991 216.72 88.6026 216.974C88.5946 217.313 88.6564 217.649 88.7842 217.962C88.8928 218.223 89.0535 218.457 89.2562 218.651C89.4478 218.831 89.6729 218.97 89.9183 219.061C90.4508 219.257 91.0368 219.241 91.5585 219.017C91.8082 218.91 92.0454 218.775 92.2654 218.614C92.1736 218.504 92.0754 218.378 91.9643 218.233C91.8148 218.036 91.661 217.821 91.4966 217.583C91.3321 217.345 91.1698 217.102 91.0054 216.84C90.8409 216.578 90.6807 216.322 90.5291 216.066C90.3774 215.811 90.2322 215.564 90.1019 215.325C90.0015 215.133 89.9097 214.961 89.8307 214.812L89.8264 214.816ZM90.7106 213.733L90.6487 213.61C90.4375 213.204 90.2617 212.781 90.1233 212.344C90.0238 212.038 89.9684 211.719 89.9588 211.397C89.9558 211.191 89.9928 210.985 90.0678 210.793C90.1367 210.62 90.2399 210.463 90.371 210.331C90.4987 210.203 90.6515 210.104 90.8195 210.039C91.1535 209.917 91.5192 209.917 91.8532 210.039C92.0131 210.097 92.1588 210.19 92.2804 210.31C92.4083 210.441 92.508 210.597 92.573 210.769C92.65 210.977 92.6869 211.197 92.6819 211.419C92.6867 211.688 92.6357 211.954 92.5324 212.201C92.4359 212.427 92.3007 212.634 92.133 212.812C91.959 212.998 91.7624 213.16 91.5478 213.295C91.3187 213.441 91.0812 213.573 90.8366 213.69L90.7106 213.733ZM90.3305 210.903C90.2699 211.061 90.2402 211.229 90.2429 211.397C90.2526 211.692 90.3036 211.984 90.3945 212.264C90.5142 212.636 90.6628 212.999 90.8388 213.347C91.0299 213.253 91.216 213.148 91.3962 213.033C91.5896 212.911 91.7675 212.766 91.9259 212.6C92.0706 212.445 92.1877 212.267 92.2718 212.071C92.3588 211.86 92.4017 211.633 92.3979 211.404C92.4018 211.221 92.3721 211.039 92.3103 210.867C92.2597 210.732 92.1819 210.609 92.0818 210.507C91.9909 210.411 91.88 210.337 91.7571 210.29C91.4865 210.192 91.1905 210.192 90.9199 210.29C90.7888 210.341 90.6695 210.418 90.5697 210.518C90.4661 210.622 90.3847 210.747 90.3305 210.884V210.903Z" fill="#B78118"/>
<path d="M108.414 215.536C108.226 215.322 108.002 215.144 107.752 215.011C107.505 214.878 107.241 214.779 106.968 214.719C107.497 214.583 107.955 214.249 108.249 213.783C108.539 213.305 108.688 212.753 108.677 212.193C108.687 211.793 108.608 211.396 108.446 211.031C108.301 210.716 108.081 210.442 107.805 210.234C107.507 210.018 107.169 209.865 106.812 209.781C106.392 209.681 105.962 209.632 105.531 209.636H102.893V219.86H105.787C106.196 219.861 106.602 219.804 106.996 219.691C107.37 219.589 107.723 219.421 108.04 219.195C108.339 218.98 108.587 218.7 108.766 218.376C108.956 218.025 109.05 217.63 109.04 217.23C109.044 216.905 108.986 216.583 108.869 216.281C108.759 216.008 108.605 215.757 108.414 215.536ZM104.087 210.789H105.605C106.083 210.767 106.556 210.895 106.959 211.155C107.304 211.397 107.476 211.806 107.476 212.381C107.486 212.616 107.447 212.851 107.362 213.07C107.276 213.289 107.147 213.488 106.981 213.653C106.613 213.988 106.129 214.161 105.635 214.134H104.078L104.087 210.789ZM107.673 217.772C107.556 217.977 107.396 218.154 107.205 218.289C106.998 218.436 106.766 218.542 106.522 218.604C106.248 218.673 105.968 218.707 105.686 218.705H104.087V215.289H105.484C105.78 215.289 106.075 215.323 106.364 215.39C106.631 215.45 106.886 215.557 107.117 215.705C107.333 215.843 107.514 216.031 107.645 216.253C107.782 216.492 107.852 216.765 107.846 217.041C107.852 217.296 107.793 217.548 107.673 217.772Z" fill="#B78118"/>
<path d="M105.787 220.012H102.75V209.491H105.526C105.972 209.487 106.417 209.538 106.85 209.642C107.226 209.731 107.581 209.893 107.895 210.119C108.189 210.34 108.424 210.632 108.578 210.968C108.749 211.353 108.833 211.771 108.824 212.193C108.834 212.781 108.679 213.36 108.375 213.861C108.146 214.231 107.813 214.524 107.421 214.704C107.557 214.755 107.69 214.815 107.818 214.883C108.084 215.024 108.322 215.213 108.521 215.44C108.722 215.674 108.883 215.94 108.999 216.227C109.124 216.546 109.187 216.887 109.183 217.23C109.192 217.655 109.091 218.075 108.89 218.448C108.701 218.79 108.439 219.086 108.123 219.314C107.793 219.55 107.424 219.725 107.034 219.832C106.628 219.949 106.209 220.01 105.787 220.012ZM103.042 219.715H105.793C106.189 219.715 106.583 219.661 106.964 219.552C107.321 219.454 107.659 219.294 107.963 219.078C108.245 218.875 108.479 218.612 108.649 218.307C108.827 217.975 108.915 217.601 108.905 217.223C108.909 216.918 108.854 216.615 108.743 216.331C108.64 216.073 108.496 215.834 108.316 215.624C108.139 215.424 107.928 215.256 107.694 215.13C107.458 215.005 107.207 214.912 106.946 214.853L106.387 214.732L106.938 214.574C107.434 214.45 107.865 214.14 108.145 213.707C108.418 213.25 108.557 212.724 108.546 212.19C108.556 211.812 108.483 211.436 108.333 211.09C108.197 210.796 107.992 210.542 107.735 210.349C107.452 210.143 107.132 209.995 106.793 209.915C106.381 209.817 105.96 209.769 105.537 209.772H103.042V219.715ZM105.693 218.848H103.952V215.143H105.49C105.797 215.144 106.103 215.18 106.402 215.25C106.686 215.314 106.956 215.427 107.203 215.583C107.434 215.735 107.628 215.938 107.771 216.177C107.92 216.44 107.994 216.74 107.984 217.044C107.991 217.323 107.925 217.599 107.794 217.845C107.667 218.069 107.493 218.261 107.284 218.409C107.063 218.565 106.815 218.679 106.554 218.744C106.27 218.817 105.979 218.853 105.686 218.85L105.693 218.848ZM104.236 218.56H105.693C105.962 218.561 106.23 218.528 106.492 218.463C106.721 218.405 106.938 218.306 107.132 218.17C107.307 218.046 107.452 217.885 107.559 217.698C107.665 217.498 107.718 217.274 107.713 217.048C107.718 216.795 107.654 216.546 107.527 216.329C107.406 216.126 107.241 215.955 107.045 215.828C106.827 215.688 106.586 215.589 106.334 215.533C106.053 215.467 105.767 215.434 105.479 215.434H104.226L104.236 218.56ZM105.65 214.277H103.952V210.646H105.605C106.112 210.625 106.612 210.761 107.04 211.036C107.425 211.306 107.619 211.759 107.619 212.381C107.629 212.636 107.586 212.89 107.493 213.127C107.4 213.364 107.259 213.579 107.079 213.757C106.687 214.115 106.171 214.303 105.644 214.279L105.65 214.277ZM104.236 213.989H105.65C106.106 214.015 106.554 213.86 106.897 213.555C107.05 213.404 107.169 213.222 107.247 213.021C107.325 212.819 107.361 212.604 107.35 212.388C107.35 211.859 107.201 211.497 106.893 211.28C106.51 211.036 106.063 210.918 105.612 210.94H104.228L104.236 213.989Z" fill="#B78118"/>
<path d="M117.074 216.515C117.081 216.853 117.017 217.189 116.886 217.501C116.77 217.777 116.596 218.024 116.376 218.224C116.151 218.424 115.889 218.575 115.605 218.669C114.968 218.874 114.284 218.874 113.646 218.669C113.363 218.575 113.101 218.424 112.877 218.224C112.658 218.025 112.486 217.777 112.373 217.501C112.249 217.188 112.188 216.852 112.194 216.515V209.636H110.998V216.558C110.989 217.064 111.082 217.566 111.271 218.034C111.441 218.449 111.703 218.82 112.036 219.117C112.372 219.411 112.764 219.632 113.187 219.767C114.125 220.062 115.128 220.062 116.066 219.767C116.489 219.631 116.881 219.41 117.217 219.117C117.55 218.819 117.814 218.448 117.988 218.034C118.183 217.567 118.278 217.065 118.268 216.558V209.636H117.074V216.515Z" fill="#B78118"/>
<path d="M114.627 220.12C114.124 220.127 113.623 220.054 113.142 219.903C112.701 219.761 112.293 219.531 111.942 219.225C111.595 218.916 111.321 218.531 111.141 218.099C110.945 217.613 110.848 217.092 110.857 216.567V209.491H112.335V216.515C112.329 216.833 112.387 217.149 112.504 217.444C112.608 217.701 112.768 217.93 112.971 218.116C113.182 218.302 113.428 218.443 113.693 218.532C114.301 218.726 114.952 218.726 115.56 218.532C115.825 218.444 116.07 218.302 116.28 218.116C116.485 217.929 116.647 217.699 116.756 217.442C116.878 217.149 116.937 216.833 116.931 216.515V209.491H118.42V216.558C118.429 217.085 118.329 217.607 118.127 218.092C117.943 218.523 117.667 218.907 117.32 219.217C116.968 219.522 116.56 219.753 116.119 219.895C115.637 220.049 115.133 220.125 114.627 220.12ZM111.141 209.779V216.558C111.132 217.044 111.221 217.527 111.402 217.977C111.564 218.369 111.812 218.718 112.128 218.998C112.45 219.278 112.825 219.49 113.23 219.62C114.139 219.903 115.112 219.903 116.021 219.62C116.427 219.49 116.802 219.278 117.125 218.998C117.441 218.716 117.691 218.367 117.858 217.975C118.044 217.527 118.136 217.044 118.127 216.558V209.779H117.215V216.515C117.221 216.873 117.153 217.229 117.016 217.559C116.892 217.854 116.705 218.118 116.47 218.333C116.231 218.544 115.953 218.705 115.652 218.805C114.985 219.019 114.269 219.019 113.601 218.805C113.3 218.704 113.022 218.543 112.783 218.331C112.549 218.117 112.364 217.852 112.243 217.557C112.11 217.227 112.045 216.872 112.051 216.515V209.779H111.141Z" fill="#B78118"/>
<path d="M122.055 209.636H120.859V219.86H122.055V209.636Z" fill="#B78118"/>
<path d="M122.198 220.012H120.718V209.491H122.198V220.012ZM121.002 219.724H121.914V209.779H121.002V219.724Z" fill="#B78118"/>
<path d="M125.769 209.636H124.575V219.86H130.98V218.705H125.769V209.636Z" fill="#B78118"/>
<path d="M131.123 220.012H124.432V209.491H125.912V218.562H131.123V220.012ZM124.716 219.724H130.837V218.857H125.626V209.779H124.716V219.724Z" fill="#B78118"/>
<path d="M140.138 212.645C139.883 212.039 139.511 211.49 139.045 211.031C138.58 210.583 138.032 210.233 137.432 210.002C136.806 209.762 136.143 209.641 135.474 209.645H133.124V219.86H134.982C135.867 219.885 136.747 219.724 137.567 219.386C138.217 219.107 138.803 218.694 139.286 218.172C139.716 217.7 140.042 217.14 140.243 216.53C140.435 215.961 140.535 215.364 140.54 214.762C140.551 214.036 140.414 213.315 140.138 212.645ZM139.036 216.385C138.841 216.855 138.551 217.279 138.185 217.629C137.82 217.98 137.387 218.25 136.913 218.422C136.406 218.61 135.869 218.704 135.328 218.699H134.322V210.789H135.328C135.869 210.784 136.406 210.878 136.913 211.068C137.388 211.24 137.822 211.511 138.187 211.862C138.553 212.214 138.842 212.64 139.036 213.111C139.25 213.629 139.357 214.186 139.35 214.747C139.358 215.306 139.251 215.861 139.036 216.376V216.385Z" fill="#B78118"/>
<path d="M134.984 220.012H132.983V209.491H135.474C136.159 209.487 136.84 209.612 137.481 209.859C138.096 210.095 138.659 210.453 139.136 210.912C139.617 211.384 140 211.949 140.262 212.574C140.546 213.265 140.687 214.007 140.676 214.756C140.672 215.373 140.57 215.985 140.375 216.569C140.171 217.203 139.836 217.786 139.393 218.279C138.896 218.815 138.295 219.24 137.626 219.526C136.788 219.871 135.889 220.036 134.984 220.012ZM133.276 219.724H134.984C135.849 219.748 136.709 219.59 137.511 219.262C138.143 218.991 138.712 218.59 139.183 218.084C139.6 217.626 139.916 217.084 140.11 216.493C140.297 215.939 140.394 215.357 140.399 214.771C140.41 214.062 140.277 213.358 140.008 212.704C139.766 212.117 139.408 211.586 138.956 211.145C138.504 210.703 137.968 210.36 137.381 210.136C136.771 209.903 136.125 209.785 135.474 209.788H133.269L133.276 219.724ZM135.335 218.844H134.186V210.654H135.335C135.892 210.65 136.445 210.747 136.969 210.94C137.46 211.122 137.91 211.404 138.291 211.768C138.67 212.134 138.971 212.577 139.173 213.068C139.393 213.604 139.503 214.18 139.495 214.76C139.503 215.338 139.393 215.912 139.173 216.446C138.968 216.933 138.667 217.373 138.288 217.737C137.909 218.101 137.46 218.382 136.969 218.562C136.442 218.752 135.887 218.844 135.328 218.835L135.335 218.844ZM134.48 218.556H135.335C135.858 218.56 136.378 218.469 136.87 218.287C137.325 218.118 137.742 217.858 138.096 217.522C138.445 217.184 138.723 216.777 138.912 216.326C139.118 215.829 139.22 215.295 139.211 214.756C139.219 214.215 139.117 213.678 138.912 213.178C138.724 212.725 138.446 212.316 138.096 211.976C137.742 211.641 137.325 211.381 136.87 211.211C136.378 211.03 135.858 210.939 135.335 210.942H134.48V218.556Z" fill="#B78118"/>
<path d="M92.2248 234.459L92.7139 235.189C92.3262 235.415 91.9132 235.594 91.4837 235.722C91.0321 235.855 90.5638 235.922 90.0933 235.919C89.4059 235.923 88.7248 235.784 88.0921 235.512C86.8601 234.981 85.8792 233.986 85.3563 232.736C85.0862 232.095 84.9495 231.404 84.9547 230.706C84.95 230.006 85.0866 229.312 85.3563 228.667C85.6149 228.046 85.9891 227.481 86.4583 227.003C86.9285 226.528 87.4828 226.146 88.0921 225.879C88.7233 225.6 89.405 225.458 90.0933 225.463C90.5631 225.46 91.0311 225.524 91.4837 225.651C91.9192 225.779 92.3375 225.961 92.7288 226.193C92.6519 226.319 92.5708 226.444 92.4832 226.566C92.3957 226.687 92.3102 226.811 92.2248 226.938C91.583 226.538 90.8425 226.33 90.0891 226.338C89.5218 226.335 88.9601 226.452 88.4403 226.683C87.936 226.905 87.479 227.224 87.0947 227.623C86.7083 228.027 86.3984 228.5 86.1806 229.018C85.9546 229.551 85.8397 230.126 85.8432 230.706C85.8384 231.288 85.9511 231.864 86.1742 232.4C86.6006 233.439 87.4087 234.269 88.4275 234.714C88.9464 234.945 89.5075 235.063 90.0741 235.059C90.4538 235.06 90.8319 235.009 91.1975 234.905C91.5574 234.802 91.9027 234.651 92.2248 234.459Z" fill="#193E69"/>
<path d="M95.5353 235.802V225.58H101.626V226.447H96.4216V230.214H101.058V231.081H96.4216V234.937H101.821V235.804L95.5353 235.802Z" fill="#193E69"/>
<path d="M114.037 225.58V236.261C112.756 234.817 111.474 233.378 110.193 231.945C108.911 230.513 107.63 229.074 106.349 227.629L106.212 227.439C106.167 227.383 106.122 227.318 106.075 227.25C106.075 227.328 106.09 227.406 106.096 227.484C106.103 227.562 106.107 227.64 106.118 227.718V235.793H105.225V225.112C106.507 226.584 107.788 228.044 109.069 229.493C110.351 230.941 111.632 232.402 112.914 233.876C112.961 233.943 113.008 234.006 113.05 234.064L113.187 234.255C113.176 234.177 113.17 234.099 113.166 234.021C113.162 233.943 113.153 233.865 113.144 233.787V225.58H114.037Z" fill="#193E69"/>
<path d="M124.186 225.58V226.447H120.658V235.793H119.765V226.455H116.224V225.589L124.186 225.58Z" fill="#193E69"/>
<path d="M126.014 235.802V225.58H132.106V226.447H126.907V230.214H131.544V231.081H126.907V234.937H132.302V235.804L126.014 235.802Z" fill="#193E69"/>
<path d="M135.228 235.802V225.58H137.49C137.84 225.584 138.188 225.635 138.526 225.732C138.904 225.835 139.265 225.998 139.593 226.215C139.923 226.432 140.204 226.718 140.418 227.053C140.646 227.425 140.761 227.857 140.749 228.295C140.773 228.94 140.58 229.574 140.202 230.093C139.802 230.591 139.24 230.928 138.617 231.042C138.983 231.831 139.351 232.625 139.719 233.425C140.088 234.225 140.461 235.02 140.836 235.808H139.856C139.49 235.02 139.126 234.236 138.763 233.458C138.4 232.679 138.035 231.896 137.669 231.107C137.609 231.116 137.548 231.121 137.488 231.122H136.127V235.808L135.228 235.802ZM136.121 230.238H137.49C137.881 230.249 138.271 230.188 138.641 230.056C138.914 229.957 139.162 229.797 139.367 229.588C139.538 229.41 139.666 229.195 139.743 228.96C139.812 228.745 139.848 228.521 139.85 228.295C139.849 228.05 139.788 227.809 139.67 227.595C139.547 227.367 139.38 227.167 139.181 227.003C138.96 226.824 138.709 226.686 138.44 226.594C138.138 226.489 137.821 226.437 137.503 226.44H136.121V230.238Z" fill="#193E69"/>
<path d="M156.786 225.699C158.339 224.215 162.602 221.466 162.602 221.466C162.328 220.56 161.261 217.672 158.187 213.627C158.102 213.514 157.348 212.663 157.245 212.565C157.1 213.291 156.286 215.51 153.798 216.84C150.58 218.558 149.691 221.078 149.691 221.078V233.343C151.293 231.176 152.98 229.328 156.786 225.699Z" fill="url(#paint0_linear_2580_25733)"/>
<path d="M149.691 234.647V237C162.202 235.447 164.605 228.18 162.843 222.358C162.843 222.358 159.894 223.942 157.641 226.015C152.459 230.784 151.188 232.533 149.691 234.647Z" fill="url(#paint1_linear_2580_25733)"/>
<path d="M172.9 208.713C172.373 203.999 167.854 201.195 160.364 198.207C153.044 195.289 151.746 193.837 149.685 192V206.228C154.084 208.893 155.52 209.443 158.147 212.544C161.991 217.093 163.138 220.538 163.283 221.091C164.488 220.391 173.624 215.189 172.9 208.713Z" fill="url(#paint2_linear_2580_25733)"/>
<path d="M187.941 192V237" stroke="#A67F56"/>
<path d="M210.876 200.655V202.26H206.069V205.267H209.856V206.82H206.069V209.887H210.876V211.5H204.036V200.655H210.876ZM215.223 205.92L211.765 200.655H213.775C213.915 200.655 214.015 200.675 214.075 200.715C214.14 200.75 214.198 200.81 214.248 200.895L216.715 204.877C216.74 204.812 216.768 204.75 216.798 204.69C216.828 204.625 216.863 204.56 216.903 204.495L219.16 200.932C219.27 200.747 219.413 200.655 219.588 200.655H221.523L218.028 205.837L221.62 211.5H219.603C219.468 211.5 219.358 211.465 219.273 211.395C219.193 211.325 219.125 211.245 219.07 211.155L216.558 207C216.538 207.06 216.515 207.117 216.49 207.172C216.465 207.222 216.44 207.27 216.415 207.315L214.008 211.155C213.953 211.24 213.885 211.32 213.805 211.395C213.725 211.465 213.625 211.5 213.505 211.5H211.615L215.223 205.92ZM230.036 208.942C230.146 208.942 230.241 208.985 230.321 209.07L231.116 209.932C230.676 210.477 230.134 210.895 229.489 211.185C228.849 211.475 228.079 211.62 227.179 211.62C226.374 211.62 225.649 211.483 225.004 211.207C224.364 210.932 223.816 210.55 223.361 210.06C222.906 209.57 222.556 208.985 222.311 208.305C222.071 207.625 221.951 206.882 221.951 206.077C221.951 205.262 222.086 204.517 222.356 203.842C222.626 203.162 223.006 202.577 223.496 202.087C223.986 201.597 224.571 201.217 225.251 200.947C225.936 200.672 226.691 200.535 227.516 200.535C228.321 200.535 229.024 200.665 229.624 200.925C230.229 201.18 230.746 201.52 231.176 201.945L230.501 202.882C230.461 202.942 230.409 202.995 230.344 203.04C230.284 203.085 230.199 203.107 230.089 203.107C229.974 203.107 229.856 203.062 229.736 202.972C229.616 202.882 229.464 202.785 229.279 202.68C229.094 202.575 228.859 202.477 228.574 202.387C228.294 202.297 227.936 202.252 227.501 202.252C226.991 202.252 226.521 202.342 226.091 202.522C225.666 202.697 225.299 202.95 224.989 203.28C224.684 203.61 224.444 204.012 224.269 204.487C224.099 204.957 224.014 205.487 224.014 206.077C224.014 206.687 224.099 207.23 224.269 207.705C224.444 208.18 224.679 208.58 224.974 208.905C225.269 209.23 225.616 209.48 226.016 209.655C226.416 209.825 226.846 209.91 227.306 209.91C227.581 209.91 227.829 209.895 228.049 209.865C228.274 209.835 228.479 209.787 228.664 209.722C228.854 209.657 229.031 209.575 229.196 209.475C229.366 209.37 229.534 209.242 229.699 209.092C229.749 209.047 229.801 209.012 229.856 208.987C229.911 208.957 229.971 208.942 230.036 208.942ZM234.662 209.835H239.005V211.5H232.645V200.655H234.662V209.835ZM244.759 209.872C245.149 209.872 245.496 209.807 245.801 209.677C246.111 209.547 246.371 209.365 246.581 209.13C246.796 208.895 246.959 208.61 247.069 208.275C247.184 207.94 247.241 207.565 247.241 207.15V200.655H249.259V207.15C249.259 207.795 249.154 208.392 248.944 208.942C248.739 209.487 248.441 209.96 248.051 210.36C247.661 210.755 247.189 211.065 246.634 211.29C246.079 211.51 245.454 211.62 244.759 211.62C244.064 211.62 243.439 211.51 242.884 211.29C242.329 211.065 241.856 210.755 241.466 210.36C241.081 209.96 240.784 209.487 240.574 208.942C240.369 208.392 240.266 207.795 240.266 207.15V200.655H242.284V207.142C242.284 207.557 242.339 207.932 242.449 208.267C242.564 208.602 242.726 208.89 242.936 209.13C243.146 209.365 243.404 209.547 243.709 209.677C244.019 209.807 244.369 209.872 244.759 209.872ZM257.119 202.627C257.064 202.737 256.999 202.815 256.924 202.86C256.854 202.905 256.769 202.927 256.669 202.927C256.569 202.927 256.457 202.89 256.332 202.815C256.207 202.735 256.059 202.647 255.889 202.552C255.719 202.457 255.519 202.372 255.289 202.297C255.064 202.217 254.797 202.177 254.487 202.177C254.207 202.177 253.962 202.212 253.752 202.282C253.547 202.347 253.372 202.44 253.227 202.56C253.087 202.68 252.982 202.825 252.912 202.995C252.842 203.16 252.807 203.342 252.807 203.542C252.807 203.797 252.877 204.01 253.017 204.18C253.162 204.35 253.352 204.495 253.587 204.615C253.822 204.735 254.089 204.842 254.389 204.937C254.689 205.032 254.994 205.135 255.304 205.245C255.619 205.35 255.927 205.475 256.227 205.62C256.527 205.76 256.794 205.94 257.029 206.16C257.264 206.375 257.452 206.64 257.592 206.955C257.737 207.27 257.809 207.652 257.809 208.102C257.809 208.592 257.724 209.052 257.554 209.482C257.389 209.907 257.144 210.28 256.819 210.6C256.499 210.915 256.107 211.165 255.642 211.35C255.177 211.53 254.644 211.62 254.044 211.62C253.699 211.62 253.359 211.585 253.024 211.515C252.689 211.45 252.367 211.355 252.057 211.23C251.752 211.105 251.464 210.955 251.194 210.78C250.929 210.605 250.692 210.41 250.482 210.195L251.067 209.227C251.122 209.157 251.187 209.1 251.262 209.055C251.342 209.005 251.429 208.98 251.524 208.98C251.649 208.98 251.784 209.032 251.929 209.137C252.074 209.237 252.244 209.35 252.439 209.475C252.639 209.6 252.872 209.715 253.137 209.82C253.407 209.92 253.729 209.97 254.104 209.97C254.679 209.97 255.124 209.835 255.439 209.565C255.754 209.29 255.912 208.897 255.912 208.387C255.912 208.102 255.839 207.87 255.694 207.69C255.554 207.51 255.367 207.36 255.132 207.24C254.897 207.115 254.629 207.01 254.329 206.925C254.029 206.84 253.724 206.747 253.414 206.647C253.104 206.547 252.799 206.427 252.499 206.287C252.199 206.147 251.932 205.965 251.697 205.74C251.462 205.515 251.272 205.235 251.127 204.9C250.987 204.56 250.917 204.142 250.917 203.647C250.917 203.252 250.994 202.867 251.149 202.492C251.309 202.117 251.539 201.785 251.839 201.495C252.144 201.205 252.517 200.972 252.957 200.797C253.397 200.622 253.899 200.535 254.464 200.535C255.104 200.535 255.694 200.635 256.234 200.835C256.774 201.035 257.234 201.315 257.614 201.675L257.119 202.627ZM261.621 211.5H259.596V200.655H261.621V211.5ZM263 200.655H264.628C264.803 200.655 264.945 200.697 265.055 200.782C265.165 200.867 265.248 200.977 265.303 201.112L267.853 207.727C267.938 207.942 268.018 208.18 268.093 208.44C268.173 208.695 268.248 208.965 268.318 209.25C268.433 208.675 268.575 208.167 268.745 207.727L271.288 201.112C271.333 200.997 271.413 200.892 271.528 200.797C271.643 200.702 271.785 200.655 271.955 200.655H273.583L269.203 211.5H267.38L263 200.655ZM281.555 200.655V202.26H276.747V205.267H280.535V206.82H276.747V209.887H281.555V211.5H274.715V200.655H281.555ZM202.971 218.655H204.599C204.774 218.655 204.916 218.697 205.026 218.782C205.136 218.867 205.219 218.977 205.274 219.112L207.824 225.727C207.909 225.942 207.989 226.18 208.064 226.44C208.144 226.695 208.219 226.965 208.289 227.25C208.404 226.675 208.546 226.167 208.716 225.727L211.259 219.112C211.304 218.997 211.384 218.892 211.499 218.797C211.614 218.702 211.756 218.655 211.926 218.655H213.554L209.174 229.5H207.351L202.971 218.655ZM216.958 229.5H214.933V218.655H216.958V229.5ZM226.242 218.655V220.26H221.435V223.267H225.222V224.82H221.435V227.887H226.242V229.5H219.402V218.655H226.242ZM235.629 218.655V220.312H232.366V229.5H230.349V220.312H227.071V218.655H235.629ZM237.965 218.655C238.055 218.655 238.13 218.66 238.19 218.67C238.25 218.675 238.302 218.69 238.347 218.715C238.397 218.735 238.445 218.767 238.49 218.812C238.535 218.852 238.585 218.907 238.64 218.977L244.332 226.23C244.312 226.055 244.297 225.885 244.287 225.72C244.282 225.55 244.28 225.392 244.28 225.247V218.655H246.057V229.5H245.015C244.855 229.5 244.722 229.475 244.617 229.425C244.512 229.375 244.41 229.285 244.31 229.155L238.64 221.932C238.655 222.092 238.665 222.252 238.67 222.412C238.68 222.567 238.685 222.71 238.685 222.84V229.5H236.907V218.655H237.965ZM257.778 229.5H256.218C256.043 229.5 255.898 229.457 255.783 229.372C255.673 229.282 255.593 229.172 255.543 229.042L254.733 226.83H250.24L249.43 229.042C249.39 229.157 249.31 229.262 249.19 229.357C249.075 229.452 248.933 229.5 248.763 229.5H247.195L251.455 218.655H253.518L257.778 229.5ZM250.758 225.405H254.215L252.895 221.797C252.835 221.637 252.768 221.45 252.693 221.235C252.623 221.015 252.553 220.777 252.483 220.522C252.413 220.777 252.343 221.015 252.273 221.235C252.208 221.455 252.143 221.647 252.078 221.812L250.758 225.405ZM264.34 225C264.425 225.16 264.502 225.327 264.572 225.502C264.647 225.672 264.72 225.845 264.79 226.02C264.86 225.84 264.932 225.662 265.007 225.487C265.082 225.312 265.162 225.145 265.247 224.985L268.457 218.977C268.497 218.902 268.537 218.842 268.577 218.797C268.622 218.752 268.67 218.72 268.72 218.7C268.775 218.68 268.835 218.667 268.9 218.662C268.965 218.657 269.042 218.655 269.132 218.655H270.655V229.5H268.877V222.495C268.877 222.365 268.88 222.222 268.885 222.067C268.895 221.912 268.907 221.755 268.922 221.595L265.645 227.745C265.57 227.885 265.472 227.995 265.352 228.075C265.232 228.15 265.092 228.187 264.932 228.187H264.655C264.495 228.187 264.355 228.15 264.235 228.075C264.115 227.995 264.017 227.885 263.942 227.745L260.62 221.572C260.64 221.737 260.652 221.9 260.657 222.06C260.667 222.215 260.672 222.36 260.672 222.495V229.5H258.895V218.655H260.417C260.507 218.655 260.585 218.657 260.65 218.662C260.715 218.667 260.772 218.68 260.822 218.7C260.877 218.72 260.927 218.752 260.972 218.797C261.017 218.842 261.06 218.902 261.1 218.977L264.34 225ZM277.825 225.682V229.5H275.808V218.655H279.34C280.065 218.655 280.693 218.74 281.223 218.91C281.753 219.08 282.19 219.317 282.535 219.622C282.88 219.927 283.135 220.292 283.3 220.717C283.465 221.142 283.548 221.607 283.548 222.112C283.548 222.637 283.46 223.12 283.285 223.56C283.11 223.995 282.848 224.37 282.498 224.685C282.148 225 281.71 225.245 281.185 225.42C280.66 225.595 280.045 225.682 279.34 225.682H277.825ZM277.825 224.107H279.34C279.71 224.107 280.033 224.062 280.308 223.972C280.583 223.877 280.81 223.745 280.99 223.575C281.17 223.4 281.305 223.19 281.395 222.945C281.485 222.695 281.53 222.417 281.53 222.112C281.53 221.822 281.485 221.56 281.395 221.325C281.305 221.09 281.17 220.89 280.99 220.725C280.81 220.56 280.583 220.435 280.308 220.35C280.033 220.26 279.71 220.215 279.34 220.215H277.825V224.107ZM293.491 229.5H291.931C291.756 229.5 291.611 229.457 291.496 229.372C291.386 229.282 291.306 229.172 291.256 229.042L290.446 226.83H285.953L285.143 229.042C285.103 229.157 285.023 229.262 284.903 229.357C284.788 229.452 284.646 229.5 284.476 229.5H282.908L287.168 218.655H289.231L293.491 229.5ZM286.471 225.405H289.928L288.608 221.797C288.548 221.637 288.481 221.45 288.406 221.235C288.336 221.015 288.266 220.777 288.196 220.522C288.126 220.777 288.056 221.015 287.986 221.235C287.921 221.455 287.856 221.647 287.791 221.812L286.471 225.405ZM296.692 225.263V229.5H294.675V218.655H297.982C298.722 218.655 299.355 218.732 299.88 218.887C300.41 219.037 300.842 219.25 301.177 219.525C301.517 219.8 301.765 220.13 301.92 220.515C302.08 220.895 302.16 221.315 302.16 221.775C302.16 222.14 302.105 222.485 301.995 222.81C301.89 223.135 301.735 223.43 301.53 223.695C301.33 223.96 301.08 224.192 300.78 224.392C300.485 224.592 300.147 224.752 299.767 224.872C300.022 225.017 300.242 225.225 300.427 225.495L303.142 229.5H301.327C301.152 229.5 301.002 229.465 300.877 229.395C300.757 229.325 300.655 229.225 300.57 229.095L298.29 225.622C298.205 225.492 298.11 225.4 298.005 225.345C297.905 225.29 297.755 225.263 297.555 225.263H296.692ZM296.692 223.815H297.952C298.332 223.815 298.662 223.767 298.942 223.672C299.227 223.577 299.46 223.447 299.64 223.282C299.825 223.112 299.962 222.912 300.052 222.682C300.142 222.452 300.187 222.2 300.187 221.925C300.187 221.375 300.005 220.952 299.64 220.657C299.28 220.362 298.727 220.215 297.982 220.215H296.692V223.815ZM311.654 218.655V220.312H308.392V229.5H306.374V220.312H303.097V218.655H311.654ZM313.99 218.655C314.08 218.655 314.155 218.66 314.215 218.67C314.275 218.675 314.328 218.69 314.373 218.715C314.423 218.735 314.47 218.767 314.515 218.812C314.56 218.852 314.61 218.907 314.665 218.977L320.358 226.23C320.338 226.055 320.323 225.885 320.313 225.72C320.308 225.55 320.305 225.392 320.305 225.247V218.655H322.083V229.5H321.04C320.88 229.5 320.748 229.475 320.643 229.425C320.538 229.375 320.435 229.285 320.335 229.155L314.665 221.932C314.68 222.092 314.69 222.252 314.695 222.412C314.705 222.567 314.71 222.71 314.71 222.84V229.5H312.933V218.655H313.99ZM331.111 218.655V220.26H326.303V223.267H330.091V224.82H326.303V227.887H331.111V229.5H324.271V218.655H331.111ZM334.94 225.263V229.5H332.922V218.655H336.23C336.97 218.655 337.602 218.732 338.127 218.887C338.657 219.037 339.09 219.25 339.425 219.525C339.765 219.8 340.012 220.13 340.167 220.515C340.327 220.895 340.407 221.315 340.407 221.775C340.407 222.14 340.352 222.485 340.242 222.81C340.137 223.135 339.982 223.43 339.777 223.695C339.577 223.96 339.327 224.192 339.027 224.392C338.732 224.592 338.395 224.752 338.015 224.872C338.27 225.017 338.49 225.225 338.675 225.495L341.39 229.5H339.575C339.4 229.5 339.25 229.465 339.125 229.395C339.005 229.325 338.902 229.225 338.817 229.095L336.537 225.622C336.452 225.492 336.357 225.4 336.252 225.345C336.152 225.29 336.002 225.263 335.802 225.263H334.94ZM334.94 223.815H336.2C336.58 223.815 336.91 223.767 337.19 223.672C337.475 223.577 337.707 223.447 337.887 223.282C338.072 223.112 338.21 222.912 338.3 222.682C338.39 222.452 338.435 222.2 338.435 221.925C338.435 221.375 338.252 220.952 337.887 220.657C337.527 220.362 336.975 220.215 336.23 220.215H334.94V223.815Z" fill="#A67F56"/>
<defs>
<linearGradient id="paint0_linear_2580_25733" x1="149.691" y1="222.954" x2="162.602" y2="222.954" gradientUnits="userSpaceOnUse">
<stop stop-color="#B78118" stop-opacity="0.57"/>
<stop offset="1" stop-color="#0081AB"/>
</linearGradient>
<linearGradient id="paint1_linear_2580_25733" x1="149.691" y1="229.679" x2="163.358" y2="229.679" gradientUnits="userSpaceOnUse">
<stop stop-color="#193E69"/>
<stop offset="1" stop-color="#0081AB"/>
</linearGradient>
<linearGradient id="paint2_linear_2580_25733" x1="149.691" y1="206.544" x2="172.941" y2="206.544" gradientUnits="userSpaceOnUse">
<stop stop-color="#0081AB"/>
<stop offset="1" stop-color="#B78118" stop-opacity="0.57"/>
</linearGradient>
</defs>
</svg>
