<svg width="228" height="81" viewBox="0 0 228 81" fill="none" xmlns="http://www.w3.org/2000/svg">
<path d="M39.2455 14.4355C39.2455 15.7484 39.0769 17.001 38.7397 18.1934C38.4024 19.3857 37.9267 20.4938 37.3124 21.5176C36.6982 22.5293 35.9635 23.4507 35.1083 24.2817C34.2652 25.1007 33.3258 25.8053 32.29 26.3955C31.2542 26.9736 30.1461 27.4193 28.9658 27.7324C27.7854 28.0456 26.5629 28.2021 25.2983 28.2021C24.0457 28.2021 22.8352 28.0516 21.6669 27.7505C20.4986 27.4494 19.4026 27.0158 18.3788 26.4497C17.3671 25.8836 16.4337 25.1971 15.5786 24.3901C14.7355 23.5711 14.0128 22.6618 13.4106 21.6621C12.8084 20.6504 12.3386 19.5544 12.0014 18.374C11.6642 17.1816 11.4955 15.923 11.4955 14.5981C11.4955 13.1769 11.6702 11.8581 12.0195 10.6416C12.3688 9.41309 12.8565 8.29297 13.4828 7.28125C14.1092 6.26953 14.8619 5.37223 15.7411 4.58936C16.6204 3.79443 17.5899 3.132 18.6498 2.60205C19.7097 2.06006 20.8419 1.65055 22.0463 1.37354C23.2508 1.08447 24.4973 0.939941 25.7861 0.939941C27.1832 0.939941 28.484 1.10856 29.6884 1.4458C30.9049 1.78304 32.013 2.25879 33.0126 2.87305C34.0123 3.47526 34.8976 4.19792 35.6684 5.04102C36.4392 5.87207 37.0896 6.78743 37.6196 7.78711C38.1495 8.78678 38.553 9.8527 38.83 10.9849C39.107 12.105 39.2455 13.2552 39.2455 14.4355ZM34.6567 14.4897C34.6567 13.4901 34.5724 12.4784 34.4037 11.4546C34.2351 10.4308 33.9822 9.4432 33.645 8.4917C33.3077 7.52816 32.8801 6.62484 32.3622 5.78174C31.8443 4.93864 31.2421 4.20996 30.5556 3.5957C29.8691 2.9694 29.0862 2.47559 28.207 2.11426C27.3398 1.75293 26.3823 1.57227 25.3344 1.57227C24.2625 1.57227 23.2869 1.75293 22.4077 2.11426C21.5405 2.46354 20.7636 2.95133 20.0771 3.57764C19.3906 4.19189 18.7944 4.92057 18.2885 5.76367C17.7947 6.59473 17.3792 7.49805 17.0419 8.47363C16.7167 9.44922 16.4759 10.467 16.3193 11.5269C16.1627 12.5868 16.0844 13.6466 16.0844 14.7065C16.0844 15.8267 16.1687 16.9227 16.3373 17.9946C16.518 19.0666 16.777 20.0783 17.1142 21.0298C17.4635 21.9813 17.8971 22.8605 18.415 23.6675C18.9329 24.4624 19.5351 25.1549 20.2216 25.7451C20.9202 26.3232 21.7031 26.7749 22.5703 27.1001C23.4374 27.4253 24.395 27.5879 25.4428 27.5879C26.4786 27.5879 27.4241 27.4072 28.2792 27.0459C29.1344 26.6846 29.8992 26.1908 30.5737 25.5645C31.2602 24.9382 31.8564 24.2035 32.3622 23.3604C32.8801 22.5173 33.3077 21.6079 33.645 20.6323C33.9822 19.6567 34.2351 18.651 34.4037 17.6152C34.5724 16.5674 34.6567 15.5256 34.6567 14.4897ZM67.5079 7.71484C66.4962 6.47428 65.5326 5.40837 64.6173 4.51709C63.7019 3.61377 62.8167 2.95133 61.9615 2.52979C61.7447 2.42139 61.4376 2.32503 61.0401 2.24072C60.6547 2.15641 60.197 2.08415 59.6671 2.02393C59.1371 1.9637 58.547 1.91553 57.8966 1.87939C57.2582 1.84326 56.5777 1.8252 55.8551 1.8252C55.5901 1.8252 55.301 1.83122 54.9879 1.84326C54.6747 1.84326 54.3676 1.84928 54.0665 1.86133C53.7654 1.87337 53.4884 1.88542 53.2354 1.89746C52.9825 1.90951 52.7958 1.92155 52.6754 1.93359C52.6393 2.07812 52.6031 2.22868 52.567 2.38525C52.5309 2.52979 52.4947 2.70443 52.4586 2.90918C52.4345 3.11393 52.4104 3.36686 52.3863 3.66797C52.3622 3.96908 52.3442 4.34245 52.3321 4.78809C52.308 5.36621 52.29 5.98649 52.2779 6.64893C52.2779 7.29932 52.2719 7.95573 52.2599 8.61816C52.2599 9.26855 52.2599 9.90088 52.2599 10.5151C52.2599 11.1294 52.2599 11.6895 52.2599 12.1953C52.2599 12.6891 52.2599 13.0986 52.2599 13.4238C52.2599 13.749 52.2599 13.9538 52.2599 14.0381C52.3442 14.0381 52.573 14.0381 52.9464 14.0381C53.3198 14.0381 53.7473 14.0321 54.2291 14.02C54.7229 13.9959 55.2228 13.9658 55.7286 13.9297C56.2465 13.8815 56.6801 13.8213 57.0294 13.749C57.9207 13.5684 58.6253 13.3154 59.1432 12.9902C59.6731 12.653 60.0826 12.2676 60.3717 11.834C60.6607 11.3883 60.8655 10.9006 60.9859 10.3706C61.1184 9.82861 61.2328 9.25049 61.3292 8.63623H61.7628V20.542H61.3292C61.2208 20.1566 61.0943 19.7471 60.9498 19.3135C60.8053 18.8799 60.6427 18.4644 60.462 18.0669C60.2813 17.6574 60.0766 17.278 59.8478 16.9287C59.631 16.5674 59.3961 16.2723 59.1432 16.0435C58.6855 15.6219 58.1917 15.3088 57.6617 15.104C57.1318 14.8993 56.5055 14.7668 55.7828 14.7065C55.4094 14.6825 55.0903 14.6644 54.8253 14.6523C54.5603 14.6403 54.3014 14.6343 54.0484 14.6343C53.7955 14.6343 53.5305 14.6343 53.2535 14.6343C52.9765 14.6343 52.6453 14.6343 52.2599 14.6343C52.2599 15.4292 52.2599 16.2181 52.2599 17.001C52.2599 17.7718 52.2599 18.5065 52.2599 19.2051C52.2599 19.9036 52.2599 20.548 52.2599 21.1382C52.2719 21.7163 52.2839 22.2101 52.296 22.6196C52.308 23.0171 52.3201 23.4085 52.3321 23.7939C52.3562 24.1794 52.3863 24.5407 52.4225 24.8779C52.4586 25.2031 52.5128 25.5042 52.5851 25.7812C52.6573 26.0462 52.7477 26.263 52.8561 26.4316C53.0728 26.7689 53.4462 27.0339 53.9762 27.2266C54.5182 27.4193 55.289 27.5397 56.2887 27.5879V27.9492H44.4552V27.5879C45.0694 27.4915 45.6415 27.3289 46.1715 27.1001C46.7135 26.8713 47.1531 26.5641 47.4903 26.1787C47.6108 26.0342 47.7131 25.8174 47.7975 25.5283C47.8818 25.2393 47.948 24.9141 47.9962 24.5527C48.0444 24.1914 48.0805 23.806 48.1046 23.3965C48.1287 22.987 48.1467 22.5835 48.1588 22.186C48.1708 21.8488 48.1769 21.3851 48.1769 20.7949C48.1889 20.2048 48.1949 19.5604 48.1949 18.8618C48.207 18.1512 48.213 17.4225 48.213 16.6758C48.225 15.917 48.2311 15.2004 48.2311 14.5259V7.29932C48.2311 6.86572 48.225 6.41406 48.213 5.94434C48.2009 5.47461 48.1708 5.02897 48.1227 4.60742C48.0865 4.18587 48.0263 3.8125 47.942 3.4873C47.8577 3.15007 47.7433 2.90316 47.5987 2.74658C47.4181 2.55387 47.2314 2.3973 47.0387 2.27686C46.846 2.15641 46.6352 2.06006 46.4063 1.98779C46.1895 1.91553 45.9487 1.86133 45.6837 1.8252C45.4187 1.77702 45.1176 1.72884 44.7804 1.68066V1.30127H65.358L67.8692 7.53418L67.5079 7.71484ZM94.3792 7.71484C93.3674 6.47428 92.4039 5.40837 91.4885 4.51709C90.5732 3.61377 89.6879 2.95133 88.8328 2.52979C88.616 2.42139 88.3088 2.32503 87.9114 2.24072C87.526 2.15641 87.0683 2.08415 86.5383 2.02393C86.0084 1.9637 85.4182 1.91553 84.7678 1.87939C84.1295 1.84326 83.449 1.8252 82.7263 1.8252C82.4614 1.8252 82.1723 1.83122 81.8591 1.84326C81.546 1.84326 81.2389 1.84928 80.9378 1.86133C80.6366 1.87337 80.3596 1.88542 80.1067 1.89746C79.8538 1.90951 79.6671 1.92155 79.5466 1.93359C79.5105 2.07812 79.4744 2.22868 79.4382 2.38525C79.4021 2.52979 79.366 2.70443 79.3298 2.90918C79.3058 3.11393 79.2817 3.36686 79.2576 3.66797C79.2335 3.96908 79.2154 4.34245 79.2034 4.78809C79.1793 5.36621 79.1612 5.98649 79.1492 6.64893C79.1492 7.29932 79.1432 7.95573 79.1311 8.61816C79.1311 9.26855 79.1311 9.90088 79.1311 10.5151C79.1311 11.1294 79.1311 11.6895 79.1311 12.1953C79.1311 12.6891 79.1311 13.0986 79.1311 13.4238C79.1311 13.749 79.1311 13.9538 79.1311 14.0381C79.2154 14.0381 79.4443 14.0381 79.8176 14.0381C80.191 14.0381 80.6186 14.0321 81.1003 14.02C81.5942 13.9959 82.094 13.9658 82.5999 13.9297C83.1178 13.8815 83.5514 13.8213 83.9006 13.749C84.7919 13.5684 85.4965 13.3154 86.0144 12.9902C86.5444 12.653 86.9539 12.2676 87.2429 11.834C87.532 11.3883 87.7367 10.9006 87.8572 10.3706C87.9897 9.82861 88.1041 9.25049 88.2004 8.63623H88.634V20.542H88.2004C88.092 20.1566 87.9656 19.7471 87.8211 19.3135C87.6765 18.8799 87.5139 18.4644 87.3333 18.0669C87.1526 17.6574 86.9478 17.278 86.719 16.9287C86.5022 16.5674 86.2673 16.2723 86.0144 16.0435C85.5567 15.6219 85.0629 15.3088 84.533 15.104C84.003 14.8993 83.3767 14.7668 82.6541 14.7065C82.2807 14.6825 81.9615 14.6644 81.6965 14.6523C81.4316 14.6403 81.1726 14.6343 80.9197 14.6343C80.6668 14.6343 80.4018 14.6343 80.1248 14.6343C79.8477 14.6343 79.5165 14.6343 79.1311 14.6343C79.1311 15.4292 79.1311 16.2181 79.1311 17.001C79.1311 17.7718 79.1311 18.5065 79.1311 19.2051C79.1311 19.9036 79.1311 20.548 79.1311 21.1382C79.1432 21.7163 79.1552 22.2101 79.1672 22.6196C79.1793 23.0171 79.1913 23.4085 79.2034 23.7939C79.2275 24.1794 79.2576 24.5407 79.2937 24.8779C79.3298 25.2031 79.384 25.5042 79.4563 25.7812C79.5286 26.0462 79.6189 26.263 79.7273 26.4316C79.9441 26.7689 80.3175 27.0339 80.8474 27.2266C81.3894 27.4193 82.1602 27.5397 83.1599 27.5879V27.9492H71.3264V27.5879C71.9407 27.4915 72.5128 27.3289 73.0427 27.1001C73.5847 26.8713 74.0243 26.5641 74.3616 26.1787C74.482 26.0342 74.5844 25.8174 74.6687 25.5283C74.753 25.2393 74.8193 24.9141 74.8674 24.5527C74.9156 24.1914 74.9517 23.806 74.9758 23.3965C74.9999 22.987 75.018 22.5835 75.03 22.186C75.0421 21.8488 75.0481 21.3851 75.0481 20.7949C75.0601 20.2048 75.0662 19.5604 75.0662 18.8618C75.0782 18.1512 75.0842 17.4225 75.0842 16.6758C75.0963 15.917 75.1023 15.2004 75.1023 14.5259V7.29932C75.1023 6.86572 75.0963 6.41406 75.0842 5.94434C75.0722 5.47461 75.0421 5.02897 74.9939 4.60742C74.9578 4.18587 74.8975 3.8125 74.8132 3.4873C74.7289 3.15007 74.6145 2.90316 74.47 2.74658C74.2893 2.55387 74.1026 2.3973 73.9099 2.27686C73.7172 2.15641 73.5064 2.06006 73.2776 1.98779C73.0608 1.91553 72.8199 1.86133 72.5549 1.8252C72.29 1.77702 71.9889 1.72884 71.6516 1.68066V1.30127H92.2293L94.7405 7.53418L94.3792 7.71484ZM98.3783 27.9492V27.5879C98.9926 27.4915 99.5647 27.335 100.095 27.1182C100.625 26.8893 101.076 26.5641 101.45 26.1426C101.57 25.998 101.66 25.7873 101.721 25.5103C101.793 25.2332 101.847 24.9141 101.883 24.5527C101.919 24.1914 101.937 23.806 101.937 23.3965C101.949 22.987 101.962 22.5835 101.974 22.186C101.986 21.8488 101.992 21.3851 101.992 20.7949C102.004 20.2048 102.01 19.5604 102.01 18.8618C102.022 18.1512 102.028 17.4225 102.028 16.6758C102.04 15.917 102.046 15.2004 102.046 14.5259V7.29932C102.046 6.86572 102.04 6.42611 102.028 5.98047C102.028 5.53483 102.01 5.1193 101.974 4.73389C101.937 4.34847 101.883 4.00521 101.811 3.7041C101.739 3.39095 101.63 3.15007 101.486 2.98145C101.136 2.57194 100.709 2.27083 100.203 2.07812C99.7092 1.88542 99.1371 1.75293 98.4867 1.68066V1.30127H109.561V1.68066C109.296 1.7168 109.019 1.76497 108.73 1.8252C108.441 1.88542 108.158 1.97575 107.881 2.09619C107.616 2.20459 107.363 2.35514 107.122 2.54785C106.882 2.72852 106.683 2.9694 106.526 3.27051C106.418 3.4873 106.334 3.73421 106.273 4.01123C106.225 4.28825 106.189 4.57731 106.165 4.87842C106.141 5.17952 106.129 5.48665 106.129 5.7998C106.129 6.10091 106.123 6.38997 106.111 6.66699C106.099 7.30534 106.087 7.92562 106.075 8.52783C106.075 9.118 106.075 9.72021 106.075 10.3345C106.075 10.9487 106.075 11.5871 106.075 12.2495C106.075 12.8999 106.075 13.6045 106.075 14.3633V22.728C106.075 23.0773 106.075 23.4326 106.075 23.7939C106.087 24.1553 106.105 24.4925 106.129 24.8057C106.153 25.1188 106.189 25.4019 106.237 25.6548C106.285 25.8957 106.358 26.0824 106.454 26.2148C106.599 26.4196 106.791 26.6003 107.032 26.7568C107.285 26.9134 107.556 27.0519 107.845 27.1724C108.134 27.2928 108.429 27.3892 108.73 27.4614C109.044 27.5216 109.333 27.5638 109.598 27.5879V27.9492H98.3783ZM140.498 9.90088C140.172 8.7085 139.691 7.60042 139.052 6.57666C138.414 5.54085 137.655 4.63753 136.776 3.8667C135.897 3.09587 134.909 2.49365 133.813 2.06006C132.729 1.61442 131.567 1.3916 130.326 1.3916C129.194 1.3916 128.14 1.56624 127.165 1.91553C126.201 2.26481 125.322 2.7526 124.527 3.37891C123.732 3.99316 123.027 4.72184 122.413 5.56494C121.811 6.40804 121.299 7.32943 120.878 8.3291C120.468 9.31673 120.155 10.3586 119.938 11.4546C119.733 12.5386 119.631 13.6346 119.631 14.7427C119.631 16.5252 119.884 18.1934 120.39 19.7471C120.896 21.3008 121.618 22.6497 122.558 23.7939C123.497 24.9382 124.629 25.8415 125.954 26.5039C127.279 27.1663 128.76 27.4976 130.399 27.4976C131.675 27.4976 132.874 27.2687 133.994 26.811C135.114 26.3413 136.114 25.721 136.993 24.9502C137.884 24.1794 138.625 23.3001 139.215 22.3125C139.817 21.3128 140.233 20.283 140.462 19.2231H140.913L140.805 27.353H140.353C140.209 27.1362 140.052 26.9315 139.883 26.7388C139.715 26.534 139.558 26.3594 139.414 26.2148C139.269 26.0583 139.137 25.9318 139.016 25.8354C138.896 25.7391 138.811 25.6909 138.763 25.6909C138.715 25.6909 138.492 25.8234 138.095 26.0884C137.697 26.3413 137.131 26.6243 136.397 26.9375C135.662 27.2386 134.759 27.5216 133.687 27.7866C132.627 28.0396 131.41 28.166 130.037 28.166C127.737 28.166 125.659 27.8288 123.804 27.1543C121.962 26.4798 120.39 25.5464 119.089 24.354C117.8 23.1496 116.807 21.7163 116.108 20.0542C115.421 18.38 115.078 16.5493 115.078 14.562C115.078 14.1284 115.108 13.6286 115.169 13.0625C115.229 12.4964 115.337 11.8882 115.494 11.2378C115.65 10.5874 115.867 9.91292 116.144 9.21436C116.433 8.50374 116.807 7.79313 117.264 7.08252C117.794 6.23942 118.439 5.43848 119.197 4.67969C119.968 3.90885 120.865 3.23438 121.889 2.65625C122.925 2.07812 124.099 1.62044 125.412 1.2832C126.725 0.933919 128.188 0.759277 129.802 0.759277C131.296 0.759277 132.597 0.897786 133.705 1.1748C134.813 1.43978 135.734 1.73486 136.469 2.06006C137.216 2.37321 137.782 2.66829 138.167 2.94531C138.552 3.21029 138.775 3.34277 138.836 3.34277C138.884 3.34277 138.974 3.2946 139.107 3.19824C139.239 3.08984 139.384 2.95133 139.54 2.78271C139.709 2.6141 139.883 2.42741 140.064 2.22266C140.245 2.00586 140.401 1.78906 140.534 1.57227H140.949V9.86475L140.498 9.90088ZM147.062 27.9492V27.5879C147.676 27.4915 148.249 27.335 148.779 27.1182C149.308 26.8893 149.76 26.5641 150.134 26.1426C150.254 25.998 150.344 25.7873 150.405 25.5103C150.477 25.2332 150.531 24.9141 150.567 24.5527C150.603 24.1914 150.621 23.806 150.621 23.3965C150.633 22.987 150.645 22.5835 150.657 22.186C150.669 21.8488 150.676 21.3851 150.676 20.7949C150.688 20.2048 150.694 19.5604 150.694 18.8618C150.706 18.1512 150.712 17.4225 150.712 16.6758C150.724 15.917 150.73 15.2004 150.73 14.5259V7.29932C150.73 6.86572 150.724 6.42611 150.712 5.98047C150.712 5.53483 150.694 5.1193 150.657 4.73389C150.621 4.34847 150.567 4.00521 150.495 3.7041C150.423 3.39095 150.314 3.15007 150.17 2.98145C149.82 2.57194 149.393 2.27083 148.887 2.07812C148.393 1.88542 147.821 1.75293 147.171 1.68066V1.30127H158.245V1.68066C157.98 1.7168 157.703 1.76497 157.414 1.8252C157.125 1.88542 156.842 1.97575 156.565 2.09619C156.3 2.20459 156.047 2.35514 155.806 2.54785C155.565 2.72852 155.367 2.9694 155.21 3.27051C155.102 3.4873 155.017 3.73421 154.957 4.01123C154.909 4.28825 154.873 4.57731 154.849 4.87842C154.825 5.17952 154.813 5.48665 154.813 5.7998C154.813 6.10091 154.807 6.38997 154.795 6.66699C154.783 7.30534 154.771 7.92562 154.759 8.52783C154.759 9.118 154.759 9.72021 154.759 10.3345C154.759 10.9487 154.759 11.5871 154.759 12.2495C154.759 12.8999 154.759 13.6045 154.759 14.3633V22.728C154.759 23.0773 154.759 23.4326 154.759 23.7939C154.771 24.1553 154.789 24.4925 154.813 24.8057C154.837 25.1188 154.873 25.4019 154.921 25.6548C154.969 25.8957 155.042 26.0824 155.138 26.2148C155.282 26.4196 155.475 26.6003 155.716 26.7568C155.969 26.9134 156.24 27.0519 156.529 27.1724C156.818 27.2928 157.113 27.3892 157.414 27.4614C157.727 27.5216 158.017 27.5638 158.281 27.5879V27.9492H147.062ZM179.155 27.9492V27.5879C179.239 27.5758 179.42 27.5457 179.697 27.4976C179.986 27.4494 180.281 27.3651 180.582 27.2446C180.883 27.1121 181.154 26.9375 181.395 26.7207C181.636 26.5039 181.756 26.2209 181.756 25.8716C181.756 25.6548 181.684 25.2935 181.539 24.7876C181.407 24.2817 181.22 23.6675 180.979 22.9448C180.738 22.2222 180.455 21.4212 180.13 20.542C179.805 19.6507 179.456 18.7173 179.082 17.7417H169.236C168.863 18.6691 168.502 19.5604 168.152 20.4155C167.815 21.2586 167.478 22.1198 167.141 22.999C166.876 23.6615 166.677 24.2336 166.544 24.7153C166.424 25.1971 166.364 25.5584 166.364 25.7993C166.364 26.1245 166.46 26.3955 166.653 26.6123C166.857 26.8171 167.11 26.9857 167.412 27.1182C167.713 27.2507 168.044 27.353 168.405 27.4253C168.766 27.4976 169.11 27.5518 169.435 27.5879V27.9492H161.468V27.5337C161.793 27.4976 162.1 27.4313 162.389 27.335C162.678 27.2386 162.931 27.1362 163.148 27.0278C163.377 26.9074 163.563 26.799 163.708 26.7026C163.864 26.5942 163.961 26.516 163.997 26.4678C164.166 26.2992 164.443 25.8957 164.828 25.2573C165.225 24.619 165.713 23.6675 166.291 22.4028C166.809 21.2345 167.387 19.9157 168.026 18.4463C168.676 16.9769 169.339 15.4533 170.013 13.8755C170.688 12.2977 171.356 10.7199 172.018 9.14209C172.693 7.55225 173.319 6.06478 173.897 4.67969L173.536 3.8667C173.982 3.67399 174.379 3.43913 174.728 3.16211C175.09 2.88509 175.403 2.60205 175.668 2.31299C175.945 2.01188 176.174 1.72884 176.354 1.46387C176.547 1.19889 176.692 0.976074 176.788 0.79541H177.095L184.864 21.5898C184.996 21.9753 185.123 22.3185 185.243 22.6196C185.376 22.9207 185.502 23.2158 185.622 23.5049C185.743 23.7819 185.869 24.0589 186.002 24.3359C186.134 24.6009 186.273 24.89 186.417 25.2031C186.466 25.3115 186.574 25.4922 186.743 25.7451C186.911 25.986 187.14 26.2329 187.429 26.4858C187.718 26.7388 188.067 26.9676 188.477 27.1724C188.898 27.3771 189.392 27.4855 189.958 27.4976V27.9492H179.155ZM178.793 16.9648C178.372 15.8688 177.944 14.7607 177.511 13.6406C177.077 12.5085 176.662 11.4365 176.264 10.4248C175.867 9.41309 175.493 8.48568 175.144 7.64258C174.807 6.78743 174.53 6.08285 174.313 5.52881C174.168 5.86605 173.952 6.37793 173.662 7.06445C173.373 7.75098 173.024 8.58805 172.615 9.57568C172.205 10.5513 171.741 11.6654 171.224 12.918C170.706 14.1585 170.158 15.5075 169.579 16.9648H178.793ZM216.378 27.9492H192.639V27.5879C192.94 27.5397 193.247 27.4795 193.56 27.4072C193.873 27.3229 194.174 27.2205 194.463 27.1001C194.753 26.9797 195.017 26.8472 195.258 26.7026C195.511 26.5461 195.722 26.3714 195.891 26.1787C196.011 26.0342 196.114 25.8174 196.198 25.5283C196.282 25.2393 196.348 24.9141 196.397 24.5527C196.457 24.1914 196.499 23.806 196.523 23.3965C196.559 22.987 196.583 22.5835 196.595 22.186C196.607 21.8488 196.613 21.3851 196.613 20.7949C196.625 20.2048 196.631 19.5604 196.631 18.8618C196.643 18.1512 196.649 17.4225 196.649 16.6758C196.662 15.917 196.668 15.2004 196.668 14.5259V7.33545C196.668 6.90186 196.662 6.46826 196.649 6.03467C196.649 5.60107 196.631 5.19759 196.595 4.82422C196.559 4.4388 196.505 4.09554 196.433 3.79443C196.36 3.49333 196.252 3.25846 196.107 3.08984C195.758 2.68034 195.294 2.36117 194.716 2.13232C194.15 1.90348 193.542 1.75293 192.892 1.68066V1.30127H204.689V1.68066C204.364 1.72884 203.978 1.80111 203.533 1.89746C203.099 1.99382 202.684 2.15641 202.286 2.38525C201.889 2.6141 201.545 2.93327 201.256 3.34277C200.967 3.74023 200.817 4.27018 200.805 4.93262C200.781 5.7998 200.757 6.5887 200.732 7.29932C200.72 8.00993 200.708 8.71452 200.696 9.41309C200.696 10.0996 200.696 10.8162 200.696 11.563C200.696 12.2977 200.696 13.1227 200.696 14.0381C200.696 14.8812 200.696 15.64 200.696 16.3145C200.696 16.9889 200.696 17.6514 200.696 18.3018C200.696 18.9401 200.696 19.5965 200.696 20.271C200.708 20.9455 200.72 21.7043 200.732 22.5474C200.745 22.9448 200.751 23.3363 200.751 23.7217C200.763 24.1071 200.781 24.4744 200.805 24.8237C200.841 25.161 200.889 25.4681 200.949 25.7451C201.022 26.0101 201.112 26.2269 201.22 26.3955C201.305 26.528 201.497 26.6545 201.798 26.7749C202.1 26.8953 202.455 27.0037 202.864 27.1001C203.286 27.1844 203.744 27.2567 204.237 27.3169C204.743 27.3651 205.243 27.3892 205.737 27.3892C205.942 27.3892 206.255 27.3831 206.676 27.3711C207.11 27.359 207.586 27.335 208.104 27.2988C208.621 27.2627 209.145 27.2085 209.675 27.1362C210.217 27.064 210.705 26.9676 211.139 26.8472C212.114 26.5822 212.933 26.2269 213.596 25.7812C214.258 25.3236 214.818 24.8117 215.276 24.2456C215.734 23.6675 216.119 23.0412 216.432 22.3667C216.757 21.6802 217.077 20.9635 217.39 20.2168L217.751 20.3252L216.378 27.9492ZM22.1909 60.9976C22.1909 61.9009 22.0403 62.7259 21.7392 63.4727C21.4501 64.2074 21.0587 64.8638 20.5649 65.4419C20.0831 66.02 19.5231 66.5138 18.8847 66.9233C18.2584 67.3208 17.608 67.64 16.9335 67.8809C16.235 68.1338 15.4882 68.3265 14.6933 68.459C13.8984 68.5915 13.1035 68.6878 12.3085 68.748C11.5136 68.7962 10.7428 68.8203 9.99603 68.8203C9.24929 68.8203 8.57481 68.8203 7.9726 68.8203C7.9726 69.6152 7.9726 70.2897 7.9726 70.8438C7.9726 71.3978 7.9726 71.8856 7.9726 72.3071C7.9726 72.7287 7.9726 73.1201 7.9726 73.4814C7.98464 73.8307 7.99668 74.2101 8.00873 74.6196C8.02077 75.4146 8.04486 76.0951 8.08099 76.6611C8.11713 77.2272 8.25564 77.6969 8.49652 78.0703C8.59288 78.2269 8.73741 78.3895 8.93011 78.5581C9.12282 78.7267 9.36371 78.8833 9.65277 79.0278C9.94183 79.1724 10.2791 79.2988 10.6645 79.4072C11.062 79.5036 11.5076 79.5638 12.0014 79.5879V79.9492H0.167908V79.5879C0.782166 79.4915 1.37233 79.341 1.93842 79.1362C2.51654 78.9315 2.96218 78.6364 3.27533 78.251C3.40782 78.0944 3.51019 77.8716 3.58246 77.5825C3.65472 77.2814 3.70892 76.9502 3.74506 76.5889C3.79323 76.2155 3.82334 75.8241 3.83539 75.4146C3.84743 74.993 3.85948 74.5835 3.87152 74.186C3.88357 73.8488 3.88959 73.3851 3.88959 72.7949C3.90163 72.2048 3.90765 71.5604 3.90765 70.8618C3.9197 70.1512 3.92572 69.4225 3.92572 68.6758C3.93776 67.917 3.94379 67.2004 3.94379 66.5259V59.2993C3.94379 58.8657 3.93776 58.4201 3.92572 57.9624C3.91368 57.4927 3.88357 57.0531 3.83539 56.6436C3.79926 56.234 3.73903 55.8667 3.65472 55.5415C3.57041 55.2163 3.45599 54.9754 3.31146 54.8188C3.1308 54.6261 2.92002 54.4696 2.67914 54.3491C2.43825 54.2166 2.17328 54.1082 1.88422 54.0239C1.6072 53.9396 1.31211 53.8734 0.998962 53.8252C0.685811 53.777 0.360616 53.7288 0.0233765 53.6807V53.3013C0.179952 53.3013 0.481059 53.3013 0.926697 53.3013C1.38438 53.2892 1.92637 53.2832 2.55267 53.2832C3.19102 53.2832 3.87754 53.2772 4.61224 53.2651C5.35899 53.2531 6.09369 53.2471 6.81635 53.2471C7.55105 53.2471 8.23757 53.2471 8.87592 53.2471C9.52631 53.235 10.0743 53.229 10.52 53.229C11.3269 53.229 12.0857 53.2471 12.7963 53.2832C13.519 53.3193 14.1995 53.3856 14.8378 53.4819C15.4882 53.5783 16.1085 53.7228 16.6987 53.9155C17.2888 54.0962 17.8609 54.3371 18.415 54.6382C18.9449 54.9393 19.4387 55.3006 19.8964 55.7222C20.3661 56.1437 20.7696 56.6255 21.1069 57.1675C21.4441 57.6974 21.7091 58.2876 21.9018 58.938C22.0945 59.5763 22.1909 60.2629 22.1909 60.9976ZM18.1801 60.8169C18.1801 60.1063 18.0838 59.4318 17.8911 58.7935C17.6983 58.1431 17.4273 57.5469 17.0781 57.0049C16.7408 56.4629 16.3253 55.9811 15.8315 55.5596C15.3497 55.126 14.8137 54.7707 14.2236 54.4937C13.6334 54.2166 13.0011 54.0299 12.3266 53.9336C11.6642 53.8372 10.9776 53.7891 10.267 53.7891C9.74913 53.7891 9.34564 53.8071 9.05658 53.8433C8.77956 53.8794 8.55674 53.9095 8.38812 53.9336C8.35199 54.0781 8.31586 54.2046 8.27972 54.313C8.24359 54.4214 8.20746 54.5659 8.17133 54.7466C8.14724 54.9272 8.12315 55.1742 8.09906 55.4873C8.07497 55.8005 8.05691 56.234 8.04486 56.7881C8.02077 57.3662 8.00271 58.0347 7.99066 58.7935C7.99066 59.5402 7.98464 60.3231 7.9726 61.1421C7.9726 61.9491 7.9726 62.756 7.9726 63.563C7.9726 64.3579 7.9726 65.0866 7.9726 65.749C7.9726 66.4115 7.9726 66.9715 7.9726 67.4292C7.9726 67.8869 7.9726 68.1759 7.9726 68.2964C8.98431 68.2964 9.93581 68.2663 10.8271 68.2061C11.7184 68.1338 12.5434 67.9652 13.3022 67.7002C14.0851 67.4352 14.7776 67.0739 15.3798 66.6162C15.9941 66.1585 16.506 65.6286 16.9155 65.0264C17.337 64.4242 17.6502 63.7677 17.8549 63.0571C18.0717 62.3465 18.1801 61.5998 18.1801 60.8169ZM40.1012 79.9492V79.5879C40.1855 79.5758 40.3661 79.5457 40.6432 79.4976C40.9322 79.4494 41.2273 79.3651 41.5284 79.2446C41.8295 79.1121 42.1005 78.9375 42.3414 78.7207C42.5823 78.5039 42.7027 78.2209 42.7027 77.8716C42.7027 77.6548 42.6305 77.2935 42.4859 76.7876C42.3534 76.2817 42.1668 75.6675 41.9259 74.9448C41.685 74.2222 41.402 73.4212 41.0768 72.542C40.7516 71.6507 40.4023 70.7173 40.0289 69.7417H30.1827C29.8093 70.6691 29.448 71.5604 29.0987 72.4155C28.7615 73.2586 28.4242 74.1198 28.087 74.999C27.822 75.6615 27.6233 76.2336 27.4908 76.7153C27.3704 77.1971 27.3102 77.5584 27.3102 77.7993C27.3102 78.1245 27.4065 78.3955 27.5992 78.6123C27.804 78.8171 28.0569 78.9857 28.358 79.1182C28.6591 79.2507 28.9903 79.353 29.3517 79.4253C29.713 79.4976 30.0562 79.5518 30.3814 79.5879V79.9492H22.4142V79.5337C22.7394 79.4976 23.0465 79.4313 23.3355 79.335C23.6246 79.2386 23.8775 79.1362 24.0943 79.0278C24.3232 78.9074 24.5099 78.799 24.6544 78.7026C24.811 78.5942 24.9073 78.516 24.9435 78.4678C25.1121 78.2992 25.3891 77.8957 25.7745 77.2573C26.172 76.619 26.6598 75.6675 27.2379 74.4028C27.7558 73.2345 28.3339 71.9157 28.9723 70.4463C29.6227 68.9769 30.2851 67.4533 30.9596 65.8755C31.634 64.2977 32.3025 62.7199 32.9649 61.1421C33.6394 59.5522 34.2657 58.0648 34.8438 56.6797L34.4825 55.8667C34.9282 55.674 35.3256 55.4391 35.6749 55.1621C36.0362 54.8851 36.3494 54.6021 36.6144 54.313C36.8914 54.0119 37.1202 53.7288 37.3009 53.4639C37.4936 53.1989 37.6381 52.9761 37.7345 52.7954H38.0416L45.8102 73.5898C45.9426 73.9753 46.0691 74.3185 46.1895 74.6196C46.322 74.9207 46.4485 75.2158 46.5689 75.5049C46.6894 75.7819 46.8159 76.0589 46.9483 76.3359C47.0808 76.6009 47.2193 76.89 47.3639 77.2031C47.412 77.3115 47.5204 77.4922 47.6891 77.7451C47.8577 77.986 48.0865 78.2329 48.3756 78.4858C48.6646 78.7388 49.0139 78.9676 49.4234 79.1724C49.845 79.3771 50.3388 79.4855 50.9049 79.4976V79.9492H40.1012ZM39.7398 68.9648C39.3183 67.8688 38.8907 66.7607 38.4571 65.6406C38.0235 64.5085 37.608 63.4365 37.2105 62.4248C36.8131 61.4131 36.4397 60.4857 36.0904 59.6426C35.7532 58.7874 35.4762 58.0828 35.2594 57.5288C35.1148 57.866 34.898 58.3779 34.609 59.0645C34.3199 59.751 33.9706 60.5881 33.5611 61.5757C33.1516 62.5513 32.6879 63.6654 32.17 64.918C31.6521 66.1585 31.1041 67.5075 30.526 68.9648H39.7398ZM74.217 79.9492C74.0003 79.7324 73.8377 79.5698 73.7293 79.4614C73.6329 79.353 73.5245 79.2266 73.4041 79.082C73.2957 78.9255 73.1451 78.7087 72.9524 78.4316C72.7597 78.1426 72.4706 77.709 72.0852 77.1309C71.6155 76.4443 71.2 75.8241 70.8386 75.27C70.4773 74.7039 70.11 74.1559 69.7366 73.626C69.3632 73.084 68.9597 72.536 68.5261 71.9819C68.1046 71.4159 67.5987 70.7896 67.0086 70.103C66.7677 69.826 66.5087 69.555 66.2317 69.29C65.9667 69.013 65.6897 68.7601 65.4006 68.5312C65.1116 68.3024 64.8105 68.1037 64.4973 67.9351C64.1962 67.7664 63.8891 67.652 63.5759 67.5918C63.335 67.5436 63.1303 67.5135 62.9617 67.5015C62.8051 67.4774 62.6545 67.4593 62.51 67.4473C62.3775 67.4352 62.245 67.4292 62.1126 67.4292C61.9801 67.4292 61.8235 67.4232 61.6428 67.4111C61.6428 69.013 61.6428 70.4041 61.6428 71.5845C61.6428 72.7648 61.6549 73.7645 61.679 74.5835C61.691 75.3784 61.7151 76.0589 61.7512 76.625C61.7874 77.1911 61.9259 77.6608 62.1668 78.0342C62.2631 78.1908 62.4076 78.3534 62.6003 78.522C62.7931 78.6906 63.0339 78.8532 63.323 79.0098C63.6121 79.1543 63.9493 79.2808 64.3347 79.3892C64.7322 79.4976 65.1778 79.5638 65.6716 79.5879V79.9492H53.8381V79.5879C54.4524 79.4915 55.0426 79.341 55.6087 79.1362C56.1868 78.9315 56.6324 78.6364 56.9456 78.251C57.0781 78.0944 57.1804 77.8716 57.2527 77.5825C57.325 77.2814 57.3792 76.9502 57.4153 76.5889C57.4635 76.2155 57.4936 75.8241 57.5056 75.4146C57.5177 74.993 57.5297 74.5835 57.5418 74.186C57.5538 73.8488 57.5598 73.3851 57.5598 72.7949C57.5719 72.2048 57.5779 71.5604 57.5779 70.8618C57.5899 70.1512 57.596 69.4225 57.596 68.6758C57.608 67.917 57.614 67.2004 57.614 66.5259V59.2993C57.614 58.8657 57.608 58.4201 57.596 57.9624C57.5839 57.4927 57.5538 57.0531 57.5056 56.6436C57.4695 56.234 57.4093 55.8667 57.325 55.5415C57.2406 55.2163 57.1262 54.9754 56.9817 54.8188C56.801 54.6261 56.6083 54.4696 56.4036 54.3491C56.1988 54.2166 55.976 54.1082 55.7351 54.0239C55.5063 53.9396 55.2533 53.8734 54.9763 53.8252C54.6993 53.777 54.3922 53.7288 54.0549 53.6807V53.3013C54.1874 53.3013 54.4644 53.3013 54.886 53.3013C55.3196 53.3013 55.8375 53.3013 56.4397 53.3013C57.0419 53.2892 57.6983 53.2832 58.4089 53.2832C59.1316 53.2832 59.8482 53.2832 60.5588 53.2832C61.2695 53.2712 61.9379 53.2651 62.5642 53.2651C63.2026 53.2651 63.7446 53.2651 64.1902 53.2651C65.0212 53.2651 65.7981 53.2772 66.5208 53.3013C67.2555 53.3133 67.948 53.3555 68.5984 53.4277C69.2488 53.5 69.863 53.6144 70.4412 53.771C71.0313 53.9276 71.5914 54.1444 72.1213 54.4214C72.6513 54.7104 73.1391 55.0477 73.5847 55.4331C74.0304 55.8065 74.4098 56.2401 74.7229 56.7339C75.0481 57.2277 75.295 57.7817 75.4636 58.396C75.6443 59.0103 75.7346 59.6847 75.7346 60.4194C75.7346 61.3228 75.572 62.1357 75.2468 62.8584C74.9216 63.5811 74.476 64.2254 73.9099 64.7915C73.3559 65.3455 72.7115 65.8273 71.9768 66.2368C71.2421 66.6343 70.4592 66.9595 69.6282 67.2124V67.3389C70.0618 67.5557 70.4713 67.8748 70.8567 68.2964C71.2542 68.7059 71.6396 69.1756 72.0129 69.7056C72.3381 70.1632 72.6754 70.651 73.0247 71.1689C73.386 71.6868 73.7413 72.2048 74.0906 72.7227C74.4519 73.2406 74.8012 73.7524 75.1384 74.2583C75.4877 74.7521 75.8129 75.2038 76.114 75.6133C76.5597 76.2637 76.9993 76.8237 77.4329 77.2935C77.8665 77.7511 78.3061 78.1366 78.7517 78.4497C79.2094 78.7629 79.6851 79.0098 80.179 79.1904C80.6848 79.3711 81.2268 79.5036 81.8049 79.5879V79.9492H74.217ZM71.489 60.1846C71.489 58.9561 71.1819 57.86 70.5676 56.8965C69.9534 55.9329 69.0501 55.1681 67.8577 54.6021C67.2675 54.325 66.6412 54.1263 65.9788 54.0059C65.3284 53.8854 64.6479 53.8252 63.9373 53.8252C63.4194 53.8252 62.9978 53.8372 62.6726 53.8613C62.3474 53.8854 62.1005 53.9095 61.9319 53.9336C61.9078 54.0781 61.8837 54.2046 61.8596 54.313C61.8476 54.4214 61.8295 54.5659 61.8054 54.7466C61.7934 54.9272 61.7753 55.1742 61.7512 55.4873C61.7392 55.8005 61.7271 56.234 61.7151 56.7881C61.691 57.3662 61.6729 57.9985 61.6609 58.6851C61.6609 59.3716 61.6549 60.0701 61.6428 60.7808C61.6428 61.4793 61.6428 62.1719 61.6428 62.8584C61.6428 63.5329 61.6428 64.1532 61.6428 64.7192C61.6428 65.2733 61.6428 65.749 61.6428 66.1465C61.6428 66.5319 61.6428 66.7909 61.6428 66.9233C62.6545 66.9233 63.594 66.8812 64.4612 66.7969C65.3404 66.7005 66.1895 66.5199 67.0086 66.2549C67.8035 66.002 68.484 65.6707 69.0501 65.2612C69.6161 64.8517 70.0798 64.382 70.4412 63.8521C70.8025 63.3221 71.0675 62.75 71.2361 62.1357C71.4047 61.5094 71.489 60.859 71.489 60.1846ZM109.832 60.2568C109.64 59.8112 109.405 59.3535 109.128 58.8838C108.863 58.402 108.586 57.9504 108.297 57.5288C108.008 57.0952 107.725 56.7038 107.448 56.3545C107.183 56.0052 106.954 55.7402 106.761 55.5596C106.496 55.3187 106.225 55.12 105.948 54.9634C105.671 54.8068 105.37 54.6864 105.045 54.6021C104.732 54.5057 104.388 54.4395 104.015 54.4033C103.642 54.3551 103.22 54.325 102.75 54.313C102.281 54.3009 101.871 54.2949 101.522 54.2949C101.185 54.2829 100.847 54.2769 100.51 54.2769C100.185 54.2769 99.8297 54.2769 99.4443 54.2769C99.0588 54.2769 98.5951 54.2769 98.0531 54.2769C98.0531 54.6984 98.0471 55.2223 98.0351 55.8486C98.0351 56.4629 98.0291 57.1313 98.017 57.854C98.017 58.5767 98.017 59.3354 98.017 60.1304C98.017 60.9132 98.017 61.6841 98.017 62.4429C98.017 63.2017 98.017 63.9183 98.017 64.5928C98.017 65.2673 98.017 65.8574 98.017 66.3633V74.5835C98.017 74.9328 98.017 75.2881 98.017 75.6494C98.0291 75.9987 98.0471 76.3299 98.0712 76.6431C98.1073 76.9562 98.1495 77.2332 98.1977 77.4741C98.2579 77.715 98.3362 77.9017 98.4325 78.0342C98.6132 78.2992 98.842 78.522 99.1191 78.7026C99.3961 78.8713 99.6912 79.0158 100.004 79.1362C100.317 79.2567 100.631 79.353 100.944 79.4253C101.269 79.4855 101.564 79.5397 101.829 79.5879V79.9492H89.8149V79.5879C90.1401 79.5518 90.4532 79.5096 90.7543 79.4614C91.0675 79.4012 91.3686 79.3169 91.6576 79.2085C91.9587 79.0881 92.2538 78.9315 92.5429 78.7388C92.8319 78.5461 93.115 78.2931 93.392 77.98C93.5124 77.8595 93.6028 77.6608 93.663 77.3838C93.7353 77.0947 93.7895 76.7695 93.8256 76.4082C93.8617 76.0469 93.8798 75.6615 93.8798 75.252C93.8918 74.8304 93.9039 74.4209 93.9159 74.0234C93.928 73.6862 93.934 73.2345 93.934 72.6685C93.946 72.0903 93.9521 71.458 93.9521 70.7715C93.9641 70.085 93.9701 69.3743 93.9701 68.6396C93.9822 67.9049 93.9882 67.2004 93.9882 66.5259V54.2769C93.4582 54.2769 93.0006 54.2769 92.6152 54.2769C92.2418 54.2769 91.8865 54.2769 91.5492 54.2769C91.212 54.2769 90.8687 54.2829 90.5194 54.2949C90.1702 54.2949 89.7607 54.3009 89.2909 54.313C88.8332 54.325 88.4117 54.3612 88.0263 54.4214C87.6529 54.4696 87.3036 54.5479 86.9784 54.6562C86.6653 54.7646 86.3702 54.9032 86.0932 55.0718C85.8162 55.2404 85.5512 55.4451 85.2983 55.686C85.1055 55.8667 84.8767 56.1257 84.6117 56.4629C84.3468 56.7881 84.0758 57.1615 83.7987 57.583C83.5217 57.9925 83.2507 58.4321 82.9858 58.9019C82.7208 59.3595 82.4919 59.8112 82.2992 60.2568L81.956 60.1484L83.1484 53.1206C83.4374 53.1929 83.7024 53.2531 83.9433 53.3013C84.1842 53.3494 84.4371 53.3916 84.7021 53.4277C84.9791 53.4639 85.2802 53.494 85.6054 53.5181C85.9426 53.5422 86.3461 53.5602 86.8158 53.5723C87.7553 53.5964 88.5924 53.6144 89.3271 53.6265C90.0618 53.6265 90.7724 53.6325 91.4589 53.6445C92.1575 53.6445 92.8681 53.6445 93.5907 53.6445C94.3254 53.6445 95.1505 53.6445 96.0658 53.6445C96.9812 53.6445 97.8002 53.6445 98.5229 53.6445C99.2455 53.6325 99.9561 53.6265 100.655 53.6265C101.353 53.6144 102.07 53.6084 102.805 53.6084C103.539 53.5964 104.376 53.5843 105.316 53.5723C105.725 53.5602 106.093 53.5361 106.418 53.5C106.743 53.4639 107.044 53.4217 107.321 53.3735C107.61 53.3133 107.881 53.2471 108.134 53.1748C108.399 53.1025 108.676 53.0243 108.965 52.9399L110.158 60.1484L109.832 60.2568ZM143.587 53.6807C142.672 53.8132 141.937 54.054 141.383 54.4033C140.829 54.7406 140.401 55.2645 140.1 55.9751C140.016 56.1558 139.95 56.4268 139.901 56.7881C139.853 57.1494 139.811 57.5649 139.775 58.0347C139.739 58.5044 139.709 59.0163 139.685 59.5703C139.661 60.1123 139.636 60.6663 139.612 61.2324C139.576 62.2923 139.534 63.5449 139.486 64.9902C139.45 66.4235 139.432 67.9712 139.432 69.6333C139.432 70.3319 139.432 71.1147 139.432 71.9819C139.444 72.8491 139.45 73.7404 139.45 74.6558C139.45 75.5591 139.45 76.4504 139.45 77.3296C139.462 78.2088 139.468 79.0098 139.468 79.7324C139.468 79.8288 139.438 79.9191 139.378 80.0034C139.329 80.0877 139.239 80.1299 139.107 80.1299C139.01 80.1299 138.902 80.0877 138.781 80.0034C138.661 79.9312 138.546 79.8288 138.438 79.6963C137.029 78.0824 135.71 76.5648 134.482 75.1436C133.265 73.7103 132.097 72.3433 130.977 71.0425C129.869 69.7297 128.797 68.465 127.761 67.2485C126.725 66.0321 125.695 64.8337 124.671 63.6533C123.66 62.4609 122.636 61.2686 121.6 60.0762C120.576 58.8838 119.504 57.6613 118.384 56.4087V72.0361C118.384 72.6504 118.39 73.2466 118.402 73.8247C118.414 74.4028 118.439 74.9388 118.475 75.4326C118.523 75.9264 118.583 76.366 118.655 76.7515C118.728 77.1369 118.824 77.45 118.944 77.6909C119.221 78.257 119.649 78.6846 120.227 78.9736C120.805 79.2507 121.594 79.4554 122.594 79.5879V79.9492H113.506V79.5879C113.795 79.5518 114.091 79.4976 114.392 79.4253C114.705 79.341 115 79.2386 115.277 79.1182C115.566 78.9857 115.831 78.8291 116.072 78.6484C116.313 78.4557 116.517 78.2209 116.686 77.9438C117.023 77.4259 117.246 76.6672 117.355 75.6675C117.463 74.6558 117.535 73.4453 117.571 72.0361C117.607 70.9762 117.638 69.7236 117.662 68.2783C117.698 66.833 117.716 65.2853 117.716 63.6353C117.716 62.9367 117.716 62.3465 117.716 61.8647C117.716 61.383 117.716 60.9253 117.716 60.4917C117.716 60.0461 117.71 59.5824 117.698 59.1006C117.698 58.6188 117.692 58.0226 117.68 57.312C117.607 56.5894 117.433 56.0052 117.156 55.5596C116.891 55.1139 116.572 54.7586 116.198 54.4937C115.825 54.2287 115.421 54.042 114.988 53.9336C114.554 53.8252 114.145 53.7409 113.759 53.6807V53.3013H121.275L138.799 73.8066V61.2324C138.799 60.7386 138.793 60.2508 138.781 59.769C138.781 59.2873 138.769 58.8296 138.745 58.396C138.733 57.9624 138.697 57.5649 138.637 57.2036C138.589 56.8423 138.522 56.5291 138.438 56.2642C138.197 55.5897 137.758 55.0356 137.119 54.6021C136.493 54.1564 135.59 53.8493 134.409 53.6807V53.3013H143.587V53.6807ZM171.398 79.9492H148.76V79.5879C149.375 79.4915 149.947 79.3289 150.477 79.1001C151.019 78.8713 151.458 78.5641 151.796 78.1787C151.916 78.0342 152.018 77.8174 152.103 77.5283C152.187 77.2393 152.253 76.9141 152.301 76.5527C152.35 76.1914 152.386 75.806 152.41 75.3965C152.434 74.987 152.452 74.5835 152.464 74.186C152.476 73.8488 152.482 73.3851 152.482 72.7949C152.494 72.2048 152.5 71.5604 152.5 70.8618C152.512 70.1512 152.518 69.4225 152.518 68.6758C152.53 67.917 152.536 67.2004 152.536 66.5259V59.2993C152.536 58.8657 152.53 58.4141 152.518 57.9443C152.506 57.4746 152.476 57.029 152.428 56.6074C152.392 56.1859 152.332 55.8125 152.247 55.4873C152.163 55.1501 152.049 54.9032 151.904 54.7466C151.723 54.5539 151.537 54.3973 151.344 54.2769C151.151 54.1564 150.94 54.0601 150.712 53.9878C150.495 53.9155 150.254 53.8613 149.989 53.8252C149.724 53.777 149.423 53.7288 149.086 53.6807V53.3013H169.519L172.03 59.4077L171.669 59.6064C170.657 58.3538 169.681 57.306 168.742 56.4629C167.802 55.6198 166.899 54.9875 166.032 54.5659C165.815 54.4696 165.508 54.3792 165.111 54.2949C164.713 54.1986 164.237 54.1203 163.683 54.0601C163.129 53.9878 162.503 53.9336 161.804 53.8975C161.118 53.8493 160.371 53.8252 159.564 53.8252C159.311 53.8252 159.04 53.8312 158.751 53.8433C158.474 53.8433 158.203 53.8553 157.938 53.8794C157.685 53.8914 157.45 53.9095 157.234 53.9336C157.029 53.9577 156.866 53.9818 156.746 54.0059C156.722 54.1986 156.698 54.5057 156.674 54.9272C156.662 55.3488 156.643 55.8547 156.619 56.4448C156.607 57.035 156.595 57.6974 156.583 58.4321C156.571 59.1668 156.565 59.9377 156.565 60.7446C156.565 61.6841 156.565 62.479 156.565 63.1294C156.577 63.7677 156.583 64.2917 156.583 64.7012C156.583 65.1107 156.583 65.4238 156.583 65.6406C156.595 65.8454 156.601 65.9779 156.601 66.0381C156.71 66.0381 156.951 66.0381 157.324 66.0381C157.709 66.0381 158.137 66.0321 158.607 66.02C159.088 65.9959 159.57 65.9658 160.052 65.9297C160.534 65.8815 160.937 65.8213 161.262 65.749C162.009 65.5684 162.623 65.3335 163.105 65.0444C163.599 64.7554 164.003 64.4001 164.316 63.9785C164.629 63.557 164.876 63.0692 165.056 62.5151C165.249 61.9611 165.418 61.3348 165.562 60.6362H165.996V72.2891H165.562C165.454 71.9036 165.321 71.5002 165.165 71.0786C165.008 70.6571 164.834 70.2476 164.641 69.8501C164.448 69.4526 164.243 69.0913 164.027 68.7661C163.81 68.4289 163.593 68.1579 163.376 67.9531C162.991 67.6038 162.515 67.3208 161.949 67.104C161.395 66.8752 160.751 66.7427 160.016 66.7065C159.642 66.6945 159.329 66.6825 159.076 66.6704C158.823 66.6584 158.583 66.6523 158.354 66.6523C158.125 66.6403 157.878 66.6343 157.613 66.6343C157.348 66.6343 157.023 66.6343 156.637 66.6343C156.613 66.8029 156.595 67.0197 156.583 67.2847C156.583 67.5376 156.577 67.8267 156.565 68.1519C156.565 68.465 156.565 68.7962 156.565 69.1455C156.565 69.4948 156.565 69.8501 156.565 70.2114C156.565 70.5487 156.565 70.922 156.565 71.3315C156.565 71.741 156.565 72.1506 156.565 72.5601C156.565 72.9696 156.565 73.355 156.565 73.7163C156.577 74.0776 156.589 74.3787 156.601 74.6196C156.613 75.0171 156.625 75.4085 156.637 75.7939C156.662 76.1794 156.692 76.5407 156.728 76.8779C156.764 77.2031 156.818 77.5042 156.89 77.7812C156.963 78.0462 157.053 78.263 157.161 78.4316C157.27 78.6003 157.462 78.7448 157.739 78.8652C158.029 78.9857 158.366 79.0881 158.751 79.1724C159.137 79.2446 159.564 79.2988 160.034 79.335C160.504 79.3711 160.985 79.3892 161.479 79.3892C161.901 79.3892 162.437 79.3771 163.087 79.353C163.75 79.3289 164.436 79.2687 165.147 79.1724C165.918 79.064 166.64 78.8713 167.315 78.5942C167.989 78.3052 168.634 77.9077 169.248 77.4019C169.862 76.884 170.458 76.2456 171.036 75.4868C171.627 74.728 172.229 73.8247 172.843 72.7769L173.259 72.8853L171.398 79.9492ZM198.034 79.9492C197.817 79.7324 197.655 79.5698 197.546 79.4614C197.45 79.353 197.342 79.2266 197.221 79.082C197.113 78.9255 196.962 78.7087 196.769 78.4316C196.577 78.1426 196.288 77.709 195.902 77.1309C195.433 76.4443 195.017 75.8241 194.656 75.27C194.294 74.7039 193.927 74.1559 193.554 73.626C193.18 73.084 192.777 72.536 192.343 71.9819C191.922 71.4159 191.416 70.7896 190.826 70.103C190.585 69.826 190.326 69.555 190.049 69.29C189.784 69.013 189.507 68.7601 189.218 68.5312C188.929 68.3024 188.627 68.1037 188.314 67.9351C188.013 67.7664 187.706 67.652 187.393 67.5918C187.152 67.5436 186.947 67.5135 186.779 67.5015C186.622 67.4774 186.472 67.4593 186.327 67.4473C186.195 67.4352 186.062 67.4292 185.93 67.4292C185.797 67.4292 185.641 67.4232 185.46 67.4111C185.46 69.013 185.46 70.4041 185.46 71.5845C185.46 72.7648 185.472 73.7645 185.496 74.5835C185.508 75.3784 185.532 76.0589 185.568 76.625C185.604 77.1911 185.743 77.6608 185.984 78.0342C186.08 78.1908 186.225 78.3534 186.417 78.522C186.61 78.6906 186.851 78.8532 187.14 79.0098C187.429 79.1543 187.766 79.2808 188.152 79.3892C188.549 79.4976 188.995 79.5638 189.489 79.5879V79.9492H177.655V79.5879C178.269 79.4915 178.86 79.341 179.426 79.1362C180.004 78.9315 180.449 78.6364 180.763 78.251C180.895 78.0944 180.997 77.8716 181.07 77.5825C181.142 77.2814 181.196 76.9502 181.232 76.5889C181.28 76.2155 181.311 75.8241 181.323 75.4146C181.335 74.993 181.347 74.5835 181.359 74.186C181.371 73.8488 181.377 73.3851 181.377 72.7949C181.389 72.2048 181.395 71.5604 181.395 70.8618C181.407 70.1512 181.413 69.4225 181.413 68.6758C181.425 67.917 181.431 67.2004 181.431 66.5259V59.2993C181.431 58.8657 181.425 58.4201 181.413 57.9624C181.401 57.4927 181.371 57.0531 181.323 56.6436C181.287 56.234 181.226 55.8667 181.142 55.5415C181.058 55.2163 180.943 54.9754 180.799 54.8188C180.618 54.6261 180.425 54.4696 180.221 54.3491C180.016 54.2166 179.793 54.1082 179.552 54.0239C179.323 53.9396 179.07 53.8734 178.793 53.8252C178.516 53.777 178.209 53.7288 177.872 53.6807V53.3013C178.004 53.3013 178.281 53.3013 178.703 53.3013C179.137 53.3013 179.655 53.3013 180.257 53.3013C180.859 53.2892 181.515 53.2832 182.226 53.2832C182.949 53.2832 183.665 53.2832 184.376 53.2832C185.086 53.2712 185.755 53.2651 186.381 53.2651C187.02 53.2651 187.562 53.2651 188.007 53.2651C188.838 53.2651 189.615 53.2772 190.338 53.3013C191.072 53.3133 191.765 53.3555 192.415 53.4277C193.066 53.5 193.68 53.6144 194.258 53.771C194.848 53.9276 195.408 54.1444 195.938 54.4214C196.468 54.7104 196.956 55.0477 197.402 55.4331C197.847 55.8065 198.227 56.2401 198.54 56.7339C198.865 57.2277 199.112 57.7817 199.281 58.396C199.461 59.0103 199.552 59.6847 199.552 60.4194C199.552 61.3228 199.389 62.1357 199.064 62.8584C198.739 63.5811 198.293 64.2254 197.727 64.7915C197.173 65.3455 196.529 65.8273 195.794 66.2368C195.059 66.6343 194.276 66.9595 193.445 67.2124V67.3389C193.879 67.5557 194.288 67.8748 194.674 68.2964C195.071 68.7059 195.457 69.1756 195.83 69.7056C196.155 70.1632 196.492 70.651 196.842 71.1689C197.203 71.6868 197.558 72.2048 197.908 72.7227C198.269 73.2406 198.618 73.7524 198.955 74.2583C199.305 74.7521 199.63 75.2038 199.931 75.6133C200.377 76.2637 200.816 76.8237 201.25 77.2935C201.683 77.7511 202.123 78.1366 202.569 78.4497C203.026 78.7629 203.502 79.0098 203.996 79.1904C204.502 79.3711 205.044 79.5036 205.622 79.5879V79.9492H198.034ZM195.306 60.1846C195.306 58.9561 194.999 57.86 194.385 56.8965C193.77 55.9329 192.867 55.1681 191.675 54.6021C191.085 54.325 190.458 54.1263 189.796 54.0059C189.145 53.8854 188.465 53.8252 187.754 53.8252C187.236 53.8252 186.815 53.8372 186.49 53.8613C186.164 53.8854 185.918 53.9095 185.749 53.9336C185.725 54.0781 185.701 54.2046 185.677 54.313C185.665 54.4214 185.647 54.5659 185.622 54.7466C185.61 54.9272 185.592 55.1742 185.568 55.4873C185.556 55.8005 185.544 56.234 185.532 56.7881C185.508 57.3662 185.49 57.9985 185.478 58.6851C185.478 59.3716 185.472 60.0701 185.46 60.7808C185.46 61.4793 185.46 62.1719 185.46 62.8584C185.46 63.5329 185.46 64.1532 185.46 64.7192C185.46 65.2733 185.46 65.749 185.46 66.1465C185.46 66.5319 185.46 66.7909 185.46 66.9233C186.472 66.9233 187.411 66.8812 188.278 66.7969C189.157 66.7005 190.007 66.5199 190.826 66.2549C191.62 66.002 192.301 65.6707 192.867 65.2612C193.433 64.8517 193.897 64.382 194.258 63.8521C194.62 63.3221 194.884 62.75 195.053 62.1357C195.222 61.5094 195.306 60.859 195.306 60.1846ZM227.597 72.6685C227.597 73.8488 227.356 74.9087 226.875 75.8481C226.405 76.7876 225.736 77.5885 224.869 78.251C224.014 78.9014 222.996 79.4012 221.816 79.7505C220.636 80.0998 219.341 80.2744 217.932 80.2744C216.727 80.2744 215.691 80.1841 214.824 80.0034C213.969 79.8348 213.259 79.6481 212.692 79.4434C212.126 79.2386 211.693 79.0519 211.392 78.8833C211.103 78.7026 210.928 78.6123 210.868 78.6123C210.832 78.6123 210.771 78.6545 210.687 78.7388C210.603 78.8231 210.506 78.9315 210.398 79.064C210.29 79.1844 210.175 79.3229 210.055 79.4795C209.934 79.624 209.826 79.7686 209.73 79.9131H209.386L209.278 72.542H209.657C209.874 73.2044 210.157 73.8548 210.506 74.4932C210.856 75.1315 211.235 75.7277 211.645 76.2817C212.054 76.8237 212.482 77.3055 212.927 77.7271C213.373 78.1486 213.807 78.4678 214.228 78.6846C214.445 78.793 214.698 78.9074 214.987 79.0278C215.276 79.1483 215.583 79.2627 215.908 79.3711C216.233 79.4674 216.565 79.5457 216.902 79.606C217.239 79.6662 217.57 79.6963 217.896 79.6963C218.799 79.6963 219.624 79.5638 220.371 79.2988C221.129 79.0339 221.78 78.6605 222.322 78.1787C222.864 77.6969 223.285 77.1128 223.586 76.4263C223.888 75.7397 224.038 74.9749 224.038 74.1318C224.038 73.4453 223.924 72.8491 223.695 72.3433C223.478 71.8254 223.177 71.3737 222.792 70.9883C222.418 70.6029 221.973 70.2716 221.455 69.9946C220.937 69.7176 220.383 69.4707 219.793 69.2539C219.19 69.0371 218.672 68.8564 218.239 68.7119C217.805 68.5553 217.39 68.4108 216.992 68.2783C216.607 68.1458 216.209 68.0133 215.8 67.8809C215.39 67.7363 214.909 67.5557 214.355 67.3389C213.716 67.0859 213.102 66.7427 212.512 66.3091C211.922 65.8755 211.398 65.3757 210.94 64.8096C210.494 64.2314 210.133 63.5931 209.856 62.8945C209.591 62.1839 209.459 61.4312 209.459 60.6362C209.459 59.3114 209.699 58.1672 210.181 57.2036C210.675 56.228 211.325 55.4211 212.132 54.7827C212.951 54.1444 213.897 53.6746 214.969 53.3735C216.041 53.0604 217.167 52.9038 218.347 52.9038C219.455 52.9038 220.401 53.0002 221.184 53.1929C221.979 53.3735 222.629 53.5723 223.135 53.7891C223.641 54.0059 224.02 54.2106 224.273 54.4033C224.526 54.584 224.67 54.6743 224.707 54.6743C224.743 54.6743 224.803 54.6322 224.887 54.5479C224.972 54.4635 225.068 54.3612 225.176 54.2407C225.285 54.1082 225.393 53.9637 225.502 53.8071C225.61 53.6385 225.712 53.4819 225.809 53.3374H226.224V60.1846H225.809C225.508 59.3656 225.128 58.5586 224.67 57.7637C224.213 56.9567 223.671 56.2401 223.044 55.6138C222.43 54.9754 221.726 54.4635 220.931 54.0781C220.148 53.6927 219.275 53.5 218.311 53.5C217.528 53.5 216.8 53.6144 216.125 53.8433C215.451 54.0721 214.866 54.4093 214.373 54.855C213.879 55.2886 213.487 55.8306 213.198 56.481C212.909 57.1193 212.765 57.86 212.765 58.7031C212.765 59.3535 212.867 59.9377 213.072 60.4556C213.289 60.9735 213.584 61.4372 213.957 61.8467C214.33 62.2562 214.776 62.6175 215.294 62.9307C215.824 63.2438 216.396 63.5148 217.01 63.7437C217.516 63.9364 217.98 64.111 218.401 64.2676C218.835 64.4121 219.257 64.5566 219.666 64.7012C220.088 64.8337 220.509 64.9722 220.931 65.1167C221.364 65.2492 221.822 65.4058 222.304 65.5864C223.966 66.2007 225.261 67.098 226.188 68.2783C227.128 69.4587 227.597 70.922 227.597 72.6685Z" fill="#A67F56"/>
</svg>
