<svg width="158" height="63" viewBox="0 0 158 63" fill="none" xmlns="http://www.w3.org/2000/svg">
<path d="M31.3405 12.3812C31.3405 14.0772 31.0578 15.6506 30.4925 17.1012C29.9272 18.5412 29.1325 19.7892 28.1085 20.8452C27.0845 21.9012 25.8525 22.7279 24.4125 23.3252C22.9725 23.9119 21.3778 24.2052 19.6285 24.2052C17.8792 24.2052 16.2792 23.9119 14.8285 23.3252C13.3885 22.7279 12.1512 21.9012 11.1165 20.8452C10.0925 19.7892 9.29783 18.5412 8.7325 17.1012C8.16717 15.6506 7.8845 14.0772 7.8845 12.3812C7.8845 10.6852 8.16717 9.11722 8.7325 7.67722C9.29783 6.22655 10.0925 4.97322 11.1165 3.91722C12.1512 2.86122 13.3885 2.03988 14.8285 1.45322C16.2792 0.855885 17.8792 0.557219 19.6285 0.557219C21.3778 0.557219 22.9725 0.855885 24.4125 1.45322C25.8525 2.05055 27.0845 2.87722 28.1085 3.93322C29.1325 4.97855 29.9272 6.22655 30.4925 7.67722C31.0578 9.11722 31.3405 10.6852 31.3405 12.3812ZM26.9245 12.3812C26.9245 11.1119 26.7538 9.97588 26.4125 8.97322C26.0818 7.95988 25.6018 7.10122 24.9725 6.39722C24.3432 5.69322 23.5752 5.15455 22.6685 4.78122C21.7725 4.40788 20.7592 4.22122 19.6285 4.22122C18.4978 4.22122 17.4792 4.40788 16.5725 4.78122C15.6658 5.15455 14.8925 5.69322 14.2525 6.39722C13.6232 7.10122 13.1378 7.95988 12.7965 8.97322C12.4552 9.97588 12.2845 11.1119 12.2845 12.3812C12.2845 13.6506 12.4552 14.7919 12.7965 15.8052C13.1378 16.8079 13.6232 17.6612 14.2525 18.3652C14.8925 19.0586 15.6658 19.5919 16.5725 19.9652C17.4792 20.3386 18.4978 20.5252 19.6285 20.5252C20.7592 20.5252 21.7725 20.3386 22.6685 19.9652C23.5752 19.5919 24.3432 19.0586 24.9725 18.3652C25.6018 17.6612 26.0818 16.8079 26.4125 15.8052C26.7538 14.7919 26.9245 13.6506 26.9245 12.3812ZM49.3343 0.813217V4.23722H39.0783V11.0852H47.7343V14.5252H39.0783V23.9492H34.7423V0.813217H49.3343ZM67.303 0.813217V4.23722H57.047V11.0852H65.703V14.5252H57.047V23.9492H52.711V0.813217H67.303ZM75.5278 23.9492H71.2078V0.813217H75.5278V23.9492ZM96.6463 18.4932C96.8809 18.4932 97.0836 18.5839 97.2543 18.7652L98.9503 20.6052C98.0116 21.7679 96.8543 22.6586 95.4783 23.2772C94.1129 23.8959 92.4703 24.2052 90.5503 24.2052C88.8329 24.2052 87.2863 23.9119 85.9103 23.3252C84.5449 22.7386 83.3769 21.9226 82.4062 20.8772C81.4356 19.8319 80.6889 18.5839 80.1663 17.1332C79.6543 15.6826 79.3983 14.0986 79.3983 12.3812C79.3983 10.6426 79.6863 9.05322 80.2623 7.61322C80.8383 6.16255 81.6489 4.91455 82.6943 3.86922C83.7396 2.82388 84.9876 2.01322 86.4383 1.43722C87.8996 0.850552 89.5103 0.557219 91.2703 0.557219C92.9876 0.557219 94.4863 0.834551 95.7663 1.38922C97.0569 1.93322 98.1609 2.65855 99.0783 3.56522L97.6383 5.56522C97.5529 5.69322 97.4409 5.80522 97.3023 5.90122C97.1743 5.99722 96.9929 6.04522 96.7583 6.04522C96.5129 6.04522 96.2623 5.94922 96.0063 5.75722C95.7503 5.56522 95.4249 5.35722 95.0303 5.13322C94.6356 4.90922 94.1343 4.70122 93.5263 4.50922C92.9289 4.31722 92.1663 4.22122 91.2383 4.22122C90.1503 4.22122 89.1476 4.41322 88.2303 4.79722C87.3236 5.17055 86.5396 5.70922 85.8783 6.41322C85.2276 7.11722 84.7156 7.97588 84.3423 8.98922C83.9796 9.99188 83.7983 11.1226 83.7983 12.3812C83.7983 13.6826 83.9796 14.8399 84.3423 15.8532C84.7156 16.8666 85.2169 17.7199 85.8463 18.4132C86.4756 19.1066 87.2169 19.6399 88.0703 20.0132C88.9236 20.3759 89.8409 20.5572 90.8223 20.5572C91.4089 20.5572 91.9369 20.5252 92.4063 20.4612C92.8863 20.3972 93.3236 20.2959 93.7183 20.1572C94.1236 20.0186 94.5023 19.8426 94.8542 19.6292C95.2169 19.4052 95.5743 19.1332 95.9263 18.8132C96.0329 18.7172 96.1449 18.6426 96.2623 18.5892C96.3796 18.5252 96.5076 18.4932 96.6463 18.4932ZM107.059 23.9492H102.739V0.813217H107.059V23.9492ZM132.61 23.9492H129.282C128.908 23.9492 128.599 23.8586 128.354 23.6772C128.119 23.4852 127.948 23.2506 127.842 22.9732L126.114 18.2532H116.53L114.802 22.9732C114.716 23.2186 114.546 23.4426 114.29 23.6452C114.044 23.8479 113.74 23.9492 113.378 23.9492H110.034L119.122 0.813217H123.522L132.61 23.9492ZM117.634 15.2132H125.01L122.194 7.51722C122.066 7.17588 121.922 6.77589 121.762 6.31722C121.612 5.84789 121.463 5.34122 121.314 4.79722C121.164 5.34122 121.015 5.84789 120.866 6.31722C120.727 6.78655 120.588 7.19722 120.45 7.54922L117.634 15.2132ZM139.296 20.3972H148.56V23.9492H134.992V0.813217H139.296V20.3972ZM4.79963 53.8052V61.9492H0.495625V38.8132H8.03163C9.57829 38.8132 10.917 38.9946 12.0476 39.3572C13.1783 39.7199 14.1116 40.2266 14.8476 40.8772C15.5836 41.5279 16.1276 42.3066 16.4796 43.2132C16.8316 44.1199 17.0076 45.1119 17.0076 46.1892C17.0076 47.3092 16.821 48.3386 16.4476 49.2772C16.0743 50.2052 15.5143 51.0052 14.7676 51.6772C14.021 52.3492 13.0876 52.8719 11.9676 53.2452C10.8476 53.6186 9.53563 53.8052 8.03163 53.8052H4.79963ZM4.79963 50.4452H8.03163C8.82096 50.4452 9.50896 50.3492 10.0956 50.1572C10.6823 49.9546 11.1676 49.6719 11.5516 49.3092C11.9356 48.9359 12.2236 48.4879 12.4156 47.9652C12.6076 47.4319 12.7036 46.8399 12.7036 46.1892C12.7036 45.5706 12.6076 45.0106 12.4156 44.5092C12.2236 44.0079 11.9356 43.5812 11.5516 43.2292C11.1676 42.8772 10.6823 42.6106 10.0956 42.4292C9.50896 42.2372 8.82096 42.1412 8.03163 42.1412H4.79963V50.4452ZM38.2189 61.9492H34.8909C34.5175 61.9492 34.2082 61.8586 33.9629 61.6772C33.7282 61.4852 33.5575 61.2506 33.4509 60.9732L31.7229 56.2532H22.1389L20.4109 60.9732C20.3255 61.2186 20.1549 61.4426 19.8989 61.6452C19.6535 61.8479 19.3495 61.9492 18.9869 61.9492H15.6429L24.7309 38.8132H29.1309L38.2189 61.9492ZM23.2429 53.2132H30.6189L27.8029 45.5172C27.6749 45.1759 27.5309 44.7759 27.3709 44.3172C27.2215 43.8479 27.0722 43.3412 26.9229 42.7972C26.7735 43.3412 26.6242 43.8479 26.4749 44.3172C26.3362 44.7866 26.1975 45.1972 26.0589 45.5492L23.2429 53.2132ZM45.0496 52.9092V61.9492H40.7456V38.8132H47.8016C49.3803 38.8132 50.7296 38.9786 51.8496 39.3092C52.9803 39.6292 53.903 40.0826 54.6176 40.6692C55.343 41.2559 55.871 41.9599 56.2016 42.7812C56.543 43.5919 56.7136 44.4879 56.7136 45.4692C56.7136 46.2479 56.5963 46.9839 56.3616 47.6772C56.1376 48.3706 55.807 48.9999 55.3696 49.5652C54.943 50.1306 54.4096 50.6266 53.7696 51.0532C53.1403 51.4799 52.4203 51.8212 51.6096 52.0772C52.1536 52.3866 52.623 52.8292 53.0176 53.4052L58.8096 61.9492H54.9376C54.5643 61.9492 54.2443 61.8746 53.9776 61.7252C53.7216 61.5759 53.503 61.3626 53.3216 61.0852L48.4576 53.6772C48.2763 53.3999 48.0736 53.2026 47.8496 53.0852C47.6363 52.9679 47.3163 52.9092 46.8896 52.9092H45.0496ZM45.0496 49.8212H47.7376C48.5483 49.8212 49.2523 49.7199 49.8496 49.5172C50.4576 49.3146 50.9536 49.0372 51.3376 48.6852C51.7323 48.3226 52.0256 47.8959 52.2176 47.4052C52.4096 46.9146 52.5056 46.3759 52.5056 45.7892C52.5056 44.6159 52.1163 43.7146 51.3376 43.0852C50.5696 42.4559 49.391 42.1412 47.8016 42.1412H45.0496V49.8212ZM76.9681 38.8132V42.3492H70.0081V61.9492H65.7041V42.3492H58.7121V38.8132H76.9681ZM81.9514 38.8132C82.1434 38.8132 82.3034 38.8239 82.4314 38.8452C82.5594 38.8559 82.6714 38.8879 82.7674 38.9412C82.874 38.9839 82.9754 39.0532 83.0714 39.1492C83.1674 39.2346 83.274 39.3519 83.3914 39.5012L95.5354 54.9732C95.4927 54.5999 95.4607 54.2372 95.4394 53.8852C95.4287 53.5226 95.4234 53.1866 95.4234 52.8772V38.8132H99.2154V61.9492H96.9914C96.65 61.9492 96.3674 61.8959 96.1434 61.7892C95.9194 61.6826 95.7007 61.4906 95.4874 61.2132L83.3914 45.8052C83.4234 46.1466 83.4447 46.4879 83.4554 46.8292C83.4767 47.1599 83.4874 47.4639 83.4874 47.7412V61.9492H79.6954V38.8132H81.9514ZM118.475 38.8132V42.2372H108.219V48.6532H116.299V51.9652H108.219V58.5092H118.475V61.9492H103.883V38.8132H118.475ZM126.643 52.9092V61.9492H122.339V38.8132H129.395C130.974 38.8132 132.323 38.9786 133.443 39.3092C134.574 39.6292 135.497 40.0826 136.211 40.6692C136.937 41.2559 137.465 41.9599 137.795 42.7812C138.137 43.5919 138.307 44.4879 138.307 45.4692C138.307 46.2479 138.19 46.9839 137.955 47.6772C137.731 48.3706 137.401 48.9999 136.963 49.5652C136.537 50.1306 136.003 50.6266 135.363 51.0532C134.734 51.4799 134.014 51.8212 133.203 52.0772C133.747 52.3866 134.217 52.8292 134.611 53.4052L140.403 61.9492H136.531C136.158 61.9492 135.838 61.8746 135.571 61.7252C135.315 61.5759 135.097 61.3626 134.915 61.0852L130.051 53.6772C129.87 53.3999 129.667 53.2026 129.443 53.0852C129.23 52.9679 128.91 52.9092 128.483 52.9092H126.643ZM126.643 49.8212H129.331C130.142 49.8212 130.846 49.7199 131.443 49.5172C132.051 49.3146 132.547 49.0372 132.931 48.6852C133.326 48.3226 133.619 47.8959 133.811 47.4052C134.003 46.9146 134.099 46.3759 134.099 45.7892C134.099 44.6159 133.71 43.7146 132.931 43.0852C132.163 42.4559 130.985 42.1412 129.395 42.1412H126.643V49.8212ZM155.564 43.0212C155.447 43.2559 155.308 43.4212 155.148 43.5172C154.999 43.6132 154.817 43.6612 154.604 43.6612C154.391 43.6612 154.151 43.5812 153.884 43.4212C153.617 43.2506 153.303 43.0639 152.94 42.8612C152.577 42.6586 152.151 42.4772 151.66 42.3172C151.18 42.1466 150.609 42.0612 149.948 42.0612C149.351 42.0612 148.828 42.1359 148.38 42.2852C147.943 42.4239 147.569 42.6212 147.26 42.8772C146.961 43.1332 146.737 43.4426 146.588 43.8052C146.439 44.1572 146.364 44.5466 146.364 44.9732C146.364 45.5172 146.513 45.9706 146.812 46.3332C147.121 46.6959 147.527 47.0052 148.028 47.2612C148.529 47.5172 149.1 47.7466 149.74 47.9492C150.38 48.1519 151.031 48.3706 151.692 48.6052C152.364 48.8292 153.02 49.0959 153.66 49.4052C154.3 49.7039 154.871 50.0879 155.372 50.5572C155.873 51.0159 156.273 51.5812 156.572 52.2532C156.881 52.9252 157.036 53.7412 157.036 54.7012C157.036 55.7466 156.855 56.7279 156.492 57.6452C156.14 58.5519 155.617 59.3466 154.924 60.0292C154.241 60.7012 153.404 61.2346 152.412 61.6292C151.42 62.0132 150.284 62.2052 149.004 62.2052C148.268 62.2052 147.543 62.1306 146.828 61.9812C146.113 61.8426 145.425 61.6399 144.764 61.3732C144.113 61.1066 143.5 60.7866 142.924 60.4132C142.359 60.0399 141.852 59.6239 141.404 59.1652L142.652 57.1012C142.769 56.9519 142.908 56.8292 143.068 56.7332C143.239 56.6266 143.425 56.5732 143.628 56.5732C143.895 56.5732 144.183 56.6852 144.492 56.9092C144.801 57.1226 145.164 57.3626 145.58 57.6292C146.007 57.8959 146.503 58.1412 147.068 58.3652C147.644 58.5786 148.332 58.6852 149.132 58.6852C150.359 58.6852 151.308 58.3972 151.98 57.8212C152.652 57.2346 152.988 56.3972 152.988 55.3092C152.988 54.7012 152.833 54.2052 152.524 53.8212C152.225 53.4372 151.825 53.1172 151.324 52.8612C150.823 52.5946 150.252 52.3706 149.612 52.1892C148.972 52.0079 148.321 51.8106 147.66 51.5972C146.999 51.3839 146.348 51.1279 145.708 50.8292C145.068 50.5306 144.497 50.1412 143.996 49.6612C143.495 49.1812 143.089 48.5839 142.78 47.8692C142.481 47.1439 142.332 46.2532 142.332 45.1972C142.332 44.3546 142.497 43.5332 142.828 42.7332C143.169 41.9332 143.66 41.2239 144.3 40.6052C144.951 39.9866 145.745 39.4906 146.684 39.1172C147.623 38.7439 148.695 38.5572 149.9 38.5572C151.265 38.5572 152.524 38.7706 153.676 39.1972C154.828 39.6239 155.809 40.2212 156.62 40.9892L155.564 43.0212Z" fill="#A67F56"/>
<path d="M31.3405 12.3812C31.3405 14.0772 31.0578 15.6506 30.4925 17.1012C29.9272 18.5412 29.1325 19.7892 28.1085 20.8452C27.0845 21.9012 25.8525 22.7279 24.4125 23.3252C22.9725 23.9119 21.3778 24.2052 19.6285 24.2052C17.8792 24.2052 16.2792 23.9119 14.8285 23.3252C13.3885 22.7279 12.1512 21.9012 11.1165 20.8452C10.0925 19.7892 9.29783 18.5412 8.7325 17.1012C8.16717 15.6506 7.8845 14.0772 7.8845 12.3812C7.8845 10.6852 8.16717 9.11722 8.7325 7.67722C9.29783 6.22655 10.0925 4.97322 11.1165 3.91722C12.1512 2.86122 13.3885 2.03988 14.8285 1.45322C16.2792 0.855885 17.8792 0.557219 19.6285 0.557219C21.3778 0.557219 22.9725 0.855885 24.4125 1.45322C25.8525 2.05055 27.0845 2.87722 28.1085 3.93322C29.1325 4.97855 29.9272 6.22655 30.4925 7.67722C31.0578 9.11722 31.3405 10.6852 31.3405 12.3812ZM26.9245 12.3812C26.9245 11.1119 26.7538 9.97588 26.4125 8.97322C26.0818 7.95988 25.6018 7.10122 24.9725 6.39722C24.3432 5.69322 23.5752 5.15455 22.6685 4.78122C21.7725 4.40788 20.7592 4.22122 19.6285 4.22122C18.4978 4.22122 17.4792 4.40788 16.5725 4.78122C15.6658 5.15455 14.8925 5.69322 14.2525 6.39722C13.6232 7.10122 13.1378 7.95988 12.7965 8.97322C12.4552 9.97588 12.2845 11.1119 12.2845 12.3812C12.2845 13.6506 12.4552 14.7919 12.7965 15.8052C13.1378 16.8079 13.6232 17.6612 14.2525 18.3652C14.8925 19.0586 15.6658 19.5919 16.5725 19.9652C17.4792 20.3386 18.4978 20.5252 19.6285 20.5252C20.7592 20.5252 21.7725 20.3386 22.6685 19.9652C23.5752 19.5919 24.3432 19.0586 24.9725 18.3652C25.6018 17.6612 26.0818 16.8079 26.4125 15.8052C26.7538 14.7919 26.9245 13.6506 26.9245 12.3812ZM49.3343 0.813217V4.23722H39.0783V11.0852H47.7343V14.5252H39.0783V23.9492H34.7423V0.813217H49.3343ZM67.303 0.813217V4.23722H57.047V11.0852H65.703V14.5252H57.047V23.9492H52.711V0.813217H67.303ZM75.5278 23.9492H71.2078V0.813217H75.5278V23.9492ZM96.6463 18.4932C96.8809 18.4932 97.0836 18.5839 97.2543 18.7652L98.9503 20.6052C98.0116 21.7679 96.8543 22.6586 95.4783 23.2772C94.1129 23.8959 92.4703 24.2052 90.5503 24.2052C88.8329 24.2052 87.2863 23.9119 85.9103 23.3252C84.5449 22.7386 83.3769 21.9226 82.4062 20.8772C81.4356 19.8319 80.6889 18.5839 80.1663 17.1332C79.6543 15.6826 79.3983 14.0986 79.3983 12.3812C79.3983 10.6426 79.6863 9.05322 80.2623 7.61322C80.8383 6.16255 81.6489 4.91455 82.6943 3.86922C83.7396 2.82388 84.9876 2.01322 86.4383 1.43722C87.8996 0.850552 89.5103 0.557219 91.2703 0.557219C92.9876 0.557219 94.4863 0.834551 95.7663 1.38922C97.0569 1.93322 98.1609 2.65855 99.0783 3.56522L97.6383 5.56522C97.5529 5.69322 97.4409 5.80522 97.3023 5.90122C97.1743 5.99722 96.9929 6.04522 96.7583 6.04522C96.5129 6.04522 96.2623 5.94922 96.0063 5.75722C95.7503 5.56522 95.4249 5.35722 95.0303 5.13322C94.6356 4.90922 94.1343 4.70122 93.5263 4.50922C92.9289 4.31722 92.1663 4.22122 91.2383 4.22122C90.1503 4.22122 89.1476 4.41322 88.2303 4.79722C87.3236 5.17055 86.5396 5.70922 85.8783 6.41322C85.2276 7.11722 84.7156 7.97588 84.3423 8.98922C83.9796 9.99188 83.7983 11.1226 83.7983 12.3812C83.7983 13.6826 83.9796 14.8399 84.3423 15.8532C84.7156 16.8666 85.2169 17.7199 85.8463 18.4132C86.4756 19.1066 87.2169 19.6399 88.0703 20.0132C88.9236 20.3759 89.8409 20.5572 90.8223 20.5572C91.4089 20.5572 91.9369 20.5252 92.4063 20.4612C92.8863 20.3972 93.3236 20.2959 93.7183 20.1572C94.1236 20.0186 94.5023 19.8426 94.8542 19.6292C95.2169 19.4052 95.5743 19.1332 95.9263 18.8132C96.0329 18.7172 96.1449 18.6426 96.2623 18.5892C96.3796 18.5252 96.5076 18.4932 96.6463 18.4932ZM107.059 23.9492H102.739V0.813217H107.059V23.9492ZM132.61 23.9492H129.282C128.908 23.9492 128.599 23.8586 128.354 23.6772C128.119 23.4852 127.948 23.2506 127.842 22.9732L126.114 18.2532H116.53L114.802 22.9732C114.716 23.2186 114.546 23.4426 114.29 23.6452C114.044 23.8479 113.74 23.9492 113.378 23.9492H110.034L119.122 0.813217H123.522L132.61 23.9492ZM117.634 15.2132H125.01L122.194 7.51722C122.066 7.17588 121.922 6.77589 121.762 6.31722C121.612 5.84789 121.463 5.34122 121.314 4.79722C121.164 5.34122 121.015 5.84789 120.866 6.31722C120.727 6.78655 120.588 7.19722 120.45 7.54922L117.634 15.2132ZM139.296 20.3972H148.56V23.9492H134.992V0.813217H139.296V20.3972ZM4.79963 53.8052V61.9492H0.495625V38.8132H8.03163C9.57829 38.8132 10.917 38.9946 12.0476 39.3572C13.1783 39.7199 14.1116 40.2266 14.8476 40.8772C15.5836 41.5279 16.1276 42.3066 16.4796 43.2132C16.8316 44.1199 17.0076 45.1119 17.0076 46.1892C17.0076 47.3092 16.821 48.3386 16.4476 49.2772C16.0743 50.2052 15.5143 51.0052 14.7676 51.6772C14.021 52.3492 13.0876 52.8719 11.9676 53.2452C10.8476 53.6186 9.53563 53.8052 8.03163 53.8052H4.79963ZM4.79963 50.4452H8.03163C8.82096 50.4452 9.50896 50.3492 10.0956 50.1572C10.6823 49.9546 11.1676 49.6719 11.5516 49.3092C11.9356 48.9359 12.2236 48.4879 12.4156 47.9652C12.6076 47.4319 12.7036 46.8399 12.7036 46.1892C12.7036 45.5706 12.6076 45.0106 12.4156 44.5092C12.2236 44.0079 11.9356 43.5812 11.5516 43.2292C11.1676 42.8772 10.6823 42.6106 10.0956 42.4292C9.50896 42.2372 8.82096 42.1412 8.03163 42.1412H4.79963V50.4452ZM38.2189 61.9492H34.8909C34.5175 61.9492 34.2082 61.8586 33.9629 61.6772C33.7282 61.4852 33.5575 61.2506 33.4509 60.9732L31.7229 56.2532H22.1389L20.4109 60.9732C20.3255 61.2186 20.1549 61.4426 19.8989 61.6452C19.6535 61.8479 19.3495 61.9492 18.9869 61.9492H15.6429L24.7309 38.8132H29.1309L38.2189 61.9492ZM23.2429 53.2132H30.6189L27.8029 45.5172C27.6749 45.1759 27.5309 44.7759 27.3709 44.3172C27.2215 43.8479 27.0722 43.3412 26.9229 42.7972C26.7735 43.3412 26.6242 43.8479 26.4749 44.3172C26.3362 44.7866 26.1975 45.1972 26.0589 45.5492L23.2429 53.2132ZM45.0496 52.9092V61.9492H40.7456V38.8132H47.8016C49.3803 38.8132 50.7296 38.9786 51.8496 39.3092C52.9803 39.6292 53.903 40.0826 54.6176 40.6692C55.343 41.2559 55.871 41.9599 56.2016 42.7812C56.543 43.5919 56.7136 44.4879 56.7136 45.4692C56.7136 46.2479 56.5963 46.9839 56.3616 47.6772C56.1376 48.3706 55.807 48.9999 55.3696 49.5652C54.943 50.1306 54.4096 50.6266 53.7696 51.0532C53.1403 51.4799 52.4203 51.8212 51.6096 52.0772C52.1536 52.3866 52.623 52.8292 53.0176 53.4052L58.8096 61.9492H54.9376C54.5643 61.9492 54.2443 61.8746 53.9776 61.7252C53.7216 61.5759 53.503 61.3626 53.3216 61.0852L48.4576 53.6772C48.2763 53.3999 48.0736 53.2026 47.8496 53.0852C47.6363 52.9679 47.3163 52.9092 46.8896 52.9092H45.0496ZM45.0496 49.8212H47.7376C48.5483 49.8212 49.2523 49.7199 49.8496 49.5172C50.4576 49.3146 50.9536 49.0372 51.3376 48.6852C51.7323 48.3226 52.0256 47.8959 52.2176 47.4052C52.4096 46.9146 52.5056 46.3759 52.5056 45.7892C52.5056 44.6159 52.1163 43.7146 51.3376 43.0852C50.5696 42.4559 49.391 42.1412 47.8016 42.1412H45.0496V49.8212ZM76.9681 38.8132V42.3492H70.0081V61.9492H65.7041V42.3492H58.7121V38.8132H76.9681ZM81.9514 38.8132C82.1434 38.8132 82.3034 38.8239 82.4314 38.8452C82.5594 38.8559 82.6714 38.8879 82.7674 38.9412C82.874 38.9839 82.9754 39.0532 83.0714 39.1492C83.1674 39.2346 83.274 39.3519 83.3914 39.5012L95.5354 54.9732C95.4927 54.5999 95.4607 54.2372 95.4394 53.8852C95.4287 53.5226 95.4234 53.1866 95.4234 52.8772V38.8132H99.2154V61.9492H96.9914C96.65 61.9492 96.3674 61.8959 96.1434 61.7892C95.9194 61.6826 95.7007 61.4906 95.4874 61.2132L83.3914 45.8052C83.4234 46.1466 83.4447 46.4879 83.4554 46.8292C83.4767 47.1599 83.4874 47.4639 83.4874 47.7412V61.9492H79.6954V38.8132H81.9514ZM118.475 38.8132V42.2372H108.219V48.6532H116.299V51.9652H108.219V58.5092H118.475V61.9492H103.883V38.8132H118.475ZM126.643 52.9092V61.9492H122.339V38.8132H129.395C130.974 38.8132 132.323 38.9786 133.443 39.3092C134.574 39.6292 135.497 40.0826 136.211 40.6692C136.937 41.2559 137.465 41.9599 137.795 42.7812C138.137 43.5919 138.307 44.4879 138.307 45.4692C138.307 46.2479 138.19 46.9839 137.955 47.6772C137.731 48.3706 137.401 48.9999 136.963 49.5652C136.537 50.1306 136.003 50.6266 135.363 51.0532C134.734 51.4799 134.014 51.8212 133.203 52.0772C133.747 52.3866 134.217 52.8292 134.611 53.4052L140.403 61.9492H136.531C136.158 61.9492 135.838 61.8746 135.571 61.7252C135.315 61.5759 135.097 61.3626 134.915 61.0852L130.051 53.6772C129.87 53.3999 129.667 53.2026 129.443 53.0852C129.23 52.9679 128.91 52.9092 128.483 52.9092H126.643ZM126.643 49.8212H129.331C130.142 49.8212 130.846 49.7199 131.443 49.5172C132.051 49.3146 132.547 49.0372 132.931 48.6852C133.326 48.3226 133.619 47.8959 133.811 47.4052C134.003 46.9146 134.099 46.3759 134.099 45.7892C134.099 44.6159 133.71 43.7146 132.931 43.0852C132.163 42.4559 130.985 42.1412 129.395 42.1412H126.643V49.8212ZM155.564 43.0212C155.447 43.2559 155.308 43.4212 155.148 43.5172C154.999 43.6132 154.817 43.6612 154.604 43.6612C154.391 43.6612 154.151 43.5812 153.884 43.4212C153.617 43.2506 153.303 43.0639 152.94 42.8612C152.577 42.6586 152.151 42.4772 151.66 42.3172C151.18 42.1466 150.609 42.0612 149.948 42.0612C149.351 42.0612 148.828 42.1359 148.38 42.2852C147.943 42.4239 147.569 42.6212 147.26 42.8772C146.961 43.1332 146.737 43.4426 146.588 43.8052C146.439 44.1572 146.364 44.5466 146.364 44.9732C146.364 45.5172 146.513 45.9706 146.812 46.3332C147.121 46.6959 147.527 47.0052 148.028 47.2612C148.529 47.5172 149.1 47.7466 149.74 47.9492C150.38 48.1519 151.031 48.3706 151.692 48.6052C152.364 48.8292 153.02 49.0959 153.66 49.4052C154.3 49.7039 154.871 50.0879 155.372 50.5572C155.873 51.0159 156.273 51.5812 156.572 52.2532C156.881 52.9252 157.036 53.7412 157.036 54.7012C157.036 55.7466 156.855 56.7279 156.492 57.6452C156.14 58.5519 155.617 59.3466 154.924 60.0292C154.241 60.7012 153.404 61.2346 152.412 61.6292C151.42 62.0132 150.284 62.2052 149.004 62.2052C148.268 62.2052 147.543 62.1306 146.828 61.9812C146.113 61.8426 145.425 61.6399 144.764 61.3732C144.113 61.1066 143.5 60.7866 142.924 60.4132C142.359 60.0399 141.852 59.6239 141.404 59.1652L142.652 57.1012C142.769 56.9519 142.908 56.8292 143.068 56.7332C143.239 56.6266 143.425 56.5732 143.628 56.5732C143.895 56.5732 144.183 56.6852 144.492 56.9092C144.801 57.1226 145.164 57.3626 145.58 57.6292C146.007 57.8959 146.503 58.1412 147.068 58.3652C147.644 58.5786 148.332 58.6852 149.132 58.6852C150.359 58.6852 151.308 58.3972 151.98 57.8212C152.652 57.2346 152.988 56.3972 152.988 55.3092C152.988 54.7012 152.833 54.2052 152.524 53.8212C152.225 53.4372 151.825 53.1172 151.324 52.8612C150.823 52.5946 150.252 52.3706 149.612 52.1892C148.972 52.0079 148.321 51.8106 147.66 51.5972C146.999 51.3839 146.348 51.1279 145.708 50.8292C145.068 50.5306 144.497 50.1412 143.996 49.6612C143.495 49.1812 143.089 48.5839 142.78 47.8692C142.481 47.1439 142.332 46.2532 142.332 45.1972C142.332 44.3546 142.497 43.5332 142.828 42.7332C143.169 41.9332 143.66 41.2239 144.3 40.6052C144.951 39.9866 145.745 39.4906 146.684 39.1172C147.623 38.7439 148.695 38.5572 149.9 38.5572C151.265 38.5572 152.524 38.7706 153.676 39.1972C154.828 39.6239 155.809 40.2212 156.62 40.9892L155.564 43.0212Z" fill="#16203C"/>
</svg>
