<svg width="138" height="177" viewBox="0 0 138 177" fill="none" xmlns="http://www.w3.org/2000/svg">
<path d="M66.4237 0L57.9684 21.0367L114.794 155.608L115.004 156.175C116.709 160.718 119.745 164.631 123.711 167.394C127.676 170.156 132.381 171.637 137.201 171.639L66.4237 0Z" fill="url(#paint0_linear_8_101)"/>
<path d="M54.6153 28.6248L46.4626 50.3898L89.1595 155.607L89.3696 156.175C91.0732 160.719 94.1097 164.632 98.075 167.395C102.04 170.157 106.746 171.638 111.567 171.639L54.6153 28.6248Z" stroke="url(#paint1_linear_8_101)" stroke-width="0.5" stroke-miterlimit="10"/>
<path d="M43.0919 58.0458L34.687 79.0317L63.5579 155.624L63.768 156.192C65.4707 160.737 68.5069 164.651 72.4723 167.413C76.4378 170.176 81.1444 171.656 85.9654 171.656L43.0919 58.0458ZM19.2724 126.983L30.7535 96.376C31.5895 94.1495 31.5895 91.6919 30.7535 89.4654L0 171.656C0.715007 171.652 1.41214 171.43 2.00037 171.021C2.59048 170.602 3.03918 170.011 3.2863 169.327L18.4151 129.083H45.7479C45.5117 128.454 45.0907 127.913 44.541 127.531C43.9913 127.15 43.3391 126.947 42.6717 126.949L19.2724 126.983Z" fill="url(#paint2_linear_8_101)"/>
<defs>
<linearGradient id="paint0_linear_8_101" x1="57.9684" y1="85.8154" x2="137.201" y2="85.8154" gradientUnits="userSpaceOnUse">
<stop stop-color="#FAC47E"/>
<stop offset="1" stop-color="#A67F56"/>
</linearGradient>
<linearGradient id="paint1_linear_8_101" x1="46.244" y1="99.9414" x2="111.878" y2="99.9414" gradientUnits="userSpaceOnUse">
<stop stop-color="#FAC47E"/>
<stop offset="1" stop-color="#A67F56"/>
</linearGradient>
<linearGradient id="paint2_linear_8_101" x1="-0.00840491" y1="114.83" x2="85.9318" y2="114.83" gradientUnits="userSpaceOnUse">
<stop stop-color="#FAC47E"/>
<stop offset="1" stop-color="#A67F56"/>
</linearGradient>
</defs>
</svg>
