<svg width="151" height="195" viewBox="0 0 151 195" fill="none" xmlns="http://www.w3.org/2000/svg">
<path d="M72.7267 0L63.4691 23.775L125.687 175.862L125.917 176.504C127.783 181.638 131.108 186.061 135.449 189.183C139.791 192.304 144.943 193.978 150.221 193.981L72.7267 0Z" fill="white"/>
<path d="M59.7978 32.3508L50.8714 56.949L97.6199 175.862L97.8499 176.504C99.7152 181.639 103.04 186.062 107.381 189.184C111.723 192.306 116.875 193.979 122.154 193.981L59.7978 32.3508Z" stroke="white" stroke-width="0.5" stroke-miterlimit="10"/>
<path d="M47.1809 65.6016L37.9785 89.3192L69.589 175.882L69.819 176.523C71.6832 181.659 75.0075 186.083 79.3493 189.205C83.691 192.327 88.8442 194 94.1227 194L47.1809 65.6016ZM21.1012 143.512L33.6717 108.921C34.5871 106.405 34.5871 103.627 33.6717 101.111L0 194C0.782854 193.995 1.54614 193.745 2.19019 193.282C2.83629 192.809 3.32757 192.141 3.59813 191.368L20.1626 145.885H50.089C49.8304 145.175 49.3694 144.563 48.7675 144.132C48.1656 143.701 47.4516 143.471 46.7208 143.473L21.1012 143.512Z" fill="white"/>
</svg>
