<svg width="375" height="294" viewBox="0 0 375 294" fill="none" xmlns="http://www.w3.org/2000/svg">
<rect width="375" height="293" transform="translate(0 0.949219)" fill="url(#paint0_linear_2580_25118)"/>
<path d="M66.3765 39.9492H65.4405C65.3355 39.9492 65.2485 39.9237 65.1795 39.8727C65.1135 39.8187 65.0655 39.7527 65.0355 39.6747L64.5495 38.3472H61.854L61.368 39.6747C61.344 39.7437 61.296 39.8067 61.224 39.8637C61.155 39.9207 61.0695 39.9492 60.9675 39.9492H60.027L62.583 33.4422H63.8205L66.3765 39.9492ZM62.1645 37.4922H64.239L63.447 35.3277C63.411 35.2317 63.3705 35.1192 63.3255 34.9902C63.2835 34.8582 63.2415 34.7157 63.1995 34.5627C63.1575 34.7157 63.1155 34.8582 63.0735 34.9902C63.0345 35.1222 62.9955 35.2377 62.9565 35.3367L62.1645 37.4922ZM69.4283 38.9727C69.6623 38.9727 69.8708 38.9337 70.0538 38.8557C70.2398 38.7777 70.3958 38.6682 70.5218 38.5272C70.6508 38.3862 70.7483 38.2152 70.8143 38.0142C70.8833 37.8132 70.9178 37.5882 70.9178 37.3392V33.4422H72.1283V37.3392C72.1283 37.7262 72.0653 38.0847 71.9393 38.4147C71.8163 38.7417 71.6378 39.0252 71.4038 39.2652C71.1698 39.5022 70.8863 39.6882 70.5533 39.8232C70.2203 39.9552 69.8453 40.0212 69.4283 40.0212C69.0113 40.0212 68.6363 39.9552 68.3033 39.8232C67.9703 39.6882 67.6868 39.5022 67.4528 39.2652C67.2218 39.0252 67.0433 38.7417 66.9173 38.4147C66.7943 38.0847 66.7328 37.7262 66.7328 37.3392V33.4422H67.9433V37.3347C67.9433 37.5837 67.9763 37.8087 68.0423 38.0097C68.1113 38.2107 68.2088 38.3832 68.3348 38.5272C68.4608 38.6682 68.6153 38.7777 68.7983 38.8557C68.9843 38.9337 69.1943 38.9727 69.4283 38.9727ZM76.3452 39.0582C76.6182 39.0582 76.8552 39.0342 77.0562 38.9862C77.2602 38.9352 77.4537 38.8662 77.6367 38.7792V37.5957H76.8222C76.7442 37.5957 76.6827 37.5747 76.6377 37.5327C76.5927 37.4877 76.5702 37.4337 76.5702 37.3707V36.6867H78.7347V39.3192C78.5697 39.4392 78.3972 39.5442 78.2172 39.6342C78.0402 39.7212 77.8497 39.7932 77.6457 39.8502C77.4447 39.9072 77.2287 39.9492 76.9977 39.9762C76.7667 40.0062 76.5177 40.0212 76.2507 40.0212C75.7767 40.0212 75.3402 39.9387 74.9412 39.7737C74.5422 39.6087 74.1972 39.3792 73.9062 39.0852C73.6152 38.7912 73.3872 38.4402 73.2222 38.0322C73.0602 37.6242 72.9792 37.1787 72.9792 36.6957C72.9792 36.2067 73.0587 35.7582 73.2177 35.3502C73.3767 34.9422 73.6017 34.5912 73.8927 34.2972C74.1867 34.0032 74.5422 33.7752 74.9592 33.6132C75.3762 33.4512 75.8442 33.3702 76.3632 33.3702C76.8942 33.3702 77.3532 33.4497 77.7402 33.6087C78.1302 33.7647 78.4602 33.9687 78.7302 34.2207L78.3792 34.7697C78.3102 34.8807 78.2187 34.9362 78.1047 34.9362C78.0327 34.9362 77.9592 34.9122 77.8842 34.8642C77.7882 34.8072 77.6892 34.7502 77.5872 34.6932C77.4882 34.6362 77.3772 34.5867 77.2542 34.5447C77.1342 34.5027 76.9977 34.4682 76.8447 34.4412C76.6947 34.4142 76.5207 34.4007 76.3227 34.4007C76.0017 34.4007 75.7107 34.4547 75.4497 34.5627C75.1917 34.6707 74.9712 34.8252 74.7882 35.0262C74.6052 35.2272 74.4642 35.4687 74.3652 35.7507C74.2662 36.0327 74.2167 36.3477 74.2167 36.6957C74.2167 37.0707 74.2692 37.4052 74.3742 37.6992C74.4792 37.9902 74.6262 38.2362 74.8152 38.4372C75.0042 38.6382 75.2292 38.7927 75.4902 38.9007C75.7512 39.0057 76.0362 39.0582 76.3452 39.0582ZM82.4801 38.9727C82.7141 38.9727 82.9226 38.9337 83.1056 38.8557C83.2916 38.7777 83.4476 38.6682 83.5736 38.5272C83.7026 38.3862 83.8001 38.2152 83.8661 38.0142C83.9351 37.8132 83.9696 37.5882 83.9696 37.3392V33.4422H85.1801V37.3392C85.1801 37.7262 85.1171 38.0847 84.9911 38.4147C84.8681 38.7417 84.6896 39.0252 84.4556 39.2652C84.2216 39.5022 83.9381 39.6882 83.6051 39.8232C83.2721 39.9552 82.8971 40.0212 82.4801 40.0212C82.0631 40.0212 81.6881 39.9552 81.3551 39.8232C81.0221 39.6882 80.7386 39.5022 80.5046 39.2652C80.2736 39.0252 80.0951 38.7417 79.9691 38.4147C79.8461 38.0847 79.7846 37.7262 79.7846 37.3392V33.4422H80.9951V37.3347C80.9951 37.5837 81.0281 37.8087 81.0941 38.0097C81.1631 38.2107 81.2606 38.3832 81.3866 38.5272C81.5126 38.6682 81.6671 38.7777 81.8501 38.8557C82.0361 38.9337 82.2461 38.9727 82.4801 38.9727ZM89.8965 34.6257C89.8635 34.6917 89.8245 34.7382 89.7795 34.7652C89.7375 34.7922 89.6865 34.8057 89.6265 34.8057C89.5665 34.8057 89.499 34.7832 89.424 34.7382C89.349 34.6902 89.2605 34.6377 89.1585 34.5807C89.0565 34.5237 88.9365 34.4727 88.7985 34.4277C88.6635 34.3797 88.503 34.3557 88.317 34.3557C88.149 34.3557 88.002 34.3767 87.876 34.4187C87.753 34.4577 87.648 34.5132 87.561 34.5852C87.477 34.6572 87.414 34.7442 87.372 34.8462C87.33 34.9452 87.309 35.0547 87.309 35.1747C87.309 35.3277 87.351 35.4552 87.435 35.5572C87.522 35.6592 87.636 35.7462 87.777 35.8182C87.918 35.8902 88.0785 35.9547 88.2585 36.0117C88.4385 36.0687 88.6215 36.1302 88.8075 36.1962C88.9965 36.2592 89.181 36.3342 89.361 36.4212C89.541 36.5052 89.7015 36.6132 89.8425 36.7452C89.9835 36.8742 90.096 37.0332 90.18 37.2222C90.267 37.4112 90.3105 37.6407 90.3105 37.9107C90.3105 38.2047 90.2595 38.4807 90.1575 38.7387C90.0585 38.9937 89.9115 39.2172 89.7165 39.4092C89.5245 39.5982 89.289 39.7482 89.01 39.8592C88.731 39.9672 88.4115 40.0212 88.0515 40.0212C87.8445 40.0212 87.6405 40.0002 87.4395 39.9582C87.2385 39.9192 87.045 39.8622 86.859 39.7872C86.676 39.7122 86.5035 39.6222 86.3415 39.5172C86.1825 39.4122 86.04 39.2952 85.914 39.1662L86.265 38.5857C86.298 38.5437 86.337 38.5092 86.382 38.4822C86.43 38.4522 86.4825 38.4372 86.5395 38.4372C86.6145 38.4372 86.6955 38.4687 86.7825 38.5317C86.8695 38.5917 86.9715 38.6592 87.0885 38.7342C87.2085 38.8092 87.348 38.8782 87.507 38.9412C87.669 39.0012 87.8625 39.0312 88.0875 39.0312C88.4325 39.0312 88.6995 38.9502 88.8885 38.7882C89.0775 38.6232 89.172 38.3877 89.172 38.0817C89.172 37.9107 89.1285 37.7712 89.0415 37.6632C88.9575 37.5552 88.845 37.4652 88.704 37.3932C88.563 37.3182 88.4025 37.2552 88.2225 37.2042C88.0425 37.1532 87.8595 37.0977 87.6735 37.0377C87.4875 36.9777 87.3045 36.9057 87.1245 36.8217C86.9445 36.7377 86.784 36.6282 86.643 36.4932C86.502 36.3582 86.388 36.1902 86.301 35.9892C86.217 35.7852 86.175 35.5347 86.175 35.2377C86.175 35.0007 86.2215 34.7697 86.3145 34.5447C86.4105 34.3197 86.5485 34.1202 86.7285 33.9462C86.9115 33.7722 87.135 33.6327 87.399 33.5277C87.663 33.4227 87.9645 33.3702 88.3035 33.3702C88.6875 33.3702 89.0415 33.4302 89.3655 33.5502C89.6895 33.6702 89.9655 33.8382 90.1935 34.0542L89.8965 34.6257ZM95.8196 33.4422V34.4367H93.8621V39.9492H92.6516V34.4367H90.6851V33.4422H95.8196ZM100.379 33.3702C100.679 33.3702 100.953 33.4152 101.202 33.5052C101.451 33.5922 101.664 33.7167 101.841 33.8787C102.018 34.0407 102.156 34.2357 102.255 34.4637C102.354 34.6917 102.404 34.9452 102.404 35.2242C102.404 35.4642 102.368 35.6862 102.296 35.8902C102.227 36.0942 102.132 36.2892 102.012 36.4752C101.895 36.6612 101.757 36.8412 101.598 37.0152C101.439 37.1892 101.273 37.3662 101.099 37.5462L99.6319 39.0447C99.7759 39.0027 99.9169 38.9712 100.055 38.9502C100.193 38.9262 100.325 38.9142 100.451 38.9142H102.12C102.24 38.9142 102.335 38.9487 102.404 39.0177C102.476 39.0837 102.512 39.1722 102.512 39.2832V39.9492H98.0479V39.5802C98.0479 39.5052 98.0629 39.4272 98.0929 39.3462C98.1259 39.2652 98.1769 39.1902 98.2459 39.1212L100.221 37.1412C100.386 36.9732 100.533 36.8127 100.662 36.6597C100.794 36.5067 100.904 36.3552 100.991 36.2052C101.081 36.0552 101.148 35.9037 101.193 35.7507C101.241 35.5947 101.265 35.4312 101.265 35.2602C101.265 35.1042 101.243 34.9677 101.198 34.8507C101.153 34.7307 101.088 34.6302 101.004 34.5492C100.92 34.4682 100.82 34.4082 100.703 34.3692C100.589 34.3272 100.46 34.3062 100.316 34.3062C100.049 34.3062 99.8284 34.3737 99.6544 34.5087C99.4834 34.6437 99.3634 34.8252 99.2944 35.0532C99.2614 35.1672 99.2119 35.2497 99.1459 35.3007C99.0799 35.3487 98.9959 35.3727 98.8939 35.3727C98.8489 35.3727 98.7994 35.3682 98.7454 35.3592L98.1604 35.2557C98.2054 34.9437 98.2924 34.6707 98.4214 34.4367C98.5504 34.1997 98.7109 34.0032 98.9029 33.8472C99.0979 33.6882 99.3199 33.5697 99.5689 33.4917C99.8209 33.4107 100.091 33.3702 100.379 33.3702ZM107.886 36.6957C107.886 37.2627 107.824 37.7562 107.701 38.1762C107.581 38.5932 107.413 38.9382 107.197 39.2112C106.984 39.4842 106.731 39.6882 106.437 39.8232C106.146 39.9552 105.831 40.0212 105.492 40.0212C105.153 40.0212 104.838 39.9552 104.547 39.8232C104.259 39.6882 104.008 39.4842 103.795 39.2112C103.582 38.9382 103.416 38.5932 103.296 38.1762C103.176 37.7562 103.116 37.2627 103.116 36.6957C103.116 36.1257 103.176 35.6322 103.296 35.2152C103.416 34.7982 103.582 34.4532 103.795 34.1802C104.008 33.9072 104.259 33.7047 104.547 33.5727C104.838 33.4377 105.153 33.3702 105.492 33.3702C105.831 33.3702 106.146 33.4377 106.437 33.5727C106.731 33.7047 106.984 33.9072 107.197 34.1802C107.413 34.4532 107.581 34.7982 107.701 35.2152C107.824 35.6322 107.886 36.1257 107.886 36.6957ZM106.738 36.6957C106.738 36.2247 106.704 35.8347 106.635 35.5257C106.566 35.2167 106.473 34.9707 106.356 34.7877C106.242 34.6047 106.11 34.4772 105.96 34.4052C105.81 34.3302 105.654 34.2927 105.492 34.2927C105.333 34.2927 105.178 34.3302 105.028 34.4052C104.881 34.4772 104.751 34.6047 104.637 34.7877C104.523 34.9707 104.431 35.2167 104.362 35.5257C104.296 35.8347 104.263 36.2247 104.263 36.6957C104.263 37.1667 104.296 37.5567 104.362 37.8657C104.431 38.1747 104.523 38.4207 104.637 38.6037C104.751 38.7867 104.881 38.9157 105.028 38.9907C105.178 39.0627 105.333 39.0987 105.492 39.0987C105.654 39.0987 105.81 39.0627 105.96 38.9907C106.11 38.9157 106.242 38.7867 106.356 38.6037C106.473 38.4207 106.566 38.1747 106.635 37.8657C106.704 37.5567 106.738 37.1667 106.738 36.6957ZM110.82 33.3702C111.12 33.3702 111.395 33.4152 111.644 33.5052C111.893 33.5922 112.106 33.7167 112.283 33.8787C112.46 34.0407 112.598 34.2357 112.697 34.4637C112.796 34.6917 112.845 34.9452 112.845 35.2242C112.845 35.4642 112.809 35.6862 112.737 35.8902C112.668 36.0942 112.574 36.2892 112.454 36.4752C112.337 36.6612 112.199 36.8412 112.04 37.0152C111.881 37.1892 111.714 37.3662 111.54 37.5462L110.073 39.0447C110.217 39.0027 110.358 38.9712 110.496 38.9502C110.634 38.9262 110.766 38.9142 110.892 38.9142H112.562C112.682 38.9142 112.776 38.9487 112.845 39.0177C112.917 39.0837 112.953 39.1722 112.953 39.2832V39.9492H108.489V39.5802C108.489 39.5052 108.504 39.4272 108.534 39.3462C108.567 39.2652 108.618 39.1902 108.687 39.1212L110.663 37.1412C110.828 36.9732 110.975 36.8127 111.104 36.6597C111.236 36.5067 111.345 36.3552 111.432 36.2052C111.522 36.0552 111.59 35.9037 111.635 35.7507C111.683 35.5947 111.707 35.4312 111.707 35.2602C111.707 35.1042 111.684 34.9677 111.639 34.8507C111.594 34.7307 111.53 34.6302 111.446 34.5492C111.362 34.4682 111.261 34.4082 111.144 34.3692C111.03 34.3272 110.901 34.3062 110.757 34.3062C110.49 34.3062 110.27 34.3737 110.096 34.5087C109.925 34.6437 109.805 34.8252 109.736 35.0532C109.703 35.1672 109.653 35.2497 109.587 35.3007C109.521 35.3487 109.437 35.3727 109.335 35.3727C109.29 35.3727 109.241 35.3682 109.187 35.3592L108.602 35.2557C108.647 34.9437 108.734 34.6707 108.863 34.4367C108.992 34.1997 109.152 34.0032 109.344 33.8472C109.539 33.6882 109.761 33.5697 110.01 33.4917C110.262 33.4107 110.532 33.3702 110.82 33.3702ZM116.145 33.3702C116.445 33.3702 116.715 33.4137 116.955 33.5007C117.198 33.5847 117.405 33.7032 117.576 33.8562C117.747 34.0062 117.877 34.1832 117.967 34.3872C118.06 34.5912 118.107 34.8117 118.107 35.0487C118.107 35.2557 118.083 35.4387 118.035 35.5977C117.99 35.7537 117.922 35.8902 117.832 36.0072C117.745 36.1242 117.637 36.2232 117.508 36.3042C117.382 36.3852 117.238 36.4527 117.076 36.5067C117.466 36.6297 117.757 36.8172 117.949 37.0692C118.141 37.3212 118.237 37.6377 118.237 38.0187C118.237 38.3427 118.177 38.6292 118.057 38.8782C117.937 39.1272 117.775 39.3372 117.571 39.5082C117.367 39.6762 117.13 39.8037 116.86 39.8907C116.593 39.9777 116.31 40.0212 116.01 40.0212C115.683 40.0212 115.398 39.9837 115.155 39.9087C114.912 39.8337 114.7 39.7227 114.52 39.5757C114.34 39.4287 114.187 39.2487 114.061 39.0357C113.935 38.8227 113.827 38.5767 113.737 38.2977L114.228 38.0952C114.312 38.0592 114.397 38.0412 114.484 38.0412C114.562 38.0412 114.631 38.0577 114.691 38.0907C114.754 38.1237 114.802 38.1717 114.835 38.2347C114.889 38.3397 114.948 38.4432 115.011 38.5452C115.077 38.6472 115.155 38.7387 115.245 38.8197C115.335 38.8977 115.44 38.9622 115.56 39.0132C115.683 39.0612 115.828 39.0852 115.996 39.0852C116.185 39.0852 116.35 39.0552 116.491 38.9952C116.632 38.9322 116.749 38.8512 116.842 38.7522C116.938 38.6532 117.009 38.5437 117.054 38.4237C117.102 38.3007 117.126 38.1777 117.126 38.0547C117.126 37.8987 117.109 37.7577 117.076 37.6317C117.043 37.5027 116.974 37.3932 116.869 37.3032C116.764 37.2132 116.613 37.1427 116.415 37.0917C116.22 37.0407 115.957 37.0152 115.627 37.0152V36.2232C115.9 36.2202 116.127 36.1947 116.307 36.1467C116.487 36.0987 116.629 36.0327 116.734 35.9487C116.842 35.8617 116.917 35.7582 116.959 35.6382C117.001 35.5182 117.022 35.3862 117.022 35.2422C117.022 34.9332 116.938 34.7007 116.77 34.5447C116.602 34.3857 116.373 34.3062 116.082 34.3062C115.818 34.3062 115.599 34.3767 115.425 34.5177C115.251 34.6557 115.129 34.8342 115.06 35.0532C115.024 35.1672 114.975 35.2497 114.912 35.3007C114.849 35.3487 114.766 35.3727 114.664 35.3727C114.616 35.3727 114.565 35.3682 114.511 35.3592L113.926 35.2557C113.971 34.9437 114.058 34.6707 114.187 34.4367C114.316 34.1997 114.477 34.0032 114.669 33.8472C114.864 33.6882 115.086 33.5697 115.335 33.4917C115.587 33.4107 115.857 33.3702 116.145 33.3702Z" fill="#FAC47E"/>
<path d="M71.2875 52.5792C71.2875 53.3842 71.16 54.1242 70.905 54.7992C70.65 55.4692 70.29 56.0467 69.825 56.5317C69.36 57.0167 68.8 57.3942 68.145 57.6642C67.495 57.9292 66.775 58.0617 65.985 58.0617C65.195 58.0617 64.475 57.9292 63.825 57.6642C63.175 57.3942 62.6175 57.0167 62.1525 56.5317C61.6875 56.0467 61.3275 55.4692 61.0725 54.7992C60.8175 54.1242 60.69 53.3842 60.69 52.5792C60.69 51.7742 60.8175 51.0367 61.0725 50.3667C61.3275 49.6917 61.6875 49.1117 62.1525 48.6267C62.6175 48.1367 63.175 47.7567 63.825 47.4867C64.475 47.2167 65.195 47.0817 65.985 47.0817C66.775 47.0817 67.495 47.2167 68.145 47.4867C68.8 47.7567 69.36 48.1367 69.825 48.6267C70.29 49.1117 70.65 49.6917 70.905 50.3667C71.16 51.0367 71.2875 51.7742 71.2875 52.5792ZM69.795 52.5792C69.795 51.9192 69.705 51.3267 69.525 50.8017C69.345 50.2767 69.09 49.8342 68.76 49.4742C68.43 49.1092 68.03 48.8292 67.56 48.6342C67.09 48.4392 66.565 48.3417 65.985 48.3417C65.41 48.3417 64.8875 48.4392 64.4175 48.6342C63.9475 48.8292 63.545 49.1092 63.21 49.4742C62.88 49.8342 62.625 50.2767 62.445 50.8017C62.265 51.3267 62.175 51.9192 62.175 52.5792C62.175 53.2392 62.265 53.8317 62.445 54.3567C62.625 54.8767 62.88 55.3192 63.21 55.6842C63.545 56.0442 63.9475 56.3217 64.4175 56.5167C64.8875 56.7067 65.41 56.8017 65.985 56.8017C66.565 56.8017 67.09 56.7067 67.56 56.5167C68.03 56.3217 68.43 56.0442 68.76 55.6842C69.09 55.3192 69.345 54.8767 69.525 54.3567C69.705 53.8317 69.795 53.2392 69.795 52.5792ZM74.8703 53.9292V57.9492H73.4228V47.2017H76.5953C77.2753 47.2017 77.8653 47.2817 78.3653 47.4417C78.8703 47.5967 79.2878 47.8192 79.6178 48.1092C79.9478 48.3992 80.1928 48.7492 80.3528 49.1592C80.5178 49.5692 80.6003 50.0267 80.6003 50.5317C80.6003 51.0317 80.5128 51.4892 80.3378 51.9042C80.1628 52.3192 79.9053 52.6767 79.5653 52.9767C79.2303 53.2767 78.8128 53.5117 78.3128 53.6817C77.8128 53.8467 77.2403 53.9292 76.5953 53.9292H74.8703ZM74.8703 52.7742H76.5953C77.0103 52.7742 77.3753 52.7192 77.6903 52.6092C78.0103 52.4992 78.2778 52.3467 78.4928 52.1517C78.7078 51.9517 78.8703 51.7142 78.9803 51.4392C79.0903 51.1642 79.1453 50.8617 79.1453 50.5317C79.1453 49.8467 78.9328 49.3117 78.5078 48.9267C78.0878 48.5417 77.4503 48.3492 76.5953 48.3492H74.8703V52.7742ZM89.0652 47.2017V48.3867H83.9052V51.9567H88.0827V53.0967H83.9052V56.7642H89.0652V57.9492H82.4427V47.2017H89.0652ZM91.9085 47.2017C92.0385 47.2017 92.1335 47.2192 92.1935 47.2542C92.2585 47.2842 92.331 47.3492 92.411 47.4492L98.636 55.5492C98.621 55.4192 98.611 55.2942 98.606 55.1742C98.601 55.0492 98.5985 54.9292 98.5985 54.8142V47.2017H99.8735V57.9492H99.1385C99.0235 57.9492 98.926 57.9292 98.846 57.8892C98.771 57.8492 98.696 57.7817 98.621 57.6867L92.4035 49.5942C92.4135 49.7192 92.421 49.8417 92.426 49.9617C92.431 50.0817 92.4335 50.1917 92.4335 50.2917V57.9492H91.1585V47.2017H91.9085ZM112.019 47.2017V48.3867H106.859V52.1442H111.269V53.3292H106.859V57.9492H105.397V47.2017H112.019ZM123.875 52.5792C123.875 53.3842 123.748 54.1242 123.493 54.7992C123.238 55.4692 122.878 56.0467 122.413 56.5317C121.948 57.0167 121.388 57.3942 120.733 57.6642C120.083 57.9292 119.363 58.0617 118.573 58.0617C117.783 58.0617 117.063 57.9292 116.413 57.6642C115.763 57.3942 115.205 57.0167 114.74 56.5317C114.275 56.0467 113.915 55.4692 113.66 54.7992C113.405 54.1242 113.278 53.3842 113.278 52.5792C113.278 51.7742 113.405 51.0367 113.66 50.3667C113.915 49.6917 114.275 49.1117 114.74 48.6267C115.205 48.1367 115.763 47.7567 116.413 47.4867C117.063 47.2167 117.783 47.0817 118.573 47.0817C119.363 47.0817 120.083 47.2167 120.733 47.4867C121.388 47.7567 121.948 48.1367 122.413 48.6267C122.878 49.1117 123.238 49.6917 123.493 50.3667C123.748 51.0367 123.875 51.7742 123.875 52.5792ZM122.383 52.5792C122.383 51.9192 122.293 51.3267 122.113 50.8017C121.933 50.2767 121.678 49.8342 121.348 49.4742C121.018 49.1092 120.618 48.8292 120.148 48.6342C119.678 48.4392 119.153 48.3417 118.573 48.3417C117.998 48.3417 117.475 48.4392 117.005 48.6342C116.535 48.8292 116.133 49.1092 115.798 49.4742C115.468 49.8342 115.213 50.2767 115.033 50.8017C114.853 51.3267 114.763 51.9192 114.763 52.5792C114.763 53.2392 114.853 53.8317 115.033 54.3567C115.213 54.8767 115.468 55.3192 115.798 55.6842C116.133 56.0442 116.535 56.3217 117.005 56.5167C117.475 56.7067 117.998 56.8017 118.573 56.8017C119.153 56.8017 119.678 56.7067 120.148 56.5167C120.618 56.3217 121.018 56.0442 121.348 55.6842C121.678 55.3192 121.933 54.8767 122.113 54.3567C122.293 53.8317 122.383 53.2392 122.383 52.5792ZM127.458 53.4642V57.9492H126.011V47.2017H129.048C129.728 47.2017 130.316 47.2717 130.811 47.4117C131.306 47.5467 131.713 47.7442 132.033 48.0042C132.358 48.2642 132.598 48.5792 132.753 48.9492C132.908 49.3142 132.986 49.7242 132.986 50.1792C132.986 50.5592 132.926 50.9142 132.806 51.2442C132.686 51.5742 132.511 51.8717 132.281 52.1367C132.056 52.3967 131.778 52.6192 131.448 52.8042C131.123 52.9892 130.753 53.1292 130.338 53.2242C130.518 53.3292 130.678 53.4817 130.818 53.6817L133.953 57.9492H132.663C132.398 57.9492 132.203 57.8467 132.078 57.6417L129.288 53.8017C129.203 53.6817 129.111 53.5967 129.011 53.5467C128.911 53.4917 128.761 53.4642 128.561 53.4642H127.458ZM127.458 52.4067H128.981C129.406 52.4067 129.778 52.3567 130.098 52.2567C130.423 52.1517 130.693 52.0067 130.908 51.8217C131.128 51.6317 131.293 51.4067 131.403 51.1467C131.513 50.8867 131.568 50.5992 131.568 50.2842C131.568 49.6442 131.356 49.1617 130.931 48.8367C130.511 48.5117 129.883 48.3492 129.048 48.3492H127.458V52.4067ZM145.037 47.2017V48.3867H139.877V51.9567H144.054V53.0967H139.877V56.7642H145.037V57.9492H138.414V47.2017H145.037ZM147.88 47.2017C148.01 47.2017 148.105 47.2192 148.165 47.2542C148.23 47.2842 148.303 47.3492 148.383 47.4492L154.608 55.5492C154.593 55.4192 154.583 55.2942 154.578 55.1742C154.573 55.0492 154.57 54.9292 154.57 54.8142V47.2017H155.845V57.9492H155.11C154.995 57.9492 154.898 57.9292 154.818 57.8892C154.743 57.8492 154.668 57.7817 154.593 57.6867L148.375 49.5942C148.385 49.7192 148.393 49.8417 148.398 49.9617C148.403 50.0817 148.405 50.1917 148.405 50.2917V57.9492H147.13V47.2017H147.88ZM165.788 47.2017V48.4242H162.316V57.9492H160.861V48.4242H157.373V47.2017H165.788ZM168.913 53.4642V57.9492H167.466V47.2017H170.503C171.183 47.2017 171.771 47.2717 172.266 47.4117C172.761 47.5467 173.168 47.7442 173.488 48.0042C173.813 48.2642 174.053 48.5792 174.208 48.9492C174.363 49.3142 174.441 49.7242 174.441 50.1792C174.441 50.5592 174.381 50.9142 174.261 51.2442C174.141 51.5742 173.966 51.8717 173.736 52.1367C173.511 52.3967 173.233 52.6192 172.903 52.8042C172.578 52.9892 172.208 53.1292 171.793 53.2242C171.973 53.3292 172.133 53.4817 172.273 53.6817L175.408 57.9492H174.118C173.853 57.9492 173.658 57.8467 173.533 57.6417L170.743 53.8017C170.658 53.6817 170.566 53.5967 170.466 53.5467C170.366 53.4917 170.216 53.4642 170.016 53.4642H168.913ZM168.913 52.4067H170.436C170.861 52.4067 171.233 52.3567 171.553 52.2567C171.878 52.1517 172.148 52.0067 172.363 51.8217C172.583 51.6317 172.748 51.4067 172.858 51.1467C172.968 50.8867 173.023 50.5992 173.023 50.2842C173.023 49.6442 172.811 49.1617 172.386 48.8367C171.966 48.5117 171.338 48.3492 170.503 48.3492H168.913V52.4067ZM181.109 53.6742V57.9492H179.662V53.6742L175.724 47.2017H176.999C177.129 47.2017 177.232 47.2342 177.307 47.2992C177.382 47.3642 177.447 47.4442 177.502 47.5392L179.962 51.7167C180.062 51.8917 180.144 52.0567 180.209 52.2117C180.279 52.3667 180.342 52.5192 180.397 52.6692C180.452 52.5142 180.512 52.3592 180.577 52.2042C180.642 52.0492 180.724 51.8867 180.824 51.7167L183.277 47.5392C183.322 47.4592 183.382 47.3842 183.457 47.3142C183.537 47.2392 183.639 47.2017 183.764 47.2017H185.054L181.109 53.6742Z" fill="white"/>
<path d="M63.276 103.636C63.276 104.002 63.231 104.332 63.141 104.626C63.051 104.92 62.916 105.171 62.736 105.378C62.559 105.585 62.337 105.744 62.07 105.855C61.803 105.966 61.4925 106.021 61.1385 106.021C60.9765 106.021 60.8175 106.011 60.6615 105.99C60.5055 105.972 60.342 105.942 60.171 105.9L60.234 105.18C60.24 105.114 60.264 105.061 60.306 105.022C60.351 104.98 60.4155 104.959 60.4995 104.959C60.5505 104.959 60.6165 104.97 60.6975 104.991C60.7815 105.012 60.8865 105.022 61.0125 105.022C61.1835 105.022 61.335 104.998 61.467 104.95C61.599 104.899 61.7085 104.82 61.7955 104.712C61.8855 104.604 61.953 104.464 61.998 104.293C62.043 104.119 62.0655 103.909 62.0655 103.663V99.4422H63.276V103.636ZM70.0679 105.949H69.1319C69.0269 105.949 68.9399 105.924 68.8709 105.873C68.8049 105.819 68.7569 105.753 68.7269 105.675L68.2409 104.347H65.5454L65.0594 105.675C65.0354 105.744 64.9874 105.807 64.9154 105.864C64.8464 105.921 64.7609 105.949 64.6589 105.949H63.7184L66.2744 99.4422H67.5119L70.0679 105.949ZM65.8559 103.492H67.9304L67.1384 101.328C67.1024 101.232 67.0619 101.119 67.0169 100.99C66.9749 100.858 66.9329 100.716 66.8909 100.563C66.8489 100.716 66.8069 100.858 66.7649 100.99C66.7259 101.122 66.6869 101.238 66.6479 101.337L65.8559 103.492ZM71.3726 99.4422C71.4266 99.4422 71.4716 99.4452 71.5076 99.4512C71.5436 99.4542 71.5751 99.4632 71.6021 99.4782C71.6321 99.4902 71.6606 99.5097 71.6876 99.5367C71.7146 99.5607 71.7446 99.5937 71.7776 99.6357L75.1931 103.987C75.1811 103.882 75.1721 103.78 75.1661 103.681C75.1631 103.579 75.1616 103.485 75.1616 103.398V99.4422H76.2281V105.949H75.6026C75.5066 105.949 75.4271 105.934 75.3641 105.904C75.3011 105.874 75.2396 105.82 75.1796 105.742L71.7776 101.409C71.7866 101.505 71.7926 101.601 71.7956 101.697C71.8016 101.79 71.8046 101.875 71.8046 101.953V105.949H70.7381V99.4422H71.3726ZM80.1598 104.973C80.3938 104.973 80.6023 104.934 80.7853 104.856C80.9713 104.778 81.1273 104.668 81.2533 104.527C81.3823 104.386 81.4798 104.215 81.5458 104.014C81.6148 103.813 81.6493 103.588 81.6493 103.339V99.4422H82.8598V103.339C82.8598 103.726 82.7968 104.085 82.6708 104.415C82.5478 104.742 82.3693 105.025 82.1353 105.265C81.9013 105.502 81.6178 105.688 81.2848 105.823C80.9518 105.955 80.5768 106.021 80.1598 106.021C79.7428 106.021 79.3678 105.955 79.0348 105.823C78.7018 105.688 78.4183 105.502 78.1843 105.265C77.9533 105.025 77.7748 104.742 77.6488 104.415C77.5258 104.085 77.4643 103.726 77.4643 103.339V99.4422H78.6748V103.335C78.6748 103.584 78.7078 103.809 78.7738 104.01C78.8428 104.211 78.9403 104.383 79.0663 104.527C79.1923 104.668 79.3468 104.778 79.5298 104.856C79.7158 104.934 79.9258 104.973 80.1598 104.973ZM89.5708 105.949H88.6348C88.5298 105.949 88.4428 105.924 88.3738 105.873C88.3078 105.819 88.2598 105.753 88.2298 105.675L87.7438 104.347H85.0483L84.5623 105.675C84.5383 105.744 84.4903 105.807 84.4183 105.864C84.3493 105.921 84.2638 105.949 84.1618 105.949H83.2213L85.7773 99.4422H87.0148L89.5708 105.949ZM85.3588 103.492H87.4333L86.6413 101.328C86.6053 101.232 86.5648 101.119 86.5198 100.99C86.4778 100.858 86.4358 100.716 86.3938 100.563C86.3518 100.716 86.3098 100.858 86.2678 100.99C86.2288 101.122 86.1898 101.238 86.1508 101.337L85.3588 103.492ZM91.492 103.407V105.949H90.2815V99.4422H92.266C92.71 99.4422 93.0895 99.4887 93.4045 99.5817C93.7225 99.6717 93.982 99.7992 94.183 99.9642C94.387 100.129 94.5355 100.327 94.6285 100.558C94.7245 100.786 94.7725 101.038 94.7725 101.314C94.7725 101.533 94.7395 101.74 94.6735 101.935C94.6105 102.13 94.5175 102.307 94.3945 102.466C94.2745 102.625 94.1245 102.765 93.9445 102.885C93.7675 103.005 93.565 103.101 93.337 103.173C93.49 103.26 93.622 103.384 93.733 103.546L95.362 105.949H94.273C94.168 105.949 94.078 105.928 94.003 105.886C93.931 105.844 93.8695 105.784 93.8185 105.706L92.4505 103.623C92.3995 103.545 92.3425 103.489 92.2795 103.456C92.2195 103.423 92.1295 103.407 92.0095 103.407H91.492ZM91.492 102.538H92.248C92.476 102.538 92.674 102.51 92.842 102.453C93.013 102.396 93.1525 102.318 93.2605 102.219C93.3715 102.117 93.454 101.997 93.508 101.859C93.562 101.721 93.589 101.569 93.589 101.404C93.589 101.074 93.4795 100.821 93.2605 100.644C93.0445 100.467 92.713 100.378 92.266 100.378H91.492V102.538ZM99.0319 103.42V105.949H97.8214V103.42L95.4499 99.4422H96.5164C96.6214 99.4422 96.7039 99.4677 96.7639 99.5187C96.8269 99.5697 96.8794 99.6342 96.9214 99.7122L98.1139 101.886C98.1829 102.015 98.2429 102.138 98.2939 102.255C98.3449 102.369 98.3914 102.481 98.4334 102.592C98.4724 102.478 98.5159 102.364 98.5639 102.25C98.6149 102.133 98.6749 102.012 98.7439 101.886L99.9274 99.7122C99.9604 99.6462 100.01 99.5847 100.076 99.5277C100.142 99.4707 100.226 99.4422 100.328 99.4422H101.399L99.0319 103.42ZM105.819 99.3702C106.119 99.3702 106.394 99.4152 106.643 99.5052C106.892 99.5922 107.105 99.7167 107.282 99.8787C107.459 100.041 107.597 100.236 107.696 100.464C107.795 100.692 107.844 100.945 107.844 101.224C107.844 101.464 107.808 101.686 107.736 101.89C107.667 102.094 107.573 102.289 107.453 102.475C107.336 102.661 107.198 102.841 107.039 103.015C106.88 103.189 106.713 103.366 106.539 103.546L105.072 105.045C105.216 105.003 105.357 104.971 105.495 104.95C105.633 104.926 105.765 104.914 105.891 104.914H107.561C107.681 104.914 107.775 104.949 107.844 105.018C107.916 105.084 107.952 105.172 107.952 105.283V105.949H103.488V105.58C103.488 105.505 103.503 105.427 103.533 105.346C103.566 105.265 103.617 105.19 103.686 105.121L105.662 103.141C105.827 102.973 105.974 102.813 106.103 102.66C106.235 102.507 106.344 102.355 106.431 102.205C106.521 102.055 106.589 101.904 106.634 101.751C106.682 101.595 106.706 101.431 106.706 101.26C106.706 101.104 106.683 100.968 106.638 100.851C106.593 100.731 106.529 100.63 106.445 100.549C106.361 100.468 106.26 100.408 106.143 100.369C106.029 100.327 105.9 100.306 105.756 100.306C105.489 100.306 105.269 100.374 105.095 100.509C104.924 100.644 104.804 100.825 104.735 101.053C104.702 101.167 104.652 101.25 104.586 101.301C104.52 101.349 104.436 101.373 104.334 101.373C104.289 101.373 104.24 101.368 104.186 101.359L103.601 101.256C103.646 100.944 103.733 100.671 103.862 100.437C103.991 100.2 104.151 100.003 104.343 99.8472C104.538 99.6882 104.76 99.5697 105.009 99.4917C105.261 99.4107 105.531 99.3702 105.819 99.3702ZM113.326 102.696C113.326 103.263 113.265 103.756 113.142 104.176C113.022 104.593 112.854 104.938 112.638 105.211C112.425 105.484 112.171 105.688 111.877 105.823C111.586 105.955 111.271 106.021 110.932 106.021C110.593 106.021 110.278 105.955 109.987 105.823C109.699 105.688 109.449 105.484 109.236 105.211C109.023 104.938 108.856 104.593 108.736 104.176C108.616 103.756 108.556 103.263 108.556 102.696C108.556 102.126 108.616 101.632 108.736 101.215C108.856 100.798 109.023 100.453 109.236 100.18C109.449 99.9072 109.699 99.7047 109.987 99.5727C110.278 99.4377 110.593 99.3702 110.932 99.3702C111.271 99.3702 111.586 99.4377 111.877 99.5727C112.171 99.7047 112.425 99.9072 112.638 100.18C112.854 100.453 113.022 100.798 113.142 101.215C113.265 101.632 113.326 102.126 113.326 102.696ZM112.179 102.696C112.179 102.225 112.144 101.835 112.075 101.526C112.006 101.217 111.913 100.971 111.796 100.788C111.682 100.605 111.55 100.477 111.4 100.405C111.25 100.33 111.094 100.293 110.932 100.293C110.773 100.293 110.619 100.33 110.469 100.405C110.322 100.477 110.191 100.605 110.077 100.788C109.963 100.971 109.872 101.217 109.803 101.526C109.737 101.835 109.704 102.225 109.704 102.696C109.704 103.167 109.737 103.557 109.803 103.866C109.872 104.175 109.963 104.421 110.077 104.604C110.191 104.787 110.322 104.916 110.469 104.991C110.619 105.063 110.773 105.099 110.932 105.099C111.094 105.099 111.25 105.063 111.4 104.991C111.55 104.916 111.682 104.787 111.796 104.604C111.913 104.421 112.006 104.175 112.075 103.866C112.144 103.557 112.179 103.167 112.179 102.696ZM116.261 99.3702C116.561 99.3702 116.835 99.4152 117.084 99.5052C117.333 99.5922 117.546 99.7167 117.723 99.8787C117.9 100.041 118.038 100.236 118.137 100.464C118.236 100.692 118.286 100.945 118.286 101.224C118.286 101.464 118.25 101.686 118.178 101.89C118.109 102.094 118.014 102.289 117.894 102.475C117.777 102.661 117.639 102.841 117.48 103.015C117.321 103.189 117.155 103.366 116.981 103.546L115.514 105.045C115.658 105.003 115.799 104.971 115.937 104.95C116.075 104.926 116.207 104.914 116.333 104.914H118.002C118.122 104.914 118.217 104.949 118.286 105.018C118.358 105.084 118.394 105.172 118.394 105.283V105.949H113.93V105.58C113.93 105.505 113.945 105.427 113.975 105.346C114.008 105.265 114.059 105.19 114.128 105.121L116.103 103.141C116.268 102.973 116.415 102.813 116.544 102.66C116.676 102.507 116.786 102.355 116.873 102.205C116.963 102.055 117.03 101.904 117.075 101.751C117.123 101.595 117.147 101.431 117.147 101.26C117.147 101.104 117.125 100.968 117.08 100.851C117.035 100.731 116.97 100.63 116.886 100.549C116.802 100.468 116.702 100.408 116.585 100.369C116.471 100.327 116.342 100.306 116.198 100.306C115.931 100.306 115.71 100.374 115.536 100.509C115.365 100.644 115.245 100.825 115.176 101.053C115.143 101.167 115.094 101.25 115.028 101.301C114.962 101.349 114.878 101.373 114.776 101.373C114.731 101.373 114.681 101.368 114.627 101.359L114.042 101.256C114.087 100.944 114.174 100.671 114.303 100.437C114.432 100.2 114.593 100.003 114.785 99.8472C114.98 99.6882 115.202 99.5697 115.451 99.4917C115.703 99.4107 115.973 99.3702 116.261 99.3702ZM123.011 103.497H123.83V104.14C123.83 104.2 123.811 104.253 123.772 104.298C123.733 104.34 123.676 104.361 123.601 104.361H123.011V105.949H122.039V104.361H119.294C119.219 104.361 119.153 104.338 119.096 104.293C119.039 104.245 119.003 104.187 118.988 104.118L118.876 103.555L121.958 99.4377H123.011V103.497ZM122.039 101.368C122.039 101.272 122.042 101.169 122.048 101.058C122.054 100.947 122.065 100.831 122.08 100.711L120.059 103.497H122.039V101.368Z" fill="#FAC47E"/>
<path d="M66.81 114.882C66.765 114.957 66.7175 115.014 66.6675 115.054C66.6175 115.089 66.5525 115.107 66.4725 115.107C66.3875 115.107 66.2875 115.064 66.1725 114.979C66.0625 114.894 65.92 114.802 65.745 114.702C65.575 114.597 65.3675 114.502 65.1225 114.417C64.8825 114.332 64.59 114.289 64.245 114.289C63.92 114.289 63.6325 114.334 63.3825 114.424C63.1325 114.509 62.9225 114.627 62.7525 114.777C62.5875 114.927 62.4625 115.104 62.3775 115.309C62.2925 115.509 62.25 115.727 62.25 115.962C62.25 116.262 62.3225 116.512 62.4675 116.712C62.6175 116.907 62.8125 117.074 63.0525 117.214C63.2975 117.354 63.5725 117.477 63.8775 117.582C64.1875 117.682 64.5025 117.787 64.8225 117.897C65.1475 118.007 65.4625 118.132 65.7675 118.272C66.0775 118.407 66.3525 118.579 66.5925 118.789C66.8375 118.999 67.0325 119.257 67.1775 119.562C67.3275 119.867 67.4025 120.242 67.4025 120.687C67.4025 121.157 67.3225 121.599 67.1625 122.014C67.0025 122.424 66.7675 122.782 66.4575 123.087C66.1525 123.392 65.775 123.632 65.325 123.807C64.88 123.982 64.3725 124.069 63.8025 124.069C63.1075 124.069 62.4725 123.944 61.8975 123.694C61.3275 123.439 60.84 123.097 60.435 122.667L60.855 121.977C60.895 121.922 60.9425 121.877 60.9975 121.842C61.0575 121.802 61.1225 121.782 61.1925 121.782C61.2975 121.782 61.4175 121.839 61.5525 121.954C61.6875 122.064 61.855 122.187 62.055 122.322C62.26 122.457 62.505 122.582 62.79 122.697C63.08 122.807 63.4325 122.862 63.8475 122.862C64.1925 122.862 64.5 122.814 64.77 122.719C65.04 122.624 65.2675 122.492 65.4525 122.322C65.6425 122.147 65.7875 121.939 65.8875 121.699C65.9875 121.459 66.0375 121.192 66.0375 120.897C66.0375 120.572 65.9625 120.307 65.8125 120.102C65.6675 119.892 65.475 119.717 65.235 119.577C64.995 119.437 64.72 119.319 64.41 119.224C64.105 119.124 63.79 119.024 63.465 118.924C63.145 118.819 62.83 118.699 62.52 118.564C62.215 118.429 61.9425 118.254 61.7025 118.039C61.4625 117.824 61.2675 117.557 61.1175 117.237C60.9725 116.912 60.9 116.512 60.9 116.037C60.9 115.657 60.9725 115.289 61.1175 114.934C61.2675 114.579 61.4825 114.264 61.7625 113.989C62.0425 113.714 62.3875 113.494 62.7975 113.329C63.2125 113.164 63.6875 113.082 64.2225 113.082C64.8225 113.082 65.37 113.177 65.865 113.367C66.36 113.557 66.7925 113.832 67.1625 114.192L66.81 114.882ZM73.4366 122.794C73.8816 122.794 74.2791 122.719 74.6291 122.569C74.9791 122.419 75.2741 122.209 75.5141 121.939C75.7591 121.669 75.9441 121.347 76.0691 120.972C76.1991 120.597 76.2641 120.184 76.2641 119.734V113.202H77.7116V119.734C77.7116 120.354 77.6116 120.929 77.4116 121.459C77.2166 121.989 76.9341 122.449 76.5641 122.839C76.1991 123.224 75.7516 123.527 75.2216 123.747C74.6916 123.967 74.0966 124.077 73.4366 124.077C72.7766 124.077 72.1816 123.967 71.6516 123.747C71.1216 123.527 70.6716 123.224 70.3016 122.839C69.9316 122.449 69.6466 121.989 69.4466 121.459C69.2516 120.929 69.1541 120.354 69.1541 119.734V113.202H70.6016V119.727C70.6016 120.177 70.6641 120.589 70.7891 120.964C70.9191 121.339 71.1041 121.662 71.3441 121.932C71.5891 122.202 71.8866 122.414 72.2366 122.569C72.5916 122.719 72.9916 122.794 73.4366 122.794ZM80.2161 123.949V113.202H83.6436C84.3036 113.202 84.8711 113.267 85.3461 113.397C85.8261 113.527 86.2186 113.712 86.5236 113.952C86.8336 114.192 87.0611 114.487 87.2061 114.837C87.3561 115.182 87.4311 115.572 87.4311 116.007C87.4311 116.272 87.3886 116.527 87.3036 116.772C87.2236 117.017 87.0986 117.244 86.9286 117.454C86.7636 117.664 86.5536 117.852 86.2986 118.017C86.0486 118.182 85.7536 118.317 85.4136 118.422C86.1986 118.577 86.7911 118.859 87.1911 119.269C87.5911 119.679 87.7911 120.219 87.7911 120.889C87.7911 121.344 87.7061 121.759 87.5361 122.134C87.3711 122.509 87.1261 122.832 86.8011 123.102C86.4811 123.372 86.0861 123.582 85.6161 123.732C85.1511 123.877 84.6186 123.949 84.0186 123.949H80.2161ZM81.6711 119.052V122.794H83.9961C84.4111 122.794 84.7661 122.747 85.0611 122.652C85.3611 122.557 85.6061 122.424 85.7961 122.254C85.9911 122.079 86.1336 121.874 86.2236 121.639C86.3136 121.399 86.3586 121.137 86.3586 120.852C86.3586 120.297 86.1611 119.859 85.7661 119.539C85.3761 119.214 84.7836 119.052 83.9886 119.052H81.6711ZM81.6711 118.017H83.5911C84.0011 118.017 84.3561 117.972 84.6561 117.882C84.9561 117.792 85.2036 117.667 85.3986 117.507C85.5986 117.347 85.7461 117.154 85.8411 116.929C85.9361 116.699 85.9836 116.449 85.9836 116.179C85.9836 115.549 85.7936 115.087 85.4136 114.792C85.0336 114.497 84.4436 114.349 83.6436 114.349H81.6711V118.017ZM95.2155 120.064C95.2855 120.184 95.3455 120.312 95.3955 120.447C95.4505 120.577 95.503 120.709 95.553 120.844C95.603 120.704 95.6555 120.572 95.7105 120.447C95.7655 120.317 95.828 120.187 95.898 120.057L99.5355 113.449C99.6005 113.334 99.668 113.264 99.738 113.239C99.808 113.214 99.908 113.202 100.038 113.202H101.111V123.949H99.8355V116.052C99.8355 115.947 99.838 115.834 99.843 115.714C99.848 115.594 99.8555 115.472 99.8655 115.347L96.183 122.067C96.058 122.292 95.883 122.404 95.658 122.404H95.448C95.223 122.404 95.048 122.292 94.923 122.067L91.158 115.324C91.173 115.454 91.183 115.582 91.188 115.707C91.198 115.832 91.203 115.947 91.203 116.052V123.949H89.928V113.202H91.0005C91.1305 113.202 91.2305 113.214 91.3005 113.239C91.3705 113.264 91.438 113.334 91.503 113.449L95.2155 120.064ZM105.452 123.949H103.997V113.202H105.452V123.949ZM113.831 114.882C113.786 114.957 113.739 115.014 113.689 115.054C113.639 115.089 113.574 115.107 113.494 115.107C113.409 115.107 113.309 115.064 113.194 114.979C113.084 114.894 112.941 114.802 112.766 114.702C112.596 114.597 112.389 114.502 112.144 114.417C111.904 114.332 111.611 114.289 111.266 114.289C110.941 114.289 110.654 114.334 110.404 114.424C110.154 114.509 109.944 114.627 109.774 114.777C109.609 114.927 109.484 115.104 109.399 115.309C109.314 115.509 109.271 115.727 109.271 115.962C109.271 116.262 109.344 116.512 109.489 116.712C109.639 116.907 109.834 117.074 110.074 117.214C110.319 117.354 110.594 117.477 110.899 117.582C111.209 117.682 111.524 117.787 111.844 117.897C112.169 118.007 112.484 118.132 112.789 118.272C113.099 118.407 113.374 118.579 113.614 118.789C113.859 118.999 114.054 119.257 114.199 119.562C114.349 119.867 114.424 120.242 114.424 120.687C114.424 121.157 114.344 121.599 114.184 122.014C114.024 122.424 113.789 122.782 113.479 123.087C113.174 123.392 112.796 123.632 112.346 123.807C111.901 123.982 111.394 124.069 110.824 124.069C110.129 124.069 109.494 123.944 108.919 123.694C108.349 123.439 107.861 123.097 107.456 122.667L107.876 121.977C107.916 121.922 107.964 121.877 108.019 121.842C108.079 121.802 108.144 121.782 108.214 121.782C108.319 121.782 108.439 121.839 108.574 121.954C108.709 122.064 108.876 122.187 109.076 122.322C109.281 122.457 109.526 122.582 109.811 122.697C110.101 122.807 110.454 122.862 110.869 122.862C111.214 122.862 111.521 122.814 111.791 122.719C112.061 122.624 112.289 122.492 112.474 122.322C112.664 122.147 112.809 121.939 112.909 121.699C113.009 121.459 113.059 121.192 113.059 120.897C113.059 120.572 112.984 120.307 112.834 120.102C112.689 119.892 112.496 119.717 112.256 119.577C112.016 119.437 111.741 119.319 111.431 119.224C111.126 119.124 110.811 119.024 110.486 118.924C110.166 118.819 109.851 118.699 109.541 118.564C109.236 118.429 108.964 118.254 108.724 118.039C108.484 117.824 108.289 117.557 108.139 117.237C107.994 116.912 107.921 116.512 107.921 116.037C107.921 115.657 107.994 115.289 108.139 114.934C108.289 114.579 108.504 114.264 108.784 113.989C109.064 113.714 109.409 113.494 109.819 113.329C110.234 113.164 110.709 113.082 111.244 113.082C111.844 113.082 112.391 113.177 112.886 113.367C113.381 113.557 113.814 113.832 114.184 114.192L113.831 114.882ZM121.786 114.882C121.741 114.957 121.693 115.014 121.643 115.054C121.593 115.089 121.528 115.107 121.448 115.107C121.363 115.107 121.263 115.064 121.148 114.979C121.038 114.894 120.896 114.802 120.721 114.702C120.551 114.597 120.343 114.502 120.098 114.417C119.858 114.332 119.566 114.289 119.221 114.289C118.896 114.289 118.608 114.334 118.358 114.424C118.108 114.509 117.898 114.627 117.728 114.777C117.563 114.927 117.438 115.104 117.353 115.309C117.268 115.509 117.226 115.727 117.226 115.962C117.226 116.262 117.298 116.512 117.443 116.712C117.593 116.907 117.788 117.074 118.028 117.214C118.273 117.354 118.548 117.477 118.853 117.582C119.163 117.682 119.478 117.787 119.798 117.897C120.123 118.007 120.438 118.132 120.743 118.272C121.053 118.407 121.328 118.579 121.568 118.789C121.813 118.999 122.008 119.257 122.153 119.562C122.303 119.867 122.378 120.242 122.378 120.687C122.378 121.157 122.298 121.599 122.138 122.014C121.978 122.424 121.743 122.782 121.433 123.087C121.128 123.392 120.751 123.632 120.301 123.807C119.856 123.982 119.348 124.069 118.778 124.069C118.083 124.069 117.448 123.944 116.873 123.694C116.303 123.439 115.816 123.097 115.411 122.667L115.831 121.977C115.871 121.922 115.918 121.877 115.973 121.842C116.033 121.802 116.098 121.782 116.168 121.782C116.273 121.782 116.393 121.839 116.528 121.954C116.663 122.064 116.831 122.187 117.031 122.322C117.236 122.457 117.481 122.582 117.766 122.697C118.056 122.807 118.408 122.862 118.823 122.862C119.168 122.862 119.476 122.814 119.746 122.719C120.016 122.624 120.243 122.492 120.428 122.322C120.618 122.147 120.763 121.939 120.863 121.699C120.963 121.459 121.013 121.192 121.013 120.897C121.013 120.572 120.938 120.307 120.788 120.102C120.643 119.892 120.451 119.717 120.211 119.577C119.971 119.437 119.696 119.319 119.386 119.224C119.081 119.124 118.766 119.024 118.441 118.924C118.121 118.819 117.806 118.699 117.496 118.564C117.191 118.429 116.918 118.254 116.678 118.039C116.438 117.824 116.243 117.557 116.093 117.237C115.948 116.912 115.876 116.512 115.876 116.037C115.876 115.657 115.948 115.289 116.093 114.934C116.243 114.579 116.458 114.264 116.738 113.989C117.018 113.714 117.363 113.494 117.773 113.329C118.188 113.164 118.663 113.082 119.198 113.082C119.798 113.082 120.346 113.177 120.841 113.367C121.336 113.557 121.768 113.832 122.138 114.192L121.786 114.882ZM125.96 123.949H124.505V113.202H125.96V123.949ZM138.817 118.579C138.817 119.384 138.689 120.124 138.434 120.799C138.179 121.469 137.819 122.047 137.354 122.532C136.889 123.017 136.329 123.394 135.674 123.664C135.024 123.929 134.304 124.062 133.514 124.062C132.724 124.062 132.004 123.929 131.354 123.664C130.704 123.394 130.147 123.017 129.682 122.532C129.217 122.047 128.857 121.469 128.602 120.799C128.347 120.124 128.219 119.384 128.219 118.579C128.219 117.774 128.347 117.037 128.602 116.367C128.857 115.692 129.217 115.112 129.682 114.627C130.147 114.137 130.704 113.757 131.354 113.487C132.004 113.217 132.724 113.082 133.514 113.082C134.304 113.082 135.024 113.217 135.674 113.487C136.329 113.757 136.889 114.137 137.354 114.627C137.819 115.112 138.179 115.692 138.434 116.367C138.689 117.037 138.817 117.774 138.817 118.579ZM137.324 118.579C137.324 117.919 137.234 117.327 137.054 116.802C136.874 116.277 136.619 115.834 136.289 115.474C135.959 115.109 135.559 114.829 135.089 114.634C134.619 114.439 134.094 114.342 133.514 114.342C132.939 114.342 132.417 114.439 131.947 114.634C131.477 114.829 131.074 115.109 130.739 115.474C130.409 115.834 130.154 116.277 129.974 116.802C129.794 117.327 129.704 117.919 129.704 118.579C129.704 119.239 129.794 119.832 129.974 120.357C130.154 120.877 130.409 121.319 130.739 121.684C131.074 122.044 131.477 122.322 131.947 122.517C132.417 122.707 132.939 122.802 133.514 122.802C134.094 122.802 134.619 122.707 135.089 122.517C135.559 122.322 135.959 122.044 136.289 121.684C136.619 121.319 136.874 120.877 137.054 120.357C137.234 119.832 137.324 119.239 137.324 118.579ZM141.552 113.202C141.682 113.202 141.777 113.219 141.837 113.254C141.902 113.284 141.975 113.349 142.055 113.449L148.28 121.549C148.265 121.419 148.255 121.294 148.25 121.174C148.245 121.049 148.242 120.929 148.242 120.814V113.202H149.517V123.949H148.782C148.667 123.949 148.57 123.929 148.49 123.889C148.415 123.849 148.34 123.782 148.265 123.687L142.047 115.594C142.057 115.719 142.065 115.842 142.07 115.962C142.075 116.082 142.077 116.192 142.077 116.292V123.949H140.802V113.202H141.552ZM164.355 118.579C164.355 119.384 164.228 120.117 163.973 120.777C163.718 121.437 163.358 122.002 162.893 122.472C162.428 122.942 161.87 123.307 161.22 123.567C160.57 123.822 159.85 123.949 159.06 123.949H155.04V113.202H159.06C159.85 113.202 160.57 113.332 161.22 113.592C161.87 113.847 162.428 114.212 162.893 114.687C163.358 115.157 163.718 115.722 163.973 116.382C164.228 117.042 164.355 117.774 164.355 118.579ZM162.863 118.579C162.863 117.919 162.773 117.329 162.593 116.809C162.413 116.289 162.158 115.849 161.828 115.489C161.498 115.129 161.098 114.854 160.628 114.664C160.158 114.474 159.635 114.379 159.06 114.379H156.503V122.772H159.06C159.635 122.772 160.158 122.677 160.628 122.487C161.098 122.297 161.498 122.024 161.828 121.669C162.158 121.309 162.413 120.869 162.593 120.349C162.773 119.829 162.863 119.239 162.863 118.579ZM172.957 113.202V114.387H167.797V117.957H171.974V119.097H167.797V122.764H172.957V123.949H166.334V113.202H172.957ZM183.893 123.949H182.768C182.638 123.949 182.533 123.917 182.453 123.852C182.373 123.787 182.313 123.704 182.273 123.604L181.268 121.009H176.445L175.44 123.604C175.405 123.694 175.345 123.774 175.26 123.844C175.175 123.914 175.07 123.949 174.945 123.949H173.82L178.118 113.202H179.595L183.893 123.949ZM176.85 119.959H180.863L179.175 115.587C179.065 115.317 178.958 114.979 178.853 114.574C178.798 114.779 178.743 114.969 178.688 115.144C178.638 115.314 178.588 115.464 178.538 115.594L176.85 119.959ZM194.56 118.579C194.56 119.384 194.433 120.117 194.178 120.777C193.923 121.437 193.563 122.002 193.098 122.472C192.633 122.942 192.075 123.307 191.425 123.567C190.775 123.822 190.055 123.949 189.265 123.949H185.245V113.202H189.265C190.055 113.202 190.775 113.332 191.425 113.592C192.075 113.847 192.633 114.212 193.098 114.687C193.563 115.157 193.923 115.722 194.178 116.382C194.433 117.042 194.56 117.774 194.56 118.579ZM193.068 118.579C193.068 117.919 192.978 117.329 192.798 116.809C192.618 116.289 192.363 115.849 192.033 115.489C191.703 115.129 191.303 114.854 190.833 114.664C190.363 114.474 189.84 114.379 189.265 114.379H186.708V122.772H189.265C189.84 122.772 190.363 122.677 190.833 122.487C191.303 122.297 191.703 122.024 192.033 121.669C192.363 121.309 192.618 120.869 192.798 120.349C192.978 119.829 193.068 119.239 193.068 118.579ZM197.994 122.727H202.644V123.949H196.539V113.202H197.994V122.727ZM205.969 123.949H204.514V113.202H205.969V123.949ZM209.594 113.202C209.724 113.202 209.819 113.219 209.879 113.254C209.944 113.284 210.017 113.349 210.097 113.449L216.322 121.549C216.307 121.419 216.297 121.294 216.292 121.174C216.287 121.049 216.284 120.929 216.284 120.814V113.202H217.559V123.949H216.824C216.709 123.949 216.612 123.929 216.532 123.889C216.457 123.849 216.382 123.782 216.307 123.687L210.089 115.594C210.099 115.719 210.107 115.842 210.112 115.962C210.117 116.082 210.119 116.192 210.119 116.292V123.949H208.844V113.202H209.594ZM226.804 113.202V114.387H221.644V117.957H225.822V119.097H221.644V122.764H226.804V123.949H220.182V113.202H226.804Z" fill="white"/>
<path d="M63.924 169.249C63.975 169.345 64.0215 169.446 64.0635 169.551C64.1085 169.653 64.152 169.756 64.194 169.861C64.236 169.753 64.2795 169.647 64.3245 169.542C64.3695 169.437 64.4175 169.336 64.4685 169.24L66.3945 165.636C66.4185 165.591 66.4425 165.555 66.4665 165.528C66.4935 165.501 66.522 165.481 66.552 165.469C66.585 165.457 66.621 165.45 66.66 165.447C66.699 165.444 66.7455 165.442 66.7995 165.442H67.713V171.949H66.6465V167.746C66.6465 167.668 66.648 167.583 66.651 167.49C66.657 167.397 66.6645 167.302 66.6735 167.206L64.707 170.896C64.662 170.98 64.6035 171.046 64.5315 171.094C64.4595 171.139 64.3755 171.162 64.2795 171.162H64.113C64.017 171.162 63.933 171.139 63.861 171.094C63.789 171.046 63.7305 170.98 63.6855 170.896L61.692 167.193C61.704 167.292 61.7115 167.389 61.7145 167.485C61.7205 167.578 61.7235 167.665 61.7235 167.746V171.949H60.657V165.442H61.5705C61.6245 165.442 61.671 165.444 61.71 165.447C61.749 165.45 61.7835 165.457 61.8135 165.469C61.8465 165.481 61.8765 165.501 61.9035 165.528C61.9305 165.555 61.956 165.591 61.98 165.636L63.924 169.249ZM74.7437 171.949H73.8077C73.7027 171.949 73.6157 171.924 73.5467 171.873C73.4807 171.819 73.4327 171.753 73.4027 171.675L72.9167 170.347H70.2212L69.7352 171.675C69.7112 171.744 69.6632 171.807 69.5912 171.864C69.5222 171.921 69.4367 171.949 69.3347 171.949H68.3942L70.9502 165.442H72.1877L74.7437 171.949ZM70.5317 169.492H72.6062L71.8142 167.328C71.7782 167.232 71.7377 167.119 71.6927 166.99C71.6507 166.858 71.6087 166.716 71.5667 166.563C71.5247 166.716 71.4827 166.858 71.4407 166.99C71.4017 167.122 71.3627 167.238 71.3237 167.337L70.5317 169.492ZM76.6648 169.407V171.949H75.4543V165.442H77.4388C77.8828 165.442 78.2623 165.489 78.5773 165.582C78.8953 165.672 79.1548 165.799 79.3558 165.964C79.5598 166.129 79.7083 166.327 79.8013 166.558C79.8973 166.786 79.9453 167.038 79.9453 167.314C79.9453 167.533 79.9123 167.74 79.8463 167.935C79.7833 168.13 79.6903 168.307 79.5673 168.466C79.4473 168.625 79.2973 168.765 79.1173 168.885C78.9403 169.005 78.7378 169.101 78.5098 169.173C78.6628 169.26 78.7948 169.384 78.9058 169.546L80.5348 171.949H79.4458C79.3408 171.949 79.2508 171.928 79.1758 171.886C79.1038 171.844 79.0423 171.784 78.9913 171.706L77.6233 169.623C77.5723 169.545 77.5153 169.489 77.4523 169.456C77.3923 169.423 77.3023 169.407 77.1823 169.407H76.6648ZM76.6648 168.538H77.4208C77.6488 168.538 77.8468 168.51 78.0148 168.453C78.1858 168.396 78.3253 168.318 78.4333 168.219C78.5443 168.117 78.6268 167.997 78.6808 167.859C78.7348 167.721 78.7618 167.569 78.7618 167.404C78.7618 167.074 78.6523 166.821 78.4333 166.644C78.2173 166.467 77.8858 166.378 77.4388 166.378H76.6648V168.538ZM85.5646 170.415C85.6306 170.415 85.6876 170.44 85.7356 170.491L86.2126 171.009C85.9486 171.336 85.6231 171.586 85.2361 171.76C84.8521 171.934 84.3901 172.021 83.8501 172.021C83.3671 172.021 82.9321 171.939 82.5451 171.774C82.1611 171.609 81.8326 171.379 81.5596 171.085C81.2866 170.791 81.0766 170.44 80.9296 170.032C80.7856 169.624 80.7136 169.179 80.7136 168.696C80.7136 168.207 80.7946 167.76 80.9566 167.355C81.1186 166.947 81.3466 166.596 81.6406 166.302C81.9346 166.008 82.2856 165.78 82.6936 165.618C83.1046 165.453 83.5576 165.37 84.0526 165.37C84.5356 165.37 84.9571 165.448 85.3171 165.604C85.6801 165.757 85.9906 165.961 86.2486 166.216L85.8436 166.779C85.8196 166.815 85.7881 166.846 85.7491 166.873C85.7131 166.9 85.6621 166.914 85.5961 166.914C85.5271 166.914 85.4566 166.887 85.3846 166.833C85.3126 166.779 85.2211 166.72 85.1101 166.657C84.9991 166.594 84.8581 166.536 84.6871 166.482C84.5191 166.428 84.3046 166.401 84.0436 166.401C83.7376 166.401 83.4556 166.455 83.1976 166.563C82.9426 166.668 82.7221 166.819 82.5361 167.017C82.3531 167.215 82.2091 167.457 82.1041 167.742C82.0021 168.024 81.9511 168.342 81.9511 168.696C81.9511 169.062 82.0021 169.387 82.1041 169.672C82.2091 169.957 82.3501 170.197 82.5271 170.392C82.7041 170.587 82.9126 170.737 83.1526 170.842C83.3926 170.944 83.6506 170.995 83.9266 170.995C84.0916 170.995 84.2401 170.986 84.3721 170.968C84.5071 170.95 84.6301 170.922 84.7411 170.883C84.8551 170.844 84.9616 170.794 85.0606 170.734C85.1626 170.671 85.2631 170.595 85.3621 170.505C85.3921 170.478 85.4236 170.457 85.4566 170.442C85.4896 170.424 85.5256 170.415 85.5646 170.415ZM92.6197 171.949H91.4002V169.105H88.3492V171.949H87.1297V165.442H88.3492V168.241H91.4002V165.442H92.6197V171.949ZM97.7246 165.37C98.0246 165.37 98.2991 165.415 98.5481 165.505C98.7971 165.592 99.0101 165.717 99.1871 165.879C99.3641 166.041 99.5021 166.236 99.6011 166.464C99.7001 166.692 99.7496 166.945 99.7496 167.224C99.7496 167.464 99.7136 167.686 99.6416 167.89C99.5726 168.094 99.4781 168.289 99.3581 168.475C99.2411 168.661 99.1031 168.841 98.9441 169.015C98.7851 169.189 98.6186 169.366 98.4446 169.546L96.9776 171.045C97.1216 171.003 97.2626 170.971 97.4006 170.95C97.5386 170.926 97.6706 170.914 97.7966 170.914H99.4661C99.5861 170.914 99.6806 170.949 99.7496 171.018C99.8216 171.084 99.8576 171.172 99.8576 171.283V171.949H95.3936V171.58C95.3936 171.505 95.4086 171.427 95.4386 171.346C95.4716 171.265 95.5226 171.19 95.5916 171.121L97.5671 169.141C97.7321 168.973 97.8791 168.813 98.0081 168.66C98.1401 168.507 98.2496 168.355 98.3366 168.205C98.4266 168.055 98.4941 167.904 98.5391 167.751C98.5871 167.595 98.6111 167.431 98.6111 167.26C98.6111 167.104 98.5886 166.968 98.5436 166.851C98.4986 166.731 98.4341 166.63 98.3501 166.549C98.2661 166.468 98.1656 166.408 98.0486 166.369C97.9346 166.327 97.8056 166.306 97.6616 166.306C97.3946 166.306 97.1741 166.374 97.0001 166.509C96.8291 166.644 96.7091 166.825 96.6401 167.053C96.6071 167.167 96.5576 167.25 96.4916 167.301C96.4256 167.349 96.3416 167.373 96.2396 167.373C96.1946 167.373 96.1451 167.368 96.0911 167.359L95.5061 167.256C95.5511 166.944 95.6381 166.671 95.7671 166.437C95.8961 166.2 96.0566 166.003 96.2486 165.847C96.4436 165.688 96.6656 165.57 96.9146 165.492C97.1666 165.411 97.4366 165.37 97.7246 165.37ZM105.231 168.696C105.231 169.263 105.17 169.756 105.047 170.176C104.927 170.593 104.759 170.938 104.543 171.211C104.33 171.484 104.076 171.688 103.782 171.823C103.491 171.955 103.176 172.021 102.837 172.021C102.498 172.021 102.183 171.955 101.892 171.823C101.604 171.688 101.354 171.484 101.141 171.211C100.928 170.938 100.761 170.593 100.641 170.176C100.521 169.756 100.461 169.263 100.461 168.696C100.461 168.126 100.521 167.632 100.641 167.215C100.761 166.798 100.928 166.453 101.141 166.18C101.354 165.907 101.604 165.705 101.892 165.573C102.183 165.438 102.498 165.37 102.837 165.37C103.176 165.37 103.491 165.438 103.782 165.573C104.076 165.705 104.33 165.907 104.543 166.18C104.759 166.453 104.927 166.798 105.047 167.215C105.17 167.632 105.231 168.126 105.231 168.696ZM104.084 168.696C104.084 168.225 104.049 167.835 103.98 167.526C103.911 167.217 103.818 166.971 103.701 166.788C103.587 166.605 103.455 166.477 103.305 166.405C103.155 166.33 102.999 166.293 102.837 166.293C102.678 166.293 102.524 166.33 102.374 166.405C102.227 166.477 102.096 166.605 101.982 166.788C101.868 166.971 101.777 167.217 101.708 167.526C101.642 167.835 101.609 168.225 101.609 168.696C101.609 169.167 101.642 169.557 101.708 169.866C101.777 170.175 101.868 170.421 101.982 170.604C102.096 170.787 102.227 170.916 102.374 170.991C102.524 171.063 102.678 171.099 102.837 171.099C102.999 171.099 103.155 171.063 103.305 170.991C103.455 170.916 103.587 170.787 103.701 170.604C103.818 170.421 103.911 170.175 103.98 169.866C104.049 169.557 104.084 169.167 104.084 168.696ZM108.166 165.37C108.466 165.37 108.741 165.415 108.99 165.505C109.239 165.592 109.452 165.717 109.629 165.879C109.806 166.041 109.944 166.236 110.043 166.464C110.142 166.692 110.191 166.945 110.191 167.224C110.191 167.464 110.155 167.686 110.083 167.89C110.014 168.094 109.92 168.289 109.8 168.475C109.683 168.661 109.545 168.841 109.386 169.015C109.227 169.189 109.06 169.366 108.886 169.546L107.419 171.045C107.563 171.003 107.704 170.971 107.842 170.95C107.98 170.926 108.112 170.914 108.238 170.914H109.908C110.028 170.914 110.122 170.949 110.191 171.018C110.263 171.084 110.299 171.172 110.299 171.283V171.949H105.835V171.58C105.835 171.505 105.85 171.427 105.88 171.346C105.913 171.265 105.964 171.19 106.033 171.121L108.009 169.141C108.174 168.973 108.321 168.813 108.45 168.66C108.582 168.507 108.691 168.355 108.778 168.205C108.868 168.055 108.936 167.904 108.981 167.751C109.029 167.595 109.053 167.431 109.053 167.26C109.053 167.104 109.03 166.968 108.985 166.851C108.94 166.731 108.876 166.63 108.792 166.549C108.708 166.468 108.607 166.408 108.49 166.369C108.376 166.327 108.247 166.306 108.103 166.306C107.836 166.306 107.616 166.374 107.442 166.509C107.271 166.644 107.151 166.825 107.082 167.053C107.049 167.167 106.999 167.25 106.933 167.301C106.867 167.349 106.783 167.373 106.681 167.373C106.636 167.373 106.587 167.368 106.533 167.359L105.948 167.256C105.993 166.944 106.08 166.671 106.209 166.437C106.338 166.2 106.498 166.003 106.69 165.847C106.885 165.688 107.107 165.57 107.356 165.492C107.608 165.411 107.878 165.37 108.166 165.37ZM114.917 169.497H115.736V170.14C115.736 170.2 115.716 170.253 115.677 170.298C115.638 170.34 115.581 170.361 115.506 170.361H114.917V171.949H113.945V170.361H111.2C111.125 170.361 111.059 170.338 111.002 170.293C110.945 170.245 110.909 170.187 110.894 170.118L110.781 169.555L113.864 165.438H114.917V169.497ZM113.945 167.368C113.945 167.272 113.948 167.169 113.954 167.058C113.96 166.947 113.97 166.831 113.985 166.711L111.965 169.497H113.945V167.368Z" fill="#FAC47E"/>
<path d="M65.3475 186.237C65.3475 186.837 65.2725 187.374 65.1225 187.849C64.9775 188.324 64.76 188.727 64.47 189.057C64.185 189.382 63.8325 189.632 63.4125 189.807C62.9925 189.982 62.51 190.069 61.965 190.069C61.48 190.069 60.975 189.999 60.45 189.859C60.46 189.714 60.4725 189.572 60.4875 189.432C60.5025 189.287 60.5175 189.144 60.5325 189.004C60.5425 188.919 60.5725 188.852 60.6225 188.802C60.6775 188.747 60.7575 188.719 60.8625 188.719C60.9525 188.719 61.0725 188.742 61.2225 188.787C61.3725 188.832 61.5725 188.854 61.8225 188.854C62.1525 188.854 62.445 188.804 62.7 188.704C62.96 188.604 63.1775 188.449 63.3525 188.239C63.5325 188.029 63.6675 187.762 63.7575 187.437C63.8525 187.107 63.9 186.717 63.9 186.267V179.202H65.3475V186.237ZM72.1475 188.794C72.5925 188.794 72.99 188.719 73.34 188.569C73.69 188.419 73.985 188.209 74.225 187.939C74.47 187.669 74.655 187.347 74.78 186.972C74.91 186.597 74.975 186.184 74.975 185.734V179.202H76.4225V185.734C76.4225 186.354 76.3225 186.929 76.1225 187.459C75.9275 187.989 75.645 188.449 75.275 188.839C74.91 189.224 74.4625 189.527 73.9325 189.747C73.4025 189.967 72.8075 190.077 72.1475 190.077C71.4875 190.077 70.8925 189.967 70.3625 189.747C69.8325 189.527 69.3825 189.224 69.0125 188.839C68.6425 188.449 68.3575 187.989 68.1575 187.459C67.9625 186.929 67.865 186.354 67.865 185.734V179.202H69.3125V185.727C69.3125 186.177 69.375 186.589 69.5 186.964C69.63 187.339 69.815 187.662 70.055 187.932C70.3 188.202 70.5975 188.414 70.9475 188.569C71.3025 188.719 71.7025 188.794 72.1475 188.794ZM88.2421 184.579C88.2421 185.384 88.1146 186.117 87.8596 186.777C87.6046 187.437 87.2446 188.002 86.7796 188.472C86.3146 188.942 85.7571 189.307 85.1071 189.567C84.4571 189.822 83.7371 189.949 82.9471 189.949H78.9271V179.202H82.9471C83.7371 179.202 84.4571 179.332 85.1071 179.592C85.7571 179.847 86.3146 180.212 86.7796 180.687C87.2446 181.157 87.6046 181.722 87.8596 182.382C88.1146 183.042 88.2421 183.774 88.2421 184.579ZM86.7496 184.579C86.7496 183.919 86.6596 183.329 86.4796 182.809C86.2996 182.289 86.0446 181.849 85.7146 181.489C85.3846 181.129 84.9846 180.854 84.5146 180.664C84.0446 180.474 83.5221 180.379 82.9471 180.379H80.3896V188.772H82.9471C83.5221 188.772 84.0446 188.677 84.5146 188.487C84.9846 188.297 85.3846 188.024 85.7146 187.669C86.0446 187.309 86.2996 186.869 86.4796 186.349C86.6596 185.829 86.7496 185.239 86.7496 184.579ZM95.0135 188.892C95.3035 188.892 95.5685 188.879 95.8085 188.854C96.0535 188.824 96.2835 188.782 96.4985 188.727C96.7135 188.672 96.916 188.607 97.106 188.532C97.296 188.452 97.486 188.362 97.676 188.262V185.892H96.011C95.916 185.892 95.8385 185.864 95.7785 185.809C95.7235 185.754 95.696 185.687 95.696 185.607V184.782H98.996V188.907C98.726 189.102 98.4435 189.272 98.1485 189.417C97.8585 189.562 97.546 189.684 97.211 189.784C96.881 189.879 96.526 189.949 96.146 189.994C95.766 190.044 95.3535 190.069 94.9085 190.069C94.1285 190.069 93.4135 189.937 92.7635 189.672C92.1135 189.402 91.5535 189.027 91.0835 188.547C90.6135 188.062 90.246 187.482 89.981 186.807C89.721 186.132 89.591 185.389 89.591 184.579C89.591 183.759 89.7185 183.012 89.9735 182.337C90.2335 181.662 90.601 181.084 91.076 180.604C91.556 180.119 92.1335 179.744 92.8085 179.479C93.4885 179.214 94.2485 179.082 95.0885 179.082C95.5135 179.082 95.9085 179.114 96.2735 179.179C96.6385 179.239 96.976 179.329 97.286 179.449C97.601 179.564 97.891 179.707 98.156 179.877C98.421 180.042 98.6685 180.229 98.8985 180.439L98.486 181.099C98.401 181.234 98.291 181.302 98.156 181.302C98.076 181.302 97.9885 181.274 97.8935 181.219C97.7685 181.149 97.6285 181.064 97.4735 180.964C97.3185 180.864 97.1285 180.769 96.9035 180.679C96.6835 180.584 96.421 180.504 96.116 180.439C95.816 180.374 95.4585 180.342 95.0435 180.342C94.4385 180.342 93.891 180.442 93.401 180.642C92.911 180.837 92.4935 181.119 92.1485 181.489C91.8035 181.854 91.5385 182.299 91.3535 182.824C91.1685 183.344 91.076 183.929 91.076 184.579C91.076 185.259 91.171 185.867 91.361 186.402C91.556 186.932 91.8285 187.382 92.1785 187.752C92.5285 188.122 92.9435 188.404 93.4235 188.599C93.9035 188.794 94.4335 188.892 95.0135 188.892ZM102.962 189.949H101.507V179.202H102.962V189.949ZM106.586 179.202C106.716 179.202 106.811 179.219 106.871 179.254C106.936 179.284 107.009 179.349 107.089 179.449L113.314 187.549C113.299 187.419 113.289 187.294 113.284 187.174C113.279 187.049 113.276 186.929 113.276 186.814V179.202H114.551V189.949H113.816C113.701 189.949 113.604 189.929 113.524 189.889C113.449 189.849 113.374 189.782 113.299 189.687L107.081 181.594C107.091 181.719 107.099 181.842 107.104 181.962C107.109 182.082 107.111 182.192 107.111 182.292V189.949H105.836V179.202H106.586ZM121.967 188.892C122.257 188.892 122.522 188.879 122.762 188.854C123.007 188.824 123.237 188.782 123.452 188.727C123.667 188.672 123.869 188.607 124.059 188.532C124.249 188.452 124.439 188.362 124.629 188.262V185.892H122.964C122.869 185.892 122.792 185.864 122.732 185.809C122.677 185.754 122.649 185.687 122.649 185.607V184.782H125.949V188.907C125.679 189.102 125.397 189.272 125.102 189.417C124.812 189.562 124.499 189.684 124.164 189.784C123.834 189.879 123.479 189.949 123.099 189.994C122.719 190.044 122.307 190.069 121.862 190.069C121.082 190.069 120.367 189.937 119.717 189.672C119.067 189.402 118.507 189.027 118.037 188.547C117.567 188.062 117.199 187.482 116.934 186.807C116.674 186.132 116.544 185.389 116.544 184.579C116.544 183.759 116.672 183.012 116.927 182.337C117.187 181.662 117.554 181.084 118.029 180.604C118.509 180.119 119.087 179.744 119.762 179.479C120.442 179.214 121.202 179.082 122.042 179.082C122.467 179.082 122.862 179.114 123.227 179.179C123.592 179.239 123.929 179.329 124.239 179.449C124.554 179.564 124.844 179.707 125.109 179.877C125.374 180.042 125.622 180.229 125.852 180.439L125.439 181.099C125.354 181.234 125.244 181.302 125.109 181.302C125.029 181.302 124.942 181.274 124.847 181.219C124.722 181.149 124.582 181.064 124.427 180.964C124.272 180.864 124.082 180.769 123.857 180.679C123.637 180.584 123.374 180.504 123.069 180.439C122.769 180.374 122.412 180.342 121.997 180.342C121.392 180.342 120.844 180.442 120.354 180.642C119.864 180.837 119.447 181.119 119.102 181.489C118.757 181.854 118.492 182.299 118.307 182.824C118.122 183.344 118.029 183.929 118.029 184.579C118.029 185.259 118.124 185.867 118.314 186.402C118.509 186.932 118.782 187.382 119.132 187.752C119.482 188.122 119.897 188.404 120.377 188.599C120.857 188.794 121.387 188.892 121.967 188.892ZM132.688 185.929V189.949H131.24V179.202H134.413C135.093 179.202 135.683 179.282 136.183 179.442C136.688 179.597 137.105 179.819 137.435 180.109C137.765 180.399 138.01 180.749 138.17 181.159C138.335 181.569 138.418 182.027 138.418 182.532C138.418 183.032 138.33 183.489 138.155 183.904C137.98 184.319 137.723 184.677 137.383 184.977C137.048 185.277 136.63 185.512 136.13 185.682C135.63 185.847 135.058 185.929 134.413 185.929H132.688ZM132.688 184.774H134.413C134.828 184.774 135.193 184.719 135.508 184.609C135.828 184.499 136.095 184.347 136.31 184.152C136.525 183.952 136.688 183.714 136.798 183.439C136.908 183.164 136.963 182.862 136.963 182.532C136.963 181.847 136.75 181.312 136.325 180.927C135.905 180.542 135.268 180.349 134.413 180.349H132.688V184.774ZM141.858 185.464V189.949H140.41V179.202H143.448C144.128 179.202 144.715 179.272 145.21 179.412C145.705 179.547 146.113 179.744 146.433 180.004C146.758 180.264 146.998 180.579 147.153 180.949C147.308 181.314 147.385 181.724 147.385 182.179C147.385 182.559 147.325 182.914 147.205 183.244C147.085 183.574 146.91 183.872 146.68 184.137C146.455 184.397 146.178 184.619 145.848 184.804C145.523 184.989 145.153 185.129 144.738 185.224C144.918 185.329 145.078 185.482 145.218 185.682L148.353 189.949H147.063C146.798 189.949 146.603 189.847 146.478 189.642L143.688 185.802C143.603 185.682 143.51 185.597 143.41 185.547C143.31 185.492 143.16 185.464 142.96 185.464H141.858ZM141.858 184.407H143.38C143.805 184.407 144.178 184.357 144.498 184.257C144.823 184.152 145.093 184.007 145.308 183.822C145.528 183.632 145.693 183.407 145.803 183.147C145.913 182.887 145.968 182.599 145.968 182.284C145.968 181.644 145.755 181.162 145.33 180.837C144.91 180.512 144.283 180.349 143.448 180.349H141.858V184.407ZM159.544 184.579C159.544 185.384 159.417 186.124 159.162 186.799C158.907 187.469 158.547 188.047 158.082 188.532C157.617 189.017 157.057 189.394 156.402 189.664C155.752 189.929 155.032 190.062 154.242 190.062C153.452 190.062 152.732 189.929 152.082 189.664C151.432 189.394 150.874 189.017 150.409 188.532C149.944 188.047 149.584 187.469 149.329 186.799C149.074 186.124 148.947 185.384 148.947 184.579C148.947 183.774 149.074 183.037 149.329 182.367C149.584 181.692 149.944 181.112 150.409 180.627C150.874 180.137 151.432 179.757 152.082 179.487C152.732 179.217 153.452 179.082 154.242 179.082C155.032 179.082 155.752 179.217 156.402 179.487C157.057 179.757 157.617 180.137 158.082 180.627C158.547 181.112 158.907 181.692 159.162 182.367C159.417 183.037 159.544 183.774 159.544 184.579ZM158.052 184.579C158.052 183.919 157.962 183.327 157.782 182.802C157.602 182.277 157.347 181.834 157.017 181.474C156.687 181.109 156.287 180.829 155.817 180.634C155.347 180.439 154.822 180.342 154.242 180.342C153.667 180.342 153.144 180.439 152.674 180.634C152.204 180.829 151.802 181.109 151.467 181.474C151.137 181.834 150.882 182.277 150.702 182.802C150.522 183.327 150.432 183.919 150.432 184.579C150.432 185.239 150.522 185.832 150.702 186.357C150.882 186.877 151.137 187.319 151.467 187.684C151.802 188.044 152.204 188.322 152.674 188.517C153.144 188.707 153.667 188.802 154.242 188.802C154.822 188.802 155.347 188.707 155.817 188.517C156.287 188.322 156.687 188.044 157.017 187.684C157.347 187.319 157.602 186.877 157.782 186.357C157.962 185.832 158.052 185.239 158.052 184.579ZM169.105 187.729C169.185 187.729 169.257 187.762 169.322 187.827L169.892 188.449C169.452 188.959 168.917 189.357 168.287 189.642C167.662 189.927 166.907 190.069 166.022 190.069C165.247 190.069 164.545 189.937 163.915 189.672C163.285 189.402 162.747 189.027 162.302 188.547C161.857 188.062 161.512 187.482 161.267 186.807C161.022 186.132 160.9 185.389 160.9 184.579C160.9 183.769 161.03 183.027 161.29 182.352C161.555 181.677 161.925 181.097 162.4 180.612C162.875 180.127 163.442 179.752 164.102 179.487C164.767 179.217 165.5 179.082 166.3 179.082C167.09 179.082 167.77 179.204 168.34 179.449C168.915 179.694 169.425 180.027 169.87 180.447L169.397 181.114C169.362 181.164 169.322 181.207 169.277 181.242C169.232 181.272 169.167 181.287 169.082 181.287C169.017 181.287 168.947 181.264 168.872 181.219C168.802 181.169 168.717 181.109 168.617 181.039C168.517 180.969 168.4 180.894 168.265 180.814C168.13 180.734 167.97 180.659 167.785 180.589C167.6 180.519 167.385 180.462 167.14 180.417C166.895 180.367 166.612 180.342 166.292 180.342C165.717 180.342 165.19 180.442 164.71 180.642C164.235 180.837 163.825 181.117 163.48 181.482C163.135 181.847 162.865 182.292 162.67 182.817C162.48 183.342 162.385 183.929 162.385 184.579C162.385 185.249 162.48 185.847 162.67 186.372C162.865 186.897 163.127 187.342 163.457 187.707C163.792 188.067 164.187 188.342 164.642 188.532C165.097 188.722 165.587 188.817 166.112 188.817C166.432 188.817 166.72 188.799 166.975 188.764C167.23 188.724 167.465 188.664 167.68 188.584C167.9 188.504 168.102 188.404 168.287 188.284C168.477 188.159 168.667 188.012 168.857 187.842C168.942 187.767 169.025 187.729 169.105 187.729ZM178.421 179.202V180.387H173.261V183.957H177.438V185.097H173.261V188.764H178.421V189.949H171.798V179.202H178.421ZM186.019 180.882C185.974 180.957 185.926 181.014 185.876 181.054C185.826 181.089 185.761 181.107 185.681 181.107C185.596 181.107 185.496 181.064 185.381 180.979C185.271 180.894 185.129 180.802 184.954 180.702C184.784 180.597 184.576 180.502 184.331 180.417C184.091 180.332 183.799 180.289 183.454 180.289C183.129 180.289 182.841 180.334 182.591 180.424C182.341 180.509 182.131 180.627 181.961 180.777C181.796 180.927 181.671 181.104 181.586 181.309C181.501 181.509 181.459 181.727 181.459 181.962C181.459 182.262 181.531 182.512 181.676 182.712C181.826 182.907 182.021 183.074 182.261 183.214C182.506 183.354 182.781 183.477 183.086 183.582C183.396 183.682 183.711 183.787 184.031 183.897C184.356 184.007 184.671 184.132 184.976 184.272C185.286 184.407 185.561 184.579 185.801 184.789C186.046 184.999 186.241 185.257 186.386 185.562C186.536 185.867 186.611 186.242 186.611 186.687C186.611 187.157 186.531 187.599 186.371 188.014C186.211 188.424 185.976 188.782 185.666 189.087C185.361 189.392 184.984 189.632 184.534 189.807C184.089 189.982 183.581 190.069 183.011 190.069C182.316 190.069 181.681 189.944 181.106 189.694C180.536 189.439 180.049 189.097 179.644 188.667L180.064 187.977C180.104 187.922 180.151 187.877 180.206 187.842C180.266 187.802 180.331 187.782 180.401 187.782C180.506 187.782 180.626 187.839 180.761 187.954C180.896 188.064 181.064 188.187 181.264 188.322C181.469 188.457 181.714 188.582 181.999 188.697C182.289 188.807 182.641 188.862 183.056 188.862C183.401 188.862 183.709 188.814 183.979 188.719C184.249 188.624 184.476 188.492 184.661 188.322C184.851 188.147 184.996 187.939 185.096 187.699C185.196 187.459 185.246 187.192 185.246 186.897C185.246 186.572 185.171 186.307 185.021 186.102C184.876 185.892 184.684 185.717 184.444 185.577C184.204 185.437 183.929 185.319 183.619 185.224C183.314 185.124 182.999 185.024 182.674 184.924C182.354 184.819 182.039 184.699 181.729 184.564C181.424 184.429 181.151 184.254 180.911 184.039C180.671 183.824 180.476 183.557 180.326 183.237C180.181 182.912 180.109 182.512 180.109 182.037C180.109 181.657 180.181 181.289 180.326 180.934C180.476 180.579 180.691 180.264 180.971 179.989C181.251 179.714 181.596 179.494 182.006 179.329C182.421 179.164 182.896 179.082 183.431 179.082C184.031 179.082 184.579 179.177 185.074 179.367C185.569 179.557 186.001 179.832 186.371 180.192L186.019 180.882ZM193.973 180.882C193.928 180.957 193.881 181.014 193.831 181.054C193.781 181.089 193.716 181.107 193.636 181.107C193.551 181.107 193.451 181.064 193.336 180.979C193.226 180.894 193.083 180.802 192.908 180.702C192.738 180.597 192.531 180.502 192.286 180.417C192.046 180.332 191.753 180.289 191.408 180.289C191.083 180.289 190.796 180.334 190.546 180.424C190.296 180.509 190.086 180.627 189.916 180.777C189.751 180.927 189.626 181.104 189.541 181.309C189.456 181.509 189.413 181.727 189.413 181.962C189.413 182.262 189.486 182.512 189.631 182.712C189.781 182.907 189.976 183.074 190.216 183.214C190.461 183.354 190.736 183.477 191.041 183.582C191.351 183.682 191.666 183.787 191.986 183.897C192.311 184.007 192.626 184.132 192.931 184.272C193.241 184.407 193.516 184.579 193.756 184.789C194.001 184.999 194.196 185.257 194.341 185.562C194.491 185.867 194.566 186.242 194.566 186.687C194.566 187.157 194.486 187.599 194.326 188.014C194.166 188.424 193.931 188.782 193.621 189.087C193.316 189.392 192.938 189.632 192.488 189.807C192.043 189.982 191.536 190.069 190.966 190.069C190.271 190.069 189.636 189.944 189.061 189.694C188.491 189.439 188.003 189.097 187.598 188.667L188.018 187.977C188.058 187.922 188.106 187.877 188.161 187.842C188.221 187.802 188.286 187.782 188.356 187.782C188.461 187.782 188.581 187.839 188.716 187.954C188.851 188.064 189.018 188.187 189.218 188.322C189.423 188.457 189.668 188.582 189.953 188.697C190.243 188.807 190.596 188.862 191.011 188.862C191.356 188.862 191.663 188.814 191.933 188.719C192.203 188.624 192.431 188.492 192.616 188.322C192.806 188.147 192.951 187.939 193.051 187.699C193.151 187.459 193.201 187.192 193.201 186.897C193.201 186.572 193.126 186.307 192.976 186.102C192.831 185.892 192.638 185.717 192.398 185.577C192.158 185.437 191.883 185.319 191.573 185.224C191.268 185.124 190.953 185.024 190.628 184.924C190.308 184.819 189.993 184.699 189.683 184.564C189.378 184.429 189.106 184.254 188.866 184.039C188.626 183.824 188.431 183.557 188.281 183.237C188.136 182.912 188.063 182.512 188.063 182.037C188.063 181.657 188.136 181.289 188.281 180.934C188.431 180.579 188.646 180.264 188.926 179.989C189.206 179.714 189.551 179.494 189.961 179.329C190.376 179.164 190.851 179.082 191.386 179.082C191.986 179.082 192.533 179.177 193.028 179.367C193.523 179.557 193.956 179.832 194.326 180.192L193.973 180.882Z" fill="white"/>
<path d="M63.276 235.636C63.276 236.002 63.231 236.332 63.141 236.626C63.051 236.92 62.916 237.171 62.736 237.378C62.559 237.585 62.337 237.744 62.07 237.855C61.803 237.966 61.4925 238.021 61.1385 238.021C60.9765 238.021 60.8175 238.011 60.6615 237.99C60.5055 237.972 60.342 237.942 60.171 237.9L60.234 237.18C60.24 237.114 60.264 237.061 60.306 237.022C60.351 236.98 60.4155 236.959 60.4995 236.959C60.5505 236.959 60.6165 236.97 60.6975 236.991C60.7815 237.012 60.8865 237.022 61.0125 237.022C61.1835 237.022 61.335 236.998 61.467 236.95C61.599 236.899 61.7085 236.82 61.7955 236.712C61.8855 236.604 61.953 236.464 61.998 236.293C62.043 236.119 62.0655 235.909 62.0655 235.663V231.442H63.276V235.636ZM67.2047 236.973C67.4387 236.973 67.6472 236.934 67.8302 236.856C68.0162 236.778 68.1722 236.668 68.2982 236.527C68.4272 236.386 68.5247 236.215 68.5907 236.014C68.6597 235.813 68.6942 235.588 68.6942 235.339V231.442H69.9047V235.339C69.9047 235.726 69.8417 236.085 69.7157 236.415C69.5927 236.742 69.4142 237.025 69.1802 237.265C68.9462 237.502 68.6627 237.688 68.3297 237.823C67.9967 237.955 67.6217 238.021 67.2047 238.021C66.7877 238.021 66.4127 237.955 66.0797 237.823C65.7467 237.688 65.4632 237.502 65.2292 237.265C64.9982 237.025 64.8197 236.742 64.6937 236.415C64.5707 236.085 64.5092 235.726 64.5092 235.339V231.442H65.7197V235.335C65.7197 235.584 65.7527 235.809 65.8187 236.01C65.8877 236.211 65.9852 236.383 66.1112 236.527C66.2372 236.668 66.3917 236.778 66.5747 236.856C66.7607 236.934 66.9707 236.973 67.2047 236.973ZM71.7681 231.442C71.8221 231.442 71.8671 231.445 71.9031 231.451C71.9391 231.454 71.9706 231.463 71.9976 231.478C72.0276 231.49 72.0561 231.51 72.0831 231.537C72.1101 231.561 72.1401 231.594 72.1731 231.636L75.5886 235.987C75.5766 235.882 75.5676 235.78 75.5616 235.681C75.5586 235.579 75.5571 235.485 75.5571 235.398V231.442H76.6236V237.949H75.9981C75.9021 237.949 75.8226 237.934 75.7596 237.904C75.6966 237.874 75.6351 237.82 75.5751 237.742L72.1731 233.409C72.1821 233.505 72.1881 233.601 72.1911 233.697C72.1971 233.79 72.2001 233.875 72.2001 233.953V237.949H71.1336V231.442H71.7681ZM82.0403 231.442V232.405H79.1558V234.21H81.4283V235.141H79.1558V236.982H82.0403V237.949H77.9363V231.442H82.0403ZM86.8789 231.37C87.1789 231.37 87.4534 231.415 87.7024 231.505C87.9514 231.592 88.1644 231.717 88.3414 231.879C88.5184 232.041 88.6564 232.236 88.7554 232.464C88.8544 232.692 88.9039 232.945 88.9039 233.224C88.9039 233.464 88.8679 233.686 88.7959 233.89C88.7269 234.094 88.6324 234.289 88.5124 234.475C88.3954 234.661 88.2574 234.841 88.0984 235.015C87.9394 235.189 87.7729 235.366 87.5989 235.546L86.1319 237.045C86.2759 237.003 86.4169 236.971 86.5549 236.95C86.6929 236.926 86.8249 236.914 86.9509 236.914H88.6204C88.7404 236.914 88.8349 236.949 88.9039 237.018C88.9759 237.084 89.0119 237.172 89.0119 237.283V237.949H84.5479V237.58C84.5479 237.505 84.5629 237.427 84.5929 237.346C84.6259 237.265 84.6769 237.19 84.7459 237.121L86.7214 235.141C86.8864 234.973 87.0334 234.813 87.1624 234.66C87.2944 234.507 87.4039 234.355 87.4909 234.205C87.5809 234.055 87.6484 233.904 87.6934 233.751C87.7414 233.595 87.7654 233.431 87.7654 233.26C87.7654 233.104 87.7429 232.968 87.6979 232.851C87.6529 232.731 87.5884 232.63 87.5044 232.549C87.4204 232.468 87.3199 232.408 87.2029 232.369C87.0889 232.327 86.9599 232.306 86.8159 232.306C86.5489 232.306 86.3284 232.374 86.1544 232.509C85.9834 232.644 85.8634 232.825 85.7944 233.053C85.7614 233.167 85.7119 233.25 85.6459 233.301C85.5799 233.349 85.4959 233.373 85.3939 233.373C85.3489 233.373 85.2994 233.368 85.2454 233.359L84.6604 233.256C84.7054 232.944 84.7924 232.671 84.9214 232.437C85.0504 232.2 85.2109 232.003 85.4029 231.847C85.5979 231.688 85.8199 231.57 86.0689 231.492C86.3209 231.411 86.5909 231.37 86.8789 231.37ZM94.3856 234.696C94.3856 235.263 94.3241 235.756 94.2011 236.176C94.0811 236.593 93.9131 236.938 93.6971 237.211C93.4841 237.484 93.2306 237.688 92.9366 237.823C92.6456 237.955 92.3306 238.021 91.9916 238.021C91.6526 238.021 91.3376 237.955 91.0466 237.823C90.7586 237.688 90.5081 237.484 90.2951 237.211C90.0821 236.938 89.9156 236.593 89.7956 236.176C89.6756 235.756 89.6156 235.263 89.6156 234.696C89.6156 234.126 89.6756 233.632 89.7956 233.215C89.9156 232.798 90.0821 232.453 90.2951 232.18C90.5081 231.907 90.7586 231.705 91.0466 231.573C91.3376 231.438 91.6526 231.37 91.9916 231.37C92.3306 231.37 92.6456 231.438 92.9366 231.573C93.2306 231.705 93.4841 231.907 93.6971 232.18C93.9131 232.453 94.0811 232.798 94.2011 233.215C94.3241 233.632 94.3856 234.126 94.3856 234.696ZM93.2381 234.696C93.2381 234.225 93.2036 233.835 93.1346 233.526C93.0656 233.217 92.9726 232.971 92.8556 232.788C92.7416 232.605 92.6096 232.477 92.4596 232.405C92.3096 232.33 92.1536 232.293 91.9916 232.293C91.8326 232.293 91.6781 232.33 91.5281 232.405C91.3811 232.477 91.2506 232.605 91.1366 232.788C91.0226 232.971 90.9311 233.217 90.8621 233.526C90.7961 233.835 90.7631 234.225 90.7631 234.696C90.7631 235.167 90.7961 235.557 90.8621 235.866C90.9311 236.175 91.0226 236.421 91.1366 236.604C91.2506 236.787 91.3811 236.916 91.5281 236.991C91.6781 237.063 91.8326 237.099 91.9916 237.099C92.1536 237.099 92.3096 237.063 92.4596 236.991C92.6096 236.916 92.7416 236.787 92.8556 236.604C92.9726 236.421 93.0656 236.175 93.1346 235.866C93.2036 235.557 93.2381 235.167 93.2381 234.696ZM97.3203 231.37C97.6203 231.37 97.8948 231.415 98.1438 231.505C98.3928 231.592 98.6058 231.717 98.7828 231.879C98.9598 232.041 99.0978 232.236 99.1968 232.464C99.2958 232.692 99.3453 232.945 99.3453 233.224C99.3453 233.464 99.3093 233.686 99.2373 233.89C99.1683 234.094 99.0738 234.289 98.9538 234.475C98.8368 234.661 98.6988 234.841 98.5398 235.015C98.3808 235.189 98.2143 235.366 98.0403 235.546L96.5733 237.045C96.7173 237.003 96.8583 236.971 96.9963 236.95C97.1343 236.926 97.2663 236.914 97.3923 236.914H99.0618C99.1818 236.914 99.2763 236.949 99.3453 237.018C99.4173 237.084 99.4533 237.172 99.4533 237.283V237.949H94.9893V237.58C94.9893 237.505 95.0043 237.427 95.0343 237.346C95.0673 237.265 95.1183 237.19 95.1873 237.121L97.1628 235.141C97.3278 234.973 97.4748 234.813 97.6038 234.66C97.7358 234.507 97.8453 234.355 97.9323 234.205C98.0223 234.055 98.0898 233.904 98.1348 233.751C98.1828 233.595 98.2068 233.431 98.2068 233.26C98.2068 233.104 98.1843 232.968 98.1393 232.851C98.0943 232.731 98.0298 232.63 97.9458 232.549C97.8618 232.468 97.7613 232.408 97.6443 232.369C97.5303 232.327 97.4013 232.306 97.2573 232.306C96.9903 232.306 96.7698 232.374 96.5958 232.509C96.4248 232.644 96.3048 232.825 96.2358 233.053C96.2028 233.167 96.1533 233.25 96.0873 233.301C96.0213 233.349 95.9373 233.373 95.8353 233.373C95.7903 233.373 95.7408 233.368 95.6868 233.359L95.1018 233.256C95.1468 232.944 95.2338 232.671 95.3628 232.437C95.4918 232.2 95.6523 232.003 95.8443 231.847C96.0393 231.688 96.2613 231.57 96.5103 231.492C96.7623 231.411 97.0323 231.37 97.3203 231.37ZM104.071 235.497H104.89V236.14C104.89 236.2 104.871 236.253 104.832 236.298C104.793 236.34 104.736 236.361 104.661 236.361H104.071V237.949H103.099V236.361H100.354C100.279 236.361 100.213 236.338 100.156 236.293C100.099 236.245 100.063 236.187 100.048 236.118L99.9355 235.555L103.018 231.438H104.071V235.497ZM103.099 233.368C103.099 233.272 103.102 233.169 103.108 233.058C103.114 232.947 103.125 232.831 103.14 232.711L101.119 235.497H103.099V233.368Z" fill="#FAC47E"/>
<path d="M64.5075 245.082C64.9625 245.082 65.3875 245.149 65.7825 245.284C66.1775 245.419 66.5175 245.617 66.8025 245.877C67.0925 246.132 67.32 246.444 67.485 246.814C67.65 247.184 67.7325 247.604 67.7325 248.074C67.7325 248.474 67.6725 248.844 67.5525 249.184C67.4325 249.524 67.27 249.852 67.065 250.167C66.86 250.477 66.6225 250.779 66.3525 251.074C66.0875 251.364 65.805 251.662 65.505 251.967L62.6775 254.862C62.8775 254.807 63.08 254.764 63.285 254.734C63.49 254.699 63.6875 254.682 63.8775 254.682H67.4775C67.6225 254.682 67.7375 254.724 67.8225 254.809C67.9075 254.894 67.95 255.004 67.95 255.139V255.949H60.78V255.492C60.78 255.397 60.7975 255.299 60.8325 255.199C60.8725 255.099 60.935 255.007 61.02 254.922L64.4625 251.464C64.7475 251.174 65.0075 250.897 65.2425 250.632C65.4775 250.362 65.6775 250.092 65.8425 249.822C66.0125 249.552 66.1425 249.279 66.2325 249.004C66.3225 248.724 66.3675 248.427 66.3675 248.112C66.3675 247.797 66.3175 247.522 66.2175 247.287C66.1175 247.047 65.98 246.849 65.805 246.694C65.63 246.539 65.425 246.424 65.19 246.349C64.955 246.269 64.7025 246.229 64.4325 246.229C64.1625 246.229 63.9125 246.269 63.6825 246.349C63.4525 246.429 63.2475 246.542 63.0675 246.687C62.8925 246.827 62.7425 246.994 62.6175 247.189C62.4975 247.384 62.4125 247.599 62.3625 247.834C62.3225 247.979 62.2625 248.084 62.1825 248.149C62.1025 248.214 61.9975 248.247 61.8675 248.247C61.8425 248.247 61.815 248.247 61.785 248.247C61.76 248.242 61.73 248.237 61.695 248.232L60.9975 248.112C61.0675 247.622 61.2025 247.189 61.4025 246.814C61.6025 246.434 61.855 246.117 62.16 245.862C62.47 245.607 62.8225 245.414 63.2175 245.284C63.6175 245.149 64.0475 245.082 64.5075 245.082ZM76.9512 250.579C76.9512 251.519 76.8487 252.334 76.6437 253.024C76.4437 253.709 76.1687 254.277 75.8187 254.727C75.4687 255.177 75.0537 255.512 74.5737 255.732C74.0987 255.952 73.5887 256.062 73.0437 256.062C72.4937 256.062 71.9812 255.952 71.5062 255.732C71.0362 255.512 70.6262 255.177 70.2762 254.727C69.9262 254.277 69.6512 253.709 69.4512 253.024C69.2512 252.334 69.1512 251.519 69.1512 250.579C69.1512 249.639 69.2512 248.824 69.4512 248.134C69.6512 247.444 69.9262 246.874 70.2762 246.424C70.6262 245.969 71.0362 245.632 71.5062 245.412C71.9812 245.192 72.4937 245.082 73.0437 245.082C73.5887 245.082 74.0987 245.192 74.5737 245.412C75.0537 245.632 75.4687 245.969 75.8187 246.424C76.1687 246.874 76.4437 247.444 76.6437 248.134C76.8487 248.824 76.9512 249.639 76.9512 250.579ZM75.5637 250.579C75.5637 249.759 75.4937 249.072 75.3537 248.517C75.2187 247.957 75.0337 247.507 74.7987 247.167C74.5687 246.827 74.3012 246.584 73.9962 246.439C73.6912 246.289 73.3737 246.214 73.0437 246.214C72.7137 246.214 72.3962 246.289 72.0912 246.439C71.7862 246.584 71.5187 246.827 71.2887 247.167C71.0587 247.507 70.8737 247.957 70.7337 248.517C70.5987 249.072 70.5312 249.759 70.5312 250.579C70.5312 251.399 70.5987 252.087 70.7337 252.642C70.8737 253.197 71.0587 253.644 71.2887 253.984C71.5187 254.324 71.7862 254.569 72.0912 254.719C72.3962 254.864 72.7137 254.937 73.0437 254.937C73.3737 254.937 73.6912 254.864 73.9962 254.719C74.3012 254.569 74.5687 254.324 74.7987 253.984C75.0337 253.644 75.2187 253.197 75.3537 252.642C75.4937 252.087 75.5637 251.399 75.5637 250.579ZM81.9098 245.082C82.3648 245.082 82.7898 245.149 83.1848 245.284C83.5798 245.419 83.9198 245.617 84.2048 245.877C84.4948 246.132 84.7223 246.444 84.8873 246.814C85.0523 247.184 85.1348 247.604 85.1348 248.074C85.1348 248.474 85.0748 248.844 84.9548 249.184C84.8348 249.524 84.6723 249.852 84.4673 250.167C84.2623 250.477 84.0248 250.779 83.7548 251.074C83.4898 251.364 83.2073 251.662 82.9073 251.967L80.0798 254.862C80.2798 254.807 80.4823 254.764 80.6873 254.734C80.8923 254.699 81.0898 254.682 81.2798 254.682H84.8798C85.0248 254.682 85.1398 254.724 85.2248 254.809C85.3098 254.894 85.3523 255.004 85.3523 255.139V255.949H78.1823V255.492C78.1823 255.397 78.1998 255.299 78.2348 255.199C78.2748 255.099 78.3373 255.007 78.4223 254.922L81.8648 251.464C82.1498 251.174 82.4098 250.897 82.6448 250.632C82.8798 250.362 83.0798 250.092 83.2448 249.822C83.4148 249.552 83.5448 249.279 83.6348 249.004C83.7248 248.724 83.7698 248.427 83.7698 248.112C83.7698 247.797 83.7198 247.522 83.6198 247.287C83.5198 247.047 83.3823 246.849 83.2073 246.694C83.0323 246.539 82.8273 246.424 82.5923 246.349C82.3573 246.269 82.1048 246.229 81.8348 246.229C81.5648 246.229 81.3148 246.269 81.0848 246.349C80.8548 246.429 80.6498 246.542 80.4698 246.687C80.2948 246.827 80.1448 246.994 80.0198 247.189C79.8998 247.384 79.8148 247.599 79.7648 247.834C79.7248 247.979 79.6648 248.084 79.5848 248.149C79.5048 248.214 79.3998 248.247 79.2698 248.247C79.2448 248.247 79.2173 248.247 79.1873 248.247C79.1623 248.242 79.1323 248.237 79.0973 248.232L78.3998 248.112C78.4698 247.622 78.6048 247.189 78.8048 246.814C79.0048 246.434 79.2573 246.117 79.5623 245.862C79.8723 245.607 80.2248 245.414 80.6198 245.284C81.0198 245.149 81.4498 245.082 81.9098 245.082ZM92.876 252.072H94.5035V252.837C94.5035 252.917 94.4785 252.984 94.4285 253.039C94.3835 253.094 94.311 253.122 94.211 253.122H92.876V255.949H91.6985V253.122H86.936C86.836 253.122 86.7485 253.094 86.6735 253.039C86.6035 252.979 86.5585 252.907 86.5385 252.822L86.4035 252.139L91.631 245.202H92.876V252.072ZM91.6985 247.639C91.6985 247.509 91.701 247.369 91.706 247.219C91.716 247.069 91.7335 246.914 91.7585 246.754L87.851 252.072H91.6985V247.639ZM107.853 255.949H106.728C106.598 255.949 106.493 255.917 106.413 255.852C106.333 255.787 106.273 255.704 106.233 255.604L105.228 253.009H100.405L99.4001 255.604C99.3651 255.694 99.3051 255.774 99.2201 255.844C99.1351 255.914 99.0301 255.949 98.9051 255.949H97.7801L102.078 245.202H103.555L107.853 255.949ZM100.81 251.959H104.823L103.135 247.587C103.025 247.317 102.918 246.979 102.813 246.574C102.758 246.779 102.703 246.969 102.648 247.144C102.598 247.314 102.548 247.464 102.498 247.594L100.81 251.959ZM118.048 255.949H116.923C116.793 255.949 116.688 255.917 116.608 255.852C116.528 255.787 116.468 255.704 116.428 255.604L115.423 253.009H110.6L109.595 255.604C109.56 255.694 109.5 255.774 109.415 255.844C109.33 255.914 109.225 255.949 109.1 255.949H107.975L112.273 245.202H113.75L118.048 255.949ZM111.005 251.959H115.018L113.33 247.587C113.22 247.317 113.113 246.979 113.008 246.574C112.953 246.779 112.898 246.969 112.843 247.144C112.793 247.314 112.743 247.464 112.693 247.594L111.005 251.959ZM128.716 250.579C128.716 251.384 128.588 252.117 128.333 252.777C128.078 253.437 127.718 254.002 127.253 254.472C126.788 254.942 126.231 255.307 125.581 255.567C124.931 255.822 124.211 255.949 123.421 255.949H119.401V245.202H123.421C124.211 245.202 124.931 245.332 125.581 245.592C126.231 245.847 126.788 246.212 127.253 246.687C127.718 247.157 128.078 247.722 128.333 248.382C128.588 249.042 128.716 249.774 128.716 250.579ZM127.223 250.579C127.223 249.919 127.133 249.329 126.953 248.809C126.773 248.289 126.518 247.849 126.188 247.489C125.858 247.129 125.458 246.854 124.988 246.664C124.518 246.474 123.996 246.379 123.421 246.379H120.863V254.772H123.421C123.996 254.772 124.518 254.677 124.988 254.487C125.458 254.297 125.858 254.024 126.188 253.669C126.518 253.309 126.773 252.869 126.953 252.349C127.133 251.829 127.223 251.239 127.223 250.579ZM139.215 255.949H138.09C137.96 255.949 137.855 255.917 137.775 255.852C137.695 255.787 137.635 255.704 137.595 255.604L136.59 253.009H131.767L130.762 255.604C130.727 255.694 130.667 255.774 130.582 255.844C130.497 255.914 130.392 255.949 130.267 255.949H129.142L133.44 245.202H134.917L139.215 255.949ZM132.172 251.959H136.185L134.497 247.587C134.387 247.317 134.28 246.979 134.175 246.574C134.12 246.779 134.065 246.969 134.01 247.144C133.96 247.314 133.91 247.464 133.86 247.594L132.172 251.959ZM142.268 245.202H143.476C143.606 245.202 143.713 245.234 143.798 245.299C143.883 245.364 143.941 245.447 143.971 245.547L146.191 253.017C146.231 253.152 146.266 253.297 146.296 253.452C146.331 253.607 146.363 253.769 146.393 253.939C146.428 253.769 146.463 253.607 146.498 253.452C146.533 253.292 146.573 253.147 146.618 253.017L149.146 245.547C149.176 245.462 149.233 245.384 149.318 245.314C149.408 245.239 149.516 245.202 149.641 245.202H150.061C150.191 245.202 150.296 245.234 150.376 245.299C150.461 245.364 150.521 245.447 150.556 245.547L153.068 253.017C153.158 253.277 153.238 253.574 153.308 253.909C153.338 253.744 153.366 253.587 153.391 253.437C153.416 253.287 153.448 253.147 153.488 253.017L155.716 245.547C155.741 245.457 155.796 245.377 155.881 245.307C155.971 245.237 156.078 245.202 156.203 245.202H157.336L153.983 255.949H152.678L149.956 247.752C149.901 247.597 149.851 247.417 149.806 247.212C149.781 247.312 149.756 247.409 149.731 247.504C149.711 247.594 149.688 247.677 149.663 247.752L146.926 255.949H145.621L142.268 245.202ZM160.471 255.949H159.016V245.202H160.471V255.949ZM164.096 245.202C164.226 245.202 164.321 245.219 164.381 245.254C164.446 245.284 164.519 245.349 164.599 245.449L170.824 253.549C170.809 253.419 170.799 253.294 170.794 253.174C170.789 253.049 170.786 252.929 170.786 252.814V245.202H172.061V255.949H171.326C171.211 255.949 171.114 255.929 171.034 255.889C170.959 255.849 170.884 255.782 170.809 255.687L164.591 247.594C164.601 247.719 164.609 247.842 164.614 247.962C164.619 248.082 164.621 248.192 164.621 248.292V255.949H163.346V245.202H164.096ZM175.434 245.202C175.564 245.202 175.659 245.219 175.719 245.254C175.784 245.284 175.856 245.349 175.936 245.449L182.161 253.549C182.146 253.419 182.136 253.294 182.131 253.174C182.126 253.049 182.124 252.929 182.124 252.814V245.202H183.399V255.949H182.664C182.549 255.949 182.451 255.929 182.371 255.889C182.296 255.849 182.221 255.782 182.146 255.687L175.929 247.594C175.939 247.719 175.946 247.842 175.951 247.962C175.956 248.082 175.959 248.192 175.959 248.292V255.949H174.684V245.202H175.434ZM192.644 245.202V246.387H187.484V249.957H191.662V251.097H187.484V254.764H192.644V255.949H186.022V245.202H192.644ZM196.335 251.464V255.949H194.888V245.202H197.925C198.605 245.202 199.193 245.272 199.688 245.412C200.183 245.547 200.59 245.744 200.91 246.004C201.235 246.264 201.475 246.579 201.63 246.949C201.785 247.314 201.863 247.724 201.863 248.179C201.863 248.559 201.803 248.914 201.683 249.244C201.563 249.574 201.388 249.872 201.158 250.137C200.933 250.397 200.655 250.619 200.325 250.804C200 250.989 199.63 251.129 199.215 251.224C199.395 251.329 199.555 251.482 199.695 251.682L202.83 255.949H201.54C201.275 255.949 201.08 255.847 200.955 255.642L198.165 251.802C198.08 251.682 197.988 251.597 197.888 251.547C197.788 251.492 197.638 251.464 197.438 251.464H196.335ZM196.335 250.407H197.858C198.283 250.407 198.655 250.357 198.975 250.257C199.3 250.152 199.57 250.007 199.785 249.822C200.005 249.632 200.17 249.407 200.28 249.147C200.39 248.887 200.445 248.599 200.445 248.284C200.445 247.644 200.233 247.162 199.808 246.837C199.388 246.512 198.76 246.349 197.925 246.349H196.335V250.407ZM209.896 246.882C209.851 246.957 209.803 247.014 209.753 247.054C209.703 247.089 209.638 247.107 209.558 247.107C209.473 247.107 209.373 247.064 209.258 246.979C209.148 246.894 209.006 246.802 208.831 246.702C208.661 246.597 208.453 246.502 208.208 246.417C207.968 246.332 207.676 246.289 207.331 246.289C207.006 246.289 206.718 246.334 206.468 246.424C206.218 246.509 206.008 246.627 205.838 246.777C205.673 246.927 205.548 247.104 205.463 247.309C205.378 247.509 205.336 247.727 205.336 247.962C205.336 248.262 205.408 248.512 205.553 248.712C205.703 248.907 205.898 249.074 206.138 249.214C206.383 249.354 206.658 249.477 206.963 249.582C207.273 249.682 207.588 249.787 207.908 249.897C208.233 250.007 208.548 250.132 208.853 250.272C209.163 250.407 209.438 250.579 209.678 250.789C209.923 250.999 210.118 251.257 210.263 251.562C210.413 251.867 210.488 252.242 210.488 252.687C210.488 253.157 210.408 253.599 210.248 254.014C210.088 254.424 209.853 254.782 209.543 255.087C209.238 255.392 208.861 255.632 208.411 255.807C207.966 255.982 207.458 256.069 206.888 256.069C206.193 256.069 205.558 255.944 204.983 255.694C204.413 255.439 203.926 255.097 203.521 254.667L203.941 253.977C203.981 253.922 204.028 253.877 204.083 253.842C204.143 253.802 204.208 253.782 204.278 253.782C204.383 253.782 204.503 253.839 204.638 253.954C204.773 254.064 204.941 254.187 205.141 254.322C205.346 254.457 205.591 254.582 205.876 254.697C206.166 254.807 206.518 254.862 206.933 254.862C207.278 254.862 207.586 254.814 207.856 254.719C208.126 254.624 208.353 254.492 208.538 254.322C208.728 254.147 208.873 253.939 208.973 253.699C209.073 253.459 209.123 253.192 209.123 252.897C209.123 252.572 209.048 252.307 208.898 252.102C208.753 251.892 208.561 251.717 208.321 251.577C208.081 251.437 207.806 251.319 207.496 251.224C207.191 251.124 206.876 251.024 206.551 250.924C206.231 250.819 205.916 250.699 205.606 250.564C205.301 250.429 205.028 250.254 204.788 250.039C204.548 249.824 204.353 249.557 204.203 249.237C204.058 248.912 203.986 248.512 203.986 248.037C203.986 247.657 204.058 247.289 204.203 246.934C204.353 246.579 204.568 246.264 204.848 245.989C205.128 245.714 205.473 245.494 205.883 245.329C206.298 245.164 206.773 245.082 207.308 245.082C207.908 245.082 208.456 245.177 208.951 245.367C209.446 245.557 209.878 245.832 210.248 246.192L209.896 246.882ZM213.073 244.639C213.218 244.879 213.323 245.119 213.388 245.359C213.453 245.599 213.485 245.839 213.485 246.079C213.485 246.534 213.373 246.969 213.148 247.384C212.928 247.794 212.62 248.172 212.225 248.517L211.813 248.262C211.773 248.237 211.745 248.209 211.73 248.179C211.72 248.149 211.715 248.119 211.715 248.089C211.715 248.019 211.74 247.959 211.79 247.909C211.87 247.814 211.948 247.712 212.023 247.602C212.098 247.487 212.165 247.369 212.225 247.249C212.285 247.124 212.333 246.994 212.368 246.859C212.403 246.724 212.42 246.582 212.42 246.432C212.42 246.272 212.395 246.107 212.345 245.937C212.3 245.767 212.22 245.587 212.105 245.397C212.07 245.342 212.053 245.287 212.053 245.232C212.053 245.112 212.12 245.024 212.255 244.969L213.073 244.639ZM219.174 245.202C219.304 245.202 219.399 245.219 219.459 245.254C219.524 245.284 219.597 245.349 219.677 245.449L225.902 253.549C225.887 253.419 225.877 253.294 225.872 253.174C225.867 253.049 225.864 252.929 225.864 252.814V245.202H227.139V255.949H226.404C226.289 255.949 226.192 255.929 226.112 255.889C226.037 255.849 225.962 255.782 225.887 255.687L219.669 247.594C219.679 247.719 219.687 247.842 219.692 247.962C219.697 248.082 219.699 248.192 219.699 248.292V255.949H218.424V245.202H219.174ZM231.487 255.949H230.032V245.202H231.487V255.949ZM239.154 254.892C239.444 254.892 239.709 254.879 239.949 254.854C240.194 254.824 240.424 254.782 240.639 254.727C240.854 254.672 241.057 254.607 241.247 254.532C241.437 254.452 241.627 254.362 241.817 254.262V251.892H240.152C240.057 251.892 239.979 251.864 239.919 251.809C239.864 251.754 239.837 251.687 239.837 251.607V250.782H243.137V254.907C242.867 255.102 242.584 255.272 242.289 255.417C241.999 255.562 241.687 255.684 241.352 255.784C241.022 255.879 240.667 255.949 240.287 255.994C239.907 256.044 239.494 256.069 239.049 256.069C238.269 256.069 237.554 255.937 236.904 255.672C236.254 255.402 235.694 255.027 235.224 254.547C234.754 254.062 234.387 253.482 234.122 252.807C233.862 252.132 233.732 251.389 233.732 250.579C233.732 249.759 233.859 249.012 234.114 248.337C234.374 247.662 234.742 247.084 235.217 246.604C235.697 246.119 236.274 245.744 236.949 245.479C237.629 245.214 238.389 245.082 239.229 245.082C239.654 245.082 240.049 245.114 240.414 245.179C240.779 245.239 241.117 245.329 241.427 245.449C241.742 245.564 242.032 245.707 242.297 245.877C242.562 246.042 242.809 246.229 243.039 246.439L242.627 247.099C242.542 247.234 242.432 247.302 242.297 247.302C242.217 247.302 242.129 247.274 242.034 247.219C241.909 247.149 241.769 247.064 241.614 246.964C241.459 246.864 241.269 246.769 241.044 246.679C240.824 246.584 240.562 246.504 240.257 246.439C239.957 246.374 239.599 246.342 239.184 246.342C238.579 246.342 238.032 246.442 237.542 246.642C237.052 246.837 236.634 247.119 236.289 247.489C235.944 247.854 235.679 248.299 235.494 248.824C235.309 249.344 235.217 249.929 235.217 250.579C235.217 251.259 235.312 251.867 235.502 252.402C235.697 252.932 235.969 253.382 236.319 253.752C236.669 254.122 237.084 254.404 237.564 254.599C238.044 254.794 238.574 254.892 239.154 254.892ZM254.092 255.949H252.63V251.059H246.84V255.949H245.377V245.202H246.84V249.994H252.63V245.202H254.092V255.949ZM264.035 245.202V246.424H260.563V255.949H259.108V246.424H255.62V245.202H264.035Z" fill="white"/>
<defs>
<linearGradient id="paint0_linear_2580_25118" x1="0" y1="293" x2="250.599" y2="36.3204" gradientUnits="userSpaceOnUse">
<stop stop-color="#16203C"/>
<stop offset="1" stop-color="#1D2849"/>
</linearGradient>
</defs>
</svg>
