<svg width="1440" height="182" viewBox="0 0 1440 182" fill="none" xmlns="http://www.w3.org/2000/svg">
<rect width="1440" height="182" fill="#A67F56"/>
<path d="M152.33 86.63C152.33 87.435 152.203 88.1675 151.948 88.8275C151.693 89.4875 151.333 90.0525 150.868 90.5225C150.403 90.9925 149.845 91.3575 149.195 91.6175C148.545 91.8725 147.825 92 147.035 92H143.015V81.2525H147.035C147.825 81.2525 148.545 81.3825 149.195 81.6425C149.845 81.8975 150.403 82.2625 150.868 82.7375C151.333 83.2075 151.693 83.7725 151.948 84.4325C152.203 85.0925 152.33 85.825 152.33 86.63ZM150.838 86.63C150.838 85.97 150.748 85.38 150.568 84.86C150.388 84.34 150.133 83.9 149.803 83.54C149.473 83.18 149.073 82.905 148.603 82.715C148.133 82.525 147.61 82.43 147.035 82.43H144.478V90.8225H147.035C147.61 90.8225 148.133 90.7275 148.603 90.5375C149.073 90.3475 149.473 90.075 149.803 89.72C150.133 89.36 150.388 88.92 150.568 88.4C150.748 87.88 150.838 87.29 150.838 86.63ZM160.932 81.2525V82.4375H155.772V86.0075H159.949V87.1475H155.772V90.815H160.932V92H154.309V81.2525H160.932ZM170.6 89.78C170.68 89.78 170.753 89.8125 170.818 89.8775L171.388 90.5C170.948 91.01 170.413 91.4075 169.783 91.6925C169.158 91.9775 168.403 92.12 167.518 92.12C166.743 92.12 166.04 91.9875 165.41 91.7225C164.78 91.4525 164.243 91.0775 163.798 90.5975C163.353 90.1125 163.008 89.5325 162.763 88.8575C162.518 88.1825 162.395 87.44 162.395 86.63C162.395 85.82 162.525 85.0775 162.785 84.4025C163.05 83.7275 163.42 83.1475 163.895 82.6625C164.37 82.1775 164.938 81.8025 165.598 81.5375C166.263 81.2675 166.995 81.1325 167.795 81.1325C168.585 81.1325 169.265 81.255 169.835 81.5C170.41 81.745 170.92 82.0775 171.365 82.4975L170.893 83.165C170.858 83.215 170.818 83.2575 170.773 83.2925C170.728 83.3225 170.663 83.3375 170.578 83.3375C170.513 83.3375 170.443 83.315 170.368 83.27C170.298 83.22 170.213 83.16 170.113 83.09C170.013 83.02 169.895 82.945 169.76 82.865C169.625 82.785 169.465 82.71 169.28 82.64C169.095 82.57 168.88 82.5125 168.635 82.4675C168.39 82.4175 168.108 82.3925 167.788 82.3925C167.213 82.3925 166.685 82.4925 166.205 82.6925C165.73 82.8875 165.32 83.1675 164.975 83.5325C164.63 83.8975 164.36 84.3425 164.165 84.8675C163.975 85.3925 163.88 85.98 163.88 86.63C163.88 87.3 163.975 87.8975 164.165 88.4225C164.36 88.9475 164.623 89.3925 164.953 89.7575C165.288 90.1175 165.683 90.3925 166.138 90.5825C166.593 90.7725 167.083 90.8675 167.608 90.8675C167.928 90.8675 168.215 90.85 168.47 90.815C168.725 90.775 168.96 90.715 169.175 90.635C169.395 90.555 169.598 90.455 169.783 90.335C169.973 90.21 170.163 90.0625 170.353 89.8925C170.438 89.8175 170.52 89.78 170.6 89.78ZM179.916 81.2525V82.4375H174.756V86.0075H178.934V87.1475H174.756V90.815H179.916V92H173.294V81.2525H179.916ZM187.297 88.115C187.367 88.235 187.427 88.3625 187.477 88.4975C187.532 88.6275 187.585 88.76 187.635 88.895C187.685 88.755 187.737 88.6225 187.792 88.4975C187.847 88.3675 187.91 88.2375 187.98 88.1075L191.617 81.5C191.682 81.385 191.75 81.315 191.82 81.29C191.89 81.265 191.99 81.2525 192.12 81.2525H193.192V92H191.917V84.1025C191.917 83.9975 191.92 83.885 191.925 83.765C191.93 83.645 191.937 83.5225 191.947 83.3975L188.265 90.1175C188.14 90.3425 187.965 90.455 187.74 90.455H187.53C187.305 90.455 187.13 90.3425 187.005 90.1175L183.24 83.375C183.255 83.505 183.265 83.6325 183.27 83.7575C183.28 83.8825 183.285 83.9975 183.285 84.1025V92H182.01V81.2525H183.082C183.212 81.2525 183.312 81.265 183.382 81.29C183.452 81.315 183.52 81.385 183.585 81.5L187.297 88.115ZM195.808 92V81.2525H199.236C199.896 81.2525 200.463 81.3175 200.938 81.4475C201.418 81.5775 201.811 81.7625 202.116 82.0025C202.426 82.2425 202.653 82.5375 202.798 82.8875C202.948 83.2325 203.023 83.6225 203.023 84.0575C203.023 84.3225 202.981 84.5775 202.896 84.8225C202.816 85.0675 202.691 85.295 202.521 85.505C202.356 85.715 202.146 85.9025 201.891 86.0675C201.641 86.2325 201.346 86.3675 201.006 86.4725C201.791 86.6275 202.383 86.91 202.783 87.32C203.183 87.73 203.383 88.27 203.383 88.94C203.383 89.395 203.298 89.81 203.128 90.185C202.963 90.56 202.718 90.8825 202.393 91.1525C202.073 91.4225 201.678 91.6325 201.208 91.7825C200.743 91.9275 200.211 92 199.611 92H195.808ZM197.263 87.1025V90.845H199.588C200.003 90.845 200.358 90.7975 200.653 90.7025C200.953 90.6075 201.198 90.475 201.388 90.305C201.583 90.13 201.726 89.925 201.816 89.69C201.906 89.45 201.951 89.1875 201.951 88.9025C201.951 88.3475 201.753 87.91 201.358 87.59C200.968 87.265 200.376 87.1025 199.581 87.1025H197.263ZM197.263 86.0675H199.183C199.593 86.0675 199.948 86.0225 200.248 85.9325C200.548 85.8425 200.796 85.7175 200.991 85.5575C201.191 85.3975 201.338 85.205 201.433 84.98C201.528 84.75 201.576 84.5 201.576 84.23C201.576 83.6 201.386 83.1375 201.006 82.8425C200.626 82.5475 200.036 82.4 199.236 82.4H197.263V86.0675ZM212.143 81.2525V82.4375H206.983V86.0075H211.16V87.1475H206.983V90.815H212.143V92H205.52V81.2525H212.143ZM215.834 87.515V92H214.386V81.2525H217.424C218.104 81.2525 218.691 81.3225 219.186 81.4625C219.681 81.5975 220.089 81.795 220.409 82.055C220.734 82.315 220.974 82.63 221.129 83C221.284 83.365 221.361 83.775 221.361 84.23C221.361 84.61 221.301 84.965 221.181 85.295C221.061 85.625 220.886 85.9225 220.656 86.1875C220.431 86.4475 220.154 86.67 219.824 86.855C219.499 87.04 219.129 87.18 218.714 87.275C218.894 87.38 219.054 87.5325 219.194 87.7325L222.329 92H221.039C220.774 92 220.579 91.8975 220.454 91.6925L217.664 87.8525C217.579 87.7325 217.486 87.6475 217.386 87.5975C217.286 87.5425 217.136 87.515 216.936 87.515H215.834ZM215.834 86.4575H217.356C217.781 86.4575 218.154 86.4075 218.474 86.3075C218.799 86.2025 219.069 86.0575 219.284 85.8725C219.504 85.6825 219.669 85.4575 219.779 85.1975C219.889 84.9375 219.944 84.65 219.944 84.335C219.944 83.695 219.731 83.2125 219.306 82.8875C218.886 82.5625 218.259 82.4 217.424 82.4H215.834V86.4575ZM229.992 81.1325C230.447 81.1325 230.872 81.2 231.267 81.335C231.662 81.47 232.002 81.6675 232.287 81.9275C232.577 82.1825 232.805 82.495 232.97 82.865C233.135 83.235 233.217 83.655 233.217 84.125C233.217 84.525 233.157 84.895 233.037 85.235C232.917 85.575 232.755 85.9025 232.55 86.2175C232.345 86.5275 232.107 86.83 231.837 87.125C231.572 87.415 231.29 87.7125 230.99 88.0175L228.162 90.9125C228.362 90.8575 228.565 90.815 228.77 90.785C228.975 90.75 229.172 90.7325 229.362 90.7325H232.962C233.107 90.7325 233.222 90.775 233.307 90.86C233.392 90.945 233.435 91.055 233.435 91.19V92H226.265V91.5425C226.265 91.4475 226.282 91.35 226.317 91.25C226.357 91.15 226.42 91.0575 226.505 90.9725L229.947 87.515C230.232 87.225 230.492 86.9475 230.727 86.6825C230.962 86.4125 231.162 86.1425 231.327 85.8725C231.497 85.6025 231.627 85.33 231.717 85.055C231.807 84.775 231.852 84.4775 231.852 84.1625C231.852 83.8475 231.802 83.5725 231.702 83.3375C231.602 83.0975 231.465 82.9 231.29 82.745C231.115 82.59 230.91 82.475 230.675 82.4C230.44 82.32 230.187 82.28 229.917 82.28C229.647 82.28 229.397 82.32 229.167 82.4C228.937 82.48 228.732 82.5925 228.552 82.7375C228.377 82.8775 228.227 83.045 228.102 83.24C227.982 83.435 227.897 83.65 227.847 83.885C227.807 84.03 227.747 84.135 227.667 84.2C227.587 84.265 227.482 84.2975 227.352 84.2975C227.327 84.2975 227.3 84.2975 227.27 84.2975C227.245 84.2925 227.215 84.2875 227.18 84.2825L226.482 84.1625C226.552 83.6725 226.687 83.24 226.887 82.865C227.087 82.485 227.34 82.1675 227.645 81.9125C227.955 81.6575 228.307 81.465 228.702 81.335C229.102 81.2 229.532 81.1325 229.992 81.1325ZM242.436 86.63C242.436 87.57 242.334 88.385 242.129 89.075C241.929 89.76 241.654 90.3275 241.304 90.7775C240.954 91.2275 240.539 91.5625 240.059 91.7825C239.584 92.0025 239.074 92.1125 238.529 92.1125C237.979 92.1125 237.466 92.0025 236.991 91.7825C236.521 91.5625 236.111 91.2275 235.761 90.7775C235.411 90.3275 235.136 89.76 234.936 89.075C234.736 88.385 234.636 87.57 234.636 86.63C234.636 85.69 234.736 84.875 234.936 84.185C235.136 83.495 235.411 82.925 235.761 82.475C236.111 82.02 236.521 81.6825 236.991 81.4625C237.466 81.2425 237.979 81.1325 238.529 81.1325C239.074 81.1325 239.584 81.2425 240.059 81.4625C240.539 81.6825 240.954 82.02 241.304 82.475C241.654 82.925 241.929 83.495 242.129 84.185C242.334 84.875 242.436 85.69 242.436 86.63ZM241.049 86.63C241.049 85.81 240.979 85.1225 240.839 84.5675C240.704 84.0075 240.519 83.5575 240.284 83.2175C240.054 82.8775 239.786 82.635 239.481 82.49C239.176 82.34 238.859 82.265 238.529 82.265C238.199 82.265 237.881 82.34 237.576 82.49C237.271 82.635 237.004 82.8775 236.774 83.2175C236.544 83.5575 236.359 84.0075 236.219 84.5675C236.084 85.1225 236.016 85.81 236.016 86.63C236.016 87.45 236.084 88.1375 236.219 88.6925C236.359 89.2475 236.544 89.695 236.774 90.035C237.004 90.375 237.271 90.62 237.576 90.77C237.881 90.915 238.199 90.9875 238.529 90.9875C238.859 90.9875 239.176 90.915 239.481 90.77C239.786 90.62 240.054 90.375 240.284 90.035C240.519 89.695 240.704 89.2475 240.839 88.6925C240.979 88.1375 241.049 87.45 241.049 86.63ZM247.395 81.1325C247.85 81.1325 248.275 81.2 248.67 81.335C249.065 81.47 249.405 81.6675 249.69 81.9275C249.98 82.1825 250.207 82.495 250.372 82.865C250.537 83.235 250.62 83.655 250.62 84.125C250.62 84.525 250.56 84.895 250.44 85.235C250.32 85.575 250.157 85.9025 249.952 86.2175C249.747 86.5275 249.51 86.83 249.24 87.125C248.975 87.415 248.692 87.7125 248.392 88.0175L245.565 90.9125C245.765 90.8575 245.967 90.815 246.172 90.785C246.377 90.75 246.575 90.7325 246.765 90.7325H250.365C250.51 90.7325 250.625 90.775 250.71 90.86C250.795 90.945 250.837 91.055 250.837 91.19V92H243.667V91.5425C243.667 91.4475 243.685 91.35 243.72 91.25C243.76 91.15 243.822 91.0575 243.907 90.9725L247.35 87.515C247.635 87.225 247.895 86.9475 248.13 86.6825C248.365 86.4125 248.565 86.1425 248.73 85.8725C248.9 85.6025 249.03 85.33 249.12 85.055C249.21 84.775 249.255 84.4775 249.255 84.1625C249.255 83.8475 249.205 83.5725 249.105 83.3375C249.005 83.0975 248.867 82.9 248.692 82.745C248.517 82.59 248.312 82.475 248.077 82.4C247.842 82.32 247.59 82.28 247.32 82.28C247.05 82.28 246.8 82.32 246.57 82.4C246.34 82.48 246.135 82.5925 245.955 82.7375C245.78 82.8775 245.63 83.045 245.505 83.24C245.385 83.435 245.3 83.65 245.25 83.885C245.21 84.03 245.15 84.135 245.07 84.2C244.99 84.265 244.885 84.2975 244.755 84.2975C244.73 84.2975 244.702 84.2975 244.672 84.2975C244.647 84.2925 244.617 84.2875 244.582 84.2825L243.885 84.1625C243.955 83.6725 244.09 83.24 244.29 82.865C244.49 82.485 244.742 82.1675 245.047 81.9125C245.357 81.6575 245.71 81.465 246.105 81.335C246.505 81.2 246.935 81.1325 247.395 81.1325ZM256.096 81.1325C256.551 81.1325 256.976 81.2 257.371 81.335C257.766 81.47 258.106 81.6675 258.391 81.9275C258.681 82.1825 258.908 82.495 259.073 82.865C259.238 83.235 259.321 83.655 259.321 84.125C259.321 84.525 259.261 84.895 259.141 85.235C259.021 85.575 258.858 85.9025 258.653 86.2175C258.448 86.5275 258.211 86.83 257.941 87.125C257.676 87.415 257.393 87.7125 257.093 88.0175L254.266 90.9125C254.466 90.8575 254.668 90.815 254.873 90.785C255.078 90.75 255.276 90.7325 255.466 90.7325H259.066C259.211 90.7325 259.326 90.775 259.411 90.86C259.496 90.945 259.538 91.055 259.538 91.19V92H252.368V91.5425C252.368 91.4475 252.386 91.35 252.421 91.25C252.461 91.15 252.523 91.0575 252.608 90.9725L256.051 87.515C256.336 87.225 256.596 86.9475 256.831 86.6825C257.066 86.4125 257.266 86.1425 257.431 85.8725C257.601 85.6025 257.731 85.33 257.821 85.055C257.911 84.775 257.956 84.4775 257.956 84.1625C257.956 83.8475 257.906 83.5725 257.806 83.3375C257.706 83.0975 257.568 82.9 257.393 82.745C257.218 82.59 257.013 82.475 256.778 82.4C256.543 82.32 256.291 82.28 256.021 82.28C255.751 82.28 255.501 82.32 255.271 82.4C255.041 82.48 254.836 82.5925 254.656 82.7375C254.481 82.8775 254.331 83.045 254.206 83.24C254.086 83.435 254.001 83.65 253.951 83.885C253.911 84.03 253.851 84.135 253.771 84.2C253.691 84.265 253.586 84.2975 253.456 84.2975C253.431 84.2975 253.403 84.2975 253.373 84.2975C253.348 84.2925 253.318 84.2875 253.283 84.2825L252.586 84.1625C252.656 83.6725 252.791 83.24 252.991 82.865C253.191 82.485 253.443 82.1675 253.748 81.9125C254.058 81.6575 254.411 81.465 254.806 81.335C255.206 81.2 255.636 81.1325 256.096 81.1325Z" fill="#FAC47E"/>
<path d="M115.564 115.05C115.564 116.392 115.352 117.625 114.927 118.75C114.502 119.867 113.902 120.829 113.127 121.637C112.352 122.446 111.419 123.075 110.327 123.525C109.244 123.967 108.044 124.188 106.727 124.188C105.41 124.188 104.21 123.967 103.127 123.525C102.044 123.075 101.114 122.446 100.339 121.637C99.5645 120.829 98.9645 119.867 98.5395 118.75C98.1145 117.625 97.902 116.392 97.902 115.05C97.902 113.708 98.1145 112.479 98.5395 111.362C98.9645 110.237 99.5645 109.271 100.339 108.462C101.114 107.646 102.044 107.012 103.127 106.562C104.21 106.112 105.41 105.887 106.727 105.887C108.044 105.887 109.244 106.112 110.327 106.562C111.419 107.012 112.352 107.646 113.127 108.462C113.902 109.271 114.502 110.237 114.927 111.362C115.352 112.479 115.564 113.708 115.564 115.05ZM113.077 115.05C113.077 113.95 112.927 112.962 112.627 112.087C112.327 111.212 111.902 110.475 111.352 109.875C110.802 109.267 110.135 108.8 109.352 108.475C108.569 108.15 107.694 107.987 106.727 107.987C105.769 107.987 104.898 108.15 104.114 108.475C103.331 108.8 102.66 109.267 102.102 109.875C101.552 110.475 101.127 111.212 100.827 112.087C100.527 112.962 100.377 113.95 100.377 115.05C100.377 116.15 100.527 117.137 100.827 118.012C101.127 118.879 101.552 119.617 102.102 120.225C102.66 120.825 103.331 121.287 104.114 121.612C104.898 121.929 105.769 122.087 106.727 122.087C107.694 122.087 108.569 121.929 109.352 121.612C110.135 121.287 110.802 120.825 111.352 120.225C111.902 119.617 112.327 118.879 112.627 118.012C112.927 117.137 113.077 116.15 113.077 115.05ZM121.536 117.3V124H119.123V106.087H124.411C125.544 106.087 126.527 106.221 127.361 106.487C128.202 106.746 128.898 107.117 129.448 107.6C129.998 108.083 130.407 108.667 130.673 109.35C130.948 110.033 131.086 110.796 131.086 111.637C131.086 112.471 130.94 113.233 130.648 113.925C130.357 114.617 129.927 115.212 129.361 115.712C128.802 116.212 128.107 116.604 127.273 116.887C126.44 117.162 125.486 117.3 124.411 117.3H121.536ZM121.536 115.375H124.411C125.102 115.375 125.711 115.283 126.236 115.1C126.769 114.917 127.215 114.662 127.573 114.337C127.932 114.004 128.202 113.608 128.386 113.15C128.569 112.692 128.661 112.187 128.661 111.637C128.661 110.496 128.307 109.604 127.598 108.962C126.898 108.321 125.836 108 124.411 108H121.536V115.375ZM145.194 106.087V108.062H136.594V114.012H143.556V115.912H136.594V122.025H145.194V124H134.156V106.087H145.194ZM149.933 106.087C150.149 106.087 150.308 106.117 150.408 106.175C150.516 106.225 150.637 106.333 150.77 106.5L161.145 120C161.12 119.783 161.104 119.575 161.095 119.375C161.087 119.167 161.083 118.967 161.083 118.775V106.087H163.208V124H161.983C161.791 124 161.629 123.967 161.495 123.9C161.37 123.833 161.245 123.721 161.12 123.562L150.758 110.075C150.774 110.283 150.787 110.487 150.795 110.687C150.804 110.887 150.808 111.071 150.808 111.237V124H148.683V106.087H149.933ZM183.451 106.087V108.062H174.851V114.325H182.201V116.3H174.851V124H172.413V106.087H183.451ZM203.211 115.05C203.211 116.392 202.998 117.625 202.573 118.75C202.148 119.867 201.548 120.829 200.773 121.637C199.998 122.446 199.065 123.075 197.973 123.525C196.89 123.967 195.69 124.188 194.373 124.188C193.057 124.188 191.857 123.967 190.773 123.525C189.69 123.075 188.761 122.446 187.986 121.637C187.211 120.829 186.611 119.867 186.186 118.75C185.761 117.625 185.548 116.392 185.548 115.05C185.548 113.708 185.761 112.479 186.186 111.362C186.611 110.237 187.211 109.271 187.986 108.462C188.761 107.646 189.69 107.012 190.773 106.562C191.857 106.112 193.057 105.887 194.373 105.887C195.69 105.887 196.89 106.112 197.973 106.562C199.065 107.012 199.998 107.646 200.773 108.462C201.548 109.271 202.148 110.237 202.573 111.362C202.998 112.479 203.211 113.708 203.211 115.05ZM200.723 115.05C200.723 113.95 200.573 112.962 200.273 112.087C199.973 111.212 199.548 110.475 198.998 109.875C198.448 109.267 197.782 108.8 196.998 108.475C196.215 108.15 195.34 107.987 194.373 107.987C193.415 107.987 192.544 108.15 191.761 108.475C190.978 108.8 190.307 109.267 189.748 109.875C189.198 110.475 188.773 111.212 188.473 112.087C188.173 112.962 188.023 113.95 188.023 115.05C188.023 116.15 188.173 117.137 188.473 118.012C188.773 118.879 189.198 119.617 189.748 120.225C190.307 120.825 190.978 121.287 191.761 121.612C192.544 121.929 193.415 122.087 194.373 122.087C195.34 122.087 196.215 121.929 196.998 121.612C197.782 121.287 198.448 120.825 198.998 120.225C199.548 119.617 199.973 118.879 200.273 118.012C200.573 117.137 200.723 116.15 200.723 115.05ZM209.182 116.525V124H206.77V106.087H211.832C212.966 106.087 213.945 106.204 214.77 106.437C215.595 106.662 216.274 106.992 216.807 107.425C217.349 107.858 217.749 108.383 218.007 109C218.266 109.608 218.395 110.292 218.395 111.05C218.395 111.683 218.295 112.275 218.095 112.825C217.895 113.375 217.603 113.871 217.22 114.312C216.845 114.746 216.382 115.117 215.832 115.425C215.291 115.733 214.674 115.967 213.982 116.125C214.282 116.3 214.549 116.554 214.782 116.887L220.007 124H217.857C217.416 124 217.091 123.829 216.882 123.487L212.232 117.087C212.091 116.887 211.936 116.746 211.77 116.662C211.603 116.571 211.353 116.525 211.02 116.525H209.182ZM209.182 114.762H211.72C212.428 114.762 213.049 114.679 213.582 114.512C214.124 114.337 214.574 114.096 214.932 113.787C215.299 113.471 215.574 113.096 215.757 112.662C215.941 112.229 216.032 111.75 216.032 111.225C216.032 110.158 215.678 109.354 214.97 108.812C214.27 108.271 213.224 108 211.832 108H209.182V114.762ZM238.48 106.087V108.062H229.88V114.012H236.843V115.912H229.88V122.025H238.48V124H227.443V106.087H238.48ZM243.219 106.087C243.436 106.087 243.594 106.117 243.694 106.175C243.802 106.225 243.923 106.333 244.056 106.5L254.431 120C254.406 119.783 254.39 119.575 254.381 119.375C254.373 119.167 254.369 118.967 254.369 118.775V106.087H256.494V124H255.269C255.077 124 254.915 123.967 254.781 123.9C254.656 123.833 254.531 123.721 254.406 123.562L244.044 110.075C244.061 110.283 244.073 110.487 244.081 110.687C244.09 110.887 244.094 111.071 244.094 111.237V124H241.969V106.087H243.219ZM273.065 106.087V108.125H267.278V124H264.853V108.125H259.04V106.087H273.065ZM278.274 116.525V124H275.862V106.087H280.924C282.057 106.087 283.037 106.204 283.862 106.437C284.687 106.662 285.366 106.992 285.899 107.425C286.441 107.858 286.841 108.383 287.099 109C287.357 109.608 287.487 110.292 287.487 111.05C287.487 111.683 287.387 112.275 287.187 112.825C286.987 113.375 286.695 113.871 286.312 114.312C285.937 114.746 285.474 115.117 284.924 115.425C284.382 115.733 283.766 115.967 283.074 116.125C283.374 116.3 283.641 116.554 283.874 116.887L289.099 124H286.949C286.507 124 286.182 123.829 285.974 123.487L281.324 117.087C281.182 116.887 281.028 116.746 280.862 116.662C280.695 116.571 280.445 116.525 280.112 116.525H278.274ZM278.274 114.762H280.812C281.52 114.762 282.141 114.679 282.674 114.512C283.216 114.337 283.666 114.096 284.024 113.787C284.391 113.471 284.666 113.096 284.849 112.662C285.032 112.229 285.124 111.75 285.124 111.225C285.124 110.158 284.77 109.354 284.062 108.812C283.362 108.271 282.316 108 280.924 108H278.274V114.762ZM298.6 116.875V124H296.188V116.875L289.625 106.087H291.75C291.967 106.087 292.138 106.142 292.263 106.25C292.388 106.358 292.496 106.492 292.588 106.65L296.688 113.612C296.855 113.904 296.992 114.179 297.1 114.437C297.217 114.696 297.321 114.95 297.413 115.2C297.505 114.942 297.605 114.683 297.713 114.425C297.821 114.167 297.959 113.896 298.125 113.612L302.213 106.65C302.288 106.517 302.388 106.392 302.513 106.275C302.646 106.15 302.817 106.087 303.025 106.087H305.175L298.6 116.875Z" fill="white"/>
<path d="M491.113 81.2525V82.4375H485.953V86.195H490.363V87.38H485.953V92H484.491V81.2525H491.113ZM499.609 81.2525V82.4375H494.449V86.0075H498.627V87.1475H494.449V90.815H499.609V92H492.987V81.2525H499.609ZM501.702 92V81.2525H505.13C505.79 81.2525 506.357 81.3175 506.832 81.4475C507.312 81.5775 507.705 81.7625 508.01 82.0025C508.32 82.2425 508.547 82.5375 508.692 82.8875C508.842 83.2325 508.917 83.6225 508.917 84.0575C508.917 84.3225 508.875 84.5775 508.79 84.8225C508.71 85.0675 508.585 85.295 508.415 85.505C508.25 85.715 508.04 85.9025 507.785 86.0675C507.535 86.2325 507.24 86.3675 506.9 86.4725C507.685 86.6275 508.277 86.91 508.677 87.32C509.077 87.73 509.277 88.27 509.277 88.94C509.277 89.395 509.192 89.81 509.022 90.185C508.857 90.56 508.612 90.8825 508.287 91.1525C507.967 91.4225 507.572 91.6325 507.102 91.7825C506.637 91.9275 506.105 92 505.505 92H501.702ZM503.157 87.1025V90.845H505.482C505.897 90.845 506.252 90.7975 506.547 90.7025C506.847 90.6075 507.092 90.475 507.282 90.305C507.477 90.13 507.62 89.925 507.71 89.69C507.8 89.45 507.845 89.1875 507.845 88.9025C507.845 88.3475 507.647 87.91 507.252 87.59C506.862 87.265 506.27 87.1025 505.475 87.1025H503.157ZM503.157 86.0675H505.077C505.487 86.0675 505.842 86.0225 506.142 85.9325C506.442 85.8425 506.69 85.7175 506.885 85.5575C507.085 85.3975 507.232 85.205 507.327 84.98C507.422 84.75 507.47 84.5 507.47 84.23C507.47 83.6 507.28 83.1375 506.9 82.8425C506.52 82.5475 505.93 82.4 505.13 82.4H503.157V86.0675ZM517.517 81.1325C517.972 81.1325 518.397 81.2 518.792 81.335C519.187 81.47 519.527 81.6675 519.812 81.9275C520.102 82.1825 520.33 82.495 520.495 82.865C520.66 83.235 520.742 83.655 520.742 84.125C520.742 84.525 520.682 84.895 520.562 85.235C520.442 85.575 520.28 85.9025 520.075 86.2175C519.87 86.5275 519.632 86.83 519.362 87.125C519.097 87.415 518.815 87.7125 518.515 88.0175L515.687 90.9125C515.887 90.8575 516.09 90.815 516.295 90.785C516.5 90.75 516.697 90.7325 516.887 90.7325H520.487C520.632 90.7325 520.747 90.775 520.832 90.86C520.917 90.945 520.96 91.055 520.96 91.19V92H513.79V91.5425C513.79 91.4475 513.807 91.35 513.842 91.25C513.882 91.15 513.945 91.0575 514.03 90.9725L517.472 87.515C517.757 87.225 518.017 86.9475 518.252 86.6825C518.487 86.4125 518.687 86.1425 518.852 85.8725C519.022 85.6025 519.152 85.33 519.242 85.055C519.332 84.775 519.377 84.4775 519.377 84.1625C519.377 83.8475 519.327 83.5725 519.227 83.3375C519.127 83.0975 518.99 82.9 518.815 82.745C518.64 82.59 518.435 82.475 518.2 82.4C517.965 82.32 517.712 82.28 517.442 82.28C517.172 82.28 516.922 82.32 516.692 82.4C516.462 82.48 516.257 82.5925 516.077 82.7375C515.902 82.8775 515.752 83.045 515.627 83.24C515.507 83.435 515.422 83.65 515.372 83.885C515.332 84.03 515.272 84.135 515.192 84.2C515.112 84.265 515.007 84.2975 514.877 84.2975C514.852 84.2975 514.825 84.2975 514.795 84.2975C514.77 84.2925 514.74 84.2875 514.705 84.2825L514.007 84.1625C514.077 83.6725 514.212 83.24 514.412 82.865C514.612 82.485 514.865 82.1675 515.17 81.9125C515.48 81.6575 515.832 81.465 516.227 81.335C516.627 81.2 517.057 81.1325 517.517 81.1325ZM529.961 86.63C529.961 87.57 529.858 88.385 529.653 89.075C529.453 89.76 529.178 90.3275 528.828 90.7775C528.478 91.2275 528.063 91.5625 527.583 91.7825C527.108 92.0025 526.598 92.1125 526.053 92.1125C525.503 92.1125 524.991 92.0025 524.516 91.7825C524.046 91.5625 523.636 91.2275 523.286 90.7775C522.936 90.3275 522.661 89.76 522.461 89.075C522.261 88.385 522.161 87.57 522.161 86.63C522.161 85.69 522.261 84.875 522.461 84.185C522.661 83.495 522.936 82.925 523.286 82.475C523.636 82.02 524.046 81.6825 524.516 81.4625C524.991 81.2425 525.503 81.1325 526.053 81.1325C526.598 81.1325 527.108 81.2425 527.583 81.4625C528.063 81.6825 528.478 82.02 528.828 82.475C529.178 82.925 529.453 83.495 529.653 84.185C529.858 84.875 529.961 85.69 529.961 86.63ZM528.573 86.63C528.573 85.81 528.503 85.1225 528.363 84.5675C528.228 84.0075 528.043 83.5575 527.808 83.2175C527.578 82.8775 527.311 82.635 527.006 82.49C526.701 82.34 526.383 82.265 526.053 82.265C525.723 82.265 525.406 82.34 525.101 82.49C524.796 82.635 524.528 82.8775 524.298 83.2175C524.068 83.5575 523.883 84.0075 523.743 84.5675C523.608 85.1225 523.541 85.81 523.541 86.63C523.541 87.45 523.608 88.1375 523.743 88.6925C523.883 89.2475 524.068 89.695 524.298 90.035C524.528 90.375 524.796 90.62 525.101 90.77C525.406 90.915 525.723 90.9875 526.053 90.9875C526.383 90.9875 526.701 90.915 527.006 90.77C527.311 90.62 527.578 90.375 527.808 90.035C528.043 89.695 528.228 89.2475 528.363 88.6925C528.503 88.1375 528.573 87.45 528.573 86.63ZM534.92 81.1325C535.375 81.1325 535.8 81.2 536.195 81.335C536.59 81.47 536.93 81.6675 537.215 81.9275C537.505 82.1825 537.732 82.495 537.897 82.865C538.062 83.235 538.145 83.655 538.145 84.125C538.145 84.525 538.085 84.895 537.965 85.235C537.845 85.575 537.682 85.9025 537.477 86.2175C537.272 86.5275 537.035 86.83 536.765 87.125C536.5 87.415 536.217 87.7125 535.917 88.0175L533.09 90.9125C533.29 90.8575 533.492 90.815 533.697 90.785C533.902 90.75 534.1 90.7325 534.29 90.7325H537.89C538.035 90.7325 538.15 90.775 538.235 90.86C538.32 90.945 538.362 91.055 538.362 91.19V92H531.192V91.5425C531.192 91.4475 531.21 91.35 531.245 91.25C531.285 91.15 531.347 91.0575 531.432 90.9725L534.875 87.515C535.16 87.225 535.42 86.9475 535.655 86.6825C535.89 86.4125 536.09 86.1425 536.255 85.8725C536.425 85.6025 536.555 85.33 536.645 85.055C536.735 84.775 536.78 84.4775 536.78 84.1625C536.78 83.8475 536.73 83.5725 536.63 83.3375C536.53 83.0975 536.392 82.9 536.217 82.745C536.042 82.59 535.837 82.475 535.602 82.4C535.367 82.32 535.115 82.28 534.845 82.28C534.575 82.28 534.325 82.32 534.095 82.4C533.865 82.48 533.66 82.5925 533.48 82.7375C533.305 82.8775 533.155 83.045 533.03 83.24C532.91 83.435 532.825 83.65 532.775 83.885C532.735 84.03 532.675 84.135 532.595 84.2C532.515 84.265 532.41 84.2975 532.28 84.2975C532.255 84.2975 532.227 84.2975 532.197 84.2975C532.172 84.2925 532.142 84.2875 532.107 84.2825L531.41 84.1625C531.48 83.6725 531.615 83.24 531.815 82.865C532.015 82.485 532.267 82.1675 532.572 81.9125C532.882 81.6575 533.235 81.465 533.63 81.335C534.03 81.2 534.46 81.1325 534.92 81.1325ZM543.763 81.1325C544.218 81.1325 544.638 81.1975 545.023 81.3275C545.408 81.4575 545.738 81.6425 546.013 81.8825C546.293 82.1225 546.511 82.4125 546.666 82.7525C546.821 83.0925 546.898 83.47 546.898 83.885C546.898 84.225 546.853 84.53 546.763 84.8C546.678 85.065 546.553 85.3 546.388 85.505C546.228 85.705 546.033 85.875 545.803 86.015C545.573 86.155 545.316 86.2675 545.031 86.3525C545.731 86.5375 546.256 86.8475 546.606 87.2825C546.961 87.7175 547.138 88.2625 547.138 88.9175C547.138 89.4125 547.043 89.8575 546.853 90.2525C546.668 90.6475 546.413 90.985 546.088 91.265C545.763 91.54 545.383 91.7525 544.948 91.9025C544.518 92.0475 544.056 92.12 543.561 92.12C542.991 92.12 542.503 92.05 542.098 91.91C541.693 91.765 541.351 91.5675 541.071 91.3175C540.791 91.0675 540.561 90.7725 540.381 90.4325C540.201 90.0875 540.048 89.715 539.923 89.315L540.493 89.075C540.598 89.03 540.703 89.0075 540.808 89.0075C540.908 89.0075 540.996 89.03 541.071 89.075C541.151 89.115 541.211 89.18 541.251 89.27C541.261 89.29 541.271 89.3125 541.281 89.3375C541.291 89.3575 541.301 89.38 541.311 89.405C541.381 89.55 541.466 89.715 541.566 89.9C541.666 90.08 541.801 90.25 541.971 90.41C542.141 90.57 542.351 90.705 542.601 90.815C542.856 90.925 543.171 90.98 543.546 90.98C543.921 90.98 544.248 90.92 544.528 90.8C544.813 90.675 545.048 90.515 545.233 90.32C545.423 90.125 545.566 89.9075 545.661 89.6675C545.756 89.4275 545.803 89.19 545.803 88.955C545.803 88.665 545.763 88.4 545.683 88.16C545.608 87.92 545.468 87.7125 545.263 87.5375C545.063 87.3625 544.783 87.225 544.423 87.125C544.068 87.025 543.611 86.975 543.051 86.975V86.0075C543.506 86.0025 543.893 85.9525 544.213 85.8575C544.538 85.7625 544.803 85.6325 545.008 85.4675C545.213 85.3025 545.361 85.105 545.451 84.875C545.546 84.645 545.593 84.39 545.593 84.11C545.593 83.8 545.543 83.53 545.443 83.3C545.348 83.07 545.216 82.88 545.046 82.73C544.876 82.58 544.673 82.4675 544.438 82.3925C544.208 82.3175 543.958 82.28 543.688 82.28C543.418 82.28 543.168 82.32 542.938 82.4C542.708 82.48 542.503 82.5925 542.323 82.7375C542.148 82.8775 542.001 83.0475 541.881 83.2475C541.761 83.4425 541.671 83.655 541.611 83.885C541.571 84.03 541.511 84.135 541.431 84.2C541.351 84.265 541.248 84.2975 541.123 84.2975C541.098 84.2975 541.071 84.2975 541.041 84.2975C541.016 84.2925 540.986 84.2875 540.951 84.2825L540.253 84.1625C540.323 83.6725 540.458 83.24 540.658 82.865C540.858 82.485 541.111 82.1675 541.416 81.9125C541.726 81.6575 542.078 81.465 542.473 81.335C542.873 81.2 543.303 81.1325 543.763 81.1325Z" fill="#FAC47E"/>
<path d="M387.189 108.887C387.114 109.012 387.035 109.108 386.952 109.175C386.869 109.233 386.76 109.262 386.627 109.262C386.485 109.262 386.319 109.192 386.127 109.05C385.944 108.908 385.706 108.754 385.414 108.587C385.131 108.412 384.785 108.254 384.377 108.112C383.977 107.971 383.489 107.9 382.914 107.9C382.373 107.9 381.894 107.975 381.477 108.125C381.06 108.267 380.71 108.462 380.427 108.712C380.152 108.962 379.944 109.258 379.802 109.6C379.66 109.933 379.589 110.296 379.589 110.687C379.589 111.187 379.71 111.604 379.952 111.937C380.202 112.262 380.527 112.542 380.927 112.775C381.335 113.008 381.794 113.212 382.302 113.387C382.819 113.554 383.344 113.729 383.877 113.912C384.419 114.096 384.944 114.304 385.452 114.537C385.969 114.762 386.427 115.05 386.827 115.4C387.235 115.75 387.56 116.179 387.802 116.687C388.052 117.196 388.177 117.821 388.177 118.562C388.177 119.346 388.044 120.083 387.777 120.775C387.51 121.458 387.119 122.054 386.602 122.562C386.094 123.071 385.464 123.471 384.714 123.762C383.973 124.054 383.127 124.2 382.177 124.2C381.019 124.2 379.96 123.992 379.002 123.575C378.052 123.15 377.239 122.579 376.564 121.862L377.264 120.712C377.331 120.621 377.41 120.546 377.502 120.487C377.602 120.421 377.71 120.387 377.827 120.387C378.002 120.387 378.202 120.483 378.427 120.675C378.652 120.858 378.931 121.062 379.264 121.287C379.606 121.512 380.014 121.721 380.489 121.912C380.973 122.096 381.56 122.187 382.252 122.187C382.827 122.187 383.339 122.108 383.789 121.95C384.239 121.792 384.619 121.571 384.927 121.287C385.244 120.996 385.485 120.65 385.652 120.25C385.819 119.85 385.902 119.404 385.902 118.912C385.902 118.371 385.777 117.929 385.527 117.587C385.285 117.237 384.964 116.946 384.564 116.712C384.164 116.479 383.706 116.283 383.189 116.125C382.681 115.958 382.156 115.792 381.614 115.625C381.081 115.45 380.556 115.25 380.039 115.025C379.531 114.8 379.077 114.508 378.677 114.15C378.277 113.792 377.952 113.346 377.702 112.812C377.46 112.271 377.339 111.604 377.339 110.812C377.339 110.179 377.46 109.567 377.702 108.975C377.952 108.383 378.31 107.858 378.777 107.4C379.244 106.942 379.819 106.575 380.502 106.3C381.194 106.025 381.985 105.887 382.877 105.887C383.877 105.887 384.789 106.046 385.614 106.362C386.439 106.679 387.16 107.137 387.777 107.737L387.189 108.887ZM398.234 122.075C398.975 122.075 399.638 121.95 400.221 121.7C400.805 121.45 401.296 121.1 401.696 120.65C402.105 120.2 402.413 119.662 402.621 119.037C402.838 118.412 402.946 117.725 402.946 116.975V106.087H405.359V116.975C405.359 118.008 405.192 118.967 404.859 119.85C404.534 120.733 404.063 121.5 403.446 122.15C402.838 122.792 402.092 123.296 401.209 123.662C400.325 124.029 399.334 124.213 398.234 124.213C397.134 124.213 396.142 124.029 395.259 123.662C394.375 123.296 393.625 122.792 393.009 122.15C392.392 121.5 391.917 120.733 391.584 119.85C391.259 118.967 391.096 118.008 391.096 116.975V106.087H393.509V116.962C393.509 117.712 393.613 118.4 393.821 119.025C394.038 119.65 394.346 120.187 394.746 120.637C395.155 121.087 395.65 121.442 396.234 121.7C396.825 121.95 397.492 122.075 398.234 122.075ZM409.533 124V106.087H415.245C416.345 106.087 417.291 106.196 418.083 106.412C418.883 106.629 419.537 106.937 420.045 107.337C420.562 107.737 420.941 108.229 421.183 108.812C421.433 109.387 421.558 110.037 421.558 110.762C421.558 111.204 421.487 111.629 421.345 112.037C421.212 112.446 421.004 112.825 420.72 113.175C420.445 113.525 420.095 113.837 419.67 114.112C419.254 114.387 418.762 114.612 418.195 114.787C419.504 115.046 420.491 115.517 421.158 116.2C421.825 116.883 422.158 117.783 422.158 118.9C422.158 119.658 422.016 120.35 421.733 120.975C421.458 121.6 421.05 122.137 420.508 122.587C419.975 123.037 419.316 123.387 418.533 123.637C417.758 123.879 416.87 124 415.87 124H409.533ZM411.958 115.837V122.075H415.833C416.525 122.075 417.116 121.996 417.608 121.837C418.108 121.679 418.516 121.458 418.833 121.175C419.158 120.883 419.395 120.542 419.545 120.15C419.695 119.75 419.77 119.312 419.77 118.837C419.77 117.912 419.441 117.183 418.783 116.65C418.133 116.108 417.145 115.837 415.82 115.837H411.958ZM411.958 114.112H415.158C415.841 114.112 416.433 114.037 416.933 113.887C417.433 113.737 417.845 113.529 418.17 113.262C418.504 112.996 418.75 112.675 418.908 112.3C419.066 111.917 419.145 111.5 419.145 111.05C419.145 110 418.829 109.229 418.195 108.737C417.562 108.246 416.579 108 415.245 108H411.958V114.112ZM434.532 117.525C434.649 117.725 434.749 117.937 434.832 118.162C434.924 118.379 435.011 118.6 435.094 118.825C435.178 118.592 435.265 118.371 435.357 118.162C435.449 117.946 435.553 117.729 435.669 117.512L441.732 106.5C441.84 106.308 441.953 106.192 442.069 106.15C442.186 106.108 442.353 106.087 442.569 106.087H444.357V124H442.232V110.837C442.232 110.662 442.236 110.475 442.244 110.275C442.253 110.075 442.265 109.871 442.282 109.662L436.144 120.862C435.936 121.237 435.644 121.425 435.269 121.425H434.919C434.544 121.425 434.253 121.237 434.044 120.862L427.769 109.625C427.794 109.842 427.811 110.054 427.819 110.262C427.836 110.471 427.844 110.662 427.844 110.837V124H425.719V106.087H427.507C427.724 106.087 427.89 106.108 428.007 106.15C428.124 106.192 428.236 106.308 428.344 106.5L434.532 117.525ZM451.592 124H449.167V106.087H451.592V124ZM465.558 108.887C465.483 109.012 465.404 109.108 465.321 109.175C465.238 109.233 465.129 109.262 464.996 109.262C464.854 109.262 464.688 109.192 464.496 109.05C464.313 108.908 464.075 108.754 463.783 108.587C463.5 108.412 463.154 108.254 462.746 108.112C462.346 107.971 461.858 107.9 461.283 107.9C460.742 107.9 460.263 107.975 459.846 108.125C459.429 108.267 459.079 108.462 458.796 108.712C458.521 108.962 458.313 109.258 458.171 109.6C458.029 109.933 457.958 110.296 457.958 110.687C457.958 111.187 458.079 111.604 458.321 111.937C458.571 112.262 458.896 112.542 459.296 112.775C459.704 113.008 460.163 113.212 460.671 113.387C461.188 113.554 461.713 113.729 462.246 113.912C462.788 114.096 463.313 114.304 463.821 114.537C464.338 114.762 464.796 115.05 465.196 115.4C465.604 115.75 465.929 116.179 466.171 116.687C466.421 117.196 466.546 117.821 466.546 118.562C466.546 119.346 466.413 120.083 466.146 120.775C465.879 121.458 465.488 122.054 464.971 122.562C464.463 123.071 463.833 123.471 463.083 123.762C462.342 124.054 461.496 124.2 460.546 124.2C459.388 124.2 458.329 123.992 457.371 123.575C456.421 123.15 455.608 122.579 454.933 121.862L455.633 120.712C455.7 120.621 455.779 120.546 455.871 120.487C455.971 120.421 456.079 120.387 456.196 120.387C456.371 120.387 456.571 120.483 456.796 120.675C457.021 120.858 457.3 121.062 457.633 121.287C457.975 121.512 458.383 121.721 458.858 121.912C459.342 122.096 459.929 122.187 460.621 122.187C461.196 122.187 461.708 122.108 462.158 121.95C462.608 121.792 462.988 121.571 463.296 121.287C463.613 120.996 463.854 120.65 464.021 120.25C464.188 119.85 464.271 119.404 464.271 118.912C464.271 118.371 464.146 117.929 463.896 117.587C463.654 117.237 463.333 116.946 462.933 116.712C462.533 116.479 462.075 116.283 461.558 116.125C461.05 115.958 460.525 115.792 459.983 115.625C459.45 115.45 458.925 115.25 458.408 115.025C457.9 114.8 457.446 114.508 457.046 114.15C456.646 113.792 456.321 113.346 456.071 112.812C455.829 112.271 455.708 111.604 455.708 110.812C455.708 110.179 455.829 109.567 456.071 108.975C456.321 108.383 456.679 107.858 457.146 107.4C457.613 106.942 458.188 106.575 458.871 106.3C459.563 106.025 460.354 105.887 461.246 105.887C462.246 105.887 463.158 106.046 463.983 106.362C464.808 106.679 465.529 107.137 466.146 107.737L465.558 108.887ZM478.815 108.887C478.74 109.012 478.661 109.108 478.578 109.175C478.494 109.233 478.386 109.262 478.253 109.262C478.111 109.262 477.944 109.192 477.753 109.05C477.569 108.908 477.332 108.754 477.04 108.587C476.757 108.412 476.411 108.254 476.003 108.112C475.603 107.971 475.115 107.9 474.54 107.9C473.999 107.9 473.519 107.975 473.103 108.125C472.686 108.267 472.336 108.462 472.053 108.712C471.778 108.962 471.569 109.258 471.428 109.6C471.286 109.933 471.215 110.296 471.215 110.687C471.215 111.187 471.336 111.604 471.578 111.937C471.828 112.262 472.153 112.542 472.553 112.775C472.961 113.008 473.419 113.212 473.928 113.387C474.444 113.554 474.969 113.729 475.503 113.912C476.044 114.096 476.569 114.304 477.078 114.537C477.594 114.762 478.053 115.05 478.453 115.4C478.861 115.75 479.186 116.179 479.428 116.687C479.678 117.196 479.803 117.821 479.803 118.562C479.803 119.346 479.669 120.083 479.403 120.775C479.136 121.458 478.744 122.054 478.228 122.562C477.719 123.071 477.09 123.471 476.34 123.762C475.599 124.054 474.753 124.2 473.803 124.2C472.644 124.2 471.586 123.992 470.628 123.575C469.678 123.15 468.865 122.579 468.19 121.862L468.89 120.712C468.957 120.621 469.036 120.546 469.128 120.487C469.228 120.421 469.336 120.387 469.453 120.387C469.628 120.387 469.828 120.483 470.053 120.675C470.278 120.858 470.557 121.062 470.89 121.287C471.232 121.512 471.64 121.721 472.115 121.912C472.599 122.096 473.186 122.187 473.878 122.187C474.453 122.187 474.965 122.108 475.415 121.95C475.865 121.792 476.244 121.571 476.553 121.287C476.869 120.996 477.111 120.65 477.278 120.25C477.444 119.85 477.528 119.404 477.528 118.912C477.528 118.371 477.403 117.929 477.153 117.587C476.911 117.237 476.59 116.946 476.19 116.712C475.79 116.479 475.332 116.283 474.815 116.125C474.307 115.958 473.782 115.792 473.24 115.625C472.707 115.45 472.182 115.25 471.665 115.025C471.157 114.8 470.703 114.508 470.303 114.15C469.903 113.792 469.578 113.346 469.328 112.812C469.086 112.271 468.965 111.604 468.965 110.812C468.965 110.179 469.086 109.567 469.328 108.975C469.578 108.383 469.936 107.858 470.403 107.4C470.869 106.942 471.444 106.575 472.128 106.3C472.819 106.025 473.611 105.887 474.503 105.887C475.503 105.887 476.415 106.046 477.24 106.362C478.065 106.679 478.786 107.137 479.403 107.737L478.815 108.887ZM485.772 124H483.347V106.087H485.772V124ZM507.201 115.05C507.201 116.392 506.988 117.625 506.563 118.75C506.138 119.867 505.538 120.829 504.763 121.637C503.988 122.446 503.055 123.075 501.963 123.525C500.88 123.967 499.68 124.188 498.363 124.188C497.047 124.188 495.847 123.967 494.763 123.525C493.68 123.075 492.751 122.446 491.976 121.637C491.201 120.829 490.601 119.867 490.176 118.75C489.751 117.625 489.538 116.392 489.538 115.05C489.538 113.708 489.751 112.479 490.176 111.362C490.601 110.237 491.201 109.271 491.976 108.462C492.751 107.646 493.68 107.012 494.763 106.562C495.847 106.112 497.047 105.887 498.363 105.887C499.68 105.887 500.88 106.112 501.963 106.562C503.055 107.012 503.988 107.646 504.763 108.462C505.538 109.271 506.138 110.237 506.563 111.362C506.988 112.479 507.201 113.708 507.201 115.05ZM504.713 115.05C504.713 113.95 504.563 112.962 504.263 112.087C503.963 111.212 503.538 110.475 502.988 109.875C502.438 109.267 501.772 108.8 500.988 108.475C500.205 108.15 499.33 107.987 498.363 107.987C497.405 107.987 496.534 108.15 495.751 108.475C494.967 108.8 494.297 109.267 493.738 109.875C493.188 110.475 492.763 111.212 492.463 112.087C492.163 112.962 492.013 113.95 492.013 115.05C492.013 116.15 492.163 117.137 492.463 118.012C492.763 118.879 493.188 119.617 493.738 120.225C494.297 120.825 494.967 121.287 495.751 121.612C496.534 121.929 497.405 122.087 498.363 122.087C499.33 122.087 500.205 121.929 500.988 121.612C501.772 121.287 502.438 120.825 502.988 120.225C503.538 119.617 503.963 118.879 504.263 118.012C504.563 117.137 504.713 116.15 504.713 115.05ZM511.759 106.087C511.976 106.087 512.134 106.117 512.234 106.175C512.343 106.225 512.464 106.333 512.597 106.5L522.972 120C522.947 119.783 522.93 119.575 522.922 119.375C522.914 119.167 522.909 118.967 522.909 118.775V106.087H525.034V124H523.809C523.618 124 523.455 123.967 523.322 123.9C523.197 123.833 523.072 123.721 522.947 123.562L512.584 110.075C512.601 110.283 512.614 110.487 512.622 110.687C512.63 110.887 512.634 111.071 512.634 111.237V124H510.509V106.087H511.759ZM549.765 115.05C549.765 116.392 549.552 117.612 549.127 118.712C548.702 119.812 548.102 120.754 547.327 121.537C546.552 122.321 545.623 122.929 544.54 123.362C543.457 123.787 542.257 124 540.94 124H534.24V106.087H540.94C542.257 106.087 543.457 106.304 544.54 106.737C545.623 107.162 546.552 107.771 547.327 108.562C548.102 109.346 548.702 110.287 549.127 111.387C549.552 112.487 549.765 113.708 549.765 115.05ZM547.277 115.05C547.277 113.95 547.127 112.967 546.827 112.1C546.527 111.233 546.102 110.5 545.552 109.9C545.002 109.3 544.336 108.842 543.552 108.525C542.769 108.208 541.898 108.05 540.94 108.05H536.677V122.037H540.94C541.898 122.037 542.769 121.879 543.552 121.562C544.336 121.246 545.002 120.792 545.552 120.2C546.102 119.6 546.527 118.867 546.827 118C547.127 117.133 547.277 116.15 547.277 115.05ZM564.101 106.087V108.062H555.501V114.012H562.463V115.912H555.501V122.025H564.101V124H553.063V106.087H564.101ZM582.327 124H580.452C580.235 124 580.06 123.946 579.927 123.837C579.794 123.729 579.694 123.592 579.627 123.425L577.952 119.1H569.915L568.24 123.425C568.181 123.575 568.081 123.708 567.94 123.825C567.798 123.942 567.623 124 567.415 124H565.54L572.702 106.087H575.165L582.327 124ZM570.59 117.35H577.277L574.465 110.062C574.281 109.612 574.102 109.05 573.927 108.375C573.835 108.717 573.744 109.033 573.652 109.325C573.569 109.608 573.485 109.858 573.402 110.075L570.59 117.35ZM600.107 115.05C600.107 116.392 599.894 117.612 599.469 118.712C599.044 119.812 598.444 120.754 597.669 121.537C596.894 122.321 595.965 122.929 594.882 123.362C593.798 123.787 592.598 124 591.282 124H584.582V106.087H591.282C592.598 106.087 593.798 106.304 594.882 106.737C595.965 107.162 596.894 107.771 597.669 108.562C598.444 109.346 599.044 110.287 599.469 111.387C599.894 112.487 600.107 113.708 600.107 115.05ZM597.619 115.05C597.619 113.95 597.469 112.967 597.169 112.1C596.869 111.233 596.444 110.5 595.894 109.9C595.344 109.3 594.678 108.842 593.894 108.525C593.111 108.208 592.24 108.05 591.282 108.05H587.019V122.037H591.282C592.24 122.037 593.111 121.879 593.894 121.562C594.678 121.246 595.344 120.792 595.894 120.2C596.444 119.6 596.869 118.867 597.169 118C597.469 117.133 597.619 116.15 597.619 115.05ZM605.83 121.962H613.58V124H603.405V106.087H605.83V121.962ZM619.122 124H616.697V106.087H619.122V124ZM625.163 106.087C625.379 106.087 625.538 106.117 625.638 106.175C625.746 106.225 625.867 106.333 626 106.5L636.375 120C636.35 119.783 636.334 119.575 636.325 119.375C636.317 119.167 636.313 118.967 636.313 118.775V106.087H638.438V124H637.213C637.021 124 636.859 123.967 636.725 123.9C636.6 123.833 636.475 123.721 636.35 123.562L625.988 110.075C626.004 110.283 626.017 110.487 626.025 110.687C626.034 110.887 626.038 111.071 626.038 111.237V124H623.913V106.087H625.163ZM653.847 106.087V108.062H645.247V114.012H652.209V115.912H645.247V122.025H653.847V124H642.809V106.087H653.847Z" fill="white"/>
<path d="M810.141 88.115C810.211 88.235 810.271 88.3625 810.321 88.4975C810.376 88.6275 810.429 88.76 810.479 88.895C810.529 88.755 810.581 88.6225 810.636 88.4975C810.691 88.3675 810.754 88.2375 810.824 88.1075L814.461 81.5C814.526 81.385 814.594 81.315 814.664 81.29C814.734 81.265 814.834 81.2525 814.964 81.2525H816.036V92H814.761V84.1025C814.761 83.9975 814.764 83.885 814.769 83.765C814.774 83.645 814.781 83.5225 814.791 83.3975L811.109 90.1175C810.984 90.3425 810.809 90.455 810.584 90.455H810.374C810.149 90.455 809.974 90.3425 809.849 90.1175L806.084 83.375C806.099 83.505 806.109 83.6325 806.114 83.7575C806.124 83.8825 806.129 83.9975 806.129 84.1025V92H804.854V81.2525H805.926C806.056 81.2525 806.156 81.265 806.226 81.29C806.296 81.315 806.364 81.385 806.429 81.5L810.141 88.115ZM827.495 92H826.37C826.24 92 826.135 91.9675 826.055 91.9025C825.975 91.8375 825.915 91.755 825.875 91.655L824.87 89.06H820.048L819.043 91.655C819.008 91.745 818.948 91.825 818.863 91.895C818.778 91.965 818.673 92 818.548 92H817.423L821.72 81.2525H823.198L827.495 92ZM820.453 88.01H824.465L822.778 83.6375C822.668 83.3675 822.56 83.03 822.455 82.625C822.4 82.83 822.345 83.02 822.29 83.195C822.24 83.365 822.19 83.515 822.14 83.645L820.453 88.01ZM831.758 87.725V92H830.31V87.725L826.373 81.2525H827.648C827.778 81.2525 827.88 81.285 827.955 81.35C828.03 81.415 828.095 81.495 828.15 81.59L830.61 85.7675C830.71 85.9425 830.793 86.1075 830.858 86.2625C830.928 86.4175 830.99 86.57 831.045 86.72C831.1 86.565 831.16 86.41 831.225 86.255C831.29 86.1 831.373 85.9375 831.473 85.7675L833.925 81.59C833.97 81.51 834.03 81.435 834.105 81.365C834.185 81.29 834.288 81.2525 834.413 81.2525H835.703L831.758 87.725ZM843.154 81.1325C843.609 81.1325 844.034 81.2 844.429 81.335C844.824 81.47 845.164 81.6675 845.449 81.9275C845.739 82.1825 845.966 82.495 846.131 82.865C846.296 83.235 846.379 83.655 846.379 84.125C846.379 84.525 846.319 84.895 846.199 85.235C846.079 85.575 845.916 85.9025 845.711 86.2175C845.506 86.5275 845.269 86.83 844.999 87.125C844.734 87.415 844.451 87.7125 844.151 88.0175L841.324 90.9125C841.524 90.8575 841.726 90.815 841.931 90.785C842.136 90.75 842.334 90.7325 842.524 90.7325H846.124C846.269 90.7325 846.384 90.775 846.469 90.86C846.554 90.945 846.596 91.055 846.596 91.19V92H839.426V91.5425C839.426 91.4475 839.444 91.35 839.479 91.25C839.519 91.15 839.581 91.0575 839.666 90.9725L843.109 87.515C843.394 87.225 843.654 86.9475 843.889 86.6825C844.124 86.4125 844.324 86.1425 844.489 85.8725C844.659 85.6025 844.789 85.33 844.879 85.055C844.969 84.775 845.014 84.4775 845.014 84.1625C845.014 83.8475 844.964 83.5725 844.864 83.3375C844.764 83.0975 844.626 82.9 844.451 82.745C844.276 82.59 844.071 82.475 843.836 82.4C843.601 82.32 843.349 82.28 843.079 82.28C842.809 82.28 842.559 82.32 842.329 82.4C842.099 82.48 841.894 82.5925 841.714 82.7375C841.539 82.8775 841.389 83.045 841.264 83.24C841.144 83.435 841.059 83.65 841.009 83.885C840.969 84.03 840.909 84.135 840.829 84.2C840.749 84.265 840.644 84.2975 840.514 84.2975C840.489 84.2975 840.461 84.2975 840.431 84.2975C840.406 84.2925 840.376 84.2875 840.341 84.2825L839.644 84.1625C839.714 83.6725 839.849 83.24 840.049 82.865C840.249 82.485 840.501 82.1675 840.806 81.9125C841.116 81.6575 841.469 81.465 841.864 81.335C842.264 81.2 842.694 81.1325 843.154 81.1325ZM855.598 86.63C855.598 87.57 855.495 88.385 855.29 89.075C855.09 89.76 854.815 90.3275 854.465 90.7775C854.115 91.2275 853.7 91.5625 853.22 91.7825C852.745 92.0025 852.235 92.1125 851.69 92.1125C851.14 92.1125 850.628 92.0025 850.153 91.7825C849.683 91.5625 849.273 91.2275 848.923 90.7775C848.573 90.3275 848.298 89.76 848.098 89.075C847.898 88.385 847.798 87.57 847.798 86.63C847.798 85.69 847.898 84.875 848.098 84.185C848.298 83.495 848.573 82.925 848.923 82.475C849.273 82.02 849.683 81.6825 850.153 81.4625C850.628 81.2425 851.14 81.1325 851.69 81.1325C852.235 81.1325 852.745 81.2425 853.22 81.4625C853.7 81.6825 854.115 82.02 854.465 82.475C854.815 82.925 855.09 83.495 855.29 84.185C855.495 84.875 855.598 85.69 855.598 86.63ZM854.21 86.63C854.21 85.81 854.14 85.1225 854 84.5675C853.865 84.0075 853.68 83.5575 853.445 83.2175C853.215 82.8775 852.948 82.635 852.643 82.49C852.338 82.34 852.02 82.265 851.69 82.265C851.36 82.265 851.043 82.34 850.738 82.49C850.433 82.635 850.165 82.8775 849.935 83.2175C849.705 83.5575 849.52 84.0075 849.38 84.5675C849.245 85.1225 849.178 85.81 849.178 86.63C849.178 87.45 849.245 88.1375 849.38 88.6925C849.52 89.2475 849.705 89.695 849.935 90.035C850.165 90.375 850.433 90.62 850.738 90.77C851.043 90.915 851.36 90.9875 851.69 90.9875C852.02 90.9875 852.338 90.915 852.643 90.77C852.948 90.62 853.215 90.375 853.445 90.035C853.68 89.695 853.865 89.2475 854 88.6925C854.14 88.1375 854.21 87.45 854.21 86.63ZM860.556 81.1325C861.011 81.1325 861.436 81.2 861.831 81.335C862.226 81.47 862.566 81.6675 862.851 81.9275C863.141 82.1825 863.369 82.495 863.534 82.865C863.699 83.235 863.781 83.655 863.781 84.125C863.781 84.525 863.721 84.895 863.601 85.235C863.481 85.575 863.319 85.9025 863.114 86.2175C862.909 86.5275 862.671 86.83 862.401 87.125C862.136 87.415 861.854 87.7125 861.554 88.0175L858.726 90.9125C858.926 90.8575 859.129 90.815 859.334 90.785C859.539 90.75 859.736 90.7325 859.926 90.7325H863.526C863.671 90.7325 863.786 90.775 863.871 90.86C863.956 90.945 863.999 91.055 863.999 91.19V92H856.829V91.5425C856.829 91.4475 856.846 91.35 856.881 91.25C856.921 91.15 856.984 91.0575 857.069 90.9725L860.511 87.515C860.796 87.225 861.056 86.9475 861.291 86.6825C861.526 86.4125 861.726 86.1425 861.891 85.8725C862.061 85.6025 862.191 85.33 862.281 85.055C862.371 84.775 862.416 84.4775 862.416 84.1625C862.416 83.8475 862.366 83.5725 862.266 83.3375C862.166 83.0975 862.029 82.9 861.854 82.745C861.679 82.59 861.474 82.475 861.239 82.4C861.004 82.32 860.751 82.28 860.481 82.28C860.211 82.28 859.961 82.32 859.731 82.4C859.501 82.48 859.296 82.5925 859.116 82.7375C858.941 82.8775 858.791 83.045 858.666 83.24C858.546 83.435 858.461 83.65 858.411 83.885C858.371 84.03 858.311 84.135 858.231 84.2C858.151 84.265 858.046 84.2975 857.916 84.2975C857.891 84.2975 857.864 84.2975 857.834 84.2975C857.809 84.2925 857.779 84.2875 857.744 84.2825L857.046 84.1625C857.116 83.6725 857.251 83.24 857.451 82.865C857.651 82.485 857.904 82.1675 858.209 81.9125C858.519 81.6575 858.871 81.465 859.266 81.335C859.666 81.2 860.096 81.1325 860.556 81.1325ZM869.4 81.1325C869.855 81.1325 870.275 81.1975 870.66 81.3275C871.045 81.4575 871.375 81.6425 871.65 81.8825C871.93 82.1225 872.148 82.4125 872.303 82.7525C872.458 83.0925 872.535 83.47 872.535 83.885C872.535 84.225 872.49 84.53 872.4 84.8C872.315 85.065 872.19 85.3 872.025 85.505C871.865 85.705 871.67 85.875 871.44 86.015C871.21 86.155 870.953 86.2675 870.668 86.3525C871.368 86.5375 871.893 86.8475 872.243 87.2825C872.598 87.7175 872.775 88.2625 872.775 88.9175C872.775 89.4125 872.68 89.8575 872.49 90.2525C872.305 90.6475 872.05 90.985 871.725 91.265C871.4 91.54 871.02 91.7525 870.585 91.9025C870.155 92.0475 869.693 92.12 869.198 92.12C868.628 92.12 868.14 92.05 867.735 91.91C867.33 91.765 866.988 91.5675 866.708 91.3175C866.428 91.0675 866.198 90.7725 866.018 90.4325C865.838 90.0875 865.685 89.715 865.56 89.315L866.13 89.075C866.235 89.03 866.34 89.0075 866.445 89.0075C866.545 89.0075 866.633 89.03 866.708 89.075C866.788 89.115 866.848 89.18 866.888 89.27C866.898 89.29 866.908 89.3125 866.918 89.3375C866.928 89.3575 866.938 89.38 866.948 89.405C867.018 89.55 867.103 89.715 867.203 89.9C867.303 90.08 867.438 90.25 867.608 90.41C867.778 90.57 867.988 90.705 868.238 90.815C868.493 90.925 868.808 90.98 869.183 90.98C869.558 90.98 869.885 90.92 870.165 90.8C870.45 90.675 870.685 90.515 870.87 90.32C871.06 90.125 871.203 89.9075 871.298 89.6675C871.393 89.4275 871.44 89.19 871.44 88.955C871.44 88.665 871.4 88.4 871.32 88.16C871.245 87.92 871.105 87.7125 870.9 87.5375C870.7 87.3625 870.42 87.225 870.06 87.125C869.705 87.025 869.248 86.975 868.688 86.975V86.0075C869.143 86.0025 869.53 85.9525 869.85 85.8575C870.175 85.7625 870.44 85.6325 870.645 85.4675C870.85 85.3025 870.998 85.105 871.088 84.875C871.183 84.645 871.23 84.39 871.23 84.11C871.23 83.8 871.18 83.53 871.08 83.3C870.985 83.07 870.853 82.88 870.683 82.73C870.513 82.58 870.31 82.4675 870.075 82.3925C869.845 82.3175 869.595 82.28 869.325 82.28C869.055 82.28 868.805 82.32 868.575 82.4C868.345 82.48 868.14 82.5925 867.96 82.7375C867.785 82.8775 867.638 83.0475 867.518 83.2475C867.398 83.4425 867.308 83.655 867.248 83.885C867.208 84.03 867.148 84.135 867.068 84.2C866.988 84.265 866.885 84.2975 866.76 84.2975C866.735 84.2975 866.708 84.2975 866.677 84.2975C866.653 84.2925 866.623 84.2875 866.588 84.2825L865.89 84.1625C865.96 83.6725 866.095 83.24 866.295 82.865C866.495 82.485 866.748 82.1675 867.053 81.9125C867.363 81.6575 867.715 81.465 868.11 81.335C868.51 81.2 868.94 81.1325 869.4 81.1325Z" fill="#FAC47E"/>
<path d="M734.815 117.812C734.815 118.812 734.69 119.708 734.44 120.5C734.198 121.292 733.836 121.962 733.352 122.512C732.877 123.054 732.29 123.471 731.59 123.762C730.89 124.054 730.086 124.2 729.177 124.2C728.369 124.2 727.527 124.083 726.652 123.85C726.669 123.608 726.69 123.371 726.715 123.137C726.74 122.896 726.765 122.658 726.79 122.425C726.807 122.283 726.857 122.171 726.94 122.087C727.032 121.996 727.165 121.95 727.34 121.95C727.49 121.95 727.69 121.987 727.94 122.062C728.19 122.137 728.523 122.175 728.94 122.175C729.49 122.175 729.977 122.092 730.402 121.925C730.836 121.758 731.198 121.5 731.49 121.15C731.79 120.8 732.015 120.354 732.165 119.812C732.323 119.262 732.402 118.612 732.402 117.862V106.087H734.815V117.812ZM746.148 122.075C746.89 122.075 747.552 121.95 748.136 121.7C748.719 121.45 749.211 121.1 749.611 120.65C750.019 120.2 750.327 119.662 750.536 119.037C750.752 118.412 750.861 117.725 750.861 116.975V106.087H753.273V116.975C753.273 118.008 753.107 118.967 752.773 119.85C752.448 120.733 751.977 121.5 751.361 122.15C750.752 122.792 750.007 123.296 749.123 123.662C748.24 124.029 747.248 124.213 746.148 124.213C745.048 124.213 744.057 124.029 743.173 123.662C742.29 123.296 741.54 122.792 740.923 122.15C740.307 121.5 739.832 120.733 739.498 119.85C739.173 118.967 739.011 118.008 739.011 116.975V106.087H741.423V116.962C741.423 117.712 741.527 118.4 741.736 119.025C741.952 119.65 742.261 120.187 742.661 120.637C743.069 121.087 743.565 121.442 744.148 121.7C744.74 121.95 745.407 122.075 746.148 122.075ZM772.972 115.05C772.972 116.392 772.76 117.612 772.335 118.712C771.91 119.812 771.31 120.754 770.535 121.537C769.76 122.321 768.831 122.929 767.747 123.362C766.664 123.787 765.464 124 764.147 124H757.447V106.087H764.147C765.464 106.087 766.664 106.304 767.747 106.737C768.831 107.162 769.76 107.771 770.535 108.562C771.31 109.346 771.91 110.287 772.335 111.387C772.76 112.487 772.972 113.708 772.972 115.05ZM770.485 115.05C770.485 113.95 770.335 112.967 770.035 112.1C769.735 111.233 769.31 110.5 768.76 109.9C768.21 109.3 767.543 108.842 766.76 108.525C765.977 108.208 765.106 108.05 764.147 108.05H759.885V122.037H764.147C765.106 122.037 765.977 121.879 766.76 121.562C767.543 121.246 768.21 120.792 768.76 120.2C769.31 119.6 769.735 118.867 770.035 118C770.335 117.133 770.485 116.15 770.485 115.05ZM784.258 122.237C784.742 122.237 785.183 122.217 785.583 122.175C785.992 122.125 786.375 122.054 786.733 121.962C787.092 121.871 787.429 121.762 787.746 121.637C788.062 121.504 788.379 121.354 788.696 121.187V117.237H785.921C785.762 117.237 785.633 117.192 785.533 117.1C785.442 117.008 785.396 116.896 785.396 116.762V115.387H790.896V122.262C790.446 122.587 789.975 122.871 789.483 123.112C789 123.354 788.479 123.558 787.921 123.725C787.371 123.883 786.779 124 786.146 124.075C785.512 124.158 784.825 124.2 784.083 124.2C782.783 124.2 781.592 123.979 780.508 123.537C779.425 123.087 778.492 122.462 777.708 121.662C776.925 120.854 776.312 119.887 775.871 118.762C775.437 117.637 775.221 116.4 775.221 115.05C775.221 113.683 775.433 112.437 775.858 111.312C776.292 110.187 776.904 109.225 777.696 108.425C778.496 107.617 779.458 106.992 780.583 106.55C781.717 106.108 782.983 105.887 784.383 105.887C785.092 105.887 785.75 105.942 786.358 106.05C786.967 106.15 787.529 106.3 788.046 106.5C788.571 106.692 789.054 106.929 789.496 107.212C789.937 107.487 790.35 107.8 790.733 108.15L790.046 109.25C789.904 109.475 789.721 109.588 789.496 109.588C789.362 109.588 789.217 109.542 789.058 109.45C788.85 109.333 788.617 109.192 788.358 109.025C788.1 108.858 787.783 108.7 787.408 108.55C787.042 108.392 786.604 108.258 786.096 108.15C785.596 108.042 785 107.987 784.308 107.987C783.3 107.987 782.387 108.154 781.571 108.487C780.754 108.812 780.058 109.283 779.483 109.9C778.908 110.508 778.467 111.25 778.158 112.125C777.85 112.992 777.696 113.967 777.696 115.05C777.696 116.183 777.854 117.196 778.171 118.087C778.496 118.971 778.95 119.721 779.533 120.337C780.117 120.954 780.808 121.425 781.608 121.75C782.408 122.075 783.292 122.237 784.258 122.237ZM797.505 124H795.08V106.087H797.505V124ZM803.546 106.087C803.763 106.087 803.921 106.117 804.021 106.175C804.129 106.225 804.25 106.333 804.384 106.5L814.759 120C814.734 119.783 814.717 119.575 814.709 119.375C814.7 119.167 814.696 118.967 814.696 118.775V106.087H816.821V124H815.596C815.404 124 815.242 123.967 815.109 123.9C814.984 123.833 814.859 123.721 814.734 123.562L804.371 110.075C804.388 110.283 804.4 110.487 804.409 110.687C804.417 110.887 804.421 111.071 804.421 111.237V124H802.296V106.087H803.546ZM829.18 122.237C829.663 122.237 830.105 122.217 830.505 122.175C830.913 122.125 831.297 122.054 831.655 121.962C832.013 121.871 832.351 121.762 832.668 121.637C832.984 121.504 833.301 121.354 833.618 121.187V117.237H830.843C830.684 117.237 830.555 117.192 830.455 117.1C830.363 117.008 830.318 116.896 830.318 116.762V115.387H835.818V122.262C835.368 122.587 834.897 122.871 834.405 123.112C833.922 123.354 833.401 123.558 832.843 123.725C832.293 123.883 831.701 124 831.068 124.075C830.434 124.158 829.747 124.2 829.005 124.2C827.705 124.2 826.513 123.979 825.43 123.537C824.347 123.087 823.413 122.462 822.63 121.662C821.847 120.854 821.234 119.887 820.793 118.762C820.359 117.637 820.143 116.4 820.143 115.05C820.143 113.683 820.355 112.437 820.78 111.312C821.213 110.187 821.826 109.225 822.618 108.425C823.418 107.617 824.38 106.992 825.505 106.55C826.638 106.108 827.905 105.887 829.305 105.887C830.013 105.887 830.672 105.942 831.28 106.05C831.888 106.15 832.451 106.3 832.968 106.5C833.493 106.692 833.976 106.929 834.418 107.212C834.859 107.487 835.272 107.8 835.655 108.15L834.968 109.25C834.826 109.475 834.643 109.588 834.418 109.588C834.284 109.588 834.138 109.542 833.98 109.45C833.772 109.333 833.538 109.192 833.28 109.025C833.022 108.858 832.705 108.7 832.33 108.55C831.963 108.392 831.526 108.258 831.018 108.15C830.518 108.042 829.922 107.987 829.23 107.987C828.222 107.987 827.309 108.154 826.493 108.487C825.676 108.812 824.98 109.283 824.405 109.9C823.83 110.508 823.388 111.25 823.08 112.125C822.772 112.992 822.618 113.967 822.618 115.05C822.618 116.183 822.776 117.196 823.093 118.087C823.418 118.971 823.872 119.721 824.455 120.337C825.038 120.954 825.73 121.425 826.53 121.75C827.33 122.075 828.213 122.237 829.18 122.237ZM847.048 117.3V124H844.636V106.087H849.923C851.057 106.087 852.04 106.221 852.873 106.487C853.715 106.746 854.411 107.117 854.961 107.6C855.511 108.083 855.919 108.667 856.186 109.35C856.461 110.033 856.598 110.796 856.598 111.637C856.598 112.471 856.453 113.233 856.161 113.925C855.869 114.617 855.44 115.212 854.873 115.712C854.315 116.212 853.619 116.604 852.786 116.887C851.953 117.162 850.998 117.3 849.923 117.3H847.048ZM847.048 115.375H849.923C850.615 115.375 851.223 115.283 851.748 115.1C852.282 114.917 852.728 114.662 853.086 114.337C853.444 114.004 853.715 113.608 853.898 113.15C854.082 112.692 854.173 112.187 854.173 111.637C854.173 110.496 853.819 109.604 853.111 108.962C852.411 108.321 851.348 108 849.923 108H847.048V115.375ZM862.332 116.525V124H859.919V106.087H864.982C866.115 106.087 867.094 106.204 867.919 106.437C868.744 106.662 869.423 106.992 869.957 107.425C870.498 107.858 870.898 108.383 871.157 109C871.415 109.608 871.544 110.292 871.544 111.05C871.544 111.683 871.444 112.275 871.244 112.825C871.044 113.375 870.752 113.871 870.369 114.312C869.994 114.746 869.532 115.117 868.982 115.425C868.44 115.733 867.823 115.967 867.132 116.125C867.432 116.3 867.698 116.554 867.932 116.887L873.157 124H871.007C870.565 124 870.24 123.829 870.032 123.487L865.382 117.087C865.24 116.887 865.086 116.746 864.919 116.662C864.752 116.571 864.502 116.525 864.169 116.525H862.332ZM862.332 114.762H864.869C865.577 114.762 866.198 114.679 866.732 114.512C867.273 114.337 867.723 114.096 868.082 113.787C868.448 113.471 868.723 113.096 868.907 112.662C869.09 112.229 869.182 111.75 869.182 111.225C869.182 110.158 868.827 109.354 868.119 108.812C867.419 108.271 866.373 108 864.982 108H862.332V114.762ZM891.81 115.05C891.81 116.392 891.597 117.625 891.172 118.75C890.747 119.867 890.147 120.829 889.372 121.637C888.597 122.446 887.664 123.075 886.572 123.525C885.489 123.967 884.289 124.188 882.972 124.188C881.655 124.188 880.455 123.967 879.372 123.525C878.289 123.075 877.36 122.446 876.585 121.637C875.81 120.829 875.21 119.867 874.785 118.75C874.36 117.625 874.147 116.392 874.147 115.05C874.147 113.708 874.36 112.479 874.785 111.362C875.21 110.237 875.81 109.271 876.585 108.462C877.36 107.646 878.289 107.012 879.372 106.562C880.455 106.112 881.655 105.887 882.972 105.887C884.289 105.887 885.489 106.112 886.572 106.562C887.664 107.012 888.597 107.646 889.372 108.462C890.147 109.271 890.747 110.237 891.172 111.362C891.597 112.479 891.81 113.708 891.81 115.05ZM889.322 115.05C889.322 113.95 889.172 112.962 888.872 112.087C888.572 111.212 888.147 110.475 887.597 109.875C887.047 109.267 886.38 108.8 885.597 108.475C884.814 108.15 883.939 107.987 882.972 107.987C882.014 107.987 881.143 108.15 880.36 108.475C879.576 108.8 878.905 109.267 878.347 109.875C877.797 110.475 877.372 111.212 877.072 112.087C876.772 112.962 876.622 113.95 876.622 115.05C876.622 116.15 876.772 117.137 877.072 118.012C877.372 118.879 877.797 119.617 878.347 120.225C878.905 120.825 879.576 121.287 880.36 121.612C881.143 121.929 882.014 122.087 882.972 122.087C883.939 122.087 884.814 121.929 885.597 121.612C886.38 121.287 887.047 120.825 887.597 120.225C888.147 119.617 888.572 118.879 888.872 118.012C889.172 117.137 889.322 116.15 889.322 115.05ZM907.743 120.3C907.877 120.3 907.998 120.354 908.106 120.462L909.056 121.5C908.323 122.35 907.431 123.012 906.381 123.487C905.339 123.963 904.081 124.2 902.606 124.2C901.314 124.2 900.143 123.979 899.093 123.537C898.043 123.087 897.148 122.462 896.406 121.662C895.664 120.854 895.089 119.887 894.681 118.762C894.273 117.637 894.068 116.4 894.068 115.05C894.068 113.7 894.285 112.462 894.718 111.337C895.16 110.212 895.777 109.246 896.568 108.437C897.36 107.629 898.306 107.004 899.406 106.562C900.514 106.112 901.735 105.887 903.068 105.887C904.385 105.887 905.518 106.092 906.468 106.5C907.427 106.908 908.277 107.462 909.018 108.162L908.231 109.275C908.173 109.358 908.106 109.429 908.031 109.487C907.956 109.537 907.848 109.562 907.706 109.562C907.598 109.562 907.481 109.525 907.356 109.45C907.239 109.367 907.098 109.267 906.931 109.15C906.764 109.033 906.568 108.908 906.343 108.775C906.118 108.642 905.852 108.517 905.543 108.4C905.235 108.283 904.877 108.187 904.468 108.112C904.06 108.029 903.589 107.987 903.056 107.987C902.098 107.987 901.218 108.154 900.418 108.487C899.627 108.812 898.943 109.279 898.368 109.887C897.793 110.496 897.343 111.237 897.018 112.112C896.702 112.987 896.543 113.967 896.543 115.05C896.543 116.167 896.702 117.162 897.018 118.037C897.343 118.912 897.781 119.654 898.331 120.262C898.889 120.862 899.548 121.321 900.306 121.637C901.064 121.954 901.881 122.112 902.756 122.112C903.289 122.112 903.768 122.083 904.193 122.025C904.618 121.958 905.01 121.858 905.368 121.725C905.735 121.592 906.073 121.425 906.381 121.225C906.698 121.017 907.014 120.771 907.331 120.487C907.473 120.362 907.61 120.3 907.743 120.3ZM923.27 106.087V108.062H914.67V114.012H921.633V115.912H914.67V122.025H923.27V124H912.233V106.087H923.27ZM935.934 108.887C935.859 109.012 935.78 109.108 935.696 109.175C935.613 109.233 935.505 109.262 935.371 109.262C935.23 109.262 935.063 109.192 934.871 109.05C934.688 108.908 934.451 108.754 934.159 108.587C933.876 108.412 933.53 108.254 933.121 108.112C932.721 107.971 932.234 107.9 931.659 107.9C931.117 107.9 930.638 107.975 930.221 108.125C929.805 108.267 929.455 108.462 929.171 108.712C928.896 108.962 928.688 109.258 928.546 109.6C928.405 109.933 928.334 110.296 928.334 110.687C928.334 111.187 928.455 111.604 928.696 111.937C928.946 112.262 929.271 112.542 929.671 112.775C930.08 113.008 930.538 113.212 931.046 113.387C931.563 113.554 932.088 113.729 932.621 113.912C933.163 114.096 933.688 114.304 934.196 114.537C934.713 114.762 935.171 115.05 935.571 115.4C935.98 115.75 936.305 116.179 936.546 116.687C936.796 117.196 936.921 117.821 936.921 118.562C936.921 119.346 936.788 120.083 936.521 120.775C936.255 121.458 935.863 122.054 935.346 122.562C934.838 123.071 934.209 123.471 933.459 123.762C932.717 124.054 931.871 124.2 930.921 124.2C929.763 124.2 928.705 123.992 927.746 123.575C926.796 123.15 925.984 122.579 925.309 121.862L926.009 120.712C926.076 120.621 926.155 120.546 926.246 120.487C926.346 120.421 926.455 120.387 926.571 120.387C926.746 120.387 926.946 120.483 927.171 120.675C927.396 120.858 927.676 121.062 928.009 121.287C928.351 121.512 928.759 121.721 929.234 121.912C929.717 122.096 930.305 122.187 930.996 122.187C931.571 122.187 932.084 122.108 932.534 121.95C932.984 121.792 933.363 121.571 933.671 121.287C933.988 120.996 934.23 120.65 934.396 120.25C934.563 119.85 934.646 119.404 934.646 118.912C934.646 118.371 934.521 117.929 934.271 117.587C934.03 117.237 933.709 116.946 933.309 116.712C932.909 116.479 932.451 116.283 931.934 116.125C931.426 115.958 930.901 115.792 930.359 115.625C929.826 115.45 929.301 115.25 928.784 115.025C928.276 114.8 927.821 114.508 927.421 114.15C927.021 113.792 926.696 113.346 926.446 112.812C926.205 112.271 926.084 111.604 926.084 110.812C926.084 110.179 926.205 109.567 926.446 108.975C926.696 108.383 927.055 107.858 927.521 107.4C927.988 106.942 928.563 106.575 929.246 106.3C929.938 106.025 930.73 105.887 931.621 105.887C932.621 105.887 933.534 106.046 934.359 106.362C935.184 106.679 935.905 107.137 936.521 107.737L935.934 108.887ZM949.191 108.887C949.116 109.012 949.037 109.108 948.953 109.175C948.87 109.233 948.762 109.262 948.628 109.262C948.487 109.262 948.32 109.192 948.128 109.05C947.945 108.908 947.707 108.754 947.416 108.587C947.132 108.412 946.787 108.254 946.378 108.112C945.978 107.971 945.491 107.9 944.916 107.9C944.374 107.9 943.895 107.975 943.478 108.125C943.062 108.267 942.712 108.462 942.428 108.712C942.153 108.962 941.945 109.258 941.803 109.6C941.662 109.933 941.591 110.296 941.591 110.687C941.591 111.187 941.712 111.604 941.953 111.937C942.203 112.262 942.528 112.542 942.928 112.775C943.337 113.008 943.795 113.212 944.303 113.387C944.82 113.554 945.345 113.729 945.878 113.912C946.42 114.096 946.945 114.304 947.453 114.537C947.97 114.762 948.428 115.05 948.828 115.4C949.237 115.75 949.562 116.179 949.803 116.687C950.053 117.196 950.178 117.821 950.178 118.562C950.178 119.346 950.045 120.083 949.778 120.775C949.512 121.458 949.12 122.054 948.603 122.562C948.095 123.071 947.466 123.471 946.716 123.762C945.974 124.054 945.128 124.2 944.178 124.2C943.02 124.2 941.962 123.992 941.003 123.575C940.053 123.15 939.241 122.579 938.566 121.862L939.266 120.712C939.332 120.621 939.412 120.546 939.503 120.487C939.603 120.421 939.712 120.387 939.828 120.387C940.003 120.387 940.203 120.483 940.428 120.675C940.653 120.858 940.932 121.062 941.266 121.287C941.607 121.512 942.016 121.721 942.491 121.912C942.974 122.096 943.562 122.187 944.253 122.187C944.828 122.187 945.341 122.108 945.791 121.95C946.241 121.792 946.62 121.571 946.928 121.287C947.245 120.996 947.487 120.65 947.653 120.25C947.82 119.85 947.903 119.404 947.903 118.912C947.903 118.371 947.778 117.929 947.528 117.587C947.287 117.237 946.966 116.946 946.566 116.712C946.166 116.479 945.707 116.283 945.191 116.125C944.682 115.958 944.157 115.792 943.616 115.625C943.082 115.45 942.557 115.25 942.041 115.025C941.532 114.8 941.078 114.508 940.678 114.15C940.278 113.792 939.953 113.346 939.703 112.812C939.462 112.271 939.341 111.604 939.341 110.812C939.341 110.179 939.462 109.567 939.703 108.975C939.953 108.383 940.312 107.858 940.778 107.4C941.245 106.942 941.82 106.575 942.503 106.3C943.195 106.025 943.987 105.887 944.878 105.887C945.878 105.887 946.791 106.046 947.616 106.362C948.441 106.679 949.162 107.137 949.778 107.737L949.191 108.887Z" fill="white"/>
<path d="M1154.51 88.2875C1154.51 88.8875 1154.44 89.425 1154.29 89.9C1154.14 90.375 1153.93 90.7775 1153.64 91.1075C1153.35 91.4325 1153 91.6825 1152.58 91.8575C1152.16 92.0325 1151.68 92.12 1151.13 92.12C1150.65 92.12 1150.14 92.05 1149.62 91.91C1149.63 91.765 1149.64 91.6225 1149.65 91.4825C1149.67 91.3375 1149.68 91.195 1149.7 91.055C1149.71 90.97 1149.74 90.9025 1149.79 90.8525C1149.84 90.7975 1149.92 90.77 1150.03 90.77C1150.12 90.77 1150.24 90.7925 1150.39 90.8375C1150.54 90.8825 1150.74 90.905 1150.99 90.905C1151.32 90.905 1151.61 90.855 1151.87 90.755C1152.13 90.655 1152.34 90.5 1152.52 90.29C1152.7 90.08 1152.83 89.8125 1152.92 89.4875C1153.02 89.1575 1153.07 88.7675 1153.07 88.3175V81.2525H1154.51V88.2875ZM1161.32 90.845C1161.76 90.845 1162.16 90.77 1162.51 90.62C1162.86 90.47 1163.15 90.26 1163.39 89.99C1163.64 89.72 1163.82 89.3975 1163.95 89.0225C1164.08 88.6475 1164.14 88.235 1164.14 87.785V81.2525H1165.59V87.785C1165.59 88.405 1165.49 88.98 1165.29 89.51C1165.1 90.04 1164.81 90.5 1164.44 90.89C1164.08 91.275 1163.63 91.5775 1163.1 91.7975C1162.57 92.0175 1161.98 92.1275 1161.32 92.1275C1160.66 92.1275 1160.06 92.0175 1159.53 91.7975C1159 91.5775 1158.55 91.275 1158.18 90.89C1157.81 90.5 1157.53 90.04 1157.33 89.51C1157.13 88.98 1157.03 88.405 1157.03 87.785V81.2525H1158.48V87.7775C1158.48 88.2275 1158.54 88.64 1158.67 89.015C1158.8 89.39 1158.98 89.7125 1159.22 89.9825C1159.47 90.2525 1159.77 90.465 1160.12 90.62C1160.47 90.77 1160.87 90.845 1161.32 90.845ZM1168.84 81.2525C1168.97 81.2525 1169.07 81.27 1169.13 81.305C1169.19 81.335 1169.27 81.4 1169.35 81.5L1175.57 89.6C1175.56 89.47 1175.55 89.345 1175.54 89.225C1175.54 89.1 1175.53 88.98 1175.53 88.865V81.2525H1176.81V92H1176.07C1175.96 92 1175.86 91.98 1175.78 91.94C1175.71 91.9 1175.63 91.8325 1175.56 91.7375L1169.34 83.645C1169.35 83.77 1169.36 83.8925 1169.36 84.0125C1169.37 84.1325 1169.37 84.2425 1169.37 84.3425V92H1168.09V81.2525H1168.84ZM1185.54 81.1325C1185.99 81.1325 1186.42 81.2 1186.81 81.335C1187.21 81.47 1187.55 81.6675 1187.83 81.9275C1188.12 82.1825 1188.35 82.495 1188.51 82.865C1188.68 83.235 1188.76 83.655 1188.76 84.125C1188.76 84.525 1188.7 84.895 1188.58 85.235C1188.46 85.575 1188.3 85.9025 1188.09 86.2175C1187.89 86.5275 1187.65 86.83 1187.38 87.125C1187.12 87.415 1186.83 87.7125 1186.53 88.0175L1183.71 90.9125C1183.91 90.8575 1184.11 90.815 1184.31 90.785C1184.52 90.75 1184.72 90.7325 1184.91 90.7325H1188.51C1188.65 90.7325 1188.77 90.775 1188.85 90.86C1188.94 90.945 1188.98 91.055 1188.98 91.19V92H1181.81V91.5425C1181.81 91.4475 1181.83 91.35 1181.86 91.25C1181.9 91.15 1181.96 91.0575 1182.05 90.9725L1185.49 87.515C1185.78 87.225 1186.04 86.9475 1186.27 86.6825C1186.51 86.4125 1186.71 86.1425 1186.87 85.8725C1187.04 85.6025 1187.17 85.33 1187.26 85.055C1187.35 84.775 1187.4 84.4775 1187.4 84.1625C1187.4 83.8475 1187.35 83.5725 1187.25 83.3375C1187.15 83.0975 1187.01 82.9 1186.83 82.745C1186.66 82.59 1186.45 82.475 1186.22 82.4C1185.98 82.32 1185.73 82.28 1185.46 82.28C1185.19 82.28 1184.94 82.32 1184.71 82.4C1184.48 82.48 1184.28 82.5925 1184.1 82.7375C1183.92 82.8775 1183.77 83.045 1183.65 83.24C1183.53 83.435 1183.44 83.65 1183.39 83.885C1183.35 84.03 1183.29 84.135 1183.21 84.2C1183.13 84.265 1183.03 84.2975 1182.9 84.2975C1182.87 84.2975 1182.84 84.2975 1182.81 84.2975C1182.79 84.2925 1182.76 84.2875 1182.72 84.2825L1182.03 84.1625C1182.1 83.6725 1182.23 83.24 1182.43 82.865C1182.63 82.485 1182.88 82.1675 1183.19 81.9125C1183.5 81.6575 1183.85 81.465 1184.25 81.335C1184.65 81.2 1185.08 81.1325 1185.54 81.1325ZM1197.98 86.63C1197.98 87.57 1197.88 88.385 1197.67 89.075C1197.47 89.76 1197.2 90.3275 1196.85 90.7775C1196.5 91.2275 1196.08 91.5625 1195.6 91.7825C1195.13 92.0025 1194.62 92.1125 1194.07 92.1125C1193.52 92.1125 1193.01 92.0025 1192.53 91.7825C1192.06 91.5625 1191.65 91.2275 1191.3 90.7775C1190.95 90.3275 1190.68 89.76 1190.48 89.075C1190.28 88.385 1190.18 87.57 1190.18 86.63C1190.18 85.69 1190.28 84.875 1190.48 84.185C1190.68 83.495 1190.95 82.925 1191.3 82.475C1191.65 82.02 1192.06 81.6825 1192.53 81.4625C1193.01 81.2425 1193.52 81.1325 1194.07 81.1325C1194.62 81.1325 1195.13 81.2425 1195.6 81.4625C1196.08 81.6825 1196.5 82.02 1196.85 82.475C1197.2 82.925 1197.47 83.495 1197.67 84.185C1197.88 84.875 1197.98 85.69 1197.98 86.63ZM1196.59 86.63C1196.59 85.81 1196.52 85.1225 1196.38 84.5675C1196.25 84.0075 1196.06 83.5575 1195.83 83.2175C1195.6 82.8775 1195.33 82.635 1195.02 82.49C1194.72 82.34 1194.4 82.265 1194.07 82.265C1193.74 82.265 1193.42 82.34 1193.12 82.49C1192.81 82.635 1192.55 82.8775 1192.32 83.2175C1192.09 83.5575 1191.9 84.0075 1191.76 84.5675C1191.63 85.1225 1191.56 85.81 1191.56 86.63C1191.56 87.45 1191.63 88.1375 1191.76 88.6925C1191.9 89.2475 1192.09 89.695 1192.32 90.035C1192.55 90.375 1192.81 90.62 1193.12 90.77C1193.42 90.915 1193.74 90.9875 1194.07 90.9875C1194.4 90.9875 1194.72 90.915 1195.02 90.77C1195.33 90.62 1195.6 90.375 1195.83 90.035C1196.06 89.695 1196.25 89.2475 1196.38 88.6925C1196.52 88.1375 1196.59 87.45 1196.59 86.63ZM1202.94 81.1325C1203.39 81.1325 1203.82 81.2 1204.21 81.335C1204.61 81.47 1204.95 81.6675 1205.23 81.9275C1205.52 82.1825 1205.75 82.495 1205.92 82.865C1206.08 83.235 1206.16 83.655 1206.16 84.125C1206.16 84.525 1206.1 84.895 1205.98 85.235C1205.86 85.575 1205.7 85.9025 1205.5 86.2175C1205.29 86.5275 1205.05 86.83 1204.78 87.125C1204.52 87.415 1204.24 87.7125 1203.94 88.0175L1201.11 90.9125C1201.31 90.8575 1201.51 90.815 1201.72 90.785C1201.92 90.75 1202.12 90.7325 1202.31 90.7325H1205.91C1206.05 90.7325 1206.17 90.775 1206.25 90.86C1206.34 90.945 1206.38 91.055 1206.38 91.19V92H1199.21V91.5425C1199.21 91.4475 1199.23 91.35 1199.26 91.25C1199.3 91.15 1199.37 91.0575 1199.45 90.9725L1202.89 87.515C1203.18 87.225 1203.44 86.9475 1203.67 86.6825C1203.91 86.4125 1204.11 86.1425 1204.27 85.8725C1204.44 85.6025 1204.57 85.33 1204.66 85.055C1204.75 84.775 1204.8 84.4775 1204.8 84.1625C1204.8 83.8475 1204.75 83.5725 1204.65 83.3375C1204.55 83.0975 1204.41 82.9 1204.24 82.745C1204.06 82.59 1203.86 82.475 1203.62 82.4C1203.39 82.32 1203.13 82.28 1202.86 82.28C1202.59 82.28 1202.34 82.32 1202.11 82.4C1201.88 82.48 1201.68 82.5925 1201.5 82.7375C1201.32 82.8775 1201.17 83.045 1201.05 83.24C1200.93 83.435 1200.84 83.65 1200.79 83.885C1200.75 84.03 1200.69 84.135 1200.61 84.2C1200.53 84.265 1200.43 84.2975 1200.3 84.2975C1200.27 84.2975 1200.25 84.2975 1200.22 84.2975C1200.19 84.2925 1200.16 84.2875 1200.13 84.2825L1199.43 84.1625C1199.5 83.6725 1199.63 83.24 1199.83 82.865C1200.03 82.485 1200.29 82.1675 1200.59 81.9125C1200.9 81.6575 1201.25 81.465 1201.65 81.335C1202.05 81.2 1202.48 81.1325 1202.94 81.1325ZM1211.78 81.1325C1212.24 81.1325 1212.66 81.1975 1213.04 81.3275C1213.43 81.4575 1213.76 81.6425 1214.03 81.8825C1214.31 82.1225 1214.53 82.4125 1214.68 82.7525C1214.84 83.0925 1214.92 83.47 1214.92 83.885C1214.92 84.225 1214.87 84.53 1214.78 84.8C1214.7 85.065 1214.57 85.3 1214.41 85.505C1214.25 85.705 1214.05 85.875 1213.82 86.015C1213.59 86.155 1213.33 86.2675 1213.05 86.3525C1213.75 86.5375 1214.27 86.8475 1214.62 87.2825C1214.98 87.7175 1215.16 88.2625 1215.16 88.9175C1215.16 89.4125 1215.06 89.8575 1214.87 90.2525C1214.69 90.6475 1214.43 90.985 1214.11 91.265C1213.78 91.54 1213.4 91.7525 1212.97 91.9025C1212.54 92.0475 1212.07 92.12 1211.58 92.12C1211.01 92.12 1210.52 92.05 1210.12 91.91C1209.71 91.765 1209.37 91.5675 1209.09 91.3175C1208.81 91.0675 1208.58 90.7725 1208.4 90.4325C1208.22 90.0875 1208.07 89.715 1207.94 89.315L1208.51 89.075C1208.62 89.03 1208.72 89.0075 1208.83 89.0075C1208.93 89.0075 1209.01 89.03 1209.09 89.075C1209.17 89.115 1209.23 89.18 1209.27 89.27C1209.28 89.29 1209.29 89.3125 1209.3 89.3375C1209.31 89.3575 1209.32 89.38 1209.33 89.405C1209.4 89.55 1209.48 89.715 1209.58 89.9C1209.68 90.08 1209.82 90.25 1209.99 90.41C1210.16 90.57 1210.37 90.705 1210.62 90.815C1210.87 90.925 1211.19 90.98 1211.56 90.98C1211.94 90.98 1212.27 90.92 1212.55 90.8C1212.83 90.675 1213.07 90.515 1213.25 90.32C1213.44 90.125 1213.58 89.9075 1213.68 89.6675C1213.77 89.4275 1213.82 89.19 1213.82 88.955C1213.82 88.665 1213.78 88.4 1213.7 88.16C1213.63 87.92 1213.49 87.7125 1213.28 87.5375C1213.08 87.3625 1212.8 87.225 1212.44 87.125C1212.09 87.025 1211.63 86.975 1211.07 86.975V86.0075C1211.52 86.0025 1211.91 85.9525 1212.23 85.8575C1212.56 85.7625 1212.82 85.6325 1213.03 85.4675C1213.23 85.3025 1213.38 85.105 1213.47 84.875C1213.56 84.645 1213.61 84.39 1213.61 84.11C1213.61 83.8 1213.56 83.53 1213.46 83.3C1213.37 83.07 1213.23 82.88 1213.06 82.73C1212.89 82.58 1212.69 82.4675 1212.46 82.3925C1212.23 82.3175 1211.98 82.28 1211.71 82.28C1211.44 82.28 1211.19 82.32 1210.96 82.4C1210.73 82.48 1210.52 82.5925 1210.34 82.7375C1210.17 82.8775 1210.02 83.0475 1209.9 83.2475C1209.78 83.4425 1209.69 83.655 1209.63 83.885C1209.59 84.03 1209.53 84.135 1209.45 84.2C1209.37 84.265 1209.27 84.2975 1209.14 84.2975C1209.12 84.2975 1209.09 84.2975 1209.06 84.2975C1209.03 84.2925 1209 84.2875 1208.97 84.2825L1208.27 84.1625C1208.34 83.6725 1208.48 83.24 1208.68 82.865C1208.88 82.485 1209.13 82.1675 1209.43 81.9125C1209.74 81.6575 1210.1 81.465 1210.49 81.335C1210.89 81.2 1211.32 81.1325 1211.78 81.1325Z" fill="#FAC47E"/>
<path d="M1029.14 105.887C1029.89 105.887 1030.6 106 1031.26 106.225C1031.92 106.45 1032.49 106.779 1032.96 107.212C1033.44 107.637 1033.82 108.158 1034.1 108.775C1034.37 109.392 1034.51 110.092 1034.51 110.875C1034.51 111.542 1034.41 112.158 1034.21 112.725C1034.01 113.292 1033.74 113.837 1033.4 114.362C1033.06 114.879 1032.66 115.383 1032.21 115.875C1031.77 116.358 1031.3 116.854 1030.8 117.362L1026.09 122.187C1026.42 122.096 1026.76 122.025 1027.1 121.975C1027.44 121.917 1027.77 121.887 1028.09 121.887H1034.09C1034.33 121.887 1034.52 121.958 1034.66 122.1C1034.8 122.242 1034.87 122.425 1034.87 122.65V124H1022.92V123.237C1022.92 123.079 1022.95 122.917 1023.01 122.75C1023.08 122.583 1023.18 122.429 1023.32 122.287L1029.06 116.525C1029.54 116.042 1029.97 115.579 1030.36 115.137C1030.75 114.687 1031.09 114.237 1031.36 113.787C1031.64 113.337 1031.86 112.883 1032.01 112.425C1032.16 111.958 1032.24 111.462 1032.24 110.937C1032.24 110.412 1032.15 109.954 1031.99 109.562C1031.82 109.162 1031.59 108.833 1031.3 108.575C1031.01 108.317 1030.67 108.125 1030.27 108C1029.88 107.867 1029.46 107.8 1029.01 107.8C1028.56 107.8 1028.14 107.867 1027.76 108C1027.38 108.133 1027.04 108.321 1026.74 108.562C1026.44 108.796 1026.19 109.075 1025.99 109.4C1025.79 109.725 1025.64 110.083 1025.56 110.475C1025.49 110.717 1025.39 110.892 1025.26 111C1025.13 111.108 1024.95 111.162 1024.74 111.162C1024.69 111.162 1024.65 111.162 1024.6 111.162C1024.56 111.154 1024.51 111.146 1024.45 111.137L1023.29 110.937C1023.4 110.121 1023.63 109.4 1023.96 108.775C1024.29 108.142 1024.72 107.612 1025.22 107.187C1025.74 106.762 1026.33 106.442 1026.99 106.225C1027.65 106 1028.37 105.887 1029.14 105.887ZM1049.88 115.05C1049.88 116.617 1049.7 117.975 1049.36 119.125C1049.03 120.267 1048.57 121.212 1047.99 121.962C1047.4 122.712 1046.71 123.271 1045.91 123.637C1045.12 124.004 1044.27 124.188 1043.36 124.188C1042.45 124.188 1041.59 124.004 1040.8 123.637C1040.02 123.271 1039.33 122.712 1038.75 121.962C1038.17 121.212 1037.71 120.267 1037.38 119.125C1037.04 117.975 1036.88 116.617 1036.88 115.05C1036.88 113.483 1037.04 112.125 1037.38 110.975C1037.71 109.825 1038.17 108.875 1038.75 108.125C1039.33 107.367 1040.02 106.804 1040.8 106.437C1041.59 106.071 1042.45 105.887 1043.36 105.887C1044.27 105.887 1045.12 106.071 1045.91 106.437C1046.71 106.804 1047.4 107.367 1047.99 108.125C1048.57 108.875 1049.03 109.825 1049.36 110.975C1049.7 112.125 1049.88 113.483 1049.88 115.05ZM1047.56 115.05C1047.56 113.683 1047.45 112.537 1047.21 111.612C1046.99 110.679 1046.68 109.929 1046.29 109.362C1045.9 108.796 1045.46 108.392 1044.95 108.15C1044.44 107.9 1043.91 107.775 1043.36 107.775C1042.81 107.775 1042.28 107.9 1041.78 108.15C1041.27 108.392 1040.82 108.796 1040.44 109.362C1040.05 109.929 1039.75 110.679 1039.51 111.612C1039.29 112.537 1039.18 113.683 1039.18 115.05C1039.18 116.417 1039.29 117.562 1039.51 118.487C1039.75 119.412 1040.05 120.158 1040.44 120.725C1040.82 121.292 1041.27 121.7 1041.78 121.95C1042.28 122.192 1042.81 122.312 1043.36 122.312C1043.91 122.312 1044.44 122.192 1044.95 121.95C1045.46 121.7 1045.9 121.292 1046.29 120.725C1046.68 120.158 1046.99 119.412 1047.21 118.487C1047.45 117.562 1047.56 116.417 1047.56 115.05ZM1058.14 105.887C1058.9 105.887 1059.61 106 1060.26 106.225C1060.92 106.45 1061.49 106.779 1061.96 107.212C1062.45 107.637 1062.83 108.158 1063.1 108.775C1063.38 109.392 1063.51 110.092 1063.51 110.875C1063.51 111.542 1063.41 112.158 1063.21 112.725C1063.01 113.292 1062.74 113.837 1062.4 114.362C1062.06 114.879 1061.66 115.383 1061.21 115.875C1060.77 116.358 1060.3 116.854 1059.8 117.362L1055.09 122.187C1055.42 122.096 1055.76 122.025 1056.1 121.975C1056.44 121.917 1056.77 121.887 1057.09 121.887H1063.09C1063.33 121.887 1063.52 121.958 1063.66 122.1C1063.81 122.242 1063.88 122.425 1063.88 122.65V124H1051.93V123.237C1051.93 123.079 1051.96 122.917 1052.01 122.75C1052.08 122.583 1052.19 122.429 1052.33 122.287L1058.06 116.525C1058.54 116.042 1058.97 115.579 1059.36 115.137C1059.76 114.687 1060.09 114.237 1060.36 113.787C1060.65 113.337 1060.86 112.883 1061.01 112.425C1061.16 111.958 1061.24 111.462 1061.24 110.937C1061.24 110.412 1061.16 109.954 1060.99 109.562C1060.82 109.162 1060.59 108.833 1060.3 108.575C1060.01 108.317 1059.67 108.125 1059.28 108C1058.89 107.867 1058.46 107.8 1058.01 107.8C1057.56 107.8 1057.15 107.867 1056.76 108C1056.38 108.133 1056.04 108.321 1055.74 108.562C1055.45 108.796 1055.2 109.075 1054.99 109.4C1054.79 109.725 1054.65 110.083 1054.56 110.475C1054.5 110.717 1054.4 110.892 1054.26 111C1054.13 111.108 1053.96 111.162 1053.74 111.162C1053.7 111.162 1053.65 111.162 1053.6 111.162C1053.56 111.154 1053.51 111.146 1053.45 111.137L1052.29 110.937C1052.41 110.121 1052.63 109.4 1052.96 108.775C1053.3 108.142 1053.72 107.612 1054.23 107.187C1054.74 106.762 1055.33 106.442 1055.99 106.225C1056.66 106 1057.37 105.887 1058.14 105.887ZM1072.88 105.887C1073.64 105.887 1074.34 105.996 1074.98 106.212C1075.62 106.429 1076.17 106.737 1076.63 107.137C1077.1 107.537 1077.46 108.021 1077.72 108.587C1077.98 109.154 1078.1 109.783 1078.1 110.475C1078.1 111.042 1078.03 111.55 1077.88 112C1077.74 112.442 1077.53 112.833 1077.25 113.175C1076.99 113.508 1076.66 113.792 1076.28 114.025C1075.9 114.258 1075.47 114.446 1074.99 114.587C1076.16 114.896 1077.03 115.412 1077.62 116.137C1078.21 116.862 1078.5 117.771 1078.5 118.862C1078.5 119.687 1078.35 120.429 1078.03 121.087C1077.72 121.746 1077.3 122.308 1076.75 122.775C1076.21 123.233 1075.58 123.587 1074.85 123.837C1074.14 124.079 1073.37 124.2 1072.54 124.2C1071.59 124.2 1070.78 124.083 1070.1 123.85C1069.43 123.608 1068.86 123.279 1068.39 122.862C1067.93 122.446 1067.54 121.954 1067.24 121.387C1066.94 120.812 1066.69 120.192 1066.48 119.525L1067.43 119.125C1067.6 119.05 1067.78 119.012 1067.95 119.012C1068.12 119.012 1068.27 119.05 1068.39 119.125C1068.53 119.192 1068.63 119.3 1068.69 119.45C1068.71 119.483 1068.73 119.521 1068.74 119.562C1068.76 119.596 1068.78 119.633 1068.79 119.675C1068.91 119.917 1069.05 120.192 1069.22 120.5C1069.38 120.8 1069.61 121.083 1069.89 121.35C1070.18 121.617 1070.53 121.842 1070.94 122.025C1071.37 122.208 1071.89 122.3 1072.52 122.3C1073.14 122.3 1073.69 122.2 1074.15 122C1074.63 121.792 1075.02 121.525 1075.33 121.2C1075.65 120.875 1075.88 120.512 1076.04 120.112C1076.2 119.712 1076.28 119.317 1076.28 118.925C1076.28 118.442 1076.21 118 1076.08 117.6C1075.95 117.2 1075.72 116.854 1075.38 116.562C1075.05 116.271 1074.58 116.042 1073.98 115.875C1073.39 115.708 1072.63 115.625 1071.69 115.625V114.012C1072.45 114.004 1073.1 113.921 1073.63 113.762C1074.17 113.604 1074.61 113.387 1074.95 113.112C1075.3 112.837 1075.54 112.508 1075.69 112.125C1075.85 111.742 1075.93 111.317 1075.93 110.85C1075.93 110.333 1075.85 109.883 1075.68 109.5C1075.52 109.117 1075.3 108.8 1075.02 108.55C1074.73 108.3 1074.4 108.112 1074 107.987C1073.62 107.862 1073.2 107.8 1072.75 107.8C1072.3 107.8 1071.89 107.867 1071.5 108C1071.12 108.133 1070.78 108.321 1070.48 108.562C1070.19 108.796 1069.94 109.079 1069.74 109.412C1069.54 109.737 1069.39 110.092 1069.29 110.475C1069.23 110.717 1069.13 110.892 1068.99 111C1068.86 111.108 1068.69 111.162 1068.48 111.162C1068.44 111.162 1068.39 111.162 1068.34 111.162C1068.3 111.154 1068.25 111.146 1068.19 111.137L1067.03 110.937C1067.15 110.121 1067.37 109.4 1067.7 108.775C1068.04 108.142 1068.46 107.612 1068.97 107.187C1069.48 106.762 1070.07 106.442 1070.73 106.225C1071.4 106 1072.11 105.887 1072.88 105.887ZM1101.38 124H1099.5C1099.29 124 1099.11 123.946 1098.98 123.837C1098.84 123.729 1098.74 123.592 1098.68 123.425L1097 119.1H1088.97L1087.29 123.425C1087.23 123.575 1087.13 123.708 1086.99 123.825C1086.85 123.942 1086.67 124 1086.47 124H1084.59L1091.75 106.087H1094.22L1101.38 124ZM1089.64 117.35H1096.33L1093.52 110.062C1093.33 109.612 1093.15 109.05 1092.98 108.375C1092.89 108.717 1092.79 109.033 1092.7 109.325C1092.62 109.608 1092.54 109.858 1092.45 110.075L1089.64 117.35ZM1118.37 124H1116.5C1116.28 124 1116.1 123.946 1115.97 123.837C1115.84 123.729 1115.74 123.592 1115.67 123.425L1114 119.1H1105.96L1104.28 123.425C1104.22 123.575 1104.12 123.708 1103.98 123.825C1103.84 123.942 1103.67 124 1103.46 124H1101.58L1108.75 106.087H1111.21L1118.37 124ZM1106.63 117.35H1113.32L1110.51 110.062C1110.32 109.612 1110.15 109.05 1109.97 108.375C1109.88 108.717 1109.79 109.033 1109.7 109.325C1109.61 109.608 1109.53 109.858 1109.45 110.075L1106.63 117.35ZM1136.15 115.05C1136.15 116.392 1135.94 117.612 1135.51 118.712C1135.09 119.812 1134.49 120.754 1133.71 121.537C1132.94 122.321 1132.01 122.929 1130.92 123.362C1129.84 123.787 1128.64 124 1127.32 124H1120.62V106.087H1127.32C1128.64 106.087 1129.84 106.304 1130.92 106.737C1132.01 107.162 1132.94 107.771 1133.71 108.562C1134.49 109.346 1135.09 110.287 1135.51 111.387C1135.94 112.487 1136.15 113.708 1136.15 115.05ZM1133.66 115.05C1133.66 113.95 1133.51 112.967 1133.21 112.1C1132.91 111.233 1132.49 110.5 1131.94 109.9C1131.39 109.3 1130.72 108.842 1129.94 108.525C1129.15 108.208 1128.28 108.05 1127.32 108.05H1123.06V122.037H1127.32C1128.28 122.037 1129.15 121.879 1129.94 121.562C1130.72 121.246 1131.39 120.792 1131.94 120.2C1132.49 119.6 1132.91 118.867 1133.21 118C1133.51 117.133 1133.66 116.15 1133.66 115.05ZM1153.65 124H1151.77C1151.56 124 1151.38 123.946 1151.25 123.837C1151.12 123.729 1151.02 123.592 1150.95 123.425L1149.27 119.1H1141.24L1139.56 123.425C1139.5 123.575 1139.4 123.708 1139.26 123.825C1139.12 123.942 1138.94 124 1138.74 124H1136.86L1144.02 106.087H1146.49L1153.65 124ZM1141.91 117.35H1148.6L1145.79 110.062C1145.6 109.612 1145.42 109.05 1145.25 108.375C1145.16 108.717 1145.07 109.033 1144.97 109.325C1144.89 109.608 1144.81 109.858 1144.72 110.075L1141.91 117.35ZM1158.74 106.087H1160.75C1160.97 106.087 1161.15 106.142 1161.29 106.25C1161.43 106.358 1161.52 106.496 1161.57 106.662L1165.27 119.112C1165.34 119.337 1165.4 119.579 1165.45 119.837C1165.51 120.096 1165.56 120.367 1165.61 120.65C1165.67 120.367 1165.73 120.096 1165.79 119.837C1165.85 119.571 1165.91 119.329 1165.99 119.112L1170.2 106.662C1170.25 106.521 1170.35 106.392 1170.49 106.275C1170.64 106.15 1170.82 106.087 1171.02 106.087H1171.72C1171.94 106.087 1172.12 106.142 1172.25 106.25C1172.39 106.358 1172.49 106.496 1172.55 106.662L1176.74 119.112C1176.89 119.546 1177.02 120.042 1177.14 120.6C1177.19 120.325 1177.23 120.062 1177.27 119.812C1177.32 119.562 1177.37 119.329 1177.44 119.112L1181.15 106.662C1181.19 106.512 1181.28 106.379 1181.42 106.262C1181.57 106.146 1181.75 106.087 1181.96 106.087H1183.85L1178.26 124H1176.09L1171.55 110.337C1171.46 110.079 1171.37 109.779 1171.3 109.437C1171.26 109.604 1171.22 109.767 1171.17 109.925C1171.14 110.075 1171.1 110.212 1171.06 110.337L1166.5 124H1164.32L1158.74 106.087ZM1189.08 124H1186.65V106.087H1189.08V124ZM1195.12 106.087C1195.33 106.087 1195.49 106.117 1195.59 106.175C1195.7 106.225 1195.82 106.333 1195.95 106.5L1206.33 120C1206.3 119.783 1206.29 119.575 1206.28 119.375C1206.27 119.167 1206.27 118.967 1206.27 118.775V106.087H1208.39V124H1207.17C1206.98 124 1206.81 123.967 1206.68 123.9C1206.55 123.833 1206.43 123.721 1206.3 123.562L1195.94 110.075C1195.96 110.283 1195.97 110.487 1195.98 110.687C1195.99 110.887 1195.99 111.071 1195.99 111.237V124H1193.87V106.087H1195.12ZM1214.01 106.087C1214.23 106.087 1214.39 106.117 1214.49 106.175C1214.6 106.225 1214.72 106.333 1214.85 106.5L1225.23 120C1225.2 119.783 1225.18 119.575 1225.18 119.375C1225.17 119.167 1225.16 118.967 1225.16 118.775V106.087H1227.29V124H1226.06C1225.87 124 1225.71 123.967 1225.58 123.9C1225.45 123.833 1225.33 123.721 1225.2 123.562L1214.84 110.075C1214.86 110.283 1214.87 110.487 1214.88 110.687C1214.88 110.887 1214.89 111.071 1214.89 111.237V124H1212.76V106.087H1214.01ZM1242.7 106.087V108.062H1234.1V114.012H1241.06V115.912H1234.1V122.025H1242.7V124H1231.66V106.087H1242.7ZM1248.85 116.525V124H1246.44V106.087H1251.5C1252.63 106.087 1253.61 106.204 1254.44 106.437C1255.26 106.662 1255.94 106.992 1256.47 107.425C1257.02 107.858 1257.42 108.383 1257.67 109C1257.93 109.608 1258.06 110.292 1258.06 111.05C1258.06 111.683 1257.96 112.275 1257.76 112.825C1257.56 113.375 1257.27 113.871 1256.89 114.312C1256.51 114.746 1256.05 115.117 1255.5 115.425C1254.96 115.733 1254.34 115.967 1253.65 116.125C1253.95 116.3 1254.22 116.554 1254.45 116.887L1259.67 124H1257.52C1257.08 124 1256.76 123.829 1256.55 123.487L1251.9 117.087C1251.76 116.887 1251.6 116.746 1251.44 116.662C1251.27 116.571 1251.02 116.525 1250.69 116.525H1248.85ZM1248.85 114.762H1251.39C1252.09 114.762 1252.72 114.679 1253.25 114.512C1253.79 114.337 1254.24 114.096 1254.6 113.787C1254.97 113.471 1255.24 113.096 1255.42 112.662C1255.61 112.229 1255.7 111.75 1255.7 111.225C1255.7 110.158 1255.34 109.354 1254.64 108.812C1253.94 108.271 1252.89 108 1251.5 108H1248.85V114.762ZM1271.45 108.887C1271.38 109.012 1271.3 109.108 1271.21 109.175C1271.13 109.233 1271.02 109.262 1270.89 109.262C1270.75 109.262 1270.58 109.192 1270.39 109.05C1270.2 108.908 1269.97 108.754 1269.68 108.587C1269.39 108.412 1269.05 108.254 1268.64 108.112C1268.24 107.971 1267.75 107.9 1267.18 107.9C1266.63 107.9 1266.15 107.975 1265.74 108.125C1265.32 108.267 1264.97 108.462 1264.69 108.712C1264.41 108.962 1264.2 109.258 1264.06 109.6C1263.92 109.933 1263.85 110.296 1263.85 110.687C1263.85 111.187 1263.97 111.604 1264.21 111.937C1264.46 112.262 1264.79 112.542 1265.19 112.775C1265.6 113.008 1266.05 113.212 1266.56 113.387C1267.08 113.554 1267.6 113.729 1268.14 113.912C1268.68 114.096 1269.2 114.304 1269.71 114.537C1270.23 114.762 1270.69 115.05 1271.09 115.4C1271.5 115.75 1271.82 116.179 1272.06 116.687C1272.31 117.196 1272.44 117.821 1272.44 118.562C1272.44 119.346 1272.3 120.083 1272.04 120.775C1271.77 121.458 1271.38 122.054 1270.86 122.562C1270.35 123.071 1269.73 123.471 1268.98 123.762C1268.23 124.054 1267.39 124.2 1266.44 124.2C1265.28 124.2 1264.22 123.992 1263.26 123.575C1262.31 123.15 1261.5 122.579 1260.83 121.862L1261.53 120.712C1261.59 120.621 1261.67 120.546 1261.76 120.487C1261.86 120.421 1261.97 120.387 1262.09 120.387C1262.26 120.387 1262.46 120.483 1262.69 120.675C1262.91 120.858 1263.19 121.062 1263.53 121.287C1263.87 121.512 1264.28 121.721 1264.75 121.912C1265.23 122.096 1265.82 122.187 1266.51 122.187C1267.09 122.187 1267.6 122.108 1268.05 121.95C1268.5 121.792 1268.88 121.571 1269.19 121.287C1269.5 120.996 1269.75 120.65 1269.91 120.25C1270.08 119.85 1270.16 119.404 1270.16 118.912C1270.16 118.371 1270.04 117.929 1269.79 117.587C1269.55 117.237 1269.23 116.946 1268.83 116.712C1268.43 116.479 1267.97 116.283 1267.45 116.125C1266.94 115.958 1266.42 115.792 1265.88 115.625C1265.34 115.45 1264.82 115.25 1264.3 115.025C1263.79 114.8 1263.34 114.508 1262.94 114.15C1262.54 113.792 1262.21 113.346 1261.96 112.812C1261.72 112.271 1261.6 111.604 1261.6 110.812C1261.6 110.179 1261.72 109.567 1261.96 108.975C1262.21 108.383 1262.57 107.858 1263.04 107.4C1263.5 106.942 1264.08 106.575 1264.76 106.3C1265.45 106.025 1266.25 105.887 1267.14 105.887C1268.14 105.887 1269.05 106.046 1269.88 106.362C1270.7 106.679 1271.42 107.137 1272.04 107.737L1271.45 108.887ZM1288.35 122.237C1288.84 122.237 1289.28 122.217 1289.68 122.175C1290.09 122.125 1290.47 122.054 1290.83 121.962C1291.19 121.871 1291.52 121.762 1291.84 121.637C1292.16 121.504 1292.47 121.354 1292.79 121.187V117.237H1290.02C1289.86 117.237 1289.73 117.192 1289.63 117.1C1289.54 117.008 1289.49 116.896 1289.49 116.762V115.387H1294.99V122.262C1294.54 122.587 1294.07 122.871 1293.58 123.112C1293.1 123.354 1292.57 123.558 1292.02 123.725C1291.47 123.883 1290.87 124 1290.24 124.075C1289.61 124.158 1288.92 124.2 1288.18 124.2C1286.88 124.2 1285.69 123.979 1284.6 123.537C1283.52 123.087 1282.59 122.462 1281.8 121.662C1281.02 120.854 1280.41 119.887 1279.97 118.762C1279.53 117.637 1279.32 116.4 1279.32 115.05C1279.32 113.683 1279.53 112.437 1279.95 111.312C1280.39 110.187 1281 109.225 1281.79 108.425C1282.59 107.617 1283.55 106.992 1284.68 106.55C1285.81 106.108 1287.08 105.887 1288.48 105.887C1289.19 105.887 1289.85 105.942 1290.45 106.05C1291.06 106.15 1291.62 106.3 1292.14 106.5C1292.67 106.692 1293.15 106.929 1293.59 107.212C1294.03 107.487 1294.45 107.8 1294.83 108.15L1294.14 109.25C1294 109.475 1293.82 109.588 1293.59 109.588C1293.46 109.588 1293.31 109.542 1293.15 109.45C1292.95 109.333 1292.71 109.192 1292.45 109.025C1292.2 108.858 1291.88 108.7 1291.5 108.55C1291.14 108.392 1290.7 108.258 1290.19 108.15C1289.69 108.042 1289.1 107.987 1288.4 107.987C1287.4 107.987 1286.48 108.154 1285.67 108.487C1284.85 108.812 1284.15 109.283 1283.58 109.9C1283 110.508 1282.56 111.25 1282.25 112.125C1281.95 112.992 1281.79 113.967 1281.79 115.05C1281.79 116.183 1281.95 117.196 1282.27 118.087C1282.59 118.971 1283.05 119.721 1283.63 120.337C1284.21 120.954 1284.9 121.425 1285.7 121.75C1286.5 122.075 1287.39 122.237 1288.35 122.237ZM1313.46 124H1311.59C1311.37 124 1311.2 123.946 1311.06 123.837C1310.93 123.729 1310.83 123.592 1310.76 123.425L1309.09 119.1H1301.05L1299.38 123.425C1299.32 123.575 1299.22 123.708 1299.08 123.825C1298.93 123.942 1298.76 124 1298.55 124H1296.68L1303.84 106.087H1306.3L1313.46 124ZM1301.73 117.35H1308.41L1305.6 110.062C1305.42 109.612 1305.24 109.05 1305.06 108.375C1304.97 108.717 1304.88 109.033 1304.79 109.325C1304.7 109.608 1304.62 109.858 1304.54 110.075L1301.73 117.35ZM1318.14 121.962H1325.89V124H1315.72V106.087H1318.14V121.962ZM1343.3 124H1341.42C1341.21 124 1341.03 123.946 1340.9 123.837C1340.76 123.729 1340.66 123.592 1340.6 123.425L1338.92 119.1H1330.88L1329.21 123.425C1329.15 123.575 1329.05 123.708 1328.91 123.825C1328.77 123.942 1328.59 124 1328.38 124H1326.51L1333.67 106.087H1336.13L1343.3 124ZM1331.56 117.35H1338.25L1335.43 110.062C1335.25 109.612 1335.07 109.05 1334.9 108.375C1334.81 108.717 1334.71 109.033 1334.62 109.325C1334.54 109.608 1334.46 109.858 1334.37 110.075L1331.56 117.35Z" fill="white"/>
<line x1="188" y1="47.75" x2="1183" y2="47.75" stroke="#FAC47E" stroke-width="0.5"/>
<circle cx="188.5" cy="47.5" r="6.25" fill="#A67F56" stroke="#FAC47E" stroke-width="0.5"/>
<circle cx="508.5" cy="47.5" r="6.25" fill="#A67F56" stroke="#FAC47E" stroke-width="0.5"/>
<circle cx="840.5" cy="47.5" r="6.25" fill="#A67F56" stroke="#FAC47E" stroke-width="0.5"/>
<circle cx="1182.5" cy="47.5" r="6.25" fill="#A67F56" stroke="#FAC47E" stroke-width="0.5"/>
</svg>
