<svg width="1440" height="182" viewBox="0 0 1440 182" fill="none" xmlns="http://www.w3.org/2000/svg">
<rect width="1440" height="182" fill="url(#paint0_linear_2_8257)"/>
<path d="M203.544 93H202.419C202.289 93 202.184 92.9675 202.104 92.9025C202.024 92.8375 201.964 92.755 201.924 92.655L200.919 90.06H196.096L195.091 92.655C195.056 92.745 194.996 92.825 194.911 92.895C194.826 92.965 194.721 93 194.596 93H193.471L197.769 82.2525H199.246L203.544 93ZM196.501 89.01H200.514L198.826 84.6375C198.716 84.3675 198.609 84.03 198.504 83.625C198.449 83.83 198.394 84.02 198.339 84.195C198.289 84.365 198.239 84.515 198.189 84.645L196.501 89.01ZM208.649 91.845C209.094 91.845 209.492 91.77 209.842 91.62C210.192 91.47 210.487 91.26 210.727 90.99C210.972 90.72 211.157 90.3975 211.282 90.0225C211.412 89.6475 211.477 89.235 211.477 88.785V82.2525H212.924V88.785C212.924 89.405 212.824 89.98 212.624 90.51C212.429 91.04 212.147 91.5 211.777 91.89C211.412 92.275 210.964 92.5775 210.434 92.7975C209.904 93.0175 209.309 93.1275 208.649 93.1275C207.989 93.1275 207.394 93.0175 206.864 92.7975C206.334 92.5775 205.884 92.275 205.514 91.89C205.144 91.5 204.859 91.04 204.659 90.51C204.464 89.98 204.367 89.405 204.367 88.785V82.2525H205.814V88.7775C205.814 89.2275 205.877 89.64 206.002 90.015C206.132 90.39 206.317 90.7125 206.557 90.9825C206.802 91.2525 207.099 91.465 207.449 91.62C207.804 91.77 208.204 91.845 208.649 91.845ZM220.222 91.9425C220.512 91.9425 220.777 91.93 221.017 91.905C221.262 91.875 221.492 91.8325 221.707 91.7775C221.922 91.7225 222.124 91.6575 222.314 91.5825C222.504 91.5025 222.694 91.4125 222.884 91.3125V88.9425H221.219C221.124 88.9425 221.047 88.915 220.987 88.86C220.932 88.805 220.904 88.7375 220.904 88.6575V87.8325H224.204V91.9575C223.934 92.1525 223.652 92.3225 223.357 92.4675C223.067 92.6125 222.754 92.735 222.419 92.835C222.089 92.93 221.734 93 221.354 93.045C220.974 93.095 220.562 93.12 220.117 93.12C219.337 93.12 218.622 92.9875 217.972 92.7225C217.322 92.4525 216.762 92.0775 216.292 91.5975C215.822 91.1125 215.454 90.5325 215.189 89.8575C214.929 89.1825 214.799 88.44 214.799 87.63C214.799 86.81 214.927 86.0625 215.182 85.3875C215.442 84.7125 215.809 84.135 216.284 83.655C216.764 83.17 217.342 82.795 218.017 82.53C218.697 82.265 219.457 82.1325 220.297 82.1325C220.722 82.1325 221.117 82.165 221.482 82.23C221.847 82.29 222.184 82.38 222.494 82.5C222.809 82.615 223.099 82.7575 223.364 82.9275C223.629 83.0925 223.877 83.28 224.107 83.49L223.694 84.15C223.609 84.285 223.499 84.3525 223.364 84.3525C223.284 84.3525 223.197 84.325 223.102 84.27C222.977 84.2 222.837 84.115 222.682 84.015C222.527 83.915 222.337 83.82 222.112 83.73C221.892 83.635 221.629 83.555 221.324 83.49C221.024 83.425 220.667 83.3925 220.252 83.3925C219.647 83.3925 219.099 83.4925 218.609 83.6925C218.119 83.8875 217.702 84.17 217.357 84.54C217.012 84.905 216.747 85.35 216.562 85.875C216.377 86.395 216.284 86.98 216.284 87.63C216.284 88.31 216.379 88.9175 216.569 89.4525C216.764 89.9825 217.037 90.4325 217.387 90.8025C217.737 91.1725 218.152 91.455 218.632 91.65C219.112 91.845 219.642 91.9425 220.222 91.9425ZM230.622 91.845C231.067 91.845 231.465 91.77 231.815 91.62C232.165 91.47 232.46 91.26 232.7 90.99C232.945 90.72 233.13 90.3975 233.255 90.0225C233.385 89.6475 233.45 89.235 233.45 88.785V82.2525H234.897V88.785C234.897 89.405 234.797 89.98 234.597 90.51C234.402 91.04 234.12 91.5 233.75 91.89C233.385 92.275 232.937 92.5775 232.407 92.7975C231.877 93.0175 231.282 93.1275 230.622 93.1275C229.962 93.1275 229.367 93.0175 228.837 92.7975C228.307 92.5775 227.857 92.275 227.487 91.89C227.117 91.5 226.832 91.04 226.632 90.51C226.437 89.98 226.34 89.405 226.34 88.785V82.2525H227.787V88.7775C227.787 89.2275 227.85 89.64 227.975 90.015C228.105 90.39 228.29 90.7125 228.53 90.9825C228.775 91.2525 229.072 91.465 229.422 91.62C229.777 91.77 230.177 91.845 230.622 91.845ZM242.907 83.9325C242.862 84.0075 242.814 84.065 242.764 84.105C242.714 84.14 242.649 84.1575 242.569 84.1575C242.484 84.1575 242.384 84.115 242.269 84.03C242.159 83.945 242.017 83.8525 241.842 83.7525C241.672 83.6475 241.464 83.5525 241.219 83.4675C240.979 83.3825 240.687 83.34 240.342 83.34C240.017 83.34 239.729 83.385 239.479 83.475C239.229 83.56 239.019 83.6775 238.849 83.8275C238.684 83.9775 238.559 84.155 238.474 84.36C238.389 84.56 238.347 84.7775 238.347 85.0125C238.347 85.3125 238.419 85.5625 238.564 85.7625C238.714 85.9575 238.909 86.125 239.149 86.265C239.394 86.405 239.669 86.5275 239.974 86.6325C240.284 86.7325 240.599 86.8375 240.919 86.9475C241.244 87.0575 241.559 87.1825 241.864 87.3225C242.174 87.4575 242.449 87.63 242.689 87.84C242.934 88.05 243.129 88.3075 243.274 88.6125C243.424 88.9175 243.499 89.2925 243.499 89.7375C243.499 90.2075 243.419 90.65 243.259 91.065C243.099 91.475 242.864 91.8325 242.554 92.1375C242.249 92.4425 241.872 92.6825 241.422 92.8575C240.977 93.0325 240.469 93.12 239.899 93.12C239.204 93.12 238.569 92.995 237.994 92.745C237.424 92.49 236.937 92.1475 236.532 91.7175L236.952 91.0275C236.992 90.9725 237.039 90.9275 237.094 90.8925C237.154 90.8525 237.219 90.8325 237.289 90.8325C237.394 90.8325 237.514 90.89 237.649 91.005C237.784 91.115 237.952 91.2375 238.152 91.3725C238.357 91.5075 238.602 91.6325 238.887 91.7475C239.177 91.8575 239.529 91.9125 239.944 91.9125C240.289 91.9125 240.597 91.865 240.867 91.77C241.137 91.675 241.364 91.5425 241.549 91.3725C241.739 91.1975 241.884 90.99 241.984 90.75C242.084 90.51 242.134 90.2425 242.134 89.9475C242.134 89.6225 242.059 89.3575 241.909 89.1525C241.764 88.9425 241.572 88.7675 241.332 88.6275C241.092 88.4875 240.817 88.37 240.507 88.275C240.202 88.175 239.887 88.075 239.562 87.975C239.242 87.87 238.927 87.75 238.617 87.615C238.312 87.48 238.039 87.305 237.799 87.09C237.559 86.875 237.364 86.6075 237.214 86.2875C237.069 85.9625 236.997 85.5625 236.997 85.0875C236.997 84.7075 237.069 84.34 237.214 83.985C237.364 83.63 237.579 83.315 237.859 83.04C238.139 82.765 238.484 82.545 238.894 82.38C239.309 82.215 239.784 82.1325 240.319 82.1325C240.919 82.1325 241.467 82.2275 241.962 82.4175C242.457 82.6075 242.889 82.8825 243.259 83.2425L242.907 83.9325ZM252.676 82.2525V83.475H249.203V93H247.748V83.475H244.261V82.2525H252.676ZM260.306 82.1325C260.761 82.1325 261.186 82.2 261.581 82.335C261.976 82.47 262.316 82.6675 262.601 82.9275C262.891 83.1825 263.119 83.495 263.284 83.865C263.449 84.235 263.531 84.655 263.531 85.125C263.531 85.525 263.471 85.895 263.351 86.235C263.231 86.575 263.069 86.9025 262.864 87.2175C262.659 87.5275 262.421 87.83 262.151 88.125C261.886 88.415 261.604 88.7125 261.304 89.0175L258.476 91.9125C258.676 91.8575 258.879 91.815 259.084 91.785C259.289 91.75 259.486 91.7325 259.676 91.7325H263.276C263.421 91.7325 263.536 91.775 263.621 91.86C263.706 91.945 263.749 92.055 263.749 92.19V93H256.579V92.5425C256.579 92.4475 256.596 92.35 256.631 92.25C256.671 92.15 256.734 92.0575 256.819 91.9725L260.261 88.515C260.546 88.225 260.806 87.9475 261.041 87.6825C261.276 87.4125 261.476 87.1425 261.641 86.8725C261.811 86.6025 261.941 86.33 262.031 86.055C262.121 85.775 262.166 85.4775 262.166 85.1625C262.166 84.8475 262.116 84.5725 262.016 84.3375C261.916 84.0975 261.779 83.9 261.604 83.745C261.429 83.59 261.224 83.475 260.989 83.4C260.754 83.32 260.501 83.28 260.231 83.28C259.961 83.28 259.711 83.32 259.481 83.4C259.251 83.48 259.046 83.5925 258.866 83.7375C258.691 83.8775 258.541 84.045 258.416 84.24C258.296 84.435 258.211 84.65 258.161 84.885C258.121 85.03 258.061 85.135 257.981 85.2C257.901 85.265 257.796 85.2975 257.666 85.2975C257.641 85.2975 257.614 85.2975 257.584 85.2975C257.559 85.2925 257.529 85.2875 257.494 85.2825L256.796 85.1625C256.866 84.6725 257.001 84.24 257.201 83.865C257.401 83.485 257.654 83.1675 257.959 82.9125C258.269 82.6575 258.621 82.465 259.016 82.335C259.416 82.2 259.846 82.1325 260.306 82.1325ZM272.75 87.63C272.75 88.57 272.648 89.385 272.443 90.075C272.243 90.76 271.968 91.3275 271.618 91.7775C271.268 92.2275 270.853 92.5625 270.373 92.7825C269.898 93.0025 269.388 93.1125 268.843 93.1125C268.293 93.1125 267.78 93.0025 267.305 92.7825C266.835 92.5625 266.425 92.2275 266.075 91.7775C265.725 91.3275 265.45 90.76 265.25 90.075C265.05 89.385 264.95 88.57 264.95 87.63C264.95 86.69 265.05 85.875 265.25 85.185C265.45 84.495 265.725 83.925 266.075 83.475C266.425 83.02 266.835 82.6825 267.305 82.4625C267.78 82.2425 268.293 82.1325 268.843 82.1325C269.388 82.1325 269.898 82.2425 270.373 82.4625C270.853 82.6825 271.268 83.02 271.618 83.475C271.968 83.925 272.243 84.495 272.443 85.185C272.648 85.875 272.75 86.69 272.75 87.63ZM271.363 87.63C271.363 86.81 271.293 86.1225 271.153 85.5675C271.018 85.0075 270.833 84.5575 270.598 84.2175C270.368 83.8775 270.1 83.635 269.795 83.49C269.49 83.34 269.173 83.265 268.843 83.265C268.513 83.265 268.195 83.34 267.89 83.49C267.585 83.635 267.318 83.8775 267.088 84.2175C266.858 84.5575 266.673 85.0075 266.533 85.5675C266.398 86.1225 266.33 86.81 266.33 87.63C266.33 88.45 266.398 89.1375 266.533 89.6925C266.673 90.2475 266.858 90.695 267.088 91.035C267.318 91.375 267.585 91.62 267.89 91.77C268.195 91.915 268.513 91.9875 268.843 91.9875C269.173 91.9875 269.49 91.915 269.795 91.77C270.1 91.62 270.368 91.375 270.598 91.035C270.833 90.695 271.018 90.2475 271.153 89.6925C271.293 89.1375 271.363 88.45 271.363 87.63ZM277.709 82.1325C278.164 82.1325 278.589 82.2 278.984 82.335C279.379 82.47 279.719 82.6675 280.004 82.9275C280.294 83.1825 280.521 83.495 280.686 83.865C280.851 84.235 280.934 84.655 280.934 85.125C280.934 85.525 280.874 85.895 280.754 86.235C280.634 86.575 280.471 86.9025 280.266 87.2175C280.061 87.5275 279.824 87.83 279.554 88.125C279.289 88.415 279.006 88.7125 278.706 89.0175L275.879 91.9125C276.079 91.8575 276.281 91.815 276.486 91.785C276.691 91.75 276.889 91.7325 277.079 91.7325H280.679C280.824 91.7325 280.939 91.775 281.024 91.86C281.109 91.945 281.151 92.055 281.151 92.19V93H273.981V92.5425C273.981 92.4475 273.999 92.35 274.034 92.25C274.074 92.15 274.136 92.0575 274.221 91.9725L277.664 88.515C277.949 88.225 278.209 87.9475 278.444 87.6825C278.679 87.4125 278.879 87.1425 279.044 86.8725C279.214 86.6025 279.344 86.33 279.434 86.055C279.524 85.775 279.569 85.4775 279.569 85.1625C279.569 84.8475 279.519 84.5725 279.419 84.3375C279.319 84.0975 279.181 83.9 279.006 83.745C278.831 83.59 278.626 83.475 278.391 83.4C278.156 83.32 277.904 83.28 277.634 83.28C277.364 83.28 277.114 83.32 276.884 83.4C276.654 83.48 276.449 83.5925 276.269 83.7375C276.094 83.8775 275.944 84.045 275.819 84.24C275.699 84.435 275.614 84.65 275.564 84.885C275.524 85.03 275.464 85.135 275.384 85.2C275.304 85.265 275.199 85.2975 275.069 85.2975C275.044 85.2975 275.016 85.2975 274.986 85.2975C274.961 85.2925 274.931 85.2875 274.896 85.2825L274.199 85.1625C274.269 84.6725 274.404 84.24 274.604 83.865C274.804 83.485 275.056 83.1675 275.361 82.9125C275.671 82.6575 276.024 82.465 276.419 82.335C276.819 82.2 277.249 82.1325 277.709 82.1325ZM286.552 82.1325C287.007 82.1325 287.427 82.1975 287.812 82.3275C288.197 82.4575 288.527 82.6425 288.802 82.8825C289.082 83.1225 289.3 83.4125 289.455 83.7525C289.61 84.0925 289.687 84.47 289.687 84.885C289.687 85.225 289.642 85.53 289.552 85.8C289.467 86.065 289.342 86.3 289.177 86.505C289.017 86.705 288.822 86.875 288.592 87.015C288.362 87.155 288.105 87.2675 287.82 87.3525C288.52 87.5375 289.045 87.8475 289.395 88.2825C289.75 88.7175 289.927 89.2625 289.927 89.9175C289.927 90.4125 289.832 90.8575 289.642 91.2525C289.457 91.6475 289.202 91.985 288.877 92.265C288.552 92.54 288.172 92.7525 287.737 92.9025C287.307 93.0475 286.845 93.12 286.35 93.12C285.78 93.12 285.292 93.05 284.887 92.91C284.482 92.765 284.14 92.5675 283.86 92.3175C283.58 92.0675 283.35 91.7725 283.17 91.4325C282.99 91.0875 282.837 90.715 282.712 90.315L283.282 90.075C283.387 90.03 283.492 90.0075 283.597 90.0075C283.697 90.0075 283.785 90.03 283.86 90.075C283.94 90.115 284 90.18 284.04 90.27C284.05 90.29 284.06 90.3125 284.07 90.3375C284.08 90.3575 284.09 90.38 284.1 90.405C284.17 90.55 284.255 90.715 284.355 90.9C284.455 91.08 284.59 91.25 284.76 91.41C284.93 91.57 285.14 91.705 285.39 91.815C285.645 91.925 285.96 91.98 286.335 91.98C286.71 91.98 287.037 91.92 287.317 91.8C287.602 91.675 287.837 91.515 288.022 91.32C288.212 91.125 288.355 90.9075 288.45 90.6675C288.545 90.4275 288.592 90.19 288.592 89.955C288.592 89.665 288.552 89.4 288.472 89.16C288.397 88.92 288.257 88.7125 288.052 88.5375C287.852 88.3625 287.572 88.225 287.212 88.125C286.857 88.025 286.4 87.975 285.84 87.975V87.0075C286.295 87.0025 286.682 86.9525 287.002 86.8575C287.327 86.7625 287.592 86.6325 287.797 86.4675C288.002 86.3025 288.15 86.105 288.24 85.875C288.335 85.645 288.382 85.39 288.382 85.11C288.382 84.8 288.332 84.53 288.232 84.3C288.137 84.07 288.005 83.88 287.835 83.73C287.665 83.58 287.462 83.4675 287.227 83.3925C286.997 83.3175 286.747 83.28 286.477 83.28C286.207 83.28 285.957 83.32 285.727 83.4C285.497 83.48 285.292 83.5925 285.112 83.7375C284.937 83.8775 284.79 84.0475 284.67 84.2475C284.55 84.4425 284.46 84.655 284.4 84.885C284.36 85.03 284.3 85.135 284.22 85.2C284.14 85.265 284.037 85.2975 283.912 85.2975C283.887 85.2975 283.86 85.2975 283.83 85.2975C283.805 85.2925 283.775 85.2875 283.74 85.2825L283.042 85.1625C283.112 84.6725 283.247 84.24 283.447 83.865C283.647 83.485 283.9 83.1675 284.205 82.9125C284.515 82.6575 284.867 82.465 285.262 82.335C285.662 82.2 286.092 82.1325 286.552 82.1325Z" fill="#FAC47E"/>
<path d="M151.429 113.962C151.429 115.287 151.208 116.517 150.767 117.65C150.325 118.775 149.704 119.75 148.904 120.575C148.104 121.4 147.142 122.046 146.017 122.512C144.892 122.971 143.646 123.2 142.279 123.2C140.912 123.2 139.662 122.971 138.529 122.512C137.404 122.046 136.437 121.4 135.629 120.575C134.829 119.75 134.208 118.775 133.767 117.65C133.325 116.517 133.104 115.287 133.104 113.962C133.104 112.637 133.325 111.412 133.767 110.287C134.208 109.154 134.829 108.175 135.629 107.35C136.437 106.525 137.404 105.883 138.529 105.425C139.662 104.958 140.912 104.725 142.279 104.725C143.646 104.725 144.892 104.958 146.017 105.425C147.142 105.892 148.104 106.537 148.904 107.362C149.704 108.179 150.325 109.154 150.767 110.287C151.208 111.412 151.429 112.637 151.429 113.962ZM147.979 113.962C147.979 112.971 147.846 112.083 147.579 111.3C147.321 110.508 146.946 109.837 146.454 109.287C145.962 108.737 145.362 108.317 144.654 108.025C143.954 107.733 143.162 107.587 142.279 107.587C141.396 107.587 140.6 107.733 139.892 108.025C139.183 108.317 138.579 108.737 138.079 109.287C137.587 109.837 137.208 110.508 136.942 111.3C136.675 112.083 136.542 112.971 136.542 113.962C136.542 114.954 136.675 115.846 136.942 116.637C137.208 117.421 137.587 118.087 138.079 118.637C138.579 119.179 139.183 119.596 139.892 119.887C140.6 120.179 141.396 120.325 142.279 120.325C143.162 120.325 143.954 120.179 144.654 119.887C145.362 119.596 145.962 119.179 146.454 118.637C146.946 118.087 147.321 117.421 147.579 116.637C147.846 115.846 147.979 114.954 147.979 113.962ZM158.312 116.637V123H154.949V104.925H160.837C162.045 104.925 163.091 105.067 163.974 105.35C164.858 105.633 165.587 106.029 166.162 106.537C166.737 107.046 167.162 107.654 167.437 108.362C167.712 109.071 167.849 109.846 167.849 110.687C167.849 111.562 167.703 112.367 167.412 113.1C167.12 113.825 166.683 114.45 166.099 114.975C165.516 115.5 164.787 115.908 163.912 116.2C163.037 116.492 162.012 116.637 160.837 116.637H158.312ZM158.312 114.012H160.837C161.453 114.012 161.991 113.937 162.449 113.787C162.908 113.629 163.287 113.408 163.587 113.125C163.887 112.833 164.112 112.483 164.262 112.075C164.412 111.658 164.487 111.196 164.487 110.687C164.487 110.204 164.412 109.767 164.262 109.375C164.112 108.983 163.887 108.65 163.587 108.375C163.287 108.1 162.908 107.892 162.449 107.75C161.991 107.6 161.453 107.525 160.837 107.525H158.312V114.012ZM182.612 104.925V107.6H174.599V112.612H180.912V115.2H174.599V120.312H182.612V123H171.212V104.925H182.612ZM188.031 104.925C188.181 104.925 188.306 104.933 188.406 104.95C188.506 104.958 188.593 104.983 188.668 105.025C188.752 105.058 188.831 105.112 188.906 105.187C188.981 105.254 189.064 105.346 189.156 105.462L198.643 117.55C198.61 117.258 198.585 116.975 198.568 116.7C198.56 116.417 198.556 116.154 198.556 115.912V104.925H201.518V123H199.781C199.514 123 199.293 122.958 199.118 122.875C198.943 122.792 198.773 122.642 198.606 122.425L189.156 110.387C189.181 110.654 189.198 110.921 189.206 111.187C189.223 111.446 189.231 111.683 189.231 111.9V123H186.268V104.925H188.031ZM222.899 104.925V107.6H214.886V112.95H221.649V115.637H214.886V123H211.499V104.925H222.899ZM243.624 113.962C243.624 115.287 243.404 116.517 242.962 117.65C242.52 118.775 241.899 119.75 241.099 120.575C240.299 121.4 239.337 122.046 238.212 122.512C237.087 122.971 235.841 123.2 234.474 123.2C233.108 123.2 231.858 122.971 230.724 122.512C229.599 122.046 228.633 121.4 227.824 120.575C227.024 119.75 226.404 118.775 225.962 117.65C225.52 116.517 225.299 115.287 225.299 113.962C225.299 112.637 225.52 111.412 225.962 110.287C226.404 109.154 227.024 108.175 227.824 107.35C228.633 106.525 229.599 105.883 230.724 105.425C231.858 104.958 233.108 104.725 234.474 104.725C235.841 104.725 237.087 104.958 238.212 105.425C239.337 105.892 240.299 106.537 241.099 107.362C241.899 108.179 242.52 109.154 242.962 110.287C243.404 111.412 243.624 112.637 243.624 113.962ZM240.174 113.962C240.174 112.971 240.041 112.083 239.774 111.3C239.516 110.508 239.141 109.837 238.649 109.287C238.158 108.737 237.558 108.317 236.849 108.025C236.149 107.733 235.358 107.587 234.474 107.587C233.591 107.587 232.795 107.733 232.087 108.025C231.379 108.317 230.774 108.737 230.274 109.287C229.783 109.837 229.404 110.508 229.137 111.3C228.87 112.083 228.737 112.971 228.737 113.962C228.737 114.954 228.87 115.846 229.137 116.637C229.404 117.421 229.783 118.087 230.274 118.637C230.774 119.179 231.379 119.596 232.087 119.887C232.795 120.179 233.591 120.325 234.474 120.325C235.358 120.325 236.149 120.179 236.849 119.887C237.558 119.596 238.158 119.179 238.649 118.637C239.141 118.087 239.516 117.421 239.774 116.637C240.041 115.846 240.174 114.954 240.174 113.962ZM250.507 115.938V123H247.145V104.925H252.657C253.89 104.925 254.945 105.054 255.82 105.312C256.703 105.562 257.424 105.917 257.982 106.375C258.549 106.833 258.961 107.383 259.22 108.025C259.486 108.658 259.62 109.358 259.62 110.125C259.62 110.733 259.528 111.308 259.345 111.85C259.17 112.392 258.911 112.883 258.57 113.325C258.236 113.767 257.82 114.154 257.32 114.487C256.828 114.821 256.265 115.087 255.632 115.287C256.057 115.529 256.424 115.875 256.732 116.325L261.257 123H258.232C257.94 123 257.69 122.942 257.482 122.825C257.282 122.708 257.111 122.542 256.97 122.325L253.17 116.537C253.028 116.321 252.87 116.167 252.695 116.075C252.528 115.983 252.278 115.938 251.945 115.938H250.507ZM250.507 113.525H252.607C253.24 113.525 253.79 113.446 254.257 113.287C254.732 113.129 255.12 112.912 255.42 112.637C255.728 112.354 255.957 112.021 256.107 111.637C256.257 111.254 256.332 110.833 256.332 110.375C256.332 109.458 256.028 108.754 255.42 108.262C254.82 107.771 253.899 107.525 252.657 107.525H250.507V113.525ZM281.148 104.925V107.6H273.135V112.612H279.448V115.2H273.135V120.312H281.148V123H269.748V104.925H281.148ZM286.567 104.925C286.717 104.925 286.842 104.933 286.942 104.95C287.042 104.958 287.129 104.983 287.204 105.025C287.288 105.058 287.367 105.112 287.442 105.187C287.517 105.254 287.6 105.346 287.692 105.462L297.179 117.55C297.146 117.258 297.121 116.975 297.104 116.7C297.096 116.417 297.092 116.154 297.092 115.912V104.925H300.054V123H298.317C298.05 123 297.829 122.958 297.654 122.875C297.479 122.792 297.309 122.642 297.142 122.425L287.692 110.387C287.717 110.654 287.734 110.921 287.742 111.187C287.759 111.446 287.767 111.683 287.767 111.9V123H284.804V104.925H286.567ZM317.188 104.925V107.687H311.751V123H308.388V107.687H302.926V104.925H317.188ZM323.544 115.938V123H320.182V104.925H325.694C326.927 104.925 327.982 105.054 328.857 105.312C329.74 105.562 330.461 105.917 331.019 106.375C331.586 106.833 331.998 107.383 332.257 108.025C332.523 108.658 332.657 109.358 332.657 110.125C332.657 110.733 332.565 111.308 332.382 111.85C332.207 112.392 331.948 112.883 331.607 113.325C331.273 113.767 330.857 114.154 330.357 114.487C329.865 114.821 329.302 115.087 328.669 115.287C329.094 115.529 329.461 115.875 329.769 116.325L334.294 123H331.269C330.977 123 330.727 122.942 330.519 122.825C330.319 122.708 330.148 122.542 330.007 122.325L326.207 116.537C326.065 116.321 325.907 116.167 325.732 116.075C325.565 115.983 325.315 115.938 324.982 115.938H323.544ZM323.544 113.525H325.644C326.277 113.525 326.827 113.446 327.294 113.287C327.769 113.129 328.157 112.912 328.457 112.637C328.765 112.354 328.994 112.021 329.144 111.637C329.294 111.254 329.369 110.833 329.369 110.375C329.369 109.458 329.065 108.754 328.457 108.262C327.857 107.771 326.936 107.525 325.694 107.525H323.544V113.525ZM345.238 115.975V123H341.876V115.975L335.288 104.925H338.251C338.543 104.925 338.772 104.996 338.938 105.137C339.113 105.279 339.259 105.458 339.376 105.675L342.688 111.712C342.88 112.071 343.047 112.412 343.188 112.737C343.33 113.054 343.459 113.367 343.576 113.675C343.684 113.358 343.805 113.042 343.938 112.725C344.08 112.4 344.247 112.062 344.438 111.712L347.726 105.675C347.818 105.492 347.955 105.321 348.138 105.162C348.322 105.004 348.555 104.925 348.838 104.925H351.813L345.238 115.975Z" fill="white"/>
<path d="M522.201 89.2875C522.201 89.8875 522.126 90.425 521.976 90.9C521.831 91.375 521.614 91.7775 521.324 92.1075C521.039 92.4325 520.686 92.6825 520.266 92.8575C519.846 93.0325 519.364 93.12 518.819 93.12C518.334 93.12 517.829 93.05 517.304 92.91C517.314 92.765 517.326 92.6225 517.341 92.4825C517.356 92.3375 517.371 92.195 517.386 92.055C517.396 91.97 517.426 91.9025 517.476 91.8525C517.531 91.7975 517.611 91.77 517.716 91.77C517.806 91.77 517.926 91.7925 518.076 91.8375C518.226 91.8825 518.426 91.905 518.676 91.905C519.006 91.905 519.299 91.855 519.554 91.755C519.814 91.655 520.031 91.5 520.206 91.29C520.386 91.08 520.521 90.8125 520.611 90.4875C520.706 90.1575 520.754 89.7675 520.754 89.3175V82.2525H522.201V89.2875ZM533.241 93H532.116C531.986 93 531.881 92.9675 531.801 92.9025C531.721 92.8375 531.661 92.755 531.621 92.655L530.616 90.06H525.794L524.789 92.655C524.754 92.745 524.694 92.825 524.609 92.895C524.524 92.965 524.419 93 524.294 93H523.169L527.466 82.2525H528.944L533.241 93ZM526.199 89.01H530.211L528.524 84.6375C528.414 84.3675 528.306 84.03 528.201 83.625C528.146 83.83 528.091 84.02 528.036 84.195C527.986 84.365 527.936 84.515 527.886 84.645L526.199 89.01ZM535.344 82.2525C535.474 82.2525 535.569 82.27 535.629 82.305C535.694 82.335 535.767 82.4 535.847 82.5L542.072 90.6C542.057 90.47 542.047 90.345 542.042 90.225C542.037 90.1 542.034 89.98 542.034 89.865V82.2525H543.309V93H542.574C542.459 93 542.362 92.98 542.282 92.94C542.207 92.9 542.132 92.8325 542.057 92.7375L535.839 84.645C535.849 84.77 535.857 84.8925 535.862 85.0125C535.867 85.1325 535.869 85.2425 535.869 85.3425V93H534.594V82.2525H535.344ZM550.109 91.845C550.554 91.845 550.952 91.77 551.302 91.62C551.652 91.47 551.947 91.26 552.187 90.99C552.432 90.72 552.617 90.3975 552.742 90.0225C552.872 89.6475 552.937 89.235 552.937 88.785V82.2525H554.384V88.785C554.384 89.405 554.284 89.98 554.084 90.51C553.889 91.04 553.607 91.5 553.237 91.89C552.872 92.275 552.424 92.5775 551.894 92.7975C551.364 93.0175 550.769 93.1275 550.109 93.1275C549.449 93.1275 548.854 93.0175 548.324 92.7975C547.794 92.5775 547.344 92.275 546.974 91.89C546.604 91.5 546.319 91.04 546.119 90.51C545.924 89.98 545.827 89.405 545.827 88.785V82.2525H547.274V88.7775C547.274 89.2275 547.337 89.64 547.462 90.015C547.592 90.39 547.777 90.7125 548.017 90.9825C548.262 91.2525 548.559 91.465 548.909 91.62C549.264 91.77 549.664 91.845 550.109 91.845ZM565.307 93H564.182C564.052 93 563.947 92.9675 563.867 92.9025C563.787 92.8375 563.727 92.755 563.687 92.655L562.682 90.06H557.859L556.854 92.655C556.819 92.745 556.759 92.825 556.674 92.895C556.589 92.965 556.484 93 556.359 93H555.234L559.532 82.2525H561.009L565.307 93ZM558.264 89.01H562.277L560.589 84.6375C560.479 84.3675 560.372 84.03 560.267 83.625C560.212 83.83 560.157 84.02 560.102 84.195C560.052 84.365 560.002 84.515 559.952 84.645L558.264 89.01ZM568.257 88.515V93H566.809V82.2525H569.847C570.527 82.2525 571.114 82.3225 571.609 82.4625C572.104 82.5975 572.512 82.795 572.832 83.055C573.157 83.315 573.397 83.63 573.552 84C573.707 84.365 573.784 84.775 573.784 85.23C573.784 85.61 573.724 85.965 573.604 86.295C573.484 86.625 573.309 86.9225 573.079 87.1875C572.854 87.4475 572.577 87.67 572.247 87.855C571.922 88.04 571.552 88.18 571.137 88.275C571.317 88.38 571.477 88.5325 571.617 88.7325L574.752 93H573.462C573.197 93 573.002 92.8975 572.877 92.6925L570.087 88.8525C570.002 88.7325 569.909 88.6475 569.809 88.5975C569.709 88.5425 569.559 88.515 569.359 88.515H568.257ZM568.257 87.4575H569.779C570.204 87.4575 570.577 87.4075 570.897 87.3075C571.222 87.2025 571.492 87.0575 571.707 86.8725C571.927 86.6825 572.092 86.4575 572.202 86.1975C572.312 85.9375 572.367 85.65 572.367 85.335C572.367 84.695 572.154 84.2125 571.729 83.8875C571.309 83.5625 570.682 83.4 569.847 83.4H568.257V87.4575ZM580.453 88.725V93H579.005V88.725L575.068 82.2525H576.343C576.473 82.2525 576.575 82.285 576.65 82.35C576.725 82.415 576.79 82.495 576.845 82.59L579.305 86.7675C579.405 86.9425 579.488 87.1075 579.553 87.2625C579.623 87.4175 579.685 87.57 579.74 87.72C579.795 87.565 579.855 87.41 579.92 87.255C579.985 87.1 580.068 86.9375 580.168 86.7675L582.62 82.59C582.665 82.51 582.725 82.435 582.8 82.365C582.88 82.29 582.983 82.2525 583.108 82.2525H584.398L580.453 88.725ZM591.849 82.1325C592.304 82.1325 592.729 82.2 593.124 82.335C593.519 82.47 593.859 82.6675 594.144 82.9275C594.434 83.1825 594.662 83.495 594.827 83.865C594.992 84.235 595.074 84.655 595.074 85.125C595.074 85.525 595.014 85.895 594.894 86.235C594.774 86.575 594.612 86.9025 594.407 87.2175C594.202 87.5275 593.964 87.83 593.694 88.125C593.429 88.415 593.147 88.7125 592.847 89.0175L590.019 91.9125C590.219 91.8575 590.422 91.815 590.627 91.785C590.832 91.75 591.029 91.7325 591.219 91.7325H594.819C594.964 91.7325 595.079 91.775 595.164 91.86C595.249 91.945 595.292 92.055 595.292 92.19V93H588.122V92.5425C588.122 92.4475 588.139 92.35 588.174 92.25C588.214 92.15 588.277 92.0575 588.362 91.9725L591.804 88.515C592.089 88.225 592.349 87.9475 592.584 87.6825C592.819 87.4125 593.019 87.1425 593.184 86.8725C593.354 86.6025 593.484 86.33 593.574 86.055C593.664 85.775 593.709 85.4775 593.709 85.1625C593.709 84.8475 593.659 84.5725 593.559 84.3375C593.459 84.0975 593.322 83.9 593.147 83.745C592.972 83.59 592.767 83.475 592.532 83.4C592.297 83.32 592.044 83.28 591.774 83.28C591.504 83.28 591.254 83.32 591.024 83.4C590.794 83.48 590.589 83.5925 590.409 83.7375C590.234 83.8775 590.084 84.045 589.959 84.24C589.839 84.435 589.754 84.65 589.704 84.885C589.664 85.03 589.604 85.135 589.524 85.2C589.444 85.265 589.339 85.2975 589.209 85.2975C589.184 85.2975 589.157 85.2975 589.127 85.2975C589.102 85.2925 589.072 85.2875 589.037 85.2825L588.339 85.1625C588.409 84.6725 588.544 84.24 588.744 83.865C588.944 83.485 589.197 83.1675 589.502 82.9125C589.812 82.6575 590.164 82.465 590.559 82.335C590.959 82.2 591.389 82.1325 591.849 82.1325ZM604.293 87.63C604.293 88.57 604.19 89.385 603.985 90.075C603.785 90.76 603.51 91.3275 603.16 91.7775C602.81 92.2275 602.395 92.5625 601.915 92.7825C601.44 93.0025 600.93 93.1125 600.385 93.1125C599.835 93.1125 599.323 93.0025 598.848 92.7825C598.378 92.5625 597.968 92.2275 597.618 91.7775C597.268 91.3275 596.993 90.76 596.793 90.075C596.593 89.385 596.493 88.57 596.493 87.63C596.493 86.69 596.593 85.875 596.793 85.185C596.993 84.495 597.268 83.925 597.618 83.475C597.968 83.02 598.378 82.6825 598.848 82.4625C599.323 82.2425 599.835 82.1325 600.385 82.1325C600.93 82.1325 601.44 82.2425 601.915 82.4625C602.395 82.6825 602.81 83.02 603.16 83.475C603.51 83.925 603.785 84.495 603.985 85.185C604.19 85.875 604.293 86.69 604.293 87.63ZM602.905 87.63C602.905 86.81 602.835 86.1225 602.695 85.5675C602.56 85.0075 602.375 84.5575 602.14 84.2175C601.91 83.8775 601.643 83.635 601.338 83.49C601.033 83.34 600.715 83.265 600.385 83.265C600.055 83.265 599.738 83.34 599.433 83.49C599.128 83.635 598.86 83.8775 598.63 84.2175C598.4 84.5575 598.215 85.0075 598.075 85.5675C597.94 86.1225 597.873 86.81 597.873 87.63C597.873 88.45 597.94 89.1375 598.075 89.6925C598.215 90.2475 598.4 90.695 598.63 91.035C598.86 91.375 599.128 91.62 599.433 91.77C599.738 91.915 600.055 91.9875 600.385 91.9875C600.715 91.9875 601.033 91.915 601.338 91.77C601.643 91.62 601.91 91.375 602.14 91.035C602.375 90.695 602.56 90.2475 602.695 89.6925C602.835 89.1375 602.905 88.45 602.905 87.63ZM609.252 82.1325C609.707 82.1325 610.132 82.2 610.527 82.335C610.922 82.47 611.262 82.6675 611.547 82.9275C611.837 83.1825 612.064 83.495 612.229 83.865C612.394 84.235 612.477 84.655 612.477 85.125C612.477 85.525 612.417 85.895 612.297 86.235C612.177 86.575 612.014 86.9025 611.809 87.2175C611.604 87.5275 611.367 87.83 611.097 88.125C610.832 88.415 610.549 88.7125 610.249 89.0175L607.422 91.9125C607.622 91.8575 607.824 91.815 608.029 91.785C608.234 91.75 608.432 91.7325 608.622 91.7325H612.222C612.367 91.7325 612.482 91.775 612.567 91.86C612.652 91.945 612.694 92.055 612.694 92.19V93H605.524V92.5425C605.524 92.4475 605.542 92.35 605.577 92.25C605.617 92.15 605.679 92.0575 605.764 91.9725L609.207 88.515C609.492 88.225 609.752 87.9475 609.987 87.6825C610.222 87.4125 610.422 87.1425 610.587 86.8725C610.757 86.6025 610.887 86.33 610.977 86.055C611.067 85.775 611.112 85.4775 611.112 85.1625C611.112 84.8475 611.062 84.5725 610.962 84.3375C610.862 84.0975 610.724 83.9 610.549 83.745C610.374 83.59 610.169 83.475 609.934 83.4C609.699 83.32 609.447 83.28 609.177 83.28C608.907 83.28 608.657 83.32 608.427 83.4C608.197 83.48 607.992 83.5925 607.812 83.7375C607.637 83.8775 607.487 84.045 607.362 84.24C607.242 84.435 607.157 84.65 607.107 84.885C607.067 85.03 607.007 85.135 606.927 85.2C606.847 85.265 606.742 85.2975 606.612 85.2975C606.587 85.2975 606.559 85.2975 606.529 85.2975C606.504 85.2925 606.474 85.2875 606.439 85.2825L605.742 85.1625C605.812 84.6725 605.947 84.24 606.147 83.865C606.347 83.485 606.599 83.1675 606.904 82.9125C607.214 82.6575 607.567 82.465 607.962 82.335C608.362 82.2 608.792 82.1325 609.252 82.1325ZM620.218 89.1225H621.845V89.8875C621.845 89.9675 621.82 90.035 621.77 90.09C621.725 90.145 621.653 90.1725 621.553 90.1725H620.218V93H619.04V90.1725H614.278C614.178 90.1725 614.09 90.145 614.015 90.09C613.945 90.03 613.9 89.9575 613.88 89.8725L613.745 89.19L618.973 82.2525H620.218V89.1225ZM619.04 84.69C619.04 84.56 619.043 84.42 619.048 84.27C619.058 84.12 619.075 83.965 619.1 83.805L615.193 89.1225H619.04V84.69Z" fill="#FAC47E"/>
<path d="M433.882 108.212C433.79 108.396 433.682 108.525 433.557 108.6C433.44 108.675 433.298 108.712 433.132 108.712C432.965 108.712 432.777 108.65 432.569 108.525C432.361 108.392 432.115 108.246 431.832 108.087C431.548 107.929 431.215 107.787 430.832 107.662C430.457 107.529 430.011 107.462 429.494 107.462C429.027 107.462 428.619 107.521 428.269 107.637C427.927 107.746 427.636 107.9 427.394 108.1C427.161 108.3 426.986 108.542 426.869 108.825C426.752 109.1 426.694 109.404 426.694 109.737C426.694 110.162 426.811 110.517 427.044 110.8C427.286 111.083 427.602 111.325 427.994 111.525C428.386 111.725 428.832 111.904 429.332 112.062C429.832 112.221 430.34 112.392 430.857 112.575C431.382 112.75 431.894 112.958 432.394 113.2C432.894 113.433 433.34 113.733 433.732 114.1C434.123 114.458 434.436 114.9 434.669 115.425C434.911 115.95 435.032 116.587 435.032 117.337C435.032 118.154 434.89 118.921 434.607 119.637C434.332 120.346 433.923 120.967 433.382 121.5C432.848 122.025 432.194 122.442 431.419 122.75C430.644 123.05 429.757 123.2 428.757 123.2C428.182 123.2 427.615 123.142 427.057 123.025C426.498 122.917 425.961 122.758 425.444 122.55C424.936 122.342 424.457 122.092 424.007 121.8C423.565 121.508 423.169 121.183 422.819 120.825L423.794 119.212C423.886 119.096 423.994 119 424.119 118.925C424.252 118.842 424.398 118.8 424.557 118.8C424.765 118.8 424.99 118.887 425.232 119.062C425.473 119.229 425.757 119.417 426.082 119.625C426.415 119.833 426.802 120.025 427.244 120.2C427.694 120.367 428.232 120.45 428.857 120.45C429.815 120.45 430.557 120.225 431.082 119.775C431.607 119.317 431.869 118.662 431.869 117.812C431.869 117.337 431.748 116.95 431.507 116.65C431.273 116.35 430.961 116.1 430.569 115.9C430.177 115.692 429.732 115.517 429.232 115.375C428.732 115.233 428.223 115.079 427.707 114.912C427.19 114.746 426.682 114.546 426.182 114.312C425.682 114.079 425.236 113.775 424.844 113.4C424.452 113.025 424.136 112.558 423.894 112C423.661 111.433 423.544 110.737 423.544 109.912C423.544 109.254 423.673 108.612 423.932 107.987C424.198 107.362 424.582 106.808 425.082 106.325C425.59 105.842 426.211 105.454 426.944 105.162C427.677 104.871 428.515 104.725 429.457 104.725C430.523 104.725 431.507 104.892 432.407 105.225C433.307 105.558 434.073 106.025 434.707 106.625L433.882 108.212ZM445.622 120.287C446.272 120.287 446.852 120.179 447.36 119.962C447.877 119.746 448.31 119.442 448.66 119.05C449.018 118.658 449.289 118.183 449.472 117.625C449.664 117.067 449.76 116.442 449.76 115.75V104.925H453.122V115.75C453.122 116.825 452.947 117.821 452.597 118.737C452.256 119.646 451.76 120.433 451.11 121.1C450.46 121.758 449.672 122.275 448.747 122.65C447.822 123.017 446.781 123.2 445.622 123.2C444.464 123.2 443.422 123.017 442.497 122.65C441.572 122.275 440.785 121.758 440.135 121.1C439.493 120.433 438.997 119.646 438.647 118.737C438.306 117.821 438.135 116.825 438.135 115.75V104.925H441.497V115.737C441.497 116.429 441.589 117.054 441.772 117.612C441.964 118.171 442.235 118.65 442.585 119.05C442.935 119.442 443.364 119.746 443.872 119.962C444.389 120.179 444.972 120.287 445.622 120.287ZM457.286 123V104.925H463.523C464.707 104.925 465.715 105.037 466.548 105.262C467.39 105.487 468.078 105.808 468.611 106.225C469.153 106.642 469.548 107.146 469.798 107.737C470.048 108.329 470.173 108.996 470.173 109.737C470.173 110.162 470.111 110.571 469.986 110.962C469.861 111.346 469.665 111.708 469.398 112.05C469.14 112.383 468.807 112.687 468.398 112.962C467.998 113.237 467.519 113.471 466.961 113.662C469.444 114.221 470.686 115.562 470.686 117.687C470.686 118.454 470.54 119.162 470.248 119.812C469.957 120.462 469.532 121.025 468.973 121.5C468.415 121.967 467.728 122.333 466.911 122.6C466.094 122.867 465.161 123 464.111 123H457.286ZM460.648 115.075V120.375H464.061C464.686 120.375 465.207 120.3 465.623 120.15C466.048 120 466.386 119.8 466.636 119.55C466.894 119.3 467.078 119.008 467.186 118.675C467.303 118.342 467.361 117.987 467.361 117.612C467.361 117.221 467.298 116.871 467.173 116.562C467.048 116.246 466.853 115.979 466.586 115.762C466.319 115.537 465.978 115.367 465.561 115.25C465.144 115.133 464.64 115.075 464.048 115.075H460.648ZM460.648 112.75H463.336C464.478 112.75 465.344 112.542 465.936 112.125C466.528 111.708 466.823 111.046 466.823 110.137C466.823 109.196 466.557 108.525 466.023 108.125C465.49 107.725 464.657 107.525 463.523 107.525H460.648V112.75ZM483.395 115.5C483.537 115.767 483.666 116.046 483.783 116.337C483.908 116.621 484.028 116.908 484.145 117.2C484.262 116.9 484.383 116.604 484.508 116.312C484.633 116.021 484.766 115.742 484.908 115.475L490.258 105.462C490.324 105.337 490.391 105.237 490.458 105.162C490.533 105.087 490.612 105.033 490.695 105C490.787 104.967 490.887 104.946 490.995 104.937C491.103 104.929 491.233 104.925 491.383 104.925H493.92V123H490.958V111.325C490.958 111.108 490.962 110.871 490.97 110.612C490.987 110.354 491.008 110.092 491.033 109.825L485.57 120.075C485.445 120.308 485.283 120.492 485.083 120.625C484.883 120.75 484.649 120.812 484.383 120.812H483.92C483.653 120.812 483.42 120.75 483.22 120.625C483.02 120.492 482.858 120.308 482.733 120.075L477.195 109.787C477.228 110.062 477.249 110.333 477.258 110.6C477.274 110.858 477.283 111.1 477.283 111.325V123H474.32V104.925H476.858C477.008 104.925 477.137 104.929 477.245 104.937C477.353 104.946 477.449 104.967 477.533 105C477.624 105.033 477.708 105.087 477.783 105.162C477.858 105.237 477.928 105.337 477.995 105.462L483.395 115.5ZM502.1 123H498.725V104.925H502.1V123ZM516.611 108.212C516.519 108.396 516.411 108.525 516.286 108.6C516.169 108.675 516.028 108.712 515.861 108.712C515.694 108.712 515.507 108.65 515.299 108.525C515.09 108.392 514.844 108.246 514.561 108.087C514.278 107.929 513.944 107.787 513.561 107.662C513.186 107.529 512.74 107.462 512.224 107.462C511.757 107.462 511.349 107.521 510.999 107.637C510.657 107.746 510.365 107.9 510.124 108.1C509.89 108.3 509.715 108.542 509.599 108.825C509.482 109.1 509.424 109.404 509.424 109.737C509.424 110.162 509.54 110.517 509.774 110.8C510.015 111.083 510.332 111.325 510.724 111.525C511.115 111.725 511.561 111.904 512.061 112.062C512.561 112.221 513.069 112.392 513.586 112.575C514.111 112.75 514.624 112.958 515.124 113.2C515.624 113.433 516.069 113.733 516.461 114.1C516.853 114.458 517.165 114.9 517.399 115.425C517.64 115.95 517.761 116.587 517.761 117.337C517.761 118.154 517.619 118.921 517.336 119.637C517.061 120.346 516.653 120.967 516.111 121.5C515.578 122.025 514.924 122.442 514.149 122.75C513.374 123.05 512.486 123.2 511.486 123.2C510.911 123.2 510.344 123.142 509.786 123.025C509.228 122.917 508.69 122.758 508.174 122.55C507.665 122.342 507.186 122.092 506.736 121.8C506.294 121.508 505.899 121.183 505.549 120.825L506.524 119.212C506.615 119.096 506.724 119 506.849 118.925C506.982 118.842 507.128 118.8 507.286 118.8C507.494 118.8 507.719 118.887 507.961 119.062C508.203 119.229 508.486 119.417 508.811 119.625C509.144 119.833 509.532 120.025 509.974 120.2C510.424 120.367 510.961 120.45 511.586 120.45C512.544 120.45 513.286 120.225 513.811 119.775C514.336 119.317 514.599 118.662 514.599 117.812C514.599 117.337 514.478 116.95 514.236 116.65C514.003 116.35 513.69 116.1 513.299 115.9C512.907 115.692 512.461 115.517 511.961 115.375C511.461 115.233 510.953 115.079 510.436 114.912C509.919 114.746 509.411 114.546 508.911 114.312C508.411 114.079 507.965 113.775 507.574 113.4C507.182 113.025 506.865 112.558 506.624 112C506.39 111.433 506.274 110.737 506.274 109.912C506.274 109.254 506.403 108.612 506.661 107.987C506.928 107.362 507.311 106.808 507.811 106.325C508.319 105.842 508.94 105.454 509.674 105.162C510.407 104.871 511.244 104.725 512.186 104.725C513.253 104.725 514.236 104.892 515.136 105.225C516.036 105.558 516.803 106.025 517.436 106.625L516.611 108.212ZM530.764 108.212C530.673 108.396 530.564 108.525 530.439 108.6C530.323 108.675 530.181 108.712 530.014 108.712C529.848 108.712 529.66 108.65 529.452 108.525C529.244 108.392 528.998 108.246 528.714 108.087C528.431 107.929 528.098 107.787 527.714 107.662C527.339 107.529 526.894 107.462 526.377 107.462C525.91 107.462 525.502 107.521 525.152 107.637C524.81 107.746 524.519 107.9 524.277 108.1C524.044 108.3 523.869 108.542 523.752 108.825C523.635 109.1 523.577 109.404 523.577 109.737C523.577 110.162 523.694 110.517 523.927 110.8C524.169 111.083 524.485 111.325 524.877 111.525C525.269 111.725 525.714 111.904 526.214 112.062C526.714 112.221 527.223 112.392 527.739 112.575C528.264 112.75 528.777 112.958 529.277 113.2C529.777 113.433 530.223 113.733 530.614 114.1C531.006 114.458 531.319 114.9 531.552 115.425C531.794 115.95 531.914 116.587 531.914 117.337C531.914 118.154 531.773 118.921 531.489 119.637C531.214 120.346 530.806 120.967 530.264 121.5C529.731 122.025 529.077 122.442 528.302 122.75C527.527 123.05 526.639 123.2 525.639 123.2C525.064 123.2 524.498 123.142 523.939 123.025C523.381 122.917 522.844 122.758 522.327 122.55C521.819 122.342 521.339 122.092 520.889 121.8C520.448 121.508 520.052 121.183 519.702 120.825L520.677 119.212C520.769 119.096 520.877 119 521.002 118.925C521.135 118.842 521.281 118.8 521.439 118.8C521.648 118.8 521.873 118.887 522.114 119.062C522.356 119.229 522.639 119.417 522.964 119.625C523.298 119.833 523.685 120.025 524.127 120.2C524.577 120.367 525.114 120.45 525.739 120.45C526.698 120.45 527.439 120.225 527.964 119.775C528.489 119.317 528.752 118.662 528.752 117.812C528.752 117.337 528.631 116.95 528.389 116.65C528.156 116.35 527.844 116.1 527.452 115.9C527.06 115.692 526.614 115.517 526.114 115.375C525.614 115.233 525.106 115.079 524.589 114.912C524.073 114.746 523.564 114.546 523.064 114.312C522.564 114.079 522.119 113.775 521.727 113.4C521.335 113.025 521.019 112.558 520.777 112C520.544 111.433 520.427 110.737 520.427 109.912C520.427 109.254 520.556 108.612 520.814 107.987C521.081 107.362 521.464 106.808 521.964 106.325C522.473 105.842 523.094 105.454 523.827 105.162C524.56 104.871 525.398 104.725 526.339 104.725C527.406 104.725 528.389 104.892 529.289 105.225C530.189 105.558 530.956 106.025 531.589 106.625L530.764 108.212ZM539.018 123H535.643V104.925H539.018V123ZM561.179 113.962C561.179 115.287 560.958 116.517 560.517 117.65C560.075 118.775 559.454 119.75 558.654 120.575C557.854 121.4 556.892 122.046 555.767 122.512C554.642 122.971 553.396 123.2 552.029 123.2C550.662 123.2 549.412 122.971 548.279 122.512C547.154 122.046 546.187 121.4 545.379 120.575C544.579 119.75 543.958 118.775 543.517 117.65C543.075 116.517 542.854 115.287 542.854 113.962C542.854 112.637 543.075 111.412 543.517 110.287C543.958 109.154 544.579 108.175 545.379 107.35C546.187 106.525 547.154 105.883 548.279 105.425C549.412 104.958 550.662 104.725 552.029 104.725C553.396 104.725 554.642 104.958 555.767 105.425C556.892 105.892 557.854 106.537 558.654 107.362C559.454 108.179 560.075 109.154 560.517 110.287C560.958 111.412 561.179 112.637 561.179 113.962ZM557.729 113.962C557.729 112.971 557.596 112.083 557.329 111.3C557.071 110.508 556.696 109.837 556.204 109.287C555.712 108.737 555.112 108.317 554.404 108.025C553.704 107.733 552.912 107.587 552.029 107.587C551.146 107.587 550.35 107.733 549.642 108.025C548.933 108.317 548.329 108.737 547.829 109.287C547.337 109.837 546.958 110.508 546.692 111.3C546.425 112.083 546.292 112.971 546.292 113.962C546.292 114.954 546.425 115.846 546.692 116.637C546.958 117.421 547.337 118.087 547.829 118.637C548.329 119.179 548.933 119.596 549.642 119.887C550.35 120.179 551.146 120.325 552.029 120.325C552.912 120.325 553.704 120.179 554.404 119.887C555.112 119.596 555.712 119.179 556.204 118.637C556.696 118.087 557.071 117.421 557.329 116.637C557.596 115.846 557.729 114.954 557.729 113.962ZM566.349 104.925C566.499 104.925 566.624 104.933 566.724 104.95C566.824 104.958 566.912 104.983 566.987 105.025C567.07 105.058 567.149 105.112 567.224 105.187C567.299 105.254 567.383 105.346 567.474 105.462L576.962 117.55C576.928 117.258 576.903 116.975 576.887 116.7C576.878 116.417 576.874 116.154 576.874 115.912V104.925H579.837V123H578.099C577.833 123 577.612 122.958 577.437 122.875C577.262 122.792 577.091 122.642 576.924 122.425L567.474 110.387C567.499 110.654 567.516 110.921 567.524 111.187C567.541 111.446 567.549 111.683 567.549 111.9V123H564.587V104.925H566.349ZM605.867 113.962C605.867 115.287 605.646 116.504 605.205 117.612C604.763 118.721 604.142 119.675 603.342 120.475C602.542 121.275 601.58 121.896 600.455 122.337C599.33 122.779 598.084 123 596.717 123H589.817V104.925H596.717C598.084 104.925 599.33 105.15 600.455 105.6C601.58 106.042 602.542 106.662 603.342 107.462C604.142 108.254 604.763 109.204 605.205 110.312C605.646 111.421 605.867 112.637 605.867 113.962ZM602.43 113.962C602.43 112.971 602.296 112.083 602.03 111.3C601.763 110.508 601.384 109.842 600.892 109.3C600.401 108.75 599.801 108.329 599.092 108.037C598.392 107.746 597.601 107.6 596.717 107.6H593.205V120.325H596.717C597.601 120.325 598.392 120.179 599.092 119.887C599.801 119.596 600.401 119.179 600.892 118.637C601.384 118.087 601.763 117.421 602.03 116.637C602.296 115.846 602.43 114.954 602.43 113.962ZM620.644 104.925V107.6H612.631V112.612H618.944V115.2H612.631V120.312H620.644V123H609.244V104.925H620.644ZM640.188 123H637.588C637.296 123 637.055 122.929 636.863 122.787C636.68 122.637 636.546 122.454 636.463 122.237L635.113 118.55H627.626L626.276 122.237C626.209 122.429 626.076 122.604 625.876 122.762C625.684 122.921 625.446 123 625.163 123H622.551L629.651 104.925H633.088L640.188 123ZM628.488 116.175H634.251L632.051 110.162C631.951 109.896 631.838 109.583 631.713 109.225C631.596 108.858 631.48 108.462 631.363 108.037C631.246 108.462 631.13 108.858 631.013 109.225C630.905 109.592 630.796 109.912 630.688 110.187L628.488 116.175ZM658.85 113.962C658.85 115.287 658.629 116.504 658.187 117.612C657.745 118.721 657.125 119.675 656.325 120.475C655.525 121.275 654.562 121.896 653.437 122.337C652.312 122.779 651.066 123 649.7 123H642.8V104.925H649.7C651.066 104.925 652.312 105.15 653.437 105.6C654.562 106.042 655.525 106.662 656.325 107.462C657.125 108.254 657.745 109.204 658.187 110.312C658.629 111.421 658.85 112.637 658.85 113.962ZM655.412 113.962C655.412 112.971 655.279 112.083 655.012 111.3C654.745 110.508 654.366 109.842 653.875 109.3C653.383 108.75 652.783 108.329 652.075 108.037C651.375 107.746 650.583 107.6 649.7 107.6H646.187V120.325H649.7C650.583 120.325 651.375 120.179 652.075 119.887C652.783 119.596 653.383 119.179 653.875 118.637C654.366 118.087 654.745 117.421 655.012 116.637C655.279 115.846 655.412 114.954 655.412 113.962ZM665.589 120.225H672.826V123H662.226V104.925H665.589V120.225ZM679.679 123H676.304V104.925H679.679V123ZM686.265 104.925C686.415 104.925 686.54 104.933 686.64 104.95C686.74 104.958 686.828 104.983 686.903 105.025C686.986 105.058 687.065 105.112 687.14 105.187C687.215 105.254 687.299 105.346 687.39 105.462L696.878 117.55C696.844 117.258 696.819 116.975 696.803 116.7C696.794 116.417 696.79 116.154 696.79 115.912V104.925H699.753V123H698.015C697.749 123 697.528 122.958 697.353 122.875C697.178 122.792 697.007 122.642 696.84 122.425L687.39 110.387C687.415 110.654 687.432 110.921 687.44 111.187C687.457 111.446 687.465 111.683 687.465 111.9V123H684.503V104.925H686.265ZM715.549 104.925V107.6H707.537V112.612H713.849V115.2H707.537V120.312H715.549V123H704.149V104.925H715.549Z" fill="white"/>
<path d="M865.289 89.115C865.359 89.235 865.419 89.3625 865.469 89.4975C865.524 89.6275 865.576 89.76 865.626 89.895C865.676 89.755 865.729 89.6225 865.784 89.4975C865.839 89.3675 865.901 89.2375 865.971 89.1075L869.609 82.5C869.674 82.385 869.741 82.315 869.811 82.29C869.881 82.265 869.981 82.2525 870.111 82.2525H871.184V93H869.909V85.1025C869.909 84.9975 869.911 84.885 869.916 84.765C869.921 84.645 869.929 84.5225 869.939 84.3975L866.256 91.1175C866.131 91.3425 865.956 91.455 865.731 91.455H865.521C865.296 91.455 865.121 91.3425 864.996 91.1175L861.231 84.375C861.246 84.505 861.256 84.6325 861.261 84.7575C861.271 84.8825 861.276 84.9975 861.276 85.1025V93H860.001V82.2525H861.074C861.204 82.2525 861.304 82.265 861.374 82.29C861.444 82.315 861.511 82.385 861.576 82.5L865.289 89.115ZM882.643 93H881.518C881.388 93 881.283 92.9675 881.203 92.9025C881.123 92.8375 881.063 92.755 881.023 92.655L880.018 90.06H875.195L874.19 92.655C874.155 92.745 874.095 92.825 874.01 92.895C873.925 92.965 873.82 93 873.695 93H872.57L876.868 82.2525H878.345L882.643 93ZM875.6 89.01H879.613L877.925 84.6375C877.815 84.3675 877.708 84.03 877.603 83.625C877.548 83.83 877.493 84.02 877.438 84.195C877.388 84.365 877.338 84.515 877.288 84.645L875.6 89.01ZM885.593 88.515V93H884.145V82.2525H887.183C887.863 82.2525 888.45 82.3225 888.945 82.4625C889.44 82.5975 889.848 82.795 890.168 83.055C890.493 83.315 890.733 83.63 890.888 84C891.043 84.365 891.12 84.775 891.12 85.23C891.12 85.61 891.06 85.965 890.94 86.295C890.82 86.625 890.645 86.9225 890.415 87.1875C890.19 87.4475 889.913 87.67 889.583 87.855C889.258 88.04 888.888 88.18 888.473 88.275C888.653 88.38 888.813 88.5325 888.953 88.7325L892.088 93H890.798C890.533 93 890.338 92.8975 890.213 92.6925L887.423 88.8525C887.338 88.7325 887.245 88.6475 887.145 88.5975C887.045 88.5425 886.895 88.515 886.695 88.515H885.593ZM885.593 87.4575H887.115C887.54 87.4575 887.913 87.4075 888.233 87.3075C888.558 87.2025 888.828 87.0575 889.043 86.8725C889.263 86.6825 889.428 86.4575 889.538 86.1975C889.648 85.9375 889.703 85.65 889.703 85.335C889.703 84.695 889.49 84.2125 889.065 83.8875C888.645 83.5625 888.018 83.4 887.183 83.4H885.593V87.4575ZM900.872 90.78C900.952 90.78 901.025 90.8125 901.09 90.8775L901.66 91.5C901.22 92.01 900.685 92.4075 900.055 92.6925C899.43 92.9775 898.675 93.12 897.79 93.12C897.015 93.12 896.312 92.9875 895.682 92.7225C895.052 92.4525 894.515 92.0775 894.07 91.5975C893.625 91.1125 893.28 90.5325 893.035 89.8575C892.79 89.1825 892.667 88.44 892.667 87.63C892.667 86.82 892.797 86.0775 893.057 85.4025C893.322 84.7275 893.692 84.1475 894.167 83.6625C894.642 83.1775 895.21 82.8025 895.87 82.5375C896.535 82.2675 897.267 82.1325 898.067 82.1325C898.857 82.1325 899.537 82.255 900.107 82.5C900.682 82.745 901.192 83.0775 901.637 83.4975L901.165 84.165C901.13 84.215 901.09 84.2575 901.045 84.2925C901 84.3225 900.935 84.3375 900.85 84.3375C900.785 84.3375 900.715 84.315 900.64 84.27C900.57 84.22 900.485 84.16 900.385 84.09C900.285 84.02 900.167 83.945 900.032 83.865C899.897 83.785 899.737 83.71 899.552 83.64C899.367 83.57 899.152 83.5125 898.907 83.4675C898.662 83.4175 898.38 83.3925 898.06 83.3925C897.485 83.3925 896.957 83.4925 896.477 83.6925C896.002 83.8875 895.592 84.1675 895.247 84.5325C894.902 84.8975 894.632 85.3425 894.437 85.8675C894.247 86.3925 894.152 86.98 894.152 87.63C894.152 88.3 894.247 88.8975 894.437 89.4225C894.632 89.9475 894.895 90.3925 895.225 90.7575C895.56 91.1175 895.955 91.3925 896.41 91.5825C896.865 91.7725 897.355 91.8675 897.88 91.8675C898.2 91.8675 898.487 91.85 898.742 91.815C898.997 91.775 899.232 91.715 899.447 91.635C899.667 91.555 899.87 91.455 900.055 91.335C900.245 91.21 900.435 91.0625 900.625 90.8925C900.71 90.8175 900.792 90.78 900.872 90.78ZM912.281 93H910.818V88.11H905.028V93H903.566V82.2525H905.028V87.045H910.818V82.2525H912.281V93ZM921.007 82.1325C921.462 82.1325 921.887 82.2 922.282 82.335C922.677 82.47 923.017 82.6675 923.302 82.9275C923.592 83.1825 923.819 83.495 923.984 83.865C924.149 84.235 924.232 84.655 924.232 85.125C924.232 85.525 924.172 85.895 924.052 86.235C923.932 86.575 923.769 86.9025 923.564 87.2175C923.359 87.5275 923.122 87.83 922.852 88.125C922.587 88.415 922.304 88.7125 922.004 89.0175L919.177 91.9125C919.377 91.8575 919.579 91.815 919.784 91.785C919.989 91.75 920.187 91.7325 920.377 91.7325H923.977C924.122 91.7325 924.237 91.775 924.322 91.86C924.407 91.945 924.449 92.055 924.449 92.19V93H917.279V92.5425C917.279 92.4475 917.297 92.35 917.332 92.25C917.372 92.15 917.434 92.0575 917.519 91.9725L920.962 88.515C921.247 88.225 921.507 87.9475 921.742 87.6825C921.977 87.4125 922.177 87.1425 922.342 86.8725C922.512 86.6025 922.642 86.33 922.732 86.055C922.822 85.775 922.867 85.4775 922.867 85.1625C922.867 84.8475 922.817 84.5725 922.717 84.3375C922.617 84.0975 922.479 83.9 922.304 83.745C922.129 83.59 921.924 83.475 921.689 83.4C921.454 83.32 921.202 83.28 920.932 83.28C920.662 83.28 920.412 83.32 920.182 83.4C919.952 83.48 919.747 83.5925 919.567 83.7375C919.392 83.8775 919.242 84.045 919.117 84.24C918.997 84.435 918.912 84.65 918.862 84.885C918.822 85.03 918.762 85.135 918.682 85.2C918.602 85.265 918.497 85.2975 918.367 85.2975C918.342 85.2975 918.314 85.2975 918.284 85.2975C918.259 85.2925 918.229 85.2875 918.194 85.2825L917.497 85.1625C917.567 84.6725 917.702 84.24 917.902 83.865C918.102 83.485 918.354 83.1675 918.659 82.9125C918.969 82.6575 919.322 82.465 919.717 82.335C920.117 82.2 920.547 82.1325 921.007 82.1325ZM933.45 87.63C933.45 88.57 933.348 89.385 933.143 90.075C932.943 90.76 932.668 91.3275 932.318 91.7775C931.968 92.2275 931.553 92.5625 931.073 92.7825C930.598 93.0025 930.088 93.1125 929.543 93.1125C928.993 93.1125 928.48 93.0025 928.005 92.7825C927.535 92.5625 927.125 92.2275 926.775 91.7775C926.425 91.3275 926.15 90.76 925.95 90.075C925.75 89.385 925.65 88.57 925.65 87.63C925.65 86.69 925.75 85.875 925.95 85.185C926.15 84.495 926.425 83.925 926.775 83.475C927.125 83.02 927.535 82.6825 928.005 82.4625C928.48 82.2425 928.993 82.1325 929.543 82.1325C930.088 82.1325 930.598 82.2425 931.073 82.4625C931.553 82.6825 931.968 83.02 932.318 83.475C932.668 83.925 932.943 84.495 933.143 85.185C933.348 85.875 933.45 86.69 933.45 87.63ZM932.063 87.63C932.063 86.81 931.993 86.1225 931.853 85.5675C931.718 85.0075 931.533 84.5575 931.298 84.2175C931.068 83.8775 930.8 83.635 930.495 83.49C930.19 83.34 929.873 83.265 929.543 83.265C929.213 83.265 928.895 83.34 928.59 83.49C928.285 83.635 928.018 83.8775 927.788 84.2175C927.558 84.5575 927.373 85.0075 927.233 85.5675C927.098 86.1225 927.03 86.81 927.03 87.63C927.03 88.45 927.098 89.1375 927.233 89.6925C927.373 90.2475 927.558 90.695 927.788 91.035C928.018 91.375 928.285 91.62 928.59 91.77C928.895 91.915 929.213 91.9875 929.543 91.9875C929.873 91.9875 930.19 91.915 930.495 91.77C930.8 91.62 931.068 91.375 931.298 91.035C931.533 90.695 931.718 90.2475 931.853 89.6925C931.993 89.1375 932.063 88.45 932.063 87.63ZM938.409 82.1325C938.864 82.1325 939.289 82.2 939.684 82.335C940.079 82.47 940.419 82.6675 940.704 82.9275C940.994 83.1825 941.221 83.495 941.386 83.865C941.551 84.235 941.634 84.655 941.634 85.125C941.634 85.525 941.574 85.895 941.454 86.235C941.334 86.575 941.171 86.9025 940.966 87.2175C940.761 87.5275 940.524 87.83 940.254 88.125C939.989 88.415 939.706 88.7125 939.406 89.0175L936.579 91.9125C936.779 91.8575 936.981 91.815 937.186 91.785C937.391 91.75 937.589 91.7325 937.779 91.7325H941.379C941.524 91.7325 941.639 91.775 941.724 91.86C941.809 91.945 941.851 92.055 941.851 92.19V93H934.681V92.5425C934.681 92.4475 934.699 92.35 934.734 92.25C934.774 92.15 934.836 92.0575 934.921 91.9725L938.364 88.515C938.649 88.225 938.909 87.9475 939.144 87.6825C939.379 87.4125 939.579 87.1425 939.744 86.8725C939.914 86.6025 940.044 86.33 940.134 86.055C940.224 85.775 940.269 85.4775 940.269 85.1625C940.269 84.8475 940.219 84.5725 940.119 84.3375C940.019 84.0975 939.881 83.9 939.706 83.745C939.531 83.59 939.326 83.475 939.091 83.4C938.856 83.32 938.604 83.28 938.334 83.28C938.064 83.28 937.814 83.32 937.584 83.4C937.354 83.48 937.149 83.5925 936.969 83.7375C936.794 83.8775 936.644 84.045 936.519 84.24C936.399 84.435 936.314 84.65 936.264 84.885C936.224 85.03 936.164 85.135 936.084 85.2C936.004 85.265 935.899 85.2975 935.769 85.2975C935.744 85.2975 935.716 85.2975 935.686 85.2975C935.661 85.2925 935.631 85.2875 935.596 85.2825L934.899 85.1625C934.969 84.6725 935.104 84.24 935.304 83.865C935.504 83.485 935.756 83.1675 936.061 82.9125C936.371 82.6575 936.724 82.465 937.119 82.335C937.519 82.2 937.949 82.1325 938.409 82.1325ZM949.375 89.1225H951.003V89.8875C951.003 89.9675 950.978 90.035 950.928 90.09C950.883 90.145 950.81 90.1725 950.71 90.1725H949.375V93H948.198V90.1725H943.435C943.335 90.1725 943.248 90.145 943.173 90.09C943.103 90.03 943.058 89.9575 943.038 89.8725L942.903 89.19L948.13 82.2525H949.375V89.1225ZM948.198 84.69C948.198 84.56 948.2 84.42 948.205 84.27C948.215 84.12 948.233 83.965 948.258 83.805L944.35 89.1225H948.198V84.69Z" fill="#FAC47E"/>
<path d="M796.46 116.575C796.46 117.592 796.335 118.508 796.085 119.325C795.835 120.142 795.46 120.837 794.96 121.412C794.468 121.987 793.852 122.429 793.11 122.737C792.368 123.046 791.506 123.2 790.522 123.2C790.072 123.2 789.631 123.171 789.197 123.113C788.764 123.063 788.31 122.979 787.835 122.862L788.01 120.862C788.027 120.679 788.093 120.533 788.21 120.425C788.335 120.308 788.514 120.25 788.747 120.25C788.889 120.25 789.072 120.279 789.297 120.337C789.531 120.396 789.822 120.425 790.172 120.425C790.647 120.425 791.068 120.358 791.435 120.225C791.802 120.083 792.106 119.862 792.347 119.562C792.597 119.262 792.785 118.875 792.91 118.4C793.035 117.917 793.097 117.333 793.097 116.65V104.925H796.46V116.575ZM808.123 120.287C808.773 120.287 809.352 120.179 809.86 119.962C810.377 119.746 810.81 119.442 811.16 119.05C811.519 118.658 811.79 118.183 811.973 117.625C812.165 117.067 812.26 116.442 812.26 115.75V104.925H815.623V115.75C815.623 116.825 815.448 117.821 815.098 118.737C814.756 119.646 814.26 120.433 813.61 121.1C812.96 121.758 812.173 122.275 811.248 122.65C810.323 123.017 809.281 123.2 808.123 123.2C806.965 123.2 805.923 123.017 804.998 122.65C804.073 122.275 803.285 121.758 802.635 121.1C801.994 120.433 801.498 119.646 801.148 118.737C800.806 117.821 800.635 116.825 800.635 115.75V104.925H803.998V115.737C803.998 116.429 804.09 117.054 804.273 117.612C804.465 118.171 804.735 118.65 805.085 119.05C805.435 119.442 805.865 119.746 806.373 119.962C806.89 120.179 807.473 120.287 808.123 120.287ZM835.836 113.962C835.836 115.287 835.616 116.504 835.174 117.612C834.732 118.721 834.111 119.675 833.311 120.475C832.511 121.275 831.549 121.896 830.424 122.337C829.299 122.779 828.053 123 826.686 123H819.786V104.925H826.686C828.053 104.925 829.299 105.15 830.424 105.6C831.549 106.042 832.511 106.662 833.311 107.462C834.111 108.254 834.732 109.204 835.174 110.312C835.616 111.421 835.836 112.637 835.836 113.962ZM832.399 113.962C832.399 112.971 832.266 112.083 831.999 111.3C831.732 110.508 831.353 109.842 830.861 109.3C830.37 108.75 829.77 108.329 829.061 108.037C828.361 107.746 827.57 107.6 826.686 107.6H823.174V120.325H826.686C827.57 120.325 828.361 120.179 829.061 119.887C829.77 119.596 830.37 119.179 830.861 118.637C831.353 118.087 831.732 117.421 831.999 116.637C832.266 115.846 832.399 114.954 832.399 113.962ZM847.513 120.525C848.272 120.525 848.93 120.458 849.488 120.325C850.055 120.183 850.592 119.992 851.101 119.75V116.462H848.838C848.622 116.462 848.451 116.404 848.326 116.287C848.201 116.162 848.138 116.012 848.138 115.837V113.937H854.151V121.25C853.692 121.583 853.213 121.875 852.713 122.125C852.222 122.367 851.692 122.567 851.126 122.725C850.567 122.883 849.967 123 849.326 123.075C848.684 123.158 847.992 123.2 847.251 123.2C845.934 123.2 844.722 122.971 843.613 122.512C842.505 122.054 841.547 121.417 840.738 120.6C839.93 119.783 839.297 118.808 838.838 117.675C838.388 116.542 838.163 115.304 838.163 113.962C838.163 112.604 838.384 111.358 838.826 110.225C839.267 109.092 839.892 108.117 840.701 107.3C841.517 106.483 842.505 105.85 843.663 105.4C844.822 104.95 846.122 104.725 847.563 104.725C849.038 104.725 850.313 104.946 851.388 105.387C852.472 105.821 853.388 106.387 854.138 107.087L853.163 108.612C852.972 108.921 852.717 109.075 852.401 109.075C852.201 109.075 851.997 109.008 851.788 108.875C851.522 108.717 851.247 108.558 850.963 108.4C850.688 108.242 850.38 108.104 850.038 107.987C849.705 107.871 849.326 107.775 848.901 107.7C848.484 107.625 848.001 107.587 847.451 107.587C846.559 107.587 845.751 107.737 845.026 108.037C844.309 108.337 843.697 108.767 843.188 109.325C842.68 109.883 842.288 110.554 842.013 111.337C841.738 112.121 841.601 112.996 841.601 113.962C841.601 115.004 841.747 115.933 842.038 116.75C842.33 117.558 842.738 118.242 843.263 118.8C843.788 119.358 844.413 119.787 845.138 120.087C845.863 120.379 846.655 120.525 847.513 120.525ZM861.817 123H858.442V104.925H861.817V123ZM868.403 104.925C868.553 104.925 868.678 104.933 868.778 104.95C868.878 104.958 868.966 104.983 869.041 105.025C869.124 105.058 869.203 105.112 869.278 105.187C869.353 105.254 869.437 105.346 869.528 105.462L879.016 117.55C878.983 117.258 878.958 116.975 878.941 116.7C878.933 116.417 878.928 116.154 878.928 115.912V104.925H881.891V123H880.153C879.887 123 879.666 122.958 879.491 122.875C879.316 122.792 879.145 122.642 878.978 122.425L869.528 110.387C869.553 110.654 869.57 110.921 869.578 111.187C869.595 111.446 869.603 111.683 869.603 111.9V123H866.641V104.925H868.403ZM894.587 120.525C895.346 120.525 896.004 120.458 896.562 120.325C897.129 120.183 897.667 119.992 898.175 119.75V116.462H895.912C895.696 116.462 895.525 116.404 895.4 116.287C895.275 116.162 895.212 116.012 895.212 115.837V113.937H901.225V121.25C900.767 121.583 900.287 121.875 899.787 122.125C899.296 122.367 898.767 122.567 898.2 122.725C897.642 122.883 897.042 123 896.4 123.075C895.758 123.158 895.067 123.2 894.325 123.2C893.008 123.2 891.796 122.971 890.687 122.512C889.579 122.054 888.621 121.417 887.812 120.6C887.004 119.783 886.371 118.808 885.912 117.675C885.462 116.542 885.237 115.304 885.237 113.962C885.237 112.604 885.458 111.358 885.9 110.225C886.342 109.092 886.967 108.117 887.775 107.3C888.592 106.483 889.579 105.85 890.737 105.4C891.896 104.95 893.196 104.725 894.637 104.725C896.112 104.725 897.387 104.946 898.462 105.387C899.546 105.821 900.462 106.387 901.212 107.087L900.237 108.612C900.046 108.921 899.792 109.075 899.475 109.075C899.275 109.075 899.071 109.008 898.862 108.875C898.596 108.717 898.321 108.558 898.037 108.4C897.762 108.242 897.454 108.104 897.112 107.987C896.779 107.871 896.4 107.775 895.975 107.7C895.558 107.625 895.075 107.587 894.525 107.587C893.633 107.587 892.825 107.737 892.1 108.037C891.383 108.337 890.771 108.767 890.262 109.325C889.754 109.883 889.362 110.554 889.087 111.337C888.812 112.121 888.675 112.996 888.675 113.962C888.675 115.004 888.821 115.933 889.112 116.75C889.404 117.558 889.812 118.242 890.337 118.8C890.862 119.358 891.487 119.787 892.212 120.087C892.937 120.379 893.729 120.525 894.587 120.525ZM914.163 116.637V123H910.8V104.925H916.688C917.896 104.925 918.942 105.067 919.825 105.35C920.709 105.633 921.438 106.029 922.013 106.537C922.588 107.046 923.013 107.654 923.288 108.362C923.563 109.071 923.7 109.846 923.7 110.687C923.7 111.562 923.554 112.367 923.263 113.1C922.971 113.825 922.534 114.45 921.95 114.975C921.367 115.5 920.638 115.908 919.763 116.2C918.888 116.492 917.863 116.637 916.688 116.637H914.163ZM914.163 114.012H916.688C917.304 114.012 917.842 113.937 918.3 113.787C918.759 113.629 919.138 113.408 919.438 113.125C919.738 112.833 919.963 112.483 920.113 112.075C920.263 111.658 920.338 111.196 920.338 110.687C920.338 110.204 920.263 109.767 920.113 109.375C919.963 108.983 919.738 108.65 919.438 108.375C919.138 108.1 918.759 107.892 918.3 107.75C917.842 107.6 917.304 107.525 916.688 107.525H914.163V114.012ZM930.538 115.938V123H927.175V104.925H932.688C933.921 104.925 934.975 105.054 935.85 105.312C936.734 105.562 937.454 105.917 938.013 106.375C938.579 106.833 938.992 107.383 939.25 108.025C939.517 108.658 939.65 109.358 939.65 110.125C939.65 110.733 939.559 111.308 939.375 111.85C939.2 112.392 938.942 112.883 938.6 113.325C938.267 113.767 937.85 114.154 937.35 114.487C936.859 114.821 936.296 115.087 935.663 115.287C936.088 115.529 936.454 115.875 936.763 116.325L941.288 123H938.263C937.971 123 937.721 122.942 937.513 122.825C937.313 122.708 937.142 122.542 937 122.325L933.2 116.537C933.059 116.321 932.9 116.167 932.725 116.075C932.559 115.983 932.309 115.938 931.975 115.938H930.538ZM930.538 113.525H932.638C933.271 113.525 933.821 113.446 934.288 113.287C934.763 113.129 935.15 112.912 935.45 112.637C935.759 112.354 935.988 112.021 936.138 111.637C936.288 111.254 936.363 110.833 936.363 110.375C936.363 109.458 936.059 108.754 935.45 108.262C934.85 107.771 933.929 107.525 932.688 107.525H930.538V113.525ZM960.922 113.962C960.922 115.287 960.701 116.517 960.259 117.65C959.818 118.775 959.197 119.75 958.397 120.575C957.597 121.4 956.634 122.046 955.509 122.512C954.384 122.971 953.138 123.2 951.772 123.2C950.405 123.2 949.155 122.971 948.022 122.512C946.897 122.046 945.93 121.4 945.122 120.575C944.322 119.75 943.701 118.775 943.259 117.65C942.818 116.517 942.597 115.287 942.597 113.962C942.597 112.637 942.818 111.412 943.259 110.287C943.701 109.154 944.322 108.175 945.122 107.35C945.93 106.525 946.897 105.883 948.022 105.425C949.155 104.958 950.405 104.725 951.772 104.725C953.138 104.725 954.384 104.958 955.509 105.425C956.634 105.892 957.597 106.537 958.397 107.362C959.197 108.179 959.818 109.154 960.259 110.287C960.701 111.412 960.922 112.637 960.922 113.962ZM957.472 113.962C957.472 112.971 957.338 112.083 957.072 111.3C956.813 110.508 956.438 109.837 955.947 109.287C955.455 108.737 954.855 108.317 954.147 108.025C953.447 107.733 952.655 107.587 951.772 107.587C950.888 107.587 950.093 107.733 949.384 108.025C948.676 108.317 948.072 108.737 947.572 109.287C947.08 109.837 946.701 110.508 946.434 111.3C946.168 112.083 946.034 112.971 946.034 113.962C946.034 114.954 946.168 115.846 946.434 116.637C946.701 117.421 947.08 118.087 947.572 118.637C948.072 119.179 948.676 119.596 949.384 119.887C950.093 120.179 950.888 120.325 951.772 120.325C952.655 120.325 953.447 120.179 954.147 119.887C954.855 119.596 955.455 119.179 955.947 118.637C956.438 118.087 956.813 117.421 957.072 116.637C957.338 115.846 957.472 114.954 957.472 113.962ZM976.754 118.737C976.938 118.737 977.096 118.808 977.229 118.95L978.554 120.387C977.821 121.296 976.917 121.992 975.842 122.475C974.775 122.958 973.492 123.2 971.992 123.2C970.65 123.2 969.442 122.971 968.367 122.512C967.3 122.054 966.388 121.417 965.629 120.6C964.871 119.783 964.288 118.808 963.879 117.675C963.479 116.542 963.279 115.304 963.279 113.962C963.279 112.604 963.504 111.362 963.954 110.237C964.404 109.104 965.038 108.129 965.854 107.312C966.671 106.496 967.646 105.862 968.779 105.412C969.921 104.954 971.179 104.725 972.554 104.725C973.896 104.725 975.067 104.942 976.067 105.375C977.075 105.8 977.938 106.367 978.654 107.075L977.529 108.637C977.463 108.737 977.375 108.825 977.267 108.9C977.167 108.975 977.025 109.012 976.842 109.012C976.65 109.012 976.454 108.937 976.254 108.787C976.054 108.637 975.8 108.475 975.492 108.3C975.184 108.125 974.792 107.962 974.317 107.812C973.85 107.662 973.254 107.587 972.529 107.587C971.679 107.587 970.896 107.737 970.179 108.037C969.471 108.329 968.859 108.75 968.342 109.3C967.834 109.85 967.434 110.521 967.142 111.312C966.859 112.096 966.717 112.979 966.717 113.962C966.717 114.979 966.859 115.883 967.142 116.675C967.434 117.467 967.825 118.133 968.317 118.675C968.809 119.217 969.388 119.633 970.054 119.925C970.721 120.208 971.438 120.35 972.204 120.35C972.663 120.35 973.075 120.325 973.442 120.275C973.817 120.225 974.159 120.146 974.467 120.037C974.784 119.929 975.079 119.792 975.354 119.625C975.638 119.45 975.917 119.237 976.192 118.987C976.275 118.912 976.363 118.854 976.454 118.812C976.546 118.762 976.646 118.737 976.754 118.737ZM993.252 104.925V107.6H985.239V112.612H991.552V115.2H985.239V120.312H993.252V123H981.852V104.925H993.252ZM1006.6 108.212C1006.5 108.396 1006.4 108.525 1006.27 108.6C1006.15 108.675 1006.01 108.712 1005.85 108.712C1005.68 108.712 1005.49 108.65 1005.28 108.525C1005.08 108.392 1004.83 108.246 1004.55 108.087C1004.26 107.929 1003.93 107.787 1003.55 107.662C1003.17 107.529 1002.73 107.462 1002.21 107.462C1001.74 107.462 1001.33 107.521 1000.98 107.637C1000.64 107.746 1000.35 107.9 1000.11 108.1C999.875 108.3 999.7 108.542 999.583 108.825C999.467 109.1 999.408 109.404 999.408 109.737C999.408 110.162 999.525 110.517 999.758 110.8C1000 111.083 1000.32 111.325 1000.71 111.525C1001.1 111.725 1001.55 111.904 1002.05 112.062C1002.55 112.221 1003.05 112.392 1003.57 112.575C1004.1 112.75 1004.61 112.958 1005.11 113.2C1005.61 113.433 1006.05 113.733 1006.45 114.1C1006.84 114.458 1007.15 114.9 1007.38 115.425C1007.63 115.95 1007.75 116.587 1007.75 117.337C1007.75 118.154 1007.6 118.921 1007.32 119.637C1007.05 120.346 1006.64 120.967 1006.1 121.5C1005.56 122.025 1004.91 122.442 1004.13 122.75C1003.36 123.05 1002.47 123.2 1001.47 123.2C1000.9 123.2 1000.33 123.142 999.771 123.025C999.213 122.917 998.675 122.758 998.158 122.55C997.65 122.342 997.171 122.092 996.721 121.8C996.279 121.508 995.883 121.183 995.533 120.825L996.508 119.212C996.6 119.096 996.708 119 996.833 118.925C996.967 118.842 997.113 118.8 997.271 118.8C997.479 118.8 997.704 118.887 997.946 119.062C998.188 119.229 998.471 119.417 998.796 119.625C999.129 119.833 999.517 120.025 999.958 120.2C1000.41 120.367 1000.95 120.45 1001.57 120.45C1002.53 120.45 1003.27 120.225 1003.8 119.775C1004.32 119.317 1004.58 118.662 1004.58 117.812C1004.58 117.337 1004.46 116.95 1004.22 116.65C1003.99 116.35 1003.68 116.1 1003.28 115.9C1002.89 115.692 1002.45 115.517 1001.95 115.375C1001.45 115.233 1000.94 115.079 1000.42 114.912C999.904 114.746 999.396 114.546 998.896 114.312C998.396 114.079 997.95 113.775 997.558 113.4C997.167 113.025 996.85 112.558 996.608 112C996.375 111.433 996.258 110.737 996.258 109.912C996.258 109.254 996.388 108.612 996.646 107.987C996.913 107.362 997.296 106.808 997.796 106.325C998.304 105.842 998.925 105.454 999.658 105.162C1000.39 104.871 1001.23 104.725 1002.17 104.725C1003.24 104.725 1004.22 104.892 1005.12 105.225C1006.02 105.558 1006.79 106.025 1007.42 106.625L1006.6 108.212ZM1020.75 108.212C1020.66 108.396 1020.55 108.525 1020.42 108.6C1020.31 108.675 1020.17 108.712 1020 108.712C1019.83 108.712 1019.65 108.65 1019.44 108.525C1019.23 108.392 1018.98 108.246 1018.7 108.087C1018.42 107.929 1018.08 107.787 1017.7 107.662C1017.32 107.529 1016.88 107.462 1016.36 107.462C1015.9 107.462 1015.49 107.521 1015.14 107.637C1014.8 107.746 1014.5 107.9 1014.26 108.1C1014.03 108.3 1013.85 108.542 1013.74 108.825C1013.62 109.1 1013.56 109.404 1013.56 109.737C1013.56 110.162 1013.68 110.517 1013.91 110.8C1014.15 111.083 1014.47 111.325 1014.86 111.525C1015.25 111.725 1015.7 111.904 1016.2 112.062C1016.7 112.221 1017.21 112.392 1017.72 112.575C1018.25 112.75 1018.76 112.958 1019.26 113.2C1019.76 113.433 1020.21 113.733 1020.6 114.1C1020.99 114.458 1021.3 114.9 1021.54 115.425C1021.78 115.95 1021.9 116.587 1021.9 117.337C1021.9 118.154 1021.76 118.921 1021.47 119.637C1021.2 120.346 1020.79 120.967 1020.25 121.5C1019.72 122.025 1019.06 122.442 1018.29 122.75C1017.51 123.05 1016.62 123.2 1015.62 123.2C1015.05 123.2 1014.48 123.142 1013.92 123.025C1013.37 122.917 1012.83 122.758 1012.31 122.55C1011.8 122.342 1011.32 122.092 1010.87 121.8C1010.43 121.508 1010.04 121.183 1009.69 120.825L1010.66 119.212C1010.75 119.096 1010.86 119 1010.99 118.925C1011.12 118.842 1011.27 118.8 1011.42 118.8C1011.63 118.8 1011.86 118.887 1012.1 119.062C1012.34 119.229 1012.62 119.417 1012.95 119.625C1013.28 119.833 1013.67 120.025 1014.11 120.2C1014.56 120.367 1015.1 120.45 1015.72 120.45C1016.68 120.45 1017.42 120.225 1017.95 119.775C1018.47 119.317 1018.74 118.662 1018.74 117.812C1018.74 117.337 1018.62 116.95 1018.37 116.65C1018.14 116.35 1017.83 116.1 1017.44 115.9C1017.05 115.692 1016.6 115.517 1016.1 115.375C1015.6 115.233 1015.09 115.079 1014.57 114.912C1014.06 114.746 1013.55 114.546 1013.05 114.312C1012.55 114.079 1012.1 113.775 1011.71 113.4C1011.32 113.025 1011 112.558 1010.76 112C1010.53 111.433 1010.41 110.737 1010.41 109.912C1010.41 109.254 1010.54 108.612 1010.8 107.987C1011.07 107.362 1011.45 106.808 1011.95 106.325C1012.46 105.842 1013.08 105.454 1013.81 105.162C1014.55 104.871 1015.38 104.725 1016.32 104.725C1017.39 104.725 1018.37 104.892 1019.27 105.225C1020.17 105.558 1020.94 106.025 1021.57 106.625L1020.75 108.212Z" fill="white"/>
<path d="M1168.16 89.2875C1168.16 89.8875 1168.08 90.425 1167.93 90.9C1167.79 91.375 1167.57 91.7775 1167.28 92.1075C1166.99 92.4325 1166.64 92.6825 1166.22 92.8575C1165.8 93.0325 1165.32 93.12 1164.77 93.12C1164.29 93.12 1163.78 93.05 1163.26 92.91C1163.27 92.765 1163.28 92.6225 1163.3 92.4825C1163.31 92.3375 1163.33 92.195 1163.34 92.055C1163.35 91.97 1163.38 91.9025 1163.43 91.8525C1163.49 91.7975 1163.57 91.77 1163.67 91.77C1163.76 91.77 1163.88 91.7925 1164.03 91.8375C1164.18 91.8825 1164.38 91.905 1164.63 91.905C1164.96 91.905 1165.25 91.855 1165.51 91.755C1165.77 91.655 1165.99 91.5 1166.16 91.29C1166.34 91.08 1166.48 90.8125 1166.57 90.4875C1166.66 90.1575 1166.71 89.7675 1166.71 89.3175V82.2525H1168.16V89.2875ZM1174.96 91.845C1175.4 91.845 1175.8 91.77 1176.15 91.62C1176.5 91.47 1176.79 91.26 1177.03 90.99C1177.28 90.72 1177.46 90.3975 1177.59 90.0225C1177.72 89.6475 1177.78 89.235 1177.78 88.785V82.2525H1179.23V88.785C1179.23 89.405 1179.13 89.98 1178.93 90.51C1178.74 91.04 1178.45 91.5 1178.08 91.89C1177.72 92.275 1177.27 92.5775 1176.74 92.7975C1176.21 93.0175 1175.62 93.1275 1174.96 93.1275C1174.3 93.1275 1173.7 93.0175 1173.17 92.7975C1172.64 92.5775 1172.19 92.275 1171.82 91.89C1171.45 91.5 1171.17 91.04 1170.97 90.51C1170.77 89.98 1170.67 89.405 1170.67 88.785V82.2525H1172.12V88.7775C1172.12 89.2275 1172.18 89.64 1172.31 90.015C1172.44 90.39 1172.62 90.7125 1172.86 90.9825C1173.11 91.2525 1173.41 91.465 1173.76 91.62C1174.11 91.77 1174.51 91.845 1174.96 91.845ZM1182.49 82.2525C1182.62 82.2525 1182.71 82.27 1182.77 82.305C1182.84 82.335 1182.91 82.4 1182.99 82.5L1189.21 90.6C1189.2 90.47 1189.19 90.345 1189.18 90.225C1189.18 90.1 1189.18 89.98 1189.18 89.865V82.2525H1190.45V93H1189.72C1189.6 93 1189.5 92.98 1189.42 92.94C1189.35 92.9 1189.27 92.8325 1189.2 92.7375L1182.98 84.645C1182.99 84.77 1183 84.8925 1183 85.0125C1183.01 85.1325 1183.01 85.2425 1183.01 85.3425V93H1181.74V82.2525H1182.49ZM1199.7 82.2525V83.4375H1194.54V87.0075H1198.71V88.1475H1194.54V91.815H1199.7V93H1193.07V82.2525H1199.7ZM1207.89 82.1325C1208.35 82.1325 1208.77 82.2 1209.17 82.335C1209.56 82.47 1209.9 82.6675 1210.19 82.9275C1210.48 83.1825 1210.71 83.495 1210.87 83.865C1211.04 84.235 1211.12 84.655 1211.12 85.125C1211.12 85.525 1211.06 85.895 1210.94 86.235C1210.82 86.575 1210.66 86.9025 1210.45 87.2175C1210.25 87.5275 1210.01 87.83 1209.74 88.125C1209.47 88.415 1209.19 88.7125 1208.89 89.0175L1206.06 91.9125C1206.26 91.8575 1206.47 91.815 1206.67 91.785C1206.88 91.75 1207.07 91.7325 1207.26 91.7325H1210.86C1211.01 91.7325 1211.12 91.775 1211.21 91.86C1211.29 91.945 1211.34 92.055 1211.34 92.19V93H1204.17V92.5425C1204.17 92.4475 1204.18 92.35 1204.22 92.25C1204.26 92.15 1204.32 92.0575 1204.41 91.9725L1207.85 88.515C1208.13 88.225 1208.39 87.9475 1208.63 87.6825C1208.86 87.4125 1209.06 87.1425 1209.23 86.8725C1209.4 86.6025 1209.53 86.33 1209.62 86.055C1209.71 85.775 1209.75 85.4775 1209.75 85.1625C1209.75 84.8475 1209.7 84.5725 1209.6 84.3375C1209.5 84.0975 1209.37 83.9 1209.19 83.745C1209.02 83.59 1208.81 83.475 1208.58 83.4C1208.34 83.32 1208.09 83.28 1207.82 83.28C1207.55 83.28 1207.3 83.32 1207.07 83.4C1206.84 83.48 1206.63 83.5925 1206.45 83.7375C1206.28 83.8775 1206.13 84.045 1206 84.24C1205.88 84.435 1205.8 84.65 1205.75 84.885C1205.71 85.03 1205.65 85.135 1205.57 85.2C1205.49 85.265 1205.38 85.2975 1205.25 85.2975C1205.23 85.2975 1205.2 85.2975 1205.17 85.2975C1205.15 85.2925 1205.12 85.2875 1205.08 85.2825L1204.38 85.1625C1204.45 84.6725 1204.59 84.24 1204.79 83.865C1204.99 83.485 1205.24 83.1675 1205.55 82.9125C1205.86 82.6575 1206.21 82.465 1206.6 82.335C1207 82.2 1207.43 82.1325 1207.89 82.1325ZM1220.34 87.63C1220.34 88.57 1220.23 89.385 1220.03 90.075C1219.83 90.76 1219.55 91.3275 1219.2 91.7775C1218.85 92.2275 1218.44 92.5625 1217.96 92.7825C1217.48 93.0025 1216.97 93.1125 1216.43 93.1125C1215.88 93.1125 1215.37 93.0025 1214.89 92.7825C1214.42 92.5625 1214.01 92.2275 1213.66 91.7775C1213.31 91.3275 1213.04 90.76 1212.84 90.075C1212.64 89.385 1212.54 88.57 1212.54 87.63C1212.54 86.69 1212.64 85.875 1212.84 85.185C1213.04 84.495 1213.31 83.925 1213.66 83.475C1214.01 83.02 1214.42 82.6825 1214.89 82.4625C1215.37 82.2425 1215.88 82.1325 1216.43 82.1325C1216.97 82.1325 1217.48 82.2425 1217.96 82.4625C1218.44 82.6825 1218.85 83.02 1219.2 83.475C1219.55 83.925 1219.83 84.495 1220.03 85.185C1220.23 85.875 1220.34 86.69 1220.34 87.63ZM1218.95 87.63C1218.95 86.81 1218.88 86.1225 1218.74 85.5675C1218.6 85.0075 1218.42 84.5575 1218.18 84.2175C1217.95 83.8775 1217.69 83.635 1217.38 83.49C1217.08 83.34 1216.76 83.265 1216.43 83.265C1216.1 83.265 1215.78 83.34 1215.48 83.49C1215.17 83.635 1214.9 83.8775 1214.67 84.2175C1214.44 84.5575 1214.26 85.0075 1214.12 85.5675C1213.98 86.1225 1213.92 86.81 1213.92 87.63C1213.92 88.45 1213.98 89.1375 1214.12 89.6925C1214.26 90.2475 1214.44 90.695 1214.67 91.035C1214.9 91.375 1215.17 91.62 1215.48 91.77C1215.78 91.915 1216.1 91.9875 1216.43 91.9875C1216.76 91.9875 1217.08 91.915 1217.38 91.77C1217.69 91.62 1217.95 91.375 1218.18 91.035C1218.42 90.695 1218.6 90.2475 1218.74 89.6925C1218.88 89.1375 1218.95 88.45 1218.95 87.63ZM1225.3 82.1325C1225.75 82.1325 1226.18 82.2 1226.57 82.335C1226.97 82.47 1227.31 82.6675 1227.59 82.9275C1227.88 83.1825 1228.11 83.495 1228.27 83.865C1228.44 84.235 1228.52 84.655 1228.52 85.125C1228.52 85.525 1228.46 85.895 1228.34 86.235C1228.22 86.575 1228.06 86.9025 1227.85 87.2175C1227.65 87.5275 1227.41 87.83 1227.14 88.125C1226.88 88.415 1226.59 88.7125 1226.29 89.0175L1223.47 91.9125C1223.67 91.8575 1223.87 91.815 1224.07 91.785C1224.28 91.75 1224.48 91.7325 1224.67 91.7325H1228.27C1228.41 91.7325 1228.53 91.775 1228.61 91.86C1228.7 91.945 1228.74 92.055 1228.74 92.19V93H1221.57V92.5425C1221.57 92.4475 1221.59 92.35 1221.62 92.25C1221.66 92.15 1221.72 92.0575 1221.81 91.9725L1225.25 88.515C1225.54 88.225 1225.8 87.9475 1226.03 87.6825C1226.27 87.4125 1226.47 87.1425 1226.63 86.8725C1226.8 86.6025 1226.93 86.33 1227.02 86.055C1227.11 85.775 1227.16 85.4775 1227.16 85.1625C1227.16 84.8475 1227.11 84.5725 1227.01 84.3375C1226.91 84.0975 1226.77 83.9 1226.59 83.745C1226.42 83.59 1226.21 83.475 1225.98 83.4C1225.74 83.32 1225.49 83.28 1225.22 83.28C1224.95 83.28 1224.7 83.32 1224.47 83.4C1224.24 83.48 1224.04 83.5925 1223.86 83.7375C1223.68 83.8775 1223.53 84.045 1223.41 84.24C1223.29 84.435 1223.2 84.65 1223.15 84.885C1223.11 85.03 1223.05 85.135 1222.97 85.2C1222.89 85.265 1222.79 85.2975 1222.66 85.2975C1222.63 85.2975 1222.6 85.2975 1222.57 85.2975C1222.55 85.2925 1222.52 85.2875 1222.48 85.2825L1221.79 85.1625C1221.86 84.6725 1221.99 84.24 1222.19 83.865C1222.39 83.485 1222.64 83.1675 1222.95 82.9125C1223.26 82.6575 1223.61 82.465 1224.01 82.335C1224.41 82.2 1224.84 82.1325 1225.3 82.1325ZM1236.26 89.1225H1237.89V89.8875C1237.89 89.9675 1237.86 90.035 1237.81 90.09C1237.77 90.145 1237.7 90.1725 1237.6 90.1725H1236.26V93H1235.08V90.1725H1230.32C1230.22 90.1725 1230.13 90.145 1230.06 90.09C1229.99 90.03 1229.94 89.9575 1229.92 89.8725L1229.79 89.19L1235.02 82.2525H1236.26V89.1225ZM1235.08 84.69C1235.08 84.56 1235.09 84.42 1235.09 84.27C1235.1 84.12 1235.12 83.965 1235.14 83.805L1231.24 89.1225H1235.08V84.69Z" fill="#FAC47E"/>
<path d="M1137.96 104.725C1138.79 104.725 1139.56 104.85 1140.25 105.1C1140.94 105.342 1141.53 105.687 1142.02 106.137C1142.51 106.587 1142.9 107.129 1143.17 107.762C1143.45 108.396 1143.58 109.1 1143.58 109.875C1143.58 110.542 1143.48 111.158 1143.28 111.725C1143.09 112.292 1142.83 112.833 1142.5 113.35C1142.17 113.867 1141.79 114.367 1141.35 114.85C1140.91 115.333 1140.44 115.825 1139.96 116.325L1135.88 120.487C1136.28 120.371 1136.68 120.283 1137.06 120.225C1137.44 120.158 1137.81 120.125 1138.16 120.125H1142.8C1143.13 120.125 1143.39 120.221 1143.58 120.412C1143.78 120.596 1143.88 120.842 1143.88 121.15V123H1131.48V121.975C1131.48 121.767 1131.53 121.55 1131.61 121.325C1131.7 121.1 1131.84 120.892 1132.03 120.7L1137.52 115.2C1137.98 114.733 1138.39 114.287 1138.75 113.862C1139.11 113.437 1139.42 113.017 1139.66 112.6C1139.91 112.183 1140.1 111.762 1140.22 111.337C1140.36 110.904 1140.42 110.45 1140.42 109.975C1140.42 109.542 1140.36 109.162 1140.23 108.837C1140.11 108.504 1139.93 108.225 1139.7 108C1139.46 107.775 1139.18 107.608 1138.86 107.5C1138.54 107.383 1138.18 107.325 1137.78 107.325C1137.04 107.325 1136.43 107.512 1135.95 107.887C1135.47 108.262 1135.14 108.767 1134.95 109.4C1134.86 109.717 1134.72 109.946 1134.53 110.088C1134.35 110.221 1134.12 110.287 1133.83 110.287C1133.71 110.287 1133.57 110.275 1133.42 110.25L1131.8 109.962C1131.92 109.096 1132.16 108.337 1132.52 107.687C1132.88 107.029 1133.33 106.483 1133.86 106.05C1134.4 105.608 1135.02 105.279 1135.71 105.062C1136.41 104.837 1137.16 104.725 1137.96 104.725ZM1159.56 113.962C1159.56 115.537 1159.39 116.908 1159.05 118.075C1158.72 119.233 1158.25 120.192 1157.65 120.95C1157.06 121.708 1156.35 122.275 1155.54 122.65C1154.73 123.017 1153.85 123.2 1152.91 123.2C1151.97 123.2 1151.09 123.017 1150.29 122.65C1149.49 122.275 1148.79 121.708 1148.2 120.95C1147.61 120.192 1147.14 119.233 1146.81 118.075C1146.48 116.908 1146.31 115.537 1146.31 113.962C1146.31 112.379 1146.48 111.008 1146.81 109.85C1147.14 108.692 1147.61 107.733 1148.2 106.975C1148.79 106.217 1149.49 105.654 1150.29 105.287C1151.09 104.912 1151.97 104.725 1152.91 104.725C1153.85 104.725 1154.73 104.912 1155.54 105.287C1156.35 105.654 1157.06 106.217 1157.65 106.975C1158.25 107.733 1158.72 108.692 1159.05 109.85C1159.39 111.008 1159.56 112.379 1159.56 113.962ZM1156.37 113.962C1156.37 112.654 1156.28 111.571 1156.09 110.712C1155.89 109.854 1155.64 109.171 1155.31 108.662C1154.99 108.154 1154.63 107.8 1154.21 107.6C1153.79 107.392 1153.36 107.287 1152.91 107.287C1152.47 107.287 1152.04 107.392 1151.62 107.6C1151.22 107.8 1150.85 108.154 1150.54 108.662C1150.22 109.171 1149.97 109.854 1149.77 110.712C1149.59 111.571 1149.5 112.654 1149.5 113.962C1149.5 115.271 1149.59 116.354 1149.77 117.212C1149.97 118.071 1150.22 118.754 1150.54 119.262C1150.85 119.771 1151.22 120.129 1151.62 120.337C1152.04 120.537 1152.47 120.637 1152.91 120.637C1153.36 120.637 1153.79 120.537 1154.21 120.337C1154.63 120.129 1154.99 119.771 1155.31 119.262C1155.64 118.754 1155.89 118.071 1156.09 117.212C1156.28 116.354 1156.37 115.271 1156.37 113.962ZM1168.46 104.725C1169.3 104.725 1170.06 104.85 1170.75 105.1C1171.44 105.342 1172.03 105.687 1172.53 106.137C1173.02 106.587 1173.4 107.129 1173.68 107.762C1173.95 108.396 1174.09 109.1 1174.09 109.875C1174.09 110.542 1173.99 111.158 1173.79 111.725C1173.6 112.292 1173.33 112.833 1173 113.35C1172.68 113.867 1172.29 114.367 1171.85 114.85C1171.41 115.333 1170.95 115.825 1170.46 116.325L1166.39 120.487C1166.79 120.371 1167.18 120.283 1167.56 120.225C1167.95 120.158 1168.31 120.125 1168.66 120.125H1173.3C1173.63 120.125 1173.9 120.221 1174.09 120.412C1174.29 120.596 1174.39 120.842 1174.39 121.15V123H1161.99V121.975C1161.99 121.767 1162.03 121.55 1162.11 121.325C1162.21 121.1 1162.35 120.892 1162.54 120.7L1168.03 115.2C1168.48 114.733 1168.89 114.287 1169.25 113.862C1169.62 113.437 1169.92 113.017 1170.16 112.6C1170.41 112.183 1170.6 111.762 1170.73 111.337C1170.86 110.904 1170.93 110.45 1170.93 109.975C1170.93 109.542 1170.86 109.162 1170.74 108.837C1170.61 108.504 1170.43 108.225 1170.2 108C1169.97 107.775 1169.69 107.608 1169.36 107.5C1169.05 107.383 1168.69 107.325 1168.29 107.325C1167.55 107.325 1166.93 107.512 1166.45 107.887C1165.98 108.262 1165.64 108.767 1165.45 109.4C1165.36 109.717 1165.22 109.946 1165.04 110.088C1164.86 110.221 1164.62 110.287 1164.34 110.287C1164.21 110.287 1164.08 110.275 1163.93 110.25L1162.3 109.962C1162.43 109.096 1162.67 108.337 1163.03 107.687C1163.38 107.029 1163.83 106.483 1164.36 106.05C1164.91 105.608 1165.52 105.279 1166.21 105.062C1166.91 104.837 1167.66 104.725 1168.46 104.725ZM1187.97 116.187H1190.24V117.975C1190.24 118.142 1190.19 118.287 1190.08 118.412C1189.97 118.529 1189.81 118.587 1189.6 118.587H1187.97V123H1185.27V118.587H1177.64C1177.43 118.587 1177.25 118.525 1177.09 118.4C1176.93 118.267 1176.83 118.104 1176.79 117.912L1176.48 116.35L1185.04 104.912H1187.97V116.187ZM1185.27 110.275C1185.27 110.008 1185.27 109.721 1185.29 109.412C1185.31 109.104 1185.34 108.783 1185.38 108.45L1179.77 116.187H1185.27V110.275ZM1214.74 123H1212.14C1211.85 123 1211.61 122.929 1211.41 122.787C1211.23 122.637 1211.1 122.454 1211.01 122.237L1209.66 118.55H1202.18L1200.83 122.237C1200.76 122.429 1200.63 122.604 1200.43 122.762C1200.23 122.921 1200 123 1199.71 123H1197.1L1204.2 104.925H1207.64L1214.74 123ZM1203.04 116.175H1208.8L1206.6 110.162C1206.5 109.896 1206.39 109.583 1206.26 109.225C1206.15 108.858 1206.03 108.462 1205.91 108.037C1205.8 108.462 1205.68 108.858 1205.56 109.225C1205.46 109.592 1205.35 109.912 1205.24 110.187L1203.04 116.175ZM1233.24 123H1230.64C1230.35 123 1230.1 122.929 1229.91 122.787C1229.73 122.637 1229.6 122.454 1229.51 122.237L1228.16 118.55H1220.68L1219.33 122.237C1219.26 122.429 1219.13 122.604 1218.93 122.762C1218.73 122.921 1218.5 123 1218.21 123H1215.6L1222.7 104.925H1226.14L1233.24 123ZM1221.54 116.175H1227.3L1225.1 110.162C1225 109.896 1224.89 109.583 1224.76 109.225C1224.65 108.858 1224.53 108.462 1224.41 108.037C1224.3 108.462 1224.18 108.858 1224.06 109.225C1223.95 109.592 1223.85 109.912 1223.74 110.187L1221.54 116.175ZM1251.9 113.962C1251.9 115.287 1251.68 116.504 1251.24 117.612C1250.8 118.721 1250.17 119.675 1249.37 120.475C1248.57 121.275 1247.61 121.896 1246.49 122.337C1245.36 122.779 1244.12 123 1242.75 123H1235.85V104.925H1242.75C1244.12 104.925 1245.36 105.15 1246.49 105.6C1247.61 106.042 1248.57 106.662 1249.37 107.462C1250.17 108.254 1250.8 109.204 1251.24 110.312C1251.68 111.421 1251.9 112.637 1251.9 113.962ZM1248.46 113.962C1248.46 112.971 1248.33 112.083 1248.06 111.3C1247.8 110.508 1247.42 109.842 1246.92 109.3C1246.43 108.75 1245.83 108.329 1245.12 108.037C1244.42 107.746 1243.63 107.6 1242.75 107.6H1239.24V120.325H1242.75C1243.63 120.325 1244.42 120.179 1245.12 119.887C1245.83 119.596 1246.43 119.179 1246.92 118.637C1247.42 118.087 1247.8 117.421 1248.06 116.637C1248.33 115.846 1248.46 114.954 1248.46 113.962ZM1270.53 123H1267.93C1267.64 123 1267.4 122.929 1267.2 122.787C1267.02 122.637 1266.89 122.454 1266.8 122.237L1265.45 118.55H1257.97L1256.62 122.237C1256.55 122.429 1256.42 122.604 1256.22 122.762C1256.02 122.921 1255.79 123 1255.5 123H1252.89L1259.99 104.925H1263.43L1270.53 123ZM1258.83 116.175H1264.59L1262.39 110.162C1262.29 109.896 1262.18 109.583 1262.05 109.225C1261.94 108.858 1261.82 108.462 1261.7 108.037C1261.59 108.462 1261.47 108.858 1261.35 109.225C1261.25 109.592 1261.14 109.912 1261.03 110.187L1258.83 116.175ZM1093.3 134.925H1096.12C1096.41 134.925 1096.66 134.996 1096.85 135.137C1097.05 135.271 1097.18 135.454 1097.25 135.687L1100.32 146.5C1100.4 146.767 1100.46 147.058 1100.52 147.375C1100.59 147.683 1100.65 148.012 1100.71 148.362C1100.78 148.012 1100.85 147.683 1100.92 147.375C1101.01 147.058 1101.09 146.767 1101.18 146.5L1104.73 135.687C1104.8 135.496 1104.93 135.321 1105.12 135.162C1105.32 135.004 1105.56 134.925 1105.85 134.925H1106.83C1107.13 134.925 1107.37 134.996 1107.56 135.137C1107.75 135.271 1107.88 135.454 1107.96 135.687L1111.48 146.5C1111.67 147.033 1111.83 147.625 1111.96 148.275C1112.02 147.95 1112.08 147.637 1112.13 147.337C1112.2 147.037 1112.27 146.758 1112.33 146.5L1115.41 135.687C1115.47 135.479 1115.6 135.3 1115.8 135.15C1116 135 1116.24 134.925 1116.52 134.925H1119.16L1113.55 153H1110.51L1106.56 140.65C1106.51 140.492 1106.46 140.321 1106.4 140.137C1106.35 139.954 1106.3 139.758 1106.25 139.55C1106.2 139.758 1106.14 139.954 1106.08 140.137C1106.03 140.321 1105.98 140.492 1105.93 140.65L1101.95 153H1098.91L1093.3 134.925ZM1125.68 153H1122.31V134.925H1125.68V153ZM1132.27 134.925C1132.42 134.925 1132.54 134.933 1132.64 134.95C1132.74 134.958 1132.83 134.983 1132.91 135.025C1132.99 135.058 1133.07 135.112 1133.14 135.187C1133.22 135.254 1133.3 135.346 1133.39 135.462L1142.88 147.55C1142.85 147.258 1142.82 146.975 1142.81 146.7C1142.8 146.417 1142.79 146.154 1142.79 145.912V134.925H1145.76V153H1144.02C1143.75 153 1143.53 152.958 1143.36 152.875C1143.18 152.792 1143.01 152.642 1142.84 152.425L1133.39 140.387C1133.42 140.654 1133.43 140.921 1133.44 141.187C1133.46 141.446 1133.47 141.683 1133.47 141.9V153H1130.51V134.925H1132.27ZM1151.91 134.925C1152.06 134.925 1152.19 134.933 1152.29 134.95C1152.39 134.958 1152.48 134.983 1152.55 135.025C1152.63 135.058 1152.71 135.112 1152.79 135.187C1152.86 135.254 1152.95 135.346 1153.04 135.462L1162.53 147.55C1162.49 147.258 1162.47 146.975 1162.45 146.7C1162.44 146.417 1162.44 146.154 1162.44 145.912V134.925H1165.4V153H1163.66C1163.4 153 1163.18 152.958 1163 152.875C1162.83 152.792 1162.66 152.642 1162.49 152.425L1153.04 140.387C1153.06 140.654 1153.08 140.921 1153.09 141.187C1153.11 141.446 1153.11 141.683 1153.11 141.9V153H1150.15V134.925H1151.91ZM1181.2 134.925V137.6H1173.19V142.612H1179.5V145.2H1173.19V150.312H1181.2V153H1169.8V134.925H1181.2ZM1188.33 145.938V153H1184.97V134.925H1190.48C1191.71 134.925 1192.77 135.054 1193.64 135.312C1194.53 135.562 1195.25 135.917 1195.8 136.375C1196.37 136.833 1196.78 137.383 1197.04 138.025C1197.31 138.658 1197.44 139.358 1197.44 140.125C1197.44 140.733 1197.35 141.308 1197.17 141.85C1196.99 142.392 1196.73 142.883 1196.39 143.325C1196.06 143.767 1195.64 144.154 1195.14 144.487C1194.65 144.821 1194.09 145.087 1193.45 145.287C1193.88 145.529 1194.25 145.875 1194.55 146.325L1199.08 153H1196.05C1195.76 153 1195.51 152.942 1195.3 152.825C1195.1 152.708 1194.93 152.542 1194.79 152.325L1190.99 146.537C1190.85 146.321 1190.69 146.167 1190.52 146.075C1190.35 145.983 1190.1 145.938 1189.77 145.938H1188.33ZM1188.33 143.525H1190.43C1191.06 143.525 1191.61 143.446 1192.08 143.287C1192.55 143.129 1192.94 142.912 1193.24 142.637C1193.55 142.354 1193.78 142.021 1193.93 141.637C1194.08 141.254 1194.15 140.833 1194.15 140.375C1194.15 139.458 1193.85 138.754 1193.24 138.262C1192.64 137.771 1191.72 137.525 1190.48 137.525H1188.33V143.525ZM1211.67 138.212C1211.58 138.396 1211.47 138.525 1211.35 138.6C1211.23 138.675 1211.09 138.712 1210.92 138.712C1210.76 138.712 1210.57 138.65 1210.36 138.525C1210.15 138.392 1209.91 138.246 1209.62 138.087C1209.34 137.929 1209.01 137.787 1208.62 137.662C1208.25 137.529 1207.8 137.462 1207.29 137.462C1206.82 137.462 1206.41 137.521 1206.06 137.637C1205.72 137.746 1205.43 137.9 1205.19 138.1C1204.95 138.3 1204.78 138.542 1204.66 138.825C1204.54 139.1 1204.49 139.404 1204.49 139.737C1204.49 140.162 1204.6 140.517 1204.84 140.8C1205.08 141.083 1205.39 141.325 1205.79 141.525C1206.18 141.725 1206.62 141.904 1207.12 142.062C1207.62 142.221 1208.13 142.392 1208.65 142.575C1209.17 142.75 1209.69 142.958 1210.19 143.2C1210.69 143.433 1211.13 143.733 1211.52 144.1C1211.92 144.458 1212.23 144.9 1212.46 145.425C1212.7 145.95 1212.82 146.587 1212.82 147.337C1212.82 148.154 1212.68 148.921 1212.4 149.637C1212.12 150.346 1211.72 150.967 1211.17 151.5C1210.64 152.025 1209.99 152.442 1209.21 152.75C1208.44 153.05 1207.55 153.2 1206.55 153.2C1205.97 153.2 1205.41 153.142 1204.85 153.025C1204.29 152.917 1203.75 152.758 1203.24 152.55C1202.73 152.342 1202.25 152.092 1201.8 151.8C1201.36 151.508 1200.96 151.183 1200.61 150.825L1201.59 149.212C1201.68 149.096 1201.79 149 1201.91 148.925C1202.04 148.842 1202.19 148.8 1202.35 148.8C1202.56 148.8 1202.78 148.887 1203.02 149.062C1203.27 149.229 1203.55 149.417 1203.87 149.625C1204.21 149.833 1204.59 150.025 1205.04 150.2C1205.49 150.367 1206.02 150.45 1206.65 150.45C1207.61 150.45 1208.35 150.225 1208.87 149.775C1209.4 149.317 1209.66 148.662 1209.66 147.812C1209.66 147.337 1209.54 146.95 1209.3 146.65C1209.07 146.35 1208.75 146.1 1208.36 145.9C1207.97 145.692 1207.52 145.517 1207.02 145.375C1206.52 145.233 1206.02 145.079 1205.5 144.912C1204.98 144.746 1204.47 144.546 1203.97 144.312C1203.47 144.079 1203.03 143.775 1202.64 143.4C1202.24 143.025 1201.93 142.558 1201.69 142C1201.45 141.433 1201.34 140.737 1201.34 139.912C1201.34 139.254 1201.47 138.612 1201.72 137.987C1201.99 137.362 1202.37 136.808 1202.87 136.325C1203.38 135.842 1204 135.454 1204.74 135.162C1205.47 134.871 1206.31 134.725 1207.25 134.725C1208.32 134.725 1209.3 134.892 1210.2 135.225C1211.1 135.558 1211.87 136.025 1212.5 136.625L1211.67 138.212ZM1218.18 133.85C1218.47 134.317 1218.68 134.783 1218.81 135.25C1218.96 135.717 1219.03 136.183 1219.03 136.65C1219.03 137.483 1218.81 138.279 1218.39 139.037C1217.97 139.796 1217.37 140.496 1216.58 141.137L1215.61 140.55C1215.53 140.5 1215.47 140.442 1215.44 140.375C1215.41 140.3 1215.39 140.229 1215.39 140.162C1215.39 140.004 1215.44 139.871 1215.55 139.762C1215.66 139.637 1215.77 139.496 1215.89 139.337C1216.01 139.171 1216.13 138.992 1216.23 138.8C1216.33 138.6 1216.41 138.383 1216.46 138.15C1216.53 137.917 1216.56 137.667 1216.56 137.4C1216.56 137.117 1216.52 136.817 1216.43 136.5C1216.34 136.175 1216.18 135.833 1215.96 135.475C1215.89 135.367 1215.85 135.254 1215.85 135.137C1215.85 134.871 1216.01 134.683 1216.31 134.575L1218.18 133.85ZM1229.85 134.925C1230 134.925 1230.13 134.933 1230.23 134.95C1230.33 134.958 1230.41 134.983 1230.49 135.025C1230.57 135.058 1230.65 135.112 1230.73 135.187C1230.8 135.254 1230.88 135.346 1230.98 135.462L1240.46 147.55C1240.43 147.258 1240.41 146.975 1240.39 146.7C1240.38 146.417 1240.38 146.154 1240.38 145.912V134.925H1243.34V153H1241.6C1241.33 153 1241.11 152.958 1240.94 152.875C1240.76 152.792 1240.59 152.642 1240.43 152.425L1230.98 140.387C1231 140.654 1231.02 140.921 1231.03 141.187C1231.04 141.446 1231.05 141.683 1231.05 141.9V153H1228.09V134.925H1229.85ZM1251.52 153H1248.15V134.925H1251.52V153ZM1264.65 150.525C1265.41 150.525 1266.06 150.458 1266.62 150.325C1267.19 150.183 1267.73 149.992 1268.23 149.75V146.462H1265.97C1265.76 146.462 1265.58 146.404 1265.46 146.287C1265.33 146.162 1265.27 146.012 1265.27 145.837V143.937H1271.28V151.25C1270.83 151.583 1270.35 151.875 1269.85 152.125C1269.36 152.367 1268.83 152.567 1268.26 152.725C1267.7 152.883 1267.1 153 1266.46 153.075C1265.82 153.158 1265.13 153.2 1264.38 153.2C1263.07 153.2 1261.86 152.971 1260.75 152.512C1259.64 152.054 1258.68 151.417 1257.87 150.6C1257.06 149.783 1256.43 148.808 1255.97 147.675C1255.52 146.542 1255.3 145.304 1255.3 143.962C1255.3 142.604 1255.52 141.358 1255.96 140.225C1256.4 139.092 1257.03 138.117 1257.83 137.3C1258.65 136.483 1259.64 135.85 1260.8 135.4C1261.96 134.95 1263.26 134.725 1264.7 134.725C1266.17 134.725 1267.45 134.946 1268.52 135.387C1269.61 135.821 1270.52 136.387 1271.27 137.087L1270.3 138.612C1270.11 138.921 1269.85 139.075 1269.53 139.075C1269.33 139.075 1269.13 139.008 1268.92 138.875C1268.66 138.717 1268.38 138.558 1268.1 138.4C1267.82 138.242 1267.51 138.104 1267.17 137.987C1266.84 137.871 1266.46 137.775 1266.03 137.7C1265.62 137.625 1265.13 137.587 1264.58 137.587C1263.69 137.587 1262.88 137.737 1262.16 138.037C1261.44 138.337 1260.83 138.767 1260.32 139.325C1259.81 139.883 1259.42 140.554 1259.15 141.337C1258.87 142.121 1258.73 142.996 1258.73 143.962C1258.73 145.004 1258.88 145.933 1259.17 146.75C1259.46 147.558 1259.87 148.242 1260.4 148.8C1260.92 149.358 1261.55 149.787 1262.27 150.087C1263 150.379 1263.79 150.525 1264.65 150.525ZM1290.41 153H1287.03V145.1H1278.55V153H1275.16V134.925H1278.55V142.7H1287.03V134.925H1290.41V153ZM1307.55 134.925V137.687H1302.11V153H1298.75V137.687H1293.28V134.925H1307.55Z" fill="white"/>
<path d="M242 47.75L1201.71 47.75" stroke="#FAC47E" stroke-width="0.5"/>
<circle cx="242" cy="47.5" r="6.25" fill="url(#paint1_linear_2_8257)" stroke="#FAC47E" stroke-width="0.5"/>
<circle cx="569.5" cy="47.5" r="6.25" fill="url(#paint2_linear_2_8257)" stroke="#FAC47E" stroke-width="0.5"/>
<circle cx="905" cy="47.5" r="6.25" fill="url(#paint3_linear_2_8257)" stroke="#FAC47E" stroke-width="0.5"/>
<circle cx="1202.5" cy="47.5" r="6.25" fill="url(#paint4_linear_2_8257)" stroke="#FAC47E" stroke-width="0.5"/>
<defs>
<linearGradient id="paint0_linear_2_8257" x1="0" y1="182" x2="47.9843" y2="-121.836" gradientUnits="userSpaceOnUse">
<stop stop-color="#16203C"/>
<stop offset="1" stop-color="#1D2849"/>
</linearGradient>
<linearGradient id="paint1_linear_2_8257" x1="235.5" y1="54" x2="246.352" y2="45.3156" gradientUnits="userSpaceOnUse">
<stop stop-color="#16203C"/>
<stop offset="1" stop-color="#1D2849"/>
</linearGradient>
<linearGradient id="paint2_linear_2_8257" x1="563" y1="54" x2="573.852" y2="45.3156" gradientUnits="userSpaceOnUse">
<stop stop-color="#16203C"/>
<stop offset="1" stop-color="#1D2849"/>
</linearGradient>
<linearGradient id="paint3_linear_2_8257" x1="898.5" y1="54" x2="909.352" y2="45.3156" gradientUnits="userSpaceOnUse">
<stop stop-color="#16203C"/>
<stop offset="1" stop-color="#1D2849"/>
</linearGradient>
<linearGradient id="paint4_linear_2_8257" x1="1196" y1="54" x2="1206.85" y2="45.3156" gradientUnits="userSpaceOnUse">
<stop stop-color="#16203C"/>
<stop offset="1" stop-color="#1D2849"/>
</linearGradient>
</defs>
</svg>
