<svg width="59" height="59" viewBox="0 0 59 59" fill="none" xmlns="http://www.w3.org/2000/svg">
<rect width="58.1007" height="58.1007" transform="translate(0.203705 0.00610352)" fill="#A67F56"/>
<g clip-path="url(#clip0_6065_4830)">
<path d="M38.7446 24.551L28.0853 16.7297C27.2528 16.1201 26.2677 15.753 25.2392 15.669C24.2108 15.5851 23.1792 15.7876 22.2588 16.2542C21.3385 16.7207 20.5653 17.4331 20.025 18.3122C19.4848 19.1913 19.1986 20.2029 19.1982 21.2348V36.8773C19.1983 37.9096 19.4846 38.9217 20.0251 39.8012C20.5655 40.6808 21.3392 41.3933 22.2601 41.8599C23.181 42.3264 24.2131 42.5286 25.242 42.4441C26.2709 42.3596 27.2562 41.9917 28.0887 41.3812L38.7479 33.5599C39.4555 33.0411 40.0309 32.3628 40.4275 31.5801C40.8241 30.7974 41.0308 29.9323 41.0308 29.0549C41.0308 28.1775 40.8241 27.3124 40.4275 26.5297C40.0309 25.747 39.4555 25.0688 38.7479 24.5499L38.7446 24.551ZM37.4217 31.7577L26.7624 39.579C26.263 39.9439 25.6723 40.1635 25.0558 40.2136C24.4393 40.2636 23.8209 40.142 23.2692 39.8623C22.7175 39.5827 22.2539 39.1558 21.9298 38.6289C21.6057 38.1021 21.4337 37.4958 21.4328 36.8773V21.2348C21.4266 20.6151 21.5954 20.0062 21.9197 19.478C22.244 18.9499 22.7108 18.524 23.2663 18.2493C23.7388 18.009 24.2613 17.8834 24.7915 17.8828C25.502 17.8855 26.1928 18.1162 26.7624 18.5409L37.4217 26.3622C37.8457 26.6736 38.1904 27.0804 38.4281 27.5497C38.6657 28.0191 38.7895 28.5378 38.7895 29.0638C38.7895 29.5899 38.6657 30.1086 38.4281 30.578C38.1904 31.0473 37.8457 31.4541 37.4217 31.7655V31.7577Z" fill="white"/>
</g>
<defs>
<clipPath id="clip0_6065_4830">
<rect width="26.8157" height="26.8157" fill="white" transform="translate(15.8462 15.6486)"/>
</clipPath>
</defs>
</svg>
